<?xml version="1.0" encoding="UTF-8" standalone="no"?>
<!-- Created with Inkscape (http://www.inkscape.org/) -->

<svg
   width="49.665066mm"
   height="8.7968721mm"
   viewBox="0 0 49.665066 8.7968721"
   version="1.1"
   id="svg1"
   inkscape:version="1.3 (0e150ed, 2023-07-21)"
   sodipodi:docname="commitid.svg"
   xmlns:inkscape="http://www.inkscape.org/namespaces/inkscape"
   xmlns:sodipodi="http://sodipodi.sourceforge.net/DTD/sodipodi-0.dtd"
   xmlns="http://www.w3.org/2000/svg"
   xmlns:svg="http://www.w3.org/2000/svg">
  <sodipodi:namedview
     id="namedview1"
     pagecolor="#ffffff"
     bordercolor="#000000"
     borderopacity="0.25"
     inkscape:showpageshadow="2"
     inkscape:pageopacity="0.0"
     inkscape:pagecheckerboard="0"
     inkscape:deskcolor="#d1d1d1"
     inkscape:document-units="mm"
     inkscape:zoom="0.2102413"
     inkscape:cx="233.06553"
     inkscape:cy="14.269318"
     inkscape:window-width="1312"
     inkscape:window-height="449"
     inkscape:window-x="0"
     inkscape:window-y="25"
     inkscape:window-maximized="0"
     inkscape:current-layer="layer1" />
  <defs
     id="defs1" />
  <g
     inkscape:label="Layer 1"
     inkscape:groupmode="layer"
     id="layer1"
     transform="translate(-43.127075,-145.25626)">
    <path
       style="font-size:13.7882px;font-family:'CMU Typewriter Text';-inkscape-font-specification:'CMU Typewriter Text';text-align:center;letter-spacing:0px;text-anchor:middle;fill:#4d4d4d;stroke-width:0.977115;stroke-linecap:round;stroke-linejoin:bevel;stroke-miterlimit:3.9"
       d="m 43.127075,145.9043 q 0,-0.42743 0.565317,-0.42743 h 1.006538 q 0.344705,0 0.441223,0.12409 0.110305,0.11031 0.110305,0.44122 v 2.50946 q 0.744563,-0.67562 1.751102,-0.67562 1.103056,0 1.888983,0.89623 0.799716,0.88244 0.799716,2.15096 0,1.29609 -0.854869,2.17853 -0.84108,0.88245 -1.985501,0.88245 -0.910021,0 -1.599431,-0.7032 0,0.22061 -0.01379,0.33092 -0.01379,0.0965 -0.124094,0.19303 -0.110305,0.0965 -0.330917,0.0965 -0.220611,0 -0.344705,-0.0965 -0.110305,-0.0965 -0.124093,-0.19303 -0.01379,-0.0965 -0.01379,-0.27577 v -7.01819 h -0.620469 q -0.551528,0 -0.551528,-0.41365 z m 2.123383,5.36361 q 0,0.62047 0.413646,1.25473 0.413646,0.62047 1.144421,0.62047 0.758351,0 1.337455,-0.63426 0.592893,-0.63426 0.592893,-1.58564 0,-0.91002 -0.53774,-1.55807 -0.523952,-0.64804 -1.282303,-0.64804 -0.648045,0 -1.158208,0.46879 -0.510164,0.4688 -0.510164,1.07548 z m 5.446334,-0.33091 q 0,-1.2961 0.84108,-2.17854 0.841081,-0.88244 1.985501,-0.88244 0.910021,0 1.61322,0.62046 v -2.17853 h -0.620469 q -0.551528,0 -0.551528,-0.41365 0,-0.42743 0.565316,-0.42743 h 1.006538 q 0.344706,0 0.441223,0.12409 0.110306,0.11031 0.110306,0.44122 v 7.0182 h 0.620469 q 0.551528,0 0.551528,0.41364 0,0.42744 -0.565317,0.42744 h -1.006538 q -0.38607,0 -0.468799,-0.13788 -0.08273,-0.13789 -0.08273,-0.55153 -0.744563,0.77214 -1.737314,0.77214 -1.103056,0 -1.902771,-0.88245 -0.799716,-0.89623 -0.799716,-2.16474 z m 0.951386,0 q 0,0.91002 0.523952,1.55806 0.537739,0.64805 1.282302,0.64805 0.730775,0 1.199574,-0.62047 0.482587,-0.63426 0.482587,-1.29609 v -0.97896 q 0,-0.5929 -0.455011,-1.0617 -0.455011,-0.46879 -1.103056,-0.46879 -0.758351,0 -1.351244,0.63425 -0.579104,0.63426 -0.579104,1.58565 z m 6.54939,1.19957 q 0,-0.96517 1.116844,-1.48913 1.130633,-0.53774 3.019616,-0.56531 0,-0.7032 -0.468799,-1.04791 -0.468798,-0.35849 -1.296091,-0.35849 -0.30334,0 -0.496375,0.0138 -0.206823,0.0138 -0.248187,0.0414 -0.04136,0.0276 -0.04136,0.11031 -0.01379,0.3447 -0.206823,0.49637 -0.193035,0.13789 -0.399858,0.13789 -0.261976,0 -0.441222,-0.16546 -0.179247,-0.16546 -0.179247,-0.4688 0,-1.00654 1.999289,-1.00654 1.365032,0 2.040654,0.64805 0.68941,0.64804 0.68941,1.48912 v 2.97825 q 0.289552,0.11031 0.827292,0.11031 0.551528,0 0.551528,0.41364 0,0.20683 -0.110306,0.30334 -0.09652,0.0965 -0.220611,0.11031 -0.110305,0.0138 -0.358493,0.0138 -1.171997,0 -1.489126,-0.44122 -0.799715,0.52395 -2.013077,0.52395 -1.020327,0 -1.654584,-0.55153 -0.620469,-0.55153 -0.620469,-1.29609 z m 0.951386,0 q 0,0.41365 0.399858,0.71699 0.399857,0.28955 1.020326,0.28955 0.730775,0 1.22715,-0.2344 0.248188,-0.11031 0.372282,-0.26198 0.124094,-0.16546 0.137882,-0.27576 0.02758,-0.11031 0.02758,-0.31713 v -1.15821 q -1.475337,0.0414 -2.330206,0.38607 -0.854868,0.34471 -0.854868,0.85487 z m 6.135744,-5.73589 v -0.57911 q 0,-0.17924 0.01379,-0.27576 0.01379,-0.0965 0.124094,-0.19304 0.110305,-0.0965 0.330917,-0.0965 0.358493,0 0.441222,0.22061 h 4.550106 q 0.165459,0 0.248188,0.0138 0.09652,0.0138 0.193035,0.12409 0.110305,0.0965 0.110305,0.28955 0,0.13788 -0.05515,0.20683 -0.04136,0.0689 -0.248187,0.26197 -0.317129,0.31713 -0.634257,0.68941 -0.317129,0.35849 -0.77214,1.0479 -0.441222,0.67563 -0.772139,1.42019 -0.330917,0.74456 -0.579104,1.80625 -0.248188,1.04791 -0.261976,2.16475 0,0.27576 -0.137882,0.41365 -0.137882,0.13788 -0.330917,0.13788 -0.482587,0 -0.482587,-0.64805 0,-0.66183 0.110306,-1.40639 0.124094,-0.75835 0.413646,-1.72353 0.289552,-0.97896 0.882445,-2.01308 0.60668,-1.0479 1.447761,-1.94413 h -3.640085 q 0,0.24819 -0.01379,0.35849 -0.01379,0.0965 -0.124093,0.19304 -0.110306,0.0965 -0.344705,0.0965 -0.317129,0 -0.399858,-0.13788 -0.06894,-0.15167 -0.06894,-0.42743 z m 7.362894,3.37811 q 0,-1.99929 1.103056,-3.22644 1.116844,-1.22715 2.592181,-1.22715 0.92381,0 1.37882,0.42743 0.455011,0.41365 0.455011,0.99275 0,0.30334 -0.179247,0.48259 -0.179246,0.16546 -0.441222,0.16546 -0.261976,0 -0.441222,-0.17925 -0.165459,-0.17925 -0.165459,-0.42743 0,-0.26198 0.137882,-0.39986 -0.220611,-0.22061 -0.758351,-0.22061 -0.965174,0 -1.764889,0.84108 -0.799716,0.84108 -0.937598,2.23369 0.882445,-0.79972 2.054442,-0.79972 1.14442,0 1.930348,0.81351 0.799715,0.8135 0.799715,1.9855 0,1.21336 -0.854868,2.01307 -0.84108,0.79972 -1.999289,0.79972 -0.551528,0 -1.047903,-0.22061 -0.482587,-0.22061 -0.92381,-0.67562 -0.427434,-0.4688 -0.68941,-1.33746 -0.248187,-0.86866 -0.248187,-2.04065 z m 1.089268,1.06169 q 0,0.13788 0.04136,0.42743 l -0.01379,0.1241 0.01379,0.0551 q 0.01379,0.0414 0.02758,0.12409 0.02758,0.0827 0.04136,0.1241 0.496375,1.5167 1.709737,1.5167 0.772139,0 1.337455,-0.55153 0.565317,-0.55153 0.565317,-1.42018 0,-0.79972 -0.523952,-1.36504 -0.510163,-0.5791 -1.323667,-0.5791 -0.785928,0 -1.337456,0.45501 -0.537739,0.44122 -0.537739,1.08927 z m 6.149532,-1.06169 q 0,-1.99929 1.103056,-3.22644 1.116844,-1.22715 2.592181,-1.22715 0.92381,0 1.378821,0.42743 0.45501,0.41365 0.45501,0.99275 0,0.30334 -0.179246,0.48259 -0.179247,0.16546 -0.441223,0.16546 -0.261976,0 -0.441222,-0.17925 -0.165459,-0.17925 -0.165459,-0.42743 0,-0.26198 0.137882,-0.39986 -0.220611,-0.22061 -0.758351,-0.22061 -0.965174,0 -1.764889,0.84108 -0.799716,0.84108 -0.937598,2.23369 0.882445,-0.79972 2.054442,-0.79972 1.14442,0 1.930348,0.81351 0.799716,0.8135 0.799716,1.9855 0,1.21336 -0.854869,2.01307 -0.84108,0.79972 -1.999289,0.79972 -0.551528,0 -1.047903,-0.22061 -0.482587,-0.22061 -0.92381,-0.67562 -0.427434,-0.4688 -0.68941,-1.33746 -0.248187,-0.86866 -0.248187,-2.04065 z m 1.089268,1.06169 q 0,0.13788 0.04136,0.42743 l -0.01379,0.1241 0.01379,0.0551 q 0.01379,0.0414 0.02758,0.12409 0.02758,0.0827 0.04136,0.1241 0.496375,1.5167 1.709737,1.5167 0.772139,0 1.337455,-0.55153 0.565317,-0.55153 0.565317,-1.42018 0,-0.79972 -0.523952,-1.36504 -0.510163,-0.5791 -1.323667,-0.5791 -0.785928,0 -1.337456,0.45501 -0.537739,0.44122 -0.537739,1.08927 z m 7.100918,2.24747 q -0.92381,-0.91002 -0.92381,-2.17853 0,-1.26852 0.868657,-2.16475 0.868656,-0.91002 2.095806,-0.91002 1.282303,0 1.971713,0.84108 0.703198,0.82729 0.703198,2.08202 0,0.17925 -0.04136,0.28955 -0.04136,0.11031 -0.137882,0.16546 -0.08273,0.0414 -0.165459,0.0551 -0.06894,0 -0.206823,0 H 88.13173 q 0.165459,0.85487 0.813504,1.36503 0.661834,0.51017 1.475338,0.51017 1.075479,0 1.433973,-0.82729 0.06894,-0.19304 0.165458,-0.24819 0.09652,-0.0551 0.289552,-0.0551 0.482587,0 0.482587,0.38606 0,0.15168 -0.137882,0.39986 -0.137882,0.2344 -0.413646,0.52395 -0.261976,0.27577 -0.772139,0.4688 -0.510163,0.19304 -1.144421,0.19304 -1.323667,0 -2.247476,-0.89624 z m 0.06894,-2.64733 h 3.667661 q -0.08273,-0.96517 -0.565316,-1.36503 -0.482587,-0.39986 -1.130633,-0.39986 -0.716986,0 -1.268514,0.51016 -0.551528,0.49638 -0.703198,1.25473 z"
       id="text57"
       aria-label="bda766e" />
  </g>
</svg>
