<?xml version="1.0" encoding="UTF-8" standalone="no"?>
<!-- Created with Inkscape (http://www.inkscape.org/) -->

<svg
   width="73.372116mm"
   height="28.92218mm"
   viewBox="0 0 73.372117 28.92218"
   version="1.1"
   id="svg1"
   inkscape:version="1.3 (0e150ed, 2023-07-21)"
   sodipodi:docname="compiler_options.svg"
   xmlns:inkscape="http://www.inkscape.org/namespaces/inkscape"
   xmlns:sodipodi="http://sodipodi.sourceforge.net/DTD/sodipodi-0.dtd"
   xmlns="http://www.w3.org/2000/svg"
   xmlns:svg="http://www.w3.org/2000/svg">
  <sodipodi:namedview
     id="namedview1"
     pagecolor="#ffffff"
     bordercolor="#000000"
     borderopacity="0.25"
     inkscape:showpageshadow="2"
     inkscape:pageopacity="0.0"
     inkscape:pagecheckerboard="0"
     inkscape:deskcolor="#d1d1d1"
     inkscape:document-units="mm"
     inkscape:zoom="1.201321"
     inkscape:cx="139.01363"
     inkscape:cy="34.961512"
     inkscape:window-width="1312"
     inkscape:window-height="449"
     inkscape:window-x="0"
     inkscape:window-y="25"
     inkscape:window-maximized="0"
     inkscape:current-layer="layer1" />
  <defs
     id="defs1" />
  <g
     inkscape:label="Layer 1"
     inkscape:groupmode="layer"
     id="layer1"
     transform="translate(-29.586957,-127.33235)">
    <g
       id="text1"
       style="font-size:8.46667px;font-family:'CMU Typewriter Text';-inkscape-font-specification:'CMU Typewriter Text';letter-spacing:0px;fill:#4d4d4d;stroke-width:0.600001;stroke-linecap:round;stroke-linejoin:bevel;stroke-miterlimit:3.9"
       aria-label="./configure     \&#10;  --enable-Nc=4 \&#10;  CXX=mpiicpc">
      <path
         style="stroke-width:0.6"
         d="m 29.586957,132.67485 q 0,-0.2032 0.1524,-0.36407 0.152401,-0.16086 0.381001,-0.16086 0.211666,0 0.364066,0.1524 0.160867,0.1524 0.160867,0.37253 0,0.2032 -0.1524,0.37254 -0.143933,0.16086 -0.372533,0.16086 -0.211667,0 -0.372534,-0.1524 -0.160867,-0.16086 -0.160867,-0.381 z m 3.251199,0.98214 q 0,-0.0762 0.0762,-0.2286 l 2.853268,-5.88434 q 0.118533,-0.21167 0.262466,-0.21167 0.1016,0 0.1778,0.0762 0.0762,0.0677 0.0762,0.1778 0,0.0677 -0.05927,0.2032 l -2.853268,5.90127 q -0.118533,0.22014 -0.270934,0.22014 -0.1016,0 -0.186266,-0.0762 -0.0762,-0.0677 -0.0762,-0.1778 z m 4.571998,-2.27754 q 0,-0.3048 0.101601,-0.6096 0.110066,-0.31327 0.3302,-0.6096 0.220133,-0.3048 0.618067,-0.49107 0.397933,-0.18626 0.9144,-0.18626 1.261534,0 1.261534,0.61806 0,0.1778 -0.110067,0.28787 -0.110067,0.1016 -0.270933,0.1016 -0.364067,0 -0.372534,-0.41487 0,-0.0762 -0.508,-0.0762 -0.397934,0 -0.694267,0.1524 -0.287867,0.1524 -0.4318,0.38947 -0.135467,0.23707 -0.194734,0.44873 -0.05927,0.2032 -0.05927,0.38947 0,0.57573 0.389467,0.97367 0.397933,0.38947 0.9398,0.38947 0.601133,0 0.8382,-0.50801 0.04233,-0.11853 0.1016,-0.1524 0.05927,-0.0339 0.1778,-0.0339 0.296334,0 0.296334,0.23706 0,0.0762 -0.06773,0.22014 -0.06773,0.13547 -0.220133,0.32173 -0.143933,0.1778 -0.4572,0.3048 -0.313267,0.127 -0.719667,0.127 -0.7874,0 -1.329267,-0.55033 -0.533401,-0.5588 -0.533401,-1.32927 z m 4.309532,0 q 0,-0.7874 0.508001,-1.33773 0.516467,-0.5588 1.227667,-0.5588 0.7112,0 1.2192,0.5588 0.516467,0.55033 0.516467,1.33773 0,0.7874 -0.516467,1.33774 -0.508,0.54186 -1.2192,0.54186 -0.7112,0 -1.227667,-0.54186 -0.508001,-0.54187 -0.508001,-1.33774 z m 0.584201,-0.0593 q 0,0.5842 0.338667,1.00754 0.338666,0.41487 0.8128,0.41487 0.474133,0 0.8128,-0.41487 0.338667,-0.42334 0.338667,-1.00754 0,-0.56726 -0.347134,-0.9398 -0.338666,-0.381 -0.804333,-0.381 -0.465667,0 -0.8128,0.381 -0.338667,0.37254 -0.338667,0.9398 z m 3.479798,1.63407 q 0,-0.26246 0.347134,-0.26246 h 0.372533 v -2.61621 h -0.381 q -0.338667,0 -0.338667,-0.254 0,-0.26246 0.347134,-0.26246 h 0.618066 q 0.237067,0 0.287867,0.0847 0.0508,0.0762 0.0508,0.31327 0.448734,-0.44873 1.109134,-0.44873 1.100667,0 1.100667,1.2192 v 1.96427 h 0.372534 q 0.347133,0 0.347133,0.26246 0,0.254 -0.338667,0.254 h -1.2954 q -0.347134,0 -0.347134,-0.254 0,-0.26246 0.347134,-0.26246 h 0.3302 v -1.92194 q 0,-0.39793 -0.127,-0.56727 -0.118534,-0.1778 -0.440267,-0.1778 -0.389467,0 -0.728134,0.29634 -0.3302,0.29633 -0.3302,0.87206 v 1.49861 h 0.372534 q 0.347133,0 0.347133,0.26246 0,0.254 -0.338667,0.254 h -1.3462 q -0.338667,0 -0.338667,-0.254 z m 4.699,-0.008 q 0,-0.254 0.347133,-0.254 h 0.855134 v -2.61621 h -0.855134 q -0.338666,0 -0.338666,-0.254 0,-0.26246 0.347133,-0.26246 h 0.846667 v -0.44874 q 0,-0.52493 0.389467,-0.82126 0.397933,-0.3048 0.9398,-0.3048 0.812801,0 0.812801,0.508 0,0.16933 -0.118534,0.27093 -0.110067,0.1016 -0.245533,0.1016 -0.135467,0 -0.2286,-0.0847 -0.08467,-0.0931 -0.118534,-0.16933 -0.0254,-0.0762 -0.0254,-0.11007 -0.143933,0 -0.245533,0.0169 -0.09313,0.008 -0.254,0.0677 -0.1524,0.0508 -0.237067,0.2032 -0.08467,0.14393 -0.08467,0.37253 v 0.39794 h 1.032934 q 0.1016,0 0.1524,0.008 0.05927,0.008 0.118533,0.0762 0.06773,0.0593 0.06773,0.1778 0,0.254 -0.338667,0.254 h -1.032934 v 2.61621 h 0.855134 q 0.347133,0 0.347133,0.26246 0,0.254 -0.347133,0.254 h -2.294468 q -0.347133,0 -0.347133,-0.26246 z m 4.749798,0.008 q 0,-0.26246 0.347133,-0.26246 h 1.024467 v -2.61621 H 55.64735 q -0.347134,0 -0.347134,-0.26246 0,-0.254 0.347134,-0.254 h 1.202267 q 0.211667,0 0.270933,0.0762 0.06773,0.0677 0.06773,0.27093 v 2.78554 h 0.889 q 0.347133,0 0.347133,0.26246 0,0.254 -0.347133,0.254 h -2.497668 q -0.347133,0 -0.347133,-0.254 z m 1.227667,-4.19947 q -0.118533,-0.127 -0.118533,-0.3048 0,-0.1778 0.118533,-0.29633 0.127,-0.127 0.3048,-0.127 0.1778,0 0.296334,0.127 0.127,0.11853 0.127,0.29633 0,0.1778 -0.127,0.3048 -0.118534,0.11854 -0.296334,0.11854 -0.1778,0 -0.3048,-0.11854 z m 2.802464,5.14774 q 0,-0.66887 0.626533,-1.04987 -0.194733,-0.26246 -0.194733,-0.6096 0,-0.3302 0.169333,-0.57573 -0.270933,-0.34714 -0.270933,-0.80434 0,-0.55033 0.4064,-0.94826 0.4064,-0.4064 0.9906,-0.4064 0.448734,0 0.821267,0.254 0.397934,-0.29634 0.897467,-0.29634 0.313267,0 0.465667,0.14394 0.1524,0.13546 0.1524,0.31326 0,0.16934 -0.110066,0.26247 -0.1016,0.0847 -0.2286,0.0847 -0.09313,0 -0.194734,-0.0677 -0.1016,-0.0677 -0.135467,-0.22013 -0.2794,0.0254 -0.491066,0.14393 0.220133,0.36407 0.220133,0.7366 0,0.56727 -0.4064,0.9652 -0.4064,0.39794 -0.990601,0.39794 -0.448733,0 -0.762,-0.21167 -0.0508,0.127 -0.0508,0.23707 0,0.1778 0.1016,0.3048 0.1016,0.11853 0.2794,0.11853 0.06773,0.0169 0.245534,0.0169 h 0.592667 q 0.770467,0 1.227667,0.24553 0.296333,0.16087 0.440267,0.42333 0.143933,0.27094 0.143933,0.54187 0,0.5334 -0.575734,0.889 -0.575733,0.3556 -1.397,0.3556 -0.821267,0 -1.397001,-0.3556 -0.575733,-0.34713 -0.575733,-0.889 z m 0.491067,0 q 0,0.28787 0.4318,0.508 0.4318,0.2286 1.049867,0.2286 0.618067,0 1.049867,-0.2286 0.4318,-0.22013 0.4318,-0.508 0,-0.254 -0.143933,-0.41487 -0.143934,-0.16086 -0.448734,-0.2286 -0.3048,-0.0593 -0.516467,-0.0677 -0.211666,-0.0169 -0.601133,-0.0169 -0.4826,0 -0.618067,0.0169 -0.135467,0.0169 -0.287867,0.11853 -0.347133,0.22014 -0.347133,0.59267 z m 0.423333,-3.03107 q 0,0.33867 0.237067,0.59267 0.237067,0.254 0.575733,0.254 0.330201,0 0.567267,-0.24554 0.245534,-0.254 0.245534,-0.6096 0,-0.33866 -0.237067,-0.59266 -0.237067,-0.254 -0.575734,-0.254 -0.3302,0 -0.575733,0.254 -0.237067,0.24553 -0.237067,0.60113 z m 3.386666,-1.04987 q 0,-0.26246 0.347134,-0.26246 h 0.618066 q 0.211667,0 0.270934,0.0762 0.06773,0.0677 0.06773,0.27093 v 2.286 q 0,0.13547 0.0085,0.21167 0.01693,0.0677 0.06773,0.16087 0.05927,0.0931 0.2032,0.13546 0.1524,0.0423 0.389467,0.0423 0.127,0 0.262467,-0.0254 0.143933,-0.0339 0.313267,-0.11007 0.169333,-0.0847 0.270933,-0.27094 0.110067,-0.18626 0.110067,-0.4572 v -1.8034 h -0.381 q -0.338667,0 -0.338667,-0.254 0,-0.26246 0.347133,-0.26246 h 0.618067 q 0.211667,0 0.270934,0.0762 0.06773,0.0677 0.06773,0.27093 v 2.78554 h 0.381 q 0.338667,0 0.338667,0.254 0,0.26246 -0.347133,0.26246 h -0.618067 q -0.1016,0 -0.160867,-0.008 -0.0508,-0.008 -0.118533,-0.0677 -0.05927,-0.0677 -0.05927,-0.19473 -0.423334,0.32173 -1.007534,0.32173 -1.202267,0 -1.202267,-1.016 v -2.16747 h -0.381 q -0.338667,0 -0.338667,-0.254 z m 4.614333,3.12421 q 0,-0.254 0.338667,-0.254 h 0.6858 v -2.61621 h -0.6858 q -0.1016,0 -0.160867,-0.008 -0.0508,-0.008 -0.118533,-0.0677 -0.05927,-0.0677 -0.05927,-0.18626 0,-0.254 0.338667,-0.254 h 0.931334 q 0.211666,0 0.270933,0.0762 0.06773,0.0677 0.06773,0.27093 v 0.28787 q 0.601134,-0.6858 1.439334,-0.6858 0.245534,0 0.414867,0.0593 0.1778,0.0508 0.254,0.14394 0.0762,0.0847 0.1016,0.16933 0.03387,0.0762 0.03387,0.1524 0,0.16087 -0.110067,0.26247 -0.1016,0.1016 -0.245533,0.1016 -0.1524,0 -0.254,-0.11007 -0.1016,-0.11007 -0.110067,-0.26247 -0.719667,0 -1.126067,0.4826 -0.397934,0.47414 -0.397934,1.12607 v 1.05834 h 0.939801 q 0.347133,0 0.347133,0.26246 0,0.254 -0.347133,0.254 H 68.51668 q -0.1016,0 -0.160867,-0.008 -0.0508,-0.008 -0.118533,-0.0677 -0.05927,-0.0677 -0.05927,-0.18626 z m 5.207,-0.23707 q -0.567267,-0.5588 -0.567267,-1.33774 0,-0.77893 0.5334,-1.32926 0.533401,-0.5588 1.286934,-0.5588 0.787401,0 1.210734,0.51646 0.4318,0.508 0.4318,1.27847 0,0.11007 -0.0254,0.1778 -0.0254,0.0677 -0.08467,0.1016 -0.0508,0.0254 -0.1016,0.0339 -0.04233,0 -0.127001,0 H 73.41888 q 0.1016,0.52493 0.499533,0.8382 0.406401,0.31327 0.905934,0.31327 0.6604,0 0.880534,-0.50801 0.04233,-0.11853 0.1016,-0.1524 0.05927,-0.0339 0.1778,-0.0339 0.296333,0 0.296333,0.23706 0,0.0931 -0.08467,0.24554 -0.08467,0.14393 -0.254001,0.32173 -0.160866,0.16934 -0.474133,0.28787 -0.313267,0.11853 -0.702734,0.11853 -0.8128,0 -1.380067,-0.55033 z m 0.04233,-1.6256 h 2.252135 q -0.0508,-0.59267 -0.347134,-0.8382 -0.296333,-0.24554 -0.694267,-0.24554 -0.440267,0 -0.778933,0.31327 -0.338667,0.3048 -0.431801,0.77047 z m 26.085791,-3.48827 q 0,-0.11007 0.08467,-0.18627 0.08467,-0.0762 0.177801,-0.0762 0.03387,0 0.05927,0.008 0.03387,0.008 0.0508,0.0169 0.0254,0.008 0.04233,0.0339 0.0254,0.0169 0.03387,0.0339 0.01693,0.008 0.03387,0.0423 0.01693,0.0339 0.0254,0.0423 0.008,0.008 0.0254,0.0423 0.0169,0.0339 0.0169,0.0423 l 2.8194,5.8166 q 0.0762,0.1524 0.0762,0.24554 0,0.11006 -0.0762,0.1778 -0.0762,0.0762 -0.17781,0.0762 -0.1778,0 -0.3048,-0.2794 l -2.810933,-5.82507 q -0.0762,-0.1778 -0.0762,-0.21167 z"
         id="path3" />
      <path
         style="stroke-width:0.6"
         d="m 37.808088,142.22526 q -0.2794,-0.008 -0.2794,-0.26247 0,-0.254 0.296333,-0.254 h 2.379135 q 0.2794,0 0.2794,0.254 0,0.26247 -0.296334,0.26247 z m 4.444999,0 q -0.2794,-0.008 -0.2794,-0.26247 0,-0.254 0.296333,-0.254 h 2.379134 q 0.2794,0 0.2794,0.254 0,0.26247 -0.296333,0.26247 z m 4.461932,1.0668 q -0.567267,-0.5588 -0.567267,-1.33774 0,-0.77893 0.5334,-1.32927 0.5334,-0.5588 1.286934,-0.5588 0.7874,0 1.210734,0.51647 0.4318,0.508 0.4318,1.27847 0,0.11007 -0.0254,0.1778 -0.0254,0.0677 -0.08467,0.1016 -0.0508,0.0254 -0.1016,0.0339 -0.04233,0 -0.127,0 h -2.523068 q 0.101601,0.52493 0.499534,0.8382 0.4064,0.31326 0.905934,0.31326 0.6604,0 0.880533,-0.508 0.04233,-0.11853 0.1016,-0.1524 0.05927,-0.0339 0.1778,-0.0339 0.296334,0 0.296334,0.23706 0,0.0931 -0.08467,0.24554 -0.08467,0.14393 -0.254,0.32173 -0.160867,0.16933 -0.474133,0.28787 -0.313267,0.11853 -0.702734,0.11853 -0.8128,0 -1.380067,-0.55033 z m 0.04233,-1.6256 h 2.252134 q -0.0508,-0.59267 -0.347133,-0.83821 -0.296334,-0.24553 -0.694267,-0.24553 -0.440267,0 -0.778934,0.31327 -0.338666,0.3048 -0.4318,0.77047 z m 3.471333,1.87113 q 0,-0.26247 0.347133,-0.26247 h 0.372534 v -2.6162 h -0.381 q -0.338667,0 -0.338667,-0.254 0,-0.26247 0.347133,-0.26247 h 0.618067 q 0.237067,0 0.287867,0.0847 0.0508,0.0762 0.0508,0.31327 0.448733,-0.44874 1.109134,-0.44874 1.100667,0 1.100667,1.21921 v 1.96426 h 0.372533 q 0.347134,0 0.347134,0.26247 0,0.254 -0.338667,0.254 h -1.295401 q -0.347133,0 -0.347133,-0.254 0,-0.26247 0.347133,-0.26247 h 0.330201 v -1.92193 q 0,-0.39793 -0.127,-0.56727 -0.118534,-0.1778 -0.440267,-0.1778 -0.389467,0 -0.728134,0.29634 -0.3302,0.29633 -0.3302,0.87206 v 1.4986 h 0.372533 q 0.347134,0 0.347134,0.26247 0,0.254 -0.338667,0.254 h -1.3462 q -0.338667,0 -0.338667,-0.254 z m 4.809064,-0.82973 q 0,-0.59267 0.685801,-0.9144 0.694267,-0.3302 1.8542,-0.34714 0,-0.4318 -0.287866,-0.64347 -0.287867,-0.22013 -0.795867,-0.22013 -0.186267,0 -0.304801,0.008 -0.127,0.008 -0.1524,0.0254 -0.0254,0.0169 -0.0254,0.0677 -0.0085,0.21167 -0.127,0.3048 -0.118533,0.0847 -0.245533,0.0847 -0.160867,0 -0.270933,-0.1016 -0.110067,-0.1016 -0.110067,-0.28787 0,-0.61807 1.227667,-0.61807 0.8382,0 1.253067,0.39794 0.423334,0.39793 0.423334,0.9144 v 1.8288 q 0.1778,0.0677 0.508,0.0677 0.338667,0 0.338667,0.254 0,0.127 -0.06773,0.18627 -0.05927,0.0593 -0.135466,0.0677 -0.06773,0.008 -0.220134,0.008 -0.719667,0 -0.9144,-0.27093 -0.491067,0.32173 -1.236134,0.32173 -0.626534,0 -1.016,-0.33867 -0.381001,-0.33866 -0.381001,-0.79586 z m 0.584201,0 q 0,0.254 0.245533,0.44026 0.245533,0.1778 0.626534,0.1778 0.448733,0 0.753533,-0.14393 0.1524,-0.0677 0.2286,-0.16087 0.0762,-0.1016 0.08467,-0.16933 0.01693,-0.0677 0.01693,-0.19473 v -0.7112 q -0.905933,0.0254 -1.430867,0.23706 -0.524933,0.21167 -0.524933,0.52494 z m 3.49673,-3.82694 q 0,-0.26247 0.347134,-0.26247 h 0.618067 q 0.211666,0 0.270933,0.0762 0.06773,0.0677 0.06773,0.27094 v 1.54093 q 0.4572,-0.41487 1.075267,-0.41487 0.677333,0 1.159933,0.55034 0.491067,0.54187 0.491067,1.3208 0,0.79587 -0.524933,1.33773 -0.516467,0.54187 -1.219201,0.54187 -0.5588,0 -0.982133,-0.4318 0,0.13547 -0.0085,0.2032 -0.0085,0.0593 -0.0762,0.11853 -0.06773,0.0593 -0.2032,0.0593 -0.135467,0 -0.211667,-0.0593 -0.06773,-0.0593 -0.0762,-0.11853 -0.0085,-0.0593 -0.0085,-0.16933 v -4.30954 h -0.381 q -0.338667,0 -0.338667,-0.254 z m 1.303868,3.29354 q 0,0.381 0.254,0.77046 0.254,0.381 0.702733,0.381 0.465667,0 0.821267,-0.38946 0.364067,-0.38947 0.364067,-0.97367 0,-0.5588 -0.3302,-0.95673 -0.321734,-0.39794 -0.7874,-0.39794 -0.397934,0 -0.711201,0.28787 -0.313266,0.28787 -0.313266,0.6604 z m 3.530599,1.36313 q 0,-0.26247 0.347133,-0.26247 h 1.092201 v -4.1402 h -1.100667 q -0.338667,0 -0.338667,-0.254 0,-0.26247 0.347133,-0.26247 h 1.337734 q 0.211667,0 0.270934,0.0762 0.06773,0.0677 0.06773,0.27094 v 4.30953 h 1.100667 q 0.1016,0 0.1524,0.008 0.05927,0.008 0.118534,0.0762 0.06773,0.0593 0.06773,0.1778 0,0.254 -0.338667,0.254 h -2.785534 q -0.338667,0 -0.338667,-0.254 z m 4.986866,-0.24553 q -0.567266,-0.5588 -0.567266,-1.33774 0,-0.77893 0.5334,-1.32927 0.5334,-0.5588 1.286934,-0.5588 0.7874,0 1.210733,0.51647 0.431801,0.508 0.431801,1.27847 0,0.11007 -0.0254,0.1778 -0.0254,0.0677 -0.08467,0.1016 -0.0508,0.0254 -0.1016,0.0339 -0.04233,0 -0.127,0 H 68.97388 q 0.1016,0.52493 0.499534,0.8382 0.4064,0.31326 0.905933,0.31326 0.660401,0 0.880534,-0.508 0.04233,-0.11853 0.1016,-0.1524 0.05927,-0.0339 0.1778,-0.0339 0.296334,0 0.296334,0.23706 0,0.0931 -0.08467,0.24554 -0.08467,0.14393 -0.254,0.32173 -0.160867,0.16933 -0.474134,0.28787 -0.313267,0.11853 -0.702733,0.11853 -0.812801,0 -1.380068,-0.55033 z m 0.04233,-1.6256 h 2.252134 q -0.0508,-0.59267 -0.347133,-0.83821 -0.296334,-0.24553 -0.694267,-0.24553 -0.440267,0 -0.778934,0.31327 -0.338667,0.3048 -0.4318,0.77047 z m 4.385733,0.5588 q -0.2794,-0.008 -0.2794,-0.26247 0,-0.254 0.296333,-0.254 h 2.379134 q 0.279401,0 0.279401,0.254 0,0.26247 -0.296334,0.26247 z m 3.666062,1.30386 q 0,-0.254 0.338667,-0.254 h 0.211667 v -4.1402 h -0.211667 q -0.1016,0 -0.160867,-0.008 -0.0508,-0.008 -0.118533,-0.0677 -0.05927,-0.0677 -0.05927,-0.18627 0,-0.254 0.338667,-0.254 h 0.575733 q 0.194734,0 0.287867,0.0593 0.1016,0.0508 0.169334,0.24553 l 1.557867,4.23334 h 0.0085 v -4.02167 h -0.21169 q -0.338667,0 -0.338667,-0.254 0,-0.11853 0.05927,-0.1778 0.06773,-0.0677 0.118533,-0.0762 0.05927,-0.008 0.160867,-0.008 h 0.897467 q 0.1016,0 0.1524,0.008 0.05927,0.008 0.118533,0.0762 0.06773,0.0593 0.06773,0.1778 0,0.254 -0.338667,0.254 H 80.44621 v 4.30954 q 0,0.2286 -0.0762,0.28786 -0.06773,0.0593 -0.2794,0.0593 -0.135467,0 -0.2032,-0.008 -0.05927,-0.0169 -0.135467,-0.0847 -0.0762,-0.0677 -0.127,-0.21167 l -1.557867,-4.23334 h -0.0085 v 4.02167 h 0.211667 q 0.1016,0 0.1524,0.008 0.05927,0.008 0.118533,0.0762 0.06773,0.0593 0.06773,0.1778 0,0.254 -0.338667,0.254 h -0.897467 q -0.1016,0 -0.160867,-0.008 -0.0508,-0.008 -0.118533,-0.0677 -0.05927,-0.0677 -0.05927,-0.18627 z m 4.826,-1.56633 q 0,-0.3048 0.1016,-0.6096 0.110067,-0.31327 0.3302,-0.6096 0.220133,-0.3048 0.618067,-0.49107 0.397933,-0.18627 0.9144,-0.18627 1.261534,0 1.261534,0.61807 0,0.1778 -0.110067,0.28787 -0.110066,0.1016 -0.270933,0.1016 -0.364067,0 -0.372533,-0.41487 0,-0.0762 -0.508001,-0.0762 -0.397933,0 -0.694267,0.1524 -0.287866,0.1524 -0.4318,0.38947 -0.135467,0.23707 -0.194733,0.44873 -0.05927,0.2032 -0.05927,0.38947 0,0.57573 0.389467,0.97367 0.397933,0.38946 0.9398,0.38946 0.601134,0 0.838201,-0.508 0.04233,-0.11853 0.1016,-0.1524 0.05927,-0.0339 0.1778,-0.0339 0.296333,0 0.296333,0.23706 0,0.0762 -0.06773,0.22014 -0.06773,0.13546 -0.220134,0.32173 -0.143933,0.1778 -0.4572,0.3048 -0.313267,0.127 -0.719667,0.127 -0.7874,0 -1.329267,-0.55033 -0.5334,-0.5588 -0.5334,-1.32927 z m 4.140199,-1.40547 q 0,-0.254 0.347134,-0.254 h 3.124201 q 0.3302,0 0.3302,0.26247 0,0.0931 -0.06773,0.1778 -0.06773,0.0847 -0.220133,0.0847 h -3.200402 q -0.313267,0 -0.313267,-0.27093 z m 0.0085,1.28694 q 0,-0.26247 0.3048,-0.26247 h 3.175002 q 0.127,0 0.2032,0.0593 0.0762,0.0593 0.09313,0.11006 0.01693,0.0423 0.01693,0.0931 0,0.26246 -0.338667,0.26246 h -3.141134 q -0.313267,-0.008 -0.313267,-0.26246 z m 4.368796,0.1778 q 0,-0.18627 0.0762,-0.29634 l 1.930401,-3.03107 q 0.0762,-0.127 0.135466,-0.1524 0.05927,-0.0254 0.220134,-0.0254 h 0.237067 q 0.211666,0 0.2794,0.0677 0.06773,0.0677 0.06773,0.2794 v 2.98027 h 0.6604 q 0.1016,0 0.1524,0.008 0.05927,0.008 0.118534,0.0762 0.06773,0.0593 0.06773,0.1778 0,0.254 -0.338667,0.254 h -0.6604 v 0.9144 h 0.524934 q 0.1016,0 0.1524,0.008 0.05927,0.008 0.118533,0.0762 0.06773,0.0593 0.06773,0.1778 0,0.254 -0.338666,0.254 h -1.524001 q -0.338667,0 -0.338667,-0.254 0,-0.11853 0.05927,-0.1778 0.06773,-0.0677 0.118533,-0.0762 0.05927,-0.008 0.160867,-0.008 h 0.524934 v -0.9144 h -2.133601 q -0.2032,0 -0.270934,-0.0677 -0.06773,-0.0677 -0.06773,-0.27093 z m 0.592667,-0.1778 h 1.879601 v -2.95487 z m 8.542866,-3.66607 q 0,-0.11007 0.08467,-0.18627 0.08467,-0.0762 0.177801,-0.0762 0.03387,0 0.05927,0.008 0.03387,0.008 0.0508,0.0169 0.0254,0.008 0.04233,0.0339 0.0254,0.0169 0.03387,0.0339 0.01693,0.008 0.03387,0.0423 0.01693,0.0339 0.0254,0.0423 0.008,0.008 0.0254,0.0423 0.0169,0.0339 0.0169,0.0423 l 2.8194,5.8166 q 0.0762,0.1524 0.0762,0.24553 0,0.11007 -0.0762,0.1778 -0.0762,0.0762 -0.1778,0.0762 -0.1778,0 -0.3048,-0.2794 l -2.810925,-5.82507 q -0.0762,-0.1778 -0.0762,-0.21166 z"
         id="path4" />
      <path
         style="stroke-width:0.6"
         d="m 37.130754,151.78413 q 0,-1.13454 0.601134,-1.905 0.6096,-0.77047 1.439334,-0.77047 0.618067,0 1.100667,0.4064 0.0508,-0.0931 0.0762,-0.14393 0.0254,-0.0593 0.03387,-0.0847 0.01693,-0.0254 0.01693,-0.0339 0.1016,-0.14393 0.237067,-0.14393 0.254,0 0.254,0.34713 v 1.17687 q 0,0.11007 -0.0085,0.16933 -0.0085,0.0593 -0.08467,0.11854 -0.06773,0.0593 -0.2032,0.0593 -0.118533,0 -0.186266,-0.0423 -0.06773,-0.0508 -0.08467,-0.0931 -0.0085,-0.0423 -0.0254,-0.14394 -0.08467,-0.49953 -0.389467,-0.7874 -0.3048,-0.28786 -0.702733,-0.28786 -0.584201,0 -1.041401,0.62653 -0.448733,0.61807 -0.448733,1.53247 0,0.92286 0.448733,1.5494 0.4572,0.61806 1.049867,0.61806 0.3556,0 0.702734,-0.23706 0.347133,-0.24554 0.389467,-0.79587 0.01693,-0.24553 0.287866,-0.24553 0.296334,0 0.296334,0.2794 0,0.59266 -0.499534,1.05833 -0.491067,0.4572 -1.210733,0.4572 -0.838201,0 -1.447801,-0.77047 -0.601134,-0.77046 -0.601134,-1.91346 z m 4.334932,2.3368 q 0,-0.11854 0.05927,-0.1778 0.06773,-0.0677 0.118533,-0.0762 0.05927,-0.008 0.160867,-0.008 h 0.186267 l 1.126067,-2.2352 -1.016,-1.905 h -0.194734 q -0.347133,0 -0.347133,-0.26247 0,-0.254 0.347133,-0.254 h 0.880534 q 0.338667,0 0.338667,0.254 0,0.11854 -0.06773,0.18627 -0.05927,0.0593 -0.118533,0.0677 -0.05927,0.008 -0.1778,0.008 l 0.651933,1.23613 0.601134,-1.23613 q -0.127,0 -0.194733,-0.008 -0.06773,-0.008 -0.135467,-0.0677 -0.05927,-0.0677 -0.05927,-0.18627 0,-0.254 0.338667,-0.254 h 0.880534 q 0.347133,0 0.347133,0.26247 0,0.254 -0.347133,0.254 h -0.186267 l -0.956734,1.89653 1.193801,2.24367 h 0.194733 q 0.347134,0 0.347134,0.26247 0,0.254 -0.347134,0.254 h -0.880534 q -0.338666,0 -0.338666,-0.254 0,-0.11854 0.05927,-0.1778 0.06773,-0.0677 0.127,-0.0762 0.06773,-0.008 0.194734,-0.008 l -0.838201,-1.64253 -0.778933,1.64253 q 0.127,0 0.194733,0.008 0.06773,0.008 0.135467,0.0762 0.06773,0.0593 0.06773,0.1778 0,0.254 -0.347133,0.254 h -0.880534 q -0.338667,0 -0.338667,-0.254 z m 4.444999,0 q 0,-0.11854 0.05927,-0.1778 0.06773,-0.0677 0.118533,-0.0762 0.05927,-0.008 0.160867,-0.008 h 0.186267 l 1.126067,-2.2352 -1.016001,-1.905 h -0.194733 q -0.347134,0 -0.347134,-0.26247 0,-0.254 0.347134,-0.254 h 0.880534 q 0.338666,0 0.338666,0.254 0,0.11854 -0.06773,0.18627 -0.05927,0.0593 -0.118533,0.0677 -0.05927,0.008 -0.1778,0.008 l 0.651933,1.23613 0.601134,-1.23613 q -0.127,0 -0.194734,-0.008 -0.06773,-0.008 -0.135466,-0.0677 -0.05927,-0.0677 -0.05927,-0.18627 0,-0.254 0.338667,-0.254 h 0.880533 q 0.347134,0 0.347134,0.26247 0,0.254 -0.347134,0.254 H 49.10262 l -0.956734,1.89653 1.1938,2.24367 h 0.194734 q 0.347133,0 0.347133,0.26247 0,0.254 -0.347133,0.254 h -0.880534 q -0.338667,0 -0.338667,-0.254 0,-0.11854 0.05927,-0.1778 0.06773,-0.0677 0.127,-0.0762 0.06773,-0.008 0.194734,-0.008 l -0.838201,-1.64253 -0.778933,1.64253 q 0.127,0 0.194733,0.008 0.06773,0.008 0.135467,0.0762 0.06773,0.0593 0.06773,0.1778 0,0.254 -0.347133,0.254 h -0.880534 q -0.338667,0 -0.338667,-0.254 z m 4.529667,-2.98027 q 0,-0.254 0.347133,-0.254 h 3.124201 q 0.3302,0 0.3302,0.26247 0,0.0931 -0.06773,0.1778 -0.06773,0.0847 -0.220133,0.0847 h -3.200402 q -0.313266,0 -0.313266,-0.27093 z m 0.0085,1.28693 q 0,-0.26246 0.3048,-0.26246 h 3.175002 q 0.127,0 0.2032,0.0593 0.0762,0.0593 0.09313,0.11007 0.01693,0.0423 0.01693,0.0931 0,0.26247 -0.338666,0.26247 h -3.141135 q -0.313267,-0.008 -0.313267,-0.26247 z m 4.089398,1.69334 q 0,-0.127 0.06773,-0.18627 0.06773,-0.0593 0.143934,-0.0677 0.08467,-0.008 0.270933,-0.008 v -2.6162 q -0.186267,0 -0.270933,-0.008 -0.0762,-0.008 -0.143934,-0.0677 -0.06773,-0.0593 -0.06773,-0.18627 0,-0.254 0.347133,-0.254 h 0.270934 q 0.1016,0 0.1524,0.008 0.05927,0.008 0.118533,0.0677 0.05927,0.0593 0.06773,0.1778 0.3302,-0.3048 0.778933,-0.3048 0.448734,0 0.643467,0.44027 0.160867,-0.2286 0.4064,-0.3302 0.254,-0.11007 0.4826,-0.11007 0.262467,0 0.431801,0.14394 0.169333,0.13546 0.2286,0.37253 0.05927,0.2286 0.0762,0.3556 0.01693,0.127 0.01693,0.26247 v 2.04893 q 0.186267,0 0.262467,0.008 0.08467,0.008 0.1524,0.0677 0.06773,0.0593 0.06773,0.18627 0,0.254 -0.347133,0.254 h -0.677334 q -0.347133,0 -0.347133,-0.254 0,-0.11854 0.06773,-0.1778 0.0762,-0.0677 0.143934,-0.0762 0.06773,-0.008 0.2032,-0.008 v -1.97273 q 0,-0.38947 -0.0762,-0.54187 -0.0762,-0.1524 -0.237067,-0.1524 -0.287867,0 -0.516467,0.31327 -0.2286,0.3048 -0.2286,0.8382 v 1.51553 q 0.186267,0 0.262467,0.008 0.08467,0.008 0.1524,0.0677 0.06773,0.0593 0.06773,0.18627 0,0.254 -0.347133,0.254 H 56.48555 q -0.347134,0 -0.347134,-0.254 0,-0.11854 0.06773,-0.1778 0.0762,-0.0677 0.143933,-0.0762 0.06773,-0.008 0.2032,-0.008 v -1.97273 q 0,-0.38947 -0.0762,-0.54187 -0.0762,-0.1524 -0.237066,-0.1524 -0.287867,0 -0.516467,0.31327 -0.2286,0.3048 -0.2286,0.8382 v 1.51553 q 0.186266,0 0.262466,0.008 0.08467,0.008 0.1524,0.0677 0.06773,0.0593 0.06773,0.18627 0,0.254 -0.347134,0.254 h -0.745067 q -0.347133,0 -0.347133,-0.254 z m 4.580464,1.8796 q 0,-0.26247 0.347134,-0.26247 h 0.372533 v -4.4958 h -0.381 q -0.338667,0 -0.338667,-0.254 0,-0.26247 0.347134,-0.26247 h 0.618067 q 0.220133,0 0.2794,0.0762 0.05927,0.0762 0.05927,0.28787 0.4572,-0.41487 1.075267,-0.41487 0.677333,0 1.159933,0.55034 0.491067,0.54186 0.491067,1.3208 0,0.79586 -0.524933,1.33773 -0.516467,0.54187 -1.219201,0.54187 -0.5588,0 -0.982133,-0.4318 v 1.74413 h 0.372533 q 0.347133,0 0.347133,0.26247 0,0.254 -0.338666,0.254 h -1.346201 q -0.338667,0 -0.338667,-0.254 z m 1.303868,-3.24274 q 0,0.381 0.254,0.77047 0.254,0.381 0.702733,0.381 0.465667,0 0.821267,-0.38947 0.364067,-0.38946 0.364067,-0.97366 0,-0.5588 -0.3302,-0.95674 -0.321734,-0.39793 -0.7874,-0.39793 -0.397934,0 -0.711201,0.28787 -0.313266,0.28786 -0.313266,0.6604 z m 3.699932,1.36314 q 0,-0.26247 0.347134,-0.26247 h 1.024467 v -2.6162 h -0.956734 q -0.347133,0 -0.347133,-0.26247 0,-0.254 0.347133,-0.254 h 1.202267 q 0.211667,0 0.270934,0.0762 0.06773,0.0677 0.06773,0.27094 v 2.78553 h 0.889 q 0.347134,0 0.347134,0.26247 0,0.254 -0.347134,0.254 h -2.497667 q -0.347134,0 -0.347134,-0.254 z m 1.227667,-4.19947 q -0.118533,-0.127 -0.118533,-0.3048 0,-0.1778 0.118533,-0.29633 0.127,-0.12701 0.304801,-0.12701 0.1778,0 0.296333,0.12701 0.127,0.11853 0.127,0.29633 0,0.1778 -0.127,0.3048 -0.118533,0.11853 -0.296333,0.11853 -0.177801,0 -0.304801,-0.11853 z m 3.217333,4.19947 q 0,-0.26247 0.347133,-0.26247 h 1.024468 v -2.6162 h -0.956734 q -0.347134,0 -0.347134,-0.26247 0,-0.254 0.347134,-0.254 h 1.202267 q 0.211667,0 0.270933,0.0762 0.06773,0.0677 0.06773,0.27094 v 2.78553 h 0.889 q 0.347134,0 0.347134,0.26247 0,0.254 -0.347134,0.254 h -2.497668 q -0.347133,0 -0.347133,-0.254 z m 1.227667,-4.19947 q -0.118533,-0.127 -0.118533,-0.3048 0,-0.1778 0.118533,-0.29633 0.127,-0.12701 0.3048,-0.12701 0.1778,0 0.296334,0.12701 0.127,0.11853 0.127,0.29633 0,0.1778 -0.127,0.3048 -0.118534,0.11853 -0.296334,0.11853 -0.1778,0 -0.3048,-0.11853 z m 3.174999,2.62467 q 0,-0.3048 0.1016,-0.6096 0.110067,-0.31327 0.3302,-0.6096 0.220134,-0.3048 0.618067,-0.49107 0.397934,-0.18627 0.914401,-0.18627 1.261534,0 1.261534,0.61807 0,0.1778 -0.110067,0.28787 -0.110067,0.1016 -0.270934,0.1016 -0.364066,0 -0.372533,-0.41487 0,-0.0762 -0.508,-0.0762 -0.397934,0 -0.694267,0.1524 -0.287867,0.1524 -0.4318,0.38947 -0.135467,0.23706 -0.194734,0.44873 -0.05927,0.2032 -0.05927,0.38947 0,0.57573 0.389466,0.97366 0.397934,0.38947 0.939801,0.38947 0.601133,0 0.8382,-0.508 0.04233,-0.11853 0.1016,-0.1524 0.05927,-0.0339 0.1778,-0.0339 0.296334,0 0.296334,0.23707 0,0.0762 -0.06773,0.22013 -0.06773,0.13547 -0.220133,0.32174 -0.143934,0.1778 -0.4572,0.3048 -0.313267,0.127 -0.719667,0.127 -0.787401,0 -1.329267,-0.55034 -0.533401,-0.5588 -0.533401,-1.32926 z m 3.928529,3.4544 q 0,-0.26247 0.347134,-0.26247 h 0.372533 v -4.4958 h -0.381 q -0.338667,0 -0.338667,-0.254 0,-0.26247 0.347134,-0.26247 h 0.618067 q 0.220133,0 0.2794,0.0762 0.05927,0.0762 0.05927,0.28787 0.457201,-0.41487 1.075268,-0.41487 0.677333,0 1.159933,0.55034 0.491067,0.54186 0.491067,1.3208 0,0.79586 -0.524933,1.33773 -0.516467,0.54187 -1.219201,0.54187 -0.5588,0 -0.982134,-0.4318 v 1.74413 h 0.372534 q 0.347133,0 0.347133,0.26247 0,0.254 -0.338666,0.254 H 77.23738 q -0.338667,0 -0.338667,-0.254 z m 1.303867,-3.24274 q 0,0.381 0.254001,0.77047 0.254,0.381 0.702733,0.381 0.465667,0 0.821267,-0.38947 0.364067,-0.38946 0.364067,-0.97366 0,-0.5588 -0.3302,-0.95674 -0.321734,-0.39793 -0.7874,-0.39793 -0.397934,0 -0.711201,0.28787 -0.313267,0.28786 -0.313267,0.6604 z m 3.6576,-0.21166 q 0,-0.3048 0.1016,-0.6096 0.110067,-0.31327 0.3302,-0.6096 0.220133,-0.3048 0.618067,-0.49107 0.397933,-0.18627 0.9144,-0.18627 1.261534,0 1.261534,0.61807 0,0.1778 -0.110067,0.28787 -0.110066,0.1016 -0.270933,0.1016 -0.364067,0 -0.372533,-0.41487 0,-0.0762 -0.508001,-0.0762 -0.397933,0 -0.694267,0.1524 -0.287866,0.1524 -0.4318,0.38947 -0.135467,0.23706 -0.194733,0.44873 -0.05927,0.2032 -0.05927,0.38947 0,0.57573 0.389467,0.97366 0.397933,0.38947 0.9398,0.38947 0.601134,0 0.838201,-0.508 0.04233,-0.11853 0.1016,-0.1524 0.05927,-0.0339 0.1778,-0.0339 0.296333,0 0.296333,0.23707 0,0.0762 -0.06773,0.22013 -0.06773,0.13547 -0.220134,0.32174 -0.143933,0.1778 -0.4572,0.3048 -0.313267,0.127 -0.719667,0.127 -0.7874,0 -1.329267,-0.55034 -0.5334,-0.5588 -0.5334,-1.32926 z"
         id="path5" />
    </g>
  </g>
</svg>
