<?xml version="1.0" encoding="UTF-8" standalone="no"?>
<!-- Created with Inkscape (http://www.inkscape.org/) -->

<svg
   width="49.186966mm"
   height="12.415mm"
   viewBox="0 0 49.186966 12.415"
   version="1.1"
   id="svg1"
   inkscape:version="1.3 (0e150ed, 2023-07-21)"
   sodipodi:docname="crc.svg"
   xmlns:inkscape="http://www.inkscape.org/namespaces/inkscape"
   xmlns:sodipodi="http://sodipodi.sourceforge.net/DTD/sodipodi-0.dtd"
   xmlns="http://www.w3.org/2000/svg"
   xmlns:svg="http://www.w3.org/2000/svg">
  <sodipodi:namedview
     id="namedview1"
     pagecolor="#ffffff"
     bordercolor="#000000"
     borderopacity="0.25"
     inkscape:showpageshadow="2"
     inkscape:pageopacity="0.0"
     inkscape:pagecheckerboard="0"
     inkscape:deskcolor="#d1d1d1"
     inkscape:document-units="mm"
     inkscape:zoom="1.3149863"
     inkscape:cx="60.837136"
     inkscape:cy="19.011605"
     inkscape:window-width="1312"
     inkscape:window-height="449"
     inkscape:window-x="0"
     inkscape:window-y="25"
     inkscape:window-maximized="0"
     inkscape:current-layer="layer1" />
  <defs
     id="defs1" />
  <g
     inkscape:label="Layer 1"
     inkscape:groupmode="layer"
     id="layer1"
     transform="translate(-49.913611,-102.01458)">
    <g
       id="text1"
       style="font-weight:500;font-size:6.35px;font-family:'CMU Typewriter Text';-inkscape-font-specification:'CMU Typewriter Text Medium';letter-spacing:0px;stroke-width:0.4;stroke-linecap:square;stroke-linejoin:bevel;stroke-miterlimit:3.9;paint-order:markers stroke fill"
       aria-label="$ crc32 cfg.dat&#10;984a7d88">
      <path
         d="m 49.945361,105.35473 q 0,-0.1651 0.0889,-0.23495 0.0889,-0.0699 0.1905,-0.0699 0.12065,0 0.2032,0.0825 0.08255,0.0762 0.08255,0.19685 0,0.0762 -0.0381,0.1397 -0.0381,0.0635 -0.0381,0.1016 0,0.0445 0.0254,0.12065 0.03175,0.0762 0.18415,0.19685 0.1524,0.12065 0.40005,0.1651 v -1.4605 q -0.34925,-0.0699 -0.59055,-0.2032 -0.23495,-0.1397 -0.33655,-0.3048 -0.1016,-0.1651 -0.1397,-0.28575 -0.03175,-0.12065 -0.03175,-0.2413 0,-0.34925 0.27305,-0.65405 0.2794,-0.31115 0.8255,-0.38735 v -0.2413 q 0,-0.0571 0,-0.0762 0.0063,-0.0254 0.01905,-0.0762 0.0127,-0.0571 0.05715,-0.0825 0.04445,-0.0254 0.12065,-0.0254 0.19685,0 0.19685,0.254 v 0.24765 q 0.508,0.0572 0.8001,0.3175 0.29845,0.254 0.29845,0.6985 0,0.15875 -0.09525,0.23495 -0.0889,0.0699 -0.1905,0.0699 -0.1143,0 -0.19685,-0.0762 -0.08255,-0.0825 -0.08255,-0.20955 0,-0.0444 0.0127,-0.0825 0.0127,-0.0444 0.0254,-0.0635 0.0127,-0.0191 0.03175,-0.0444 l 0.01905,-0.0191 q -0.1397,-0.37465 -0.6223,-0.4318 v 1.3081 q 0.53975,0.0889 0.81915,0.41275 0.2794,0.32385 0.2794,0.6985 0,0.3937 -0.29845,0.71755 -0.2921,0.32385 -0.8001,0.3937 v 0.24765 q 0,0.26035 -0.19685,0.26035 -0.19685,0 -0.19685,-0.254 v -0.24765 q -0.4953,-0.0381 -0.8001,-0.3429 -0.29845,-0.3048 -0.29845,-0.7493 z m 0.41275,-1.8288 q 0,0.19685 0.17145,0.37465 0.1778,0.17145 0.51435,0.23495 v -1.2192 q -0.31115,0.0444 -0.50165,0.22225 -0.18415,0.1778 -0.18415,0.38735 z m 1.0795,2.52095 q 0.32385,-0.0572 0.50165,-0.26035 0.18415,-0.2032 0.18415,-0.42545 0,-0.22225 -0.1778,-0.4191 -0.17145,-0.19685 -0.508,-0.2667 z m 5.270495,-0.99695 q 0,-0.2286 0.0762,-0.4572 0.08255,-0.23495 0.24765,-0.4572 0.1651,-0.2286 0.46355,-0.3683 0.29845,-0.1397 0.6858,-0.1397 0.94615,0 0.94615,0.46355 0,0.13335 -0.08255,0.2159 -0.08255,0.0762 -0.2032,0.0762 -0.27305,0 -0.2794,-0.31115 0,-0.0571 -0.381,-0.0571 -0.29845,0 -0.5207,0.1143 -0.2159,0.1143 -0.32385,0.2921 -0.1016,0.1778 -0.14605,0.33655 -0.04445,0.1524 -0.04445,0.2921 0,0.4318 0.2921,0.73025 0.29845,0.2921 0.70485,0.2921 0.45085,0 0.62865,-0.381 0.03175,-0.0889 0.0762,-0.1143 0.04445,-0.0254 0.13335,-0.0254 0.22225,0 0.22225,0.1778 0,0.0571 -0.0508,0.1651 -0.0508,0.1016 -0.1651,0.2413 -0.10795,0.13335 -0.3429,0.2286 -0.23495,0.0953 -0.53975,0.0953 -0.59055,0 -0.99695,-0.41275 -0.40005,-0.4191 -0.40005,-0.99695 z m 3.073397,1.17475 q 0,-0.1905 0.254,-0.1905 h 0.51435 v -1.96215 h -0.51435 q -0.0762,0 -0.12065,-0.006 -0.0381,-0.006 -0.0889,-0.0508 -0.04445,-0.0508 -0.04445,-0.1397 0,-0.1905 0.254,-0.1905 h 0.6985 q 0.15875,0 0.2032,0.0571 0.0508,0.0508 0.0508,0.2032 v 0.2159 q 0.45085,-0.51435 1.0795,-0.51435 0.18415,0 0.31115,0.0444 0.13335,0.0381 0.1905,0.10795 0.05715,0.0635 0.0762,0.127 0.0254,0.0572 0.0254,0.1143 0,0.12065 -0.08255,0.19685 -0.0762,0.0762 -0.18415,0.0762 -0.1143,0 -0.1905,-0.0825 -0.0762,-0.0825 -0.08255,-0.19685 -0.53975,0 -0.84455,0.36195 -0.29845,0.3556 -0.29845,0.84455 v 0.79375 h 0.70485 q 0.26035,0 0.26035,0.19685 0,0.1905 -0.26035,0.1905 h -1.65735 q -0.0762,0 -0.12065,-0.006 -0.0381,-0.006 -0.0889,-0.0508 -0.04445,-0.0508 -0.04445,-0.1397 z m 3.594098,-1.17475 q 0,-0.2286 0.0762,-0.4572 0.08255,-0.23495 0.24765,-0.4572 0.1651,-0.2286 0.46355,-0.3683 0.29845,-0.1397 0.6858,-0.1397 0.94615,0 0.94615,0.46355 0,0.13335 -0.08255,0.2159 -0.08255,0.0762 -0.2032,0.0762 -0.27305,0 -0.2794,-0.31115 0,-0.0571 -0.381,-0.0571 -0.29845,0 -0.5207,0.1143 -0.2159,0.1143 -0.32385,0.2921 -0.1016,0.1778 -0.14605,0.33655 -0.04445,0.1524 -0.04445,0.2921 0,0.4318 0.2921,0.73025 0.29845,0.2921 0.70485,0.2921 0.45085,0 0.62865,-0.381 0.03175,-0.0889 0.0762,-0.1143 0.04445,-0.0254 0.13335,-0.0254 0.22225,0 0.22225,0.1778 0,0.0571 -0.0508,0.1651 -0.0508,0.1016 -0.1651,0.2413 -0.10795,0.13335 -0.3429,0.2286 -0.23495,0.0953 -0.53975,0.0953 -0.59055,0 -0.99695,-0.41275 -0.40005,-0.4191 -0.40005,-0.99695 z m 3.149597,0.508 q 0,-0.14605 0.08255,-0.22225 0.08255,-0.0762 0.2032,-0.0762 0.12065,0 0.19685,0.0825 0.08255,0.0826 0.08255,0.19685 0,0.12065 -0.0762,0.19685 0.10795,0.19685 0.381,0.28575 0.27305,0.0825 0.52705,0.0825 0.41275,0 0.6731,-0.23495 0.26035,-0.2413 0.26035,-0.55245 0,-0.3048 -0.26035,-0.5461 -0.254,-0.24765 -0.69215,-0.24765 h -0.2921 q -0.0762,0 -0.12065,-0.006 -0.0381,-0.006 -0.0889,-0.0508 -0.04445,-0.0508 -0.04445,-0.1397 0,-0.127 0.0762,-0.15875 0.08255,-0.0318 0.381,-0.0508 0.381,-0.019 0.59055,-0.1905 0.2667,-0.2159 0.2667,-0.55245 0,-0.2159 -0.2159,-0.36195 -0.20955,-0.1524 -0.5334,-0.1524 -0.508,0 -0.70485,0.19685 0.05715,0.0571 0.05715,0.17145 0,0.127 -0.0889,0.20955 -0.08255,0.0762 -0.1905,0.0762 -0.10795,0 -0.19685,-0.0762 -0.0889,-0.0762 -0.0889,-0.22225 0,-0.33655 0.3175,-0.53975 0.32385,-0.2032 0.889,-0.2032 0.52705,0 0.85725,0.2667 0.33655,0.26035 0.33655,0.62865 0,0.2667 -0.1397,0.5207 -0.13335,0.24765 -0.3937,0.41275 0.32385,0.14605 0.5207,0.4191 0.19685,0.2667 0.19685,0.5969 0,0.46355 -0.38735,0.81915 -0.381,0.3556 -0.98425,0.3556 -0.5969,0 -0.99695,-0.254 -0.40005,-0.26035 -0.40005,-0.67945 z m 3.384548,0.66675 q 0,-0.0889 0.09525,-0.17145 l 1.40335,-1.1811 q 0.73025,-0.6096 0.73025,-1.16205 0,-0.40005 -0.29845,-0.6223 -0.2921,-0.2286 -0.7112,-0.2286 -0.26035,0 -0.4699,0.13335 -0.2032,0.13335 -0.27305,0.3556 0.0889,0.0699 0.0889,0.2032 0,0.127 -0.0889,0.20955 -0.08255,0.0762 -0.1905,0.0762 -0.1016,0 -0.19685,-0.0699 -0.0889,-0.0762 -0.0889,-0.23495 0,-0.4191 0.34925,-0.7366 0.3556,-0.32385 0.9017,-0.32385 0.5969,0 1.0033,0.3429 0.41275,0.33655 0.41275,0.89535 0,0.65405 -0.69215,1.27 -0.1524,0.1397 -0.62865,0.5334 -0.47625,0.3937 -0.62865,0.5207 h 1.5113 q 0,-0.1143 0.0063,-0.15875 0.0063,-0.0508 0.05715,-0.0952 0.0508,-0.0444 0.15875,-0.0444 0.14605,0 0.1778,0.0699 0.0381,0.0635 0.0381,0.1905 v 0.1651 q 0,0.1524 -0.0508,0.20955 -0.0508,0.0508 -0.2032,0.0508 h -2.15265 q -0.26035,0 -0.26035,-0.19685 z m 6.800846,-1.17475 q 0,-0.2286 0.0762,-0.4572 0.08255,-0.23495 0.24765,-0.4572 0.1651,-0.2286 0.46355,-0.3683 0.29845,-0.1397 0.6858,-0.1397 0.94615,0 0.94615,0.46355 0,0.13335 -0.08255,0.2159 -0.08255,0.0762 -0.2032,0.0762 -0.27305,0 -0.2794,-0.31115 0,-0.0571 -0.381,-0.0571 -0.29845,0 -0.5207,0.1143 -0.2159,0.1143 -0.32385,0.2921 -0.1016,0.1778 -0.14605,0.33655 -0.04445,0.1524 -0.04445,0.2921 0,0.4318 0.2921,0.73025 0.29845,0.2921 0.70485,0.2921 0.45085,0 0.62865,-0.381 0.03175,-0.0889 0.0762,-0.1143 0.04445,-0.0254 0.13335,-0.0254 0.22225,0 0.22225,0.1778 0,0.0571 -0.0508,0.1651 -0.0508,0.1016 -0.1651,0.2413 -0.10795,0.13335 -0.3429,0.2286 -0.23495,0.0953 -0.53975,0.0953 -0.59055,0 -0.99695,-0.41275 -0.40005,-0.4191 -0.40005,-0.99695 z m 3.136898,1.17475 q 0,-0.1905 0.26035,-0.1905 h 0.64135 v -1.96215 h -0.64135 q -0.254,0 -0.254,-0.1905 0,-0.19685 0.26035,-0.19685 h 0.635 v -0.33655 q 0,-0.3937 0.2921,-0.61595 0.29845,-0.2286 0.70485,-0.2286 0.6096,0 0.6096,0.381 0,0.127 -0.0889,0.2032 -0.08255,0.0762 -0.18415,0.0762 -0.1016,0 -0.17145,-0.0635 -0.0635,-0.0699 -0.0889,-0.127 -0.01905,-0.0571 -0.01905,-0.0825 -0.10795,0 -0.18415,0.0127 -0.06985,0.006 -0.1905,0.0508 -0.1143,0.0381 -0.1778,0.1524 -0.0635,0.10795 -0.0635,0.2794 v 0.29845 h 0.7747 q 0.0762,0 0.1143,0.006 0.04445,0.006 0.0889,0.0572 0.0508,0.0444 0.0508,0.13335 0,0.1905 -0.254,0.1905 h -0.7747 v 1.96215 h 0.64135 q 0.26035,0 0.26035,0.19685 0,0.1905 -0.26035,0.1905 h -1.72085 q -0.26035,0 -0.26035,-0.19685 z m 3.251196,0.71755 q 0,-0.50165 0.4699,-0.7874 -0.14605,-0.19685 -0.14605,-0.4572 0,-0.24765 0.127,-0.4318 -0.2032,-0.26035 -0.2032,-0.60325 0,-0.41275 0.3048,-0.7112 0.3048,-0.3048 0.74295,-0.3048 0.336549,0 0.615949,0.1905 0.29845,-0.22225 0.6731,-0.22225 0.23495,0 0.34925,0.10795 0.1143,0.1016 0.1143,0.23495 0,0.127 -0.08255,0.19685 -0.0762,0.0635 -0.17145,0.0635 -0.06985,0 -0.14605,-0.0508 -0.0762,-0.0508 -0.1016,-0.1651 -0.20955,0.0191 -0.3683,0.10795 0.1651,0.27305 0.1651,0.55245 0,0.42545 -0.3048,0.7239 -0.3048,0.29845 -0.742949,0.29845 -0.33655,0 -0.5715,-0.15875 -0.0381,0.0953 -0.0381,0.1778 0,0.13335 0.0762,0.2286 0.0762,0.0889 0.20955,0.0889 0.0508,0.0127 0.18415,0.0127 h 0.444499 q 0.57785,0 0.92075,0.18415 0.22225,0.12065 0.3302,0.3175 0.10795,0.2032 0.10795,0.4064 0,0.40005 -0.4318,0.66675 -0.4318,0.2667 -1.04775,0.2667 -0.615949,0 -1.047749,-0.2667 -0.4318,-0.26035 -0.4318,-0.66675 z m 0.3683,0 q 0,0.2159 0.32385,0.381 0.32385,0.17145 0.787399,0.17145 0.46355,0 0.7874,-0.17145 0.32385,-0.1651 0.32385,-0.381 0,-0.1905 -0.10795,-0.31115 -0.10795,-0.12065 -0.33655,-0.17145 -0.2286,-0.0444 -0.38735,-0.0508 -0.15875,-0.0127 -0.450849,-0.0127 -0.36195,0 -0.46355,0.0127 -0.1016,0.0127 -0.2159,0.0889 -0.26035,0.1651 -0.26035,0.4445 z m 0.3175,-2.2733 q 0,0.254 0.1778,0.4445 0.1778,0.1905 0.4318,0.1905 0.247649,0 0.425449,-0.18415 0.18415,-0.1905 0.18415,-0.4572 0,-0.254 -0.1778,-0.4445 -0.1778,-0.1905 -0.431799,-0.1905 -0.24765,0 -0.4318,0.1905 -0.1778,0.18415 -0.1778,0.45085 z m 3.727447,1.35255 q 0,-0.1524 0.1143,-0.27305 0.1143,-0.12065 0.28575,-0.12065 0.15875,0 0.27305,0.1143 0.12065,0.1143 0.12065,0.2794 0,0.1524 -0.1143,0.2794 -0.10795,0.12065 -0.2794,0.12065 -0.15875,0 -0.2794,-0.1143 -0.12065,-0.12065 -0.12065,-0.28575 z m 2.298698,-0.9652 q 0,-0.5969 0.38735,-1.0033 0.38735,-0.4064 0.9144,-0.4064 0.4191,0 0.74295,0.28575 v -1.0033 h -0.28575 q -0.254,0 -0.254,-0.1905 0,-0.19685 0.26035,-0.19685 h 0.46355 q 0.15875,0 0.2032,0.0572 0.0508,0.0508 0.0508,0.2032 v 3.23215 h 0.28575 q 0.254,0 0.254,0.1905 0,0.19685 -0.26035,0.19685 h -0.46355 q -0.1778,0 -0.2159,-0.0635 -0.0381,-0.0635 -0.0381,-0.254 -0.3429,0.3556 -0.8001,0.3556 -0.508,0 -0.8763,-0.4064 -0.3683,-0.41275 -0.3683,-0.99695 z m 0.43815,0 q 0,0.4191 0.2413,0.71755 0.24765,0.29845 0.59055,0.29845 0.33655,0 0.55245,-0.28575 0.22225,-0.2921 0.22225,-0.5969 v -0.45085 q 0,-0.27305 -0.20955,-0.48895 -0.20955,-0.2159 -0.508,-0.2159 -0.34925,0 -0.6223,0.2921 -0.2667,0.2921 -0.2667,0.73025 z m 3.016248,0.55245 q 0,-0.4445 0.51435,-0.6858 0.5207,-0.24765 1.39065,-0.26035 0,-0.32385 -0.2159,-0.4826 -0.2159,-0.1651 -0.5969,-0.1651 -0.1397,0 -0.2286,0.006 -0.09525,0.006 -0.1143,0.019 -0.01905,0.0127 -0.01905,0.0508 -0.0063,0.15875 -0.09525,0.2286 -0.0889,0.0635 -0.18415,0.0635 -0.12065,0 -0.2032,-0.0762 -0.08255,-0.0762 -0.08255,-0.2159 0,-0.46355 0.92075,-0.46355 0.62865,0 0.9398,0.29845 0.3175,0.29845 0.3175,0.6858 v 1.3716 q 0.13335,0.0508 0.381,0.0508 0.254,0 0.254,0.1905 0,0.0952 -0.0508,0.1397 -0.04445,0.0444 -0.1016,0.0508 -0.0508,0.006 -0.1651,0.006 -0.53975,0 -0.6858,-0.2032 -0.3683,0.2413 -0.9271,0.2413 -0.4699,0 -0.762,-0.254 -0.28575,-0.254 -0.28575,-0.5969 z m 0.43815,0 q 0,0.1905 0.18415,0.3302 0.18415,0.13335 0.4699,0.13335 0.33655,0 0.56515,-0.10795 0.1143,-0.0508 0.17145,-0.12065 0.05715,-0.0762 0.0635,-0.127 0.0127,-0.0508 0.0127,-0.14605 v -0.5334 q -0.67945,0.0191 -1.07315,0.1778 -0.3937,0.15875 -0.3937,0.3937 z m 2.705098,-1.7272 q 0,-0.19685 0.26035,-0.19685 h 0.55245 v -0.5207 q 0,-0.0825 0.0064,-0.127 0.0063,-0.0444 0.05715,-0.0889 0.05715,-0.0444 0.15875,-0.0444 0.14605,0 0.1778,0.0698 0.0381,0.0635 0.0381,0.1905 v 0.5207 h 1.0414 q 0.0762,0 0.1143,0.006 0.04445,0.006 0.0889,0.0572 0.0508,0.0444 0.0508,0.13335 0,0.1905 -0.254,0.1905 h -1.0414 v 1.5113 q 0,0.0889 0.0063,0.1524 0.0127,0.0571 0.0508,0.1524 0.04445,0.0889 0.1524,0.1397 0.10795,0.0445 0.2794,0.0445 0.1016,0 0.2032,-0.0254 0.1016,-0.0318 0.2032,-0.1397 0.10795,-0.1143 0.10795,-0.2921 0,-0.0699 0.0063,-0.1143 0.0127,-0.0445 0.0635,-0.0826 0.0508,-0.0444 0.14605,-0.0444 0.1016,0 0.1524,0.0444 0.05715,0.0445 0.0635,0.0889 0.0063,0.0381 0.0063,0.1143 0,0.3937 -0.29845,0.61595 -0.29845,0.22225 -0.6858,0.22225 -0.38735,0 -0.64135,-0.2032 -0.254,-0.20955 -0.254,-0.635 v -1.5494 h -0.5588 q -0.254,0 -0.254,-0.1905 z"
         id="path2" />
      <path
         d="m 49.913611,111.70473 q 0,-0.5588 0.40005,-0.9271 0.40005,-0.3683 0.94615,-0.3683 0.2413,0 0.4572,0.0953 0.22225,0.0952 0.4191,0.31115 0.19685,0.20955 0.31115,0.61595 0.12065,0.40005 0.12065,0.94615 0,0.90805 -0.4826,1.47955 -0.4826,0.5715 -1.13665,0.5715 -0.28575,0 -0.48895,-0.0699 -0.19685,-0.0699 -0.28575,-0.18415 -0.08255,-0.1143 -0.12065,-0.20955 -0.03175,-0.0952 -0.03175,-0.1905 0,-0.1397 0.08255,-0.2159 0.08255,-0.0825 0.2032,-0.0825 0.12065,0 0.19685,0.0825 0.08255,0.0825 0.08255,0.19685 0,0.10795 -0.05715,0.1778 0.1397,0.10795 0.4191,0.10795 0.45085,0 0.78105,-0.4064 0.33655,-0.41275 0.38735,-1.00965 -0.4064,0.3683 -0.94615,0.3683 -0.52705,0 -0.89535,-0.37465 -0.36195,-0.37465 -0.36195,-0.9144 z m 0.43815,0 q 0,0.3683 0.23495,0.635 0.2413,0.26035 0.61595,0.26035 0.381,0 0.6223,-0.2159 0.24765,-0.2159 0.24765,-0.4953 0,-0.0318 -0.0127,-0.1016 -0.0127,-0.0762 -0.0127,-0.0889 0,-0.0191 0,-0.0318 0.0064,-0.019 0.0064,-0.0254 0,-0.0254 -0.0254,-0.1143 -0.0254,-0.0889 -0.08255,-0.22225 -0.05715,-0.1397 -0.13335,-0.23495 -0.2159,-0.27305 -0.55245,-0.27305 -0.36195,0 -0.635,0.254 -0.27305,0.254 -0.27305,0.65405 z m 2.838447,1.5494 q 0,-0.3429 0.254,-0.6096 0.254,-0.2667 0.62865,-0.37465 -0.37465,-0.12065 -0.5842,-0.3429 -0.20955,-0.2286 -0.20955,-0.50165 0,-0.40005 0.3683,-0.70485 0.37465,-0.31115 0.9271,-0.31115 0.55245,0 0.92075,0.3048 0.37465,0.3048 0.37465,0.7112 0,0.27305 -0.20955,0.4953 -0.2032,0.22225 -0.5842,0.34925 0.37465,0.10795 0.62865,0.37465 0.254,0.2667 0.254,0.6096 0,0.4699 -0.40005,0.8255 -0.3937,0.34925 -0.98425,0.34925 -0.5842,0 -0.98425,-0.34925 -0.40005,-0.3556 -0.40005,-0.8255 z m 0.43815,-0.006 q 0,0.3302 0.27305,0.56515 0.2794,0.2286 0.6731,0.2286 0.3937,0 0.66675,-0.2286 0.2794,-0.23495 0.2794,-0.56515 0,-0.31115 -0.2667,-0.5461 -0.26035,-0.2413 -0.67945,-0.2413 -0.41275,0 -0.67945,0.2413 -0.2667,0.2413 -0.2667,0.5461 z m 0.0889,-1.8161 q 0,0.2667 0.254,0.4572 0.254,0.18415 0.60325,0.18415 0.34925,0 0.60325,-0.18415 0.254,-0.1905 0.254,-0.4572 0,-0.254 -0.24765,-0.4445 -0.24765,-0.1905 -0.6096,-0.1905 -0.3683,0 -0.61595,0.1905 -0.2413,0.1905 -0.2413,0.4445 z m 2.711448,1.6002 q 0,-0.1397 0.05715,-0.22225 l 1.4478,-2.2733 q 0.05715,-0.0953 0.1016,-0.1143 0.04445,-0.0191 0.1651,-0.0191 h 0.1778 q 0.15875,0 0.20955,0.0508 0.0508,0.0508 0.0508,0.20955 v 2.2352 h 0.4953 q 0.0762,0 0.1143,0.006 0.04445,0.006 0.0889,0.0571 0.0508,0.0444 0.0508,0.13335 0,0.1905 -0.254,0.1905 h -0.4953 v 0.6858 h 0.3937 q 0.0762,0 0.1143,0.006 0.04445,0.006 0.0889,0.0571 0.0508,0.0444 0.0508,0.13335 0,0.1905 -0.254,0.1905 h -1.143 q -0.254,0 -0.254,-0.1905 0,-0.0889 0.04445,-0.13335 0.0508,-0.0508 0.0889,-0.0571 0.04445,-0.006 0.12065,-0.006 h 0.3937 v -0.6858 h -1.6002 q -0.1524,0 -0.2032,-0.0508 -0.0508,-0.0508 -0.0508,-0.2032 z m 0.4445,-0.13335 h 1.4097 v -2.21615 z m 3.054347,0.6477 q 0,-0.4445 0.51435,-0.6858 0.5207,-0.24765 1.39065,-0.26035 0,-0.32385 -0.2159,-0.4826 -0.2159,-0.1651 -0.5969,-0.1651 -0.1397,0 -0.2286,0.006 -0.09525,0.006 -0.1143,0.019 -0.01905,0.0127 -0.01905,0.0508 -0.0064,0.15875 -0.09525,0.2286 -0.0889,0.0635 -0.18415,0.0635 -0.12065,0 -0.2032,-0.0762 -0.08255,-0.0762 -0.08255,-0.2159 0,-0.46355 0.92075,-0.46355 0.62865,0 0.9398,0.29845 0.3175,0.29845 0.3175,0.6858 v 1.3716 q 0.13335,0.0508 0.381,0.0508 0.254,0 0.254,0.1905 0,0.0952 -0.0508,0.1397 -0.04445,0.0444 -0.1016,0.0508 -0.0508,0.006 -0.1651,0.006 -0.53975,0 -0.6858,-0.2032 -0.3683,0.2413 -0.9271,0.2413 -0.4699,0 -0.762,-0.254 -0.28575,-0.254 -0.28575,-0.5969 z m 0.43815,0 q 0,0.1905 0.18415,0.3302 0.18415,0.13335 0.4699,0.13335 0.33655,0 0.56515,-0.10795 0.1143,-0.0508 0.17145,-0.12065 0.05715,-0.0762 0.0635,-0.127 0.0127,-0.0508 0.0127,-0.14605 v -0.5334 q -0.67945,0.0191 -1.07315,0.1778 -0.3937,0.15875 -0.3937,0.3937 z m 2.825748,-2.6416 v -0.2667 q 0,-0.0825 0.0063,-0.127 0.0064,-0.0444 0.05715,-0.0889 0.0508,-0.0445 0.1524,-0.0445 0.1651,0 0.2032,0.1016 h 2.0955 q 0.0762,0 0.1143,0.006 0.04445,0.006 0.0889,0.0572 0.0508,0.0444 0.0508,0.13335 0,0.0635 -0.0254,0.0953 -0.01905,0.0318 -0.1143,0.12065 -0.14605,0.14605 -0.2921,0.3175 -0.14605,0.1651 -0.3556,0.4826 -0.2032,0.31115 -0.3556,0.65405 -0.1524,0.3429 -0.2667,0.83185 -0.1143,0.4826 -0.12065,0.99695 0,0.127 -0.0635,0.1905 -0.0635,0.0635 -0.1524,0.0635 -0.22225,0 -0.22225,-0.29845 0,-0.3048 0.0508,-0.6477 0.05715,-0.34925 0.1905,-0.79375 0.13335,-0.45085 0.4064,-0.9271 0.2794,-0.4826 0.66675,-0.89535 h -1.6764 q 0,0.1143 -0.0063,0.1651 -0.0064,0.0444 -0.05715,0.0889 -0.0508,0.0444 -0.15875,0.0444 -0.14605,0 -0.18415,-0.0635 -0.03175,-0.0698 -0.03175,-0.19685 z m 3.282947,2.08915 q 0,-0.5969 0.38735,-1.0033 0.38735,-0.4064 0.9144,-0.4064 0.4191,0 0.74295,0.28575 v -1.0033 h -0.28575 q -0.254,0 -0.254,-0.1905 0,-0.19685 0.26035,-0.19685 h 0.46355 q 0.15875,0 0.2032,0.0572 0.0508,0.0508 0.0508,0.2032 v 3.23215 h 0.28575 q 0.254,0 0.254,0.1905 0,0.19685 -0.26035,0.19685 h -0.46355 q -0.1778,0 -0.2159,-0.0635 -0.0381,-0.0635 -0.0381,-0.254 -0.3429,0.3556 -0.8001,0.3556 -0.508,0 -0.8763,-0.4064 -0.3683,-0.41275 -0.3683,-0.99695 z m 0.43815,0 q 0,0.4191 0.2413,0.71755 0.24765,0.29845 0.59055,0.29845 0.33655,0 0.55245,-0.28575 0.22225,-0.2921 0.22225,-0.5969 v -0.45085 q 0,-0.27305 -0.20955,-0.48895 -0.20955,-0.2159 -0.508,-0.2159 -0.34925,0 -0.6223,0.2921 -0.2667,0.2921 -0.2667,0.73025 z m 2.946398,0.26035 q 0,-0.3429 0.254,-0.6096 0.254,-0.2667 0.62865,-0.37465 -0.37465,-0.12065 -0.5842,-0.3429 -0.20955,-0.2286 -0.20955,-0.50165 0,-0.40005 0.3683,-0.70485 0.37465,-0.31115 0.9271,-0.31115 0.55245,0 0.92075,0.3048 0.37465,0.3048 0.37465,0.7112 0,0.27305 -0.20955,0.4953 -0.2032,0.22225 -0.5842,0.34925 0.37465,0.10795 0.62865,0.37465 0.254,0.2667 0.254,0.6096 0,0.4699 -0.40005,0.8255 -0.3937,0.34925 -0.98425,0.34925 -0.5842,0 -0.98425,-0.34925 -0.40005,-0.3556 -0.40005,-0.8255 z m 0.43815,-0.006 q 0,0.3302 0.27305,0.56515 0.2794,0.2286 0.6731,0.2286 0.3937,0 0.66675,-0.2286 0.2794,-0.23495 0.2794,-0.56515 0,-0.31115 -0.2667,-0.5461 -0.26035,-0.2413 -0.67945,-0.2413 -0.41275,0 -0.67945,0.2413 -0.2667,0.2413 -0.2667,0.5461 z m 0.0889,-1.8161 q 0,0.2667 0.254,0.4572 0.254,0.18415 0.60325,0.18415 0.34925,0 0.60325,-0.18415 0.254,-0.1905 0.254,-0.4572 0,-0.254 -0.24765,-0.4445 -0.24765,-0.1905 -0.6096,-0.1905 -0.3683,0 -0.61595,0.1905 -0.2413,0.1905 -0.2413,0.4445 z m 2.806698,1.82245 q 0,-0.3429 0.254,-0.6096 0.254,-0.2667 0.62865,-0.37465 -0.37465,-0.12065 -0.5842,-0.3429 -0.20955,-0.2286 -0.20955,-0.50165 0,-0.40005 0.3683,-0.70485 0.37465,-0.31115 0.9271,-0.31115 0.55245,0 0.92075,0.3048 0.37465,0.3048 0.37465,0.7112 0,0.27305 -0.20955,0.4953 -0.2032,0.22225 -0.5842,0.34925 0.37465,0.10795 0.62865,0.37465 0.254,0.2667 0.254,0.6096 0,0.4699 -0.40005,0.8255 -0.3937,0.34925 -0.98425,0.34925 -0.5842,0 -0.98425,-0.34925 -0.40005,-0.3556 -0.40005,-0.8255 z m 0.43815,-0.006 q 0,0.3302 0.27305,0.56515 0.2794,0.2286 0.6731,0.2286 0.3937,0 0.66675,-0.2286 0.2794,-0.23495 0.2794,-0.56515 0,-0.31115 -0.2667,-0.5461 -0.26035,-0.2413 -0.67945,-0.2413 -0.41275,0 -0.67945,0.2413 -0.2667,0.2413 -0.2667,0.5461 z m 0.0889,-1.8161 q 0,0.2667 0.254,0.4572 0.254,0.18415 0.60325,0.18415 0.34925,0 0.60325,-0.18415 0.254,-0.1905 0.254,-0.4572 0,-0.254 -0.24765,-0.4445 -0.24765,-0.1905 -0.6096,-0.1905 -0.3683,0 -0.61595,0.1905 -0.2413,0.1905 -0.2413,0.4445 z"
         id="path3" />
    </g>
  </g>
</svg>
