<?xml version="1.0" encoding="UTF-8" standalone="no"?>
<!-- Created with Inkscape (http://www.inkscape.org/) -->

<svg
   width="190.52827mm"
   height="33.008167mm"
   viewBox="0 0 190.52827 33.008167"
   version="1.1"
   id="svg1"
   inkscape:version="1.3 (0e150ed, 2023-07-21)"
   sodipodi:docname="endianness.svg"
   xmlns:inkscape="http://www.inkscape.org/namespaces/inkscape"
   xmlns:sodipodi="http://sodipodi.sourceforge.net/DTD/sodipodi-0.dtd"
   xmlns="http://www.w3.org/2000/svg"
   xmlns:svg="http://www.w3.org/2000/svg">
  <sodipodi:namedview
     id="namedview1"
     pagecolor="#ffffff"
     bordercolor="#000000"
     borderopacity="0.25"
     inkscape:showpageshadow="2"
     inkscape:pageopacity="0.0"
     inkscape:pagecheckerboard="0"
     inkscape:deskcolor="#d1d1d1"
     inkscape:document-units="mm"
     inkscape:zoom="1.0492452"
     inkscape:cx="401.2408"
     inkscape:cy="28.591981"
     inkscape:window-width="1920"
     inkscape:window-height="1027"
     inkscape:window-x="0"
     inkscape:window-y="25"
     inkscape:window-maximized="0"
     inkscape:current-layer="g18" />
  <defs
     id="defs1">
    <marker
       style="overflow:visible"
       id="marker10"
       refX="0"
       refY="0"
       orient="auto-start-reverse"
       inkscape:stockid="Concave triangle arrow"
       markerWidth="1"
       markerHeight="1"
       viewBox="0 0 1 1"
       inkscape:isstock="true"
       inkscape:collect="always"
       preserveAspectRatio="xMidYMid">
      <path
         transform="scale(0.7)"
         d="M -2,-4 9,0 -2,4 c 2,-2.33 2,-5.66 0,-8 z"
         style="fill:context-stroke;fill-rule:evenodd;stroke:none"
         id="path10" />
    </marker>
    <marker
       style="overflow:visible"
       id="marker9"
       refX="0"
       refY="0"
       orient="auto-start-reverse"
       inkscape:stockid="Concave triangle arrow"
       markerWidth="1"
       markerHeight="1"
       viewBox="0 0 1 1"
       inkscape:isstock="true"
       inkscape:collect="always"
       preserveAspectRatio="xMidYMid">
      <path
         transform="scale(0.7)"
         d="M -2,-4 9,0 -2,4 c 2,-2.33 2,-5.66 0,-8 z"
         style="fill:context-stroke;fill-rule:evenodd;stroke:none"
         id="path9" />
    </marker>
    <marker
       style="overflow:visible"
       id="marker8"
       refX="0"
       refY="0"
       orient="auto-start-reverse"
       inkscape:stockid="Concave triangle arrow"
       markerWidth="1"
       markerHeight="1"
       viewBox="0 0 1 1"
       inkscape:isstock="true"
       inkscape:collect="always"
       preserveAspectRatio="xMidYMid">
      <path
         transform="scale(0.7)"
         d="M -2,-4 9,0 -2,4 c 2,-2.33 2,-5.66 0,-8 z"
         style="fill:context-stroke;fill-rule:evenodd;stroke:none"
         id="path8" />
    </marker>
    <marker
       style="overflow:visible"
       id="ConcaveTriangle"
       refX="0"
       refY="0"
       orient="auto-start-reverse"
       inkscape:stockid="Concave triangle arrow"
       markerWidth="1"
       markerHeight="1"
       viewBox="0 0 1 1"
       inkscape:isstock="true"
       inkscape:collect="always"
       preserveAspectRatio="xMidYMid">
      <path
         transform="scale(0.7)"
         d="M -2,-4 9,0 -2,4 c 2,-2.33 2,-5.66 0,-8 z"
         style="fill:context-stroke;fill-rule:evenodd;stroke:none"
         id="path7" />
    </marker>
  </defs>
  <g
     inkscape:label="Layer 1"
     inkscape:groupmode="layer"
     id="layer1"
     transform="translate(-39.397808,-108.04039)">
    <path
       style="fill:#000000;stroke:#000000;stroke-width:0.4;stroke-linecap:round;stroke-linejoin:bevel;stroke-miterlimit:3.9;stroke-dasharray:none;marker-start:url(#marker9);marker-end:url(#marker10);paint-order:fill markers stroke"
       d="M 88.494395,112.50147 H 133.19463"
       id="path5" />
    <path
       style="fill:#000000;stroke:#000000;stroke-width:0.4;stroke-linecap:round;stroke-linejoin:bevel;stroke-miterlimit:3.9;stroke-dasharray:none;marker-start:url(#marker8);marker-end:url(#ConcaveTriangle);paint-order:fill markers stroke"
       d="M 88.494395,138.27149 H 123.99574"
       id="path6"
       sodipodi:nodetypes="cc" />
    <path
       style="fill:#000000;stroke:#000000;stroke-width:0.4;stroke-linecap:round;stroke-linejoin:bevel;stroke-miterlimit:3.9;stroke-dasharray:none;marker-start:url(#marker9);marker-end:url(#marker10);paint-order:fill markers stroke"
       d="M 87.812315,135.13035 135.71463,116.4967"
       id="path11"
       sodipodi:nodetypes="cc" />
    <path
       style="fill:#000000;stroke:#000000;stroke-width:0.4;stroke-linecap:round;stroke-linejoin:bevel;stroke-miterlimit:3.9;stroke-dasharray:none;marker-start:url(#marker9);marker-end:url(#marker10);paint-order:fill markers stroke"
       d="M 87.300756,116.4967 127.2979,133.951"
       id="path12"
       sodipodi:nodetypes="cc" />
  </g>
  <g
     inkscape:groupmode="layer"
     id="layer6"
     inkscape:label="text"
     style="display:none"
     transform="translate(-39.397808,-108.04039)">
    <text
       xml:space="preserve"
       style="font-size:8.46667px;font-family:'CMU Typewriter Text';-inkscape-font-specification:'CMU Typewriter Text';text-align:center;letter-spacing:0px;text-anchor:middle;fill:#000000;stroke-width:3;stroke-linecap:round;stroke-linejoin:bevel;stroke-miterlimit:3.9;paint-order:fill markers stroke"
       x="61.199467"
       y="140.86229"
       id="text1"><tspan
         sodipodi:role="line"
         id="tspan1"
         style="text-align:center;text-anchor:middle;stroke-width:3"
         x="61.199471"
         y="140.86229">0x40490fdb</tspan></text>
    <text
       xml:space="preserve"
       style="font-size:8.46667px;font-family:'CMU Typewriter Text';-inkscape-font-specification:'CMU Typewriter Text';text-align:center;letter-spacing:0px;text-anchor:middle;fill:#000000;stroke-width:3;stroke-linecap:round;stroke-linejoin:bevel;stroke-miterlimit:3.9;paint-order:fill markers stroke"
       x="61.199467"
       y="115.09228"
       id="text2"><tspan
         sodipodi:role="line"
         id="tspan2"
         style="text-align:center;text-anchor:middle;stroke-width:3"
         x="61.199471"
         y="115.09228">0xdb0f4940</tspan></text>
    <text
       xml:space="preserve"
       style="font-size:8.46667px;font-family:'CMU Typewriter Text';-inkscape-font-specification:'CMU Typewriter Text';text-align:center;letter-spacing:0px;text-anchor:middle;fill:#000000;stroke-width:3;stroke-linecap:round;stroke-linejoin:bevel;stroke-miterlimit:3.9;paint-order:fill markers stroke"
       x="180.49783"
       y="140.86229"
       id="text3"><tspan
         sodipodi:role="line"
         id="tspan3"
         style="font-style:normal;font-variant:normal;font-weight:normal;font-stretch:normal;font-family:'CMU Serif';-inkscape-font-specification:'CMU Serif';text-align:center;text-anchor:middle;stroke-width:3"
         x="180.49783"
         y="140.86229">3.1415927410125732421875</tspan></text>
    <text
       xml:space="preserve"
       style="font-size:8.46667px;font-family:'CMU Typewriter Text';-inkscape-font-specification:'CMU Typewriter Text';text-align:center;letter-spacing:0px;text-anchor:middle;fill:#000000;stroke-width:3;stroke-linecap:round;stroke-linejoin:bevel;stroke-miterlimit:3.9;paint-order:fill markers stroke"
       x="180.37083"
       y="115.09228"
       id="text4"><tspan
         sodipodi:role="line"
         id="tspan4"
         style="font-style:normal;font-variant:normal;font-weight:normal;font-stretch:normal;font-family:'CMU Serif';-inkscape-font-specification:'CMU Serif';text-align:center;text-anchor:middle;stroke-width:3"
         x="180.37083"
         y="115.09228">−4.03314608964×10<tspan
   style="font-size:65%;text-align:center;baseline-shift:super;text-anchor:middle"
   id="tspan5">16</tspan></tspan></text>
  </g>
  <g
     inkscape:groupmode="layer"
     id="g18"
     inkscape:label="text copy"
     style="display:inline"
     transform="translate(-39.397808,-108.04039)">
    <path
       d="m 39.397808,138.27149 q 0,-1.13454 0.5334,-1.905 0.5334,-0.77047 1.261534,-0.77047 0.719667,0 1.253067,0.77047 0.541867,0.762 0.541867,1.91347 0,1.13453 -0.533401,1.905 -0.5334,0.77046 -1.261533,0.77046 -0.719667,0 -1.261534,-0.762 -0.5334,-0.77046 -0.5334,-1.92193 z m 0.5842,-0.0847 q 0,0.93134 0.3556,1.59174 0.3556,0.6604 0.855134,0.6604 0.499533,0 0.855133,-0.6604 0.3556,-0.6604 0.3556,-1.59174 0,-0.90593 -0.364066,-1.49013 -0.364067,-0.5842 -0.846667,-0.5842 -0.482601,0 -0.846667,0.59266 -0.364067,0.5842 -0.364067,1.48167 z m 3.666065,2.42147 q 0,-0.26247 0.347133,-0.26247 h 0.338667 l 1.049867,-1.36313 -0.999067,-1.25307 h -0.338667 q -0.347133,0 -0.347133,-0.254 0,-0.26247 0.347133,-0.26247 h 0.990601 q 0.338667,0 0.338667,0.254 0,0.127 -0.06773,0.18627 -0.05927,0.0593 -0.127,0.0677 -0.06773,0.008 -0.211667,0.008 l 0.643467,0.85514 0.626534,-0.85514 q -0.143934,0 -0.220134,-0.008 -0.06773,-0.008 -0.135466,-0.0677 -0.05927,-0.0593 -0.05927,-0.18627 0,-0.254 0.338667,-0.254 h 0.9906 q 0.347134,0 0.347134,0.26247 0,0.254 -0.347134,0.254 h -0.338667 l -0.9652,1.25307 1.083734,1.36313 h 0.338667 q 0.347133,0 0.347133,0.26247 0,0.254 -0.347133,0.254 h -0.990601 q -0.338667,0 -0.338667,-0.254 0,-0.127 0.05927,-0.18627 0.06773,-0.0593 0.135467,-0.0677 0.0762,-0.008 0.2286,-0.008 l -0.753534,-1.0414 -0.728133,1.0414 q 0.169333,0 0.237066,0.008 0.0762,0.008 0.135467,0.0677 0.06773,0.0593 0.06773,0.18627 0,0.254 -0.338667,0.254 h -0.990601 q -0.347133,0 -0.347133,-0.254 z m 4.461932,-1.51553 q 0,-0.18627 0.0762,-0.29634 l 1.930401,-3.03107 q 0.0762,-0.127 0.135466,-0.1524 0.05927,-0.0254 0.220134,-0.0254 h 0.237067 q 0.211666,0 0.2794,0.0677 0.06773,0.0677 0.06773,0.2794 v 2.98027 h 0.6604 q 0.1016,0 0.1524,0.008 0.05927,0.008 0.118534,0.0762 0.06773,0.0593 0.06773,0.1778 0,0.254 -0.338667,0.254 h -0.6604 v 0.9144 h 0.524934 q 0.1016,0 0.1524,0.008 0.05927,0.008 0.118533,0.0762 0.06773,0.0593 0.06773,0.1778 0,0.254 -0.338666,0.254 h -1.524001 q -0.338667,0 -0.338667,-0.254 0,-0.11853 0.05927,-0.1778 0.06773,-0.0677 0.118533,-0.0762 0.05927,-0.008 0.160867,-0.008 h 0.524934 v -0.9144 h -2.133601 q -0.2032,0 -0.270934,-0.0677 -0.06773,-0.0677 -0.06773,-0.27093 z m 0.592667,-0.1778 h 1.879601 v -2.95487 z m 4.030132,-0.64347 q 0,-1.13454 0.5334,-1.905 0.5334,-0.77047 1.261534,-0.77047 0.719667,0 1.253067,0.77047 0.541867,0.762 0.541867,1.91347 0,1.13453 -0.5334,1.905 -0.533401,0.77046 -1.261534,0.77046 -0.719667,0 -1.261534,-0.762 -0.5334,-0.77046 -0.5334,-1.92193 z m 0.5842,-0.0847 q 0,0.93134 0.3556,1.59174 0.3556,0.6604 0.855134,0.6604 0.499533,0 0.855133,-0.6604 0.355601,-0.6604 0.355601,-1.59174 0,-0.90593 -0.364067,-1.49013 -0.364067,-0.5842 -0.846667,-0.5842 -0.4826,0 -0.846667,0.59266 -0.364067,0.5842 -0.364067,1.48167 z m 3.682998,0.90594 q 0,-0.18627 0.0762,-0.29634 l 1.930401,-3.03107 q 0.0762,-0.127 0.135467,-0.1524 0.05927,-0.0254 0.220133,-0.0254 h 0.237067 q 0.211667,0 0.2794,0.0677 0.06773,0.0677 0.06773,0.2794 v 2.98027 h 0.6604 q 0.1016,0 0.1524,0.008 0.05927,0.008 0.118533,0.0762 0.06773,0.0593 0.06773,0.1778 0,0.254 -0.338667,0.254 h -0.6604 v 0.9144 h 0.524933 q 0.1016,0 0.1524,0.008 0.05927,0.008 0.118534,0.0762 0.06773,0.0593 0.06773,0.1778 0,0.254 -0.338667,0.254 h -1.524 q -0.338667,0 -0.338667,-0.254 0,-0.11853 0.05927,-0.1778 0.06773,-0.0677 0.118534,-0.0762 0.05927,-0.008 0.160867,-0.008 h 0.524933 v -0.9144 h -2.133601 q -0.2032,0 -0.270933,-0.0677 -0.06773,-0.0677 -0.06773,-0.27093 z m 0.592667,-0.1778 h 1.879601 v -2.95487 z m 4.055533,-1.59174 q 0,-0.74507 0.5334,-1.23613 0.533401,-0.49107 1.261534,-0.49107 0.321734,0 0.6096,0.127 0.296334,0.127 0.558801,0.41487 0.262466,0.2794 0.414867,0.82126 0.160866,0.5334 0.160866,1.26154 0,1.21073 -0.643467,1.97273 -0.643467,0.762 -1.515534,0.762 -0.381,0 -0.651933,-0.0931 -0.262467,-0.0931 -0.381,-0.24553 -0.110067,-0.1524 -0.160867,-0.2794 -0.04233,-0.127 -0.04233,-0.254 0,-0.18627 0.110066,-0.28787 0.110067,-0.11007 0.270934,-0.11007 0.160866,0 0.262466,0.11007 0.110067,0.11007 0.110067,0.26247 0,0.14393 -0.0762,0.23706 0.186267,0.14394 0.5588,0.14394 0.601134,0 1.041401,-0.54187 0.448733,-0.55033 0.516467,-1.3462 -0.541867,0.49107 -1.261534,0.49107 -0.702734,0 -1.193801,-0.49954 -0.4826,-0.49953 -0.4826,-1.2192 z m 0.5842,0 q 0,0.49107 0.313267,0.84667 0.321734,0.34713 0.821267,0.34713 0.508,0 0.829734,-0.28786 0.3302,-0.28787 0.3302,-0.66041 0,-0.0423 -0.01693,-0.13546 -0.01693,-0.1016 -0.01693,-0.11854 0,-0.0254 0,-0.0423 0.0085,-0.0254 0.0085,-0.0339 0,-0.0339 -0.03387,-0.1524 -0.03387,-0.11853 -0.110066,-0.29633 -0.0762,-0.18627 -0.1778,-0.31327 -0.287867,-0.36406 -0.736601,-0.36406 -0.4826,0 -0.846667,0.33866 -0.364067,0.33867 -0.364067,0.87207 z m 3.835398,0.94827 q 0,-1.13454 0.5334,-1.905 0.5334,-0.77047 1.261534,-0.77047 0.719667,0 1.253067,0.77047 0.541867,0.762 0.541867,1.91347 0,1.13453 -0.5334,1.905 -0.5334,0.77046 -1.261534,0.77046 -0.719667,0 -1.261534,-0.762 -0.5334,-0.77046 -0.5334,-1.92193 z m 0.5842,-0.0847 q 0,0.93134 0.3556,1.59174 0.3556,0.6604 0.855134,0.6604 0.499534,0 0.855134,-0.6604 0.3556,-0.6604 0.3556,-1.59174 0,-0.90593 -0.364067,-1.49013 -0.364067,-0.5842 -0.846667,-0.5842 -0.4826,0 -0.846667,0.59266 -0.364067,0.5842 -0.364067,1.48167 z m 3.793064,2.413 q 0,-0.254 0.347134,-0.254 h 0.855134 v -2.6162 h -0.855134 q -0.338667,0 -0.338667,-0.254 0,-0.26247 0.347134,-0.26247 h 0.846667 v -0.44873 q 0,-0.52493 0.389466,-0.82127 0.397934,-0.3048 0.939801,-0.3048 0.8128,0 0.8128,0.508 0,0.16934 -0.118533,0.27094 -0.110067,0.1016 -0.245534,0.1016 -0.135466,0 -0.2286,-0.0847 -0.08467,-0.0931 -0.118533,-0.16933 -0.0254,-0.0762 -0.0254,-0.11007 -0.143934,0 -0.245534,0.0169 -0.09313,0.008 -0.254,0.0677 -0.1524,0.0508 -0.237067,0.2032 -0.08467,0.14393 -0.08467,0.37253 v 0.39793 h 1.032934 q 0.1016,0 0.1524,0.008 0.05927,0.008 0.118533,0.0762 0.06773,0.0593 0.06773,0.1778 0,0.254 -0.338666,0.254 h -1.032934 v 2.6162 h 0.855133 q 0.347134,0 0.347134,0.26247 0,0.254 -0.347134,0.254 h -2.294467 q -0.347134,0 -0.347134,-0.26247 z m 4.3942,-1.55786 q 0,-0.79587 0.516467,-1.33774 0.516467,-0.54187 1.2192,-0.54187 0.558801,0 0.990601,0.381 v -1.33773 h -0.381 q -0.338667,0 -0.338667,-0.254 0,-0.26247 0.347133,-0.26247 h 0.618067 q 0.211667,0 0.270934,0.0762 0.06773,0.0677 0.06773,0.27094 v 4.30953 h 0.381 q 0.338667,0 0.338667,0.254 0,0.26247 -0.347133,0.26247 h -0.618067 q -0.237067,0 -0.287867,-0.0847 -0.0508,-0.0847 -0.0508,-0.33866 -0.4572,0.47413 -1.066801,0.47413 -0.677333,0 -1.1684,-0.54187 -0.491067,-0.55033 -0.491067,-1.32926 z m 0.5842,0 q 0,0.5588 0.321734,0.95673 0.3302,0.39793 0.7874,0.39793 0.448734,0 0.7366,-0.381 0.296334,-0.38946 0.296334,-0.79586 v -0.60114 q 0,-0.36406 -0.2794,-0.65193 -0.2794,-0.28787 -0.677334,-0.28787 -0.465667,0 -0.829734,0.38947 -0.3556,0.38947 -0.3556,0.97367 z m 3.6576,-3.09034 q 0,-0.26247 0.347133,-0.26247 h 0.618067 q 0.211667,0 0.270933,0.0762 0.06773,0.0677 0.06773,0.27094 v 1.54093 q 0.4572,-0.41487 1.075267,-0.41487 0.677334,0 1.159934,0.55034 0.491067,0.54187 0.491067,1.3208 0,0.79587 -0.524934,1.33773 -0.516467,0.54187 -1.2192,0.54187 -0.558801,0 -0.982134,-0.4318 0,0.13547 -0.0085,0.2032 -0.0085,0.0593 -0.0762,0.11853 -0.06773,0.0593 -0.2032,0.0593 -0.135467,0 -0.211667,-0.0593 -0.06773,-0.0593 -0.0762,-0.11853 -0.0085,-0.0593 -0.0085,-0.16933 v -4.30954 H 79.41973 q -0.338666,0 -0.338666,-0.254 z m 1.303867,3.29354 q 0,0.381 0.254,0.77046 0.254,0.381 0.702734,0.381 0.465666,0 0.821267,-0.38946 0.364066,-0.38947 0.364066,-0.97367 0,-0.5588 -0.3302,-0.95674 -0.321733,-0.39793 -0.7874,-0.39793 -0.397934,0 -0.7112,0.28787 -0.313267,0.28787 -0.313267,0.6604 z"
       id="text14"
       style="font-size:8.46667px;font-family:'CMU Typewriter Text';-inkscape-font-specification:'CMU Typewriter Text';text-align:center;letter-spacing:0px;text-anchor:middle;stroke-width:3;stroke-linecap:round;stroke-linejoin:bevel;stroke-miterlimit:3.9;paint-order:fill markers stroke"
       aria-label="0x40490fdb" />
    <path
       d="m 39.397808,112.50148 q 0,-1.13454 0.5334,-1.905 0.5334,-0.77047 1.261534,-0.77047 0.719667,0 1.253067,0.77047 0.541867,0.762 0.541867,1.91346 0,1.13454 -0.533401,1.905 -0.5334,0.77047 -1.261533,0.77047 -0.719667,0 -1.261534,-0.762 -0.5334,-0.77047 -0.5334,-1.92193 z m 0.5842,-0.0847 q 0,0.93133 0.3556,1.59173 0.3556,0.6604 0.855134,0.6604 0.499533,0 0.855133,-0.6604 0.3556,-0.6604 0.3556,-1.59173 0,-0.90593 -0.364066,-1.49013 -0.364067,-0.5842 -0.846667,-0.5842 -0.482601,0 -0.846667,0.59266 -0.364067,0.5842 -0.364067,1.48167 z m 3.666065,2.42147 q 0,-0.26247 0.347133,-0.26247 h 0.338667 l 1.049867,-1.36313 -0.999067,-1.25307 h -0.338667 q -0.347133,0 -0.347133,-0.254 0,-0.26247 0.347133,-0.26247 h 0.990601 q 0.338667,0 0.338667,0.254 0,0.127 -0.06773,0.18627 -0.05927,0.0593 -0.127,0.0677 -0.06773,0.008 -0.211667,0.008 l 0.643467,0.85513 0.626534,-0.85513 q -0.143934,0 -0.220134,-0.008 -0.06773,-0.008 -0.135466,-0.0677 -0.05927,-0.0593 -0.05927,-0.18627 0,-0.254 0.338667,-0.254 h 0.9906 q 0.347134,0 0.347134,0.26247 0,0.254 -0.347134,0.254 h -0.338667 l -0.9652,1.25307 1.083734,1.36313 h 0.338667 q 0.347133,0 0.347133,0.26247 0,0.254 -0.347133,0.254 h -0.990601 q -0.338667,0 -0.338667,-0.254 0,-0.127 0.05927,-0.18627 0.06773,-0.0593 0.135467,-0.0677 0.0762,-0.008 0.2286,-0.008 l -0.753534,-1.0414 -0.728133,1.0414 q 0.169333,0 0.237066,0.008 0.0762,0.008 0.135467,0.0677 0.06773,0.0593 0.06773,0.18627 0,0.254 -0.338667,0.254 h -0.990601 q -0.347133,0 -0.347133,-0.254 z m 4.521199,-1.56634 q 0,-0.79586 0.516466,-1.33773 0.516467,-0.54187 1.219201,-0.54187 0.5588,0 0.9906,0.381 v -1.33773 h -0.381 q -0.338667,0 -0.338667,-0.254 0,-0.26247 0.347134,-0.26247 h 0.618067 q 0.211667,0 0.270933,0.0762 0.06773,0.0677 0.06773,0.27094 v 4.30953 h 0.381 q 0.338667,0 0.338667,0.254 0,0.26247 -0.347134,0.26247 h -0.618067 q -0.237067,0 -0.287867,-0.0847 -0.0508,-0.0847 -0.0508,-0.33867 -0.4572,0.47414 -1.0668,0.47414 -0.677334,0 -1.168401,-0.54187 -0.491066,-0.55033 -0.491066,-1.32927 z m 0.5842,0 q 0,0.5588 0.321733,0.95674 0.3302,0.39793 0.787401,0.39793 0.448733,0 0.7366,-0.381 0.296333,-0.38947 0.296333,-0.79587 v -0.60113 q 0,-0.36407 -0.2794,-0.65193 -0.2794,-0.28787 -0.677333,-0.28787 -0.465667,0 -0.829734,0.38947 -0.3556,0.38946 -0.3556,0.97366 z m 3.657598,-3.09033 q 0,-0.26247 0.347134,-0.26247 h 0.618067 q 0.211666,0 0.270933,0.0762 0.06773,0.0677 0.06773,0.27094 v 1.54093 q 0.457201,-0.41487 1.075268,-0.41487 0.677333,0 1.159933,0.55034 0.491067,0.54186 0.491067,1.3208 0,0.79586 -0.524933,1.33773 -0.516467,0.54187 -1.219201,0.54187 -0.5588,0 -0.982134,-0.4318 0,0.13546 -0.0085,0.2032 -0.0085,0.0593 -0.0762,0.11853 -0.06773,0.0593 -0.2032,0.0593 -0.135467,0 -0.211667,-0.0593 -0.06773,-0.0593 -0.0762,-0.11853 -0.0085,-0.0593 -0.0085,-0.16934 v -4.30953 h -0.381 q -0.338667,0 -0.338667,-0.254 z m 1.303867,3.29353 q 0,0.381 0.254001,0.77047 0.254,0.381 0.702733,0.381 0.465667,0 0.821267,-0.38947 0.364067,-0.38946 0.364067,-0.97366 0,-0.5588 -0.3302,-0.95674 -0.321734,-0.39793 -0.7874,-0.39793 -0.397934,0 -0.711201,0.28787 -0.313267,0.28786 -0.313267,0.6604 z m 3.462865,-0.97366 q 0,-1.13454 0.533401,-1.905 0.5334,-0.77047 1.261534,-0.77047 0.719666,0 1.253067,0.77047 0.541867,0.762 0.541867,1.91346 0,1.13454 -0.533401,1.905 -0.5334,0.77047 -1.261533,0.77047 -0.719667,0 -1.261534,-0.762 -0.533401,-0.77047 -0.533401,-1.92193 z m 0.584201,-0.0847 q 0,0.93133 0.3556,1.59173 0.3556,0.6604 0.855134,0.6604 0.499533,0 0.855133,-0.6604 0.3556,-0.6604 0.3556,-1.59173 0,-0.90593 -0.364066,-1.49013 -0.364067,-0.5842 -0.846667,-0.5842 -0.482601,0 -0.846667,0.59266 -0.364067,0.5842 -0.364067,1.48167 z m 3.793066,2.413 q 0,-0.254 0.347133,-0.254 h 0.855134 v -2.6162 h -0.855134 q -0.338667,0 -0.338667,-0.254 0,-0.26247 0.347134,-0.26247 h 0.846667 v -0.44873 q 0,-0.52493 0.389467,-0.82127 0.397933,-0.3048 0.9398,-0.3048 0.8128,0 0.8128,0.508 0,0.16934 -0.118533,0.27094 -0.110067,0.1016 -0.245533,0.1016 -0.135467,0 -0.2286,-0.0847 -0.08467,-0.0931 -0.118534,-0.16933 -0.0254,-0.0762 -0.0254,-0.11007 -0.143933,0 -0.245533,0.0169 -0.09313,0.008 -0.254,0.0677 -0.1524,0.0508 -0.237067,0.2032 -0.08467,0.14393 -0.08467,0.37253 v 0.39793 h 1.032934 q 0.1016,0 0.1524,0.008 0.05927,0.008 0.118533,0.0762 0.06773,0.0593 0.06773,0.1778 0,0.254 -0.338667,0.254 h -1.032934 v 2.6162 h 0.855134 q 0.347133,0 0.347133,0.26247 0,0.254 -0.347133,0.254 h -2.294468 q -0.347133,0 -0.347133,-0.26247 z M 65.89,113.32274 q 0,-0.18626 0.0762,-0.29633 l 1.930401,-3.03107 q 0.0762,-0.127 0.135466,-0.1524 0.05927,-0.0254 0.220134,-0.0254 h 0.237067 q 0.211666,0 0.2794,0.0677 0.06773,0.0677 0.06773,0.2794 v 2.98026 h 0.6604 q 0.1016,0 0.1524,0.008 0.05927,0.008 0.118534,0.0762 0.06773,0.0593 0.06773,0.1778 0,0.254 -0.338667,0.254 h -0.6604 v 0.9144 h 0.524934 q 0.1016,0 0.1524,0.008 0.05927,0.008 0.118533,0.0762 0.06773,0.0593 0.06773,0.1778 0,0.254 -0.338666,0.254 h -1.524001 q -0.338667,0 -0.338667,-0.254 0,-0.11854 0.05927,-0.1778 0.06773,-0.0677 0.118533,-0.0762 0.05927,-0.008 0.160867,-0.008 h 0.524934 v -0.9144 h -2.133601 q -0.2032,0 -0.270934,-0.0677 Q 65.89,113.52594 65.89,113.32274 Z m 0.592667,-0.1778 h 1.879601 v -2.95486 z m 4.055531,-1.59173 q 0,-0.74507 0.5334,-1.23613 0.5334,-0.49107 1.261534,-0.49107 0.321733,0 0.6096,0.127 0.296333,0.127 0.5588,0.41487 0.262467,0.2794 0.414867,0.82126 0.160867,0.5334 0.160867,1.26154 0,1.21073 -0.643467,1.97273 -0.643467,0.762 -1.515534,0.762 -0.381,0 -0.651934,-0.0931 -0.262466,-0.0931 -0.381,-0.24554 -0.110066,-0.1524 -0.160867,-0.2794 -0.04233,-0.127 -0.04233,-0.254 0,-0.18626 0.110067,-0.28786 0.110067,-0.11007 0.270933,-0.11007 0.160867,0 0.262467,0.11007 0.110067,0.11006 0.110067,0.26246 0,0.14394 -0.0762,0.23707 0.186266,0.14393 0.5588,0.14393 0.601134,0 1.0414,-0.54186 0.448734,-0.55034 0.516467,-1.3462 -0.541867,0.49106 -1.261534,0.49106 -0.702733,0 -1.1938,-0.49953 -0.4826,-0.49953 -0.4826,-1.2192 z m 0.5842,0 q 0,0.49107 0.313267,0.84667 0.321733,0.34713 0.821267,0.34713 0.508,0 0.829733,-0.28787 0.330201,-0.28786 0.330201,-0.6604 0,-0.0423 -0.01693,-0.13546 -0.01693,-0.1016 -0.01693,-0.11854 0,-0.0254 0,-0.0423 0.0085,-0.0254 0.0085,-0.0339 0,-0.0339 -0.03387,-0.1524 -0.03387,-0.11853 -0.110067,-0.29633 -0.0762,-0.18627 -0.1778,-0.31327 -0.287867,-0.36406 -0.7366,-0.36406 -0.4826,0 -0.846667,0.33866 -0.364067,0.33867 -0.364067,0.87207 z m 3.657599,1.76953 q 0,-0.18626 0.0762,-0.29633 l 1.930401,-3.03107 q 0.0762,-0.127 0.135467,-0.1524 0.05927,-0.0254 0.220133,-0.0254 h 0.237067 q 0.211667,0 0.2794,0.0677 0.06773,0.0677 0.06773,0.2794 v 2.98026 h 0.6604 q 0.1016,0 0.1524,0.008 0.05927,0.008 0.118533,0.0762 0.06773,0.0593 0.06773,0.1778 0,0.254 -0.338667,0.254 h -0.6604 v 0.9144 h 0.524933 q 0.1016,0 0.1524,0.008 0.05927,0.008 0.118534,0.0762 0.06773,0.0593 0.06773,0.1778 0,0.254 -0.338667,0.254 h -1.524001 q -0.338666,0 -0.338666,-0.254 0,-0.11854 0.05927,-0.1778 0.06773,-0.0677 0.118534,-0.0762 0.05927,-0.008 0.160866,-0.008 h 0.524934 v -0.9144 h -2.133601 q -0.2032,0 -0.270933,-0.0677 -0.06773,-0.0677 -0.06773,-0.27094 z m 0.592667,-0.1778 h 1.879601 v -2.95486 z m 4.030133,-0.64346 q 0,-1.13454 0.5334,-1.905 0.533401,-0.77047 1.261534,-0.77047 0.719667,0 1.253067,0.77047 0.541867,0.762 0.541867,1.91346 0,1.13454 -0.5334,1.905 -0.5334,0.77047 -1.261534,0.77047 -0.719667,0 -1.261534,-0.762 -0.5334,-0.77047 -0.5334,-1.92193 z m 0.5842,-0.0847 q 0,0.93133 0.355601,1.59173 0.3556,0.6604 0.855133,0.6604 0.499534,0 0.855134,-0.6604 0.3556,-0.6604 0.3556,-1.59173 0,-0.90593 -0.364067,-1.49013 -0.364067,-0.5842 -0.846667,-0.5842 -0.4826,0 -0.846667,0.59266 -0.364067,0.5842 -0.364067,1.48167 z"
       id="text15"
       style="font-size:8.46667px;font-family:'CMU Typewriter Text';-inkscape-font-specification:'CMU Typewriter Text';text-align:center;letter-spacing:0px;text-anchor:middle;stroke-width:3;stroke-linecap:round;stroke-linejoin:bevel;stroke-miterlimit:3.9;paint-order:fill markers stroke"
       aria-label="0xdb0f4940" />
    <path
       style="font-size:8.46667px;font-family:'CMU Serif';-inkscape-font-specification:'CMU Serif';text-align:center;letter-spacing:0px;text-anchor:middle;stroke-width:3;stroke-linecap:round;stroke-linejoin:bevel;stroke-miterlimit:3.9;paint-order:fill markers stroke"
       d="m 130.9934,139.71929 q 0,-0.254 0.14393,-0.37253 0.14394,-0.11854 0.3302,-0.11854 0.19474,0 0.3302,0.127 0.14394,0.127 0.14394,0.34714 0,0.23706 -0.16934,0.37253 -0.16086,0.127 -0.38946,0.0931 0.2032,0.33867 0.57573,0.49107 0.37253,0.1524 0.71967,0.1524 0.36406,0 0.6604,-0.31327 0.29633,-0.31326 0.29633,-1.08373 0,-0.65193 -0.254,-1.02447 -0.254,-0.381 -0.75353,-0.381 h -0.37254 q -0.127,0 -0.16933,-0.008 -0.0339,-0.0169 -0.0339,-0.0847 0,-0.0847 0.127,-0.1016 0.127,0 0.3302,-0.0254 0.49107,-0.0169 0.75354,-0.44027 0.23706,-0.39793 0.23706,-0.9652 0,-0.51647 -0.24553,-0.72813 -0.24553,-0.22014 -0.56727,-0.22014 -0.29633,0 -0.62653,0.127 -0.32173,0.11854 -0.49953,0.39794 0.52493,0 0.52493,0.42333 0,0.18627 -0.11853,0.31327 -0.11854,0.11853 -0.31327,0.11853 -0.18627,0 -0.31327,-0.11853 -0.11853,-0.11854 -0.11853,-0.32174 0,-0.4826 0.4318,-0.8128 0.4318,-0.33866 1.0668,-0.33866 0.62653,0 1.0922,0.3302 0.46567,0.3302 0.46567,0.8382 0,0.49953 -0.3302,0.9144 -0.3302,0.4064 -0.85514,0.57573 0.64347,0.127 1.02447,0.56727 0.38947,0.4318 0.38947,0.9652 0,0.6604 -0.52494,1.15147 -0.51646,0.4826 -1.27846,0.4826 -0.70274,0 -1.21074,-0.381 -0.49953,-0.381 -0.49953,-0.94827 z m 4.72439,1.00753 q -0.127,-0.13546 -0.127,-0.31326 0,-0.1778 0.127,-0.3048 0.127,-0.13547 0.32173,-0.13547 0.18627,0 0.31327,0.127 0.127,0.11853 0.127,0.31327 0,0.19473 -0.13547,0.32173 -0.13547,0.127 -0.3048,0.127 -0.19473,0 -0.32173,-0.13547 z m 2.2606,-4.699 v -0.26247 q 1.016,0 1.54093,-0.54186 0.14393,0 0.16933,0.0339 0.0254,0.0339 0.0254,0.18627 v 4.7498 q 0,0.254 0.11854,0.3302 0.127,0.0762 0.66886,0.0762 h 0.27094 v 0.26247 q -0.29634,-0.0254 -1.3716,-0.0254 -1.07527,0 -1.3716,0.0254 v -0.26247 h 0.27093 q 0.5334,0 0.6604,-0.0762 0.127,-0.0762 0.127,-0.3302 v -4.38573 q -0.44027,0.22013 -1.10913,0.22013 z m 3.71685,3.43747 v -0.26247 l 2.59926,-3.97087 q 0.0677,-0.1016 0.16934,-0.1016 0.0931,0 0.11006,0.0423 0.0254,0.0339 0.0254,0.1778 v 3.85233 h 0.84667 v 0.26247 h -0.84667 v 0.7366 q 0,0.24553 0.1016,0.32173 0.1016,0.0762 0.54187,0.0762 h 0.1778 v 0.26247 q -0.34713,-0.0254 -1.15147,-0.0254 -0.79586,0 -1.143,0.0254 v -0.26247 h 0.1778 q 0.44027,0 0.54187,-0.0762 0.1016,-0.0762 0.1016,-0.32173 v -0.7366 z m 0.23706,-0.26247 h 2.06587 v -3.15807 z m 4.51272,-3.175 v -0.26247 q 1.016,0 1.54094,-0.54186 0.14393,0 0.16933,0.0339 0.0254,0.0339 0.0254,0.18627 v 4.7498 q 0,0.254 0.11853,0.3302 0.127,0.0762 0.66887,0.0762 h 0.27093 v 0.26247 q -0.29633,-0.0254 -1.3716,-0.0254 -1.07526,0 -1.3716,0.0254 v -0.26247 h 0.27094 q 0.5334,0 0.6604,-0.0762 0.127,-0.0762 0.127,-0.3302 v -4.38573 q -0.44027,0.22013 -1.10914,0.22013 z m 3.90312,3.47134 q 0,-0.254 0.13547,-0.34714 0.13546,-0.1016 0.2794,-0.1016 0.19473,0 0.3048,0.127 0.11853,0.11854 0.11853,0.28787 0,0.16933 -0.11853,0.29633 -0.11007,0.11854 -0.3048,0.11854 -0.0931,0 -0.14394,-0.0169 0.11007,0.38947 0.44874,0.66887 0.34713,0.2794 0.79587,0.2794 0.56726,0 0.90593,-0.55033 0.2032,-0.3556 0.2032,-1.15994 0,-0.7112 -0.1524,-1.0668 -0.23707,-0.54187 -0.71967,-0.54187 -0.6858,0 -1.0922,0.59267 -0.0508,0.0762 -0.11007,0.0762 -0.0847,0 -0.1016,-0.0423 -0.0169,-0.0508 -0.0169,-0.1778 v -2.50614 q 0,-0.2032 0.0847,-0.2032 0.0339,0 0.1016,0.0254 0.5334,0.23707 1.12607,0.23707 0.6096,0 1.15146,-0.24553 0.0423,-0.0254 0.0677,-0.0254 0.0847,0 0.0847,0.0931 0,0.0339 -0.0677,0.13547 -0.0677,0.0931 -0.21167,0.22013 -0.14393,0.127 -0.3302,0.24553 -0.18626,0.11854 -0.4572,0.2032 -0.27093,0.0762 -0.56726,0.0762 -0.3556,0 -0.71967,-0.11006 v 1.651 q 0.44027,-0.4318 1.07527,-0.4318 0.67733,0 1.143,0.55033 0.46566,0.54187 0.46566,1.30387 0,0.79587 -0.55033,1.3462 -0.55033,0.54187 -1.2954,0.54187 -0.67733,0 -1.10914,-0.4826 -0.42333,-0.4826 -0.42333,-1.0668 z m 4.16559,-2.37067 q 0,-0.44874 0.127,-0.75354 0.13546,-0.31326 0.41486,-0.61806 0.508,-0.5334 1.2446,-0.5334 0.31327,0 0.59267,0.13546 0.2794,0.127 0.54187,0.4318 0.27093,0.29634 0.4318,0.889 0.16086,0.5842 0.16086,1.397 0,1.31234 -0.635,2.14207 -0.635,0.82974 -1.49013,0.82974 -0.54187,0 -0.8636,-0.24554 -0.31327,-0.24553 -0.31327,-0.66886 0,-0.22014 0.11854,-0.31327 0.127,-0.0931 0.27093,-0.0931 0.1524,0 0.27093,0.1016 0.11854,0.1016 0.11854,0.28786 0,0.1524 -0.1016,0.27094 -0.0931,0.11853 -0.33867,0.11853 0.24553,0.3048 0.82973,0.3048 0.21167,0 0.42334,-0.0931 0.21166,-0.1016 0.44026,-0.33867 0.2286,-0.23707 0.36407,-0.7366 0.14393,-0.49953 0.14393,-1.20227 v -0.27093 q -0.33866,0.84667 -1.05833,0.84667 -0.7112,0 -1.20227,-0.54187 -0.49106,-0.55034 -0.49106,-1.3462 z m 0.762,0.008 q 0,0.8382 0.1524,1.15147 0.26246,0.5334 0.7874,0.5334 0.51646,0 0.77046,-0.4572 0.26247,-0.46567 0.26247,-1.0668 0,-0.82973 -0.13547,-1.1938 -0.254,-0.66887 -0.8128,-0.66887 -0.5588,0 -0.84666,0.5334 -0.1778,0.31327 -0.1778,1.1684 z m 3.53905,3.72534 q 0,-0.1524 0.008,-0.19473 0.0169,-0.0508 0.0847,-0.11854 l 1.6256,-1.81186 q 0.889,-0.99907 0.889,-1.87114 0,-0.56727 -0.29633,-0.97367 -0.29633,-0.4064 -0.8382,-0.4064 -0.37253,0 -0.6858,0.2286 -0.31327,0.2286 -0.4572,0.635 0.0254,-0.008 0.11007,-0.008 0.21166,0 0.3302,0.13546 0.11853,0.127 0.11853,0.3048 0,0.2286 -0.1524,0.33867 -0.14393,0.11007 -0.28787,0.11007 -0.0593,0 -0.13546,-0.008 -0.0762,-0.0169 -0.19474,-0.13547 -0.11853,-0.11853 -0.11853,-0.3302 0,-0.59266 0.44873,-1.05833 0.44874,-0.47413 1.13454,-0.47413 0.77893,0 1.28693,0.46566 0.508,0.4572 0.508,1.17687 0,0.254 -0.0762,0.4826 -0.0762,0.2286 -0.1778,0.4064 -0.1016,0.1778 -0.37253,0.46567 -0.27094,0.2794 -0.49107,0.4826 -0.22013,0.2032 -0.7112,0.635 l -0.89747,0.87207 h 1.524 q 0.74507,0 0.80434,-0.0677 0.0847,-0.11853 0.18626,-0.75353 h 0.21167 l -0.23707,1.4732 z m 4.28412,-3.97934 0.2794,-1.74413 h 0.21167 q 0.0254,0.1016 0.0677,0.1524 0.0423,0.0423 0.2794,0.0847 0.24553,0.0339 0.7366,0.0339 h 2.0574 q 0,0.19474 -0.0762,0.29634 l -1.143,1.60866 q -0.36407,0.508 -0.52493,1.44781 -0.0931,0.62653 -0.0931,1.38853 v 0.4318 q 0,0.46567 -0.38946,0.46567 -0.38947,0 -0.38947,-0.46567 0,-1.61713 1.0414,-3.18347 0.11007,-0.16087 0.51647,-0.7366 0.41486,-0.57573 0.4318,-0.60113 h -1.7526 q -0.77047,0 -0.82974,0.0508 -0.0847,0.0762 -0.21166,0.77046 z m 3.99625,2.58234 v -0.26247 l 2.59927,-3.97087 q 0.0677,-0.1016 0.16933,-0.1016 0.0931,0 0.11007,0.0423 0.0254,0.0339 0.0254,0.1778 v 3.85233 h 0.84666 v 0.26247 h -0.84666 v 0.7366 q 0,0.24553 0.1016,0.32173 0.1016,0.0762 0.54186,0.0762 h 0.1778 v 0.26247 q -0.34713,-0.0254 -1.15146,-0.0254 -0.79587,0 -1.143,0.0254 v -0.26247 h 0.1778 q 0.44026,0 0.54186,-0.0762 0.1016,-0.0762 0.1016,-0.32173 v -0.7366 z m 0.23707,-0.26247 h 2.06586 v -3.15807 z m 4.51272,-3.175 v -0.26247 q 1.016,0 1.54093,-0.54186 0.14393,0 0.16933,0.0339 0.0254,0.0339 0.0254,0.18627 v 4.7498 q 0,0.254 0.11854,0.3302 0.127,0.0762 0.66886,0.0762 h 0.27094 v 0.26247 q -0.29634,-0.0254 -1.3716,-0.0254 -1.07527,0 -1.3716,0.0254 v -0.26247 h 0.27093 q 0.5334,0 0.6604,-0.0762 0.127,-0.0762 0.127,-0.3302 v -4.38573 q -0.44027,0.22013 -1.10913,0.22013 z m 3.80998,2.12514 q 0,-1.24461 0.31327,-1.92194 0.44026,-1.00753 1.4732,-1.00753 0.22013,0 0.44873,0.0593 0.2286,0.0593 0.51647,0.28787 0.29633,0.2286 0.47413,0.60113 0.33867,0.71967 0.33867,1.98121 0,1.23613 -0.31327,1.91346 -0.4572,0.98214 -1.4732,0.98214 -0.381,0 -0.77047,-0.19474 -0.381,-0.19473 -0.62653,-0.6604 -0.381,-0.70273 -0.381,-2.04046 z m 0.70273,-0.10161 q 0,1.27847 0.0931,1.78647 0.1016,0.55034 0.381,0.7874 0.28786,0.23707 0.60113,0.23707 0.33867,0 0.61807,-0.254 0.28786,-0.254 0.37253,-0.80433 0.0931,-0.54187 0.0931,-1.75261 0,-1.17686 -0.0847,-1.651 -0.11007,-0.55033 -0.4064,-0.77046 -0.29634,-0.22014 -0.59267,-0.22014 -0.11007,0 -0.2286,0.0339 -0.11853,0.0339 -0.28787,0.127 -0.16933,0.0931 -0.3048,0.3302 -0.127,0.23707 -0.18626,0.59267 -0.0677,0.4572 -0.0677,1.55786 z m 3.95392,-2.02353 v -0.26247 q 1.016,0 1.54094,-0.54186 0.14393,0 0.16933,0.0339 0.0254,0.0339 0.0254,0.18627 v 4.7498 q 0,0.254 0.11853,0.3302 0.127,0.0762 0.66887,0.0762 h 0.27093 v 0.26247 q -0.29633,-0.0254 -1.3716,-0.0254 -1.07526,0 -1.3716,0.0254 v -0.26247 h 0.27094 q 0.5334,0 0.6604,-0.0762 0.127,-0.0762 0.127,-0.3302 v -4.38573 q -0.44027,0.22013 -1.10914,0.22013 z m 3.90312,4.83447 q 0,-0.1524 0.008,-0.19473 0.0169,-0.0508 0.0847,-0.11854 l 1.6256,-1.81186 q 0.889,-0.99907 0.889,-1.87114 0,-0.56727 -0.29634,-0.97367 -0.29633,-0.4064 -0.8382,-0.4064 -0.37253,0 -0.6858,0.2286 -0.31326,0.2286 -0.4572,0.635 0.0254,-0.008 0.11007,-0.008 0.21167,0 0.3302,0.13546 0.11853,0.127 0.11853,0.3048 0,0.2286 -0.1524,0.33867 -0.14393,0.11007 -0.28786,0.11007 -0.0593,0 -0.13547,-0.008 -0.0762,-0.0169 -0.19473,-0.13547 -0.11854,-0.11853 -0.11854,-0.3302 0,-0.59266 0.44874,-1.05833 0.44873,-0.47413 1.13453,-0.47413 0.77893,0 1.28693,0.46566 0.50801,0.4572 0.50801,1.17687 0,0.254 -0.0762,0.4826 -0.0762,0.2286 -0.1778,0.4064 -0.10161,0.1778 -0.37254,0.46567 -0.27093,0.2794 -0.49107,0.4826 -0.22013,0.2032 -0.7112,0.635 l -0.89746,0.87207 h 1.524 q 0.74506,0 0.80433,-0.0677 0.0847,-0.11853 0.18627,-0.75353 h 0.21167 l -0.23707,1.4732 z m 4.23332,-1.36313 q 0,-0.254 0.13547,-0.34714 0.13547,-0.1016 0.2794,-0.1016 0.19473,0 0.3048,0.127 0.11853,0.11854 0.11853,0.28787 0,0.16933 -0.11853,0.29633 -0.11007,0.11854 -0.3048,0.11854 -0.0931,0 -0.14393,-0.0169 0.11006,0.38947 0.44873,0.66887 0.34713,0.2794 0.79587,0.2794 0.56726,0 0.90593,-0.55033 0.2032,-0.3556 0.2032,-1.15994 0,-0.7112 -0.1524,-1.0668 -0.23707,-0.54187 -0.71967,-0.54187 -0.6858,0 -1.0922,0.59267 -0.0508,0.0762 -0.11006,0.0762 -0.0847,0 -0.1016,-0.0423 -0.0169,-0.0508 -0.0169,-0.1778 v -2.50614 q 0,-0.2032 0.0847,-0.2032 0.0339,0 0.1016,0.0254 0.5334,0.23707 1.12607,0.23707 0.6096,0 1.15146,-0.24553 0.0423,-0.0254 0.0677,-0.0254 0.0847,0 0.0847,0.0931 0,0.0339 -0.0677,0.13547 -0.0677,0.0931 -0.21167,0.22013 -0.14393,0.127 -0.3302,0.24553 -0.18626,0.11854 -0.4572,0.2032 -0.27093,0.0762 -0.56726,0.0762 -0.3556,0 -0.71967,-0.11006 v 1.651 q 0.44027,-0.4318 1.07527,-0.4318 0.67733,0 1.143,0.55033 0.46566,0.54187 0.46566,1.30387 0,0.79587 -0.55033,1.3462 -0.55033,0.54187 -1.2954,0.54187 -0.67733,0 -1.10913,-0.4826 -0.42334,-0.4826 -0.42334,-1.0668 z m 4.28412,-2.61621 0.2794,-1.74413 h 0.21167 q 0.0254,0.1016 0.0677,0.1524 0.0423,0.0423 0.2794,0.0847 0.24553,0.0339 0.7366,0.0339 h 2.0574 q 0,0.19474 -0.0762,0.29634 l -1.143,1.60866 q -0.36407,0.508 -0.52493,1.44781 -0.0931,0.62653 -0.0931,1.38853 v 0.4318 q 0,0.46567 -0.38946,0.46567 -0.38947,0 -0.38947,-0.46567 0,-1.61713 1.0414,-3.18347 0.11007,-0.16087 0.51647,-0.7366 0.41486,-0.57573 0.4318,-0.60113 h -1.7526 q -0.77047,0 -0.82974,0.0508 -0.0847,0.0762 -0.21166,0.77046 z m 4.11479,2.83634 q 0,-0.254 0.14393,-0.37253 0.14393,-0.11854 0.3302,-0.11854 0.19473,0 0.3302,0.127 0.14393,0.127 0.14393,0.34714 0,0.23706 -0.16933,0.37253 -0.16087,0.127 -0.38947,0.0931 0.2032,0.33867 0.57574,0.49107 0.37253,0.1524 0.71966,0.1524 0.36407,0 0.6604,-0.31327 0.29634,-0.31326 0.29634,-1.08373 0,-0.65193 -0.254,-1.02447 -0.254,-0.381 -0.75354,-0.381 h -0.37253 q -0.127,0 -0.16933,-0.008 -0.0339,-0.0169 -0.0339,-0.0847 0,-0.0847 0.127,-0.1016 0.127,0 0.3302,-0.0254 0.49107,-0.0169 0.75353,-0.44027 0.23707,-0.39793 0.23707,-0.9652 0,-0.51647 -0.24553,-0.72813 -0.24554,-0.22014 -0.56727,-0.22014 -0.29633,0 -0.62653,0.127 -0.32174,0.11854 -0.49954,0.39794 0.52494,0 0.52494,0.42333 0,0.18627 -0.11854,0.31327 -0.11853,0.11853 -0.31326,0.11853 -0.18627,0 -0.31327,-0.11853 -0.11853,-0.11854 -0.11853,-0.32174 0,-0.4826 0.4318,-0.8128 0.4318,-0.33866 1.0668,-0.33866 0.62653,0 1.0922,0.3302 0.46566,0.3302 0.46566,0.8382 0,0.49953 -0.3302,0.9144 -0.3302,0.4064 -0.85513,0.57573 0.64347,0.127 1.02447,0.56727 0.38946,0.4318 0.38946,0.9652 0,0.6604 -0.52493,1.15147 -0.51647,0.4826 -1.27847,0.4826 -0.70273,0 -1.21073,-0.381 -0.49953,-0.381 -0.49953,-0.94827 z m 4.30105,1.143 q 0,-0.1524 0.008,-0.19473 0.0169,-0.0508 0.0847,-0.11854 l 1.6256,-1.81186 q 0.88901,-0.99907 0.88901,-1.87114 0,-0.56727 -0.29634,-0.97367 -0.29633,-0.4064 -0.8382,-0.4064 -0.37253,0 -0.6858,0.2286 -0.31327,0.2286 -0.4572,0.635 0.0254,-0.008 0.11007,-0.008 0.21166,0 0.3302,0.13546 0.11853,0.127 0.11853,0.3048 0,0.2286 -0.1524,0.33867 -0.14393,0.11007 -0.28787,0.11007 -0.0593,0 -0.13546,-0.008 -0.0762,-0.0169 -0.19474,-0.13547 -0.11853,-0.11853 -0.11853,-0.3302 0,-0.59266 0.44873,-1.05833 0.44874,-0.47413 1.13454,-0.47413 0.77893,0 1.28693,0.46566 0.508,0.4572 0.508,1.17687 0,0.254 -0.0762,0.4826 -0.0762,0.2286 -0.1778,0.4064 -0.1016,0.1778 -0.37253,0.46567 -0.27093,0.2794 -0.49107,0.4826 -0.22013,0.2032 -0.7112,0.635 l -0.89747,0.87207 h 1.52401 q 0.74506,0 0.80433,-0.0677 0.0847,-0.11853 0.18627,-0.75353 h 0.21166 l -0.23706,1.4732 z m 4.04705,-1.397 v -0.26247 l 2.59927,-3.97087 q 0.0677,-0.1016 0.16933,-0.1016 0.0931,0 0.11007,0.0423 0.0254,0.0339 0.0254,0.1778 v 3.85233 h 0.84666 v 0.26247 h -0.84666 v 0.7366 q 0,0.24553 0.1016,0.32173 0.1016,0.0762 0.54186,0.0762 h 0.1778 v 0.26247 q -0.34713,-0.0254 -1.15146,-0.0254 -0.79587,0 -1.143,0.0254 v -0.26247 h 0.1778 q 0.44026,0 0.54186,-0.0762 0.1016,-0.0762 0.1016,-0.32173 v -0.7366 z m 0.23707,-0.26247 h 2.06586 v -3.15807 z m 4.18252,1.65947 q 0,-0.1524 0.008,-0.19473 0.0169,-0.0508 0.0847,-0.11854 l 1.6256,-1.81186 q 0.889,-0.99907 0.889,-1.87114 0,-0.56727 -0.29633,-0.97367 -0.29633,-0.4064 -0.8382,-0.4064 -0.37254,0 -0.6858,0.2286 -0.31327,0.2286 -0.4572,0.635 0.0254,-0.008 0.11006,-0.008 0.21167,0 0.3302,0.13546 0.11854,0.127 0.11854,0.3048 0,0.2286 -0.1524,0.33867 -0.14394,0.11007 -0.28787,0.11007 -0.0593,0 -0.13547,-0.008 -0.0762,-0.0169 -0.19473,-0.13547 -0.11853,-0.11853 -0.11853,-0.3302 0,-0.59266 0.44873,-1.05833 0.44873,-0.47413 1.13453,-0.47413 0.77894,0 1.28694,0.46566 0.508,0.4572 0.508,1.17687 0,0.254 -0.0762,0.4826 -0.0762,0.2286 -0.1778,0.4064 -0.1016,0.1778 -0.37253,0.46567 -0.27094,0.2794 -0.49107,0.4826 -0.22013,0.2032 -0.7112,0.635 l -0.89747,0.87207 h 1.524 q 0.74507,0 0.80434,-0.0677 0.0847,-0.11853 0.18626,-0.75353 h 0.21167 l -0.23707,1.4732 z m 4.56351,-4.83447 v -0.26247 q 1.016,0 1.54094,-0.54186 0.14393,0 0.16933,0.0339 0.0254,0.0339 0.0254,0.18627 v 4.7498 q 0,0.254 0.11853,0.3302 0.127,0.0762 0.66887,0.0762 h 0.27093 v 0.26247 q -0.29633,-0.0254 -1.3716,-0.0254 -1.07526,0 -1.3716,0.0254 v -0.26247 h 0.27094 q 0.5334,0 0.6604,-0.0762 0.127,-0.0762 0.127,-0.3302 v -4.38573 q -0.44027,0.22013 -1.10914,0.22013 z m 3.83539,3.556 q 0,-0.94826 1.2192,-1.55787 -0.52493,-0.3556 -0.61807,-0.4572 -0.37253,-0.41486 -0.37253,-0.93133 0,-0.59267 0.44873,-0.99907 0.44874,-0.41486 1.08374,-0.41486 0.6096,0 1.0668,0.3556 0.4572,0.34713 0.4572,0.90593 0,0.7874 -1.02447,1.31233 0.67734,0.42334 0.8382,0.60114 0.41487,0.4572 0.41487,1.0414 0,0.67733 -0.52493,1.143 -0.51647,0.46567 -1.23614,0.46567 -0.70273,0 -1.22767,-0.4064 -0.52493,-0.41487 -0.52493,-1.05834 z m 0.42333,0 q 0,0.52494 0.38947,0.88054 0.39793,0.34713 0.94827,0.34713 0.5334,0 0.93133,-0.3048 0.39794,-0.3048 0.39794,-0.762 0,-0.1778 -0.0593,-0.3302 -0.0593,-0.1524 -0.1778,-0.27093 -0.11853,-0.127 -0.19473,-0.1778 -0.0677,-0.0593 -0.2032,-0.1524 l -1.04141,-0.6604 q -0.9906,0.55033 -0.9906,1.43086 z m 0.1778,-3.2766 q 0,0.4064 0.42334,0.6858 l 1.04987,0.67733 q 0.8382,-0.49106 0.8382,-1.18533 0,-0.44873 -0.34714,-0.74507 -0.33866,-0.3048 -0.8128,-0.3048 -0.46567,0 -0.8128,0.24554 -0.33867,0.24553 -0.33867,0.62653 z m 3.75072,0.57573 0.2794,-1.74413 h 0.21167 q 0.0254,0.1016 0.0677,0.1524 0.0423,0.0423 0.2794,0.0847 0.24553,0.0339 0.7366,0.0339 h 2.0574 q 0,0.19474 -0.0762,0.29634 l -1.143,1.60866 q -0.36407,0.508 -0.52493,1.44781 -0.0931,0.62653 -0.0931,1.38853 v 0.4318 q 0,0.46567 -0.38946,0.46567 -0.38947,0 -0.38947,-0.46567 0,-1.61713 1.0414,-3.18347 0.11007,-0.16087 0.51647,-0.7366 0.41486,-0.57573 0.4318,-0.60113 h -1.7526 q -0.77047,0 -0.82974,0.0508 -0.0847,0.0762 -0.21166,0.77046 z m 4.18252,2.61621 q 0,-0.254 0.13547,-0.34714 0.13546,-0.1016 0.2794,-0.1016 0.19473,0 0.3048,0.127 0.11853,0.11854 0.11853,0.28787 0,0.16933 -0.11853,0.29633 -0.11007,0.11854 -0.3048,0.11854 -0.0931,0 -0.14394,-0.0169 0.11007,0.38947 0.44874,0.66887 0.34713,0.2794 0.79586,0.2794 0.56727,0 0.90594,-0.55033 0.2032,-0.3556 0.2032,-1.15994 0,-0.7112 -0.1524,-1.0668 -0.23707,-0.54187 -0.71967,-0.54187 -0.6858,0 -1.0922,0.59267 -0.0508,0.0762 -0.11007,0.0762 -0.0847,0 -0.1016,-0.0423 -0.0169,-0.0508 -0.0169,-0.1778 v -2.50614 q 0,-0.2032 0.0847,-0.2032 0.0339,0 0.1016,0.0254 0.5334,0.23707 1.12606,0.23707 0.60961,0 1.15147,-0.24553 0.0423,-0.0254 0.0677,-0.0254 0.0847,0 0.0847,0.0931 0,0.0339 -0.0677,0.13547 -0.0677,0.0931 -0.21167,0.22013 -0.14393,0.127 -0.3302,0.24553 -0.18626,0.11854 -0.4572,0.2032 -0.27093,0.0762 -0.56727,0.0762 -0.3556,0 -0.71966,-0.11006 v 1.651 q 0.44026,-0.4318 1.07526,-0.4318 0.67734,0 1.14301,0.55033 0.46566,0.54187 0.46566,1.30387 0,0.79587 -0.55033,1.3462 -0.55033,0.54187 -1.2954,0.54187 -0.67734,0 -1.10914,-0.4826 -0.42333,-0.4826 -0.42333,-1.0668 z"
       id="text16"
       aria-label="3.1415927410125732421875" />
    <g
       id="text18"
       style="font-size:8.46667px;font-family:'CMU Typewriter Text';-inkscape-font-specification:'CMU Typewriter Text';text-align:center;letter-spacing:0px;text-anchor:middle;stroke-width:3;stroke-linecap:round;stroke-linejoin:bevel;stroke-miterlimit:3.9;paint-order:fill markers stroke"
       aria-label="−4.03314608964×1016">
      <path
         style="font-family:'CMU Serif';-inkscape-font-specification:'CMU Serif'"
         d="m 140.70461,112.98408 q 0,-0.1016 0.16933,-0.1016 h 5.19007 q 0.008,0 0.0423,0 0.0423,0 0.0508,0 0.0169,0 0.0423,0 0.0339,0 0.0423,0.008 0.0169,0.008 0.0339,0.0169 0.0169,0.008 0.0254,0.0254 0.008,0.0169 0.008,0.0423 0,0.1016 -0.22014,0.1016 h -0.0169 q -0.0254,0 -0.0762,0 -0.0423,-0.008 -0.0677,-0.008 h -4.76674 q -0.0339,0 -0.1016,0.008 -0.0593,0 -0.0931,0 h -0.0423 q -0.22013,0 -0.22013,-0.0931 z m 6.34153,0.7112 v -0.26247 l 2.59927,-3.97087 q 0.0677,-0.1016 0.16934,-0.1016 0.0931,0 0.11006,0.0423 0.0254,0.0339 0.0254,0.1778 v 3.85233 h 0.84667 v 0.26247 h -0.84667 v 0.7366 q 0,0.24553 0.1016,0.32173 0.1016,0.0762 0.54187,0.0762 h 0.1778 v 0.26247 q -0.34713,-0.0254 -1.15147,-0.0254 -0.79586,0 -1.143,0.0254 v -0.26247 h 0.1778 q 0.44027,0 0.54187,-0.0762 0.1016,-0.0762 0.1016,-0.32173 v -0.7366 z m 0.23707,-0.26247 h 2.06587 v -3.15807 z m 4.60585,1.524 q -0.127,-0.13547 -0.127,-0.31327 0,-0.1778 0.127,-0.3048 0.127,-0.13546 0.32174,-0.13546 0.18626,0 0.31326,0.127 0.127,0.11853 0.127,0.31326 0,0.19474 -0.13546,0.32174 -0.13547,0.127 -0.3048,0.127 -0.19474,0 -0.32174,-0.13547 z m 1.83727,-2.57387 q 0,-1.2446 0.31327,-1.92193 0.44026,-1.00753 1.4732,-1.00753 0.22013,0 0.44873,0.0593 0.2286,0.0593 0.51647,0.28787 0.29633,0.2286 0.47413,0.60113 0.33867,0.71967 0.33867,1.9812 0,1.23614 -0.31327,1.91347 -0.4572,0.98213 -1.4732,0.98213 -0.381,0 -0.77047,-0.19473 -0.381,-0.19473 -0.62653,-0.6604 -0.381,-0.70273 -0.381,-2.04047 z m 0.70273,-0.1016 q 0,1.27847 0.0931,1.78647 0.1016,0.55033 0.381,0.7874 0.28786,0.23707 0.60113,0.23707 0.33867,0 0.61807,-0.254 0.28786,-0.254 0.37253,-0.80434 0.0931,-0.54186 0.0931,-1.7526 0,-1.17686 -0.0847,-1.651 -0.11007,-0.55033 -0.4064,-0.77046 -0.29634,-0.22014 -0.59267,-0.22014 -0.11007,0 -0.2286,0.0339 -0.11853,0.0339 -0.28787,0.127 -0.16933,0.0931 -0.3048,0.3302 -0.127,0.23707 -0.18626,0.59267 -0.0677,0.4572 -0.0677,1.55786 z m 3.55599,1.66794 q 0,-0.254 0.14393,-0.37254 0.14394,-0.11853 0.3302,-0.11853 0.19474,0 0.3302,0.127 0.14394,0.127 0.14394,0.34713 0,0.23707 -0.16934,0.37254 -0.16086,0.127 -0.38946,0.0931 0.2032,0.33867 0.57573,0.49107 0.37253,0.1524 0.71967,0.1524 0.36406,0 0.6604,-0.31327 0.29633,-0.31327 0.29633,-1.08373 0,-0.65194 -0.254,-1.02447 -0.254,-0.381 -0.75353,-0.381 h -0.37254 q -0.127,0 -0.16933,-0.008 -0.0339,-0.0169 -0.0339,-0.0847 0,-0.0847 0.127,-0.1016 0.127,0 0.3302,-0.0254 0.49107,-0.0169 0.75354,-0.44027 0.23706,-0.39793 0.23706,-0.9652 0,-0.51647 -0.24553,-0.72813 -0.24553,-0.22014 -0.56727,-0.22014 -0.29633,0 -0.62653,0.127 -0.32173,0.11854 -0.49953,0.39794 0.52493,0 0.52493,0.42333 0,0.18627 -0.11853,0.31327 -0.11854,0.11853 -0.31327,0.11853 -0.18627,0 -0.31327,-0.11853 -0.11853,-0.11854 -0.11853,-0.32174 0,-0.4826 0.4318,-0.8128 0.4318,-0.33866 1.0668,-0.33866 0.62653,0 1.0922,0.3302 0.46567,0.3302 0.46567,0.8382 0,0.49953 -0.3302,0.9144 -0.3302,0.4064 -0.85514,0.57573 0.64347,0.127 1.02447,0.56727 0.38947,0.4318 0.38947,0.9652 0,0.6604 -0.52494,1.15146 -0.51646,0.4826 -1.27846,0.4826 -0.70274,0 -1.21074,-0.381 -0.49953,-0.381 -0.49953,-0.94826 z m 4.23332,0 q 0,-0.254 0.14393,-0.37254 0.14394,-0.11853 0.3302,-0.11853 0.19474,0 0.3302,0.127 0.14394,0.127 0.14394,0.34713 0,0.23707 -0.16934,0.37254 -0.16086,0.127 -0.38946,0.0931 0.2032,0.33867 0.57573,0.49107 0.37253,0.1524 0.71967,0.1524 0.36406,0 0.6604,-0.31327 0.29633,-0.31327 0.29633,-1.08373 0,-0.65194 -0.254,-1.02447 -0.254,-0.381 -0.75353,-0.381 h -0.37254 q -0.127,0 -0.16933,-0.008 -0.0339,-0.0169 -0.0339,-0.0847 0,-0.0847 0.127,-0.1016 0.127,0 0.3302,-0.0254 0.49107,-0.0169 0.75354,-0.44027 0.23706,-0.39793 0.23706,-0.9652 0,-0.51647 -0.24553,-0.72813 -0.24553,-0.22014 -0.56727,-0.22014 -0.29633,0 -0.62653,0.127 -0.32173,0.11854 -0.49953,0.39794 0.52493,0 0.52493,0.42333 0,0.18627 -0.11853,0.31327 -0.11854,0.11853 -0.31327,0.11853 -0.18627,0 -0.31327,-0.11853 -0.11853,-0.11854 -0.11853,-0.32174 0,-0.4826 0.4318,-0.8128 0.4318,-0.33866 1.0668,-0.33866 0.62653,0 1.0922,0.3302 0.46567,0.3302 0.46567,0.8382 0,0.49953 -0.3302,0.9144 -0.3302,0.4064 -0.85514,0.57573 0.64347,0.127 1.02447,0.56727 0.38947,0.4318 0.38947,0.9652 0,0.6604 -0.52494,1.15146 -0.51646,0.4826 -1.27846,0.4826 -0.70274,0 -1.21074,-0.381 -0.49953,-0.381 -0.49953,-0.94826 z m 4.63125,-3.69147 v -0.26247 q 1.016,0 1.54093,-0.54186 0.14394,0 0.16934,0.0339 0.0254,0.0339 0.0254,0.18627 v 4.7498 q 0,0.254 0.11853,0.3302 0.127,0.0762 0.66887,0.0762 h 0.27093 v 0.26247 q -0.29633,-0.0254 -1.3716,-0.0254 -1.07527,0 -1.3716,0.0254 v -0.26247 h 0.27093 q 0.5334,0 0.6604,-0.0762 0.127,-0.0762 0.127,-0.3302 v -4.38573 q -0.44026,0.22013 -1.10913,0.22013 z m 3.71685,3.43747 v -0.26247 l 2.59927,-3.97087 q 0.0677,-0.1016 0.16933,-0.1016 0.0931,0 0.11007,0.0423 0.0254,0.0339 0.0254,0.1778 v 3.85233 h 0.84667 v 0.26247 h -0.84667 v 0.7366 q 0,0.24553 0.1016,0.32173 0.1016,0.0762 0.54187,0.0762 h 0.1778 v 0.26247 q -0.34714,-0.0254 -1.15147,-0.0254 -0.79587,0 -1.143,0.0254 v -0.26247 h 0.1778 q 0.44027,0 0.54187,-0.0762 0.1016,-0.0762 0.1016,-0.32173 v -0.7366 z m 0.23707,-0.26247 h 2.06587 v -3.15807 z m 4.11478,-1.016 q 0,-1.32927 0.67734,-2.14207 0.67733,-0.82126 1.5494,-0.82126 0.508,0 0.7874,0.26246 0.28787,0.254 0.28787,0.65194 0,0.22013 -0.127,0.31326 -0.127,0.0931 -0.26247,0.0931 -0.1524,0 -0.27094,-0.1016 -0.11853,-0.1016 -0.11853,-0.28787 0,-0.381 0.46567,-0.381 -0.22014,-0.33867 -0.74507,-0.33867 -0.16087,0 -0.3302,0.0508 -0.16087,0.0423 -0.381,0.2032 -0.21167,0.1524 -0.381,0.4064 -0.16087,0.24554 -0.2794,0.7112 -0.11007,0.46567 -0.11007,1.07527 v 0.2032 q 0.34714,-0.8382 1.05834,-0.8382 0.7112,0 1.20226,0.54187 0.49107,0.54186 0.49107,1.3462 0,0.82126 -0.51647,1.3716 -0.508,0.54186 -1.22766,0.54186 -0.32174,0 -0.61807,-0.13546 -0.28787,-0.13547 -0.5588,-0.44027 -0.27093,-0.3048 -0.4318,-0.889 -0.16087,-0.59267 -0.16087,-1.397 z m 0.77894,0.762 q 0,0.82973 0.1524,1.22767 0.0254,0.0677 0.0762,0.16086 0.0593,0.0847 0.1524,0.2032 0.1016,0.11854 0.26246,0.19474 0.16087,0.0762 0.34714,0.0762 0.56726,0 0.8382,-0.55034 0.14393,-0.3048 0.14393,-1.13453 0,-0.84667 -0.1524,-1.15993 -0.26247,-0.52494 -0.7874,-0.52494 -0.3556,0 -0.60113,0.24554 -0.24554,0.24553 -0.33867,0.57573 -0.0931,0.32173 -0.0931,0.6858 z m 3.42898,-0.79587 q 0,-1.2446 0.31327,-1.92193 0.44027,-1.00753 1.4732,-1.00753 0.22013,0 0.44873,0.0593 0.2286,0.0593 0.51647,0.28787 0.29633,0.2286 0.47413,0.60113 0.33867,0.71967 0.33867,1.9812 0,1.23614 -0.31327,1.91347 -0.4572,0.98213 -1.4732,0.98213 -0.381,0 -0.77046,-0.19473 -0.381,-0.19473 -0.62654,-0.6604 -0.381,-0.70273 -0.381,-2.04047 z m 0.70274,-0.1016 q 0,1.27847 0.0931,1.78647 0.1016,0.55033 0.381,0.7874 0.28787,0.23707 0.60113,0.23707 0.33867,0 0.61807,-0.254 0.28787,-0.254 0.37253,-0.80434 0.0931,-0.54186 0.0931,-1.7526 0,-1.17686 -0.0847,-1.651 -0.11007,-0.55033 -0.4064,-0.77046 -0.29633,-0.22014 -0.59267,-0.22014 -0.11006,0 -0.2286,0.0339 -0.11853,0.0339 -0.28786,0.127 -0.16934,0.0931 -0.3048,0.3302 -0.127,0.23707 -0.18627,0.59267 -0.0677,0.4572 -0.0677,1.55786 z m 3.55598,1.53247 q 0,-0.94827 1.2192,-1.55787 -0.52493,-0.3556 -0.61807,-0.4572 -0.37253,-0.41486 -0.37253,-0.93133 0,-0.59267 0.44873,-0.99907 0.44874,-0.41486 1.08374,-0.41486 0.6096,0 1.0668,0.3556 0.4572,0.34713 0.4572,0.90593 0,0.7874 -1.02447,1.31233 0.67733,0.42334 0.8382,0.60114 0.41487,0.4572 0.41487,1.0414 0,0.67733 -0.52494,1.143 -0.51646,0.46566 -1.23613,0.46566 -0.70273,0 -1.22767,-0.4064 -0.52493,-0.41486 -0.52493,-1.05833 z m 0.42333,0 q 0,0.52493 0.38947,0.88053 0.39793,0.34714 0.94827,0.34714 0.5334,0 0.93133,-0.3048 0.39794,-0.3048 0.39794,-0.762 0,-0.1778 -0.0593,-0.3302 -0.0593,-0.1524 -0.1778,-0.27094 -0.11854,-0.127 -0.19474,-0.1778 -0.0677,-0.0593 -0.2032,-0.1524 l -1.0414,-0.6604 q -0.9906,0.55034 -0.9906,1.43087 z m 0.1778,-3.2766 q 0,0.4064 0.42334,0.6858 l 1.04986,0.67733 q 0.8382,-0.49106 0.8382,-1.18533 0,-0.44873 -0.34713,-0.74507 -0.33867,-0.3048 -0.8128,-0.3048 -0.46567,0 -0.8128,0.24554 -0.33867,0.24553 -0.33867,0.62653 z m 3.63219,0.82127 q 0,-0.44874 0.127,-0.75354 0.13547,-0.31326 0.41487,-0.61806 0.508,-0.5334 1.2446,-0.5334 0.31327,0 0.59267,0.13546 0.2794,0.127 0.54186,0.4318 0.27094,0.29634 0.4318,0.889 0.16087,0.5842 0.16087,1.397 0,1.31234 -0.635,2.14207 -0.635,0.82973 -1.49013,0.82973 -0.54187,0 -0.8636,-0.24553 -0.31327,-0.24553 -0.31327,-0.66887 0,-0.22013 0.11853,-0.31326 0.127,-0.0931 0.27094,-0.0931 0.1524,0 0.27093,0.1016 0.11853,0.1016 0.11853,0.28787 0,0.1524 -0.1016,0.27093 -0.0931,0.11854 -0.33866,0.11854 0.24553,0.3048 0.82973,0.3048 0.21167,0 0.42333,-0.0931 0.21167,-0.1016 0.44027,-0.33866 0.2286,-0.23707 0.36407,-0.7366 0.14393,-0.49954 0.14393,-1.20227 v -0.27093 q -0.33867,0.84666 -1.05833,0.84666 -0.7112,0 -1.20227,-0.54186 -0.49107,-0.55034 -0.49107,-1.3462 z m 0.762,0.008 q 0,0.8382 0.1524,1.15147 0.26247,0.5334 0.7874,0.5334 0.51647,0 0.77047,-0.4572 0.26247,-0.46567 0.26247,-1.0668 0,-0.82973 -0.13547,-1.1938 -0.254,-0.66887 -0.8128,-0.66887 -0.5588,0 -0.84667,0.5334 -0.1778,0.31327 -0.1778,1.1684 z m 3.47132,1.04987 q 0,-1.32927 0.67733,-2.14207 0.67734,-0.82126 1.54941,-0.82126 0.508,0 0.7874,0.26246 0.28786,0.254 0.28786,0.65194 0,0.22013 -0.127,0.31326 -0.127,0.0931 -0.26246,0.0931 -0.1524,0 -0.27094,-0.1016 -0.11853,-0.1016 -0.11853,-0.28787 0,-0.381 0.46567,-0.381 -0.22014,-0.33867 -0.74507,-0.33867 -0.16087,0 -0.3302,0.0508 -0.16087,0.0423 -0.381,0.2032 -0.21167,0.1524 -0.381,0.4064 -0.16087,0.24554 -0.2794,0.7112 -0.11007,0.46567 -0.11007,1.07527 v 0.2032 q 0.34713,-0.8382 1.05833,-0.8382 0.71121,0 1.20227,0.54187 0.49107,0.54186 0.49107,1.3462 0,0.82126 -0.51647,1.3716 -0.508,0.54186 -1.22767,0.54186 -0.32173,0 -0.61806,-0.13546 -0.28787,-0.13547 -0.5588,-0.44027 -0.27094,-0.3048 -0.4318,-0.889 -0.16087,-0.59267 -0.16087,-1.397 z m 0.77893,0.762 q 0,0.82973 0.1524,1.22767 0.0254,0.0677 0.0762,0.16086 0.0593,0.0847 0.1524,0.2032 0.1016,0.11854 0.26247,0.19474 0.16087,0.0762 0.34713,0.0762 0.56727,0 0.83821,-0.55034 0.14393,-0.3048 0.14393,-1.13453 0,-0.84667 -0.1524,-1.15993 -0.26247,-0.52494 -0.7874,-0.52494 -0.3556,0 -0.60114,0.24554 -0.24553,0.24553 -0.33866,0.57573 -0.0931,0.32173 -0.0931,0.6858 z m 3.33586,0.51647 v -0.26247 l 2.59926,-3.97087 q 0.0677,-0.1016 0.16934,-0.1016 0.0931,0 0.11006,0.0423 0.0254,0.0339 0.0254,0.1778 v 3.85233 h 0.84667 v 0.26247 h -0.84667 v 0.7366 q 0,0.24553 0.1016,0.32173 0.1016,0.0762 0.54187,0.0762 h 0.1778 v 0.26247 q -0.34713,-0.0254 -1.15147,-0.0254 -0.79586,0 -1.143,0.0254 v -0.26247 h 0.1778 q 0.44027,0 0.54187,-0.0762 0.1016,-0.0762 0.1016,-0.32173 v -0.7366 z m 0.23706,-0.26247 h 2.06587 v -3.15807 z m 5.01225,-2.32833 q 0,-0.0677 0.0508,-0.11007 0.0508,-0.0508 0.0931,-0.0508 h 0.0254 q 0.0762,0 0.24553,0.16933 l 1.6256,1.6256 1.6256,-1.6256 q 0.16934,-0.16933 0.24554,-0.16933 0.0762,0 0.11006,0.0508 0.0423,0.0508 0.0423,0.1016 0.008,0.0847 -0.18627,0.28787 -0.19473,0.2032 -1.6002,1.59173 l 1.6002,1.6002 q 0.18627,0.18627 0.18627,0.28787 0,0.0508 -0.0423,0.1016 -0.0423,0.0423 -0.11006,0.0423 -0.0847,0 -0.254,-0.16933 l -1.6256,-1.6256 -1.58327,1.59173 q -0.0169,0.0169 -0.0677,0.0677 -0.0423,0.0423 -0.0762,0.0677 -0.0254,0.0169 -0.0677,0.0423 -0.0423,0.0254 -0.0762,0.0254 -0.0593,0 -0.11007,-0.0423 -0.0423,-0.0508 -0.0423,-0.11854 0,-0.0847 0.16933,-0.26246 0.1778,-0.18627 1.61714,-1.60867 l -1.59174,-1.6002 q -0.008,-0.008 -0.0593,-0.0508 -0.0508,-0.0508 -0.0762,-0.0762 -0.0169,-0.0254 -0.0423,-0.0677 -0.0254,-0.0423 -0.0254,-0.0762 z m 6.08754,-0.84667 v -0.26247 q 1.016,0 1.54094,-0.54186 0.14393,0 0.16933,0.0339 0.0254,0.0339 0.0254,0.18627 v 4.7498 q 0,0.254 0.11853,0.3302 0.127,0.0762 0.66887,0.0762 h 0.27093 v 0.26247 q -0.29633,-0.0254 -1.3716,-0.0254 -1.07526,0 -1.3716,0.0254 v -0.26247 h 0.27094 q 0.5334,0 0.6604,-0.0762 0.127,-0.0762 0.127,-0.3302 v -4.38573 q -0.44027,0.22013 -1.10914,0.22013 z m 3.80998,2.12513 q 0,-1.2446 0.31327,-1.92193 0.44027,-1.00753 1.4732,-1.00753 0.22013,0 0.44873,0.0593 0.2286,0.0593 0.51647,0.28787 0.29633,0.2286 0.47413,0.60113 0.33867,0.71967 0.33867,1.9812 0,1.23614 -0.31327,1.91347 -0.4572,0.98213 -1.4732,0.98213 -0.381,0 -0.77046,-0.19473 -0.381,-0.19473 -0.62654,-0.6604 -0.381,-0.70273 -0.381,-2.04047 z m 0.70274,-0.1016 q 0,1.27847 0.0931,1.78647 0.1016,0.55033 0.381,0.7874 0.28787,0.23707 0.60113,0.23707 0.33867,0 0.61807,-0.254 0.28787,-0.254 0.37253,-0.80434 0.0931,-0.54186 0.0931,-1.7526 0,-1.17686 -0.0847,-1.651 -0.11007,-0.55033 -0.4064,-0.77046 -0.29633,-0.22014 -0.59267,-0.22014 -0.11006,0 -0.2286,0.0339 -0.11853,0.0339 -0.28786,0.127 -0.16934,0.0931 -0.3048,0.3302 -0.127,0.23707 -0.18627,0.59267 -0.0677,0.4572 -0.0677,1.55786 z"
         id="path18" />
      <path
         style="font-size:65%;baseline-shift:super"
         d="m 215.50614,108.56321 v -0.17061 q 0.6604,0 1.00161,-0.35221 0.0936,0 0.11007,0.022 0.0165,0.022 0.0165,0.12107 v 3.08738 q 0,0.1651 0.077,0.21463 0.0826,0.0495 0.43477,0.0495 h 0.1761 v 0.1706 q -0.19261,-0.0165 -0.89154,-0.0165 -0.69892,0 -0.89154,0.0165 v -0.1706 h 0.17611 q 0.34671,0 0.42926,-0.0495 0.0825,-0.0495 0.0825,-0.21463 v -2.85073 q -0.28618,0.14309 -0.72094,0.14309 z m 2.493,1.40335 q 0,-0.86403 0.44027,-1.39235 0.44026,-0.53382 1.00711,-0.53382 0.3302,0 0.51181,0.1706 0.18711,0.1651 0.18711,0.42376 0,0.14309 -0.0825,0.20362 -0.0825,0.0605 -0.1706,0.0605 -0.0991,0 -0.17611,-0.066 -0.0771,-0.066 -0.0771,-0.18711 0,-0.24766 0.30269,-0.24766 -0.14309,-0.22013 -0.4843,-0.22013 -0.10456,0 -0.21463,0.033 -0.10456,0.0275 -0.24765,0.13208 -0.13758,0.0991 -0.24765,0.26416 -0.10456,0.1596 -0.18161,0.46228 -0.0715,0.30269 -0.0715,0.69893 v 0.13208 q 0.22564,-0.54483 0.68792,-0.54483 0.46228,0 0.78147,0.35221 0.31919,0.35221 0.31919,0.87503 0,0.53382 -0.3357,0.89154 -0.3302,0.35221 -0.79798,0.35221 -0.20913,0 -0.40175,-0.088 -0.18711,-0.088 -0.36322,-0.28617 -0.1761,-0.19812 -0.28067,-0.57785 -0.10456,-0.38524 -0.10456,-0.90805 z m 0.50631,0.4953 q 0,0.53932 0.0991,0.79798 0.0165,0.044 0.0495,0.10456 0.0385,0.055 0.0991,0.13208 0.066,0.077 0.1706,0.12658 0.10456,0.0495 0.22564,0.0495 0.36872,0 0.54483,-0.35772 0.0935,-0.19812 0.0935,-0.73744 0,-0.55034 -0.0991,-0.75396 -0.1706,-0.34121 -0.51181,-0.34121 -0.23114,0 -0.39073,0.1596 -0.1596,0.1596 -0.22014,0.37423 -0.0605,0.20912 -0.0605,0.44577 z"
         id="path19" />
    </g>
  </g>
</svg>
