<?xml version="1.0" encoding="UTF-8" standalone="no"?>
<!-- Created with Inkscape (http://www.inkscape.org/) -->

<svg
   width="200.98096mm"
   height="99.29657mm"
   viewBox="0 0 200.98096 99.29657"
   version="1.1"
   id="svg1"
   inkscape:version="1.3 (0e150ed, 2023-07-21)"
   sodipodi:docname="job_steps.svg"
   xmlns:inkscape="http://www.inkscape.org/namespaces/inkscape"
   xmlns:sodipodi="http://sodipodi.sourceforge.net/DTD/sodipodi-0.dtd"
   xmlns="http://www.w3.org/2000/svg"
   xmlns:svg="http://www.w3.org/2000/svg">
  <sodipodi:namedview
     id="namedview1"
     pagecolor="#ffffff"
     bordercolor="#000000"
     borderopacity="0.25"
     inkscape:showpageshadow="2"
     inkscape:pageopacity="0.0"
     inkscape:pagecheckerboard="0"
     inkscape:deskcolor="#d1d1d1"
     inkscape:document-units="mm"
     inkscape:zoom="1.174711"
     inkscape:cx="366.89875"
     inkscape:cy="232.39759"
     inkscape:window-width="1920"
     inkscape:window-height="1027"
     inkscape:window-x="0"
     inkscape:window-y="29"
     inkscape:window-maximized="0"
     inkscape:current-layer="g35" />
  <defs
     id="defs1">
    <marker
       style="overflow:visible"
       id="marker2"
       refX="0"
       refY="0"
       orient="auto-start-reverse"
       inkscape:stockid="Concave triangle arrow"
       markerWidth="1"
       markerHeight="1"
       viewBox="0 0 1 1"
       inkscape:isstock="true"
       inkscape:collect="always"
       preserveAspectRatio="xMidYMid">
      <path
         transform="scale(0.7)"
         d="M -2,-4 9,0 -2,4 c 2,-2.33 2,-5.66 0,-8 z"
         style="fill:context-stroke;fill-rule:evenodd;stroke:none"
         id="path2" />
    </marker>
    <marker
       style="overflow:visible"
       id="ConcaveTriangle"
       refX="0"
       refY="0"
       orient="auto-start-reverse"
       inkscape:stockid="Concave triangle arrow"
       markerWidth="1"
       markerHeight="1"
       viewBox="0 0 1 1"
       inkscape:isstock="true"
       inkscape:collect="always"
       preserveAspectRatio="xMidYMid">
      <path
         transform="scale(0.7)"
         d="M -2,-4 9,0 -2,4 c 2,-2.33 2,-5.66 0,-8 z"
         style="fill:context-stroke;fill-rule:evenodd;stroke:none"
         id="path7" />
    </marker>
  </defs>
  <g
     inkscape:label="Layer 1"
     inkscape:groupmode="layer"
     id="layer1"
     transform="translate(9.8854957,-66.947915)">
    <path
       style="fill:none;stroke:#000000;stroke-width:1;stroke-linecap:square;stroke-linejoin:bevel;stroke-miterlimit:3.9;marker-start:url(#marker2);marker-end:url(#ConcaveTriangle);paint-order:markers stroke fill"
       d="M 27.927567,82.722161 V 154.13189 H 178.87784"
       id="path1" />
    <rect
       style="fill:none;stroke:#000000;stroke-width:1;stroke-linecap:square;stroke-linejoin:bevel;stroke-miterlimit:3.9;paint-order:markers stroke fill"
       id="rect3"
       width="37.613861"
       height="11.486856"
       x="33.784904"
       y="137.61717"
       ry="1.2817559" />
    <rect
       style="fill:none;stroke:#000000;stroke-width:1;stroke-linecap:square;stroke-linejoin:bevel;stroke-miterlimit:3.9;paint-order:markers stroke fill"
       id="rect6"
       width="37.613861"
       height="11.486856"
       x="86.489357"
       y="137.61717"
       ry="1.2817559" />
    <rect
       style="fill:none;stroke:#000000;stroke-width:1;stroke-linecap:square;stroke-linejoin:bevel;stroke-miterlimit:3.9;paint-order:markers stroke fill"
       id="rect7"
       width="37.613861"
       height="11.486856"
       x="147.97789"
       y="137.61717"
       ry="1.2817559" />
    <rect
       style="fill:none;stroke:#000000;stroke-width:1;stroke-linecap:square;stroke-linejoin:bevel;stroke-miterlimit:3.9;paint-order:markers stroke fill"
       id="rect8"
       width="37.613861"
       height="11.486856"
       x="33.784904"
       y="118.24716"
       ry="1.2817559" />
    <rect
       style="fill:none;stroke:#000000;stroke-width:1;stroke-linecap:square;stroke-linejoin:bevel;stroke-miterlimit:3.9;paint-order:markers stroke fill"
       id="rect9"
       width="37.613861"
       height="11.486856"
       x="79.281914"
       y="118.24716"
       ry="1.2817559" />
    <rect
       style="fill:none;stroke:#000000;stroke-width:1;stroke-linecap:square;stroke-linejoin:bevel;stroke-miterlimit:3.9;paint-order:markers stroke fill"
       id="rect10"
       width="37.613861"
       height="11.486856"
       x="152.70778"
       y="118.24716"
       ry="1.2817559" />
    <rect
       style="fill:none;stroke:#000000;stroke-width:1;stroke-linecap:square;stroke-linejoin:bevel;stroke-miterlimit:3.9;paint-order:markers stroke fill"
       id="rect11"
       width="18.469082"
       height="11.486855"
       x="33.784904"
       y="98.201454"
       ry="1.2817559" />
    <rect
       style="fill:none;stroke:#000000;stroke-width:1;stroke-linecap:square;stroke-linejoin:bevel;stroke-miterlimit:3.9;paint-order:markers stroke fill"
       id="rect12"
       width="40.091427"
       height="11.486855"
       x="61.71376"
       y="98.201454"
       ry="1.2817559" />
    <rect
       style="fill:none;stroke:#000000;stroke-width:1;stroke-linecap:square;stroke-linejoin:bevel;stroke-miterlimit:3.9;paint-order:markers stroke fill"
       id="rect13"
       width="40.091427"
       height="11.486855"
       x="112.16589"
       y="98.201454"
       ry="1.2817559" />
  </g>
  <g
     inkscape:groupmode="layer"
     id="layer5"
     inkscape:label="text"
     style="display:none">
    <text
       xml:space="preserve"
       style="font-size:8.46667px;font-family:'CMU Serif';-inkscape-font-specification:'CMU Serif';text-align:center;letter-spacing:0px;text-anchor:middle;fill:#000000;stroke:none;stroke-width:1;stroke-linecap:square;stroke-linejoin:bevel;stroke-miterlimit:3.9;paint-order:markers stroke fill"
       x="181.70593"
       y="166.15135"
       id="text2"
       transform="translate(9.8854956,-66.947915)"><tspan
         sodipodi:role="line"
         id="tspan2"
         style="font-size:8.46667px;fill:#000000;stroke:none;stroke-width:1"
         x="181.70593"
         y="166.15135">Time</tspan></text>
    <text
       xml:space="preserve"
       style="font-size:8.46667px;font-family:'CMU Serif';-inkscape-font-specification:'CMU Serif';text-align:center;letter-spacing:0px;text-anchor:middle;fill:#000000;stroke:none;stroke-width:1;stroke-linecap:square;stroke-linejoin:bevel;stroke-miterlimit:3.9;paint-order:markers stroke fill"
       x="27.927555"
       y="72.823784"
       id="text3"
       transform="translate(9.8854956,-66.947915)"><tspan
         sodipodi:role="line"
         id="tspan3"
         style="font-size:8.46667px;fill:#000000;stroke:none;stroke-width:1"
         x="27.927555"
         y="72.823784">Ensemble</tspan></text>
    <text
       xml:space="preserve"
       style="font-size:8.46667px;font-family:'CMU Serif';-inkscape-font-specification:'CMU Serif';text-align:end;letter-spacing:0px;text-anchor:end;fill:#000000;stroke:none;stroke-width:1;stroke-linecap:square;stroke-linejoin:bevel;stroke-miterlimit:3.9;paint-order:markers stroke fill"
       x="23.032806"
       y="125.86609"
       id="text4"
       transform="translate(9.8854956,-66.947915)"><tspan
         sodipodi:role="line"
         id="tspan4"
         style="font-size:8.46667px;text-align:end;text-anchor:end;fill:#000000;stroke:none;stroke-width:1"
         x="23.032808"
         y="125.86609">Stream 2</tspan></text>
    <text
       xml:space="preserve"
       style="font-size:8.46667px;font-family:'CMU Serif';-inkscape-font-specification:'CMU Serif';text-align:end;letter-spacing:0px;text-anchor:end;fill:#000000;stroke:none;stroke-width:1;stroke-linecap:square;stroke-linejoin:bevel;stroke-miterlimit:3.9;paint-order:markers stroke fill"
       x="23.032806"
       y="146.47488"
       id="text5"
       transform="translate(9.8854956,-66.947915)"><tspan
         sodipodi:role="line"
         id="tspan5"
         style="font-size:8.46667px;text-align:end;text-anchor:end;fill:#000000;stroke:none;stroke-width:1"
         x="23.032808"
         y="146.47488">Stream 3</tspan></text>
    <text
       xml:space="preserve"
       style="font-size:8.46667px;font-family:'CMU Serif';-inkscape-font-specification:'CMU Serif';text-align:end;letter-spacing:0px;text-anchor:end;fill:#000000;stroke:none;stroke-width:1;stroke-linecap:square;stroke-linejoin:bevel;stroke-miterlimit:3.9;paint-order:markers stroke fill"
       x="23.032806"
       y="105.2573"
       id="text6"
       transform="translate(9.8854956,-66.947915)"><tspan
         sodipodi:role="line"
         id="tspan6"
         style="font-size:8.46667px;text-align:end;text-anchor:end;fill:#000000;stroke:none;stroke-width:1"
         x="23.032808"
         y="105.2573">Stream 1</tspan></text>
    <text
       xml:space="preserve"
       style="font-size:7.05556px;font-family:'CMU Serif';-inkscape-font-specification:'CMU Serif';text-align:center;letter-spacing:0px;text-anchor:middle;fill:#000000;stroke:none;stroke-width:1;stroke-linecap:square;stroke-linejoin:bevel;stroke-miterlimit:3.9;paint-order:markers stroke fill"
       x="52.384392"
       y="146.08687"
       id="text13"
       transform="translate(9.8854956,-66.947915)"><tspan
         sodipodi:role="line"
         id="tspan13"
         style="font-size:7.05556px;text-align:center;text-anchor:middle;fill:#000000;stroke:none;stroke-width:1"
         x="52.384392"
         y="146.08687">10002</tspan></text>
    <text
       xml:space="preserve"
       style="font-size:7.05556px;font-family:'CMU Serif';-inkscape-font-specification:'CMU Serif';text-align:center;letter-spacing:0px;text-anchor:middle;fill:#000000;stroke:none;stroke-width:1;stroke-linecap:square;stroke-linejoin:bevel;stroke-miterlimit:3.9;paint-order:markers stroke fill"
       x="42.85857"
       y="106.67115"
       id="text14"
       transform="translate(9.8854956,-66.947915)"><tspan
         sodipodi:role="line"
         id="tspan14"
         style="font-size:7.05556px;text-align:center;text-anchor:middle;fill:#000000;stroke:none;stroke-width:1"
         x="42.85857"
         y="106.67115">10000</tspan></text>
    <text
       xml:space="preserve"
       style="font-size:7.05556px;font-family:'CMU Serif';-inkscape-font-specification:'CMU Serif';text-align:center;letter-spacing:0px;text-anchor:middle;fill:#000000;stroke:none;stroke-width:1;stroke-linecap:square;stroke-linejoin:bevel;stroke-miterlimit:3.9;paint-order:markers stroke fill"
       x="52.418968"
       y="126.26248"
       id="text15"
       transform="translate(9.8854956,-66.947915)"><tspan
         sodipodi:role="line"
         id="tspan15"
         style="font-size:7.05556px;text-align:center;text-anchor:middle;fill:#000000;stroke:none;stroke-width:1"
         x="52.418968"
         y="126.26248">10001</tspan></text>
    <text
       xml:space="preserve"
       style="font-size:7.05556px;font-family:'CMU Serif';-inkscape-font-specification:'CMU Serif';text-align:center;letter-spacing:0px;text-anchor:middle;fill:#000000;stroke:none;stroke-width:1;stroke-linecap:square;stroke-linejoin:bevel;stroke-miterlimit:3.9;paint-order:markers stroke fill"
       x="81.625412"
       y="106.21677"
       id="text16"
       transform="translate(9.8854956,-66.947915)"><tspan
         sodipodi:role="line"
         id="tspan16"
         style="font-size:7.05556px;text-align:center;text-anchor:middle;fill:#000000;stroke:none;stroke-width:1"
         x="81.625412"
         y="106.21677">10034</tspan></text>
    <text
       xml:space="preserve"
       style="font-size:7.05556px;font-family:'CMU Serif';-inkscape-font-specification:'CMU Serif';text-align:center;letter-spacing:0px;text-anchor:middle;fill:#000000;stroke:none;stroke-width:1;stroke-linecap:square;stroke-linejoin:bevel;stroke-miterlimit:3.9;paint-order:markers stroke fill"
       x="97.877167"
       y="126.30128"
       id="text17"
       transform="translate(9.8854956,-66.947915)"><tspan
         sodipodi:role="line"
         id="tspan17"
         style="font-size:7.05556px;text-align:center;text-anchor:middle;fill:#000000;stroke:none;stroke-width:1"
         x="97.877167"
         y="126.30128">10057</tspan></text>
    <text
       xml:space="preserve"
       style="font-size:7.05556px;font-family:'CMU Serif';-inkscape-font-specification:'CMU Serif';text-align:center;letter-spacing:0px;text-anchor:middle;fill:#000000;stroke:none;stroke-width:1;stroke-linecap:square;stroke-linejoin:bevel;stroke-miterlimit:3.9;paint-order:markers stroke fill"
       x="105.03522"
       y="145.66777"
       id="text18"
       transform="translate(9.8854956,-66.947915)"><tspan
         sodipodi:role="line"
         id="tspan18"
         style="font-size:7.05556px;text-align:center;text-anchor:middle;fill:#000000;stroke:none;stroke-width:1"
         x="105.03522"
         y="145.66777">10070</tspan></text>
    <text
       xml:space="preserve"
       style="font-size:7.05556px;font-family:'CMU Serif';-inkscape-font-specification:'CMU Serif';text-align:center;letter-spacing:0px;text-anchor:middle;fill:#000000;stroke:none;stroke-width:1;stroke-linecap:square;stroke-linejoin:bevel;stroke-miterlimit:3.9;paint-order:markers stroke fill"
       x="132.03874"
       y="106.25205"
       id="text19"
       transform="translate(9.8854956,-66.947915)"><tspan
         sodipodi:role="line"
         id="tspan19"
         style="font-size:7.05556px;text-align:center;text-anchor:middle;fill:#000000;stroke:none;stroke-width:1"
         x="132.03874"
         y="106.25205">10087</tspan></text>
    <text
       xml:space="preserve"
       style="font-size:7.05556px;font-family:'CMU Serif';-inkscape-font-specification:'CMU Serif';text-align:center;letter-spacing:0px;text-anchor:middle;fill:#000000;stroke:none;stroke-width:1;stroke-linecap:square;stroke-linejoin:bevel;stroke-miterlimit:3.9;paint-order:markers stroke fill"
       x="166.52376"
       y="145.66777"
       id="text20"
       transform="translate(9.8854956,-66.947915)"><tspan
         sodipodi:role="line"
         id="tspan20"
         style="font-size:7.05556px;text-align:center;text-anchor:middle;fill:#000000;stroke:none;stroke-width:1"
         x="166.52376"
         y="145.66777">101021</tspan></text>
    <text
       xml:space="preserve"
       style="font-size:7.05556px;font-family:'CMU Serif';-inkscape-font-specification:'CMU Serif';text-align:center;letter-spacing:0px;text-anchor:middle;fill:#000000;stroke:none;stroke-width:1;stroke-linecap:square;stroke-linejoin:bevel;stroke-miterlimit:3.9;paint-order:markers stroke fill"
       x="171.48648"
       y="126.26248"
       id="text21"
       transform="translate(9.8854956,-66.947915)"><tspan
         sodipodi:role="line"
         id="tspan21"
         style="font-size:7.05556px;text-align:center;text-anchor:middle;fill:#000000;stroke:none;stroke-width:1"
         x="171.48648"
         y="126.26248">101028</tspan></text>
  </g>
  <g
     inkscape:groupmode="layer"
     id="g35"
     inkscape:label="text copy">
    <path
       d="m 172.37569,162.32442 0.16087,-1.905 h 5.17313 l 0.16087,1.905 h -0.21167 q -0.0339,-0.381 -0.0677,-0.60114 -0.0254,-0.22013 -0.1016,-0.42333 -0.0677,-0.21167 -0.16087,-0.31327 -0.0847,-0.1016 -0.254,-0.1778 -0.16933,-0.0847 -0.38946,-0.1016 -0.22014,-0.0254 -0.55034,-0.0254 -0.38946,0 -0.4826,0.0169 -0.1016,0.0254 -0.127,0.1016 -0.0254,0.0677 -0.0254,0.22013 v 4.46193 q 0,0.16934 0.0339,0.23707 0.0339,0.0677 0.2286,0.11854 0.19473,0.0508 0.62653,0.0508 h 0.33867 v 0.26246 q -0.34713,-0.0254 -1.60867,-0.0254 -1.25307,0 -1.6002,0.0254 v -0.26246 h 0.33867 q 0.4318,0 0.62653,-0.0508 0.19473,-0.0508 0.2286,-0.11854 0.0339,-0.0677 0.0339,-0.23707 v -4.46193 q 0,-0.11853 -0.008,-0.16933 -0.008,-0.0508 -0.0508,-0.0931 -0.0339,-0.0423 -0.11853,-0.0593 -0.0847,-0.0169 -0.4572,-0.0169 -0.3302,0 -0.55034,0.0254 -0.22013,0.0169 -0.38946,0.1016 -0.16934,0.0762 -0.26247,0.1778 -0.0847,0.1016 -0.16087,0.31327 -0.0677,0.2032 -0.1016,0.42333 -0.0254,0.22014 -0.0593,0.60114 z m 6.08752,3.82693 v -0.26246 q 0.44873,0 0.55033,-0.0508 0.11007,-0.0593 0.11007,-0.3302 v -2.27754 q 0,-0.31327 -0.11007,-0.38947 -0.1016,-0.0762 -0.51646,-0.0762 v -0.26246 l 1.18533,-0.0931 v 3.10727 q 0,0.254 0.0847,0.31327 0.0931,0.0593 0.508,0.0593 v 0.26246 q -0.8636,-0.0254 -0.88054,-0.0254 -0.11853,0 -0.93133,0.0254 z m 0.3556,-5.21547 q 0,-0.16933 0.127,-0.3048 0.13547,-0.14393 0.32173,-0.14393 0.18627,0 0.31327,0.127 0.13547,0.127 0.13547,0.32173 0,0.19474 -0.13547,0.32174 -0.127,0.127 -0.31327,0.127 -0.19473,0 -0.32173,-0.13547 -0.127,-0.13547 -0.127,-0.31327 z m 1.98119,5.21547 v -0.26246 q 0.44873,0 0.55033,-0.0508 0.11007,-0.0593 0.11007,-0.3302 v -2.26907 q 0,-0.31327 -0.11007,-0.38947 -0.11006,-0.0847 -0.55033,-0.0847 v -0.26246 l 1.1938,-0.0931 v 0.889 q 0.39793,-0.889 1.25307,-0.889 0.9906,0 1.12606,0.82974 0.14394,-0.32174 0.44874,-0.57574 0.3048,-0.254 0.77893,-0.254 0.635,0 0.889,0.31327 0.18627,0.21167 0.22014,0.44873 0.0423,0.23707 0.0423,0.84667 v 1.61714 q 0.008,0.1778 0.14393,0.22013 0.13547,0.0339 0.51647,0.0339 v 0.26246 q -0.8636,-0.0254 -0.94827,-0.0254 -0.0677,0 -0.95673,0.0254 v -0.26246 q 0.44873,0 0.55033,-0.0508 0.11007,-0.0593 0.11007,-0.3302 v -1.97274 q 0,-0.4318 -0.13547,-0.6858 -0.127,-0.254 -0.49107,-0.254 -0.44026,0 -0.79586,0.37253 -0.34714,0.36407 -0.34714,0.98214 v 1.55787 q 0,0.27093 0.1016,0.3302 0.11007,0.0508 0.5588,0.0508 v 0.26246 q -0.8636,-0.0254 -0.94826,-0.0254 -0.0677,0 -0.95674,0.0254 v -0.26246 q 0.44874,0 0.55034,-0.0508 0.11006,-0.0593 0.11006,-0.3302 v -1.97274 q 0,-0.4318 -0.13546,-0.6858 -0.127,-0.254 -0.49107,-0.254 -0.44027,0 -0.79587,0.37253 -0.34713,0.36407 -0.34713,0.98214 v 1.55787 q 0,0.27093 0.1016,0.3302 0.11007,0.0508 0.5588,0.0508 v 0.26246 q -0.8636,-0.0254 -0.94827,-0.0254 -0.0677,0 -0.95673,0.0254 z m 7.01885,-1.86267 q 0,-0.79586 0.508,-1.36313 0.51647,-0.56727 1.25307,-0.56727 0.74507,0 1.12607,0.4826 0.38947,0.4826 0.38947,1.17687 0,0.127 -0.0339,0.1524 -0.0339,0.0254 -0.1778,0.0254 h -2.3622 q 0,0.8636 0.254,1.27 0.3556,0.56727 0.95673,0.56727 0.0847,0 0.1778,-0.0169 0.1016,-0.0169 0.3048,-0.0847 0.2032,-0.0762 0.381,-0.27093 0.1778,-0.19474 0.2794,-0.49954 0.0254,-0.11853 0.11007,-0.11853 0.11007,0 0.11007,0.1016 0,0.0762 -0.0847,0.24553 -0.0762,0.16087 -0.2286,0.36407 -0.1524,0.19473 -0.44873,0.34713 -0.29634,0.14394 -0.65194,0.14394 -0.74506,0 -1.30387,-0.5588 -0.5588,-0.56727 -0.5588,-1.39701 z m 0.7112,-0.27093 h 2.00661 q 0,-0.1778 -0.0339,-0.37253 -0.0254,-0.2032 -0.11853,-0.47414 -0.0847,-0.2794 -0.29634,-0.44873 -0.2032,-0.1778 -0.508,-0.1778 -0.13546,0 -0.28786,0.0593 -0.14394,0.0593 -0.32174,0.2032 -0.1778,0.13546 -0.3048,0.4572 -0.11853,0.31326 -0.13547,0.75353 z"
       id="text22"
       style="font-size:8.46667px;font-family:'CMU Serif';-inkscape-font-specification:'CMU Serif';text-align:center;letter-spacing:0px;text-anchor:middle;stroke-linecap:square;stroke-linejoin:bevel;stroke-miterlimit:3.9;paint-order:markers stroke fill"
       transform="translate(9.8854956,-66.947915)"
       aria-label="Time" />
    <path
       d="m 10.621741,72.823784 v -0.262467 h 0.2032 q 0.4572,0 0.5588,-0.0762 0.110067,-0.0762 0.110067,-0.321733 v -4.436535 q 0,-0.245534 -0.110067,-0.321734 -0.1016,-0.0762 -0.5588,-0.0762 h -0.2032 v -0.262467 h 4.766735 l 0.237067,1.905001 h -0.211667 q -0.05927,-0.4826 -0.135467,-0.762 -0.0762,-0.2794 -0.262466,-0.491067 -0.1778,-0.220134 -0.482601,-0.3048 -0.296333,-0.08467 -0.778933,-0.08467 h -1.092201 q -0.287866,0 -0.3556,0.05927 -0.05927,0.05927 -0.05927,0.2794 v 2.032001 h 0.762 q 0.5842,0 0.745067,-0.2032 0.169333,-0.203201 0.169333,-0.787401 h 0.211667 v 2.243668 h -0.211667 q 0,-0.575734 -0.169333,-0.778934 -0.160867,-0.211667 -0.745067,-0.211667 h -0.762 v 2.260601 q 0,0.220134 0.05927,0.2794 0.06773,0.05927 0.3556,0.05927 h 1.126067 q 0.364067,0 0.626534,-0.04233 0.270934,-0.0508 0.4572,-0.169334 0.186267,-0.118533 0.313267,-0.254 0.127,-0.135466 0.211667,-0.381 0.09313,-0.245533 0.143933,-0.474133 0.0508,-0.228601 0.110067,-0.601134 h 0.211667 l -0.3556,2.184401 z m 5.748855,0 v -0.262467 q 0.448734,0 0.550334,-0.0508 0.110066,-0.05927 0.110066,-0.3302 v -2.269068 q 0,-0.313266 -0.110066,-0.389466 -0.110067,-0.08467 -0.550334,-0.08467 v -0.262467 l 1.193801,-0.09313 v 0.889 q 0.397933,-0.889 1.253067,-0.889 0.635,0 0.889,0.313267 0.186267,0.211666 0.220133,0.448733 0.04233,0.237067 0.04233,0.846667 v 1.617134 q 0.0085,0.1778 0.143933,0.220133 0.135467,0.03387 0.516467,0.03387 v 0.262467 q -0.8636,-0.0254 -0.948267,-0.0254 -0.06773,0 -0.956734,0.0254 v -0.262467 q 0.448734,0 0.550334,-0.0508 0.110067,-0.05927 0.110067,-0.3302 v -1.972734 q 0,-0.4318 -0.135467,-0.6858 -0.127,-0.254001 -0.491067,-0.254001 -0.440267,0 -0.795867,0.372534 -0.347133,0.364067 -0.347133,0.982134 v 1.557867 q 0,0.270933 0.1016,0.3302 0.110066,0.0508 0.5588,0.0508 v 0.262467 q -0.863601,-0.0254 -0.948267,-0.0254 -0.06773,0 -0.956734,0.0254 z m 4.707455,-0.110067 v -1.1176 q 0,-0.09313 0,-0.127 0.0085,-0.03387 0.03387,-0.05927 0.0254,-0.0254 0.0762,-0.0254 0.05927,0 0.0762,0.0254 0.0254,0.0254 0.04233,0.118533 0.127,0.584201 0.397934,0.897467 0.2794,0.304801 0.778933,0.304801 0.474134,0 0.711201,-0.211667 0.245533,-0.211667 0.245533,-0.5588 0,-0.618067 -0.880534,-0.778934 -0.508,-0.1016 -0.719667,-0.169334 -0.211666,-0.06773 -0.397933,-0.220133 -0.364067,-0.296333 -0.364067,-0.719667 0,-0.423333 0.321734,-0.728134 0.321733,-0.313266 1.032933,-0.313266 0.474134,0 0.795867,0.237066 0.09313,-0.0762 0.143934,-0.135466 0.110066,-0.1016 0.169333,-0.1016 0.06773,0 0.0762,0.04233 0.01693,0.04233 0.01693,0.160867 v 0.855133 q 0,0.09313 -0.0085,0.127001 0,0.03387 -0.0254,0.05927 -0.0254,0.01693 -0.0762,0.01693 -0.09313,0 -0.1016,-0.0762 -0.06773,-1.024468 -0.990601,-1.024468 -0.499533,0 -0.728133,0.194734 -0.220134,0.186267 -0.220134,0.448733 0,0.143934 0.06773,0.254 0.06773,0.110067 0.1524,0.177801 0.09313,0.05927 0.254,0.118533 0.169333,0.05927 0.270933,0.08467 0.1016,0.01693 0.296334,0.05927 0.677333,0.127 0.9652,0.4064 0.3556,0.355601 0.3556,0.804334 0,0.499534 -0.338667,0.8382 -0.338666,0.338667 -1.024467,0.338667 -0.550333,0 -0.931333,-0.364067 -0.0508,0.0508 -0.09313,0.09313 -0.03387,0.04233 -0.0508,0.05927 -0.0085,0.01693 -0.01693,0.0254 0,0.0085 -0.0085,0.01693 -0.169333,0.169333 -0.211666,0.169333 -0.06773,0 -0.08467,-0.04233 -0.0085,-0.04233 -0.0085,-0.160867 z m 3.293527,-1.752601 q 0,-0.795867 0.508,-1.363133 0.516467,-0.567267 1.253067,-0.567267 0.745067,0 1.126068,0.4826 0.389466,0.4826 0.389466,1.176867 0,0.127 -0.03387,0.1524 -0.03387,0.0254 -0.1778,0.0254 h -2.362201 q 0,0.8636 0.254,1.270001 0.3556,0.567266 0.956733,0.567266 0.08467,0 0.177801,-0.01693 0.1016,-0.01693 0.3048,-0.08467 0.2032,-0.0762 0.381,-0.270933 0.1778,-0.194733 0.2794,-0.499534 0.0254,-0.118533 0.110067,-0.118533 0.110066,0 0.110066,0.1016 0,0.0762 -0.08467,0.245534 -0.0762,0.160866 -0.2286,0.364066 -0.1524,0.194734 -0.448734,0.347134 -0.296333,0.143933 -0.651934,0.143933 -0.745066,0 -1.303867,-0.5588 -0.5588,-0.567267 -0.5588,-1.397001 z m 0.7112,-0.270933 h 2.006601 q 0,-0.1778 -0.03387,-0.372533 -0.0254,-0.203201 -0.118533,-0.474134 -0.08467,-0.2794 -0.296333,-0.448733 -0.2032,-0.177801 -0.508001,-0.177801 -0.135466,0 -0.287866,0.05927 -0.143934,0.05927 -0.321734,0.2032 -0.1778,0.135467 -0.3048,0.4572 -0.118533,0.313267 -0.135467,0.753534 z m 3.081853,2.133601 v -0.262467 q 0.448734,0 0.550334,-0.0508 0.110067,-0.05927 0.110067,-0.3302 v -2.269068 q 0,-0.313266 -0.110067,-0.389466 -0.110067,-0.08467 -0.550334,-0.08467 v -0.262467 l 1.193801,-0.09313 v 0.889 q 0.397933,-0.889 1.253067,-0.889 0.990601,0 1.126067,0.829733 0.143934,-0.321733 0.448734,-0.575733 0.3048,-0.254 0.778933,-0.254 0.635001,0 0.889001,0.313267 0.186266,0.211666 0.220133,0.448733 0.04233,0.237067 0.04233,0.846667 v 1.617134 q 0.0085,0.1778 0.143933,0.220133 0.135467,0.03387 0.516467,0.03387 v 0.262467 q -0.863601,-0.0254 -0.948267,-0.0254 -0.06773,0 -0.956734,0.0254 v -0.262467 q 0.448734,0 0.550334,-0.0508 0.110066,-0.05927 0.110066,-0.3302 v -1.972734 q 0,-0.4318 -0.135466,-0.6858 -0.127,-0.254001 -0.491067,-0.254001 -0.440267,0 -0.795867,0.372534 -0.347134,0.364067 -0.347134,0.982134 v 1.557867 q 0,0.270933 0.1016,0.3302 0.110067,0.0508 0.558801,0.0508 v 0.262467 q -0.863601,-0.0254 -0.948268,-0.0254 -0.06773,0 -0.956733,0.0254 v -0.262467 q 0.448733,0 0.550333,-0.0508 0.110067,-0.05927 0.110067,-0.3302 v -1.972734 q 0,-0.4318 -0.135467,-0.6858 -0.127,-0.254001 -0.491067,-0.254001 -0.440266,0 -0.795867,0.372534 -0.347133,0.364067 -0.347133,0.982134 v 1.557867 q 0,0.270933 0.1016,0.3302 0.110067,0.0508 0.5588,0.0508 v 0.262467 q -0.8636,-0.0254 -0.948267,-0.0254 -0.06773,0 -0.956734,0.0254 z m 6.781773,-5.520269 v -0.262467 l 1.219201,-0.09313 v 2.683934 q 0.491067,-0.550333 1.159934,-0.550333 0.728133,0 1.261533,0.5588 0.533401,0.5588 0.533401,1.354667 0,0.804334 -0.558801,1.363134 -0.5588,0.5588 -1.329267,0.5588 -0.702733,0 -1.109134,-0.618067 -0.296333,0.516467 -0.3048,0.524934 h -0.211666 v -5.046135 q 0,-0.313267 -0.110067,-0.389467 -0.110067,-0.08467 -0.550334,-0.08467 z m 1.244601,4.555068 q 0,0.177801 0.118533,0.355601 0.338667,0.516467 0.889001,0.516467 0.592666,0 0.956733,-0.541867 0.262467,-0.406401 0.262467,-1.202268 0,-0.7874 -0.245533,-1.176867 -0.338667,-0.541867 -0.889001,-0.541867 -0.618067,0 -0.999067,0.541867 -0.09313,0.135467 -0.09313,0.3048 z m 3.496723,0.965201 v -0.262467 q 0.448733,0 0.550333,-0.0508 0.110067,-0.05927 0.110067,-0.3302 v -4.402668 q 0,-0.313267 -0.110067,-0.389467 -0.110067,-0.08467 -0.550333,-0.08467 v -0.262467 l 1.2192,-0.09313 v 5.232402 q 0,0.270933 0.1016,0.3302 0.110067,0.0508 0.5588,0.0508 v 0.262467 q -0.1016,0 -0.321733,-0.0085 -0.211667,-0.0085 -0.372534,-0.0085 -0.1524,-0.0085 -0.245533,-0.0085 -0.1016,0 -0.9398,0.0254 z m 2.302921,-1.862668 q 0,-0.795867 0.508,-1.363133 0.516467,-0.567267 1.253067,-0.567267 0.745067,0 1.126068,0.4826 0.389466,0.4826 0.389466,1.176867 0,0.127 -0.03387,0.1524 -0.03387,0.0254 -0.1778,0.0254 h -2.362201 q 0,0.8636 0.254,1.270001 0.3556,0.567266 0.956734,0.567266 0.08467,0 0.1778,-0.01693 0.1016,-0.01693 0.3048,-0.08467 0.2032,-0.0762 0.381,-0.270933 0.1778,-0.194733 0.2794,-0.499534 0.0254,-0.118533 0.110067,-0.118533 0.110066,0 0.110066,0.1016 0,0.0762 -0.08467,0.245534 -0.0762,0.160866 -0.2286,0.364066 -0.1524,0.194734 -0.448734,0.347134 -0.296333,0.143933 -0.651934,0.143933 -0.745066,0 -1.303867,-0.5588 -0.5588,-0.567267 -0.5588,-1.397001 z m 0.7112,-0.270933 h 2.006601 q 0,-0.1778 -0.03387,-0.372533 -0.0254,-0.203201 -0.118533,-0.474134 -0.08467,-0.2794 -0.296333,-0.448733 -0.2032,-0.177801 -0.508001,-0.177801 -0.135466,0 -0.287866,0.05927 -0.143934,0.05927 -0.321734,0.2032 -0.1778,0.135467 -0.3048,0.4572 -0.118533,0.313267 -0.135467,0.753534 z"
       id="text23"
       style="font-size:8.46667px;font-family:'CMU Serif';-inkscape-font-specification:'CMU Serif';text-align:center;letter-spacing:0px;text-anchor:middle;stroke-linecap:square;stroke-linejoin:bevel;stroke-miterlimit:3.9;paint-order:markers stroke fill"
       transform="translate(9.8854956,-66.947915)"
       aria-label="Ensemble" />
    <path
       d="m -9.8854957,125.84916 v -1.69334 q 0,-0.0931 0,-0.127 0.00847,-0.0339 0.033867,-0.0593 0.0254,-0.0254 0.0762,-0.0254 0.093133,0 0.1016,0.0847 0.0254,0.8382 0.5249336,1.30387 0.4910668,0.4572 1.3377338,0.4572 0.5080002,0 0.821267,-0.36407 0.3132668,-0.36406 0.3132668,-0.84666 0,-0.45721 -0.2624668,-0.77894 -0.1100667,-0.14393 -0.2540001,-0.23707 -0.1354667,-0.0931 -0.2201334,-0.11853 -0.084667,-0.0339 -0.2455334,-0.0762 -1.0498671,-0.254 -1.1176005,-0.2794 -0.4995335,-0.16933 -0.8043336,-0.59267 -0.3048001,-0.4318 -0.3048001,-0.95673 0,-0.67733 0.4741335,-1.15993 0.4826002,-0.4826 1.1768671,-0.4826 0.3471335,0 0.6350003,0.11006 0.2963334,0.11007 0.4148668,0.21167 0.1185334,0.0931 0.3048001,0.27093 l 0.2963335,-0.4826 q 0.067733,-0.11006 0.127,-0.11006 0.067733,0 0.0762,0.0423 0.016933,0.0339 0.016933,0.16087 v 1.7018 q 0,0.0931 -0.00847,0.127 0,0.0339 -0.0254,0.0593 -0.0254,0.0169 -0.0762,0.0169 -0.084667,0 -0.1016,-0.1016 -0.2370668,-1.76954 -1.6510007,-1.76954 -0.4826002,0 -0.8043337,0.3302 -0.3132667,0.32174 -0.3132667,0.77894 0,0.37253 0.2286,0.67733 0.2370668,0.3048 0.6265336,0.39793 l 1.0837338,0.26247 q 0.5418669,0.127 0.9059337,0.6096 0.3640668,0.47413 0.3640668,1.10067 0,0.71967 -0.4741335,1.2446 -0.4656669,0.51647 -1.1938005,0.51647 -0.5249335,0 -0.9313337,-0.1778 -0.4064002,-0.16934 -0.6265336,-0.41487 -0.1693334,0.2794 -0.2794001,0.44027 l -0.0254,0.0423 q -0.067733,0.11007 -0.1270001,0.11007 -0.067733,0 -0.084667,-0.0423 -0.00847,-0.0423 -0.00847,-0.16086 z m 4.3857216,-3.36974 v -0.18627 q 0.3894668,-0.0169 0.6434669,-0.28786 0.2624668,-0.2794 0.3471335,-0.61807 0.093133,-0.33867 0.1016001,-0.72813 h 0.2116667 v 1.55786 h 1.2107338 v 0.26247 h -1.2107338 v 2.35374 q 0,0.9144 0.5672669,0.9144 0.2455334,0 0.4064002,-0.24554 0.1608667,-0.254 0.1608667,-0.70273 v -0.46567 h 0.2116667 v 0.4826 q 0,0.4572 -0.2116667,0.80434 -0.2116668,0.33866 -0.6265336,0.33866 -0.1524001,0 -0.3048001,-0.0423 -0.1524001,-0.0339 -0.3471335,-0.13547 -0.1947334,-0.1016 -0.3217334,-0.34713 -0.1185334,-0.254 -0.1185334,-0.61807 v -2.3368 z m 3.3612557,3.38667 v -0.26247 q 0.4487335,0 0.5503335,-0.0508 0.1100667,-0.0593 0.1100667,-0.3302 v -2.26907 q 0,-0.31326 -0.1100667,-0.38946 -0.1100667,-0.0847 -0.5503335,-0.0847 v -0.26247 l 1.17686712,-0.0931 v 0.93133 q 0.11853338,-0.36406 0.37253348,-0.64346 0.2540001,-0.28787 0.66886693,-0.28787 0.27093345,0 0.44873352,0.1524 0.17780007,0.1524 0.17780007,0.36407 0,0.18626 -0.11853338,0.2794 -0.11006671,0.0931 -0.24553343,0.0931 -0.15240007,0 -0.26246678,-0.0931 -0.10160004,-0.1016 -0.10160004,-0.27094 0,-0.1016 0.04233335,-0.1778 0.05080002,-0.0847 0.0846667,-0.11006 0.0423333,-0.0339 0.0677334,-0.0423 -0.0169333,-0.008 -0.09313337,-0.008 -0.46566685,0 -0.73660029,0.46566 -0.26246677,0.46567 -0.26246677,1.12607 v 1.30387 q 0,0.24553 0.10160004,0.32173 0.10160004,0.0762 0.54186688,0.0762 h 0.17780007 v 0.26247 q -0.3386668,-0.0254 -1.07526706,-0.0254 -0.1016001,0 -0.2624668,0.008 -0.1608667,0 -0.3725335,0.008 -0.2116667,0.008 -0.3302001,0.008 z m 3.3104582,-1.86267 q 0,-0.79587 0.5080002,-1.36313 0.5164668,-0.56727 1.2530671,-0.56727 0.745067,0 1.1260672,0.4826 0.3894668,0.4826 0.3894668,1.17687 0,0.127 -0.033867,0.1524 -0.033867,0.0254 -0.1778001,0.0254 H 1.8746734 q 0,0.8636 0.2540001,1.27 0.3556001,0.56727 0.9567337,0.56727 0.084667,0 0.1778001,-0.0169 0.1016,-0.0169 0.3048001,-0.0847 0.2032001,-0.0762 0.3810001,-0.27094 0.1778001,-0.19473 0.2794002,-0.49953 0.0254,-0.11853 0.1100667,-0.11853 0.1100667,0 0.1100667,0.1016 0,0.0762 -0.084667,0.24553 -0.0762,0.16087 -0.2286001,0.36407 -0.1524001,0.19473 -0.4487335,0.34713 -0.2963335,0.14393 -0.6519336,0.14393 -0.745067,0 -1.3038672,-0.5588 -0.5588002,-0.56726 -0.5588002,-1.397 z m 0.7112003,-0.27093 h 2.0066007 q 0,-0.1778 -0.033867,-0.37254 -0.0254,-0.2032 -0.1185334,-0.47413 -0.084667,-0.2794 -0.2963335,-0.44873 -0.2032,-0.1778 -0.5080002,-0.1778 -0.1354667,0 -0.2878667,0.0593 -0.1439334,0.0593 -0.3217335,0.2032 -0.1778001,0.13547 -0.3048001,0.4572 -0.1185334,0.31327 -0.1354667,0.75354 z m 3.1665207,1.32927 q 0,-0.71967 0.8466671,-1.10067 0.5080002,-0.24554 1.5578672,-0.3048 v -0.31327 q 0,-0.52493 -0.2794001,-0.80433 -0.2709334,-0.2794 -0.6180669,-0.2794 -0.6180669,0 -0.9144004,0.38946 0.2540002,0.008 0.3386669,0.13547 0.093133,0.127 0.093133,0.254 0,0.16933 -0.1100667,0.2794 -0.1016,0.11007 -0.2794001,0.11007 -0.1693334,0 -0.2794001,-0.1016 -0.1100667,-0.11007 -0.1100667,-0.29634 0,-0.41486 0.3725335,-0.6858 0.3725334,-0.27093 0.9059337,-0.27093 0.6942669,0 1.1599337,0.46567 0.1439334,0.14393 0.2116668,0.3302 0.0762,0.18626 0.084667,0.31326 0.00847,0.11854 0.00847,0.3556 v 1.69334 q 0,0.0508 0.016933,0.13547 0.016933,0.0762 0.093133,0.18626 0.0762,0.1016 0.2032001,0.1016 0.3048001,0 0.3048001,-0.54186 v -0.47414 H 8.868129 v 0.47414 q 0,0.44873 -0.2370667,0.62653 -0.2370668,0.1778 -0.4572002,0.1778 -0.2794001,0 -0.4572002,-0.2032 -0.1778001,-0.21167 -0.2032001,-0.49107 -0.127,0.32174 -0.4233335,0.5334 -0.2878668,0.2032 -0.6858002,0.2032 -0.3048002,0 -0.592667,-0.0762 -0.2878667,-0.0762 -0.5249335,-0.28786 -0.2370668,-0.21167 -0.2370668,-0.5334 z m 0.6519336,-0.008 q 0,0.31327 0.2201335,0.51647 0.2286001,0.2032 0.5418668,0.2032 0.3556002,0 0.668867,-0.27094 0.3217334,-0.2794 0.3217334,-0.82126 v -0.84667 q -0.9398003,0.0339 -1.3462005,0.4064 -0.4064002,0.37253 -0.4064002,0.8128 z m 3.4967181,0.8128 v -0.26247 q 0.4487335,0 0.5503335,-0.0508 0.1100667,-0.0593 0.1100667,-0.3302 v -2.26907 q 0,-0.31326 -0.1100667,-0.38946 -0.1100667,-0.0847 -0.5503335,-0.0847 v -0.26247 l 1.1938005,-0.0931 v 0.889 q 0.397933,-0.889 1.253067,-0.889 0.990601,0 1.126067,0.82973 0.143934,-0.32173 0.448734,-0.57573 0.3048,-0.254 0.778933,-0.254 0.635001,0 0.889001,0.31327 0.186266,0.21166 0.220133,0.44873 0.04233,0.23707 0.04233,0.84667 v 1.61713 q 0.0085,0.1778 0.143933,0.22014 0.135467,0.0339 0.516467,0.0339 v 0.26247 q -0.863601,-0.0254 -0.948267,-0.0254 -0.06773,0 -0.956734,0.0254 v -0.26247 q 0.448734,0 0.550334,-0.0508 0.110066,-0.0593 0.110066,-0.3302 v -1.97273 q 0,-0.4318 -0.135466,-0.6858 -0.127,-0.254 -0.491067,-0.254 -0.440267,0 -0.795867,0.37253 -0.347134,0.36407 -0.347134,0.98213 v 1.55787 q 0,0.27094 0.1016,0.3302 0.110067,0.0508 0.558801,0.0508 v 0.26247 q -0.863601,-0.0254 -0.948268,-0.0254 -0.06773,0 -0.956733,0.0254 v -0.26247 q 0.448733,0 0.550333,-0.0508 0.110067,-0.0593 0.110067,-0.3302 v -1.97273 q 0,-0.4318 -0.135467,-0.6858 -0.127,-0.254 -0.491067,-0.254 -0.440266,0 -0.795867,0.37253 -0.347133,0.36407 -0.347133,0.98213 v 1.55787 q 0,0.27094 0.1016,0.3302 0.110067,0.0508 0.5588,0.0508 v 0.26247 q -0.8636,-0.0254 -0.948267,-0.0254 -0.06773,0 -0.9567335,0.0254 z m 10.0245085,0 q 0,-0.1524 0.0085,-0.19473 0.01693,-0.0508 0.08467,-0.11854 l 1.625601,-1.81187 q 0.889,-0.99906 0.889,-1.87113 0,-0.56727 -0.296333,-0.97367 -0.296334,-0.4064 -0.8382,-0.4064 -0.372534,0 -0.685801,0.2286 -0.313266,0.2286 -0.4572,0.635 0.0254,-0.008 0.110067,-0.008 0.211667,0 0.3302,0.13546 0.118533,0.127 0.118533,0.3048 0,0.2286 -0.1524,0.33867 -0.143933,0.11007 -0.287866,0.11007 -0.05927,0 -0.135467,-0.008 -0.0762,-0.0169 -0.194734,-0.13547 -0.118533,-0.11853 -0.118533,-0.3302 0,-0.59266 0.448734,-1.05833 0.448733,-0.47413 1.134533,-0.47413 0.778934,0 1.286934,0.46566 0.508,0.4572 0.508,1.17687 0,0.254 -0.0762,0.4826 -0.0762,0.2286 -0.1778,0.4064 -0.1016,0.1778 -0.372533,0.46567 -0.270934,0.2794 -0.491067,0.4826 -0.220134,0.2032 -0.7112,0.635 l -0.897467,0.87207 h 1.524 q 0.745067,0 0.804334,-0.0677 0.08467,-0.11853 0.186267,-0.75353 h 0.211666 l -0.237066,1.4732 z"
       id="text24"
       style="font-size:8.46667px;font-family:'CMU Serif';-inkscape-font-specification:'CMU Serif';text-align:end;letter-spacing:0px;text-anchor:end;stroke-linecap:square;stroke-linejoin:bevel;stroke-miterlimit:3.9;paint-order:markers stroke fill"
       transform="translate(9.8854956,-66.947915)"
       aria-label="Stream 2" />
    <path
       d="m -9.8854957,146.45795 v -1.69333 q 0,-0.0931 0,-0.127 0.00847,-0.0339 0.033867,-0.0593 0.0254,-0.0254 0.0762,-0.0254 0.093133,0 0.1016,0.0847 0.0254,0.8382 0.5249336,1.30386 0.4910668,0.4572 1.3377338,0.4572 0.5080002,0 0.821267,-0.36406 0.3132668,-0.36407 0.3132668,-0.84667 0,-0.4572 -0.2624668,-0.77893 -0.1100667,-0.14394 -0.2540001,-0.23707 -0.1354667,-0.0931 -0.2201334,-0.11853 -0.084667,-0.0339 -0.2455334,-0.0762 -1.0498671,-0.254 -1.1176005,-0.2794 -0.4995335,-0.16934 -0.8043336,-0.59267 -0.3048001,-0.4318 -0.3048001,-0.95673 0,-0.67734 0.4741335,-1.15994 0.4826002,-0.4826 1.1768671,-0.4826 0.3471335,0 0.6350003,0.11007 0.2963334,0.11007 0.4148668,0.21167 0.1185334,0.0931 0.3048001,0.27093 l 0.2963335,-0.4826 q 0.067733,-0.11007 0.127,-0.11007 0.067733,0 0.0762,0.0423 0.016933,0.0339 0.016933,0.16086 v 1.7018 q 0,0.0931 -0.00847,0.127 0,0.0339 -0.0254,0.0593 -0.0254,0.0169 -0.0762,0.0169 -0.084667,0 -0.1016,-0.1016 -0.2370668,-1.76953 -1.6510007,-1.76953 -0.4826002,0 -0.8043337,0.3302 -0.3132667,0.32173 -0.3132667,0.77893 0,0.37254 0.2286,0.67734 0.2370668,0.3048 0.6265336,0.39793 l 1.0837338,0.26247 q 0.5418669,0.127 0.9059337,0.6096 0.3640668,0.47413 0.3640668,1.10066 0,0.71967 -0.4741335,1.2446 -0.4656669,0.51647 -1.1938005,0.51647 -0.5249335,0 -0.9313337,-0.1778 -0.4064002,-0.16933 -0.6265336,-0.41487 -0.1693334,0.2794 -0.2794001,0.44027 l -0.0254,0.0423 q -0.067733,0.11007 -0.1270001,0.11007 -0.067733,0 -0.084667,-0.0423 -0.00847,-0.0423 -0.00847,-0.16087 z m 4.3857216,-3.36973 v -0.18627 q 0.3894668,-0.0169 0.6434669,-0.28787 0.2624668,-0.2794 0.3471335,-0.61806 0.093133,-0.33867 0.1016001,-0.72814 h 0.2116667 v 1.55787 h 1.2107338 v 0.26247 h -1.2107338 v 2.35373 q 0,0.9144 0.5672669,0.9144 0.2455334,0 0.4064002,-0.24553 0.1608667,-0.254 0.1608667,-0.70274 v -0.46566 h 0.2116667 v 0.4826 q 0,0.4572 -0.2116667,0.80433 -0.2116668,0.33867 -0.6265336,0.33867 -0.1524001,0 -0.3048001,-0.0423 -0.1524001,-0.0339 -0.3471335,-0.13546 -0.1947334,-0.1016 -0.3217334,-0.34714 -0.1185334,-0.254 -0.1185334,-0.61806 v -2.3368 z m 3.3612557,3.38666 v -0.26246 q 0.4487335,0 0.5503335,-0.0508 0.1100667,-0.0593 0.1100667,-0.3302 v -2.26907 q 0,-0.31327 -0.1100667,-0.38947 -0.1100667,-0.0847 -0.5503335,-0.0847 v -0.26247 l 1.17686712,-0.0931 v 0.93133 q 0.11853338,-0.36407 0.37253348,-0.64347 0.2540001,-0.28786 0.66886693,-0.28786 0.27093345,0 0.44873352,0.1524 0.17780007,0.1524 0.17780007,0.36406 0,0.18627 -0.11853338,0.2794 -0.11006671,0.0931 -0.24553343,0.0931 -0.15240007,0 -0.26246678,-0.0931 -0.10160004,-0.1016 -0.10160004,-0.27093 0,-0.1016 0.04233335,-0.1778 0.05080002,-0.0847 0.0846667,-0.11007 0.0423333,-0.0339 0.0677334,-0.0423 -0.0169333,-0.008 -0.09313337,-0.008 -0.46566685,0 -0.73660029,0.46567 -0.26246677,0.46567 -0.26246677,1.12607 v 1.30386 q 0,0.24554 0.10160004,0.32174 0.10160004,0.0762 0.54186688,0.0762 h 0.17780007 v 0.26246 q -0.3386668,-0.0254 -1.07526706,-0.0254 -0.1016001,0 -0.2624668,0.008 -0.1608667,0 -0.3725335,0.008 -0.2116667,0.008 -0.3302001,0.008 z m 3.3104582,-1.86266 q 0,-0.79587 0.5080002,-1.36314 0.5164668,-0.56726 1.2530671,-0.56726 0.745067,0 1.1260672,0.4826 0.3894668,0.4826 0.3894668,1.17686 0,0.127 -0.033867,0.1524 -0.033867,0.0254 -0.1778001,0.0254 H 1.8746734 q 0,0.8636 0.2540001,1.27 0.3556001,0.56727 0.9567337,0.56727 0.084667,0 0.1778001,-0.0169 0.1016,-0.0169 0.3048001,-0.0847 0.2032001,-0.0762 0.3810001,-0.27093 0.1778001,-0.19474 0.2794002,-0.49954 0.0254,-0.11853 0.1100667,-0.11853 0.1100667,0 0.1100667,0.1016 0,0.0762 -0.084667,0.24553 -0.0762,0.16087 -0.2286001,0.36407 -0.1524001,0.19473 -0.4487335,0.34713 -0.2963335,0.14394 -0.6519336,0.14394 -0.745067,0 -1.3038672,-0.5588 -0.5588002,-0.56727 -0.5588002,-1.397 z m 0.7112003,-0.27094 h 2.0066007 q 0,-0.1778 -0.033867,-0.37253 -0.0254,-0.2032 -0.1185334,-0.47413 -0.084667,-0.2794 -0.2963335,-0.44874 -0.2032,-0.1778 -0.5080002,-0.1778 -0.1354667,0 -0.2878667,0.0593 -0.1439334,0.0593 -0.3217335,0.2032 -0.1778001,0.13547 -0.3048001,0.4572 -0.1185334,0.31327 -0.1354667,0.75353 z m 3.1665207,1.32927 q 0,-0.71967 0.8466671,-1.10067 0.5080002,-0.24553 1.5578672,-0.3048 v -0.31326 q 0,-0.52494 -0.2794001,-0.80434 -0.2709334,-0.2794 -0.6180669,-0.2794 -0.6180669,0 -0.9144004,0.38947 0.2540002,0.008 0.3386669,0.13547 0.093133,0.127 0.093133,0.254 0,0.16933 -0.1100667,0.2794 -0.1016,0.11006 -0.2794001,0.11006 -0.1693334,0 -0.2794001,-0.1016 -0.1100667,-0.11006 -0.1100667,-0.29633 0,-0.41487 0.3725335,-0.6858 0.3725334,-0.27093 0.9059337,-0.27093 0.6942669,0 1.1599337,0.46566 0.1439334,0.14394 0.2116668,0.3302 0.0762,0.18627 0.084667,0.31327 0.00847,0.11853 0.00847,0.3556 v 1.69333 q 0,0.0508 0.016933,0.13547 0.016933,0.0762 0.093133,0.18627 0.0762,0.1016 0.2032001,0.1016 0.3048001,0 0.3048001,-0.54187 v -0.47413 H 8.868129 v 0.47413 q 0,0.44873 -0.2370667,0.62653 -0.2370668,0.1778 -0.4572002,0.1778 -0.2794001,0 -0.4572002,-0.2032 -0.1778001,-0.21166 -0.2032001,-0.49106 -0.127,0.32173 -0.4233335,0.5334 -0.2878668,0.2032 -0.6858002,0.2032 -0.3048002,0 -0.592667,-0.0762 -0.2878667,-0.0762 -0.5249335,-0.28787 -0.2370668,-0.21167 -0.2370668,-0.5334 z m 0.6519336,-0.008 q 0,0.31327 0.2201335,0.51647 0.2286001,0.2032 0.5418668,0.2032 0.3556002,0 0.668867,-0.27093 0.3217334,-0.2794 0.3217334,-0.82127 v -0.84667 q -0.9398003,0.0339 -1.3462005,0.4064 -0.4064002,0.37254 -0.4064002,0.8128 z m 3.4967181,0.8128 v -0.26246 q 0.4487335,0 0.5503335,-0.0508 0.1100667,-0.0593 0.1100667,-0.3302 v -2.26907 q 0,-0.31327 -0.1100667,-0.38947 -0.1100667,-0.0847 -0.5503335,-0.0847 v -0.26247 l 1.1938005,-0.0931 v 0.889 q 0.397933,-0.889 1.253067,-0.889 0.990601,0 1.126067,0.82973 0.143934,-0.32173 0.448734,-0.57573 0.3048,-0.254 0.778933,-0.254 0.635001,0 0.889001,0.31326 0.186266,0.21167 0.220133,0.44874 0.04233,0.23706 0.04233,0.84666 v 1.61714 q 0.0085,0.1778 0.143933,0.22013 0.135467,0.0339 0.516467,0.0339 v 0.26246 q -0.863601,-0.0254 -0.948267,-0.0254 -0.06773,0 -0.956734,0.0254 v -0.26246 q 0.448734,0 0.550334,-0.0508 0.110066,-0.0593 0.110066,-0.3302 v -1.97274 q 0,-0.4318 -0.135466,-0.6858 -0.127,-0.254 -0.491067,-0.254 -0.440267,0 -0.795867,0.37254 -0.347134,0.36406 -0.347134,0.98213 v 1.55787 q 0,0.27093 0.1016,0.3302 0.110067,0.0508 0.558801,0.0508 v 0.26246 q -0.863601,-0.0254 -0.948268,-0.0254 -0.06773,0 -0.956733,0.0254 v -0.26246 q 0.448733,0 0.550333,-0.0508 0.110067,-0.0593 0.110067,-0.3302 v -1.97274 q 0,-0.4318 -0.135467,-0.6858 -0.127,-0.254 -0.491067,-0.254 -0.440266,0 -0.795867,0.37254 -0.347133,0.36406 -0.347133,0.98213 v 1.55787 q 0,0.27093 0.1016,0.3302 0.110067,0.0508 0.5588,0.0508 v 0.26246 q -0.8636,-0.0254 -0.948267,-0.0254 -0.06773,0 -0.9567335,0.0254 z m 9.9567755,-1.143 q 0,-0.254 0.143933,-0.37253 0.143933,-0.11853 0.3302,-0.11853 0.194734,0 0.3302,0.127 0.143934,0.127 0.143934,0.34713 0,0.23707 -0.169334,0.37253 -0.160866,0.127 -0.389467,0.0931 0.203201,0.33866 0.575734,0.49106 0.372534,0.1524 0.719667,0.1524 0.364067,0 0.6604,-0.31326 0.296334,-0.31327 0.296334,-1.08374 0,-0.65193 -0.254,-1.02446 -0.254001,-0.381 -0.753534,-0.381 h -0.372534 q -0.127,0 -0.169333,-0.008 -0.03387,-0.0169 -0.03387,-0.0847 0,-0.0847 0.127,-0.1016 0.127,0 0.330201,-0.0254 0.491066,-0.0169 0.753533,-0.44026 0.237067,-0.39794 0.237067,-0.9652 0,-0.51647 -0.245533,-0.72814 -0.245534,-0.22013 -0.567267,-0.22013 -0.296334,0 -0.626534,0.127 -0.321733,0.11853 -0.499533,0.39793 0.524933,0 0.524933,0.42334 0,0.18626 -0.118533,0.31326 -0.118534,0.11854 -0.313267,0.11854 -0.186267,0 -0.313267,-0.11854 -0.118533,-0.11853 -0.118533,-0.32173 0,-0.4826 0.4318,-0.8128 0.4318,-0.33867 1.0668,-0.33867 0.626534,0 1.092201,0.3302 0.465667,0.3302 0.465667,0.8382 0,0.49954 -0.330201,0.9144 -0.3302,0.4064 -0.855133,0.57574 0.643467,0.127 1.024467,0.56726 0.389467,0.4318 0.389467,0.9652 0,0.6604 -0.524934,1.15147 -0.516467,0.4826 -1.278467,0.4826 -0.702734,0 -1.210734,-0.381 -0.499533,-0.381 -0.499533,-0.94827 z"
       id="text25"
       style="font-size:8.46667px;font-family:'CMU Serif';-inkscape-font-specification:'CMU Serif';text-align:end;letter-spacing:0px;text-anchor:end;stroke-linecap:square;stroke-linejoin:bevel;stroke-miterlimit:3.9;paint-order:markers stroke fill"
       transform="translate(9.8854956,-66.947915)"
       aria-label="Stream 3" />
    <path
       d="m -9.8854957,105.24037 v -1.69334 q 0,-0.0931 0,-0.127 0.00847,-0.0339 0.033867,-0.0593 0.0254,-0.0254 0.0762,-0.0254 0.093133,0 0.1016,0.0847 0.0254,0.8382 0.5249336,1.30387 0.4910668,0.4572 1.3377338,0.4572 0.5080002,0 0.821267,-0.36407 0.3132668,-0.36406 0.3132668,-0.84666 0,-0.4572 -0.2624668,-0.77894 -0.1100667,-0.14393 -0.2540001,-0.23706 -0.1354667,-0.0931 -0.2201334,-0.11854 -0.084667,-0.0339 -0.2455334,-0.0762 -1.0498671,-0.254 -1.1176005,-0.2794 -0.4995335,-0.16933 -0.8043336,-0.59266 -0.3048001,-0.4318 -0.3048001,-0.95674 0,-0.67733 0.4741335,-1.159931 0.4826002,-0.4826 1.1768671,-0.4826 0.3471335,0 0.6350003,0.110067 0.2963334,0.110066 0.4148668,0.211666 0.1185334,0.09313 0.3048001,0.270934 l 0.2963335,-0.4826 q 0.067733,-0.110067 0.127,-0.110067 0.067733,0 0.0762,0.04233 0.016933,0.03387 0.016933,0.160867 v 1.701801 q 0,0.0931 -0.00847,0.127 0,0.0339 -0.0254,0.0593 -0.0254,0.0169 -0.0762,0.0169 -0.084667,0 -0.1016,-0.1016 -0.2370668,-1.769534 -1.6510007,-1.769534 -0.4826002,0 -0.8043337,0.3302 -0.3132667,0.321734 -0.3132667,0.778934 0,0.37253 0.2286,0.67733 0.2370668,0.3048 0.6265336,0.39794 l 1.0837338,0.26246 q 0.5418669,0.127 0.9059337,0.6096 0.3640668,0.47414 0.3640668,1.10067 0,0.71967 -0.4741335,1.2446 -0.4656669,0.51647 -1.1938005,0.51647 -0.5249335,0 -0.9313337,-0.1778 -0.4064002,-0.16934 -0.6265336,-0.41487 -0.1693334,0.2794 -0.2794001,0.44027 l -0.0254,0.0423 q -0.067733,0.11007 -0.1270001,0.11007 -0.067733,0 -0.084667,-0.0423 -0.00847,-0.0423 -0.00847,-0.16086 z m 4.3857216,-3.36974 v -0.18626 q 0.3894668,-0.0169 0.6434669,-0.28787 0.2624668,-0.2794 0.3471335,-0.61807 0.093133,-0.33866 0.1016001,-0.72813 h 0.2116667 v 1.55787 h 1.2107338 v 0.26246 h -1.2107338 v 2.35374 q 0,0.9144 0.5672669,0.9144 0.2455334,0 0.4064002,-0.24554 0.1608667,-0.254 0.1608667,-0.70273 v -0.46567 h 0.2116667 v 0.4826 q 0,0.4572 -0.2116667,0.80434 -0.2116668,0.33866 -0.6265336,0.33866 -0.1524001,0 -0.3048001,-0.0423 -0.1524001,-0.0339 -0.3471335,-0.13547 -0.1947334,-0.1016 -0.3217334,-0.34713 -0.1185334,-0.254 -0.1185334,-0.61807 v -2.3368 z m 3.3612557,3.38667 v -0.26247 q 0.4487335,0 0.5503335,-0.0508 0.1100667,-0.0593 0.1100667,-0.3302 v -2.26906 q 0,-0.31327 -0.1100667,-0.38947 -0.1100667,-0.0847 -0.5503335,-0.0847 v -0.26246 l 1.17686712,-0.0931 v 0.93134 q 0.11853338,-0.36407 0.37253348,-0.64347 0.2540001,-0.28787 0.66886693,-0.28787 0.27093345,0 0.44873352,0.1524 0.17780007,0.1524 0.17780007,0.36407 0,0.18627 -0.11853338,0.2794 -0.11006671,0.0931 -0.24553343,0.0931 -0.15240007,0 -0.26246678,-0.0931 -0.10160004,-0.1016 -0.10160004,-0.27093 0,-0.1016 0.04233335,-0.1778 0.05080002,-0.0847 0.0846667,-0.11007 0.0423333,-0.0339 0.0677334,-0.0423 -0.0169333,-0.008 -0.09313337,-0.008 -0.46566685,0 -0.73660029,0.46567 -0.26246677,0.46566 -0.26246677,1.12606 v 1.30387 q 0,0.24553 0.10160004,0.32173 0.10160004,0.0762 0.54186688,0.0762 h 0.17780007 v 0.26247 q -0.3386668,-0.0254 -1.07526706,-0.0254 -0.1016001,0 -0.2624668,0.008 -0.1608667,0 -0.3725335,0.008 -0.2116667,0.008 -0.3302001,0.008 z m 3.3104582,-1.86267 q 0,-0.79586 0.5080002,-1.36313 0.5164668,-0.56727 1.2530671,-0.56727 0.745067,0 1.1260672,0.4826 0.3894668,0.4826 0.3894668,1.17687 0,0.127 -0.033867,0.1524 -0.033867,0.0254 -0.1778001,0.0254 H 1.8746734 q 0,0.8636 0.2540001,1.27 0.3556001,0.56727 0.9567337,0.56727 0.084667,0 0.1778001,-0.0169 0.1016,-0.0169 0.3048001,-0.0847 0.2032001,-0.0762 0.3810001,-0.27094 0.1778001,-0.19473 0.2794002,-0.49953 0.0254,-0.11853 0.1100667,-0.11853 0.1100667,0 0.1100667,0.1016 0,0.0762 -0.084667,0.24553 -0.0762,0.16087 -0.2286001,0.36407 -0.1524001,0.19473 -0.4487335,0.34713 -0.2963335,0.14393 -0.6519336,0.14393 -0.745067,0 -1.3038672,-0.5588 -0.5588002,-0.56726 -0.5588002,-1.397 z m 0.7112003,-0.27093 h 2.0066007 q 0,-0.1778 -0.033867,-0.37253 -0.0254,-0.2032 -0.1185334,-0.47414 -0.084667,-0.2794 -0.2963335,-0.44873 -0.2032,-0.1778 -0.5080002,-0.1778 -0.1354667,0 -0.2878667,0.0593 -0.1439334,0.0593 -0.3217335,0.2032 -0.1778001,0.13546 -0.3048001,0.4572 -0.1185334,0.31326 -0.1354667,0.75353 z m 3.1665207,1.32927 q 0,-0.71967 0.8466671,-1.10067 0.5080002,-0.24553 1.5578672,-0.3048 v -0.31327 q 0,-0.52493 -0.2794001,-0.80433 -0.2709334,-0.2794 -0.6180669,-0.2794 -0.6180669,0 -0.9144004,0.38947 0.2540002,0.008 0.3386669,0.13546 0.093133,0.127 0.093133,0.254 0,0.16934 -0.1100667,0.2794 -0.1016,0.11007 -0.2794001,0.11007 -0.1693334,0 -0.2794001,-0.1016 -0.1100667,-0.11007 -0.1100667,-0.29633 0,-0.41487 0.3725335,-0.6858 0.3725334,-0.27094 0.9059337,-0.27094 0.6942669,0 1.1599337,0.46567 0.1439334,0.14393 0.2116668,0.3302 0.0762,0.18627 0.084667,0.31327 0.00847,0.11853 0.00847,0.3556 v 1.69333 q 0,0.0508 0.016933,0.13547 0.016933,0.0762 0.093133,0.18626 0.0762,0.1016 0.2032001,0.1016 0.3048001,0 0.3048001,-0.54186 v -0.47414 H 8.868129 v 0.47414 q 0,0.44873 -0.2370667,0.62653 -0.2370668,0.1778 -0.4572002,0.1778 -0.2794001,0 -0.4572002,-0.2032 -0.1778001,-0.21167 -0.2032001,-0.49107 -0.127,0.32174 -0.4233335,0.5334 -0.2878668,0.2032 -0.6858002,0.2032 -0.3048002,0 -0.592667,-0.0762 -0.2878667,-0.0762 -0.5249335,-0.28786 -0.2370668,-0.21167 -0.2370668,-0.5334 z m 0.6519336,-0.008 q 0,0.31327 0.2201335,0.51647 0.2286001,0.2032 0.5418668,0.2032 0.3556002,0 0.668867,-0.27094 0.3217334,-0.2794 0.3217334,-0.82126 v -0.84667 q -0.9398003,0.0339 -1.3462005,0.4064 -0.4064002,0.37253 -0.4064002,0.8128 z m 3.4967181,0.8128 v -0.26247 q 0.4487335,0 0.5503335,-0.0508 0.1100667,-0.0593 0.1100667,-0.3302 v -2.26906 q 0,-0.31327 -0.1100667,-0.38947 -0.1100667,-0.0847 -0.5503335,-0.0847 v -0.26246 l 1.1938005,-0.0931 v 0.889 q 0.397933,-0.889 1.253067,-0.889 0.990601,0 1.126067,0.82974 0.143934,-0.32174 0.448734,-0.57574 0.3048,-0.254 0.778933,-0.254 0.635001,0 0.889001,0.31327 0.186266,0.21167 0.220133,0.44873 0.04233,0.23707 0.04233,0.84667 v 1.61713 q 0.0085,0.1778 0.143933,0.22014 0.135467,0.0339 0.516467,0.0339 v 0.26247 q -0.863601,-0.0254 -0.948267,-0.0254 -0.06773,0 -0.956734,0.0254 v -0.26247 q 0.448734,0 0.550334,-0.0508 0.110066,-0.0593 0.110066,-0.3302 v -1.97273 q 0,-0.4318 -0.135466,-0.6858 -0.127,-0.254 -0.491067,-0.254 -0.440267,0 -0.795867,0.37253 -0.347134,0.36407 -0.347134,0.98214 v 1.55786 q 0,0.27094 0.1016,0.3302 0.110067,0.0508 0.558801,0.0508 v 0.26247 q -0.863601,-0.0254 -0.948268,-0.0254 -0.06773,0 -0.956733,0.0254 v -0.26247 q 0.448733,0 0.550333,-0.0508 0.110067,-0.0593 0.110067,-0.3302 v -1.97273 q 0,-0.4318 -0.135467,-0.6858 -0.127,-0.254 -0.491067,-0.254 -0.440266,0 -0.795867,0.37253 -0.347133,0.36407 -0.347133,0.98214 v 1.55786 q 0,0.27094 0.1016,0.3302 0.110067,0.0508 0.5588,0.0508 v 0.26247 q -0.8636,-0.0254 -0.948267,-0.0254 -0.06773,0 -0.9567335,0.0254 z m 10.3547085,-4.83447 v -0.26246 q 1.016001,0 1.540934,-0.541871 0.143933,0 0.169333,0.03387 0.0254,0.03387 0.0254,0.186267 v 4.749797 q 0,0.254 0.118534,0.3302 0.127,0.0762 0.668867,0.0762 h 0.270933 v 0.26247 q -0.296333,-0.0254 -1.3716,-0.0254 -1.075267,0 -1.371601,0.0254 v -0.26247 h 0.270934 q 0.5334,0 0.6604,-0.0762 0.127,-0.0762 0.127,-0.3302 v -4.38573 q -0.440267,0.22013 -1.109134,0.22013 z"
       id="text26"
       style="font-size:8.46667px;font-family:'CMU Serif';-inkscape-font-specification:'CMU Serif';text-align:end;letter-spacing:0px;text-anchor:end;stroke-linecap:square;stroke-linejoin:bevel;stroke-miterlimit:3.9;paint-order:markers stroke fill"
       transform="translate(9.8854956,-66.947915)"
       aria-label="Stream 1" />
    <path
       d="m 44.19292,142.05814 v -0.21872 q 0.846667,0 1.284112,-0.45155 0.119945,0 0.141111,0.0282 0.02117,0.0282 0.02117,0.15522 v 3.95817 q 0,0.21167 0.09878,0.27517 0.105833,0.0635 0.557389,0.0635 h 0.225778 v 0.21872 q -0.246945,-0.0212 -1.143001,-0.0212 -0.896056,0 -1.143001,0.0212 v -0.21872 h 0.225778 q 0.444501,0 0.550334,-0.0635 0.105834,-0.0635 0.105834,-0.27517 v -3.65478 q -0.36689,0.18344 -0.924279,0.18344 z m 3.174989,1.77095 q 0,-1.03717 0.261056,-1.60161 0.366889,-0.83961 1.227667,-0.83961 0.183445,0 0.373945,0.0494 0.1905,0.0494 0.430389,0.23989 0.246944,0.1905 0.395111,0.50095 0.282223,0.59972 0.282223,1.651 0,1.03011 -0.261056,1.59456 -0.381,0.81844 -1.227668,0.81844 -0.3175,0 -0.642056,-0.16228 -0.3175,-0.16228 -0.522111,-0.55033 -0.3175,-0.58561 -0.3175,-1.70039 z m 0.585611,-0.0847 q 0,1.06539 0.07761,1.48873 0.08467,0.45861 0.317501,0.65616 0.239889,0.19756 0.500944,0.19756 0.282223,0 0.515056,-0.21167 0.239889,-0.21167 0.310445,-0.67028 0.07761,-0.45155 0.07761,-1.4605 0,-0.98072 -0.07055,-1.37583 -0.09172,-0.45861 -0.338667,-0.64206 -0.246945,-0.18344 -0.49389,-0.18344 -0.09172,0 -0.1905,0.0282 -0.09878,0.0282 -0.239889,0.10583 -0.141111,0.0776 -0.254,0.27517 -0.105833,0.19756 -0.155222,0.49389 -0.05645,0.381 -0.05645,1.29822 z m 2.942156,0.0847 q 0,-1.03717 0.261055,-1.60161 0.366889,-0.83961 1.227668,-0.83961 0.183444,0 0.373944,0.0494 0.190501,0.0494 0.43039,0.23989 0.246944,0.1905 0.395111,0.50095 0.282222,0.59972 0.282222,1.651 0,1.03011 -0.261055,1.59456 -0.381001,0.81844 -1.227668,0.81844 -0.3175,0 -0.642056,-0.16228 -0.3175,-0.16228 -0.522111,-0.55033 -0.3175,-0.58561 -0.3175,-1.70039 z m 0.585611,-0.0847 q 0,1.06539 0.07761,1.48873 0.08467,0.45861 0.3175,0.65616 0.239889,0.19756 0.500945,0.19756 0.282223,0 0.515056,-0.21167 0.239889,-0.21167 0.310445,-0.67028 0.07761,-0.45155 0.07761,-1.4605 0,-0.98072 -0.07056,-1.37583 -0.09172,-0.45861 -0.338667,-0.64206 -0.246944,-0.18344 -0.493889,-0.18344 -0.09172,0 -0.1905,0.0282 -0.09878,0.0282 -0.239889,0.10583 -0.141111,0.0776 -0.254,0.27517 -0.105834,0.19756 -0.155222,0.49389 -0.05644,0.381 -0.05644,1.29822 z m 2.942155,0.0847 q 0,-1.03717 0.261055,-1.60161 0.36689,-0.83961 1.227668,-0.83961 0.183445,0 0.373945,0.0494 0.1905,0.0494 0.430389,0.23989 0.246944,0.1905 0.395111,0.50095 0.282223,0.59972 0.282223,1.651 0,1.03011 -0.261056,1.59456 -0.381,0.81844 -1.227668,0.81844 -0.3175,0 -0.642056,-0.16228 -0.3175,-0.16228 -0.522111,-0.55033 -0.3175,-0.58561 -0.3175,-1.70039 z m 0.585611,-0.0847 q 0,1.06539 0.07761,1.48873 0.08467,0.45861 0.317501,0.65616 0.239889,0.19756 0.500944,0.19756 0.282223,0 0.515056,-0.21167 0.239889,-0.21167 0.310445,-0.67028 0.07761,-0.45155 0.07761,-1.4605 0,-0.98072 -0.07056,-1.37583 -0.09172,-0.45861 -0.338666,-0.64206 -0.246945,-0.18344 -0.49389,-0.18344 -0.09172,0 -0.1905,0.0282 -0.09878,0.0282 -0.239889,0.10583 -0.141111,0.0776 -0.254,0.27517 -0.105833,0.19756 -0.155222,0.49389 -0.05644,0.381 -0.05644,1.29822 z m 3.019767,2.34245 q 0,-0.127 0.0071,-0.16228 0.01411,-0.0423 0.07055,-0.0988 l 1.354668,-1.50989 q 0.740834,-0.83255 0.740834,-1.55928 0,-0.47272 -0.246945,-0.81139 -0.246945,-0.33866 -0.6985,-0.33866 -0.310445,0 -0.571501,0.1905 -0.261056,0.1905 -0.381,0.52916 0.02117,-0.007 0.09172,-0.007 0.176389,0 0.275167,0.11289 0.09878,0.10583 0.09878,0.254 0,0.1905 -0.127,0.28222 -0.119945,0.0917 -0.239889,0.0917 -0.04939,0 -0.112889,-0.007 -0.0635,-0.0141 -0.162278,-0.11289 -0.09878,-0.0988 -0.09878,-0.27517 0,-0.49389 0.373945,-0.88194 0.373944,-0.39511 0.945445,-0.39511 0.649111,0 1.072445,0.38805 0.423334,0.381 0.423334,0.98072 0,0.21167 -0.0635,0.40217 -0.0635,0.1905 -0.148167,0.33867 -0.08467,0.14816 -0.310445,0.38805 -0.225778,0.23284 -0.409222,0.40217 -0.183445,0.16933 -0.592667,0.52917 l -0.74789,0.72672 h 1.270001 q 0.620889,0 0.670278,-0.0564 0.07056,-0.0988 0.155223,-0.62795 h 0.176389 l -0.197556,1.22767 z"
       id="text27"
       style="font-size:7.05556px;font-family:'CMU Serif';-inkscape-font-specification:'CMU Serif';text-align:center;letter-spacing:0px;text-anchor:middle;stroke-linecap:square;stroke-linejoin:bevel;stroke-miterlimit:3.9;paint-order:markers stroke fill"
       transform="translate(9.8854956,-66.947915)"
       aria-label="10002" />
    <path
       d="m 34.667098,102.64243 v -0.21873 q 0.846668,0 1.284112,-0.45155 0.119945,0 0.141112,0.0282 0.02117,0.0282 0.02117,0.15522 v 3.95817 q 0,0.21167 0.09878,0.27517 0.105834,0.0635 0.557389,0.0635 h 0.225778 v 0.21872 q -0.246944,-0.0212 -1.143,-0.0212 -0.896057,0 -1.143001,0.0212 v -0.21872 h 0.225778 q 0.4445,0 0.550333,-0.0635 0.105834,-0.0635 0.105834,-0.27517 v -3.65478 q -0.366889,0.18345 -0.924279,0.18345 z m 3.174989,1.77094 q 0,-1.03717 0.261056,-1.60161 0.366889,-0.83961 1.227667,-0.83961 0.183445,0 0.373945,0.0494 0.1905,0.0494 0.430389,0.23989 0.246945,0.1905 0.395112,0.50094 0.282222,0.59972 0.282222,1.651 0,1.03011 -0.261056,1.59456 -0.381,0.81844 -1.227667,0.81844 -0.3175,0 -0.642056,-0.16228 -0.3175,-0.16227 -0.522112,-0.55033 -0.3175,-0.58561 -0.3175,-1.70039 z m 0.585612,-0.0847 q 0,1.06539 0.07761,1.48873 0.08467,0.45861 0.3175,0.65616 0.239889,0.19756 0.500945,0.19756 0.282222,0 0.515056,-0.21167 0.239889,-0.21166 0.310444,-0.67027 0.07761,-0.45156 0.07761,-1.46051 0,-0.98072 -0.07055,-1.37583 -0.09172,-0.45861 -0.338667,-0.64206 -0.246945,-0.18344 -0.493889,-0.18344 -0.09172,0 -0.1905,0.0282 -0.09878,0.0282 -0.239889,0.10584 -0.141112,0.0776 -0.254001,0.27516 -0.105833,0.19756 -0.155222,0.49389 -0.05644,0.381 -0.05644,1.29822 z m 2.942155,0.0847 q 0,-1.03717 0.261056,-1.60161 0.366889,-0.83961 1.227667,-0.83961 0.183445,0 0.373945,0.0494 0.1905,0.0494 0.430389,0.23989 0.246944,0.1905 0.395111,0.50094 0.282223,0.59972 0.282223,1.651 0,1.03011 -0.261056,1.59456 -0.381,0.81844 -1.227668,0.81844 -0.3175,0 -0.642055,-0.16228 -0.317501,-0.16227 -0.522112,-0.55033 -0.3175,-0.58561 -0.3175,-1.70039 z m 0.585611,-0.0847 q 0,1.06539 0.07761,1.48873 0.08467,0.45861 0.3175,0.65616 0.239889,0.19756 0.500944,0.19756 0.282223,0 0.515056,-0.21167 0.239889,-0.21166 0.310445,-0.67027 0.07761,-0.45156 0.07761,-1.46051 0,-0.98072 -0.07055,-1.37583 -0.09172,-0.45861 -0.338667,-0.64206 -0.246945,-0.18344 -0.49389,-0.18344 -0.09172,0 -0.1905,0.0282 -0.09878,0.0282 -0.239889,0.10584 -0.141111,0.0776 -0.254,0.27516 -0.105833,0.19756 -0.155222,0.49389 -0.05645,0.381 -0.05645,1.29822 z m 2.942155,0.0847 q 0,-1.03717 0.261056,-1.60161 0.366889,-0.83961 1.227667,-0.83961 0.183445,0 0.373945,0.0494 0.1905,0.0494 0.430389,0.23989 0.246945,0.1905 0.395111,0.50094 0.282223,0.59972 0.282223,1.651 0,1.03011 -0.261056,1.59456 -0.381,0.81844 -1.227667,0.81844 -0.3175,0 -0.642056,-0.16228 -0.3175,-0.16227 -0.522112,-0.55033 -0.3175,-0.58561 -0.3175,-1.70039 z m 0.585612,-0.0847 q 0,1.06539 0.07761,1.48873 0.08467,0.45861 0.3175,0.65616 0.239889,0.19756 0.500945,0.19756 0.282222,0 0.515056,-0.21167 0.239889,-0.21166 0.310444,-0.67027 0.07761,-0.45156 0.07761,-1.46051 0,-0.98072 -0.07055,-1.37583 -0.09172,-0.45861 -0.338667,-0.64206 -0.246945,-0.18344 -0.493889,-0.18344 -0.09172,0 -0.1905,0.0282 -0.09878,0.0282 -0.239889,0.10584 -0.141112,0.0776 -0.254001,0.27516 -0.105833,0.19756 -0.155222,0.49389 -0.05644,0.381 -0.05644,1.29822 z m 2.942155,0.0847 q 0,-1.03717 0.261056,-1.60161 0.366889,-0.83961 1.227667,-0.83961 0.183445,0 0.373945,0.0494 0.1905,0.0494 0.430389,0.23989 0.246945,0.1905 0.395112,0.50094 0.282222,0.59972 0.282222,1.651 0,1.03011 -0.261056,1.59456 -0.381,0.81844 -1.227667,0.81844 -0.3175,0 -0.642056,-0.16228 -0.3175,-0.16227 -0.522112,-0.55033 -0.3175,-0.58561 -0.3175,-1.70039 z m 0.585612,-0.0847 q 0,1.06539 0.07761,1.48873 0.08467,0.45861 0.3175,0.65616 0.239889,0.19756 0.500945,0.19756 0.282222,0 0.515056,-0.21167 0.239889,-0.21166 0.310444,-0.67027 0.07761,-0.45156 0.07761,-1.46051 0,-0.98072 -0.07056,-1.37583 -0.09172,-0.45861 -0.338667,-0.64206 -0.246945,-0.18344 -0.493889,-0.18344 -0.09172,0 -0.1905,0.0282 -0.09878,0.0282 -0.239889,0.10584 -0.141111,0.0776 -0.254,0.27516 -0.105834,0.19756 -0.155223,0.49389 -0.05644,0.381 -0.05644,1.29822 z"
       id="text28"
       style="font-size:7.05556px;font-family:'CMU Serif';-inkscape-font-specification:'CMU Serif';text-align:center;letter-spacing:0px;text-anchor:middle;stroke-linecap:square;stroke-linejoin:bevel;stroke-miterlimit:3.9;paint-order:markers stroke fill"
       transform="translate(9.8854956,-66.947915)"
       aria-label="10000" />
    <path
       d="m 44.227497,122.23376 v -0.21873 q 0.846667,0 1.284111,-0.45155 0.119945,0 0.141112,0.0282 0.02117,0.0282 0.02117,0.15522 v 3.95817 q 0,0.21167 0.09878,0.27517 0.105834,0.0635 0.557389,0.0635 h 0.225778 v 0.21872 q -0.246944,-0.0212 -1.143,-0.0212 -0.896056,0 -1.143001,0.0212 v -0.21872 h 0.225778 q 0.4445,0 0.550334,-0.0635 0.105833,-0.0635 0.105833,-0.27517 v -3.65478 q -0.366889,0.18345 -0.924278,0.18345 z m 3.174988,1.77094 q 0,-1.03716 0.261056,-1.60161 0.366889,-0.83961 1.227667,-0.83961 0.183445,0 0.373945,0.0494 0.1905,0.0494 0.430389,0.23989 0.246945,0.1905 0.395112,0.50094 0.282222,0.59972 0.282222,1.651 0,1.03011 -0.261056,1.59456 -0.381,0.81844 -1.227667,0.81844 -0.3175,0 -0.642056,-0.16227 -0.3175,-0.16228 -0.522112,-0.55034 -0.3175,-0.58561 -0.3175,-1.70039 z m 0.585612,-0.0847 q 0,1.06539 0.07761,1.48872 0.08467,0.45861 0.3175,0.65617 0.239889,0.19755 0.500945,0.19755 0.282222,0 0.515056,-0.21167 0.239889,-0.21166 0.310444,-0.67027 0.07761,-0.45156 0.07761,-1.4605 0,-0.98073 -0.07056,-1.37584 -0.09172,-0.45861 -0.338667,-0.64205 -0.246945,-0.18345 -0.493889,-0.18345 -0.09172,0 -0.1905,0.0282 -0.09878,0.0282 -0.239889,0.10584 -0.141111,0.0776 -0.254,0.27516 -0.105834,0.19756 -0.155223,0.49389 -0.05644,0.381 -0.05644,1.29823 z m 2.942155,0.0847 q 0,-1.03716 0.261056,-1.60161 0.366889,-0.83961 1.227667,-0.83961 0.183445,0 0.373945,0.0494 0.1905,0.0494 0.430389,0.23989 0.246945,0.1905 0.395111,0.50094 0.282223,0.59972 0.282223,1.651 0,1.03011 -0.261056,1.59456 -0.381,0.81844 -1.227667,0.81844 -0.317501,0 -0.642056,-0.16227 -0.317501,-0.16228 -0.522112,-0.55034 -0.3175,-0.58561 -0.3175,-1.70039 z m 0.585611,-0.0847 q 0,1.06539 0.07761,1.48872 0.08467,0.45861 0.3175,0.65617 0.239889,0.19755 0.500945,0.19755 0.282222,0 0.515055,-0.21167 0.23989,-0.21166 0.310445,-0.67027 0.07761,-0.45156 0.07761,-1.4605 0,-0.98073 -0.07055,-1.37584 -0.09172,-0.45861 -0.338667,-0.64205 -0.246945,-0.18345 -0.493889,-0.18345 -0.09172,0 -0.190501,0.0282 -0.09878,0.0282 -0.239889,0.10584 -0.141111,0.0776 -0.254,0.27516 -0.105833,0.19756 -0.155222,0.49389 -0.05644,0.381 -0.05644,1.29823 z m 2.942155,0.0847 q 0,-1.03716 0.261056,-1.60161 0.366889,-0.83961 1.227667,-0.83961 0.183445,0 0.373945,0.0494 0.1905,0.0494 0.430389,0.23989 0.246945,0.1905 0.395112,0.50094 0.282222,0.59972 0.282222,1.651 0,1.03011 -0.261056,1.59456 -0.381,0.81844 -1.227667,0.81844 -0.3175,0 -0.642056,-0.16227 -0.3175,-0.16228 -0.522112,-0.55034 -0.3175,-0.58561 -0.3175,-1.70039 z m 0.585612,-0.0847 q 0,1.06539 0.07761,1.48872 0.08467,0.45861 0.3175,0.65617 0.239889,0.19755 0.500945,0.19755 0.282222,0 0.515056,-0.21167 0.239889,-0.21166 0.310444,-0.67027 0.07761,-0.45156 0.07761,-1.4605 0,-0.98073 -0.07056,-1.37584 -0.09172,-0.45861 -0.338667,-0.64205 -0.246945,-0.18345 -0.493889,-0.18345 -0.09172,0 -0.1905,0.0282 -0.09878,0.0282 -0.239889,0.10584 -0.141112,0.0776 -0.254001,0.27516 -0.105833,0.19756 -0.155222,0.49389 -0.05644,0.381 -0.05644,1.29823 z m 3.294933,-1.68628 v -0.21873 q 0.846668,0 1.284112,-0.45155 0.119945,0 0.141112,0.0282 0.02117,0.0282 0.02117,0.15522 v 3.95817 q 0,0.21167 0.09878,0.27517 0.105833,0.0635 0.557389,0.0635 h 0.225778 v 0.21872 q -0.246944,-0.0212 -1.143001,-0.0212 -0.896056,0 -1.143,0.0212 v -0.21872 h 0.225778 q 0.4445,0 0.550333,-0.0635 0.105834,-0.0635 0.105834,-0.27517 v -3.65478 q -0.366889,0.18345 -0.924279,0.18345 z"
       id="text29"
       style="font-size:7.05556px;font-family:'CMU Serif';-inkscape-font-specification:'CMU Serif';text-align:center;letter-spacing:0px;text-anchor:middle;stroke-linecap:square;stroke-linejoin:bevel;stroke-miterlimit:3.9;paint-order:markers stroke fill"
       transform="translate(9.8854956,-66.947915)"
       aria-label="10001" />
    <path
       d="m 73.43394,102.18804 v -0.21872 q 0.846668,0 1.284112,-0.45156 0.119945,0 0.141111,0.0282 0.02117,0.0282 0.02117,0.15522 v 3.95817 q 0,0.21166 0.09878,0.27516 0.105833,0.0635 0.557389,0.0635 h 0.225778 v 0.21873 q -0.246944,-0.0212 -1.143001,-0.0212 -0.896056,0 -1.143,0.0212 v -0.21873 h 0.225778 q 0.4445,0 0.550333,-0.0635 0.105834,-0.0635 0.105834,-0.27516 v -3.65478 q -0.366889,0.18344 -0.924279,0.18344 z m 3.174989,1.77095 q 0,-1.03717 0.261056,-1.60162 0.366889,-0.83961 1.227667,-0.83961 0.183445,0 0.373945,0.0494 0.1905,0.0494 0.430389,0.23989 0.246945,0.1905 0.395111,0.50095 0.282223,0.59972 0.282223,1.651 0,1.03011 -0.261056,1.59455 -0.381,0.81845 -1.227667,0.81845 -0.317501,0 -0.642056,-0.16228 -0.317501,-0.16228 -0.522112,-0.55033 -0.3175,-0.58561 -0.3175,-1.70039 z m 0.585612,-0.0847 q 0,1.06539 0.07761,1.48872 0.08467,0.45861 0.3175,0.65617 0.239889,0.19756 0.500945,0.19756 0.282222,0 0.515056,-0.21167 0.239889,-0.21167 0.310444,-0.67028 0.07761,-0.45155 0.07761,-1.4605 0,-0.98072 -0.07055,-1.37583 -0.09172,-0.45862 -0.338667,-0.64206 -0.246945,-0.18344 -0.493889,-0.18344 -0.09172,0 -0.1905,0.0282 -0.09878,0.0282 -0.23989,0.10583 -0.141111,0.0776 -0.254,0.27517 -0.105833,0.19755 -0.155222,0.49389 -0.05644,0.381 -0.05644,1.29822 z m 2.942155,0.0847 q 0,-1.03717 0.261055,-1.60162 0.36689,-0.83961 1.227668,-0.83961 0.183444,0 0.373945,0.0494 0.1905,0.0494 0.430389,0.23989 0.246944,0.1905 0.395111,0.50095 0.282223,0.59972 0.282223,1.651 0,1.03011 -0.261056,1.59455 -0.381,0.81845 -1.227668,0.81845 -0.3175,0 -0.642056,-0.16228 -0.3175,-0.16228 -0.522111,-0.55033 -0.3175,-0.58561 -0.3175,-1.70039 z m 0.585611,-0.0847 q 0,1.06539 0.07761,1.48872 0.08467,0.45861 0.317501,0.65617 0.239889,0.19756 0.500944,0.19756 0.282223,0 0.515056,-0.21167 0.239889,-0.21167 0.310445,-0.67028 0.07761,-0.45155 0.07761,-1.4605 0,-0.98072 -0.07056,-1.37583 -0.09172,-0.45862 -0.338666,-0.64206 -0.246945,-0.18344 -0.49389,-0.18344 -0.09172,0 -0.1905,0.0282 -0.09878,0.0282 -0.239889,0.10583 -0.141111,0.0776 -0.254,0.27517 -0.105833,0.19755 -0.155222,0.49389 -0.05644,0.381 -0.05644,1.29822 z m 2.963322,1.38995 q 0,-0.21167 0.119944,-0.31045 0.119945,-0.0988 0.275167,-0.0988 0.162278,0 0.275167,0.10584 0.119944,0.10583 0.119944,0.28927 0,0.19756 -0.141111,0.31045 -0.134055,0.10583 -0.324556,0.0776 0.169334,0.28222 0.479779,0.40922 0.310444,0.127 0.599722,0.127 0.303389,0 0.550334,-0.26105 0.246944,-0.26106 0.246944,-0.90311 0,-0.54328 -0.211666,-0.85373 -0.211667,-0.3175 -0.627945,-0.3175 h -0.310445 q -0.105833,0 -0.141111,-0.007 -0.02822,-0.0141 -0.02822,-0.0706 0,-0.0705 0.105833,-0.0847 0.105833,0 0.275167,-0.0212 0.409222,-0.0141 0.627945,-0.36689 0.197555,-0.33161 0.197555,-0.80433 0,-0.43039 -0.204611,-0.60678 -0.204611,-0.18345 -0.472722,-0.18345 -0.246945,0 -0.522112,0.10584 -0.268111,0.0988 -0.416278,0.33161 0.437445,0 0.437445,0.35278 0,0.15522 -0.09878,0.26105 -0.09878,0.0988 -0.261056,0.0988 -0.155222,0 -0.261055,-0.0988 -0.09878,-0.0988 -0.09878,-0.26811 0,-0.40217 0.359833,-0.67733 0.359834,-0.28223 0.889001,-0.28223 0.522111,0 0.910167,0.27517 0.388056,0.27517 0.388056,0.6985 0,0.41628 -0.275167,0.762 -0.275167,0.33867 -0.712611,0.47978 0.536222,0.10583 0.853722,0.47272 0.324556,0.35984 0.324556,0.80434 0,0.55033 -0.437445,0.95955 -0.430389,0.40217 -1.065389,0.40217 -0.585612,0 -1.008945,-0.3175 -0.416278,-0.3175 -0.416278,-0.79022 z m 3.428989,-0.21167 v -0.21872 l 2.166057,-3.30906 q 0.05644,-0.0847 0.141111,-0.0847 0.07761,0 0.09172,0.0353 0.02117,0.0282 0.02117,0.14817 v 3.21028 h 0.705556 v 0.21872 h -0.705556 v 0.61383 q 0,0.20461 0.08467,0.26811 0.08467,0.0635 0.451556,0.0635 h 0.148166 v 0.21873 q -0.289278,-0.0212 -0.959556,-0.0212 -0.663222,0 -0.9525,0.0212 v -0.21873 h 0.148166 q 0.36689,0 0.451556,-0.0635 0.08467,-0.0635 0.08467,-0.26811 v -0.61383 z m 0.197556,-0.21872 h 1.721556 v -2.63173 z"
       id="text30"
       style="font-size:7.05556px;font-family:'CMU Serif';-inkscape-font-specification:'CMU Serif';text-align:center;letter-spacing:0px;text-anchor:middle;stroke-linecap:square;stroke-linejoin:bevel;stroke-miterlimit:3.9;paint-order:markers stroke fill"
       transform="translate(9.8854956,-66.947915)"
       aria-label="10034" />
    <path
       d="m 89.685695,122.27255 v -0.21872 q 0.846667,0 1.284112,-0.45156 0.119945,0 0.141111,0.0282 0.02117,0.0282 0.02117,0.15522 v 3.95817 q 0,0.21166 0.09878,0.27516 0.105833,0.0635 0.557389,0.0635 h 0.225778 v 0.21873 q -0.246945,-0.0212 -1.143001,-0.0212 -0.896056,0 -1.143001,0.0212 v -0.21873 h 0.225778 q 0.444501,0 0.550334,-0.0635 0.105833,-0.0635 0.105833,-0.27516 v -3.65478 q -0.366889,0.18344 -0.924278,0.18344 z m 3.174989,1.77095 q 0,-1.03717 0.261056,-1.60161 0.366889,-0.83962 1.227667,-0.83962 0.183445,0 0.373945,0.0494 0.1905,0.0494 0.430389,0.23989 0.246944,0.1905 0.395111,0.50095 0.282223,0.59972 0.282223,1.651 0,1.03011 -0.261056,1.59455 -0.381,0.81845 -1.227668,0.81845 -0.3175,0 -0.642056,-0.16228 -0.3175,-0.16228 -0.522111,-0.55033 -0.3175,-0.58561 -0.3175,-1.70039 z m 0.585611,-0.0847 q 0,1.06539 0.07761,1.48872 0.08467,0.45862 0.317501,0.65617 0.239889,0.19756 0.500944,0.19756 0.282223,0 0.515056,-0.21167 0.239889,-0.21167 0.310445,-0.67028 0.07761,-0.45155 0.07761,-1.4605 0,-0.98072 -0.07055,-1.37583 -0.09172,-0.45861 -0.338667,-0.64206 -0.246945,-0.18344 -0.49389,-0.18344 -0.09172,0 -0.1905,0.0282 -0.09878,0.0282 -0.239889,0.10583 -0.141111,0.0776 -0.254,0.27517 -0.105833,0.19755 -0.155222,0.49389 -0.05644,0.381 -0.05644,1.29822 z m 2.942156,0.0847 q 0,-1.03717 0.261055,-1.60161 0.366889,-0.83962 1.227668,-0.83962 0.183444,0 0.373944,0.0494 0.1905,0.0494 0.43039,0.23989 0.246944,0.1905 0.395111,0.50095 0.282222,0.59972 0.282222,1.651 0,1.03011 -0.261055,1.59455 -0.381001,0.81845 -1.227668,0.81845 -0.3175,0 -0.642056,-0.16228 -0.3175,-0.16228 -0.522111,-0.55033 -0.3175,-0.58561 -0.3175,-1.70039 z m 0.585611,-0.0847 q 0,1.06539 0.07761,1.48872 0.08467,0.45862 0.3175,0.65617 0.239889,0.19756 0.500945,0.19756 0.282223,0 0.515056,-0.21167 0.239889,-0.21167 0.310445,-0.67028 0.07761,-0.45155 0.07761,-1.4605 0,-0.98072 -0.07056,-1.37583 -0.09172,-0.45861 -0.338667,-0.64206 -0.246944,-0.18344 -0.493889,-0.18344 -0.09172,0 -0.1905,0.0282 -0.09878,0.0282 -0.239889,0.10583 -0.141111,0.0776 -0.254,0.27517 -0.105834,0.19755 -0.155223,0.49389 -0.05644,0.381 -0.05644,1.29822 z m 3.019766,1.2065 q 0,-0.21166 0.112892,-0.28928 0.11289,-0.0847 0.23283,-0.0847 0.16228,0 0.254,0.10583 0.0988,0.0988 0.0988,0.23989 0,0.14111 -0.0988,0.24694 -0.0917,0.0988 -0.254,0.0988 -0.0776,0 -0.11994,-0.0141 0.0917,0.32456 0.37394,0.55739 0.28928,0.23283 0.66322,0.23283 0.47273,0 0.75495,-0.45861 0.16933,-0.29633 0.16933,-0.96661 0,-0.59267 -0.127,-0.889 -0.19755,-0.45156 -0.59972,-0.45156 -0.5715,0 -0.91017,0.49389 -0.0423,0.0635 -0.0917,0.0635 -0.0706,0 -0.0847,-0.0353 -0.0141,-0.0423 -0.0141,-0.14817 v -2.08845 q 0,-0.16933 0.0706,-0.16933 0.0282,0 0.0847,0.0212 0.4445,0.19755 0.93839,0.19755 0.508,0 0.95956,-0.20461 0.0353,-0.0212 0.0564,-0.0212 0.0706,0 0.0706,0.0776 0,0.0282 -0.0564,0.11288 -0.0564,0.0776 -0.17639,0.18345 -0.11995,0.10583 -0.27517,0.20461 -0.15522,0.0988 -0.381,0.16933 -0.22578,0.0635 -0.47272,0.0635 -0.29634,0 -0.59973,-0.0917 v 1.37584 q 0.36689,-0.35984 0.89606,-0.35984 0.56444,0 0.9525,0.45861 0.38806,0.45156 0.38806,1.08656 0,0.66322 -0.45862,1.12183 -0.45861,0.45156 -1.0795,0.45156 -0.56444,0 -0.92427,-0.40217 -0.352782,-0.40216 -0.352782,-0.889 z m 3.570102,-2.18017 0.23283,-1.45344 h 0.17639 q 0.0212,0.0847 0.0564,0.127 0.0353,0.0353 0.23283,0.0705 0.20461,0.0282 0.61383,0.0282 h 1.7145 q 0,0.16227 -0.0635,0.24694 l -0.9525,1.34056 q -0.30339,0.42333 -0.43744,1.2065 -0.0776,0.52211 -0.0776,1.15711 v 0.35983 q 0,0.38806 -0.32456,0.38806 -0.32455,0 -0.32455,-0.38806 0,-1.34761 0.86783,-2.65289 0.0917,-0.13405 0.43039,-0.61383 0.34572,-0.47978 0.35983,-0.50095 h -1.4605 q -0.64205,0 -0.69144,0.0423 -0.0706,0.0635 -0.17639,0.64205 z"
       id="text31"
       style="font-size:7.05556px;font-family:'CMU Serif';-inkscape-font-specification:'CMU Serif';text-align:center;letter-spacing:0px;text-anchor:middle;stroke-linecap:square;stroke-linejoin:bevel;stroke-miterlimit:3.9;paint-order:markers stroke fill"
       transform="translate(9.8854956,-66.947915)"
       aria-label="10057" />
    <path
       d="m 96.843746,141.63905 v -0.21873 q 0.846667,0 1.284112,-0.45155 0.119944,0 0.141111,0.0282 0.02117,0.0282 0.02117,0.15522 v 3.95817 q 0,0.21167 0.09878,0.27517 0.105834,0.0635 0.55739,0.0635 h 0.225777 v 0.21872 q -0.246944,-0.0212 -1.143,-0.0212 -0.896056,0 -1.143001,0.0212 v -0.21872 h 0.225778 q 0.4445,0 0.550334,-0.0635 0.105833,-0.0635 0.105833,-0.27517 v -3.65478 q -0.366889,0.18345 -0.924278,0.18345 z m 3.174984,1.77094 q 0,-1.03717 0.26106,-1.60161 0.36689,-0.83961 1.22767,-0.83961 0.18344,0 0.37394,0.0494 0.1905,0.0494 0.43039,0.23989 0.24695,0.1905 0.39511,0.50094 0.28223,0.59972 0.28223,1.651 0,1.03011 -0.26106,1.59456 -0.381,0.81844 -1.22767,0.81844 -0.3175,0 -0.64205,-0.16228 -0.3175,-0.16227 -0.52212,-0.55033 -0.3175,-0.58561 -0.3175,-1.70039 z m 0.58562,-0.0847 q 0,1.06539 0.0776,1.48873 0.0847,0.45861 0.3175,0.65616 0.23989,0.19756 0.50094,0.19756 0.28222,0 0.51506,-0.21167 0.23989,-0.21166 0.31044,-0.67027 0.0776,-0.45156 0.0776,-1.46051 0,-0.98072 -0.0705,-1.37583 -0.0917,-0.45861 -0.33867,-0.64206 -0.24694,-0.18344 -0.49389,-0.18344 -0.0917,0 -0.1905,0.0282 -0.0988,0.0282 -0.23989,0.10584 -0.14111,0.0776 -0.254,0.27516 -0.10583,0.19756 -0.15522,0.49389 -0.0564,0.381 -0.0564,1.29822 z m 2.94215,0.0847 q 0,-1.03717 0.26106,-1.60161 0.36689,-0.83961 1.22766,-0.83961 0.18345,0 0.37395,0.0494 0.1905,0.0494 0.43039,0.23989 0.24694,0.1905 0.39511,0.50094 0.28222,0.59972 0.28222,1.651 0,1.03011 -0.26105,1.59456 -0.381,0.81844 -1.22767,0.81844 -0.3175,0 -0.64206,-0.16228 -0.3175,-0.16227 -0.52211,-0.55033 -0.3175,-0.58561 -0.3175,-1.70039 z m 0.58561,-0.0847 q 0,1.06539 0.0776,1.48873 0.0847,0.45861 0.3175,0.65616 0.23989,0.19756 0.50095,0.19756 0.28222,0 0.51505,-0.21167 0.23989,-0.21166 0.31045,-0.67027 0.0776,-0.45156 0.0776,-1.46051 0,-0.98072 -0.0706,-1.37583 -0.0917,-0.45861 -0.33866,-0.64206 -0.24695,-0.18344 -0.49389,-0.18344 -0.0917,0 -0.1905,0.0282 -0.0988,0.0282 -0.23989,0.10584 -0.14111,0.0776 -0.254,0.27516 -0.10583,0.19756 -0.15522,0.49389 -0.0564,0.381 -0.0564,1.29822 z m 3.0621,-0.97366 0.23284,-1.45345 h 0.17638 q 0.0212,0.0847 0.0564,0.127 0.0353,0.0353 0.23283,0.0706 0.20461,0.0282 0.61384,0.0282 h 1.7145 q 0,0.16228 -0.0635,0.24694 l -0.9525,1.34056 q -0.30339,0.42333 -0.43745,1.2065 -0.0776,0.52211 -0.0776,1.15711 v 0.35984 q 0,0.38805 -0.32456,0.38805 -0.32455,0 -0.32455,-0.38805 0,-1.34762 0.86783,-2.65289 0.0917,-0.13406 0.43039,-0.61384 0.34572,-0.47978 0.35984,-0.50094 h -1.46051 q -0.64205,0 -0.69144,0.0423 -0.0706,0.0635 -0.17639,0.64206 z m 3.40782,1.05833 q 0,-1.03717 0.26106,-1.60161 0.36689,-0.83961 1.22767,-0.83961 0.18344,0 0.37394,0.0494 0.1905,0.0494 0.43039,0.23989 0.24695,0.1905 0.39511,0.50094 0.28223,0.59972 0.28223,1.651 0,1.03011 -0.26106,1.59456 -0.381,0.81844 -1.22767,0.81844 -0.3175,0 -0.64205,-0.16228 -0.3175,-0.16227 -0.52212,-0.55033 -0.3175,-0.58561 -0.3175,-1.70039 z m 0.58562,-0.0847 q 0,1.06539 0.0776,1.48873 0.0847,0.45861 0.3175,0.65616 0.23989,0.19756 0.50094,0.19756 0.28222,0 0.51506,-0.21167 0.23989,-0.21166 0.31044,-0.67027 0.0776,-0.45156 0.0776,-1.46051 0,-0.98072 -0.0706,-1.37583 -0.0917,-0.45861 -0.33867,-0.64206 -0.24694,-0.18344 -0.49389,-0.18344 -0.0917,0 -0.1905,0.0282 -0.0988,0.0282 -0.23989,0.10584 -0.14111,0.0776 -0.254,0.27516 -0.10583,0.19756 -0.15522,0.49389 -0.0564,0.381 -0.0564,1.29822 z"
       id="text32"
       style="font-size:7.05556px;font-family:'CMU Serif';-inkscape-font-specification:'CMU Serif';text-align:center;letter-spacing:0px;text-anchor:middle;stroke-linecap:square;stroke-linejoin:bevel;stroke-miterlimit:3.9;paint-order:markers stroke fill"
       transform="translate(9.8854956,-66.947915)"
       aria-label="10070" />
    <path
       d="m 123.84727,102.22333 v -0.21872 q 0.84667,0 1.28411,-0.45156 0.11995,0 0.14111,0.0282 0.0212,0.0282 0.0212,0.15522 v 3.95817 q 0,0.21167 0.0988,0.27517 0.10583,0.0635 0.55739,0.0635 h 0.22578 v 0.21872 q -0.24695,-0.0212 -1.14301,-0.0212 -0.89605,0 -1.143,0.0212 v -0.21872 h 0.22578 q 0.4445,0 0.55034,-0.0635 0.10583,-0.0635 0.10583,-0.27517 v -3.65478 q -0.36689,0.18345 -0.92428,0.18345 z m 3.17499,1.77094 q 0,-1.03716 0.26105,-1.60161 0.36689,-0.83961 1.22767,-0.83961 0.18345,0 0.37395,0.0494 0.1905,0.0494 0.43039,0.23989 0.24694,0.1905 0.39511,0.50094 0.28222,0.59972 0.28222,1.651 0,1.03011 -0.26106,1.59456 -0.381,0.81844 -1.22766,0.81844 -0.3175,0 -0.64206,-0.16227 -0.3175,-0.16228 -0.52211,-0.55034 -0.3175,-0.58561 -0.3175,-1.70039 z m 0.58561,-0.0847 q 0,1.06539 0.0776,1.48872 0.0847,0.45861 0.3175,0.65617 0.23989,0.19755 0.50095,0.19755 0.28222,0 0.51505,-0.21166 0.23989,-0.21167 0.31045,-0.67028 0.0776,-0.45156 0.0776,-1.4605 0,-0.98073 -0.0706,-1.37584 -0.0917,-0.45861 -0.33866,-0.64205 -0.24695,-0.18345 -0.49389,-0.18345 -0.0917,0 -0.1905,0.0282 -0.0988,0.0282 -0.23989,0.10584 -0.14111,0.0776 -0.254,0.27516 -0.10584,0.19756 -0.15522,0.49389 -0.0564,0.381 -0.0564,1.29823 z m 2.94216,0.0847 q 0,-1.03716 0.26105,-1.60161 0.36689,-0.83961 1.22767,-0.83961 0.18344,0 0.37394,0.0494 0.1905,0.0494 0.43039,0.23989 0.24695,0.1905 0.39511,0.50094 0.28223,0.59972 0.28223,1.651 0,1.03011 -0.26106,1.59456 -0.381,0.81844 -1.22767,0.81844 -0.3175,0 -0.64205,-0.16227 -0.3175,-0.16228 -0.52211,-0.55034 -0.3175,-0.58561 -0.3175,-1.70039 z m 0.58561,-0.0847 q 0,1.06539 0.0776,1.48872 0.0847,0.45861 0.3175,0.65617 0.23989,0.19755 0.50094,0.19755 0.28223,0 0.51506,-0.21166 0.23989,-0.21167 0.31044,-0.67028 0.0776,-0.45156 0.0776,-1.4605 0,-0.98073 -0.0706,-1.37584 -0.0917,-0.45861 -0.33867,-0.64205 -0.24694,-0.18345 -0.49389,-0.18345 -0.0917,0 -0.1905,0.0282 -0.0988,0.0282 -0.23989,0.10584 -0.14111,0.0776 -0.254,0.27516 -0.10583,0.19756 -0.15522,0.49389 -0.0564,0.381 -0.0564,1.29823 z m 2.96332,1.27705 q 0,-0.79022 1.016,-1.29822 -0.43745,-0.29633 -0.51506,-0.381 -0.31044,-0.34572 -0.31044,-0.77611 0,-0.49389 0.37394,-0.83256 0.37395,-0.34572 0.90312,-0.34572 0.508,0 0.889,0.29633 0.381,0.28928 0.381,0.75495 0,0.65616 -0.85373,1.09361 0.56445,0.35278 0.6985,0.50094 0.34573,0.381 0.34573,0.86784 0,0.56444 -0.43745,0.9525 -0.43039,0.38805 -1.03011,0.38805 -0.58561,0 -1.02306,-0.33866 -0.43744,-0.34572 -0.43744,-0.88195 z m 0.35278,0 q 0,0.43745 0.32455,0.73378 0.33161,0.28928 0.79023,0.28928 0.4445,0 0.77611,-0.254 0.33161,-0.254 0.33161,-0.635 0,-0.14817 -0.0494,-0.27517 -0.0494,-0.127 -0.14817,-0.22578 -0.0988,-0.10583 -0.16228,-0.14816 -0.0564,-0.0494 -0.16933,-0.127 l -0.86783,-0.55034 q -0.8255,0.45861 -0.8255,1.19239 z m 0.14816,-2.7305 q 0,0.33867 0.35278,0.5715 l 0.87489,0.56445 q 0.6985,-0.40923 0.6985,-0.98778 0,-0.37395 -0.28928,-0.62089 -0.28222,-0.254 -0.67733,-0.254 -0.38806,0 -0.67733,0.20461 -0.28223,0.20461 -0.28223,0.52211 z m 3.1256,0.47978 0.23284,-1.45345 h 0.17639 q 0.0212,0.0847 0.0564,0.127 0.0353,0.0353 0.23283,0.0706 0.20462,0.0282 0.61384,0.0282 h 1.7145 q 0,0.16228 -0.0635,0.24695 l -0.9525,1.34055 q -0.30339,0.42334 -0.43745,1.2065 -0.0776,0.52211 -0.0776,1.15712 v 0.35983 q 0,0.38805 -0.32455,0.38805 -0.32456,0 -0.32456,-0.38805 0,-1.34761 0.86783,-2.65289 0.0917,-0.13406 0.43039,-0.61384 0.34573,-0.47977 0.35984,-0.50094 h -1.4605 q -0.64206,0 -0.69145,0.0423 -0.0705,0.0635 -0.17639,0.64206 z"
       id="text33"
       style="font-size:7.05556px;font-family:'CMU Serif';-inkscape-font-specification:'CMU Serif';text-align:center;letter-spacing:0px;text-anchor:middle;stroke-linecap:square;stroke-linejoin:bevel;stroke-miterlimit:3.9;paint-order:markers stroke fill"
       transform="translate(9.8854956,-66.947915)"
       aria-label="10087" />
    <path
       d="m 156.5684,141.63905 v -0.21873 q 0.84667,0 1.28411,-0.45155 0.11995,0 0.14112,0.0282 0.0212,0.0282 0.0212,0.15522 v 3.95817 q 0,0.21167 0.0988,0.27517 0.10583,0.0635 0.55739,0.0635 h 0.22578 v 0.21872 q -0.24695,-0.0212 -1.143,-0.0212 -0.89606,0 -1.143,0.0212 v -0.21872 h 0.22577 q 0.4445,0 0.55034,-0.0635 0.10583,-0.0635 0.10583,-0.27517 v -3.65478 q -0.36689,0.18345 -0.92428,0.18345 z m 3.17499,1.77094 q 0,-1.03717 0.26106,-1.60161 0.36689,-0.83961 1.22766,-0.83961 0.18345,0 0.37395,0.0494 0.1905,0.0494 0.43039,0.23989 0.24694,0.1905 0.39511,0.50094 0.28222,0.59972 0.28222,1.651 0,1.03011 -0.26105,1.59456 -0.381,0.81844 -1.22767,0.81844 -0.3175,0 -0.64206,-0.16228 -0.3175,-0.16227 -0.52211,-0.55033 -0.3175,-0.58561 -0.3175,-1.70039 z m 0.58561,-0.0847 q 0,1.06539 0.0776,1.48873 0.0847,0.45861 0.3175,0.65616 0.23989,0.19756 0.50095,0.19756 0.28222,0 0.51506,-0.21167 0.23988,-0.21166 0.31044,-0.67027 0.0776,-0.45156 0.0776,-1.46051 0,-0.98072 -0.0706,-1.37583 -0.0917,-0.45861 -0.33867,-0.64206 -0.24695,-0.18344 -0.49389,-0.18344 -0.0917,0 -0.1905,0.0282 -0.0988,0.0282 -0.23989,0.10584 -0.14111,0.0776 -0.254,0.27516 -0.10583,0.19756 -0.15522,0.49389 -0.0564,0.381 -0.0564,1.29822 z m 3.29494,-1.68627 v -0.21873 q 0.84666,0 1.28411,-0.45155 0.11994,0 0.14111,0.0282 0.0212,0.0282 0.0212,0.15522 v 3.95817 q 0,0.21167 0.0988,0.27517 0.10584,0.0635 0.55739,0.0635 h 0.22578 v 0.21872 q -0.24694,-0.0212 -1.143,-0.0212 -0.89606,0 -1.143,0.0212 v -0.21872 h 0.22578 q 0.4445,0 0.55033,-0.0635 0.10583,-0.0635 0.10583,-0.27517 v -3.65478 q -0.36688,0.18345 -0.92427,0.18345 z m 3.17498,1.77094 q 0,-1.03717 0.26106,-1.60161 0.36689,-0.83961 1.22767,-0.83961 0.18344,0 0.37394,0.0494 0.1905,0.0494 0.43039,0.23989 0.24695,0.1905 0.39511,0.50094 0.28223,0.59972 0.28223,1.651 0,1.03011 -0.26106,1.59456 -0.381,0.81844 -1.22767,0.81844 -0.3175,0 -0.64205,-0.16228 -0.3175,-0.16227 -0.52212,-0.55033 -0.3175,-0.58561 -0.3175,-1.70039 z m 0.58562,-0.0847 q 0,1.06539 0.0776,1.48873 0.0847,0.45861 0.3175,0.65616 0.23989,0.19756 0.50094,0.19756 0.28222,0 0.51506,-0.21167 0.23989,-0.21166 0.31044,-0.67027 0.0776,-0.45156 0.0776,-1.46051 0,-0.98072 -0.0705,-1.37583 -0.0917,-0.45861 -0.33867,-0.64206 -0.24694,-0.18344 -0.49389,-0.18344 -0.0917,0 -0.1905,0.0282 -0.0988,0.0282 -0.23989,0.10584 -0.14111,0.0776 -0.254,0.27516 -0.10583,0.19756 -0.15522,0.49389 -0.0564,0.381 -0.0564,1.29822 z m 3.01976,2.34245 q 0,-0.127 0.007,-0.16228 0.0141,-0.0423 0.0705,-0.0988 l 1.35467,-1.50989 q 0.74084,-0.83255 0.74084,-1.55927 0,-0.47273 -0.24695,-0.81139 -0.24694,-0.33867 -0.6985,-0.33867 -0.31044,0 -0.5715,0.1905 -0.26106,0.1905 -0.381,0.52917 0.0212,-0.007 0.0917,-0.007 0.17639,0 0.27517,0.11289 0.0988,0.10583 0.0988,0.254 0,0.1905 -0.127,0.28222 -0.11995,0.0917 -0.23989,0.0917 -0.0494,0 -0.11289,-0.007 -0.0635,-0.0141 -0.16228,-0.11289 -0.0988,-0.0988 -0.0988,-0.27517 0,-0.49389 0.37395,-0.88194 0.37394,-0.39511 0.94544,-0.39511 0.64911,0 1.07245,0.38805 0.42333,0.381 0.42333,0.98073 0,0.21166 -0.0635,0.40216 -0.0635,0.1905 -0.14817,0.33867 -0.0847,0.14817 -0.31044,0.38806 -0.22578,0.23283 -0.40922,0.40216 -0.18345,0.16934 -0.59267,0.52917 l -0.74789,0.72672 h 1.27 q 0.62089,0 0.67028,-0.0564 0.0706,-0.0988 0.15522,-0.62795 h 0.17639 l -0.19755,1.22767 z m 3.80294,-4.02872 v -0.21873 q 0.84666,0 1.28411,-0.45155 0.11994,0 0.14111,0.0282 0.0212,0.0282 0.0212,0.15522 v 3.95817 q 0,0.21167 0.0988,0.27517 0.10584,0.0635 0.55739,0.0635 h 0.22578 v 0.21872 q -0.24694,-0.0212 -1.143,-0.0212 -0.89606,0 -1.143,0.0212 v -0.21872 h 0.22578 q 0.4445,0 0.55033,-0.0635 0.10584,-0.0635 0.10584,-0.27517 v -3.65478 q -0.36689,0.18345 -0.92428,0.18345 z"
       id="text34"
       style="font-size:7.05556px;font-family:'CMU Serif';-inkscape-font-specification:'CMU Serif';text-align:center;letter-spacing:0px;text-anchor:middle;stroke-linecap:square;stroke-linejoin:bevel;stroke-miterlimit:3.9;paint-order:markers stroke fill"
       transform="translate(9.8854956,-66.947915)"
       aria-label="101021" />
    <path
       d="m 161.53113,122.23376 v -0.21873 q 0.84666,0 1.28411,-0.45155 0.11994,0 0.14111,0.0282 0.0212,0.0282 0.0212,0.15522 v 3.95817 q 0,0.21167 0.0988,0.27517 0.10584,0.0635 0.55739,0.0635 h 0.22578 v 0.21872 q -0.24694,-0.0212 -1.143,-0.0212 -0.89606,0 -1.143,0.0212 v -0.21872 h 0.22578 q 0.4445,0 0.55033,-0.0635 0.10583,-0.0635 0.10583,-0.27517 v -3.65478 q -0.36688,0.18345 -0.92427,0.18345 z m 3.17498,1.77094 q 0,-1.03716 0.26106,-1.60161 0.36689,-0.83961 1.22767,-0.83961 0.18344,0 0.37394,0.0494 0.1905,0.0494 0.43039,0.23989 0.24695,0.1905 0.39511,0.50094 0.28223,0.59972 0.28223,1.651 0,1.03011 -0.26106,1.59456 -0.381,0.81844 -1.22767,0.81844 -0.3175,0 -0.64205,-0.16227 -0.3175,-0.16228 -0.52212,-0.55034 -0.3175,-0.58561 -0.3175,-1.70039 z m 0.58562,-0.0847 q 0,1.06539 0.0776,1.48872 0.0847,0.45861 0.3175,0.65617 0.23989,0.19755 0.50094,0.19755 0.28222,0 0.51506,-0.21167 0.23989,-0.21166 0.31044,-0.67027 0.0776,-0.45156 0.0776,-1.4605 0,-0.98073 -0.0705,-1.37584 -0.0917,-0.45861 -0.33867,-0.64205 -0.24694,-0.18345 -0.49389,-0.18345 -0.0917,0 -0.1905,0.0282 -0.0988,0.0282 -0.23989,0.10584 -0.14111,0.0776 -0.254,0.27516 -0.10583,0.19756 -0.15522,0.49389 -0.0564,0.381 -0.0564,1.29823 z m 3.29493,-1.68628 v -0.21873 q 0.84667,0 1.28411,-0.45155 0.11995,0 0.14111,0.0282 0.0212,0.0282 0.0212,0.15522 v 3.95817 q 0,0.21167 0.0988,0.27517 0.10583,0.0635 0.55739,0.0635 h 0.22577 v 0.21872 q -0.24694,-0.0212 -1.143,-0.0212 -0.89605,0 -1.143,0.0212 v -0.21872 h 0.22578 q 0.4445,0 0.55033,-0.0635 0.10584,-0.0635 0.10584,-0.27517 v -3.65478 q -0.36689,0.18345 -0.92428,0.18345 z m 3.17499,1.77094 q 0,-1.03716 0.26105,-1.60161 0.36689,-0.83961 1.22767,-0.83961 0.18345,0 0.37395,0.0494 0.1905,0.0494 0.43038,0.23989 0.24695,0.1905 0.39512,0.50094 0.28222,0.59972 0.28222,1.651 0,1.03011 -0.26106,1.59456 -0.381,0.81844 -1.22766,0.81844 -0.31751,0 -0.64206,-0.16227 -0.3175,-0.16228 -0.52211,-0.55034 -0.3175,-0.58561 -0.3175,-1.70039 z m 0.58561,-0.0847 q 0,1.06539 0.0776,1.48872 0.0847,0.45861 0.3175,0.65617 0.23989,0.19755 0.50095,0.19755 0.28222,0 0.51505,-0.21167 0.23989,-0.21166 0.31045,-0.67027 0.0776,-0.45156 0.0776,-1.4605 0,-0.98073 -0.0706,-1.37584 -0.0917,-0.45861 -0.33867,-0.64205 -0.24694,-0.18345 -0.49388,-0.18345 -0.0917,0 -0.19051,0.0282 -0.0988,0.0282 -0.23988,0.10584 -0.14112,0.0776 -0.254,0.27516 -0.10584,0.19756 -0.15523,0.49389 -0.0564,0.381 -0.0564,1.29823 z m 3.01977,2.34244 q 0,-0.127 0.007,-0.16228 0.0141,-0.0423 0.0706,-0.0988 l 1.35466,-1.50989 q 0.74084,-0.83256 0.74084,-1.55928 0,-0.47273 -0.24695,-0.81139 -0.24694,-0.33867 -0.6985,-0.33867 -0.31044,0 -0.5715,0.1905 -0.26105,0.1905 -0.381,0.52917 0.0212,-0.007 0.0917,-0.007 0.17639,0 0.27517,0.11289 0.0988,0.10583 0.0988,0.254 0,0.1905 -0.127,0.28222 -0.11995,0.0917 -0.23989,0.0917 -0.0494,0 -0.11289,-0.007 -0.0635,-0.0141 -0.16228,-0.11289 -0.0988,-0.0988 -0.0988,-0.27516 0,-0.49389 0.37394,-0.88195 0.37395,-0.39511 0.94545,-0.39511 0.64911,0 1.07244,0.38805 0.42333,0.381 0.42333,0.98073 0,0.21166 -0.0635,0.40216 -0.0635,0.1905 -0.14816,0.33867 -0.0847,0.14817 -0.31045,0.38806 -0.22578,0.23283 -0.40922,0.40216 -0.18344,0.16934 -0.59267,0.52917 l -0.74789,0.72672 h 1.27 q 0.62089,0 0.67028,-0.0564 0.0706,-0.0988 0.15523,-0.62795 h 0.17638 l -0.19755,1.22767 z m 3.47132,-1.06539 q 0,-0.79022 1.016,-1.29822 -0.43745,-0.29633 -0.51506,-0.381 -0.31044,-0.34572 -0.31044,-0.77611 0,-0.49389 0.37394,-0.83256 0.37395,-0.34572 0.90311,-0.34572 0.50801,0 0.88901,0.29633 0.381,0.28928 0.381,0.75495 0,0.65616 -0.85373,1.09361 0.56445,0.35278 0.6985,0.50094 0.34573,0.381 0.34573,0.86784 0,0.56444 -0.43745,0.9525 -0.43039,0.38805 -1.03011,0.38805 -0.58561,0 -1.02306,-0.33866 -0.43744,-0.34573 -0.43744,-0.88195 z m 0.35278,0 q 0,0.43745 0.32455,0.73378 0.33161,0.28928 0.79022,0.28928 0.44451,0 0.77612,-0.254 0.33161,-0.254 0.33161,-0.635 0,-0.14817 -0.0494,-0.27517 -0.0494,-0.127 -0.14817,-0.22578 -0.0988,-0.10583 -0.16228,-0.14816 -0.0564,-0.0494 -0.16933,-0.127 l -0.86783,-0.55034 q -0.8255,0.45861 -0.8255,1.19239 z m 0.14816,-2.7305 q 0,0.33867 0.35278,0.5715 l 0.87489,0.56445 q 0.6985,-0.40923 0.6985,-0.98778 0,-0.37395 -0.28928,-0.62089 -0.28222,-0.254 -0.67733,-0.254 -0.38806,0 -0.67733,0.20461 -0.28223,0.20461 -0.28223,0.52211 z"
       id="text35"
       style="font-size:7.05556px;font-family:'CMU Serif';-inkscape-font-specification:'CMU Serif';text-align:center;letter-spacing:0px;text-anchor:middle;stroke-linecap:square;stroke-linejoin:bevel;stroke-miterlimit:3.9;paint-order:markers stroke fill"
       transform="translate(9.8854956,-66.947915)"
       aria-label="101028" />
  </g>
</svg>
