<?xml version="1.0" encoding="UTF-8" standalone="no"?>
<!-- Created with Inkscape (http://www.inkscape.org/) -->

<svg
   width="54.897724mm"
   height="196.41827mm"
   viewBox="0 0 54.897724 196.41828"
   version="1.1"
   id="svg1"
   inkscape:version="1.3 (0e150ed, 2023-07-21)"
   sodipodi:docname="numbers.svg"
   xmlns:inkscape="http://www.inkscape.org/namespaces/inkscape"
   xmlns:sodipodi="http://sodipodi.sourceforge.net/DTD/sodipodi-0.dtd"
   xmlns="http://www.w3.org/2000/svg"
   xmlns:svg="http://www.w3.org/2000/svg">
  <sodipodi:namedview
     id="namedview1"
     pagecolor="#ffffff"
     bordercolor="#000000"
     borderopacity="0.25"
     inkscape:showpageshadow="2"
     inkscape:pageopacity="0.0"
     inkscape:pagecheckerboard="0"
     inkscape:deskcolor="#d1d1d1"
     inkscape:document-units="mm"
     inkscape:zoom="0.49675111"
     inkscape:cx="-267.73971"
     inkscape:cy="120.78483"
     inkscape:window-width="1920"
     inkscape:window-height="1027"
     inkscape:window-x="0"
     inkscape:window-y="25"
     inkscape:window-maximized="1"
     inkscape:current-layer="g72" />
  <defs
     id="defs1" />
  <g
     inkscape:label="text"
     inkscape:groupmode="layer"
     id="layer1"
     transform="translate(-142.42862,-57.129709)"
     style="display:none">
    <text
       xml:space="preserve"
       style="font-weight:500;font-size:8.46667px;font-family:'CMU Serif';-inkscape-font-specification:'CMU Serif Medium';text-align:center;letter-spacing:0px;text-anchor:middle;fill:#000000;stroke-width:1;stroke-linecap:square;stroke-linejoin:bevel;stroke-miterlimit:3.9;paint-order:markers stroke fill"
       x="169.69968"
       y="62.861645"
       id="text41"
       inkscape:label="text1"><tspan
         sodipodi:role="line"
         id="tspan21"
         style="font-style:normal;font-variant:normal;font-weight:normal;font-stretch:normal;font-family:'CMU Serif';-inkscape-font-specification:'CMU Serif';stroke-width:1"
         x="169.69968"
         y="62.861645">−0.0425495642</tspan><tspan
         sodipodi:role="line"
         style="font-style:normal;font-variant:normal;font-weight:normal;font-stretch:normal;font-family:'CMU Serif';-inkscape-font-specification:'CMU Serif';stroke-width:1"
         x="169.69968"
         y="73.444984"
         id="tspan22" /><tspan
         sodipodi:role="line"
         style="font-style:normal;font-variant:normal;font-weight:normal;font-stretch:normal;font-family:'CMU Serif';-inkscape-font-specification:'CMU Serif';stroke-width:1"
         x="169.69968"
         y="84.02832"
         id="tspan24">1.52505438</tspan><tspan
         sodipodi:role="line"
         style="font-style:normal;font-variant:normal;font-weight:normal;font-stretch:normal;font-family:'CMU Serif';-inkscape-font-specification:'CMU Serif';stroke-width:1"
         x="169.69968"
         y="94.611656"
         id="tspan41" /><tspan
         sodipodi:role="line"
         style="font-style:normal;font-variant:normal;font-weight:normal;font-stretch:normal;font-family:'CMU Serif';-inkscape-font-specification:'CMU Serif';stroke-width:1"
         x="169.69968"
         y="105.19499"
         id="tspan26">−0.977038906</tspan><tspan
         sodipodi:role="line"
         style="font-style:normal;font-variant:normal;font-weight:normal;font-stretch:normal;font-family:'CMU Serif';-inkscape-font-specification:'CMU Serif';stroke-width:1"
         x="169.69968"
         y="115.77834"
         id="tspan42" /><tspan
         sodipodi:role="line"
         style="font-style:normal;font-variant:normal;font-weight:normal;font-stretch:normal;font-family:'CMU Serif';-inkscape-font-specification:'CMU Serif';stroke-width:1"
         x="169.69968"
         y="126.36167"
         id="tspan28">−0.121850961</tspan><tspan
         sodipodi:role="line"
         style="font-style:normal;font-variant:normal;font-weight:normal;font-stretch:normal;font-family:'CMU Serif';-inkscape-font-specification:'CMU Serif';stroke-width:1"
         x="169.69968"
         y="136.94501"
         id="tspan43" /><tspan
         sodipodi:role="line"
         style="font-style:normal;font-variant:normal;font-weight:normal;font-stretch:normal;font-family:'CMU Serif';-inkscape-font-specification:'CMU Serif';stroke-width:1"
         x="169.69968"
         y="147.52835"
         id="tspan30">−1.07907781</tspan><tspan
         sodipodi:role="line"
         style="font-style:normal;font-variant:normal;font-weight:normal;font-stretch:normal;font-family:'CMU Serif';-inkscape-font-specification:'CMU Serif';stroke-width:1"
         x="169.69968"
         y="158.11168"
         id="tspan44" /><tspan
         sodipodi:role="line"
         style="font-style:normal;font-variant:normal;font-weight:normal;font-stretch:normal;font-family:'CMU Serif';-inkscape-font-specification:'CMU Serif';stroke-width:1"
         x="169.69968"
         y="168.69502"
         id="tspan32">0.0134326923<tspan
   style="font-size:65%;baseline-shift:super"
   id="tspan52" /></tspan><tspan
         sodipodi:role="line"
         style="font-style:normal;font-variant:normal;font-weight:normal;font-stretch:normal;font-family:'CMU Serif';-inkscape-font-specification:'CMU Serif';stroke-width:1"
         x="169.69968"
         y="179.27835"
         id="tspan45" /><tspan
         sodipodi:role="line"
         style="font-style:normal;font-variant:normal;font-weight:normal;font-stretch:normal;font-family:'CMU Serif';-inkscape-font-specification:'CMU Serif';stroke-width:1"
         x="169.69968"
         y="189.86169"
         id="tspan34">0.0464558142</tspan><tspan
         sodipodi:role="line"
         style="font-style:normal;font-variant:normal;font-weight:normal;font-stretch:normal;font-family:'CMU Serif';-inkscape-font-specification:'CMU Serif';stroke-width:1"
         x="169.69968"
         y="200.44504"
         id="tspan46" /><tspan
         sodipodi:role="line"
         style="font-style:normal;font-variant:normal;font-weight:normal;font-stretch:normal;font-family:'CMU Serif';-inkscape-font-specification:'CMU Serif';stroke-width:1"
         x="169.69968"
         y="211.02837"
         id="tspan36">1.58755438</tspan><tspan
         sodipodi:role="line"
         style="font-style:normal;font-variant:normal;font-weight:normal;font-stretch:normal;font-family:'CMU Serif';-inkscape-font-specification:'CMU Serif';stroke-width:1"
         x="169.69968"
         y="221.61171"
         id="tspan47" /><tspan
         sodipodi:role="line"
         style="font-style:normal;font-variant:normal;font-weight:normal;font-stretch:normal;font-family:'CMU Serif';-inkscape-font-specification:'CMU Serif';stroke-width:1"
         x="169.69968"
         y="232.19504"
         id="tspan38">1.07222496</tspan><tspan
         sodipodi:role="line"
         style="font-style:normal;font-variant:normal;font-weight:normal;font-stretch:normal;font-family:'CMU Serif';-inkscape-font-specification:'CMU Serif';stroke-width:1"
         x="169.69968"
         y="242.77838"
         id="tspan48" /><tspan
         sodipodi:role="line"
         style="font-style:normal;font-variant:normal;font-weight:normal;font-stretch:normal;font-family:'CMU Serif';-inkscape-font-specification:'CMU Serif';stroke-width:1"
         x="169.69968"
         y="253.36172"
         id="tspan40">−0.0211208577</tspan></text>
  </g>
  <g
     inkscape:label="text copy"
     inkscape:groupmode="layer"
     id="g72"
     transform="translate(-142.42862,-57.129709)"
     style="display:inline">
    <g
       id="text72"
       style="font-weight:500;font-size:8.46667px;font-family:'CMU Serif';-inkscape-font-specification:'CMU Serif Medium';text-align:center;letter-spacing:0px;text-anchor:middle;stroke-linecap:square;stroke-linejoin:bevel;stroke-miterlimit:3.9;paint-order:markers stroke fill"
       inkscape:label="text1"
       aria-label="−0.0425495642&#10;&#10;1.52505438&#10;&#10;−0.977038906&#10;&#10;−0.121850961&#10;&#10;−1.07907781&#10;&#10;0.0134326923&#10;&#10;0.0464558142&#10;&#10;1.58755438&#10;&#10;1.07222496&#10;&#10;−0.0211208577">
      <path
         style="font-weight:normal;-inkscape-font-specification:'CMU Serif'"
         d="m 142.42862,60.753444 q 0,-0.1016 0.16934,-0.1016 h 5.19006 q 0.008,0 0.0423,0 0.0423,0 0.0508,0 0.0169,0 0.0423,0 0.0339,0 0.0423,0.0085 0.0169,0.0085 0.0339,0.01693 0.0169,0.0085 0.0254,0.0254 0.008,0.01693 0.008,0.04233 0,0.1016 -0.22014,0.1016 h -0.0169 q -0.0254,0 -0.0762,0 -0.0423,-0.0085 -0.0677,-0.0085 h -4.76674 q -0.0339,0 -0.1016,0.0085 -0.0593,0 -0.0931,0 h -0.0423 q -0.22014,0 -0.22014,-0.09313 z m 6.43467,-0.601134 q 0,-1.2446 0.31327,-1.921934 0.44026,-1.007533 1.4732,-1.007533 0.22013,0 0.44873,0.05927 0.2286,0.05927 0.51647,0.287867 0.29633,0.2286 0.47413,0.601134 0.33867,0.719666 0.33867,1.9812 0,1.236134 -0.31327,1.913468 -0.4572,0.982133 -1.4732,0.982133 -0.381,0 -0.77047,-0.194733 -0.381,-0.194733 -0.62653,-0.6604 -0.381,-0.702734 -0.381,-2.040468 z m 0.70273,-0.1016 q 0,1.278467 0.0931,1.786468 0.1016,0.550333 0.381,0.7874 0.28786,0.237067 0.60113,0.237067 0.33867,0 0.61807,-0.254 0.28786,-0.254 0.37253,-0.804334 0.0931,-0.541867 0.0931,-1.752601 0,-1.176867 -0.0847,-1.651 -0.11007,-0.550334 -0.4064,-0.770467 -0.29634,-0.220134 -0.59267,-0.220134 -0.11007,0 -0.2286,0.03387 -0.11853,0.03387 -0.28787,0.127 -0.16933,0.09313 -0.3048,0.3302 -0.127,0.237067 -0.18626,0.592667 -0.0677,0.4572 -0.0677,1.557867 z m 4.04706,2.675468 q -0.127,-0.135467 -0.127,-0.313267 0,-0.1778 0.127,-0.3048 0.127,-0.135467 0.32173,-0.135467 0.18627,0 0.31327,0.127 0.127,0.118534 0.127,0.313267 0,0.194734 -0.13547,0.321734 -0.13547,0.127 -0.3048,0.127 -0.19473,0 -0.32173,-0.135467 z m 1.83726,-2.573868 q 0,-1.2446 0.31327,-1.921934 0.44027,-1.007533 1.4732,-1.007533 0.22013,0 0.44873,0.05927 0.2286,0.05927 0.51647,0.287867 0.29633,0.2286 0.47413,0.601134 0.33867,0.719666 0.33867,1.9812 0,1.236134 -0.31327,1.913468 -0.4572,0.982133 -1.4732,0.982133 -0.381,0 -0.77046,-0.194733 -0.381,-0.194733 -0.62654,-0.6604 -0.381,-0.702734 -0.381,-2.040468 z m 0.70274,-0.1016 q 0,1.278467 0.0931,1.786468 0.1016,0.550333 0.381,0.7874 0.28787,0.237067 0.60113,0.237067 0.33867,0 0.61807,-0.254 0.28787,-0.254 0.37253,-0.804334 0.0931,-0.541867 0.0931,-1.752601 0,-1.176867 -0.0847,-1.651 -0.11007,-0.550334 -0.4064,-0.770467 -0.29633,-0.220134 -0.59267,-0.220134 -0.11006,0 -0.2286,0.03387 -0.11853,0.03387 -0.28786,0.127 -0.16934,0.09313 -0.3048,0.3302 -0.127,0.237067 -0.18627,0.592667 -0.0677,0.4572 -0.0677,1.557867 z m 3.43745,1.413934 v -0.262467 l 2.59926,-3.970868 q 0.0677,-0.1016 0.16934,-0.1016 0.0931,0 0.11006,0.04233 0.0254,0.03387 0.0254,0.177801 v 3.852334 h 0.84667 v 0.262467 h -0.84667 v 0.7366 q 0,0.245534 0.1016,0.321734 0.1016,0.0762 0.54187,0.0762 h 0.1778 v 0.262467 q -0.34713,-0.0254 -1.15147,-0.0254 -0.79586,0 -1.143,0.0254 v -0.262467 h 0.1778 q 0.44027,0 0.54187,-0.0762 0.1016,-0.0762 0.1016,-0.321734 v -0.7366 z m 0.23706,-0.262467 h 2.06587 v -3.158068 z m 4.18252,1.659468 q 0,-0.1524 0.008,-0.194734 0.0169,-0.0508 0.0847,-0.118533 l 1.6256,-1.811867 q 0.889,-0.999067 0.889,-1.871135 0,-0.567266 -0.29634,-0.973667 -0.29633,-0.4064 -0.8382,-0.4064 -0.37253,0 -0.6858,0.2286 -0.31326,0.2286 -0.4572,0.635001 0.0254,-0.0085 0.11007,-0.0085 0.21167,0 0.3302,0.135467 0.11853,0.127 0.11853,0.3048 0,0.2286 -0.1524,0.338667 -0.14393,0.110066 -0.28786,0.110066 -0.0593,0 -0.13547,-0.0085 -0.0762,-0.01693 -0.19473,-0.135467 -0.11854,-0.118533 -0.11854,-0.3302 0,-0.592667 0.44874,-1.058334 0.44873,-0.474133 1.13453,-0.474133 0.77893,0 1.28694,0.465666 0.508,0.457201 0.508,1.176867 0,0.254001 -0.0762,0.482601 -0.0762,0.2286 -0.1778,0.4064 -0.1016,0.1778 -0.37254,0.465667 -0.27093,0.2794 -0.49107,0.4826 -0.22013,0.2032 -0.7112,0.635 l -0.89746,0.872067 h 1.524 q 0.74507,0 0.80433,-0.06773 0.0847,-0.118534 0.18627,-0.753534 h 0.21167 l -0.23707,1.473201 z m 4.23332,-1.363134 q 0,-0.254 0.13547,-0.347134 0.13547,-0.1016 0.2794,-0.1016 0.19473,0 0.3048,0.127 0.11853,0.118534 0.11853,0.287867 0,0.169334 -0.11853,0.296334 -0.11007,0.118533 -0.3048,0.118533 -0.0931,0 -0.14393,-0.01693 0.11006,0.389467 0.44873,0.668867 0.34713,0.2794 0.79587,0.2794 0.56726,0 0.90593,-0.550334 0.2032,-0.3556 0.2032,-1.159934 0,-0.7112 -0.1524,-1.0668 -0.23707,-0.541867 -0.71967,-0.541867 -0.6858,0 -1.0922,0.592667 -0.0508,0.0762 -0.11006,0.0762 -0.0847,0 -0.1016,-0.04233 -0.0169,-0.0508 -0.0169,-0.1778 v -2.506135 q 0,-0.2032 0.0847,-0.2032 0.0339,0 0.1016,0.0254 0.5334,0.237067 1.12607,0.237067 0.6096,0 1.15146,-0.245533 0.0423,-0.0254 0.0677,-0.0254 0.0847,0 0.0847,0.09313 0,0.03387 -0.0677,0.135467 -0.0677,0.09313 -0.21167,0.220133 -0.14393,0.127 -0.3302,0.245533 -0.18626,0.118534 -0.4572,0.203201 -0.27093,0.0762 -0.56726,0.0762 -0.3556,0 -0.71967,-0.110067 v 1.651001 q 0.44027,-0.431801 1.07527,-0.431801 0.67733,0 1.143,0.550334 0.46566,0.541867 0.46566,1.303867 0,0.795867 -0.55033,1.346201 -0.55033,0.541866 -1.2954,0.541866 -0.67733,0 -1.10913,-0.4826 -0.42334,-0.4826 -0.42334,-1.0668 z m 4.04705,-0.03387 v -0.262467 l 2.59927,-3.970868 q 0.0677,-0.1016 0.16934,-0.1016 0.0931,0 0.11006,0.04233 0.0254,0.03387 0.0254,0.177801 v 3.852334 h 0.84667 v 0.262467 h -0.84667 v 0.7366 q 0,0.245534 0.1016,0.321734 0.1016,0.0762 0.54187,0.0762 h 0.1778 v 0.262467 q -0.34713,-0.0254 -1.15147,-0.0254 -0.79587,0 -1.143,0.0254 v -0.262467 h 0.1778 q 0.44027,0 0.54187,-0.0762 0.1016,-0.0762 0.1016,-0.321734 v -0.7366 z m 0.23707,-0.262467 h 2.06587 v -3.158068 z m 4.11479,-2.074334 q 0,-0.448733 0.127,-0.753533 0.13546,-0.313267 0.41486,-0.618067 0.508,-0.5334 1.2446,-0.5334 0.31327,0 0.59267,0.135466 0.2794,0.127 0.54187,0.4318 0.27093,0.296334 0.4318,0.889001 0.16086,0.5842 0.16086,1.397 0,1.312334 -0.635,2.142068 -0.635,0.829733 -1.49013,0.829733 -0.54187,0 -0.8636,-0.245533 -0.31327,-0.245533 -0.31327,-0.668867 0,-0.220133 0.11854,-0.313267 0.127,-0.09313 0.27093,-0.09313 0.1524,0 0.27093,0.1016 0.11854,0.1016 0.11854,0.287867 0,0.1524 -0.1016,0.270933 -0.0931,0.118534 -0.33867,0.118534 0.24553,0.3048 0.82973,0.3048 0.21167,0 0.42334,-0.09313 0.21166,-0.1016 0.44026,-0.338666 0.2286,-0.237067 0.36407,-0.736601 0.14393,-0.499533 0.14393,-1.202267 v -0.270933 q -0.33866,0.846667 -1.05833,0.846667 -0.7112,0 -1.20227,-0.541867 -0.49106,-0.550334 -0.49106,-1.346201 z m 0.762,0.0085 q 0,0.8382 0.1524,1.151467 0.26246,0.5334 0.7874,0.5334 0.51646,0 0.77046,-0.4572 0.26247,-0.465667 0.26247,-1.0668 0,-0.829734 -0.13547,-1.193801 -0.254,-0.668867 -0.8128,-0.668867 -0.5588,0 -0.84666,0.5334 -0.1778,0.313267 -0.1778,1.168401 z m 3.53905,2.362201 q 0,-0.254 0.13546,-0.347134 0.13547,-0.1016 0.2794,-0.1016 0.19474,0 0.3048,0.127 0.11854,0.118534 0.11854,0.287867 0,0.169334 -0.11854,0.296334 -0.11006,0.118533 -0.3048,0.118533 -0.0931,0 -0.14393,-0.01693 0.11007,0.389467 0.44873,0.668867 0.34714,0.2794 0.79587,0.2794 0.56727,0 0.90593,-0.550334 0.20321,-0.3556 0.20321,-1.159934 0,-0.7112 -0.15241,-1.0668 -0.23706,-0.541867 -0.71966,-0.541867 -0.6858,0 -1.0922,0.592667 -0.0508,0.0762 -0.11007,0.0762 -0.0847,0 -0.1016,-0.04233 -0.0169,-0.0508 -0.0169,-0.1778 v -2.506135 q 0,-0.2032 0.0847,-0.2032 0.0339,0 0.1016,0.0254 0.5334,0.237067 1.12607,0.237067 0.6096,0 1.15147,-0.245533 0.0423,-0.0254 0.0677,-0.0254 0.0847,0 0.0847,0.09313 0,0.03387 -0.0677,0.135467 -0.0677,0.09313 -0.21167,0.220133 -0.14393,0.127 -0.3302,0.245533 -0.18627,0.118534 -0.4572,0.203201 -0.27094,0.0762 -0.56727,0.0762 -0.3556,0 -0.71967,-0.110067 v 1.651001 q 0.44027,-0.431801 1.07527,-0.431801 0.67733,0 1.143,0.550334 0.46567,0.541867 0.46567,1.303867 0,0.795867 -0.55033,1.346201 -0.55034,0.541866 -1.29541,0.541866 -0.67733,0 -1.10913,-0.4826 -0.42333,-0.4826 -0.42333,-1.0668 z m 4.16558,-1.312334 q 0,-1.329267 0.67734,-2.142068 0.67733,-0.821266 1.5494,-0.821266 0.508,0 0.7874,0.262466 0.28786,0.254 0.28786,0.651934 0,0.220133 -0.127,0.313267 -0.127,0.09313 -0.26246,0.09313 -0.1524,0 -0.27094,-0.1016 -0.11853,-0.1016 -0.11853,-0.287867 0,-0.381 0.46567,-0.381 -0.22014,-0.338667 -0.74507,-0.338667 -0.16087,0 -0.3302,0.0508 -0.16087,0.04233 -0.381,0.2032 -0.21167,0.1524 -0.381,0.406401 -0.16087,0.245533 -0.2794,0.7112 -0.11007,0.465667 -0.11007,1.075267 v 0.2032 q 0.34714,-0.8382 1.05834,-0.8382 0.7112,0 1.20226,0.541867 0.49107,0.541866 0.49107,1.3462 0,0.821267 -0.51647,1.371601 -0.508,0.541866 -1.22766,0.541866 -0.32174,0 -0.61807,-0.135466 -0.28787,-0.135467 -0.5588,-0.440267 -0.27093,-0.3048 -0.4318,-0.889 -0.16087,-0.592667 -0.16087,-1.397001 z m 0.77894,0.762 q 0,0.829734 0.1524,1.227667 0.0254,0.06773 0.0762,0.160867 0.0593,0.08467 0.1524,0.2032 0.1016,0.118534 0.26246,0.194734 0.16087,0.0762 0.34714,0.0762 0.56726,0 0.8382,-0.550334 0.14393,-0.3048 0.14393,-1.134534 0,-0.846667 -0.1524,-1.159933 -0.26247,-0.524934 -0.7874,-0.524934 -0.3556,0 -0.60113,0.245533 -0.24554,0.245534 -0.33867,0.575734 -0.0931,0.321734 -0.0931,0.6858 z m 3.33585,0.516467 v -0.262467 l 2.59927,-3.970868 q 0.0677,-0.1016 0.16933,-0.1016 0.0931,0 0.11007,0.04233 0.0254,0.03387 0.0254,0.177801 v 3.852334 h 0.84667 v 0.262467 h -0.84667 v 0.7366 q 0,0.245534 0.1016,0.321734 0.1016,0.0762 0.54187,0.0762 h 0.1778 v 0.262467 q -0.34714,-0.0254 -1.15147,-0.0254 -0.79587,0 -1.143,0.0254 v -0.262467 h 0.1778 q 0.44027,0 0.54187,-0.0762 0.1016,-0.0762 0.1016,-0.321734 v -0.7366 z m 0.23707,-0.262467 h 2.06587 v -3.158068 z m 4.18252,1.659468 q 0,-0.1524 0.008,-0.194734 0.0169,-0.0508 0.0847,-0.118533 l 1.6256,-1.811867 q 0.889,-0.999067 0.889,-1.871135 0,-0.567266 -0.29633,-0.973667 -0.29634,-0.4064 -0.8382,-0.4064 -0.37254,0 -0.6858,0.2286 -0.31327,0.2286 -0.4572,0.635001 0.0254,-0.0085 0.11006,-0.0085 0.21167,0 0.3302,0.135467 0.11854,0.127 0.11854,0.3048 0,0.2286 -0.1524,0.338667 -0.14394,0.110066 -0.28787,0.110066 -0.0593,0 -0.13547,-0.0085 -0.0762,-0.01693 -0.19473,-0.135467 -0.11853,-0.118533 -0.11853,-0.3302 0,-0.592667 0.44873,-1.058334 0.44873,-0.474133 1.13453,-0.474133 0.77894,0 1.28694,0.465666 0.508,0.457201 0.508,1.176867 0,0.254001 -0.0762,0.482601 -0.0762,0.2286 -0.1778,0.4064 -0.1016,0.1778 -0.37254,0.465667 -0.27093,0.2794 -0.49106,0.4826 -0.22014,0.2032 -0.7112,0.635 l -0.89747,0.872067 h 1.524 q 0.74507,0 0.80433,-0.06773 0.0847,-0.118534 0.18627,-0.753534 h 0.21167 l -0.23707,1.473201 z"
         id="path72" />
      <path
         style="font-weight:normal;-inkscape-font-specification:'CMU Serif'"
         d="m 150.22641,79.193851 v -0.262467 q 1.016,0 1.54093,-0.541866 0.14394,0 0.16934,0.03387 0.0254,0.03387 0.0254,0.186267 v 4.749802 q 0,0.254 0.11853,0.3302 0.127,0.0762 0.66887,0.0762 h 0.27093 v 0.262467 q -0.29633,-0.0254 -1.3716,-0.0254 -1.07527,0 -1.3716,0.0254 v -0.262467 h 0.27093 q 0.5334,0 0.6604,-0.0762 0.127,-0.0762 0.127,-0.3302 v -4.385735 q -0.44026,0.220133 -1.10913,0.220133 z m 4.32645,4.699002 q -0.127,-0.135467 -0.127,-0.313267 0,-0.1778 0.127,-0.3048 0.127,-0.135467 0.32173,-0.135467 0.18627,0 0.31327,0.127001 0.127,0.118533 0.127,0.313266 0,0.194734 -0.13547,0.321734 -0.13546,0.127 -0.3048,0.127 -0.19473,0 -0.32173,-0.135467 z m 1.9304,-1.227667 q 0,-0.254 0.13547,-0.347134 0.13546,-0.1016 0.2794,-0.1016 0.19473,0 0.3048,0.127 0.11853,0.118534 0.11853,0.287867 0,0.169334 -0.11853,0.296334 -0.11007,0.118533 -0.3048,0.118533 -0.0931,0 -0.14394,-0.01693 0.11007,0.389467 0.44874,0.668867 0.34713,0.2794 0.79586,0.2794 0.56727,0 0.90594,-0.550334 0.2032,-0.3556 0.2032,-1.159934 0,-0.7112 -0.1524,-1.0668 -0.23707,-0.541867 -0.71967,-0.541867 -0.6858,0 -1.0922,0.592667 -0.0508,0.0762 -0.11007,0.0762 -0.0847,0 -0.1016,-0.04233 -0.0169,-0.0508 -0.0169,-0.1778 v -2.506135 q 0,-0.2032 0.0847,-0.2032 0.0339,0 0.1016,0.0254 0.5334,0.237067 1.12606,0.237067 0.60961,0 1.15147,-0.245533 0.0423,-0.0254 0.0677,-0.0254 0.0847,0 0.0847,0.09313 0,0.03387 -0.0677,0.135467 -0.0677,0.09313 -0.21167,0.220133 -0.14393,0.127 -0.3302,0.245534 -0.18626,0.118533 -0.4572,0.2032 -0.27093,0.0762 -0.56727,0.0762 -0.3556,0 -0.71966,-0.110067 v 1.651001 q 0.44026,-0.431801 1.07526,-0.431801 0.67734,0 1.14301,0.550334 0.46566,0.541867 0.46566,1.303867 0,0.795867 -0.55033,1.346201 -0.55033,0.541867 -1.2954,0.541867 -0.67734,0 -1.10914,-0.482601 -0.42333,-0.4826 -0.42333,-1.0668 z m 4.23332,1.363134 q 0,-0.1524 0.008,-0.194734 0.0169,-0.0508 0.0847,-0.118533 l 1.6256,-1.811867 q 0.889,-0.999067 0.889,-1.871134 0,-0.567267 -0.29633,-0.973667 -0.29633,-0.406401 -0.8382,-0.406401 -0.37253,0 -0.6858,0.2286 -0.31327,0.228601 -0.4572,0.635001 0.0254,-0.0085 0.11007,-0.0085 0.21166,0 0.3302,0.135467 0.11853,0.127 0.11853,0.3048 0,0.2286 -0.1524,0.338667 -0.14393,0.110066 -0.28787,0.110066 -0.0593,0 -0.13546,-0.0085 -0.0762,-0.01693 -0.19474,-0.135467 -0.11853,-0.118533 -0.11853,-0.3302 0,-0.592667 0.44873,-1.058334 0.44874,-0.474133 1.13454,-0.474133 0.77893,0 1.28693,0.465666 0.508,0.457201 0.508,1.176868 0,0.254 -0.0762,0.4826 -0.0762,0.2286 -0.1778,0.4064 -0.1016,0.1778 -0.37253,0.465667 -0.27094,0.2794 -0.49107,0.4826 -0.22013,0.2032 -0.7112,0.635 l -0.89747,0.872067 h 1.524 q 0.74507,0 0.80434,-0.06773 0.0847,-0.118533 0.18626,-0.753534 h 0.21167 l -0.23707,1.473201 z m 4.23332,-1.363134 q 0,-0.254 0.13547,-0.347134 0.13546,-0.1016 0.2794,-0.1016 0.19473,0 0.3048,0.127 0.11853,0.118534 0.11853,0.287867 0,0.169334 -0.11853,0.296334 -0.11007,0.118533 -0.3048,0.118533 -0.0931,0 -0.14394,-0.01693 0.11007,0.389467 0.44874,0.668867 0.34713,0.2794 0.79586,0.2794 0.56727,0 0.90594,-0.550334 0.2032,-0.3556 0.2032,-1.159934 0,-0.7112 -0.1524,-1.0668 -0.23707,-0.541867 -0.71967,-0.541867 -0.6858,0 -1.0922,0.592667 -0.0508,0.0762 -0.11007,0.0762 -0.0847,0 -0.1016,-0.04233 -0.0169,-0.0508 -0.0169,-0.1778 v -2.506135 q 0,-0.2032 0.0847,-0.2032 0.0339,0 0.1016,0.0254 0.5334,0.237067 1.12606,0.237067 0.6096,0 1.15147,-0.245533 0.0423,-0.0254 0.0677,-0.0254 0.0847,0 0.0847,0.09313 0,0.03387 -0.0677,0.135467 -0.0677,0.09313 -0.21167,0.220133 -0.14393,0.127 -0.3302,0.245534 -0.18627,0.118533 -0.4572,0.2032 -0.27093,0.0762 -0.56727,0.0762 -0.3556,0 -0.71966,-0.110067 v 1.651001 q 0.44026,-0.431801 1.07526,-0.431801 0.67734,0 1.143,0.550334 0.46567,0.541867 0.46567,1.303867 0,0.795867 -0.55033,1.346201 -0.55034,0.541867 -1.2954,0.541867 -0.67734,0 -1.10914,-0.482601 -0.42333,-0.4826 -0.42333,-1.0668 z m 4.14018,-1.346201 q 0,-1.2446 0.31327,-1.921934 0.44027,-1.007533 1.4732,-1.007533 0.22013,0 0.44873,0.05927 0.2286,0.05927 0.51647,0.287867 0.29633,0.2286 0.47413,0.601134 0.33867,0.719667 0.33867,1.9812 0,1.236134 -0.31327,1.913468 -0.4572,0.982134 -1.4732,0.982134 -0.381,0 -0.77046,-0.194734 -0.381,-0.194733 -0.62654,-0.6604 -0.381,-0.702734 -0.381,-2.040468 z m 0.70274,-0.1016 q 0,1.278468 0.0931,1.786468 0.1016,0.550333 0.381,0.7874 0.28787,0.237067 0.60113,0.237067 0.33867,0 0.61807,-0.254 0.28787,-0.254 0.37253,-0.804334 0.0931,-0.541867 0.0931,-1.752601 0,-1.176867 -0.0847,-1.651 -0.11007,-0.550334 -0.4064,-0.770467 -0.29633,-0.220134 -0.59267,-0.220134 -0.11006,0 -0.2286,0.03387 -0.11853,0.03387 -0.28786,0.127 -0.16934,0.09313 -0.3048,0.3302 -0.127,0.237067 -0.18627,0.592667 -0.0677,0.4572 -0.0677,1.557867 z m 3.62372,1.447801 q 0,-0.254 0.13546,-0.347134 0.13547,-0.1016 0.2794,-0.1016 0.19474,0 0.3048,0.127 0.11854,0.118534 0.11854,0.287867 0,0.169334 -0.11854,0.296334 -0.11006,0.118533 -0.3048,0.118533 -0.0931,0 -0.14393,-0.01693 0.11007,0.389467 0.44873,0.668867 0.34714,0.2794 0.79587,0.2794 0.56727,0 0.90593,-0.550334 0.2032,-0.3556 0.2032,-1.159934 0,-0.7112 -0.1524,-1.0668 -0.23706,-0.541867 -0.71966,-0.541867 -0.6858,0 -1.0922,0.592667 -0.0508,0.0762 -0.11007,0.0762 -0.0847,0 -0.1016,-0.04233 -0.0169,-0.0508 -0.0169,-0.1778 v -2.506135 q 0,-0.2032 0.0847,-0.2032 0.0339,0 0.1016,0.0254 0.5334,0.237067 1.12607,0.237067 0.6096,0 1.15147,-0.245533 0.0423,-0.0254 0.0677,-0.0254 0.0847,0 0.0847,0.09313 0,0.03387 -0.0677,0.135467 -0.0677,0.09313 -0.21166,0.220133 -0.14394,0.127 -0.3302,0.245534 -0.18627,0.118533 -0.4572,0.2032 -0.27094,0.0762 -0.56727,0.0762 -0.3556,0 -0.71967,-0.110067 v 1.651001 q 0.44027,-0.431801 1.07527,-0.431801 0.67733,0 1.143,0.550334 0.46567,0.541867 0.46567,1.303867 0,0.795867 -0.55034,1.346201 -0.55033,0.541867 -1.2954,0.541867 -0.67733,0 -1.10913,-0.482601 -0.42333,-0.4826 -0.42333,-1.0668 z m 4.04705,-0.03387 v -0.262466 l 2.59927,-3.970869 q 0.0677,-0.1016 0.16933,-0.1016 0.0931,0 0.11007,0.04233 0.0254,0.03387 0.0254,0.1778 v 3.852335 h 0.84666 v 0.262466 h -0.84666 v 0.736601 q 0,0.245533 0.1016,0.321733 0.1016,0.0762 0.54186,0.0762 h 0.1778 v 0.262467 q -0.34713,-0.0254 -1.15146,-0.0254 -0.79587,0 -1.143,0.0254 v -0.262467 h 0.1778 q 0.44026,0 0.54186,-0.0762 0.1016,-0.0762 0.1016,-0.321733 v -0.736601 z m 0.23707,-0.262466 h 2.06586 v -3.158068 z m 4.11478,0.516466 q 0,-0.254 0.14393,-0.372533 0.14394,-0.118533 0.3302,-0.118533 0.19474,0 0.3302,0.127 0.14394,0.127 0.14394,0.347133 0,0.237067 -0.16934,0.372534 -0.16086,0.127 -0.38946,0.09313 0.2032,0.338667 0.57573,0.491067 0.37253,0.1524 0.71967,0.1524 0.36406,0 0.6604,-0.313267 0.29633,-0.313267 0.29633,-1.083734 0,-0.651933 -0.254,-1.024467 -0.254,-0.381 -0.75353,-0.381 h -0.37254 q -0.127,0 -0.16933,-0.0085 -0.0339,-0.01693 -0.0339,-0.08467 0,-0.08467 0.127,-0.1016 0.127,0 0.3302,-0.0254 0.49107,-0.01693 0.75354,-0.440267 0.23706,-0.397934 0.23706,-0.965201 0,-0.516466 -0.24553,-0.728133 -0.24553,-0.220134 -0.56727,-0.220134 -0.29633,0 -0.62653,0.127 -0.32173,0.118534 -0.49953,0.397934 0.52493,0 0.52493,0.423333 0,0.186267 -0.11853,0.313267 -0.11854,0.118534 -0.31327,0.118534 -0.18627,0 -0.31327,-0.118534 -0.11853,-0.118533 -0.11853,-0.321733 0,-0.4826 0.4318,-0.812801 0.4318,-0.338666 1.0668,-0.338666 0.62653,0 1.0922,0.3302 0.46567,0.3302 0.46567,0.8382 0,0.499534 -0.3302,0.9144 -0.3302,0.406401 -0.85514,0.575734 0.64347,0.127 1.02447,0.567267 0.38947,0.4318 0.38947,0.9652 0,0.660401 -0.52494,1.151467 -0.51646,0.482601 -1.27846,0.482601 -0.70274,0 -1.21074,-0.381001 -0.49953,-0.381 -0.49953,-0.948267 z m 4.23332,-0.135466 q 0,-0.948267 1.2192,-1.557868 -0.52493,-0.3556 -0.61807,-0.4572 -0.37253,-0.414867 -0.37253,-0.931334 0,-0.592666 0.44873,-0.999067 0.44874,-0.414866 1.08374,-0.414866 0.6096,0 1.0668,0.3556 0.4572,0.347133 0.4572,0.905933 0,0.787401 -1.02447,1.312334 0.67733,0.423334 0.8382,0.601134 0.41487,0.4572 0.41487,1.0414 0,0.677334 -0.52494,1.143001 -0.51646,0.465667 -1.23613,0.465667 -0.70273,0 -1.22767,-0.406401 -0.52493,-0.414866 -0.52493,-1.058333 z m 0.42333,0 q 0,0.524933 0.38947,0.880533 0.39793,0.347134 0.94827,0.347134 0.5334,0 0.93133,-0.3048 0.39793,-0.3048 0.39793,-0.762001 0,-0.1778 -0.0593,-0.3302 -0.0593,-0.1524 -0.1778,-0.270933 -0.11854,-0.127 -0.19474,-0.1778 -0.0677,-0.05927 -0.2032,-0.1524 l -1.0414,-0.660401 q -0.9906,0.550334 -0.9906,1.430868 z m 0.1778,-3.276602 q 0,0.406401 0.42334,0.685801 l 1.04986,0.677333 q 0.8382,-0.491067 0.8382,-1.185334 0,-0.448733 -0.34713,-0.745067 -0.33867,-0.3048 -0.8128,-0.3048 -0.46567,0 -0.8128,0.245534 -0.33867,0.245533 -0.33867,0.626533 z"
         id="path73" />
      <path
         style="font-weight:normal;-inkscape-font-specification:'CMU Serif'"
         d="m 144.54528,103.08679 q 0,-0.1016 0.16934,-0.1016 h 5.19006 q 0.008,0 0.0423,0 0.0423,0 0.0508,0 0.0169,0 0.0423,0 0.0339,0 0.0423,0.008 0.0169,0.008 0.0339,0.0169 0.0169,0.008 0.0254,0.0254 0.008,0.0169 0.008,0.0423 0,0.1016 -0.22014,0.1016 h -0.0169 q -0.0254,0 -0.0762,0 -0.0423,-0.008 -0.0677,-0.008 h -4.76674 q -0.0339,0 -0.1016,0.008 -0.0593,0 -0.0931,0 h -0.0423 q -0.22014,0 -0.22014,-0.0931 z m 6.43467,-0.60113 q 0,-1.2446 0.31327,-1.92193 0.44026,-1.007537 1.4732,-1.007537 0.22013,0 0.44873,0.05927 0.2286,0.05927 0.51647,0.287867 0.29633,0.228604 0.47413,0.601134 0.33867,0.71967 0.33867,1.9812 0,1.23613 -0.31327,1.91347 -0.4572,0.98213 -1.4732,0.98213 -0.381,0 -0.77047,-0.19473 -0.381,-0.19474 -0.62653,-0.6604 -0.381,-0.70274 -0.381,-2.04047 z m 0.70273,-0.1016 q 0,1.27847 0.0931,1.78647 0.1016,0.55033 0.381,0.7874 0.28786,0.23706 0.60113,0.23706 0.33867,0 0.61807,-0.254 0.28786,-0.254 0.37253,-0.80433 0.0931,-0.54187 0.0931,-1.7526 0,-1.17687 -0.0847,-1.651 -0.11007,-0.55033 -0.4064,-0.770467 -0.29634,-0.220134 -0.59267,-0.220134 -0.11007,0 -0.2286,0.03387 -0.11853,0.03387 -0.28787,0.127 -0.16933,0.09313 -0.3048,0.330204 -0.127,0.23706 -0.18626,0.59266 -0.0677,0.4572 -0.0677,1.55787 z m 4.04706,2.67547 q -0.127,-0.13547 -0.127,-0.31327 0,-0.1778 0.127,-0.3048 0.127,-0.13547 0.32173,-0.13547 0.18627,0 0.31327,0.127 0.127,0.11854 0.127,0.31327 0,0.19473 -0.13547,0.32173 -0.13547,0.127 -0.3048,0.127 -0.19473,0 -0.32173,-0.13546 z m 1.86266,-3.59834 q 0,-0.44873 0.127,-0.75353 0.13547,-0.31327 0.41487,-0.61807 0.508,-0.533397 1.2446,-0.533397 0.31327,0 0.59267,0.135466 0.2794,0.127 0.54186,0.431801 0.27094,0.29633 0.4318,0.889 0.16087,0.5842 0.16087,1.397 0,1.31233 -0.635,2.14207 -0.635,0.82973 -1.49013,0.82973 -0.54187,0 -0.8636,-0.24553 -0.31327,-0.24554 -0.31327,-0.66887 0,-0.22013 0.11853,-0.31327 0.127,-0.0931 0.27094,-0.0931 0.1524,0 0.27093,0.1016 0.11853,0.1016 0.11853,0.28787 0,0.1524 -0.1016,0.27093 -0.0931,0.11853 -0.33866,0.11853 0.24553,0.3048 0.82973,0.3048 0.21167,0 0.42333,-0.0931 0.21167,-0.1016 0.44027,-0.33867 0.2286,-0.23706 0.36407,-0.7366 0.14393,-0.49953 0.14393,-1.20226 v -0.27094 q -0.33867,0.84667 -1.05833,0.84667 -0.7112,0 -1.20227,-0.54187 -0.49107,-0.55033 -0.49107,-1.3462 z m 0.762,0.008 q 0,0.8382 0.1524,1.15147 0.26247,0.5334 0.7874,0.5334 0.51647,0 0.77047,-0.4572 0.26247,-0.46567 0.26247,-1.0668 0,-0.82974 -0.13547,-1.1938 -0.254,-0.668871 -0.8128,-0.668871 -0.5588,0 -0.84667,0.533401 -0.1778,0.31327 -0.1778,1.1684 z m 3.58985,-0.254 0.2794,-1.744134 h 0.21167 q 0.0254,0.1016 0.0677,0.1524 0.0423,0.04233 0.2794,0.08467 0.24554,0.03387 0.7366,0.03387 h 2.0574 q 0,0.194734 -0.0762,0.296331 l -1.143,1.60867 q -0.36406,0.508 -0.52493,1.4478 -0.0931,0.62653 -0.0931,1.38853 v 0.4318 q 0,0.46567 -0.38947,0.46567 -0.38947,0 -0.38947,-0.46567 0,-1.61713 1.0414,-3.18346 0.11007,-0.16087 0.51647,-0.7366 0.41487,-0.57574 0.4318,-0.60114 h -1.7526 q -0.77047,0 -0.82973,0.0508 -0.0847,0.0762 -0.21167,0.77047 z m 4.23332,0 0.2794,-1.744134 h 0.21167 q 0.0254,0.1016 0.0677,0.1524 0.0423,0.04233 0.2794,0.08467 0.24554,0.03387 0.7366,0.03387 h 2.0574 q 0,0.194734 -0.0762,0.296331 l -1.143,1.60867 q -0.36406,0.508 -0.52493,1.4478 -0.0931,0.62653 -0.0931,1.38853 v 0.4318 q 0,0.46567 -0.38947,0.46567 -0.38947,0 -0.38947,-0.46567 0,-1.61713 1.0414,-3.18346 0.11007,-0.16087 0.51647,-0.7366 0.41487,-0.57574 0.4318,-0.60114 h -1.7526 q -0.77047,0 -0.82973,0.0508 -0.0847,0.0762 -0.21167,0.77047 z m 4.08939,1.27 q 0,-1.2446 0.31327,-1.92193 0.44026,-1.007537 1.4732,-1.007537 0.22013,0 0.44873,0.05927 0.2286,0.05927 0.51647,0.287867 0.29633,0.228604 0.47413,0.601134 0.33867,0.71967 0.33867,1.9812 0,1.23613 -0.31327,1.91347 -0.4572,0.98213 -1.4732,0.98213 -0.381,0 -0.77047,-0.19473 -0.381,-0.19474 -0.62653,-0.6604 -0.381,-0.70274 -0.381,-2.04047 z m 0.70273,-0.1016 q 0,1.27847 0.0931,1.78647 0.1016,0.55033 0.381,0.7874 0.28786,0.23706 0.60113,0.23706 0.33867,0 0.61807,-0.254 0.28786,-0.254 0.37253,-0.80433 0.0931,-0.54187 0.0931,-1.7526 0,-1.17687 -0.0847,-1.651 -0.11007,-0.55033 -0.4064,-0.770467 -0.29634,-0.220134 -0.59267,-0.220134 -0.11007,0 -0.2286,0.03387 -0.11853,0.03387 -0.28787,0.127 -0.16933,0.09313 -0.3048,0.330204 -0.127,0.23706 -0.18626,0.59266 -0.0677,0.4572 -0.0677,1.55787 z m 3.55599,1.66793 q 0,-0.254 0.14393,-0.37253 0.14393,-0.11853 0.3302,-0.11853 0.19473,0 0.3302,0.127 0.14393,0.127 0.14393,0.34713 0,0.23707 -0.16933,0.37253 -0.16087,0.127 -0.38947,0.0931 0.2032,0.33866 0.57574,0.49106 0.37253,0.1524 0.71966,0.1524 0.36407,0 0.6604,-0.31326 0.29634,-0.31327 0.29634,-1.08374 0,-0.65193 -0.254,-1.02446 -0.254,-0.381 -0.75354,-0.381 h -0.37253 q -0.127,0 -0.16933,-0.008 -0.0339,-0.0169 -0.0339,-0.0847 0,-0.0847 0.127,-0.1016 0.127,0 0.3302,-0.0254 0.49107,-0.0169 0.75353,-0.44026 0.23707,-0.39794 0.23707,-0.9652 0,-0.51647 -0.24553,-0.728137 -0.24554,-0.220134 -0.56727,-0.220134 -0.29633,0 -0.62653,0.127 -0.32174,0.118531 -0.49954,0.397931 0.52494,0 0.52494,0.42334 0,0.18626 -0.11854,0.31326 -0.11853,0.11854 -0.31326,0.11854 -0.18627,0 -0.31327,-0.11854 -0.11853,-0.11853 -0.11853,-0.32173 0,-0.4826 0.4318,-0.812801 0.4318,-0.338666 1.0668,-0.338666 0.62653,0 1.0922,0.3302 0.46566,0.330197 0.46566,0.838197 0,0.49954 -0.3302,0.9144 -0.3302,0.4064 -0.85513,0.57574 0.64347,0.127 1.02447,0.56726 0.38946,0.4318 0.38946,0.9652 0,0.6604 -0.52493,1.15147 -0.51647,0.4826 -1.27847,0.4826 -0.70273,0 -1.21073,-0.381 -0.49953,-0.381 -0.49953,-0.94827 z m 4.23332,-0.13546 q 0,-0.94827 1.2192,-1.55787 -0.52494,-0.3556 -0.61807,-0.4572 -0.37253,-0.41487 -0.37253,-0.93133 0,-0.59267 0.44873,-0.99907 0.44873,-0.414867 1.08373,-0.414867 0.6096,0 1.0668,0.3556 0.4572,0.347137 0.4572,0.905937 0,0.7874 -1.02446,1.31233 0.67733,0.42333 0.8382,0.60113 0.41486,0.4572 0.41486,1.0414 0,0.67734 -0.52493,1.143 -0.51647,0.46567 -1.23613,0.46567 -0.70274,0 -1.22767,-0.4064 -0.52493,-0.41487 -0.52493,-1.05833 z m 0.42333,0 q 0,0.52493 0.38947,0.88053 0.39793,0.34713 0.94826,0.34713 0.5334,0 0.93134,-0.3048 0.39793,-0.3048 0.39793,-0.762 0,-0.1778 -0.0593,-0.3302 -0.0593,-0.1524 -0.1778,-0.27093 -0.11853,-0.127 -0.19473,-0.1778 -0.0677,-0.0593 -0.2032,-0.1524 l -1.0414,-0.6604 q -0.9906,0.55033 -0.9906,1.43087 z m 0.1778,-3.2766 q 0,0.4064 0.42333,0.6858 l 1.04987,0.67733 q 0.8382,-0.49107 0.8382,-1.18533 0,-0.44874 -0.34713,-0.74507 -0.33867,-0.304801 -0.8128,-0.304801 -0.46567,0 -0.8128,0.245531 -0.33867,0.24554 -0.33867,0.62654 z m 3.63218,0.82126 q 0,-0.44873 0.127,-0.75353 0.13547,-0.31327 0.41487,-0.61807 0.508,-0.533397 1.2446,-0.533397 0.31327,0 0.59267,0.135466 0.2794,0.127 0.54186,0.431801 0.27094,0.29633 0.4318,0.889 0.16087,0.5842 0.16087,1.397 0,1.31233 -0.635,2.14207 -0.635,0.82973 -1.49013,0.82973 -0.54187,0 -0.8636,-0.24553 -0.31327,-0.24554 -0.31327,-0.66887 0,-0.22013 0.11853,-0.31327 0.127,-0.0931 0.27094,-0.0931 0.1524,0 0.27093,0.1016 0.11853,0.1016 0.11853,0.28787 0,0.1524 -0.1016,0.27093 -0.0931,0.11853 -0.33866,0.11853 0.24553,0.3048 0.82973,0.3048 0.21167,0 0.42333,-0.0931 0.21167,-0.1016 0.44027,-0.33867 0.2286,-0.23706 0.36407,-0.7366 0.14393,-0.49953 0.14393,-1.20226 v -0.27094 q -0.33867,0.84667 -1.05833,0.84667 -0.7112,0 -1.20227,-0.54187 -0.49107,-0.55033 -0.49107,-1.3462 z m 0.762,0.008 q 0,0.8382 0.1524,1.15147 0.26247,0.5334 0.7874,0.5334 0.51647,0 0.77047,-0.4572 0.26247,-0.46567 0.26247,-1.0668 0,-0.82974 -0.13547,-1.1938 -0.254,-0.668871 -0.8128,-0.668871 -0.5588,0 -0.84667,0.533401 -0.1778,0.31327 -0.1778,1.1684 z m 3.44592,1.016 q 0,-1.2446 0.31327,-1.92193 0.44027,-1.007537 1.4732,-1.007537 0.22013,0 0.44873,0.05927 0.2286,0.05927 0.51647,0.287867 0.29633,0.228604 0.47413,0.601134 0.33867,0.71967 0.33867,1.9812 0,1.23613 -0.31327,1.91347 -0.4572,0.98213 -1.4732,0.98213 -0.381,0 -0.77046,-0.19473 -0.381,-0.19474 -0.62654,-0.6604 -0.381,-0.70274 -0.381,-2.04047 z m 0.70274,-0.1016 q 0,1.27847 0.0931,1.78647 0.1016,0.55033 0.381,0.7874 0.28787,0.23706 0.60113,0.23706 0.33867,0 0.61807,-0.254 0.28787,-0.254 0.37253,-0.80433 0.0931,-0.54187 0.0931,-1.7526 0,-1.17687 -0.0847,-1.651 -0.11007,-0.55033 -0.4064,-0.770467 -0.29633,-0.220134 -0.59267,-0.220134 -0.11006,0 -0.2286,0.03387 -0.11853,0.03387 -0.28786,0.127 -0.16934,0.09313 -0.3048,0.330204 -0.127,0.23706 -0.18627,0.59266 -0.0677,0.4572 -0.0677,1.55787 z m 3.55598,0.13547 q 0,-1.32927 0.67734,-2.14207 0.67733,-0.821267 1.5494,-0.821267 0.508,0 0.7874,0.262466 0.28787,0.254001 0.28787,0.651931 0,0.22014 -0.127,0.31327 -0.127,0.0931 -0.26247,0.0931 -0.1524,0 -0.27094,-0.1016 -0.11853,-0.1016 -0.11853,-0.28786 0,-0.381 0.46567,-0.381 -0.22014,-0.338671 -0.74507,-0.338671 -0.16087,0 -0.3302,0.0508 -0.16087,0.04233 -0.381,0.203201 -0.21167,0.1524 -0.381,0.4064 -0.16087,0.24553 -0.2794,0.7112 -0.11007,0.46567 -0.11007,1.07527 v 0.2032 q 0.34714,-0.8382 1.05834,-0.8382 0.7112,0 1.20227,0.54186 0.49106,0.54187 0.49106,1.3462 0,0.82127 -0.51646,1.3716 -0.50801,0.54187 -1.22767,0.54187 -0.32174,0 -0.61807,-0.13547 -0.28787,-0.13546 -0.5588,-0.44026 -0.27093,-0.3048 -0.4318,-0.889 -0.16087,-0.59267 -0.16087,-1.397 z m 0.77894,0.762 q 0,0.82973 0.1524,1.22766 0.0254,0.0677 0.0762,0.16087 0.0593,0.0847 0.1524,0.2032 0.1016,0.11853 0.26246,0.19473 0.16087,0.0762 0.34714,0.0762 0.56726,0 0.8382,-0.55033 0.14393,-0.3048 0.14393,-1.13453 0,-0.84667 -0.1524,-1.15994 -0.26247,-0.52493 -0.7874,-0.52493 -0.3556,0 -0.60113,0.24553 -0.24554,0.24554 -0.33867,0.57574 -0.0931,0.32173 -0.0931,0.6858 z"
         id="path74" />
      <path
         style="font-weight:normal;-inkscape-font-specification:'CMU Serif'"
         d="m 144.54528,124.25347 q 0,-0.1016 0.16934,-0.1016 h 5.19006 q 0.008,0 0.0423,0 0.0423,0 0.0508,0 0.0169,0 0.0423,0 0.0339,0 0.0423,0.008 0.0169,0.008 0.0339,0.0169 0.0169,0.008 0.0254,0.0254 0.008,0.0169 0.008,0.0423 0,0.1016 -0.22014,0.1016 h -0.0169 q -0.0254,0 -0.0762,0 -0.0423,-0.008 -0.0677,-0.008 h -4.76674 q -0.0339,0 -0.1016,0.008 -0.0593,0 -0.0931,0 h -0.0423 q -0.22014,0 -0.22014,-0.0931 z m 6.43467,-0.60113 q 0,-1.2446 0.31327,-1.92194 0.44026,-1.00753 1.4732,-1.00753 0.22013,0 0.44873,0.0593 0.2286,0.0593 0.51647,0.28787 0.29633,0.2286 0.47413,0.60113 0.33867,0.71967 0.33867,1.98121 0,1.23613 -0.31327,1.91346 -0.4572,0.98214 -1.4732,0.98214 -0.381,0 -0.77047,-0.19474 -0.381,-0.19473 -0.62653,-0.6604 -0.381,-0.70273 -0.381,-2.04046 z m 0.70273,-0.1016 q 0,1.27846 0.0931,1.78646 0.1016,0.55034 0.381,0.7874 0.28786,0.23707 0.60113,0.23707 0.33867,0 0.61807,-0.254 0.28786,-0.254 0.37253,-0.80433 0.0931,-0.54187 0.0931,-1.7526 0,-1.17687 -0.0847,-1.65101 -0.11007,-0.55033 -0.4064,-0.77046 -0.29634,-0.22014 -0.59267,-0.22014 -0.11007,0 -0.2286,0.0339 -0.11853,0.0339 -0.28787,0.127 -0.16933,0.0931 -0.3048,0.3302 -0.127,0.23707 -0.18626,0.59267 -0.0677,0.4572 -0.0677,1.55787 z m 4.04706,2.67546 q -0.127,-0.13546 -0.127,-0.31326 0,-0.1778 0.127,-0.3048 0.127,-0.13547 0.32173,-0.13547 0.18627,0 0.31327,0.127 0.127,0.11853 0.127,0.31327 0,0.19473 -0.13547,0.32173 -0.13547,0.127 -0.3048,0.127 -0.19473,0 -0.32173,-0.13547 z m 2.2606,-4.699 v -0.26247 q 1.016,0 1.54093,-0.54186 0.14393,0 0.16933,0.0339 0.0254,0.0339 0.0254,0.18627 v 4.7498 q 0,0.254 0.11854,0.3302 0.127,0.0762 0.66886,0.0762 h 0.27094 v 0.26247 q -0.29634,-0.0254 -1.3716,-0.0254 -1.07527,0 -1.3716,0.0254 v -0.26247 h 0.27093 q 0.5334,0 0.6604,-0.0762 0.127,-0.0762 0.127,-0.3302 v -4.38573 q -0.44027,0.22013 -1.10913,0.22013 z m 3.90311,4.83447 q 0,-0.1524 0.008,-0.19473 0.0169,-0.0508 0.0847,-0.11854 l 1.6256,-1.81186 q 0.889,-0.99907 0.889,-1.87114 0,-0.56727 -0.29634,-0.97367 -0.29633,-0.4064 -0.8382,-0.4064 -0.37253,0 -0.6858,0.2286 -0.31326,0.2286 -0.4572,0.635 0.0254,-0.008 0.11007,-0.008 0.21167,0 0.3302,0.13546 0.11853,0.127 0.11853,0.30481 0,0.2286 -0.1524,0.33866 -0.14393,0.11007 -0.28786,0.11007 -0.0593,0 -0.13547,-0.008 -0.0762,-0.0169 -0.19473,-0.13546 -0.11854,-0.11854 -0.11854,-0.3302 0,-0.59267 0.44874,-1.05834 0.44873,-0.47413 1.13453,-0.47413 0.77893,0 1.28693,0.46566 0.508,0.4572 0.508,1.17687 0,0.254 -0.0762,0.4826 -0.0762,0.2286 -0.1778,0.4064 -0.1016,0.1778 -0.37253,0.46567 -0.27093,0.2794 -0.49107,0.4826 -0.22013,0.2032 -0.7112,0.635 l -0.89746,0.87207 h 1.524 q 0.74506,0 0.80433,-0.0677 0.0847,-0.11853 0.18627,-0.75353 h 0.21166 l -0.23706,1.4732 z m 4.56352,-4.83447 v -0.26247 q 1.016,0 1.54094,-0.54186 0.14393,0 0.16933,0.0339 0.0254,0.0339 0.0254,0.18627 v 4.7498 q 0,0.254 0.11853,0.3302 0.127,0.0762 0.66887,0.0762 h 0.27093 v 0.26247 q -0.29633,-0.0254 -1.3716,-0.0254 -1.07526,0 -1.3716,0.0254 v -0.26247 h 0.27094 q 0.5334,0 0.6604,-0.0762 0.127,-0.0762 0.127,-0.3302 v -4.38573 q -0.44027,0.22013 -1.10914,0.22013 z m 3.83539,3.556 q 0,-0.94826 1.2192,-1.55786 -0.52493,-0.3556 -0.61807,-0.4572 -0.37253,-0.41487 -0.37253,-0.93134 0,-0.59267 0.44873,-0.99907 0.44874,-0.41486 1.08374,-0.41486 0.6096,0 1.0668,0.3556 0.4572,0.34713 0.4572,0.90593 0,0.7874 -1.02447,1.31234 0.67733,0.42333 0.8382,0.60113 0.41487,0.4572 0.41487,1.0414 0,0.67733 -0.52494,1.143 -0.51646,0.46567 -1.23613,0.46567 -0.70273,0 -1.22767,-0.4064 -0.52493,-0.41487 -0.52493,-1.05834 z m 0.42333,0 q 0,0.52494 0.38947,0.88054 0.39793,0.34713 0.94827,0.34713 0.5334,0 0.93133,-0.3048 0.39793,-0.3048 0.39793,-0.762 0,-0.1778 -0.0593,-0.3302 -0.0593,-0.1524 -0.1778,-0.27093 -0.11854,-0.127 -0.19474,-0.1778 -0.0677,-0.0593 -0.2032,-0.1524 l -1.0414,-0.6604 q -0.9906,0.55033 -0.9906,1.43086 z m 0.1778,-3.2766 q 0,0.4064 0.42334,0.6858 l 1.04986,0.67734 q 0.8382,-0.49107 0.8382,-1.18534 0,-0.44873 -0.34713,-0.74507 -0.33867,-0.3048 -0.8128,-0.3048 -0.46567,0 -0.8128,0.24554 -0.33867,0.24553 -0.33867,0.62653 z m 3.69992,3.19194 q 0,-0.254 0.13547,-0.34714 0.13546,-0.1016 0.2794,-0.1016 0.19473,0 0.3048,0.127 0.11853,0.11854 0.11853,0.28787 0,0.16933 -0.11853,0.29633 -0.11007,0.11854 -0.3048,0.11854 -0.0931,0 -0.14394,-0.0169 0.11007,0.38947 0.44874,0.66887 0.34713,0.2794 0.79586,0.2794 0.56727,0 0.90594,-0.55033 0.2032,-0.3556 0.2032,-1.15994 0,-0.7112 -0.1524,-1.0668 -0.23707,-0.54186 -0.71967,-0.54186 -0.6858,0 -1.0922,0.59266 -0.0508,0.0762 -0.11007,0.0762 -0.0847,0 -0.1016,-0.0423 -0.0169,-0.0508 -0.0169,-0.1778 v -2.50614 q 0,-0.2032 0.0847,-0.2032 0.0339,0 0.1016,0.0254 0.5334,0.23707 1.12606,0.23707 0.6096,0 1.15147,-0.24553 0.0423,-0.0254 0.0677,-0.0254 0.0847,0 0.0847,0.0931 0,0.0339 -0.0677,0.13547 -0.0677,0.0931 -0.21167,0.22013 -0.14393,0.127 -0.3302,0.24553 -0.18627,0.11854 -0.4572,0.2032 -0.27093,0.0762 -0.56727,0.0762 -0.3556,0 -0.71966,-0.11006 v 1.651 q 0.44026,-0.4318 1.07526,-0.4318 0.67734,0 1.143,0.55033 0.46567,0.54187 0.46567,1.30387 0,0.79587 -0.55033,1.3462 -0.55034,0.54187 -1.2954,0.54187 -0.67734,0 -1.10914,-0.4826 -0.42333,-0.4826 -0.42333,-1.0668 z m 4.14019,-1.3462 q 0,-1.2446 0.31326,-1.92194 0.44027,-1.00753 1.4732,-1.00753 0.22014,0 0.44874,0.0593 0.2286,0.0593 0.51646,0.28787 0.29634,0.2286 0.47414,0.60113 0.33866,0.71967 0.33866,1.98121 0,1.23613 -0.31326,1.91346 -0.4572,0.98214 -1.4732,0.98214 -0.381,0 -0.77047,-0.19474 -0.381,-0.19473 -0.62653,-0.6604 -0.381,-0.70273 -0.381,-2.04046 z m 0.70273,-0.1016 q 0,1.27846 0.0931,1.78646 0.1016,0.55034 0.381,0.7874 0.28787,0.23707 0.60114,0.23707 0.33866,0 0.61806,-0.254 0.28787,-0.254 0.37254,-0.80433 0.0931,-0.54187 0.0931,-1.7526 0,-1.17687 -0.0847,-1.65101 -0.11006,-0.55033 -0.4064,-0.77046 -0.29633,-0.22014 -0.59266,-0.22014 -0.11007,0 -0.2286,0.0339 -0.11854,0.0339 -0.28787,0.127 -0.16933,0.0931 -0.3048,0.3302 -0.127,0.23707 -0.18627,0.59267 -0.0677,0.4572 -0.0677,1.55787 z m 3.55598,-0.92287 q 0,-0.44873 0.127,-0.75354 0.13547,-0.31326 0.41487,-0.61806 0.508,-0.5334 1.2446,-0.5334 0.31327,0 0.59267,0.13546 0.2794,0.127 0.54186,0.4318 0.27094,0.29634 0.4318,0.88901 0.16087,0.5842 0.16087,1.397 0,1.31233 -0.635,2.14206 -0.635,0.82974 -1.49013,0.82974 -0.54187,0 -0.8636,-0.24554 -0.31327,-0.24553 -0.31327,-0.66886 0,-0.22014 0.11853,-0.31327 0.127,-0.0931 0.27094,-0.0931 0.1524,0 0.27093,0.1016 0.11853,0.1016 0.11853,0.28786 0,0.1524 -0.1016,0.27094 -0.0931,0.11853 -0.33866,0.11853 0.24553,0.3048 0.82973,0.3048 0.21167,0 0.42333,-0.0931 0.21167,-0.1016 0.44027,-0.33867 0.2286,-0.23707 0.36407,-0.7366 0.14393,-0.49953 0.14393,-1.20227 v -0.27093 q -0.33867,0.84667 -1.05833,0.84667 -0.7112,0 -1.20227,-0.54187 -0.49107,-0.55033 -0.49107,-1.3462 z m 0.762,0.008 q 0,0.8382 0.1524,1.15146 0.26247,0.5334 0.7874,0.5334 0.51647,0 0.77047,-0.4572 0.26247,-0.46566 0.26247,-1.0668 0,-0.82973 -0.13547,-1.1938 -0.254,-0.66887 -0.8128,-0.66887 -0.5588,0 -0.84667,0.5334 -0.1778,0.31327 -0.1778,1.16841 z m 3.47132,1.04986 q 0,-1.32926 0.67734,-2.14207 0.67733,-0.82126 1.5494,-0.82126 0.508,0 0.7874,0.26246 0.28786,0.254 0.28786,0.65194 0,0.22013 -0.127,0.31326 -0.127,0.0931 -0.26246,0.0931 -0.1524,0 -0.27094,-0.1016 -0.11853,-0.1016 -0.11853,-0.28787 0,-0.381 0.46567,-0.381 -0.22014,-0.33867 -0.74507,-0.33867 -0.16087,0 -0.3302,0.0508 -0.16087,0.0423 -0.381,0.2032 -0.21167,0.1524 -0.381,0.4064 -0.16087,0.24554 -0.2794,0.71121 -0.11007,0.46566 -0.11007,1.07526 v 0.2032 q 0.34714,-0.8382 1.05834,-0.8382 0.7112,0 1.20226,0.54187 0.49107,0.54187 0.49107,1.3462 0,0.82127 -0.51647,1.3716 -0.508,0.54187 -1.22766,0.54187 -0.32174,0 -0.61807,-0.13547 -0.28787,-0.13547 -0.5588,-0.44027 -0.27093,-0.3048 -0.4318,-0.889 -0.16087,-0.59266 -0.16087,-1.397 z m 0.77894,0.762 q 0,0.82974 0.1524,1.22767 0.0254,0.0677 0.0762,0.16087 0.0593,0.0847 0.1524,0.2032 0.1016,0.11853 0.26246,0.19473 0.16087,0.0762 0.34714,0.0762 0.56726,0 0.8382,-0.55033 0.14393,-0.3048 0.14393,-1.13454 0,-0.84666 -0.1524,-1.15993 -0.26247,-0.52493 -0.7874,-0.52493 -0.3556,0 -0.60113,0.24553 -0.24554,0.24553 -0.33867,0.57573 -0.0931,0.32174 -0.0931,0.6858 z m 3.85232,-2.921 v -0.26247 q 1.016,0 1.54093,-0.54186 0.14393,0 0.16933,0.0339 0.0254,0.0339 0.0254,0.18627 v 4.7498 q 0,0.254 0.11854,0.3302 0.127,0.0762 0.66887,0.0762 h 0.27093 v 0.26247 q -0.29633,-0.0254 -1.3716,-0.0254 -1.07527,0 -1.3716,0.0254 v -0.26247 h 0.27093 q 0.5334,0 0.6604,-0.0762 0.127,-0.0762 0.127,-0.3302 v -4.38573 q -0.44027,0.22013 -1.10913,0.22013 z"
         id="path75" />
      <path
         style="font-weight:normal;-inkscape-font-specification:'CMU Serif'"
         d="m 146.66194,145.42014 q 0,-0.1016 0.16933,-0.1016 h 5.19007 q 0.008,0 0.0423,0 0.0423,0 0.0508,0 0.0169,0 0.0423,0 0.0339,0 0.0423,0.008 0.0169,0.008 0.0339,0.0169 0.0169,0.008 0.0254,0.0254 0.008,0.0169 0.008,0.0423 0,0.1016 -0.22014,0.1016 h -0.0169 q -0.0254,0 -0.0762,0 -0.0423,-0.008 -0.0677,-0.008 h -4.76674 q -0.0339,0 -0.1016,0.008 -0.0593,0 -0.0931,0 h -0.0423 q -0.22013,0 -0.22013,-0.0931 z m 6.858,-2.72626 v -0.26247 q 1.016,0 1.54094,-0.54187 0.14393,0 0.16933,0.0339 0.0254,0.0339 0.0254,0.18627 v 4.7498 q 0,0.254 0.11853,0.3302 0.127,0.0762 0.66887,0.0762 h 0.27093 v 0.26247 q -0.29633,-0.0254 -1.3716,-0.0254 -1.07526,0 -1.3716,0.0254 v -0.26247 h 0.27094 q 0.5334,0 0.6604,-0.0762 0.127,-0.0762 0.127,-0.3302 v -4.38574 q -0.44027,0.22014 -1.10914,0.22014 z m 4.32645,4.699 q -0.127,-0.13547 -0.127,-0.31327 0,-0.1778 0.127,-0.3048 0.127,-0.13547 0.32174,-0.13547 0.18626,0 0.31326,0.127 0.12701,0.11854 0.12701,0.31327 0,0.19474 -0.13547,0.32174 -0.13547,0.127 -0.3048,0.127 -0.19474,0 -0.32174,-0.13547 z m 1.83727,-2.57387 q 0,-1.2446 0.31327,-1.92193 0.44026,-1.00754 1.4732,-1.00754 0.22013,0 0.44873,0.0593 0.2286,0.0593 0.51647,0.28787 0.29633,0.2286 0.47413,0.60113 0.33867,0.71967 0.33867,1.9812 0,1.23613 -0.31327,1.91347 -0.4572,0.98213 -1.4732,0.98213 -0.381,0 -0.77047,-0.19473 -0.381,-0.19473 -0.62653,-0.6604 -0.381,-0.70274 -0.381,-2.04047 z m 0.70273,-0.1016 q 0,1.27847 0.0931,1.78647 0.1016,0.55033 0.381,0.7874 0.28786,0.23707 0.60113,0.23707 0.33867,0 0.61807,-0.254 0.28787,-0.25401 0.37253,-0.80434 0.0931,-0.54187 0.0931,-1.7526 0,-1.17687 -0.0847,-1.651 -0.11007,-0.55033 -0.4064,-0.77047 -0.29633,-0.22013 -0.59267,-0.22013 -0.11007,0 -0.2286,0.0339 -0.11853,0.0339 -0.28787,0.127 -0.16933,0.0931 -0.3048,0.3302 -0.127,0.23706 -0.18626,0.59266 -0.0677,0.4572 -0.0677,1.55787 z m 3.67452,-1.1684 0.2794,-1.74413 h 0.21167 q 0.0254,0.1016 0.0677,0.1524 0.0423,0.0423 0.2794,0.0847 0.24554,0.0339 0.7366,0.0339 h 2.0574 q 0,0.19473 -0.0762,0.29633 l -1.143,1.60867 q -0.36406,0.508 -0.52493,1.4478 -0.0931,0.62653 -0.0931,1.38853 v 0.4318 q 0,0.46567 -0.38947,0.46567 -0.38947,0 -0.38947,-0.46567 0,-1.61713 1.0414,-3.18346 0.11007,-0.16087 0.51647,-0.7366 0.41487,-0.57574 0.4318,-0.60114 h -1.7526 q -0.77047,0 -0.82973,0.0508 -0.0847,0.0762 -0.21167,0.77047 z m 4.11479,0.24553 q 0,-0.44873 0.127,-0.75353 0.13547,-0.31327 0.41487,-0.61807 0.508,-0.5334 1.2446,-0.5334 0.31326,0 0.59266,0.13547 0.2794,0.127 0.54187,0.4318 0.27093,0.29633 0.4318,0.889 0.16087,0.5842 0.16087,1.397 0,1.31233 -0.635,2.14207 -0.635,0.82973 -1.49014,0.82973 -0.54186,0 -0.8636,-0.24553 -0.31326,-0.24554 -0.31326,-0.66887 0,-0.22013 0.11853,-0.31327 0.127,-0.0931 0.27093,-0.0931 0.1524,0 0.27094,0.1016 0.11853,0.1016 0.11853,0.28787 0,0.1524 -0.1016,0.27093 -0.0931,0.11853 -0.33867,0.11853 0.24554,0.30481 0.82974,0.30481 0.21166,0 0.42333,-0.0931 0.21167,-0.1016 0.44027,-0.33867 0.2286,-0.23706 0.36406,-0.7366 0.14394,-0.49953 0.14394,-1.20226 v -0.27094 q -0.33867,0.84667 -1.05834,0.84667 -0.7112,0 -1.20226,-0.54187 -0.49107,-0.55033 -0.49107,-1.3462 z m 0.762,0.008 q 0,0.8382 0.1524,1.15147 0.26247,0.5334 0.7874,0.5334 0.51647,0 0.77047,-0.4572 0.26246,-0.46567 0.26246,-1.0668 0,-0.82974 -0.13546,-1.1938 -0.254,-0.66887 -0.8128,-0.66887 -0.5588,0 -0.84667,0.5334 -0.1778,0.31327 -0.1778,1.1684 z m 3.44592,1.016 q 0,-1.2446 0.31326,-1.92193 0.44027,-1.00754 1.47321,-1.00754 0.22013,0 0.44873,0.0593 0.2286,0.0593 0.51647,0.28787 0.29633,0.2286 0.47413,0.60113 0.33867,0.71967 0.33867,1.9812 0,1.23613 -0.31327,1.91347 -0.4572,0.98213 -1.4732,0.98213 -0.381,0 -0.77047,-0.19473 -0.381,-0.19473 -0.62653,-0.6604 -0.381,-0.70274 -0.381,-2.04047 z m 0.70273,-0.1016 q 0,1.27847 0.0931,1.78647 0.1016,0.55033 0.381,0.7874 0.28787,0.23707 0.60114,0.23707 0.33867,0 0.61807,-0.254 0.28786,-0.25401 0.37253,-0.80434 0.0931,-0.54187 0.0931,-1.7526 0,-1.17687 -0.0847,-1.651 -0.11007,-0.55033 -0.4064,-0.77047 -0.29634,-0.22013 -0.59267,-0.22013 -0.11007,0 -0.2286,0.0339 -0.11853,0.0339 -0.28787,0.127 -0.16933,0.0931 -0.3048,0.3302 -0.127,0.23706 -0.18627,0.59266 -0.0677,0.4572 -0.0677,1.55787 z m 3.67452,-1.1684 0.2794,-1.74413 h 0.21167 q 0.0254,0.1016 0.0677,0.1524 0.0423,0.0423 0.2794,0.0847 0.24553,0.0339 0.7366,0.0339 h 2.0574 q 0,0.19473 -0.0762,0.29633 l -1.143,1.60867 q -0.36407,0.508 -0.52493,1.4478 -0.0931,0.62653 -0.0931,1.38853 v 0.4318 q 0,0.46567 -0.38946,0.46567 -0.38947,0 -0.38947,-0.46567 0,-1.61713 1.0414,-3.18346 0.11007,-0.16087 0.51647,-0.7366 0.41486,-0.57574 0.4318,-0.60114 h -1.7526 q -0.77047,0 -0.82974,0.0508 -0.0847,0.0762 -0.21166,0.77047 z m 4.23332,0 0.2794,-1.74413 h 0.21166 q 0.0254,0.1016 0.0677,0.1524 0.0423,0.0423 0.2794,0.0847 0.24553,0.0339 0.7366,0.0339 h 2.0574 q 0,0.19473 -0.0762,0.29633 l -1.143,1.60867 q -0.36407,0.508 -0.52493,1.4478 -0.0931,0.62653 -0.0931,1.38853 v 0.4318 q 0,0.46567 -0.38946,0.46567 -0.38947,0 -0.38947,-0.46567 0,-1.61713 1.0414,-3.18346 0.11007,-0.16087 0.51647,-0.7366 0.41486,-0.57574 0.4318,-0.60114 h -1.7526 q -0.77047,0 -0.82974,0.0508 -0.0847,0.0762 -0.21167,0.77047 z m 4.11478,2.70087 q 0,-0.94827 1.2192,-1.55787 -0.52493,-0.3556 -0.61806,-0.4572 -0.37254,-0.41487 -0.37254,-0.93133 0,-0.59267 0.44874,-0.99907 0.44873,-0.41487 1.08373,-0.41487 0.6096,0 1.0668,0.3556 0.4572,0.34714 0.4572,0.90594 0,0.7874 -1.02447,1.31233 0.67734,0.42333 0.8382,0.60113 0.41487,0.4572 0.41487,1.0414 0,0.67734 -0.52493,1.143 -0.51647,0.46567 -1.23614,0.46567 -0.70273,0 -1.22766,-0.4064 -0.52494,-0.41487 -0.52494,-1.05833 z m 0.42334,0 q 0,0.52493 0.38946,0.88053 0.39794,0.34714 0.94827,0.34714 0.5334,0 0.93133,-0.30481 0.39794,-0.3048 0.39794,-0.762 0,-0.1778 -0.0593,-0.3302 -0.0593,-0.1524 -0.1778,-0.27093 -0.11853,-0.127 -0.19473,-0.1778 -0.0677,-0.0593 -0.2032,-0.1524 l -1.0414,-0.6604 q -0.9906,0.55033 -0.9906,1.43087 z m 0.1778,-3.2766 q 0,0.4064 0.42333,0.6858 l 1.04987,0.67733 q 0.8382,-0.49107 0.8382,-1.18533 0,-0.44874 -0.34714,-0.74507 -0.33866,-0.3048 -0.8128,-0.3048 -0.46566,0 -0.8128,0.24553 -0.33866,0.24554 -0.33866,0.62654 z m 4.03011,-0.2794 v -0.26247 q 1.01601,0 1.54094,-0.54187 0.14393,0 0.16933,0.0339 0.0254,0.0339 0.0254,0.18627 v 4.7498 q 0,0.254 0.11854,0.3302 0.127,0.0762 0.66886,0.0762 h 0.27094 v 0.26247 q -0.29634,-0.0254 -1.3716,-0.0254 -1.07527,0 -1.37161,0.0254 v -0.26247 h 0.27094 q 0.5334,0 0.6604,-0.0762 0.127,-0.0762 0.127,-0.3302 v -4.38574 q -0.44027,0.22014 -1.10914,0.22014 z"
         id="path76" />
      <path
         style="font-weight:normal;-inkscape-font-specification:'CMU Serif'"
         d="m 145.56976,165.98569 q 0,-1.2446 0.31326,-1.92194 0.44027,-1.00753 1.4732,-1.00753 0.22014,0 0.44874,0.0593 0.2286,0.0593 0.51646,0.28787 0.29634,0.2286 0.47414,0.60113 0.33866,0.71967 0.33866,1.98121 0,1.23613 -0.31326,1.91346 -0.4572,0.98214 -1.4732,0.98214 -0.381,0 -0.77047,-0.19474 -0.381,-0.19473 -0.62653,-0.6604 -0.381,-0.70273 -0.381,-2.04046 z m 0.70273,-0.1016 q 0,1.27846 0.0931,1.78646 0.1016,0.55034 0.381,0.7874 0.28787,0.23707 0.60114,0.23707 0.33866,0 0.61806,-0.254 0.28787,-0.254 0.37254,-0.80433 0.0931,-0.54187 0.0931,-1.7526 0,-1.17687 -0.0847,-1.651 -0.11006,-0.55034 -0.4064,-0.77047 -0.29633,-0.22014 -0.59266,-0.22014 -0.11007,0 -0.2286,0.0339 -0.11854,0.0339 -0.28787,0.127 -0.16933,0.0931 -0.3048,0.3302 -0.127,0.23707 -0.18627,0.59267 -0.0677,0.4572 -0.0677,1.55787 z m 4.04705,2.67546 q -0.127,-0.13546 -0.127,-0.31326 0,-0.1778 0.127,-0.3048 0.127,-0.13547 0.32174,-0.13547 0.18626,0 0.31326,0.127 0.127,0.11853 0.127,0.31327 0,0.19473 -0.13546,0.32173 -0.13547,0.127 -0.3048,0.127 -0.19474,0 -0.32174,-0.13547 z m 1.83727,-2.57386 q 0,-1.2446 0.31327,-1.92194 0.44026,-1.00753 1.4732,-1.00753 0.22013,0 0.44873,0.0593 0.2286,0.0593 0.51647,0.28787 0.29633,0.2286 0.47413,0.60113 0.33867,0.71967 0.33867,1.98121 0,1.23613 -0.31327,1.91346 -0.4572,0.98214 -1.4732,0.98214 -0.381,0 -0.77047,-0.19474 -0.381,-0.19473 -0.62653,-0.6604 -0.381,-0.70273 -0.381,-2.04046 z m 0.70273,-0.1016 q 0,1.27846 0.0931,1.78646 0.1016,0.55034 0.381,0.7874 0.28786,0.23707 0.60113,0.23707 0.33867,0 0.61807,-0.254 0.28786,-0.254 0.37253,-0.80433 0.0931,-0.54187 0.0931,-1.7526 0,-1.17687 -0.0847,-1.651 -0.11007,-0.55034 -0.4064,-0.77047 -0.29634,-0.22014 -0.59267,-0.22014 -0.11007,0 -0.2286,0.0339 -0.11853,0.0339 -0.28787,0.127 -0.16933,0.0931 -0.3048,0.3302 -0.127,0.23707 -0.18626,0.59267 -0.0677,0.4572 -0.0677,1.55787 z m 3.95392,-2.02354 v -0.26247 q 1.016,0 1.54093,-0.54186 0.14394,0 0.16934,0.0339 0.0254,0.0339 0.0254,0.18627 v 4.7498 q 0,0.254 0.11853,0.3302 0.127,0.0762 0.66887,0.0762 h 0.27093 v 0.26247 q -0.29633,-0.0254 -1.3716,-0.0254 -1.07527,0 -1.3716,0.0254 v -0.26247 h 0.27093 q 0.5334,0 0.6604,-0.0762 0.127,-0.0762 0.127,-0.3302 v -4.38573 q -0.44026,0.22013 -1.10913,0.22013 z m 3.83539,3.69147 q 0,-0.254 0.14393,-0.37253 0.14393,-0.11854 0.3302,-0.11854 0.19473,0 0.3302,0.127 0.14393,0.127 0.14393,0.34714 0,0.23706 -0.16933,0.37253 -0.16087,0.127 -0.38947,0.0931 0.2032,0.33867 0.57574,0.49107 0.37253,0.1524 0.71966,0.1524 0.36407,0 0.6604,-0.31327 0.29634,-0.31326 0.29634,-1.08373 0,-0.65193 -0.254,-1.02447 -0.254,-0.381 -0.75354,-0.381 h -0.37253 q -0.127,0 -0.16933,-0.008 -0.0339,-0.0169 -0.0339,-0.0847 0,-0.0847 0.127,-0.1016 0.127,0 0.3302,-0.0254 0.49107,-0.0169 0.75353,-0.44027 0.23707,-0.39793 0.23707,-0.9652 0,-0.51647 -0.24553,-0.72813 -0.24554,-0.22014 -0.56727,-0.22014 -0.29633,0 -0.62653,0.127 -0.32174,0.11854 -0.49954,0.39794 0.52494,0 0.52494,0.42333 0,0.18627 -0.11854,0.31327 -0.11853,0.11853 -0.31326,0.11853 -0.18627,0 -0.31327,-0.11853 -0.11853,-0.11853 -0.11853,-0.32173 0,-0.48261 0.4318,-0.81281 0.4318,-0.33866 1.0668,-0.33866 0.62653,0 1.0922,0.3302 0.46566,0.3302 0.46566,0.8382 0,0.49953 -0.3302,0.9144 -0.3302,0.4064 -0.85513,0.57573 0.64347,0.127 1.02447,0.56727 0.38946,0.4318 0.38946,0.9652 0,0.6604 -0.52493,1.15147 -0.51647,0.4826 -1.27847,0.4826 -0.70273,0 -1.21073,-0.381 -0.49953,-0.381 -0.49953,-0.94827 z m 4.11478,-0.254 v -0.26247 l 2.59927,-3.97087 q 0.0677,-0.1016 0.16933,-0.1016 0.0931,0 0.11007,0.0423 0.0254,0.0339 0.0254,0.1778 v 3.85233 h 0.84667 v 0.26247 h -0.84667 v 0.7366 q 0,0.24553 0.1016,0.32173 0.1016,0.0762 0.54187,0.0762 h 0.1778 v 0.26247 q -0.34714,-0.0254 -1.15147,-0.0254 -0.79587,0 -1.143,0.0254 v -0.26247 h 0.1778 q 0.44027,0 0.54187,-0.0762 0.1016,-0.0762 0.1016,-0.32173 v -0.7366 z m 0.23707,-0.26247 h 2.06587 v -3.15807 z m 4.11478,0.51647 q 0,-0.254 0.14394,-0.37253 0.14393,-0.11854 0.3302,-0.11854 0.19473,0 0.3302,0.127 0.14393,0.127 0.14393,0.34714 0,0.23706 -0.16933,0.37253 -0.16087,0.127 -0.38947,0.0931 0.2032,0.33867 0.57573,0.49107 0.37254,0.1524 0.71967,0.1524 0.36407,0 0.6604,-0.31327 0.29633,-0.31326 0.29633,-1.08373 0,-0.65193 -0.254,-1.02447 -0.254,-0.381 -0.75353,-0.381 h -0.37253 q -0.127,0 -0.16934,-0.008 -0.0339,-0.0169 -0.0339,-0.0847 0,-0.0847 0.127,-0.1016 0.127,0 0.3302,-0.0254 0.49106,-0.0169 0.75353,-0.44027 0.23707,-0.39793 0.23707,-0.9652 0,-0.51647 -0.24554,-0.72813 -0.24553,-0.22014 -0.56726,-0.22014 -0.29634,0 -0.62654,0.127 -0.32173,0.11854 -0.49953,0.39794 0.52493,0 0.52493,0.42333 0,0.18627 -0.11853,0.31327 -0.11853,0.11853 -0.31327,0.11853 -0.18626,0 -0.31326,-0.11853 -0.11854,-0.11853 -0.11854,-0.32173 0,-0.48261 0.4318,-0.81281 0.4318,-0.33866 1.0668,-0.33866 0.62654,0 1.0922,0.3302 0.46567,0.3302 0.46567,0.8382 0,0.49953 -0.3302,0.9144 -0.3302,0.4064 -0.85513,0.57573 0.64346,0.127 1.02446,0.56727 0.38947,0.4318 0.38947,0.9652 0,0.6604 -0.52493,1.15147 -0.51647,0.4826 -1.27847,0.4826 -0.70273,0 -1.21073,-0.381 -0.49954,-0.381 -0.49954,-0.94827 z m 4.30106,1.143 q 0,-0.1524 0.008,-0.19473 0.0169,-0.0508 0.0847,-0.11854 l 1.6256,-1.81186 q 0.889,-0.99907 0.889,-1.87114 0,-0.56726 -0.29633,-0.97367 -0.29634,-0.4064 -0.8382,-0.4064 -0.37254,0 -0.6858,0.2286 -0.31327,0.2286 -0.4572,0.63501 0.0254,-0.008 0.11006,-0.008 0.21167,0 0.3302,0.13547 0.11854,0.127 0.11854,0.3048 0,0.2286 -0.1524,0.33866 -0.14394,0.11007 -0.28787,0.11007 -0.0593,0 -0.13547,-0.008 -0.0762,-0.0169 -0.19473,-0.13546 -0.11853,-0.11854 -0.11853,-0.3302 0,-0.59267 0.44873,-1.05834 0.44873,-0.47413 1.13453,-0.47413 0.77894,0 1.28694,0.46566 0.508,0.4572 0.508,1.17687 0,0.254 -0.0762,0.4826 -0.0762,0.2286 -0.1778,0.4064 -0.1016,0.1778 -0.37254,0.46567 -0.27093,0.2794 -0.49106,0.4826 -0.22014,0.2032 -0.7112,0.635 l -0.89747,0.87207 h 1.524 q 0.74507,0 0.80433,-0.0677 0.0847,-0.11853 0.18627,-0.75353 h 0.21167 l -0.23707,1.4732 z m 4.16558,-2.67547 q 0,-1.32926 0.67734,-2.14207 0.67733,-0.82126 1.5494,-0.82126 0.508,0 0.7874,0.26246 0.28786,0.254 0.28786,0.65194 0,0.22013 -0.127,0.31327 -0.127,0.0931 -0.26246,0.0931 -0.1524,0 -0.27094,-0.1016 -0.11853,-0.1016 -0.11853,-0.28787 0,-0.381 0.46567,-0.381 -0.22014,-0.33867 -0.74507,-0.33867 -0.16087,0 -0.3302,0.0508 -0.16087,0.0423 -0.381,0.2032 -0.21167,0.1524 -0.381,0.4064 -0.16087,0.24554 -0.2794,0.71121 -0.11007,0.46566 -0.11007,1.07526 v 0.2032 q 0.34714,-0.8382 1.05834,-0.8382 0.7112,0 1.20226,0.54187 0.49107,0.54187 0.49107,1.3462 0,0.82127 -0.51647,1.3716 -0.508,0.54187 -1.22766,0.54187 -0.32174,0 -0.61807,-0.13547 -0.28787,-0.13547 -0.5588,-0.44027 -0.27094,-0.3048 -0.4318,-0.889 -0.16087,-0.59266 -0.16087,-1.397 z m 0.77894,0.762 q 0,0.82974 0.1524,1.22767 0.0254,0.0677 0.0762,0.16087 0.0593,0.0847 0.1524,0.2032 0.1016,0.11853 0.26246,0.19473 0.16087,0.0762 0.34714,0.0762 0.56726,0 0.8382,-0.55033 0.14393,-0.3048 0.14393,-1.13454 0,-0.84666 -0.1524,-1.15993 -0.26247,-0.52493 -0.7874,-0.52493 -0.3556,0 -0.60113,0.24553 -0.24554,0.24553 -0.33867,0.57573 -0.0931,0.32174 -0.0931,0.6858 z m 3.45438,-1.82033 q 0,-0.44873 0.127,-0.75353 0.13547,-0.31327 0.41487,-0.61807 0.508,-0.5334 1.2446,-0.5334 0.31326,0 0.59266,0.13546 0.2794,0.127 0.54187,0.4318 0.27093,0.29634 0.4318,0.88901 0.16087,0.5842 0.16087,1.397 0,1.31233 -0.635,2.14206 -0.635,0.82974 -1.49014,0.82974 -0.54186,0 -0.8636,-0.24554 -0.31326,-0.24553 -0.31326,-0.66886 0,-0.22014 0.11853,-0.31327 0.127,-0.0931 0.27093,-0.0931 0.1524,0 0.27094,0.1016 0.11853,0.1016 0.11853,0.28786 0,0.1524 -0.1016,0.27094 -0.0931,0.11853 -0.33867,0.11853 0.24554,0.3048 0.82974,0.3048 0.21166,0 0.42333,-0.0931 0.21167,-0.1016 0.44027,-0.33867 0.2286,-0.23707 0.36406,-0.7366 0.14394,-0.49953 0.14394,-1.20227 v -0.27093 q -0.33867,0.84667 -1.05834,0.84667 -0.7112,0 -1.20226,-0.54187 -0.49107,-0.55033 -0.49107,-1.3462 z m 0.762,0.008 q 0,0.8382 0.1524,1.15146 0.26247,0.5334 0.7874,0.5334 0.51647,0 0.77047,-0.4572 0.26246,-0.46566 0.26246,-1.0668 0,-0.82973 -0.13546,-1.1938 -0.254,-0.66887 -0.8128,-0.66887 -0.5588,0 -0.84667,0.5334 -0.1778,0.31327 -0.1778,1.16841 z m 3.53905,3.72533 q 0,-0.1524 0.008,-0.19473 0.0169,-0.0508 0.0847,-0.11854 l 1.62561,-1.81186 q 0.889,-0.99907 0.889,-1.87114 0,-0.56726 -0.29634,-0.97367 -0.29633,-0.4064 -0.8382,-0.4064 -0.37253,0 -0.6858,0.2286 -0.31327,0.2286 -0.4572,0.63501 0.0254,-0.008 0.11007,-0.008 0.21167,0 0.3302,0.13547 0.11853,0.127 0.11853,0.3048 0,0.2286 -0.1524,0.33866 -0.14393,0.11007 -0.28787,0.11007 -0.0593,0 -0.13546,-0.008 -0.0762,-0.0169 -0.19474,-0.13546 -0.11853,-0.11854 -0.11853,-0.3302 0,-0.59267 0.44873,-1.05834 0.44874,-0.47413 1.13454,-0.47413 0.77893,0 1.28693,0.46566 0.508,0.4572 0.508,1.17687 0,0.254 -0.0762,0.4826 -0.0762,0.2286 -0.1778,0.4064 -0.1016,0.1778 -0.37253,0.46567 -0.27093,0.2794 -0.49107,0.4826 -0.22013,0.2032 -0.7112,0.635 l -0.89746,0.87207 h 1.524 q 0.74506,0 0.80433,-0.0677 0.0847,-0.11853 0.18627,-0.75353 h 0.21166 l -0.23706,1.4732 z m 4.16559,-1.143 q 0,-0.254 0.14393,-0.37253 0.14393,-0.11854 0.3302,-0.11854 0.19473,0 0.3302,0.127 0.14393,0.127 0.14393,0.34714 0,0.23706 -0.16933,0.37253 -0.16087,0.127 -0.38947,0.0931 0.2032,0.33867 0.57574,0.49107 0.37253,0.1524 0.71966,0.1524 0.36407,0 0.6604,-0.31327 0.29634,-0.31326 0.29634,-1.08373 0,-0.65193 -0.254,-1.02447 -0.254,-0.381 -0.75354,-0.381 h -0.37253 q -0.127,0 -0.16933,-0.008 -0.0339,-0.0169 -0.0339,-0.0847 0,-0.0847 0.127,-0.1016 0.127,0 0.3302,-0.0254 0.49107,-0.0169 0.75353,-0.44027 0.23707,-0.39793 0.23707,-0.9652 0,-0.51647 -0.24553,-0.72813 -0.24554,-0.22014 -0.56727,-0.22014 -0.29633,0 -0.62653,0.127 -0.32174,0.11854 -0.49954,0.39794 0.52494,0 0.52494,0.42333 0,0.18627 -0.11854,0.31327 -0.11853,0.11853 -0.31326,0.11853 -0.18627,0 -0.31327,-0.11853 -0.11853,-0.11853 -0.11853,-0.32173 0,-0.48261 0.4318,-0.81281 0.4318,-0.33866 1.0668,-0.33866 0.62653,0 1.0922,0.3302 0.46566,0.3302 0.46566,0.8382 0,0.49953 -0.3302,0.9144 -0.3302,0.4064 -0.85513,0.57573 0.64347,0.127 1.02447,0.56727 0.38946,0.4318 0.38946,0.9652 0,0.6604 -0.52493,1.15147 -0.51647,0.4826 -1.27847,0.4826 -0.70273,0 -1.21073,-0.381 -0.49953,-0.381 -0.49953,-0.94827 z"
         id="path77" />
      <path
         style="font-weight:normal;-inkscape-font-specification:'CMU Serif'"
         d="m 145.56976,187.15236 q 0,-1.2446 0.31326,-1.92193 0.44027,-1.00754 1.4732,-1.00754 0.22014,0 0.44874,0.0593 0.2286,0.0593 0.51646,0.28787 0.29634,0.2286 0.47414,0.60113 0.33866,0.71967 0.33866,1.9812 0,1.23613 -0.31326,1.91347 -0.4572,0.98213 -1.4732,0.98213 -0.381,0 -0.77047,-0.19473 -0.381,-0.19473 -0.62653,-0.6604 -0.381,-0.70274 -0.381,-2.04047 z m 0.70273,-0.1016 q 0,1.27847 0.0931,1.78647 0.1016,0.55033 0.381,0.7874 0.28787,0.23707 0.60114,0.23707 0.33866,0 0.61806,-0.254 0.28787,-0.254 0.37254,-0.80434 0.0931,-0.54187 0.0931,-1.7526 0,-1.17687 -0.0847,-1.651 -0.11006,-0.55033 -0.4064,-0.77047 -0.29633,-0.22013 -0.59266,-0.22013 -0.11007,0 -0.2286,0.0339 -0.11854,0.0339 -0.28787,0.127 -0.16933,0.0931 -0.3048,0.3302 -0.127,0.23706 -0.18627,0.59266 -0.0677,0.4572 -0.0677,1.55787 z m 4.04705,2.67547 q -0.127,-0.13547 -0.127,-0.31327 0,-0.1778 0.127,-0.3048 0.127,-0.13547 0.32174,-0.13547 0.18626,0 0.31326,0.127 0.127,0.11854 0.127,0.31327 0,0.19474 -0.13546,0.32174 -0.13547,0.127 -0.3048,0.127 -0.19474,0 -0.32174,-0.13547 z m 1.83727,-2.57387 q 0,-1.2446 0.31327,-1.92193 0.44026,-1.00754 1.4732,-1.00754 0.22013,0 0.44873,0.0593 0.2286,0.0593 0.51647,0.28787 0.29633,0.2286 0.47413,0.60113 0.33867,0.71967 0.33867,1.9812 0,1.23613 -0.31327,1.91347 -0.4572,0.98213 -1.4732,0.98213 -0.381,0 -0.77047,-0.19473 -0.381,-0.19473 -0.62653,-0.6604 -0.381,-0.70274 -0.381,-2.04047 z m 0.70273,-0.1016 q 0,1.27847 0.0931,1.78647 0.1016,0.55033 0.381,0.7874 0.28786,0.23707 0.60113,0.23707 0.33867,0 0.61807,-0.254 0.28786,-0.254 0.37253,-0.80434 0.0931,-0.54187 0.0931,-1.7526 0,-1.17687 -0.0847,-1.651 -0.11007,-0.55033 -0.4064,-0.77047 -0.29634,-0.22013 -0.59267,-0.22013 -0.11007,0 -0.2286,0.0339 -0.11853,0.0339 -0.28787,0.127 -0.16933,0.0931 -0.3048,0.3302 -0.127,0.23706 -0.18626,0.59266 -0.0677,0.4572 -0.0677,1.55787 z m 3.43745,1.41393 v -0.26246 l 2.59927,-3.97087 q 0.0677,-0.1016 0.16933,-0.1016 0.0931,0 0.11007,0.0423 0.0254,0.0339 0.0254,0.1778 v 3.85234 h 0.84667 v 0.26246 h -0.84667 v 0.73661 q 0,0.24553 0.1016,0.32173 0.1016,0.0762 0.54187,0.0762 h 0.1778 v 0.26247 q -0.34714,-0.0254 -1.15147,-0.0254 -0.79587,0 -1.143,0.0254 v -0.26247 h 0.1778 q 0.44027,0 0.54187,-0.0762 0.1016,-0.0762 0.1016,-0.32173 v -0.73661 z m 0.23707,-0.26246 h 2.06587 v -3.15807 z m 4.11479,-1.016 q 0,-1.32927 0.67733,-2.14207 0.67733,-0.82127 1.5494,-0.82127 0.508,0 0.7874,0.26247 0.28787,0.254 0.28787,0.65193 0,0.22014 -0.127,0.31327 -0.127,0.0931 -0.26247,0.0931 -0.1524,0 -0.27093,-0.1016 -0.11854,-0.1016 -0.11854,-0.28786 0,-0.381 0.46567,-0.381 -0.22013,-0.33867 -0.74507,-0.33867 -0.16086,0 -0.3302,0.0508 -0.16086,0.0423 -0.381,0.2032 -0.21166,0.1524 -0.381,0.4064 -0.16086,0.24553 -0.2794,0.7112 -0.11006,0.46567 -0.11006,1.07527 v 0.2032 q 0.34713,-0.8382 1.05833,-0.8382 0.7112,0 1.20227,0.54186 0.49106,0.54187 0.49106,1.3462 0,0.82127 -0.51646,1.37161 -0.508,0.54186 -1.22767,0.54186 -0.32173,0 -0.61807,-0.13546 -0.28786,-0.13547 -0.5588,-0.44027 -0.27093,-0.3048 -0.4318,-0.889 -0.16086,-0.59267 -0.16086,-1.397 z m 0.77893,0.762 q 0,0.82973 0.1524,1.22767 0.0254,0.0677 0.0762,0.16086 0.0593,0.0847 0.1524,0.2032 0.1016,0.11854 0.26247,0.19474 0.16086,0.0762 0.34713,0.0762 0.56727,0 0.8382,-0.55034 0.14393,-0.3048 0.14393,-1.13453 0,-0.84667 -0.1524,-1.15994 -0.26246,-0.52493 -0.7874,-0.52493 -0.3556,0 -0.60113,0.24553 -0.24553,0.24554 -0.33867,0.57574 -0.0931,0.32173 -0.0931,0.6858 z m 3.33585,0.51646 v -0.26246 l 2.59927,-3.97087 q 0.0677,-0.1016 0.16933,-0.1016 0.0931,0 0.11007,0.0423 0.0254,0.0339 0.0254,0.1778 v 3.85234 h 0.84667 v 0.26246 h -0.84667 v 0.73661 q 0,0.24553 0.1016,0.32173 0.1016,0.0762 0.54187,0.0762 h 0.1778 v 0.26247 q -0.34714,-0.0254 -1.15147,-0.0254 -0.79587,0 -1.143,0.0254 v -0.26247 h 0.1778 q 0.44027,0 0.54187,-0.0762 0.1016,-0.0762 0.1016,-0.32173 v -0.73661 z m 0.23707,-0.26246 h 2.06587 v -3.15807 z m 4.18252,0.29633 q 0,-0.254 0.13546,-0.34713 0.13547,-0.1016 0.2794,-0.1016 0.19474,0 0.3048,0.127 0.11854,0.11853 0.11854,0.28786 0,0.16934 -0.11854,0.29634 -0.11006,0.11853 -0.3048,0.11853 -0.0931,0 -0.14393,-0.0169 0.11007,0.38947 0.44873,0.66887 0.34714,0.2794 0.79587,0.2794 0.56727,0 0.90593,-0.55034 0.2032,-0.3556 0.2032,-1.15993 0,-0.7112 -0.1524,-1.0668 -0.23706,-0.54187 -0.71966,-0.54187 -0.6858,0 -1.0922,0.59267 -0.0508,0.0762 -0.11007,0.0762 -0.0847,0 -0.1016,-0.0423 -0.0169,-0.0508 -0.0169,-0.1778 v -2.50613 q 0,-0.2032 0.0847,-0.2032 0.0339,0 0.1016,0.0254 0.5334,0.23707 1.12607,0.23707 0.6096,0 1.15147,-0.24554 0.0423,-0.0254 0.0677,-0.0254 0.0847,0 0.0847,0.0931 0,0.0339 -0.0677,0.13546 -0.0677,0.0931 -0.21166,0.22014 -0.14394,0.127 -0.3302,0.24553 -0.18627,0.11853 -0.4572,0.2032 -0.27094,0.0762 -0.56727,0.0762 -0.3556,0 -0.71967,-0.11007 v 1.651 q 0.44027,-0.4318 1.07527,-0.4318 0.67733,0 1.143,0.55034 0.46567,0.54186 0.46567,1.30386 0,0.79587 -0.55034,1.34621 -0.55033,0.54186 -1.2954,0.54186 -0.67733,0 -1.10913,-0.4826 -0.42333,-0.4826 -0.42333,-1.0668 z m 4.23332,0 q 0,-0.254 0.13546,-0.34713 0.13547,-0.1016 0.2794,-0.1016 0.19474,0 0.3048,0.127 0.11854,0.11853 0.11854,0.28786 0,0.16934 -0.11854,0.29634 -0.11006,0.11853 -0.3048,0.11853 -0.0931,0 -0.14393,-0.0169 0.11007,0.38947 0.44873,0.66887 0.34714,0.2794 0.79587,0.2794 0.56727,0 0.90593,-0.55034 0.2032,-0.3556 0.2032,-1.15993 0,-0.7112 -0.1524,-1.0668 -0.23706,-0.54187 -0.71966,-0.54187 -0.6858,0 -1.0922,0.59267 -0.0508,0.0762 -0.11007,0.0762 -0.0847,0 -0.1016,-0.0423 -0.0169,-0.0508 -0.0169,-0.1778 v -2.50613 q 0,-0.2032 0.0847,-0.2032 0.0339,0 0.1016,0.0254 0.5334,0.23707 1.12607,0.23707 0.6096,0 1.15147,-0.24554 0.0423,-0.0254 0.0677,-0.0254 0.0847,0 0.0847,0.0931 0,0.0339 -0.0677,0.13546 -0.0677,0.0931 -0.21166,0.22014 -0.14394,0.127 -0.3302,0.24553 -0.18627,0.11853 -0.4572,0.2032 -0.27094,0.0762 -0.56727,0.0762 -0.3556,0 -0.71967,-0.11007 v 1.651 q 0.44027,-0.4318 1.07527,-0.4318 0.67733,0 1.143,0.55034 0.46567,0.54186 0.46567,1.30386 0,0.79587 -0.55034,1.34621 -0.55033,0.54186 -1.2954,0.54186 -0.67733,0 -1.10913,-0.4826 -0.42333,-0.4826 -0.42333,-1.0668 z m 4.16558,0.0847 q 0,-0.94827 1.2192,-1.55787 -0.52493,-0.3556 -0.61806,-0.4572 -0.37254,-0.41487 -0.37254,-0.93133 0,-0.59267 0.44874,-0.99907 0.44873,-0.41487 1.08373,-0.41487 0.6096,0 1.0668,0.3556 0.4572,0.34714 0.4572,0.90594 0,0.7874 -1.02447,1.31233 0.67734,0.42333 0.8382,0.60113 0.41487,0.4572 0.41487,1.0414 0,0.67734 -0.52493,1.14301 -0.51647,0.46566 -1.23614,0.46566 -0.70273,0 -1.22767,-0.4064 -0.52493,-0.41486 -0.52493,-1.05833 z m 0.42333,0 q 0,0.52493 0.38947,0.88053 0.39794,0.34714 0.94827,0.34714 0.5334,0 0.93133,-0.3048 0.39794,-0.3048 0.39794,-0.76201 0,-0.1778 -0.0593,-0.3302 -0.0593,-0.1524 -0.1778,-0.27093 -0.11853,-0.127 -0.19473,-0.1778 -0.0677,-0.0593 -0.2032,-0.1524 l -1.0414,-0.6604 q -0.99061,0.55033 -0.99061,1.43087 z m 0.17781,-3.2766 q 0,0.4064 0.42333,0.6858 l 1.04987,0.67733 q 0.8382,-0.49107 0.8382,-1.18533 0,-0.44874 -0.34714,-0.74507 -0.33866,-0.3048 -0.8128,-0.3048 -0.46566,0 -0.8128,0.24553 -0.33866,0.24554 -0.33866,0.62654 z m 4.03011,-0.2794 v -0.26247 q 1.016,0 1.54094,-0.54187 0.14393,0 0.16933,0.0339 0.0254,0.0339 0.0254,0.18627 v 4.7498 q 0,0.254 0.11853,0.3302 0.127,0.0762 0.66887,0.0762 h 0.27093 v 0.26247 q -0.29633,-0.0254 -1.3716,-0.0254 -1.07526,0 -1.3716,0.0254 v -0.26247 h 0.27094 q 0.5334,0 0.6604,-0.0762 0.127,-0.0762 0.127,-0.3302 v -4.38574 q -0.44027,0.22014 -1.10914,0.22014 z m 3.71685,3.43746 v -0.26246 l 2.59927,-3.97087 q 0.0677,-0.1016 0.16934,-0.1016 0.0931,0 0.11006,0.0423 0.0254,0.0339 0.0254,0.1778 v 3.85234 h 0.84667 v 0.26246 h -0.84667 v 0.73661 q 0,0.24553 0.1016,0.32173 0.1016,0.0762 0.54187,0.0762 h 0.1778 v 0.26247 q -0.34713,-0.0254 -1.15147,-0.0254 -0.79586,0 -1.143,0.0254 v -0.26247 h 0.1778 q 0.44027,0 0.54187,-0.0762 0.1016,-0.0762 0.1016,-0.32173 v -0.73661 z m 0.23707,-0.26246 h 2.06587 v -3.15807 z m 4.18252,1.65947 q 0,-0.1524 0.008,-0.19474 0.0169,-0.0508 0.0847,-0.11853 l 1.6256,-1.81187 q 0.889,-0.99907 0.889,-1.87113 0,-0.56727 -0.29633,-0.97367 -0.29633,-0.4064 -0.8382,-0.4064 -0.37253,0 -0.6858,0.2286 -0.31327,0.2286 -0.4572,0.635 0.0254,-0.008 0.11007,-0.008 0.21166,0 0.3302,0.13547 0.11853,0.127 0.11853,0.3048 0,0.2286 -0.1524,0.33867 -0.14393,0.11006 -0.28787,0.11006 -0.0593,0 -0.13546,-0.008 -0.0762,-0.0169 -0.19474,-0.13547 -0.11853,-0.11853 -0.11853,-0.3302 0,-0.59267 0.44873,-1.05833 0.44874,-0.47414 1.13454,-0.47414 0.77893,0 1.28693,0.46567 0.508,0.4572 0.508,1.17687 0,0.254 -0.0762,0.4826 -0.0762,0.2286 -0.1778,0.4064 -0.1016,0.1778 -0.37253,0.46566 -0.27094,0.2794 -0.49107,0.4826 -0.22013,0.2032 -0.7112,0.635 l -0.89747,0.87207 h 1.524 q 0.74507,0 0.80434,-0.0677 0.0847,-0.11854 0.18626,-0.75354 h 0.21167 l -0.23707,1.47321 z"
         id="path78" />
      <path
         style="font-weight:normal;-inkscape-font-specification:'CMU Serif'"
         d="m 150.22641,206.1939 v -0.26246 q 1.016,0 1.54093,-0.54187 0.14394,0 0.16934,0.0339 0.0254,0.0339 0.0254,0.18627 v 4.7498 q 0,0.254 0.11853,0.3302 0.127,0.0762 0.66887,0.0762 h 0.27093 v 0.26247 q -0.29633,-0.0254 -1.3716,-0.0254 -1.07527,0 -1.3716,0.0254 v -0.26247 h 0.27093 q 0.5334,0 0.6604,-0.0762 0.127,-0.0762 0.127,-0.3302 v -4.38573 q -0.44026,0.22013 -1.10913,0.22013 z m 4.32645,4.699 q -0.127,-0.13546 -0.127,-0.31326 0,-0.1778 0.127,-0.3048 0.127,-0.13547 0.32173,-0.13547 0.18627,0 0.31327,0.127 0.127,0.11853 0.127,0.31327 0,0.19473 -0.13547,0.32173 -0.13546,0.127 -0.3048,0.127 -0.19473,0 -0.32173,-0.13547 z m 1.9304,-1.22766 q 0,-0.254 0.13547,-0.34714 0.13546,-0.1016 0.2794,-0.1016 0.19473,0 0.3048,0.127 0.11853,0.11854 0.11853,0.28787 0,0.16933 -0.11853,0.29633 -0.11007,0.11854 -0.3048,0.11854 -0.0931,0 -0.14394,-0.0169 0.11007,0.38947 0.44874,0.66887 0.34713,0.2794 0.79586,0.2794 0.56727,0 0.90594,-0.55033 0.2032,-0.3556 0.2032,-1.15994 0,-0.7112 -0.1524,-1.0668 -0.23707,-0.54186 -0.71967,-0.54186 -0.6858,0 -1.0922,0.59266 -0.0508,0.0762 -0.11007,0.0762 -0.0847,0 -0.1016,-0.0423 -0.0169,-0.0508 -0.0169,-0.1778 v -2.50614 q 0,-0.2032 0.0847,-0.2032 0.0339,0 0.1016,0.0254 0.5334,0.23707 1.12606,0.23707 0.60961,0 1.15147,-0.24553 0.0423,-0.0254 0.0677,-0.0254 0.0847,0 0.0847,0.0931 0,0.0339 -0.0677,0.13547 -0.0677,0.0931 -0.21167,0.22013 -0.14393,0.127 -0.3302,0.24554 -0.18626,0.11853 -0.4572,0.2032 -0.27093,0.0762 -0.56727,0.0762 -0.3556,0 -0.71966,-0.11007 v 1.651 q 0.44026,-0.4318 1.07526,-0.4318 0.67734,0 1.14301,0.55033 0.46566,0.54187 0.46566,1.30387 0,0.79587 -0.55033,1.3462 -0.55033,0.54187 -1.2954,0.54187 -0.67734,0 -1.10914,-0.4826 -0.42333,-0.4826 -0.42333,-1.0668 z m 4.16559,0.0847 q 0,-0.94826 1.2192,-1.55786 -0.52494,-0.3556 -0.61807,-0.4572 -0.37253,-0.41487 -0.37253,-0.93134 0,-0.59266 0.44873,-0.99907 0.44873,-0.41486 1.08373,-0.41486 0.6096,0 1.0668,0.3556 0.4572,0.34713 0.4572,0.90593 0,0.7874 -1.02446,1.31234 0.67733,0.42333 0.8382,0.60113 0.41486,0.4572 0.41486,1.0414 0,0.67733 -0.52493,1.143 -0.51647,0.46567 -1.23613,0.46567 -0.70274,0 -1.22767,-0.4064 -0.52493,-0.41487 -0.52493,-1.05834 z m 0.42333,0 q 0,0.52494 0.38947,0.88054 0.39793,0.34713 0.94826,0.34713 0.5334,0 0.93134,-0.3048 0.39793,-0.3048 0.39793,-0.762 0,-0.1778 -0.0593,-0.3302 -0.0593,-0.1524 -0.1778,-0.27093 -0.11853,-0.127 -0.19473,-0.1778 -0.0677,-0.0593 -0.2032,-0.1524 l -1.0414,-0.6604 q -0.9906,0.55033 -0.9906,1.43086 z m 0.1778,-3.2766 q 0,0.4064 0.42333,0.6858 l 1.04987,0.67734 q 0.8382,-0.49107 0.8382,-1.18534 0,-0.44873 -0.34713,-0.74506 -0.33867,-0.30481 -0.8128,-0.30481 -0.46567,0 -0.8128,0.24554 -0.33867,0.24553 -0.33867,0.62653 z m 3.75072,0.57574 0.2794,-1.74414 h 0.21167 q 0.0254,0.1016 0.0677,0.1524 0.0423,0.0423 0.2794,0.0847 0.24553,0.0339 0.7366,0.0339 h 2.0574 q 0,0.19474 -0.0762,0.29634 l -1.143,1.60867 q -0.36407,0.508 -0.52493,1.4478 -0.0931,0.62653 -0.0931,1.38853 v 0.4318 q 0,0.46567 -0.38946,0.46567 -0.38947,0 -0.38947,-0.46567 0,-1.61713 1.0414,-3.18347 0.11007,-0.16086 0.51647,-0.7366 0.41486,-0.57573 0.4318,-0.60113 h -1.7526 q -0.77047,0 -0.82974,0.0508 -0.0847,0.0762 -0.21166,0.77047 z m 4.18252,2.6162 q 0,-0.254 0.13546,-0.34714 0.13547,-0.1016 0.2794,-0.1016 0.19474,0 0.3048,0.127 0.11854,0.11854 0.11854,0.28787 0,0.16933 -0.11854,0.29633 -0.11006,0.11854 -0.3048,0.11854 -0.0931,0 -0.14393,-0.0169 0.11007,0.38947 0.44873,0.66887 0.34714,0.2794 0.79587,0.2794 0.56727,0 0.90593,-0.55033 0.2032,-0.3556 0.2032,-1.15994 0,-0.7112 -0.1524,-1.0668 -0.23706,-0.54186 -0.71966,-0.54186 -0.6858,0 -1.0922,0.59266 -0.0508,0.0762 -0.11007,0.0762 -0.0847,0 -0.1016,-0.0423 -0.0169,-0.0508 -0.0169,-0.1778 v -2.50614 q 0,-0.2032 0.0847,-0.2032 0.0339,0 0.1016,0.0254 0.5334,0.23707 1.12607,0.23707 0.6096,0 1.15147,-0.24553 0.0423,-0.0254 0.0677,-0.0254 0.0847,0 0.0847,0.0931 0,0.0339 -0.0677,0.13547 -0.0677,0.0931 -0.21166,0.22013 -0.14394,0.127 -0.3302,0.24554 -0.18627,0.11853 -0.4572,0.2032 -0.27094,0.0762 -0.56727,0.0762 -0.3556,0 -0.71967,-0.11007 v 1.651 q 0.44027,-0.4318 1.07527,-0.4318 0.67733,0 1.143,0.55033 0.46567,0.54187 0.46567,1.30387 0,0.79587 -0.55034,1.3462 -0.55033,0.54187 -1.2954,0.54187 -0.67733,0 -1.10913,-0.4826 -0.42333,-0.4826 -0.42333,-1.0668 z m 4.23332,0 q 0,-0.254 0.13546,-0.34714 0.13547,-0.1016 0.2794,-0.1016 0.19474,0 0.3048,0.127 0.11854,0.11854 0.11854,0.28787 0,0.16933 -0.11854,0.29633 -0.11006,0.11854 -0.3048,0.11854 -0.0931,0 -0.14393,-0.0169 0.11007,0.38947 0.44873,0.66887 0.34714,0.2794 0.79587,0.2794 0.56727,0 0.90593,-0.55033 0.2032,-0.3556 0.2032,-1.15994 0,-0.7112 -0.1524,-1.0668 -0.23706,-0.54186 -0.71966,-0.54186 -0.6858,0 -1.0922,0.59266 -0.0508,0.0762 -0.11007,0.0762 -0.0847,0 -0.1016,-0.0423 -0.0169,-0.0508 -0.0169,-0.1778 v -2.50614 q 0,-0.2032 0.0847,-0.2032 0.0339,0 0.1016,0.0254 0.5334,0.23707 1.12607,0.23707 0.6096,0 1.15147,-0.24553 0.0423,-0.0254 0.0677,-0.0254 0.0847,0 0.0847,0.0931 0,0.0339 -0.0677,0.13547 -0.0677,0.0931 -0.21166,0.22013 -0.14394,0.127 -0.3302,0.24554 -0.18627,0.11853 -0.4572,0.2032 -0.27094,0.0762 -0.56727,0.0762 -0.3556,0 -0.71967,-0.11007 v 1.651 q 0.44027,-0.4318 1.07527,-0.4318 0.67733,0 1.143,0.55033 0.46567,0.54187 0.46567,1.30387 0,0.79587 -0.55034,1.3462 -0.55033,0.54187 -1.2954,0.54187 -0.67733,0 -1.10913,-0.4826 -0.42333,-0.4826 -0.42333,-1.0668 z m 4.04705,-0.0339 v -0.26247 l 2.59927,-3.97087 q 0.0677,-0.1016 0.16933,-0.1016 0.0931,0 0.11007,0.0423 0.0254,0.0339 0.0254,0.1778 v 3.85233 h 0.84666 v 0.26247 h -0.84666 v 0.7366 q 0,0.24553 0.1016,0.32173 0.1016,0.0762 0.54186,0.0762 h 0.1778 v 0.26247 q -0.34713,-0.0254 -1.15146,-0.0254 -0.79587,0 -1.143,0.0254 v -0.26247 h 0.1778 q 0.44026,0 0.54186,-0.0762 0.1016,-0.0762 0.1016,-0.32173 v -0.7366 z m 0.23707,-0.26247 h 2.06586 v -3.15806 z m 4.11478,0.51647 q 0,-0.254 0.14393,-0.37253 0.14394,-0.11854 0.3302,-0.11854 0.19474,0 0.3302,0.127 0.14394,0.127 0.14394,0.34714 0,0.23706 -0.16934,0.37253 -0.16086,0.127 -0.38946,0.0931 0.2032,0.33867 0.57573,0.49107 0.37253,0.1524 0.71967,0.1524 0.36406,0 0.6604,-0.31327 0.29633,-0.31326 0.29633,-1.08373 0,-0.65193 -0.254,-1.02447 -0.254,-0.381 -0.75353,-0.381 h -0.37254 q -0.127,0 -0.16933,-0.008 -0.0339,-0.0169 -0.0339,-0.0847 0,-0.0847 0.127,-0.1016 0.127,0 0.3302,-0.0254 0.49107,-0.0169 0.75354,-0.44027 0.23706,-0.39793 0.23706,-0.9652 0,-0.51646 -0.24553,-0.72813 -0.24553,-0.22014 -0.56727,-0.22014 -0.29633,0 -0.62653,0.127 -0.32173,0.11854 -0.49953,0.39794 0.52493,0 0.52493,0.42333 0,0.18627 -0.11853,0.31327 -0.11854,0.11853 -0.31327,0.11853 -0.18627,0 -0.31327,-0.11853 -0.11853,-0.11853 -0.11853,-0.32173 0,-0.4826 0.4318,-0.81281 0.4318,-0.33866 1.0668,-0.33866 0.62653,0 1.0922,0.3302 0.46567,0.3302 0.46567,0.8382 0,0.49953 -0.3302,0.9144 -0.3302,0.4064 -0.85514,0.57573 0.64347,0.127 1.02447,0.56727 0.38947,0.4318 0.38947,0.9652 0,0.6604 -0.52494,1.15147 -0.51646,0.4826 -1.27846,0.4826 -0.70274,0 -1.21074,-0.381 -0.49953,-0.381 -0.49953,-0.94827 z m 4.23332,-0.13547 q 0,-0.94826 1.2192,-1.55786 -0.52493,-0.3556 -0.61807,-0.4572 -0.37253,-0.41487 -0.37253,-0.93134 0,-0.59266 0.44873,-0.99907 0.44874,-0.41486 1.08374,-0.41486 0.6096,0 1.0668,0.3556 0.4572,0.34713 0.4572,0.90593 0,0.7874 -1.02447,1.31234 0.67733,0.42333 0.8382,0.60113 0.41487,0.4572 0.41487,1.0414 0,0.67733 -0.52494,1.143 -0.51646,0.46567 -1.23613,0.46567 -0.70273,0 -1.22767,-0.4064 -0.52493,-0.41487 -0.52493,-1.05834 z m 0.42333,0 q 0,0.52494 0.38947,0.88054 0.39793,0.34713 0.94827,0.34713 0.5334,0 0.93133,-0.3048 0.39793,-0.3048 0.39793,-0.762 0,-0.1778 -0.0593,-0.3302 -0.0593,-0.1524 -0.1778,-0.27093 -0.11854,-0.127 -0.19474,-0.1778 -0.0677,-0.0593 -0.2032,-0.1524 l -1.0414,-0.6604 q -0.9906,0.55033 -0.9906,1.43086 z m 0.1778,-3.2766 q 0,0.4064 0.42334,0.6858 l 1.04986,0.67734 q 0.8382,-0.49107 0.8382,-1.18534 0,-0.44873 -0.34713,-0.74506 -0.33867,-0.30481 -0.8128,-0.30481 -0.46567,0 -0.8128,0.24554 -0.33867,0.24553 -0.33867,0.62653 z"
         id="path79" />
      <path
         style="font-weight:normal;-inkscape-font-specification:'CMU Serif'"
         d="m 150.22641,227.36058 v -0.26247 q 1.016,0 1.54093,-0.54187 0.14394,0 0.16934,0.0339 0.0254,0.0339 0.0254,0.18627 v 4.7498 q 0,0.254 0.11853,0.3302 0.127,0.0762 0.66887,0.0762 h 0.27093 v 0.26247 q -0.29633,-0.0254 -1.3716,-0.0254 -1.07527,0 -1.3716,0.0254 v -0.26247 h 0.27093 q 0.5334,0 0.6604,-0.0762 0.127,-0.0762 0.127,-0.3302 v -4.38574 q -0.44026,0.22014 -1.10913,0.22014 z m 4.32645,4.699 q -0.127,-0.13547 -0.127,-0.31327 0,-0.1778 0.127,-0.3048 0.127,-0.13546 0.32173,-0.13546 0.18627,0 0.31327,0.127 0.127,0.11853 0.127,0.31326 0,0.19474 -0.13547,0.32174 -0.13546,0.127 -0.3048,0.127 -0.19473,0 -0.32173,-0.13547 z m 1.83727,-2.57387 q 0,-1.2446 0.31326,-1.92193 0.44027,-1.00754 1.4732,-1.00754 0.22014,0 0.44874,0.0593 0.2286,0.0593 0.51647,0.28787 0.29633,0.2286 0.47413,0.60113 0.33867,0.71967 0.33867,1.9812 0,1.23613 -0.31327,1.91347 -0.4572,0.98213 -1.4732,0.98213 -0.381,0 -0.77047,-0.19473 -0.381,-0.19473 -0.62653,-0.6604 -0.381,-0.70274 -0.381,-2.04047 z m 0.70273,-0.1016 q 0,1.27847 0.0931,1.78647 0.1016,0.55033 0.381,0.7874 0.28787,0.23707 0.60114,0.23707 0.33866,0 0.61807,-0.254 0.28786,-0.254 0.37253,-0.80434 0.0931,-0.54187 0.0931,-1.7526 0,-1.17687 -0.0847,-1.651 -0.11007,-0.55033 -0.4064,-0.77047 -0.29634,-0.22013 -0.59267,-0.22013 -0.11007,0 -0.2286,0.0339 -0.11854,0.0339 -0.28787,0.127 -0.16933,0.0931 -0.3048,0.3302 -0.127,0.23706 -0.18627,0.59266 -0.0677,0.4572 -0.0677,1.55787 z m 3.67452,-1.1684 0.2794,-1.74413 h 0.21167 q 0.0254,0.1016 0.0677,0.1524 0.0423,0.0423 0.2794,0.0847 0.24553,0.0339 0.7366,0.0339 h 2.0574 q 0,0.19473 -0.0762,0.29633 l -1.143,1.60867 q -0.36407,0.508 -0.52493,1.4478 -0.0931,0.62653 -0.0931,1.38854 v 0.4318 q 0,0.46566 -0.38946,0.46566 -0.38947,0 -0.38947,-0.46566 0,-1.61714 1.0414,-3.18347 0.11007,-0.16087 0.51647,-0.7366 0.41486,-0.57574 0.4318,-0.60114 h -1.7526 q -0.77047,0 -0.82974,0.0508 -0.0847,0.0762 -0.21166,0.77047 z m 4.18252,3.97934 q 0,-0.1524 0.008,-0.19474 0.0169,-0.0508 0.0847,-0.11853 l 1.6256,-1.81187 q 0.889,-0.99907 0.889,-1.87113 0,-0.56727 -0.29633,-0.97367 -0.29633,-0.4064 -0.8382,-0.4064 -0.37253,0 -0.6858,0.2286 -0.31327,0.2286 -0.4572,0.635 0.0254,-0.008 0.11007,-0.008 0.21166,0 0.3302,0.13547 0.11853,0.127 0.11853,0.3048 0,0.2286 -0.1524,0.33867 -0.14393,0.11006 -0.28787,0.11006 -0.0593,0 -0.13546,-0.008 -0.0762,-0.0169 -0.19474,-0.13547 -0.11853,-0.11853 -0.11853,-0.3302 0,-0.59267 0.44873,-1.05833 0.44874,-0.47414 1.13454,-0.47414 0.77893,0 1.28693,0.46567 0.508,0.4572 0.508,1.17687 0,0.254 -0.0762,0.4826 -0.0762,0.2286 -0.1778,0.4064 -0.1016,0.1778 -0.37253,0.46566 -0.27094,0.2794 -0.49107,0.4826 -0.22013,0.2032 -0.7112,0.635 l -0.89747,0.87207 h 1.524 q 0.74507,0 0.80434,-0.0677 0.0847,-0.11853 0.18626,-0.75354 h 0.21167 l -0.23707,1.47321 z m 4.23332,0 q 0,-0.1524 0.008,-0.19474 0.0169,-0.0508 0.0847,-0.11853 l 1.6256,-1.81187 q 0.889,-0.99907 0.889,-1.87113 0,-0.56727 -0.29633,-0.97367 -0.29634,-0.4064 -0.8382,-0.4064 -0.37254,0 -0.6858,0.2286 -0.31327,0.2286 -0.4572,0.635 0.0254,-0.008 0.11006,-0.008 0.21167,0 0.3302,0.13547 0.11854,0.127 0.11854,0.3048 0,0.2286 -0.1524,0.33867 -0.14394,0.11006 -0.28787,0.11006 -0.0593,0 -0.13547,-0.008 -0.0762,-0.0169 -0.19473,-0.13547 -0.11853,-0.11853 -0.11853,-0.3302 0,-0.59267 0.44873,-1.05833 0.44873,-0.47414 1.13453,-0.47414 0.77894,0 1.28694,0.46567 0.508,0.4572 0.508,1.17687 0,0.254 -0.0762,0.4826 -0.0762,0.2286 -0.1778,0.4064 -0.1016,0.1778 -0.37254,0.46566 -0.27093,0.2794 -0.49106,0.4826 -0.22014,0.2032 -0.7112,0.635 l -0.89747,0.87207 h 1.524 q 0.74507,0 0.80433,-0.0677 0.0847,-0.11853 0.18627,-0.75354 h 0.21167 l -0.23707,1.47321 z m 4.23332,0 q 0,-0.1524 0.008,-0.19474 0.0169,-0.0508 0.0847,-0.11853 l 1.6256,-1.81187 q 0.889,-0.99907 0.889,-1.87113 0,-0.56727 -0.29633,-0.97367 -0.29634,-0.4064 -0.8382,-0.4064 -0.37254,0 -0.6858,0.2286 -0.31327,0.2286 -0.4572,0.635 0.0254,-0.008 0.11006,-0.008 0.21167,0 0.3302,0.13547 0.11854,0.127 0.11854,0.3048 0,0.2286 -0.1524,0.33867 -0.14394,0.11006 -0.28787,0.11006 -0.0593,0 -0.13547,-0.008 -0.0762,-0.0169 -0.19473,-0.13547 -0.11853,-0.11853 -0.11853,-0.3302 0,-0.59267 0.44873,-1.05833 0.44873,-0.47414 1.13453,-0.47414 0.77894,0 1.28694,0.46567 0.508,0.4572 0.508,1.17687 0,0.254 -0.0762,0.4826 -0.0762,0.2286 -0.1778,0.4064 -0.1016,0.1778 -0.37254,0.46566 -0.27093,0.2794 -0.49106,0.4826 -0.22014,0.2032 -0.7112,0.635 l -0.89747,0.87207 h 1.524 q 0.74507,0 0.80433,-0.0677 0.0847,-0.11853 0.18627,-0.75354 h 0.21167 l -0.23707,1.47321 z m 4.04705,-1.39701 v -0.26246 l 2.59927,-3.97087 q 0.0677,-0.1016 0.16933,-0.1016 0.0931,0 0.11007,0.0423 0.0254,0.0339 0.0254,0.1778 v 3.85234 h 0.84666 v 0.26246 h -0.84666 v 0.73661 q 0,0.24553 0.1016,0.32173 0.1016,0.0762 0.54186,0.0762 h 0.1778 v 0.26247 q -0.34713,-0.0254 -1.15146,-0.0254 -0.79587,0 -1.143,0.0254 v -0.26247 h 0.1778 q 0.44026,0 0.54186,-0.0762 0.1016,-0.0762 0.1016,-0.32173 v -0.73661 z m 0.23707,-0.26246 h 2.06586 v -3.15807 z m 4.11478,-2.07434 q 0,-0.44873 0.127,-0.75353 0.13547,-0.31327 0.41487,-0.61807 0.508,-0.5334 1.2446,-0.5334 0.31326,0 0.59266,0.13547 0.2794,0.127 0.54187,0.4318 0.27093,0.29633 0.4318,0.889 0.16087,0.5842 0.16087,1.397 0,1.31233 -0.635,2.14207 -0.635,0.82973 -1.49014,0.82973 -0.54186,0 -0.8636,-0.24553 -0.31326,-0.24553 -0.31326,-0.66887 0,-0.22013 0.11853,-0.31326 0.127,-0.0931 0.27093,-0.0931 0.1524,0 0.27094,0.1016 0.11853,0.1016 0.11853,0.28787 0,0.1524 -0.1016,0.27093 -0.0931,0.11854 -0.33867,0.11854 0.24554,0.3048 0.82974,0.3048 0.21166,0 0.42333,-0.0931 0.21167,-0.1016 0.44027,-0.33866 0.2286,-0.23707 0.36406,-0.73661 0.14394,-0.49953 0.14394,-1.20226 v -0.27094 q -0.33867,0.84667 -1.05834,0.84667 -0.7112,0 -1.20226,-0.54187 -0.49107,-0.55033 -0.49107,-1.3462 z m 0.762,0.008 q 0,0.8382 0.1524,1.15147 0.26247,0.5334 0.7874,0.5334 0.51647,0 0.77047,-0.4572 0.26246,-0.46567 0.26246,-1.0668 0,-0.82974 -0.13546,-1.1938 -0.254,-0.66887 -0.8128,-0.66887 -0.5588,0 -0.84667,0.5334 -0.1778,0.31327 -0.1778,1.1684 z m 3.47132,1.04987 q 0,-1.32927 0.67733,-2.14207 0.67734,-0.82127 1.5494,-0.82127 0.508,0 0.7874,0.26247 0.28787,0.254 0.28787,0.65193 0,0.22014 -0.127,0.31327 -0.127,0.0931 -0.26247,0.0931 -0.1524,0 -0.27093,-0.1016 -0.11853,-0.1016 -0.11853,-0.28786 0,-0.381 0.46566,-0.381 -0.22013,-0.33867 -0.74506,-0.33867 -0.16087,0 -0.3302,0.0508 -0.16087,0.0423 -0.381,0.2032 -0.21167,0.1524 -0.381,0.4064 -0.16087,0.24553 -0.2794,0.7112 -0.11007,0.46567 -0.11007,1.07527 v 0.2032 q 0.34713,-0.8382 1.05833,-0.8382 0.7112,0 1.20227,0.54186 0.49107,0.54187 0.49107,1.3462 0,0.82127 -0.51647,1.37161 -0.508,0.54186 -1.22767,0.54186 -0.32173,0 -0.61806,-0.13546 -0.28787,-0.13547 -0.5588,-0.44027 -0.27094,-0.3048 -0.4318,-0.889 -0.16087,-0.59267 -0.16087,-1.397 z m 0.77893,0.762 q 0,0.82973 0.1524,1.22767 0.0254,0.0677 0.0762,0.16086 0.0593,0.0847 0.1524,0.2032 0.1016,0.11854 0.26247,0.19474 0.16087,0.0762 0.34713,0.0762 0.56727,0 0.8382,-0.55034 0.14394,-0.3048 0.14394,-1.13453 0,-0.84667 -0.1524,-1.15994 -0.26247,-0.52493 -0.7874,-0.52493 -0.3556,0 -0.60114,0.24553 -0.24553,0.24554 -0.33866,0.57574 -0.0931,0.32173 -0.0931,0.6858 z"
         id="path80" />
      <path
         style="font-weight:normal;-inkscape-font-specification:'CMU Serif'"
         d="m 142.42862,251.25352 q 0,-0.1016 0.16934,-0.1016 h 5.19006 q 0.008,0 0.0423,0 0.0423,0 0.0508,0 0.0169,0 0.0423,0 0.0339,0 0.0423,0.008 0.0169,0.008 0.0339,0.0169 0.0169,0.008 0.0254,0.0254 0.008,0.0169 0.008,0.0423 0,0.1016 -0.22014,0.1016 h -0.0169 q -0.0254,0 -0.0762,0 -0.0423,-0.008 -0.0677,-0.008 h -4.76674 q -0.0339,0 -0.1016,0.008 -0.0593,0 -0.0931,0 h -0.0423 q -0.22014,0 -0.22014,-0.0931 z m 6.43467,-0.60113 q 0,-1.2446 0.31327,-1.92194 0.44026,-1.00753 1.4732,-1.00753 0.22013,0 0.44873,0.0593 0.2286,0.0593 0.51647,0.28786 0.29633,0.2286 0.47413,0.60114 0.33867,0.71966 0.33867,1.9812 0,1.23613 -0.31327,1.91346 -0.4572,0.98214 -1.4732,0.98214 -0.381,0 -0.77047,-0.19474 -0.381,-0.19473 -0.62653,-0.6604 -0.381,-0.70273 -0.381,-2.04046 z m 0.70273,-0.1016 q 0,1.27846 0.0931,1.78646 0.1016,0.55034 0.381,0.7874 0.28786,0.23707 0.60113,0.23707 0.33867,0 0.61807,-0.254 0.28786,-0.254 0.37253,-0.80433 0.0931,-0.54187 0.0931,-1.7526 0,-1.17687 -0.0847,-1.651 -0.11007,-0.55034 -0.4064,-0.77047 -0.29634,-0.22013 -0.59267,-0.22013 -0.11007,0 -0.2286,0.0339 -0.11853,0.0339 -0.28787,0.127 -0.16933,0.0931 -0.3048,0.3302 -0.127,0.23707 -0.18626,0.59267 -0.0677,0.4572 -0.0677,1.55787 z m 4.04706,2.67546 q -0.127,-0.13546 -0.127,-0.31326 0,-0.1778 0.127,-0.3048 0.127,-0.13547 0.32173,-0.13547 0.18627,0 0.31327,0.127 0.127,0.11853 0.127,0.31327 0,0.19473 -0.13547,0.32173 -0.13547,0.127 -0.3048,0.127 -0.19473,0 -0.32173,-0.13547 z m 1.83726,-2.57386 q 0,-1.2446 0.31327,-1.92194 0.44027,-1.00753 1.4732,-1.00753 0.22013,0 0.44873,0.0593 0.2286,0.0593 0.51647,0.28786 0.29633,0.2286 0.47413,0.60114 0.33867,0.71966 0.33867,1.9812 0,1.23613 -0.31327,1.91346 -0.4572,0.98214 -1.4732,0.98214 -0.381,0 -0.77046,-0.19474 -0.381,-0.19473 -0.62654,-0.6604 -0.381,-0.70273 -0.381,-2.04046 z m 0.70274,-0.1016 q 0,1.27846 0.0931,1.78646 0.1016,0.55034 0.381,0.7874 0.28787,0.23707 0.60113,0.23707 0.33867,0 0.61807,-0.254 0.28787,-0.254 0.37253,-0.80433 0.0931,-0.54187 0.0931,-1.7526 0,-1.17687 -0.0847,-1.651 -0.11007,-0.55034 -0.4064,-0.77047 -0.29633,-0.22013 -0.59267,-0.22013 -0.11006,0 -0.2286,0.0339 -0.11853,0.0339 -0.28786,0.127 -0.16934,0.0931 -0.3048,0.3302 -0.127,0.23707 -0.18627,0.59267 -0.0677,0.4572 -0.0677,1.55787 z m 3.62371,2.81093 q 0,-0.1524 0.008,-0.19473 0.0169,-0.0508 0.0847,-0.11854 l 1.6256,-1.81186 q 0.889,-0.99907 0.889,-1.87114 0,-0.56726 -0.29634,-0.97366 -0.29633,-0.4064 -0.8382,-0.4064 -0.37253,0 -0.6858,0.2286 -0.31326,0.2286 -0.4572,0.635 0.0254,-0.008 0.11007,-0.008 0.21167,0 0.3302,0.13547 0.11853,0.127 0.11853,0.3048 0,0.2286 -0.1524,0.33866 -0.14393,0.11007 -0.28786,0.11007 -0.0593,0 -0.13547,-0.008 -0.0762,-0.0169 -0.19473,-0.13546 -0.11854,-0.11854 -0.11854,-0.3302 0,-0.59267 0.44874,-1.05834 0.44873,-0.47413 1.13453,-0.47413 0.77893,0 1.28693,0.46567 0.50801,0.4572 0.50801,1.17686 0,0.254 -0.0762,0.4826 -0.0762,0.2286 -0.1778,0.4064 -0.10161,0.1778 -0.37254,0.46567 -0.27093,0.2794 -0.49107,0.4826 -0.22013,0.2032 -0.7112,0.635 l -0.89746,0.87207 h 1.524 q 0.74506,0 0.80433,-0.0677 0.0847,-0.11853 0.18627,-0.75353 h 0.21167 l -0.23707,1.4732 z m 4.56352,-4.83447 v -0.26246 q 1.016,0 1.54094,-0.54187 0.14393,0 0.16933,0.0339 0.0254,0.0339 0.0254,0.18627 v 4.7498 q 0,0.254 0.11853,0.3302 0.127,0.0762 0.66887,0.0762 h 0.27094 v 0.26247 q -0.29634,-0.0254 -1.37161,-0.0254 -1.07526,0 -1.3716,0.0254 v -0.26247 h 0.27094 q 0.5334,0 0.6604,-0.0762 0.127,-0.0762 0.127,-0.3302 v -4.38573 q -0.44027,0.22013 -1.10914,0.22013 z m 4.23332,0 v -0.26246 q 1.016,0 1.54094,-0.54187 0.14393,0 0.16933,0.0339 0.0254,0.0339 0.0254,0.18627 v 4.7498 q 0,0.254 0.11853,0.3302 0.127,0.0762 0.66887,0.0762 h 0.27093 v 0.26247 q -0.29633,-0.0254 -1.3716,-0.0254 -1.07526,0 -1.3716,0.0254 v -0.26247 h 0.27094 q 0.5334,0 0.6604,-0.0762 0.127,-0.0762 0.127,-0.3302 v -4.38573 q -0.44027,0.22013 -1.10914,0.22013 z m 3.90312,4.83447 q 0,-0.1524 0.008,-0.19473 0.0169,-0.0508 0.0847,-0.11854 l 1.6256,-1.81186 q 0.88901,-0.99907 0.88901,-1.87114 0,-0.56726 -0.29634,-0.97366 -0.29633,-0.4064 -0.8382,-0.4064 -0.37253,0 -0.6858,0.2286 -0.31327,0.2286 -0.4572,0.635 0.0254,-0.008 0.11007,-0.008 0.21166,0 0.3302,0.13547 0.11853,0.127 0.11853,0.3048 0,0.2286 -0.1524,0.33866 -0.14393,0.11007 -0.28787,0.11007 -0.0593,0 -0.13546,-0.008 -0.0762,-0.0169 -0.19474,-0.13546 -0.11853,-0.11854 -0.11853,-0.3302 0,-0.59267 0.44873,-1.05834 0.44874,-0.47413 1.13454,-0.47413 0.77893,0 1.28693,0.46567 0.508,0.4572 0.508,1.17686 0,0.254 -0.0762,0.4826 -0.0762,0.2286 -0.1778,0.4064 -0.1016,0.1778 -0.37253,0.46567 -0.27094,0.2794 -0.49107,0.4826 -0.22013,0.2032 -0.7112,0.635 l -0.89747,0.87207 h 1.524 q 0.74507,0 0.80434,-0.0677 0.0847,-0.11853 0.18627,-0.75353 h 0.21166 l -0.23706,1.4732 z m 4.14019,-2.70933 q 0,-1.2446 0.31326,-1.92194 0.44027,-1.00753 1.4732,-1.00753 0.22014,0 0.44874,0.0593 0.2286,0.0593 0.51646,0.28786 0.29634,0.2286 0.47414,0.60114 0.33866,0.71966 0.33866,1.9812 0,1.23613 -0.31326,1.91346 -0.4572,0.98214 -1.4732,0.98214 -0.381,0 -0.77047,-0.19474 -0.381,-0.19473 -0.62653,-0.6604 -0.381,-0.70273 -0.381,-2.04046 z m 0.70273,-0.1016 q 0,1.27846 0.0931,1.78646 0.1016,0.55034 0.381,0.7874 0.28787,0.23707 0.60114,0.23707 0.33866,0 0.61806,-0.254 0.28787,-0.254 0.37254,-0.80433 0.0931,-0.54187 0.0931,-1.7526 0,-1.17687 -0.0847,-1.651 -0.11006,-0.55034 -0.4064,-0.77047 -0.29633,-0.22013 -0.59266,-0.22013 -0.11007,0 -0.2286,0.0339 -0.11854,0.0339 -0.28787,0.127 -0.16933,0.0931 -0.3048,0.3302 -0.127,0.23707 -0.18627,0.59267 -0.0677,0.4572 -0.0677,1.55787 z m 3.55598,1.53246 q 0,-0.94826 1.2192,-1.55786 -0.52493,-0.3556 -0.61806,-0.4572 -0.37254,-0.41487 -0.37254,-0.93134 0,-0.59266 0.44874,-0.99906 0.44873,-0.41487 1.08373,-0.41487 0.6096,0 1.0668,0.3556 0.4572,0.34713 0.4572,0.90593 0,0.7874 -1.02447,1.31234 0.67734,0.42333 0.83821,0.60113 0.41486,0.4572 0.41486,1.0414 0,0.67733 -0.52493,1.143 -0.51647,0.46567 -1.23614,0.46567 -0.70273,0 -1.22766,-0.4064 -0.52494,-0.41487 -0.52494,-1.05834 z m 0.42334,0 q 0,0.52494 0.38946,0.88054 0.39794,0.34713 0.94827,0.34713 0.5334,0 0.93134,-0.3048 0.39793,-0.3048 0.39793,-0.762 0,-0.1778 -0.0593,-0.3302 -0.0593,-0.1524 -0.1778,-0.27093 -0.11853,-0.127 -0.19473,-0.1778 -0.0677,-0.0593 -0.2032,-0.1524 l -1.0414,-0.6604 q -0.9906,0.55033 -0.9906,1.43086 z m 0.1778,-3.2766 q 0,0.4064 0.42333,0.6858 l 1.04987,0.67734 q 0.8382,-0.49107 0.8382,-1.18534 0,-0.44873 -0.34714,-0.74506 -0.33866,-0.3048 -0.8128,-0.3048 -0.46566,0 -0.8128,0.24553 -0.33866,0.24553 -0.33866,0.62653 z m 3.69992,3.19194 q 0,-0.254 0.13546,-0.34714 0.13547,-0.1016 0.2794,-0.1016 0.19474,0 0.3048,0.127 0.11854,0.11854 0.11854,0.28787 0,0.16933 -0.11854,0.29633 -0.11006,0.11854 -0.3048,0.11854 -0.0931,0 -0.14393,-0.0169 0.11007,0.38947 0.44873,0.66887 0.34714,0.2794 0.79587,0.2794 0.56727,0 0.90593,-0.55033 0.2032,-0.3556 0.2032,-1.15994 0,-0.7112 -0.1524,-1.0668 -0.23706,-0.54186 -0.71966,-0.54186 -0.6858,0 -1.0922,0.59266 -0.0508,0.0762 -0.11007,0.0762 -0.0847,0 -0.1016,-0.0423 -0.0169,-0.0508 -0.0169,-0.1778 v -2.50613 q 0,-0.20321 0.0847,-0.20321 0.0339,0 0.1016,0.0254 0.5334,0.23707 1.12607,0.23707 0.6096,0 1.15147,-0.24553 0.0423,-0.0254 0.0677,-0.0254 0.0847,0 0.0847,0.0931 0,0.0339 -0.0677,0.13547 -0.0677,0.0931 -0.21166,0.22013 -0.14394,0.127 -0.3302,0.24554 -0.18627,0.11853 -0.4572,0.2032 -0.27094,0.0762 -0.56727,0.0762 -0.3556,0 -0.71967,-0.11007 v 1.651 q 0.44027,-0.4318 1.07527,-0.4318 0.67733,0 1.143,0.55033 0.46567,0.54187 0.46567,1.30387 0,0.79587 -0.55034,1.3462 -0.55033,0.54187 -1.2954,0.54187 -0.67733,0 -1.10913,-0.4826 -0.42333,-0.4826 -0.42333,-1.0668 z m 4.28412,-2.6162 0.2794,-1.74414 h 0.21166 q 0.0254,0.1016 0.0677,0.1524 0.0423,0.0423 0.2794,0.0847 0.24553,0.0339 0.7366,0.0339 h 2.0574 q 0,0.19473 -0.0762,0.29633 l -1.143,1.60867 q -0.36407,0.508 -0.52493,1.4478 -0.0931,0.62653 -0.0931,1.38853 v 0.4318 q 0,0.46567 -0.38946,0.46567 -0.38947,0 -0.38947,-0.46567 0,-1.61713 1.0414,-3.18347 0.11007,-0.16086 0.51647,-0.7366 0.41486,-0.57573 0.4318,-0.60113 h -1.75261 q -0.77046,0 -0.82973,0.0508 -0.0847,0.0762 -0.21167,0.77047 z m 4.23332,0 0.2794,-1.74414 h 0.21166 q 0.0254,0.1016 0.0677,0.1524 0.0423,0.0423 0.2794,0.0847 0.24553,0.0339 0.7366,0.0339 h 2.0574 q 0,0.19473 -0.0762,0.29633 l -1.143,1.60867 q -0.36407,0.508 -0.52494,1.4478 -0.0931,0.62653 -0.0931,1.38853 v 0.4318 q 0,0.46567 -0.38947,0.46567 -0.38946,0 -0.38946,-0.46567 0,-1.61713 1.0414,-3.18347 0.11006,-0.16086 0.51646,-0.7366 0.41487,-0.57573 0.4318,-0.60113 h -1.7526 q -0.77046,0 -0.82973,0.0508 -0.0847,0.0762 -0.21167,0.77047 z"
         id="path81" />
    </g>
  </g>
</svg>
