<?xml version="1.0" encoding="UTF-8" standalone="no"?>
<!-- Created with Inkscape (http://www.inkscape.org/) -->

<svg
   width="308.16266mm"
   height="94.103874mm"
   viewBox="0 0 308.16266 94.103874"
   version="1.1"
   id="svg1"
   xml:space="preserve"
   inkscape:version="1.3 (0e150ed, 2023-07-21)"
   sodipodi:docname="physical_checks.svg"
   xmlns:inkscape="http://www.inkscape.org/namespaces/inkscape"
   xmlns:sodipodi="http://sodipodi.sourceforge.net/DTD/sodipodi-0.dtd"
   xmlns:xlink="http://www.w3.org/1999/xlink"
   xmlns="http://www.w3.org/2000/svg"
   xmlns:svg="http://www.w3.org/2000/svg"><sodipodi:namedview
     id="namedview1"
     pagecolor="#ffffff"
     bordercolor="#000000"
     borderopacity="0.25"
     inkscape:showpageshadow="2"
     inkscape:pageopacity="0.0"
     inkscape:pagecheckerboard="0"
     inkscape:deskcolor="#d1d1d1"
     inkscape:document-units="mm"
     inkscape:zoom="0.57152152"
     inkscape:cx="666.64157"
     inkscape:cy="304.45048"
     inkscape:window-width="1920"
     inkscape:window-height="1027"
     inkscape:window-x="0"
     inkscape:window-y="25"
     inkscape:window-maximized="0"
     inkscape:current-layer="layer1" /><defs
     id="defs1"><marker
       style="overflow:visible"
       id="ArrowWide"
       refX="0"
       refY="0"
       orient="auto-start-reverse"
       inkscape:stockid="Wide arrow"
       markerWidth="1"
       markerHeight="1"
       viewBox="0 0 1 1"
       inkscape:isstock="true"
       inkscape:collect="always"
       preserveAspectRatio="xMidYMid"><path
         style="fill:none;stroke:context-stroke;stroke-width:1;stroke-linecap:butt"
         d="M 3,-3 0,0 3,3"
         transform="rotate(180,0.125,0)"
         sodipodi:nodetypes="ccc"
         id="path2" /></marker><path
       id="MJSZ2-2211"
       stroke-width="10"
       d="m 60,948 q 3,2 605,2 h 602 l 58,-135 q 59,-138 63,-146 h -40 l -7,14 q -21,41 -56,78 -50,48 -111,77 -61,29 -141,43 -80,14 -151,17 -71,3 -183,4 H 574 543 251 l 8,-11 q 463,-633 465,-639 1,-2 0,-6 -3,-3 -264,-302 L 196,-356 q 0,-1 211,-1 52,0 141,0 89,0 128,-1 136,0 220,5 84,5 167,21 83,16 141,49 58,33 103,87 21,26 41,72 h 40 q 0,-1 -7,-21 -7,-20 -25,-65 -18,-45 -31,-84 l -58,-155 -601,-1 q -602,0 -605,2 -6,2 -6,9 0,2 2,6 l 533,610 q 0,1 -33,45 -33,44 -105,144 -72,100 -130,178 L 56,909 55,924 q 0,21 5,24 z" /><path
       id="MJMATHI-69"
       stroke-width="10"
       d="m 184,600 q 0,24 19,42 19,18 44,19 18,0 30,-12 12,-12 13,-30 0,-23 -20,-42 -20,-19 -44,-20 -15,0 -28,10 -13,10 -14,33 z M 21,287 q 0,8 9,31 9,23 24,51 15,28 44,51 29,23 60,22 39,0 65,-23 26,-23 27,-62 0,-17 -14,-56 -14,-39 -40,-105 -26,-66 -42,-113 -5,-22 -5,-32 0,-25 17,-25 9,0 19,3 10,3 23,14 13,11 27,35 14,24 25,59 3,12 5,14 2,2 17,2 20,0 20,-10 0,-8 -9,-31 -9,-23 -25,-51 -16,-28 -45,-50 -29,-22 -62,-22 -32,0 -59,21 -27,21 -28,64 0,17 5,32 5,15 43,114 38,101 44,121 6,20 7,39 0,24 -17,24 h -2 q -30,0 -55,-33 -25,-33 -38,-84 -1,-1 -2,-3 -1,-2 -1,-3 0,-1 -2,-2 -2,-1 -3,-1 -1,0 -4,0 -3,0 -8,0 H 27 q -6,6 -6,9 z" /><path
       id="MJMAIN-3D"
       stroke-width="10"
       d="m 56,347 q 0,13 14,20 h 637 q 15,-8 15,-20 0,-11 -14,-19 L 390,327 H 72 q -16,5 -16,20 z m 0,-194 q 0,15 16,20 h 636 q 14,-10 14,-20 0,-13 -15,-20 H 70 q -14,7 -14,20 z" /><path
       id="MJMAIN-30"
       stroke-width="10"
       d="m 96,585 q 56,81 153,81 48,0 96,-26 48,-26 78,-92 37,-83 37,-228 0,-155 -43,-237 -20,-42 -55,-67 -35,-25 -61,-31 -26,-6 -51,-7 -26,0 -52,6 -26,6 -61,32 -35,26 -55,67 -43,82 -43,237 0,174 57,265 z m 225,12 q -30,32 -71,32 -42,0 -72,-32 -25,-26 -33,-72 -8,-46 -8,-192 0,-158 8,-208 8,-50 36,-79 28,-30 69,-30 40,0 68,30 29,30 36,84 7,54 8,203 0,145 -8,191 -8,46 -33,73 z" /><path
       id="MJMATHI-6E"
       stroke-width="10"
       d="m 21,287 q 1,6 3,16 2,10 12,38 10,28 20,47 10,19 33,37 23,18 46,17 36,0 60,-18 24,-18 30,-34 6,-16 6,-21 0,-2 1,-2 l 11,11 q 61,64 139,64 54,0 87,-27 33,-27 34,-79 1,-52 -38,-157 -39,-105 -38,-127 0,-26 17,-26 6,0 9,1 29,5 52,38 23,33 35,80 2,8 20,8 20,0 20,-8 0,-1 -4,-15 -8,-29 -22,-57 -14,-28 -46,-56 -32,-28 -69,-27 -47,0 -68,27 -21,27 -21,56 0,19 36,120 36,101 37,152 0,59 -44,59 h -5 Q 288,404 229,303 L 222,291 189,157 Q 156,26 151,16 138,-11 108,-11 95,-11 87,-5 79,1 76,7 q -3,6 -2,10 0,13 38,163 38,150 40,163 1,5 1,23 0,39 -24,39 -38,0 -63,-100 -6,-20 -6,-21 -2,-6 -19,-6 H 27 q -6,6 -6,9 z" /><path
       id="MJMAIN-28"
       stroke-width="10"
       d="m 94,250 q 0,69 10,131 10,62 23,107 13,45 37,88 24,43 38,67 14,24 42,52 28,28 33,34 5,6 25,21 h 13 4 q 14,0 14,-9 0,-3 -17,-21 -17,-18 -41,-53 -24,-35 -49,-86 -25,-51 -42,-138 -17,-87 -17,-193 0,-106 17,-192 17,-86 41,-139 24,-53 49,-86 25,-33 42,-53 17,-20 17,-21 0,-9 -15,-9 h -3 -13 l -28,24 Q 180,-141 137,-14 94,113 94,250 Z" /><path
       id="MJMAIN-2B"
       stroke-width="10"
       d="m 56,237 q 0,0 0,13 0,13 14,20 h 299 v 150 l 1,150 q 10,13 19,13 13,0 20,-15 V 270 h 298 q 15,-8 15,-20 0,-12 -15,-20 H 409 V -68 q -8,-14 -18,-14 h -2 -2 q -12,0 -18,14 V 230 H 70 q -14,7 -14,20 z" /><path
       id="MJMAIN-31"
       stroke-width="10"
       d="m 213,578 -13,-5 q -14,-5 -40,-10 -26,-5 -58,-7 H 83 v 46 h 19 q 47,2 87,15 40,13 56,24 16,11 28,22 2,3 12,3 9,0 17,-6 V 361 l 1,-300 q 7,-7 12,-9 5,-2 24,-4 19,-2 62,-2 h 26 V 0 H 416 Q 395,3 257,3 121,3 100,0 H 88 v 46 h 26 q 22,0 38,0 16,0 25,1 9,1 16,3 7,2 8,2 1,0 6,5 5,5 6,4 z" /><path
       id="MJMAIN-29"
       stroke-width="10"
       d="m 60,749 4,1 q 5,0 10,0 h 12 l 28,-24 q 94,-85 137,-212 43,-127 43,-264 0,-68 -10,-131 -10,-63 -23,-107 -13,-44 -37,-88 -24,-44 -38,-67 -14,-23 -41,-51 -27,-28 -32,-33 -5,-5 -23,-19 -3,-3 -4,-4 H 74 q -8,0 -11,0 -3,0 -5,3 -2,3 -3,9 1,1 11,13 155,161 155,475 0,314 -155,475 -10,12 -11,13 0,8 5,11 z" /><path
       id="MJMAIN-32"
       stroke-width="10"
       d="m 109,429 q -27,0 -43,18 -16,18 -16,44 0,71 53,123 53,52 132,52 91,0 152,-56 61,-56 62,-145 0,-43 -20,-82 -20,-39 -48,-68 -28,-29 -80,-74 -36,-31 -100,-92 l -59,-56 76,-1 q 157,0 167,5 7,2 24,89 v 3 h 40 v -3 Q 448,183 436,95 424,7 421,3 V 0 H 50 v 19 12 q 0,7 6,15 6,8 30,35 29,32 50,56 9,10 34,37 25,27 34,37 9,10 29,33 20,23 28,34 8,11 23,30 15,19 21,32 6,13 15,29 9,16 13,32 4,16 7,30 3,14 3,33 0,63 -34,109 -34,46 -97,46 -33,0 -58,-17 -25,-17 -35,-33 -10,-16 -10,-19 0,-1 5,-1 18,0 37,-14 19,-14 19,-46 0,-25 -16,-42 -16,-17 -45,-18 z" /></defs><g
     inkscape:label="Layer 1"
     inkscape:groupmode="layer"
     id="layer1"
     transform="translate(0.68029501,-44.536014)"><rect
       style="fill:none;stroke:#000000;stroke-width:1;stroke-linecap:square;stroke-linejoin:bevel;stroke-miterlimit:3.9;paint-order:markers stroke fill"
       id="rect1"
       width="49.094513"
       height="49.094513"
       x="33.549778"
       y="69.559875"
       ry="0" /><path
       style="fill:none;stroke:#000000;stroke-width:1;stroke-linecap:square;stroke-linejoin:bevel;stroke-miterlimit:3.9;marker-start:url(#ArrowWide);paint-order:markers stroke fill"
       d="M 82.650005,96.227062 V 95.936486"
       id="path1"
       sodipodi:nodetypes="cc" /><path
       style="fill:none;stroke:#000000;stroke-width:1;stroke-linecap:square;stroke-linejoin:bevel;stroke-miterlimit:3.9;marker-start:url(#ArrowWide);paint-order:markers stroke fill"
       d="m 33.54978,91.987202 v 0.520276"
       id="path3"
       sodipodi:nodetypes="cc" /><path
       style="fill:none;stroke:#000000;stroke-width:1;stroke-linecap:square;stroke-linejoin:bevel;stroke-miterlimit:3.9;marker-start:url(#ArrowWide);paint-order:markers stroke fill"
       d="M 60.216965,69.566937 H 60.065194"
       id="path4"
       sodipodi:nodetypes="cc" /><path
       style="fill:none;stroke:#000000;stroke-width:1;stroke-linecap:square;stroke-linejoin:bevel;stroke-miterlimit:3.9;marker-start:url(#ArrowWide);paint-order:markers stroke fill"
       d="m 55.977104,118.6502 h 0.249925"
       id="path5"
       sodipodi:nodetypes="cc" /><path
       style="fill:none;stroke:#000000;stroke-width:1;stroke-linecap:square;stroke-linejoin:bevel;stroke-miterlimit:3.9;paint-order:markers stroke fill"
       d="M 27.139343,45.220815 -0.2497926,91.587952 27.139343,137.95509"
       id="path6"
       sodipodi:nodetypes="ccc" /><path
       style="fill:none;stroke:#000000;stroke-width:1;stroke-linecap:square;stroke-linejoin:bevel;stroke-miterlimit:3.9;paint-order:markers stroke fill"
       d="M 89.054729,45.220815 116.44386,91.587952 89.054729,137.95509"
       id="path7"
       sodipodi:nodetypes="ccc" /><g
       id="text7"
       style="font-size:18.8081px;font-family:'CMU Serif';-inkscape-font-specification:'CMU Serif';text-align:center;letter-spacing:0px;text-anchor:middle;fill:#000000;stroke:none;stroke-width:2.22143;stroke-linecap:square;stroke-linejoin:bevel;stroke-miterlimit:3.9;paint-order:markers stroke fill"
       aria-label="Pμν"><path
         style="font-style:italic;font-weight:500;-inkscape-font-specification:'CMU Serif Medium Italic';fill:#000000;stroke:none"
         d="m 45.547817,96.834308 q 0,-0.244505 0.112848,-0.30093 0.112849,-0.05642 0.394971,-0.05642 0.921596,0 1.166102,-0.131657 0.263313,-0.150464 0.376162,-0.658283 l 2.539093,-10.212798 q 0.07523,-0.263314 0.07523,-0.357354 0,-0.206889 -0.263314,-0.263314 -0.263313,-0.05642 -0.827556,-0.05642 -0.206889,0 -0.30093,0 -0.07523,-0.01881 -0.150465,-0.05642 -0.05642,-0.05642 -0.05642,-0.169273 0,-0.244505 0.112849,-0.30093 0.112848,-0.05642 0.39497,-0.05642 h 5.64243 q 1.504648,0 2.407437,0.78994 0.921596,0.78994 0.921596,1.993659 0,1.617496 -1.542264,2.877639 -1.542264,1.241335 -3.36665,1.241335 H 50.26865 l -1.147294,4.664408 q -0.07523,0.263314 -0.07523,0.376162 0,0.112849 0.03762,0.169273 0.03762,0.05643 0.282121,0.112849 0.263314,0.03762 0.771132,0.03762 0.225697,0 0.30093,0.01881 0.09404,0 0.150465,0.05642 0.05642,0.05642 0.05642,0.169273 0,0.338546 -0.357354,0.338546 -0.357354,0 -1.128486,-0.01881 -0.752324,-0.03762 -1.128486,-0.03762 -0.376162,0 -1.128486,0.03762 -0.733516,0.01881 -1.09087,0.01881 -0.263313,0 -0.263313,-0.225697 z m 4.796065,-6.206673 h 2.369821 q 1.749153,0 2.727174,-1.09087 0.470203,-0.545435 0.733516,-1.561072 0.263314,-1.015637 0.263314,-1.48584 0,-0.865172 -0.620668,-1.278951 -0.601859,-0.413778 -1.655112,-0.413778 H 52.54443 q -0.507819,0 -0.658283,0.09404 -0.150465,0.09404 -0.263314,0.583051 z"
         id="path20" /><path
         style="font-size:65%;baseline-shift:sub;fill:#000000;stroke:none"
         d="m 56.980311,103.56008 q 0,-0.0978 0.06113,-0.36675 l 1.907141,-7.628569 h 0.916895 q -0.183379,0.770192 -0.452335,1.797114 -0.256731,1.014697 -0.378983,1.540384 -0.122253,0.513461 -0.122253,0.757966 0,0.452335 0.20783,0.721295 0.207829,0.26895 0.562362,0.26895 0.427884,0 0.819092,-0.36676 0.403434,-0.37898 0.599038,-0.978018 0.0978,-0.317856 0.134478,-0.476785 l 0.819093,-3.264146 h 0.916895 q -0.122253,0.513462 -0.403434,1.60151 -0.281181,1.075823 -0.452335,1.809339 -0.171153,0.721291 -0.171153,0.92912 0,0.23228 0.0978,0.33008 0.110027,0.0978 0.244505,0.0978 0.23228,0 0.391209,-0.22005 0.171153,-0.23228 0.25673,-0.489011 0.0978,-0.268956 0.146703,-0.305631 0.0489,-0.03668 0.0978,0.01223 0.0489,0.03668 0.0489,0.110027 0,0.268956 -0.440109,0.89244 -0.44011,0.62349 -1.002472,0.62349 -0.684615,0 -0.733516,-0.90467 h -0.01223 q -0.623488,0.90467 -1.430356,0.90467 -0.501236,0 -0.757966,-0.35453 -0.256731,-0.35453 -0.256731,-0.880219 0,-0.134477 0.02445,-0.378983 -0.08558,0.44011 -0.256731,1.136952 -0.171154,0.69684 -0.268956,1.19807 -0.0978,0.50124 -0.0978,0.84355 0,0.30563 0.0489,0.59903 0.0489,0.29341 0.0489,0.33009 0,0.23228 -0.220054,0.39121 -0.220055,0.15892 -0.46456,0.15892 -0.158929,0 -0.293407,-0.11002 -0.134478,-0.0978 -0.134478,-0.33009 z m 6.564942,-6.662765 q 0.01223,-0.06113 0.0489,-0.158928 0.03668,-0.0978 0.146703,-0.342308 0.122253,-0.25673 0.244505,-0.452334 0.134478,-0.195605 0.330083,-0.354533 0.207829,-0.158928 0.415659,-0.158928 0.330082,0 0.586812,0.293406 0.256731,0.293406 0.256731,1.039147 0,1.564834 -0.709066,3.239693 0.550137,-0.452332 0.843544,-0.721288 0.305631,-0.268956 0.672389,-0.745741 0.366758,-0.489011 0.513461,-0.965796 0.08558,-0.281181 0.134478,-0.892444 0.06113,-0.611264 0.183379,-0.929121 0.134478,-0.317856 0.489011,-0.317856 0.146703,0 0.23228,0.08558 0.0978,0.08558 0.0978,0.23228 0,0.158929 -0.183379,0.794643 -0.183379,0.635713 -0.378983,1.026922 -0.122253,0.25673 -0.293407,0.501236 -0.158928,0.23228 -0.391208,0.48901 -0.23228,0.256731 -0.403434,0.427885 -0.158928,0.171153 -0.48901,0.452334 -0.330082,0.281181 -0.46456,0.391209 -0.122253,0.110027 -0.525687,0.415661 -0.391208,0.30563 -0.476785,0.37898 -0.537912,0.44011 -0.574587,0.46456 0.403433,-0.84354 0.672389,-1.980492 0.281181,-1.136949 0.354533,-1.85824 l 0.07335,-0.709065 q 0,-0.317857 -0.134478,-0.476786 -0.122252,-0.158928 -0.268955,-0.158928 -0.20783,0 -0.366758,0.281181 -0.158929,0.268956 -0.293407,0.550137 -0.122252,0.268956 -0.244505,0.268956 -0.0978,0 -0.0978,-0.110028 z"
         id="path21" /></g><path
       style="fill:none;stroke:#000000;stroke-width:1;stroke-linecap:square;stroke-linejoin:bevel;stroke-miterlimit:3.9;marker-start:url(#ArrowWide);paint-order:markers stroke fill"
       d="M 280.83789,89.402307 V 106.51094"
       id="path9"
       sodipodi:nodetypes="cc" /><path
       style="fill:none;stroke:#000000;stroke-width:1;stroke-linecap:square;stroke-linejoin:bevel;stroke-miterlimit:3.9;paint-order:markers stroke fill"
       d="M 280.83789,67.106409 V 116.0695"
       id="path10"
       sodipodi:nodetypes="cc" /><g
       id="text12"
       style="font-size:18.8081px;font-family:'CMU Serif';-inkscape-font-specification:'CMU Serif';text-align:center;letter-spacing:0px;text-anchor:middle;fill:#000000;stroke:none;stroke-width:2.22143;stroke-linecap:square;stroke-linejoin:bevel;stroke-miterlimit:3.9;paint-order:markers stroke fill"
       aria-label="Uμ"><path
         style="font-style:italic;font-weight:500;-inkscape-font-specification:'CMU Serif Medium Italic';fill:#000000;stroke:none"
         d="m 291.19458,91.352968 q 0,-0.601859 0.15047,-1.203718 l 1.80558,-7.259927 q 0.0752,-0.263313 0.0752,-0.357353 0,-0.20689 -0.26332,-0.263314 -0.26331,-0.05642 -0.82755,-0.05642 -0.20689,0 -0.30093,0 -0.0752,-0.01881 -0.15047,-0.05642 -0.0564,-0.05642 -0.0564,-0.169273 0,-0.357354 0.35735,-0.357354 0.35736,0 1.10968,0.03762 0.77113,0.01881 1.1473,0.01881 0.37616,0 1.10967,-0.01881 0.75233,-0.03762 1.10968,-0.03762 0.26331,0 0.26331,0.244505 0,0.225697 -0.11284,0.282122 -0.11285,0.05642 -0.4514,0.05642 -0.86517,0 -1.12848,0.150465 -0.24451,0.131656 -0.35736,0.601859 l -1.88081,7.560856 q -0.18808,0.827556 -0.18808,1.429416 0,1.18491 0.58305,1.767961 0.60186,0.583051 1.42942,0.583051 1.35418,0 2.63313,-1.166102 1.29776,-1.18491 1.73035,-2.97168 l 1.67392,-6.695683 q 0.0752,-0.30093 0.0752,-0.451395 0,-0.771132 -1.12849,-0.808748 -0.33854,0 -0.33854,-0.225697 0,-0.357354 0.33854,-0.357354 0.28213,0 0.88398,0.03762 0.62067,0.01881 0.9216,0.01881 0.30093,0 0.88398,-0.01881 0.60186,-0.03762 0.88398,-0.03762 0.24451,0 0.24451,0.244505 0,0.338546 -0.28212,0.338546 -1.59869,0.05642 -1.89962,1.278951 l -1.71154,6.883764 q -0.41378,1.673921 -1.862,3.103337 -1.42942,1.410607 -3.12215,1.410607 -1.39179,0 -2.36982,-0.959213 -0.97802,-0.959213 -0.97802,-2.57671 z"
         id="path18" /><path
         style="font-size:65%;baseline-shift:sub;fill:#000000;stroke:none"
         d="m 301.23525,100.97519 q 0,-0.0978 0.0611,-0.36676 l 1.90714,-7.628561 h 0.91689 q -0.18338,0.770192 -0.45233,1.797114 -0.25673,1.014697 -0.37898,1.540383 -0.12226,0.513462 -0.12226,0.757967 0,0.452335 0.20783,0.72129 0.20783,0.268956 0.56236,0.268956 0.42789,0 0.8191,-0.366758 0.40343,-0.378983 0.59904,-0.978021 0.0978,-0.317857 0.13447,-0.476785 l 0.8191,-3.264146 h 0.91689 q -0.12225,0.513461 -0.40343,1.60151 -0.28118,1.075823 -0.45234,1.809339 -0.17115,0.721291 -0.17115,0.92912 0,0.23228 0.0978,0.330082 0.11003,0.0978 0.24451,0.0978 0.23228,0 0.3912,-0.220054 0.17116,-0.23228 0.25674,-0.489011 0.0978,-0.268956 0.1467,-0.305632 0.0489,-0.03668 0.0978,0.01223 0.0489,0.03668 0.0489,0.110027 0,0.268956 -0.44011,0.892444 -0.44011,0.623489 -1.00247,0.623489 -0.68461,0 -0.73352,-0.90467 h -0.0122 q -0.62349,0.90467 -1.43036,0.90467 -0.50123,0 -0.75796,-0.354533 -0.25673,-0.354532 -0.25673,-0.880219 0,-0.134478 0.0245,-0.378983 -0.0856,0.440109 -0.25673,1.13695 -0.17116,0.69684 -0.26896,1.198075 -0.0978,0.501236 -0.0978,0.843544 0,0.305635 0.0489,0.599035 0.0489,0.29341 0.0489,0.33008 0,0.23228 -0.22005,0.39121 -0.22006,0.15893 -0.46456,0.15893 -0.15893,0 -0.29341,-0.11003 -0.13448,-0.0978 -0.13448,-0.33008 z"
         id="path19" /></g><use
       xlink:href="#MJSZ2-2211"
       id="use1"
       transform="matrix(0.02983002,0,0,-0.02983002,223.83358,99.045456)"
       style="fill:#000000;stroke:#000000;stroke-width:0" /><path
       style="font-size:12.2253px;font-family:'CMU Serif';-inkscape-font-specification:'CMU Serif';text-align:center;letter-spacing:0px;baseline-shift:baseline;text-anchor:middle;fill:#000000;stroke:none;stroke-width:2.22143;stroke-linecap:square;stroke-linejoin:bevel;stroke-miterlimit:3.9;paint-order:markers stroke fill"
       d="m 242.27847,126.02245 q 0,-0.0978 0.0611,-0.36676 l 1.90714,-7.62856 h 0.91689 q -0.18338,0.77019 -0.45233,1.79711 -0.25673,1.0147 -0.37898,1.54038 -0.12226,0.51346 -0.12226,0.75797 0,0.45233 0.20783,0.72129 0.20783,0.26896 0.56236,0.26896 0.42789,0 0.8191,-0.36676 0.40343,-0.37899 0.59904,-0.97802 0.0978,-0.31786 0.13447,-0.47679 l 0.8191,-3.26414 h 0.91689 q -0.12225,0.51346 -0.40343,1.60151 -0.28118,1.07582 -0.45234,1.80933 -0.17115,0.7213 -0.17115,0.92912 0,0.23228 0.0978,0.33009 0.11003,0.0978 0.24451,0.0978 0.23228,0 0.3912,-0.22006 0.17116,-0.23228 0.25673,-0.48901 0.0978,-0.26895 0.14671,-0.30563 0.0489,-0.0367 0.0978,0.0122 0.0489,0.0367 0.0489,0.11002 0,0.26896 -0.44011,0.89245 -0.44011,0.62349 -1.00247,0.62349 -0.68461,0 -0.73352,-0.90467 h -0.0122 q -0.62349,0.90467 -1.43036,0.90467 -0.50123,0 -0.75796,-0.35454 -0.25673,-0.35453 -0.25673,-0.88021 0,-0.13448 0.0245,-0.37899 -0.0856,0.44011 -0.25673,1.13695 -0.17116,0.69684 -0.26896,1.19808 -0.0978,0.50123 -0.0978,0.84354 0,0.30563 0.0489,0.59904 0.0489,0.29341 0.0489,0.33008 0,0.23228 -0.22005,0.39121 -0.22006,0.15893 -0.46456,0.15893 -0.15893,0 -0.29341,-0.11003 -0.13448,-0.0978 -0.13448,-0.33008 z"
       id="text18"
       aria-label="μ" /></g></svg>
