<?xml version="1.0" encoding="UTF-8" standalone="no"?>
<!-- Created with Inkscape (http://www.inkscape.org/) -->

<svg
   width="239.869mm"
   height="61.457928mm"
   viewBox="0 0 239.869 61.457928"
   version="1.1"
   id="svg1"
   inkscape:version="1.3 (0e150ed, 2023-07-21)"
   sodipodi:docname="provenance.svg"
   xmlns:inkscape="http://www.inkscape.org/namespaces/inkscape"
   xmlns:sodipodi="http://sodipodi.sourceforge.net/DTD/sodipodi-0.dtd"
   xmlns="http://www.w3.org/2000/svg"
   xmlns:svg="http://www.w3.org/2000/svg">
  <sodipodi:namedview
     id="namedview1"
     pagecolor="#ffffff"
     bordercolor="#000000"
     borderopacity="0.25"
     inkscape:showpageshadow="2"
     inkscape:pageopacity="0.0"
     inkscape:pagecheckerboard="0"
     inkscape:deskcolor="#d1d1d1"
     inkscape:document-units="mm"
     inkscape:zoom="0.56009112"
     inkscape:cx="884.67748"
     inkscape:cy="71.416951"
     inkscape:window-width="1920"
     inkscape:window-height="1027"
     inkscape:window-x="0"
     inkscape:window-y="25"
     inkscape:window-maximized="1"
     inkscape:current-layer="layer1" />
  <defs
     id="defs1">
    <marker
       style="overflow:visible"
       id="ArrowWideRounded"
       refX="0"
       refY="0"
       orient="auto-start-reverse"
       inkscape:stockid="Wide, rounded arrow"
       markerWidth="1"
       markerHeight="1"
       viewBox="0 0 1 1"
       inkscape:isstock="true"
       inkscape:collect="always"
       preserveAspectRatio="xMidYMid">
      <path
         style="fill:none;stroke:context-stroke;stroke-width:1;stroke-linecap:round"
         d="M 3,-3 0,0 3,3"
         transform="rotate(180,0.125,0)"
         sodipodi:nodetypes="ccc"
         id="path2" />
    </marker>
    <marker
       style="overflow:visible"
       id="ArrowTriangleStylized"
       refX="0"
       refY="0"
       orient="auto-start-reverse"
       inkscape:stockid="Stylized triangle arrow"
       markerWidth="1"
       markerHeight="1"
       viewBox="0 0 1 1"
       inkscape:isstock="true"
       inkscape:collect="always"
       preserveAspectRatio="xMidYMid">
      <path
         transform="scale(0.5)"
         style="fill:context-stroke;fill-rule:evenodd;stroke:context-stroke;stroke-width:1pt"
         d="m 6,0 c -3,1 -7,3 -9,5 0,0 0,-4 2,-5 -2,-1 -2,-5 -2,-5 2,2 6,4 9,5 z"
         id="path4" />
    </marker>
  </defs>
  <g
     inkscape:label="Layer 1"
     inkscape:groupmode="layer"
     id="layer1"
     transform="translate(28.16975,-117.72506)">
    <g
       id="g45"
       transform="matrix(2.7144033,0,0,2.7144033,-30.97994,-379.74627)">
      <path
         style="fill:none;stroke:#0000ff;stroke-width:0.2;stroke-linecap:round;stroke-linejoin:round;stroke-miterlimit:3.9;stroke-dasharray:none;stroke-dashoffset:0;paint-order:markers stroke fill"
         d="m 74.277412,194.95349 15.026841,-3.42717"
         id="path34-7"
         sodipodi:nodetypes="cc" />
      <path
         style="fill:none;stroke:#000000;stroke-width:0.6;stroke-linecap:round;stroke-linejoin:round;stroke-miterlimit:3.9;stroke-dasharray:none;paint-order:markers stroke fill"
         d="m 74.191558,187.86517 v 13.59456 h 14.606915"
         id="path35-2" />
      <g
         id="g38"
         transform="matrix(0.45283482,0,0,0.45283482,42.936316,107.88422)"
         style="stroke:#d45500">
        <path
           style="fill:none;stroke:#d45500;stroke-width:1;stroke-linecap:round;stroke-linejoin:round;stroke-miterlimit:3.9;stroke-dasharray:none;paint-order:markers stroke fill"
           d="m 77.506866,191.52632 v 5.40439"
           id="path36-8" />
        <path
           style="fill:none;stroke:#d45500;stroke-width:1;stroke-linecap:round;stroke-linejoin:round;stroke-miterlimit:3.9;stroke-dasharray:none;paint-order:markers stroke fill"
           d="m 76.320537,196.99661 h 2.372659"
           id="path37-0" />
        <path
           style="fill:none;stroke:#d45500;stroke-width:1;stroke-linecap:round;stroke-linejoin:round;stroke-miterlimit:3.9;stroke-dasharray:none;paint-order:markers stroke fill"
           d="m 76.320537,191.52632 h 2.372659"
           id="path38-0" />
        <circle
           style="fill:none;stroke:#d45500;stroke-width:1;stroke-linecap:round;stroke-linejoin:round;stroke-miterlimit:3.9;stroke-dasharray:none;paint-order:markers stroke fill"
           id="circle38"
           cx="77.506866"
           cy="194.22852"
           r="0.65907192" />
      </g>
      <g
         id="g41"
         transform="matrix(0.45283482,0,0,0.45283482,47.08847,103.53434)"
         style="stroke:#d45500">
        <path
           style="fill:none;stroke:#d45500;stroke-width:1;stroke-linecap:round;stroke-linejoin:round;stroke-miterlimit:3.9;stroke-dasharray:none;paint-order:markers stroke fill"
           d="m 77.506866,191.52632 v 5.40439"
           id="path39-8" />
        <path
           style="fill:none;stroke:#d45500;stroke-width:1;stroke-linecap:round;stroke-linejoin:round;stroke-miterlimit:3.9;stroke-dasharray:none;paint-order:markers stroke fill"
           d="m 76.320537,196.99661 h 2.372659"
           id="path40" />
        <path
           style="fill:none;stroke:#d45500;stroke-width:1;stroke-linecap:round;stroke-linejoin:round;stroke-miterlimit:3.9;stroke-dasharray:none;paint-order:markers stroke fill"
           d="m 76.320537,191.52632 h 2.372659"
           id="path41" />
        <circle
           style="fill:none;stroke:#d45500;stroke-width:1;stroke-linecap:round;stroke-linejoin:round;stroke-miterlimit:3.9;stroke-dasharray:none;paint-order:markers stroke fill"
           id="circle41"
           cx="77.506866"
           cy="194.22852"
           r="0.65907192" />
      </g>
      <g
         id="g44"
         transform="matrix(0.45283482,0,0,0.45283482,51.306531,105.907)"
         style="stroke:#d45500">
        <path
           style="fill:none;stroke:#d45500;stroke-width:1;stroke-linecap:round;stroke-linejoin:round;stroke-miterlimit:3.9;stroke-dasharray:none;paint-order:markers stroke fill"
           d="m 77.506866,191.52632 v 5.40439"
           id="path42" />
        <path
           style="fill:none;stroke:#d45500;stroke-width:1;stroke-linecap:round;stroke-linejoin:round;stroke-miterlimit:3.9;stroke-dasharray:none;paint-order:markers stroke fill"
           d="m 76.320537,196.99661 h 2.372659"
           id="path43" />
        <path
           style="fill:none;stroke:#d45500;stroke-width:1;stroke-linecap:round;stroke-linejoin:round;stroke-miterlimit:3.9;stroke-dasharray:none;paint-order:markers stroke fill"
           d="m 76.320537,191.52632 h 2.372659"
           id="path44" />
        <circle
           style="fill:none;stroke:#d45500;stroke-width:1;stroke-linecap:round;stroke-linejoin:round;stroke-miterlimit:3.9;stroke-dasharray:none;paint-order:markers stroke fill"
           id="circle44"
           cx="77.506866"
           cy="194.22852"
           r="0.65907192" />
      </g>
    </g>
    <path
       style="fill:none;fill-opacity:0.9;stroke:#000000;stroke-width:3;stroke-linecap:square;stroke-linejoin:bevel;stroke-miterlimit:3.9;stroke-dasharray:none;marker-end:url(#ArrowTriangleStylized);paint-order:markers stroke fill"
       d="m -26.66975,148.64613 h 174.8836"
       id="path1" />
    <g
       id="text1"
       style="font-weight:bold;font-size:4.23333px;font-family:'CMU Typewriter Text';-inkscape-font-specification:'CMU Typewriter Text Bold';text-align:center;letter-spacing:0px;text-anchor:middle;fill-opacity:0.9;stroke-width:3;stroke-linecap:square;stroke-linejoin:bevel;stroke-miterlimit:3.9;paint-order:markers stroke fill"
       aria-label="1 0&#10;0 1">
      <path
         d="m -18.796695,126.13404 q 0,-0.0635 0.0254,-0.0974 0.0254,-0.0381 0.04657,-0.0466 0.0254,-0.008 0.08043,-0.0127 0.05927,-0.008 0.0762,-0.0127 0.258233,-0.0635 0.414866,-0.38947 0.0508,-0.1143 0.148167,-0.1143 0.143933,0 0.143933,0.1651 v 2.13784 h 0.3937 q 0.169333,0 0.160866,0.15663 0,0.16087 -0.156633,0.16087 h -1.168399 q -0.07197,-0.004 -0.110066,-0.0466 -0.03387,-0.0466 -0.03387,-0.11007 0,-0.16086 0.1651,-0.16086 h 0.3937 v -1.62984 q -0.2159,0.16087 -0.423333,0.16087 -0.156634,0 -0.156634,-0.16087 z m 4.21216,0.65194 q 0,-0.36407 0.0889,-0.635 0.0889,-0.27094 0.232833,-0.41487 0.148167,-0.14393 0.300567,-0.20743 0.1524,-0.0677 0.309033,-0.0677 0.160866,0 0.313266,0.0677 0.1524,0.0677 0.296333,0.21166 0.143934,0.1397 0.232833,0.41064 0.0889,0.27093 0.0889,0.635 0,0.3683 -0.09313,0.64346 -0.0889,0.27517 -0.237066,0.41487 -0.143934,0.1397 -0.296333,0.20743 -0.1524,0.0635 -0.3048,0.0635 -0.156633,0 -0.309033,-0.0635 -0.148167,-0.0635 -0.296333,-0.2032 -0.143934,-0.14393 -0.237067,-0.41486 -0.0889,-0.27517 -0.0889,-0.6477 z m 0.3556,-0.0381 q 0,0.55456 0.1778,0.80433 0.1778,0.24553 0.397933,0.24553 0.2159,0 0.393699,-0.24553 0.182034,-0.24977 0.182034,-0.80433 0,-0.27517 -0.05927,-0.47837 -0.05503,-0.2032 -0.1524,-0.30057 -0.09313,-0.1016 -0.186266,-0.14393 -0.0889,-0.0466 -0.182034,-0.0466 -0.215899,0 -0.393699,0.2286 -0.1778,0.22437 -0.1778,0.74084 z"
         id="path15" />
      <path
         d="m -19.029528,132.07764 q 0,-0.36407 0.0889,-0.635 0.0889,-0.27093 0.232833,-0.41487 0.148167,-0.14393 0.300567,-0.20743 0.1524,-0.0677 0.309033,-0.0677 0.160866,0 0.313266,0.0677 0.1524,0.0677 0.296333,0.21167 0.143933,0.1397 0.232833,0.41063 0.0889,0.27093 0.0889,0.635 0,0.3683 -0.09313,0.64346 -0.0889,0.27517 -0.237066,0.41487 -0.143934,0.1397 -0.296333,0.20743 -0.1524,0.0635 -0.3048,0.0635 -0.156633,0 -0.309033,-0.0635 -0.148167,-0.0635 -0.296333,-0.2032 -0.143934,-0.14393 -0.237067,-0.41486 -0.0889,-0.27517 -0.0889,-0.6477 z m 0.3556,-0.0381 q 0,0.55456 0.1778,0.80433 0.1778,0.24553 0.397933,0.24553 0.2159,0 0.393699,-0.24553 0.182034,-0.24977 0.182034,-0.80433 0,-0.27517 -0.05927,-0.47837 -0.05503,-0.2032 -0.1524,-0.30056 -0.09313,-0.1016 -0.186266,-0.14394 -0.0889,-0.0466 -0.182034,-0.0466 -0.215899,0 -0.393699,0.2286 -0.1778,0.22436 -0.1778,0.74083 z m 4.322226,-0.61383 q 0,-0.0635 0.0254,-0.0974 0.0254,-0.0381 0.04657,-0.0466 0.0254,-0.008 0.08043,-0.0127 0.05927,-0.008 0.0762,-0.0127 0.258233,-0.0635 0.414867,-0.38946 0.0508,-0.1143 0.148166,-0.1143 0.143933,0 0.143933,0.1651 v 2.13783 h 0.3937 q 0.169333,0 0.160866,0.15663 0,0.16087 -0.156633,0.16087 h -1.168399 q -0.07197,-0.004 -0.110066,-0.0466 -0.03387,-0.0466 -0.03387,-0.11007 0,-0.16086 0.1651,-0.16086 h 0.3937 v -1.62983 q -0.2159,0.16086 -0.423333,0.16086 -0.156634,0 -0.156634,-0.16086 z"
         id="path16" />
    </g>
    <g
       id="text4"
       style="font-weight:bold;font-size:4.23333px;font-family:'CMU Typewriter Text';-inkscape-font-specification:'CMU Typewriter Text Bold';text-align:center;letter-spacing:0px;text-anchor:middle;fill-opacity:0.9;stroke-width:3;stroke-linecap:square;stroke-linejoin:bevel;stroke-miterlimit:3.9;paint-order:markers stroke fill"
       aria-label="1 1&#10;0 1">
      <path
         d="m 13.693988,166.10273 q 0,-0.0635 0.0254,-0.0974 0.0254,-0.0381 0.04657,-0.0466 0.0254,-0.008 0.08043,-0.0127 0.05927,-0.008 0.0762,-0.0127 0.258233,-0.0635 0.414866,-0.38947 0.0508,-0.1143 0.148167,-0.1143 0.143933,0 0.143933,0.1651 v 2.13783 h 0.3937 q 0.169333,0 0.160866,0.15664 0,0.16086 -0.156633,0.16086 h -1.168399 q -0.07197,-0.004 -0.110067,-0.0466 -0.03387,-0.0466 -0.03387,-0.11007 0,-0.16087 0.165099,-0.16087 h 0.3937 v -1.62983 q -0.2159,0.16087 -0.423333,0.16087 -0.156633,0 -0.156633,-0.16087 z m 4.444993,0 q 0,-0.0635 0.0254,-0.0974 0.0254,-0.0381 0.04657,-0.0466 0.0254,-0.008 0.08043,-0.0127 0.05927,-0.008 0.0762,-0.0127 0.258233,-0.0635 0.414866,-0.38947 0.0508,-0.1143 0.148167,-0.1143 0.143933,0 0.143933,0.1651 v 2.13783 h 0.3937 q 0.169333,0 0.160866,0.15664 0,0.16086 -0.156633,0.16086 h -1.168399 q -0.07197,-0.004 -0.110067,-0.0466 -0.03387,-0.0466 -0.03387,-0.11007 0,-0.16087 0.1651,-0.16087 h 0.393699 v -1.62983 q -0.2159,0.16087 -0.423333,0.16087 -0.156633,0 -0.156633,-0.16087 z"
         id="path17" />
      <path
         d="m 13.461155,172.04633 q 0,-0.36407 0.0889,-0.635 0.0889,-0.27094 0.232833,-0.41487 0.148166,-0.14393 0.300566,-0.20743 0.1524,-0.0677 0.309033,-0.0677 0.160867,0 0.313267,0.0677 0.1524,0.0677 0.296333,0.21166 0.143933,0.1397 0.232833,0.41064 0.0889,0.27093 0.0889,0.635 0,0.3683 -0.09313,0.64346 -0.0889,0.27517 -0.237067,0.41487 -0.143933,0.1397 -0.296333,0.20743 -0.1524,0.0635 -0.3048,0.0635 -0.156633,0 -0.309033,-0.0635 -0.148166,-0.0635 -0.296333,-0.2032 -0.143933,-0.14393 -0.237066,-0.41486 -0.0889,-0.27517 -0.0889,-0.6477 z m 0.3556,-0.0381 q 0,0.55456 0.177799,0.80433 0.1778,0.24553 0.397933,0.24553 0.2159,0 0.3937,-0.24553 0.182033,-0.24977 0.182033,-0.80433 0,-0.27517 -0.05927,-0.47837 -0.05503,-0.2032 -0.1524,-0.30057 -0.09313,-0.1016 -0.186267,-0.14393 -0.0889,-0.0466 -0.182033,-0.0466 -0.2159,0 -0.3937,0.2286 -0.177799,0.22437 -0.177799,0.74084 z m 4.322226,-0.61384 q 0,-0.0635 0.0254,-0.0974 0.0254,-0.0381 0.04657,-0.0466 0.0254,-0.008 0.08043,-0.0127 0.05927,-0.008 0.0762,-0.0127 0.258233,-0.0635 0.414866,-0.38946 0.0508,-0.1143 0.148167,-0.1143 0.143933,0 0.143933,0.1651 v 2.13783 h 0.3937 q 0.169333,0 0.160866,0.15663 0,0.16087 -0.156633,0.16087 h -1.168399 q -0.07197,-0.004 -0.110067,-0.0466 -0.03387,-0.0466 -0.03387,-0.11007 0,-0.16086 0.1651,-0.16086 h 0.393699 v -1.62984 q -0.2159,0.16087 -0.423333,0.16087 -0.156633,0 -0.156633,-0.16087 z"
         id="path18" />
    </g>
    <g
       id="text6"
       style="font-weight:bold;font-size:4.23333px;font-family:'CMU Typewriter Text';-inkscape-font-specification:'CMU Typewriter Text Bold';text-align:center;letter-spacing:0px;text-anchor:middle;fill-opacity:0.9;stroke-width:3;stroke-linecap:square;stroke-linejoin:bevel;stroke-miterlimit:3.9;paint-order:markers stroke fill"
       aria-label="1 0 1&#10;0 1 1&#10;0 0 1">
      <path
         d="m 34.42126,118.39816 q 0,-0.0635 0.0254,-0.0974 0.0254,-0.0381 0.04657,-0.0466 0.0254,-0.008 0.08043,-0.0127 0.05927,-0.008 0.0762,-0.0127 0.258233,-0.0635 0.414867,-0.38946 0.0508,-0.1143 0.148166,-0.1143 0.143933,0 0.143933,0.1651 v 2.13783 h 0.3937 q 0.169333,0 0.160867,0.15663 0,0.16087 -0.156634,0.16087 h -1.168399 q -0.07197,-0.004 -0.110066,-0.0466 -0.03387,-0.0466 -0.03387,-0.11006 0,-0.16087 0.1651,-0.16087 h 0.3937 v -1.62983 q -0.2159,0.16086 -0.423333,0.16086 -0.156633,0 -0.156633,-0.16086 z m 4.212159,0.65193 q 0,-0.36407 0.0889,-0.635 0.0889,-0.27093 0.232833,-0.41487 0.148167,-0.14393 0.300567,-0.20743 0.1524,-0.0677 0.309033,-0.0677 0.160866,0 0.313266,0.0677 0.1524,0.0677 0.296333,0.21167 0.143934,0.1397 0.232834,0.41063 0.0889,0.27093 0.0889,0.635 0,0.3683 -0.09313,0.64347 -0.0889,0.27516 -0.237066,0.41486 -0.143933,0.1397 -0.296333,0.20744 -0.1524,0.0635 -0.3048,0.0635 -0.156633,0 -0.309033,-0.0635 -0.148167,-0.0635 -0.296333,-0.2032 -0.143933,-0.14394 -0.237067,-0.41487 -0.0889,-0.27517 -0.0889,-0.6477 z m 0.3556,-0.0381 q 0,0.55457 0.1778,0.80433 0.1778,0.24554 0.397933,0.24554 0.2159,0 0.3937,-0.24554 0.182033,-0.24976 0.182033,-0.80433 0,-0.27517 -0.05927,-0.47837 -0.05503,-0.2032 -0.1524,-0.30056 -0.09313,-0.1016 -0.186266,-0.14394 -0.0889,-0.0466 -0.182033,-0.0466 -0.2159,0 -0.3937,0.2286 -0.1778,0.22436 -0.1778,0.74083 z m 4.322227,-0.61383 q 0,-0.0635 0.0254,-0.0974 0.0254,-0.0381 0.04657,-0.0466 0.0254,-0.008 0.08043,-0.0127 0.05927,-0.008 0.0762,-0.0127 0.258233,-0.0635 0.414867,-0.38946 0.0508,-0.1143 0.148166,-0.1143 0.143933,0 0.143933,0.1651 v 2.13783 h 0.3937 q 0.169333,0 0.160867,0.15663 0,0.16087 -0.156634,0.16087 h -1.168399 q -0.07197,-0.004 -0.110066,-0.0466 -0.03387,-0.0466 -0.03387,-0.11006 0,-0.16087 0.1651,-0.16087 h 0.3937 v -1.62983 q -0.2159,0.16086 -0.423333,0.16086 -0.156633,0 -0.156633,-0.16086 z"
         id="path19" />
      <path
         d="m 34.188426,124.34175 q 0,-0.36406 0.0889,-0.635 0.0889,-0.27093 0.232833,-0.41486 0.148167,-0.14394 0.300567,-0.20744 0.1524,-0.0677 0.309033,-0.0677 0.160866,0 0.313266,0.0677 0.1524,0.0677 0.296333,0.21167 0.143934,0.1397 0.232834,0.41063 0.0889,0.27094 0.0889,0.635 0,0.3683 -0.09313,0.64347 -0.0889,0.27517 -0.237066,0.41487 -0.143933,0.1397 -0.296333,0.20743 -0.1524,0.0635 -0.3048,0.0635 -0.156633,0 -0.309033,-0.0635 -0.148167,-0.0635 -0.296333,-0.2032 -0.143933,-0.14393 -0.237067,-0.41487 -0.0889,-0.27516 -0.0889,-0.6477 z m 0.3556,-0.0381 q 0,0.55457 0.1778,0.80434 0.1778,0.24553 0.397933,0.24553 0.2159,0 0.3937,-0.24553 0.182033,-0.24977 0.182033,-0.80434 0,-0.27516 -0.05927,-0.47836 -0.05503,-0.2032 -0.1524,-0.30057 -0.09313,-0.1016 -0.186266,-0.14393 -0.0889,-0.0466 -0.182033,-0.0466 -0.2159,0 -0.3937,0.2286 -0.1778,0.22437 -0.1778,0.74083 z m 4.322227,-0.61383 q 0,-0.0635 0.0254,-0.0974 0.0254,-0.0381 0.04657,-0.0466 0.0254,-0.008 0.08043,-0.0127 0.05927,-0.008 0.0762,-0.0127 0.258233,-0.0635 0.414867,-0.38947 0.0508,-0.1143 0.148166,-0.1143 0.143933,0 0.143933,0.1651 v 2.13783 h 0.3937 q 0.169333,0 0.160867,0.15664 0,0.16086 -0.156634,0.16086 h -1.168399 q -0.07197,-0.004 -0.110066,-0.0466 -0.03387,-0.0466 -0.03387,-0.11007 0,-0.16087 0.1651,-0.16087 h 0.3937 v -1.62983 q -0.2159,0.16087 -0.423333,0.16087 -0.156633,0 -0.156633,-0.16087 z m 4.444993,0 q 0,-0.0635 0.0254,-0.0974 0.0254,-0.0381 0.04657,-0.0466 0.0254,-0.008 0.08043,-0.0127 0.05927,-0.008 0.0762,-0.0127 0.258233,-0.0635 0.414867,-0.38947 0.0508,-0.1143 0.148166,-0.1143 0.143933,0 0.143933,0.1651 v 2.13783 h 0.3937 q 0.169333,0 0.160867,0.15664 0,0.16086 -0.156634,0.16086 h -1.168399 q -0.07197,-0.004 -0.110066,-0.0466 -0.03387,-0.0466 -0.03387,-0.11007 0,-0.16087 0.1651,-0.16087 h 0.3937 v -1.62983 q -0.2159,0.16087 -0.423333,0.16087 -0.156633,0 -0.156633,-0.16087 z"
         id="path20" />
      <path
         d="m 34.188426,129.63342 q 0,-0.36407 0.0889,-0.635 0.0889,-0.27094 0.232833,-0.41487 0.148167,-0.14393 0.300567,-0.20743 0.1524,-0.0677 0.309033,-0.0677 0.160866,0 0.313266,0.0677 0.1524,0.0677 0.296333,0.21166 0.143934,0.1397 0.232834,0.41064 0.0889,0.27093 0.0889,0.635 0,0.36829 -0.09313,0.64346 -0.0889,0.27517 -0.237066,0.41487 -0.143933,0.1397 -0.296333,0.20743 -0.1524,0.0635 -0.3048,0.0635 -0.156633,0 -0.309033,-0.0635 -0.148167,-0.0635 -0.296333,-0.2032 -0.143933,-0.14393 -0.237067,-0.41487 -0.0889,-0.27516 -0.0889,-0.64769 z m 0.3556,-0.0381 q 0,0.55456 0.1778,0.80433 0.1778,0.24553 0.397933,0.24553 0.2159,0 0.3937,-0.24553 0.182033,-0.24977 0.182033,-0.80433 0,-0.27517 -0.05927,-0.47837 -0.05503,-0.2032 -0.1524,-0.30057 -0.09313,-0.1016 -0.186266,-0.14393 -0.0889,-0.0466 -0.182033,-0.0466 -0.2159,0 -0.3937,0.2286 -0.1778,0.22437 -0.1778,0.74084 z m 4.089393,0.0381 q 0,-0.36407 0.0889,-0.635 0.0889,-0.27094 0.232833,-0.41487 0.148167,-0.14393 0.300567,-0.20743 0.1524,-0.0677 0.309033,-0.0677 0.160866,0 0.313266,0.0677 0.1524,0.0677 0.296333,0.21166 0.143934,0.1397 0.232834,0.41064 0.0889,0.27093 0.0889,0.635 0,0.36829 -0.09313,0.64346 -0.0889,0.27517 -0.237066,0.41487 -0.143933,0.1397 -0.296333,0.20743 -0.1524,0.0635 -0.3048,0.0635 -0.156633,0 -0.309033,-0.0635 -0.148167,-0.0635 -0.296333,-0.2032 -0.143933,-0.14393 -0.237067,-0.41487 -0.0889,-0.27516 -0.0889,-0.64769 z m 0.3556,-0.0381 q 0,0.55456 0.1778,0.80433 0.1778,0.24553 0.397933,0.24553 0.2159,0 0.3937,-0.24553 0.182033,-0.24977 0.182033,-0.80433 0,-0.27517 -0.05927,-0.47837 -0.05503,-0.2032 -0.1524,-0.30057 -0.09313,-0.1016 -0.186266,-0.14393 -0.0889,-0.0466 -0.182033,-0.0466 -0.2159,0 -0.3937,0.2286 -0.1778,0.22437 -0.1778,0.74084 z m 4.322227,-0.61384 q 0,-0.0635 0.0254,-0.0974 0.0254,-0.0381 0.04657,-0.0466 0.0254,-0.008 0.08043,-0.0127 0.05927,-0.008 0.0762,-0.0127 0.258233,-0.0635 0.414867,-0.38947 0.0508,-0.1143 0.148166,-0.1143 0.143933,0 0.143933,0.1651 v 2.13783 h 0.3937 q 0.169333,0 0.160867,0.15664 0,0.16086 -0.156634,0.16086 h -1.168399 q -0.07197,-0.004 -0.110066,-0.0466 -0.03387,-0.0466 -0.03387,-0.11007 0,-0.16087 0.1651,-0.16087 h 0.3937 v -1.62983 q -0.2159,0.16087 -0.423333,0.16087 -0.156633,0 -0.156633,-0.16087 z"
         id="path21" />
    </g>
    <g
       id="text11"
       style="font-weight:bold;font-size:4.23333px;font-family:'CMU Typewriter Text';-inkscape-font-specification:'CMU Typewriter Text Bold';text-align:center;letter-spacing:0px;text-anchor:middle;fill-opacity:0.9;stroke-width:3;stroke-linecap:square;stroke-linejoin:bevel;stroke-miterlimit:3.9;paint-order:markers stroke fill"
       aria-label="1 0 0&#10;0 0 1&#10;1 0 1">
      <path
         d="m 62.012557,166.61846 q 0,-0.0635 0.0254,-0.0974 0.0254,-0.0381 0.04657,-0.0466 0.0254,-0.008 0.08043,-0.0127 0.05927,-0.008 0.0762,-0.0127 0.258234,-0.0635 0.414867,-0.38947 0.0508,-0.1143 0.148166,-0.1143 0.143934,0 0.143934,0.1651 v 2.13784 h 0.393699 q 0.169333,0 0.160867,0.15663 0,0.16087 -0.156633,0.16087 h -1.168399 q -0.07197,-0.004 -0.110067,-0.0466 -0.03387,-0.0466 -0.03387,-0.11007 0,-0.16086 0.1651,-0.16086 h 0.3937 v -1.62984 q -0.2159,0.16087 -0.423333,0.16087 -0.156633,0 -0.156633,-0.16087 z m 4.21216,0.65194 q 0,-0.36407 0.0889,-0.635 0.0889,-0.27094 0.232834,-0.41487 0.148166,-0.14393 0.300566,-0.20743 0.1524,-0.0677 0.309033,-0.0677 0.160867,0 0.313267,0.0677 0.152399,0.0677 0.296333,0.21166 0.143933,0.1397 0.232833,0.41064 0.0889,0.27093 0.0889,0.635 0,0.3683 -0.09313,0.64346 -0.0889,0.27517 -0.237066,0.41487 -0.143933,0.1397 -0.296333,0.20743 -0.1524,0.0635 -0.3048,0.0635 -0.156633,0 -0.309033,-0.0635 -0.148167,-0.0635 -0.296333,-0.2032 -0.143933,-0.14393 -0.237067,-0.41486 -0.0889,-0.27517 -0.0889,-0.6477 z m 0.355599,-0.0381 q 0,0.55456 0.1778,0.80433 0.1778,0.24553 0.397933,0.24553 0.2159,0 0.3937,-0.24553 0.182033,-0.24977 0.182033,-0.80433 0,-0.27517 -0.05927,-0.47837 -0.05503,-0.2032 -0.1524,-0.30057 -0.09313,-0.1016 -0.186266,-0.14393 -0.0889,-0.0466 -0.182033,-0.0466 -0.2159,0 -0.3937,0.2286 -0.1778,0.22437 -0.1778,0.74084 z m 4.089394,0.0381 q 0,-0.36407 0.0889,-0.635 0.0889,-0.27094 0.232833,-0.41487 0.148166,-0.14393 0.300566,-0.20743 0.1524,-0.0677 0.309033,-0.0677 0.160867,0 0.313267,0.0677 0.152399,0.0677 0.296333,0.21166 0.143933,0.1397 0.232833,0.41064 0.0889,0.27093 0.0889,0.635 0,0.3683 -0.09313,0.64346 -0.0889,0.27517 -0.237066,0.41487 -0.143933,0.1397 -0.296333,0.20743 -0.1524,0.0635 -0.3048,0.0635 -0.156633,0 -0.309033,-0.0635 -0.148166,-0.0635 -0.296333,-0.2032 -0.143933,-0.14393 -0.237066,-0.41486 -0.0889,-0.27517 -0.0889,-0.6477 z m 0.355599,-0.0381 q 0,0.55456 0.1778,0.80433 0.1778,0.24553 0.397933,0.24553 0.2159,0 0.3937,-0.24553 0.182033,-0.24977 0.182033,-0.80433 0,-0.27517 -0.05927,-0.47837 -0.05503,-0.2032 -0.1524,-0.30057 -0.09313,-0.1016 -0.186266,-0.14393 -0.0889,-0.0466 -0.182033,-0.0466 -0.2159,0 -0.3937,0.2286 -0.1778,0.22437 -0.1778,0.74084 z"
         id="path22" />
      <path
         d="m 61.779724,172.56206 q 0,-0.36407 0.0889,-0.635 0.0889,-0.27093 0.232834,-0.41487 0.148166,-0.14393 0.300566,-0.20743 0.1524,-0.0677 0.309033,-0.0677 0.160867,0 0.313266,0.0677 0.1524,0.0677 0.296334,0.21167 0.143933,0.1397 0.232833,0.41063 0.0889,0.27093 0.0889,0.635 0,0.3683 -0.09313,0.64347 -0.0889,0.27516 -0.237066,0.41486 -0.143933,0.1397 -0.296333,0.20743 -0.1524,0.0635 -0.3048,0.0635 -0.156633,0 -0.309033,-0.0635 -0.148167,-0.0635 -0.296333,-0.2032 -0.143933,-0.14393 -0.237067,-0.41486 -0.0889,-0.27517 -0.0889,-0.6477 z m 0.355599,-0.0381 q 0,0.55457 0.1778,0.80433 0.1778,0.24554 0.397933,0.24554 0.2159,0 0.3937,-0.24554 0.182033,-0.24976 0.182033,-0.80433 0,-0.27517 -0.05927,-0.47837 -0.05503,-0.2032 -0.1524,-0.30056 -0.09313,-0.1016 -0.186266,-0.14394 -0.0889,-0.0466 -0.182033,-0.0466 -0.2159,0 -0.3937,0.2286 -0.1778,0.22436 -0.1778,0.74083 z m 4.089394,0.0381 q 0,-0.36407 0.0889,-0.635 0.0889,-0.27093 0.232834,-0.41487 0.148166,-0.14393 0.300566,-0.20743 0.1524,-0.0677 0.309033,-0.0677 0.160867,0 0.313267,0.0677 0.152399,0.0677 0.296333,0.21167 0.143933,0.1397 0.232833,0.41063 0.0889,0.27093 0.0889,0.635 0,0.3683 -0.09313,0.64347 -0.0889,0.27516 -0.237066,0.41486 -0.143933,0.1397 -0.296333,0.20743 -0.1524,0.0635 -0.3048,0.0635 -0.156633,0 -0.309033,-0.0635 -0.148167,-0.0635 -0.296333,-0.2032 -0.143933,-0.14393 -0.237067,-0.41486 -0.0889,-0.27517 -0.0889,-0.6477 z m 0.355599,-0.0381 q 0,0.55457 0.1778,0.80433 0.1778,0.24554 0.397933,0.24554 0.2159,0 0.3937,-0.24554 0.182033,-0.24976 0.182033,-0.80433 0,-0.27517 -0.05927,-0.47837 -0.05503,-0.2032 -0.1524,-0.30056 -0.09313,-0.1016 -0.186266,-0.14394 -0.0889,-0.0466 -0.182033,-0.0466 -0.2159,0 -0.3937,0.2286 -0.1778,0.22436 -0.1778,0.74083 z m 4.322227,-0.61383 q 0,-0.0635 0.0254,-0.0974 0.0254,-0.0381 0.04657,-0.0466 0.0254,-0.008 0.08043,-0.0127 0.05927,-0.008 0.0762,-0.0127 0.258233,-0.0635 0.414866,-0.38946 0.0508,-0.1143 0.148166,-0.1143 0.143934,0 0.143934,0.1651 v 2.13783 h 0.393699 q 0.169333,0 0.160867,0.15663 0,0.16087 -0.156633,0.16087 h -1.168399 q -0.07197,-0.004 -0.110067,-0.0466 -0.03387,-0.0466 -0.03387,-0.11007 0,-0.16086 0.1651,-0.16086 h 0.3937 v -1.62983 q -0.2159,0.16086 -0.423333,0.16086 -0.156633,0 -0.156633,-0.16086 z"
         id="path23" />
      <path
         d="m 62.012557,177.20179 q 0,-0.0635 0.0254,-0.0974 0.0254,-0.0381 0.04657,-0.0466 0.0254,-0.008 0.08043,-0.0127 0.05927,-0.008 0.0762,-0.0127 0.258234,-0.0635 0.414867,-0.38947 0.0508,-0.1143 0.148166,-0.1143 0.143934,0 0.143934,0.1651 v 2.13783 h 0.393699 q 0.169333,0 0.160867,0.15663 0,0.16087 -0.156633,0.16087 h -1.168399 q -0.07197,-0.004 -0.110067,-0.0466 -0.03387,-0.0466 -0.03387,-0.11006 0,-0.16087 0.1651,-0.16087 h 0.3937 v -1.62983 q -0.2159,0.16087 -0.423333,0.16087 -0.156633,0 -0.156633,-0.16087 z m 4.21216,0.65193 q 0,-0.36406 0.0889,-0.635 0.0889,-0.27093 0.232834,-0.41486 0.148166,-0.14394 0.300566,-0.20744 0.1524,-0.0677 0.309033,-0.0677 0.160867,0 0.313267,0.0677 0.152399,0.0677 0.296333,0.21167 0.143933,0.1397 0.232833,0.41063 0.0889,0.27094 0.0889,0.635 0,0.3683 -0.09313,0.64347 -0.0889,0.27516 -0.237066,0.41486 -0.143933,0.1397 -0.296333,0.20744 -0.1524,0.0635 -0.3048,0.0635 -0.156633,0 -0.309033,-0.0635 -0.148167,-0.0635 -0.296333,-0.2032 -0.143933,-0.14394 -0.237067,-0.41487 -0.0889,-0.27517 -0.0889,-0.6477 z m 0.355599,-0.0381 q 0,0.55457 0.1778,0.80433 0.1778,0.24554 0.397933,0.24554 0.2159,0 0.3937,-0.24554 0.182033,-0.24976 0.182033,-0.80433 0,-0.27516 -0.05927,-0.47836 -0.05503,-0.2032 -0.1524,-0.30057 -0.09313,-0.1016 -0.186266,-0.14393 -0.0889,-0.0466 -0.182033,-0.0466 -0.2159,0 -0.3937,0.2286 -0.1778,0.22437 -0.1778,0.74083 z m 4.322227,-0.61383 q 0,-0.0635 0.0254,-0.0974 0.0254,-0.0381 0.04657,-0.0466 0.0254,-0.008 0.08043,-0.0127 0.05927,-0.008 0.0762,-0.0127 0.258233,-0.0635 0.414866,-0.38947 0.0508,-0.1143 0.148166,-0.1143 0.143934,0 0.143934,0.1651 v 2.13783 h 0.393699 q 0.169333,0 0.160867,0.15663 0,0.16087 -0.156633,0.16087 h -1.168399 q -0.07197,-0.004 -0.110067,-0.0466 -0.03387,-0.0466 -0.03387,-0.11006 0,-0.16087 0.1651,-0.16087 h 0.3937 v -1.62983 q -0.2159,0.16087 -0.423333,0.16087 -0.156633,0 -0.156633,-0.16087 z"
         id="path24" />
    </g>
    <path
       style="fill:none;fill-opacity:0.9;stroke:#000000;stroke-width:1;stroke-linecap:square;stroke-linejoin:bevel;stroke-miterlimit:3.9;stroke-dasharray:none;marker-end:url(#ArrowWideRounded);paint-order:markers stroke fill"
       d="m 71.170064,164.00058 6.96229,-12.11953"
       id="path11"
       sodipodi:nodetypes="cc" />
    <path
       style="fill:none;fill-opacity:0.9;stroke:#000000;stroke-width:1;stroke-linecap:square;stroke-linejoin:bevel;stroke-miterlimit:3.9;stroke-dasharray:none;marker-end:url(#ArrowWideRounded);paint-order:markers stroke fill"
       d="m 44.094496,133.42551 6.96229,12.11953"
       id="path12"
       sodipodi:nodetypes="cc" />
    <path
       style="fill:none;fill-opacity:0.9;stroke:#000000;stroke-width:1;stroke-linecap:square;stroke-linejoin:bevel;stroke-miterlimit:3.9;stroke-dasharray:none;marker-end:url(#ArrowWideRounded);paint-order:markers stroke fill"
       d="m 20.629003,164.00058 6.96229,-12.11953"
       id="path13"
       sodipodi:nodetypes="cc" />
    <path
       style="fill:none;fill-opacity:0.9;stroke:#000000;stroke-width:1;stroke-linecap:square;stroke-linejoin:bevel;stroke-miterlimit:3.9;stroke-dasharray:none;marker-end:url(#ArrowWideRounded);paint-order:markers stroke fill"
       d="m -11.345954,133.42551 6.9622903,12.11953"
       id="path14"
       sodipodi:nodetypes="cc" />
  </g>
</svg>
