<?xml version="1.0" encoding="UTF-8" standalone="no"?>
<!-- Created with Inkscape (http://www.inkscape.org/) -->

<svg
   width="122.63822mm"
   height="89.86689mm"
   viewBox="0 0 122.63822 89.866892"
   version="1.1"
   id="svg1"
   inkscape:version="1.3 (0e150ed, 2023-07-21)"
   sodipodi:docname="repro_vs_resources.svg"
   xmlns:inkscape="http://www.inkscape.org/namespaces/inkscape"
   xmlns:sodipodi="http://sodipodi.sourceforge.net/DTD/sodipodi-0.dtd"
   xmlns="http://www.w3.org/2000/svg"
   xmlns:svg="http://www.w3.org/2000/svg">
  <sodipodi:namedview
     id="namedview1"
     pagecolor="#ffffff"
     bordercolor="#000000"
     borderopacity="0.25"
     inkscape:showpageshadow="2"
     inkscape:pageopacity="0.0"
     inkscape:pagecheckerboard="0"
     inkscape:deskcolor="#d1d1d1"
     inkscape:document-units="mm"
     inkscape:zoom="1.5150543"
     inkscape:cx="190.0922"
     inkscape:cy="231.67487"
     inkscape:window-width="1920"
     inkscape:window-height="1027"
     inkscape:window-x="0"
     inkscape:window-y="25"
     inkscape:window-maximized="1"
     inkscape:current-layer="layer1"
     showguides="true" />
  <defs
     id="defs1" />
  <g
     inkscape:label="Layer 1"
     inkscape:groupmode="layer"
     id="layer1"
     transform="translate(-27.42016,-61.464613)">
    <path
       style="fill:none;stroke:#000000;stroke-width:1;stroke-linecap:round;stroke-linejoin:round;stroke-miterlimit:3.9;stroke-dashoffset:4.7622;paint-order:markers fill stroke"
       d="M 88.715361,61.964614 V 145.57617"
       id="path1"
       sodipodi:nodetypes="cc" />
    <path
       style="fill:none;stroke:#000000;stroke-width:1;stroke-linecap:round;stroke-linejoin:round;stroke-miterlimit:3.9;stroke-dashoffset:4.7622;paint-order:markers fill stroke"
       d="m 48.616677,61.964614 80.201193,2e-6"
       id="path2" />
    <path
       style="fill:none;stroke:#000000;stroke-width:1;stroke-linecap:round;stroke-linejoin:round;stroke-miterlimit:3.9;stroke-dashoffset:4.7622;paint-order:markers fill stroke"
       id="path3"
       sodipodi:type="arc"
       sodipodi:cx="48.295265"
       sodipodi:cy="61.96447"
       sodipodi:rx="78.789192"
       sodipodi:ry="78.789192"
       sodipodi:start="1.3089969"
       sodipodi:end="1.8325957"
       sodipodi:arc-type="slice"
       d="m 68.687412,138.06898 a 78.789192,78.789192 0 0 1 -40.784289,1e-5 L 48.295265,61.96447 Z" />
    <path
       style="fill:none;stroke:#000000;stroke-width:1;stroke-linecap:round;stroke-linejoin:round;stroke-miterlimit:3.9;stroke-dashoffset:4.7622;paint-order:markers fill stroke"
       id="path4"
       sodipodi:type="arc"
       sodipodi:cx="129.16624"
       sodipodi:cy="61.96447"
       sodipodi:rx="78.789192"
       sodipodi:ry="78.789192"
       sodipodi:start="1.3089969"
       sodipodi:end="1.8325957"
       sodipodi:arc-type="slice"
       d="m 149.55839,138.06898 a 78.789192,78.789192 0 0 1 -40.78429,1e-5 l 20.39214,-76.10452 z" />
    <path
       style="fill:none;stroke:#000000;stroke-width:1;stroke-linecap:round;stroke-linejoin:round;stroke-miterlimit:3.9;stroke-dashoffset:4.7622;paint-order:markers fill stroke"
       d="m 82.290354,150.8315 h 12.850013 c 0,0 -6.425006,-1.72078 -6.425006,-6.61829 0,4.84012 -6.425007,6.61829 -6.425007,6.61829 z"
       id="path5"
       sodipodi:nodetypes="cccc" />
    <path
       d="m 30.32908,135.85963 v -0.17497 q 0.299155,0 0.366888,-0.0339 0.07338,-0.0395 0.07338,-0.22013 v -1.51271 q 0,-0.20885 -0.07338,-0.25965 -0.07338,-0.0564 -0.366888,-0.0564 v -0.17498 l 0.784577,-0.0621 v 0.62089 q 0.07902,-0.24271 0.248355,-0.42898 0.169333,-0.19191 0.445911,-0.19191 0.180622,0 0.299155,0.1016 0.118534,0.1016 0.118534,0.24271 0,0.12418 -0.07902,0.18627 -0.07338,0.0621 -0.163688,0.0621 -0.1016,0 -0.174978,-0.0621 -0.06773,-0.0677 -0.06773,-0.18062 0,-0.0677 0.02822,-0.11854 0.03387,-0.0564 0.05644,-0.0734 0.02822,-0.0226 0.04516,-0.0282 -0.01129,-0.006 -0.06209,-0.006 -0.310444,0 -0.491066,0.31044 -0.174978,0.31045 -0.174978,0.75071 v 0.86925 q 0,0.16369 0.06773,0.21449 0.06773,0.0508 0.361245,0.0508 h 0.118533 v 0.17497 q -0.225778,-0.0169 -0.716844,-0.0169 -0.06773,0 -0.174978,0.006 -0.107244,0 -0.248355,0.006 -0.141111,0.006 -0.220133,0.006 z m 2.206969,-1.24177 q 0,-0.53058 0.338667,-0.90876 0.34431,-0.37817 0.835377,-0.37817 0.496711,0 0.75071,0.32173 0.259645,0.32173 0.259645,0.78458 0,0.0847 -0.02258,0.1016 -0.02258,0.0169 -0.118533,0.0169 h -1.574799 q 0,0.57573 0.169333,0.84666 0.237066,0.37818 0.637822,0.37818 0.05644,0 0.118533,-0.0113 0.06773,-0.0113 0.2032,-0.0564 0.135466,-0.0508 0.254,-0.18062 0.118533,-0.12983 0.186266,-0.33303 0.01693,-0.079 0.07338,-0.079 0.07338,0 0.07338,0.0677 0,0.0508 -0.05644,0.16368 -0.0508,0.10725 -0.1524,0.24272 -0.1016,0.12982 -0.299155,0.23142 -0.197555,0.0959 -0.434622,0.0959 -0.496711,0 -0.869244,-0.37253 -0.372533,-0.37818 -0.372533,-0.93133 z m 0.474133,-0.18062 h 1.337733 q 0,-0.11854 -0.02258,-0.24836 -0.01693,-0.13547 -0.07902,-0.31609 -0.05645,-0.18627 -0.197556,-0.29915 -0.135466,-0.11854 -0.338666,-0.11854 -0.09031,0 -0.191911,0.0395 -0.09596,0.0395 -0.214489,0.13547 -0.118533,0.0903 -0.2032,0.3048 -0.07902,0.20884 -0.09031,0.50236 z m 2.03199,2.34244 q 0.299155,0 0.366888,-0.0395 0.07338,-0.0339 0.07338,-0.21449 v -2.6416 q 0,-0.18627 -0.07338,-0.23142 -0.06773,-0.0508 -0.366888,-0.0508 v -0.17498 l 0.812799,-0.0621 v 0.37253 q 0.338666,-0.37253 0.790222,-0.37253 0.479777,0 0.829732,0.37253 0.349956,0.37254 0.349956,0.90312 0,0.53622 -0.372533,0.90875 -0.372534,0.37253 -0.886178,0.37253 -0.282222,0 -0.474133,-0.14111 -0.186266,-0.14675 -0.220133,-0.254 v 0.0508 0.94827 q 0,0.18062 0.06773,0.21449 0.07338,0.0395 0.372533,0.0395 v 0.17498 q -0.592667,-0.0169 -0.637822,-0.0169 -0.05644,0 -0.632177,0.0169 z m 0.829732,-1.56351 q 0,0.0847 0.01129,0.11853 0.01129,0.0282 0.06773,0.11853 0.225778,0.34432 0.592667,0.34432 0.321733,0 0.564444,-0.32738 0.248355,-0.33302 0.248355,-0.82973 0,-0.47414 -0.225778,-0.80152 -0.220133,-0.33302 -0.530577,-0.33302 -0.220133,0 -0.412044,0.11854 -0.191911,0.11853 -0.316089,0.33302 z m 2.302923,0.64346 v -0.17497 q 0.299155,0 0.366888,-0.0339 0.07338,-0.0395 0.07338,-0.22013 v -1.51271 q 0,-0.20885 -0.07338,-0.25965 -0.07338,-0.0564 -0.366888,-0.0564 v -0.17498 l 0.784577,-0.0621 v 0.62089 q 0.07902,-0.24271 0.248355,-0.42898 0.169333,-0.19191 0.445911,-0.19191 0.180622,0 0.299155,0.1016 0.118534,0.1016 0.118534,0.24271 0,0.12418 -0.07902,0.18627 -0.07338,0.0621 -0.163688,0.0621 -0.1016,0 -0.174978,-0.0621 -0.06773,-0.0677 -0.06773,-0.18062 0,-0.0677 0.02822,-0.11854 0.03387,-0.0564 0.05644,-0.0734 0.02822,-0.0226 0.04516,-0.0282 -0.01129,-0.006 -0.06209,-0.006 -0.310444,0 -0.491066,0.31044 -0.174978,0.31045 -0.174978,0.75071 v 0.86925 q 0,0.16369 0.06773,0.21449 0.06773,0.0508 0.361245,0.0508 h 0.118533 v 0.17497 q -0.225778,-0.0169 -0.716844,-0.0169 -0.06773,0 -0.174978,0.006 -0.107244,0 -0.248355,0.006 -0.141111,0.006 -0.220133,0.006 z m 2.579502,-0.3048 q -0.372533,-0.36688 -0.372533,-0.90311 0,-0.53622 0.361244,-0.92568 0.366889,-0.39511 0.891822,-0.39511 0.513644,0 0.880532,0.38946 0.366889,0.38947 0.366889,0.93133 0,0.53058 -0.372533,0.90311 -0.366889,0.36689 -0.880533,0.36689 -0.502355,0 -0.874888,-0.36689 z m 0.09596,-0.94826 q 0,0.54751 0.141111,0.79586 0.220133,0.37818 0.643466,0.37818 0.208844,0 0.383822,-0.11289 0.174977,-0.11289 0.270933,-0.3048 0.124177,-0.24835 0.124177,-0.75635 0,-0.54187 -0.146755,-0.78458 -0.220133,-0.36689 -0.637822,-0.36689 -0.180622,0 -0.361244,0.096 -0.174978,0.0959 -0.282222,0.28222 -0.135466,0.24836 -0.135466,0.77329 z m 2.545631,0.0395 q 0,-0.53622 0.372533,-0.90876 0.378177,-0.37253 0.886177,-0.37253 0.428977,0 0.711199,0.34996 v -1.2192 q 0,-0.20885 -0.07338,-0.25965 -0.07338,-0.0564 -0.366889,-0.0564 v -0.17498 l 0.8128,-0.0621 v 3.42618 q 0,0.20884 0.07338,0.26529 0.07338,0.0508 0.366889,0.0508 v 0.17497 l -0.829733,0.0621 v -0.37253 q -0.293511,0.37253 -0.756355,0.37253 -0.485422,0 -0.841021,-0.37253 -0.3556,-0.37253 -0.3556,-0.90311 z m 0.468488,0.006 q 0,0.52494 0.163689,0.78458 0.225778,0.36125 0.592666,0.36125 0.417689,0 0.666044,-0.39512 0.06209,-0.096 0.06209,-0.20884 v -1.15711 q 0,-0.11289 -0.06209,-0.20884 -0.231422,-0.33867 -0.609599,-0.33867 -0.395111,0 -0.637822,0.36124 -0.174978,0.27094 -0.174978,0.80151 z m 2.652878,-1.04986 v -0.17498 l 0.829733,-0.0621 v 1.87396 q 0,0.13546 0.01129,0.21448 0.01129,0.079 0.05644,0.16934 0.04516,0.0903 0.1524,0.13546 0.107244,0.0395 0.276578,0.0395 0.304799,0 0.491066,-0.24836 0.191911,-0.254 0.191911,-0.62653 v -1.00471 q 0,-0.20885 -0.07338,-0.25965 -0.07338,-0.0564 -0.366889,-0.0564 v -0.17498 l 0.829733,-0.0621 v 2.00378 q 0,0.20884 0.07338,0.26529 0.07338,0.0508 0.366888,0.0508 v 0.17497 l -0.812799,0.0621 v -0.508 q -0.237066,0.508 -0.728133,0.508 -0.248355,0 -0.417688,-0.0621 -0.169333,-0.0621 -0.254,-0.14111 -0.08467,-0.079 -0.129822,-0.23142 -0.04516,-0.1524 -0.0508,-0.24271 -0.0056,-0.096 -0.0056,-0.27658 v -0.84666 q 0,-0.38383 -0.05644,-0.45156 -0.05644,-0.0677 -0.383822,-0.0677 z m 3.499543,1.94733 q -0.3556,-0.37253 -0.3556,-0.90875 0,-0.53623 0.349955,-0.92005 0.3556,-0.38946 0.874889,-0.38946 0.344311,0 0.603955,0.16368 0.259644,0.16369 0.259644,0.44027 0,0.12418 -0.07338,0.19756 -0.07338,0.0677 -0.186266,0.0677 -0.118533,0 -0.191911,-0.0734 -0.06773,-0.0734 -0.06773,-0.18627 0,-0.0508 0.01693,-0.0959 0.01693,-0.0508 0.07902,-0.1016 0.06209,-0.0565 0.169333,-0.0621 -0.2032,-0.20884 -0.603955,-0.20884 -0.287866,0 -0.524933,0.27093 -0.237066,0.27093 -0.237066,0.88618 0,0.32173 0.07902,0.5588 0.07902,0.23706 0.208844,0.36124 0.129822,0.11853 0.254,0.17498 0.129822,0.0564 0.254,0.0564 0.553155,0 0.739421,-0.59266 0.01693,-0.0565 0.07338,-0.0565 0.07338,0 0.07338,0.0565 0,0.0282 -0.02258,0.1016 -0.02258,0.0677 -0.09031,0.18062 -0.06773,0.11289 -0.169333,0.21449 -0.09596,0.0959 -0.270933,0.16933 -0.169333,0.0677 -0.383822,0.0677 -0.496711,0 -0.857955,-0.37253 z m 2.144878,0.31044 v -0.17497 q 0.299156,0 0.366889,-0.0339 0.07338,-0.0395 0.07338,-0.22013 v -1.51836 q 0,-0.20884 -0.07338,-0.25964 -0.06773,-0.0508 -0.344311,-0.0508 v -0.17498 l 0.790222,-0.0621 v 2.07151 q 0,0.16933 0.05644,0.20885 0.06209,0.0395 0.338667,0.0395 v 0.17497 q -0.575733,-0.0169 -0.587022,-0.0169 -0.07902,0 -0.620889,0.0169 z m 0.237067,-3.47697 q 0,-0.11289 0.08467,-0.2032 0.09031,-0.096 0.214489,-0.096 0.124178,0 0.208844,0.0847 0.09031,0.0847 0.09031,0.21449 0,0.12982 -0.09031,0.21449 -0.08467,0.0847 -0.208844,0.0847 -0.129822,0 -0.214489,-0.0903 -0.08467,-0.0903 -0.08467,-0.20884 z m 1.298212,-0.2032 v -0.17498 l 0.8128,-0.0621 v 1.78929 q 0.327377,-0.36689 0.773288,-0.36689 0.485422,0 0.841022,0.37253 0.355599,0.37254 0.355599,0.90312 0,0.53622 -0.372533,0.90875 -0.372533,0.37253 -0.886177,0.37253 -0.468488,0 -0.739421,-0.41204 -0.197556,0.34431 -0.2032,0.34995 h -0.141111 v -3.36408 q 0,-0.20885 -0.07338,-0.25965 -0.07338,-0.0564 -0.366889,-0.0564 z m 0.829733,3.03671 q 0,0.11853 0.07902,0.23706 0.225778,0.34432 0.592667,0.34432 0.39511,0 0.637821,-0.36125 0.174978,-0.27093 0.174978,-0.80151 0,-0.52493 -0.163689,-0.78458 -0.225777,-0.36124 -0.592666,-0.36124 -0.412044,0 -0.666044,0.36124 -0.06209,0.0903 -0.06209,0.2032 z m 2.331146,0.64346 v -0.17497 q 0.299155,0 0.366888,-0.0339 0.07338,-0.0395 0.07338,-0.22013 v -1.51836 q 0,-0.20884 -0.07338,-0.25964 -0.06773,-0.0508 -0.34431,-0.0508 v -0.17498 l 0.790221,-0.0621 v 2.07151 q 0,0.16933 0.05645,0.20885 0.06209,0.0395 0.338666,0.0395 v 0.17497 q -0.575733,-0.0169 -0.587022,-0.0169 -0.07902,0 -0.620888,0.0169 z m 0.237066,-3.47697 q 0,-0.11289 0.08467,-0.2032 0.09031,-0.096 0.214489,-0.096 0.124177,0 0.208844,0.0847 0.09031,0.0847 0.09031,0.21449 0,0.12982 -0.09031,0.21449 -0.08467,0.0847 -0.208844,0.0847 -0.129823,0 -0.214489,-0.0903 -0.08467,-0.0903 -0.08467,-0.20884 z m 1.326435,3.47697 v -0.17497 q 0.299155,0 0.366889,-0.0339 0.07338,-0.0395 0.07338,-0.22013 v -2.93511 q 0,-0.20885 -0.07338,-0.25965 -0.07338,-0.0564 -0.366889,-0.0564 v -0.17498 l 0.8128,-0.0621 v 3.48827 q 0,0.18062 0.06773,0.22013 0.07338,0.0339 0.372533,0.0339 v 0.17497 q -0.06773,0 -0.214489,-0.006 -0.141111,-0.006 -0.248355,-0.006 -0.1016,-0.006 -0.163689,-0.006 -0.06773,0 -0.626533,0.0169 z m 1.563501,0 v -0.17497 q 0.299156,0 0.366889,-0.0339 0.07338,-0.0395 0.07338,-0.22013 v -1.51836 q 0,-0.20884 -0.07338,-0.25964 -0.06773,-0.0508 -0.344311,-0.0508 v -0.17498 l 0.790222,-0.0621 v 2.07151 q 0,0.16933 0.05644,0.20885 0.06209,0.0395 0.338667,0.0395 v 0.17497 q -0.575733,-0.0169 -0.587022,-0.0169 -0.07902,0 -0.620889,0.0169 z m 0.237067,-3.47697 q 0,-0.11289 0.08467,-0.2032 0.09031,-0.096 0.214488,-0.096 0.124178,0 0.208845,0.0847 0.09031,0.0847 0.09031,0.21449 0,0.12982 -0.09031,0.21449 -0.08467,0.0847 -0.208845,0.0847 -0.129822,0 -0.214488,-0.0903 -0.08467,-0.0903 -0.08467,-0.20884 z m 1.247413,1.2192 v -0.12418 q 0.259644,-0.0113 0.428977,-0.19191 0.174978,-0.18627 0.231422,-0.41204 0.06209,-0.22578 0.06773,-0.48543 h 0.141111 v 1.03858 h 0.807155 v 0.17498 h -0.807155 v 1.56915 q 0,0.6096 0.378178,0.6096 0.163689,0 0.270933,-0.16369 0.107244,-0.16933 0.107244,-0.46849 v -0.31044 h 0.141111 v 0.32173 q 0,0.3048 -0.141111,0.53623 -0.141111,0.22577 -0.417688,0.22577 -0.1016,0 -0.2032,-0.0282 -0.1016,-0.0226 -0.231422,-0.0903 -0.129822,-0.0677 -0.214489,-0.23142 -0.07902,-0.16934 -0.07902,-0.41205 v -1.55786 z m 2.031982,2.95768 q 0,-0.11853 0.06773,-0.18062 0.07338,-0.0621 0.169334,-0.0621 0.1016,0 0.169333,0.0621 0.06773,0.0677 0.06773,0.17498 0,0.20884 -0.220133,0.23707 0.107244,0.1016 0.265289,0.1016 0.169333,0 0.304799,-0.12418 0.135467,-0.12418 0.191911,-0.24271 0.06209,-0.11853 0.146756,-0.33302 0.07902,-0.16934 0.141111,-0.33303 l -0.846666,-2.06022 q -0.05645,-0.13546 -0.141111,-0.16369 -0.08467,-0.0339 -0.316089,-0.0339 v -0.17498 q 0.254,0.0169 0.547511,0.0169 0.174977,0 0.615244,-0.0169 v 0.17498 q -0.316089,0 -0.316089,0.14675 0,0.0169 0.03387,0.1016 l 0.626533,1.51836 0.570088,-1.38853 q 0.03387,-0.079 0.03387,-0.13547 0,-0.23142 -0.265289,-0.24271 v -0.17498 q 0.372533,0.0169 0.491066,0.0169 0.231422,0 0.423333,-0.0169 v 0.17498 q -0.378177,0 -0.524933,0.36124 l -0.993421,2.41018 q -0.270933,0.64346 -0.722488,0.64346 -0.214489,0 -0.366889,-0.13546 -0.1524,-0.12982 -0.1524,-0.32174 z"
       id="text1"
       style="font-size:5.64444px;font-family:'CMU Serif';-inkscape-font-specification:'CMU Serif';text-align:center;letter-spacing:0px;text-anchor:middle;stroke-linecap:square;stroke-linejoin:bevel;stroke-miterlimit:3.9;paint-order:markers stroke fill"
       aria-label="reproducibility" />
    <path
       d="m 118.17374,135.85963 v -0.17497 q 0.29915,0 0.36689,-0.0339 0.0734,-0.0395 0.0734,-0.22013 v -1.51271 q 0,-0.20885 -0.0734,-0.25965 -0.0734,-0.0564 -0.36689,-0.0564 v -0.17498 l 0.78457,-0.0621 v 0.62089 q 0.079,-0.24271 0.24836,-0.42898 0.16933,-0.19191 0.44591,-0.19191 0.18062,0 0.29916,0.1016 0.11853,0.1016 0.11853,0.24271 0,0.12418 -0.079,0.18627 -0.0734,0.0621 -0.16369,0.0621 -0.1016,0 -0.17498,-0.0621 -0.0677,-0.0677 -0.0677,-0.18062 0,-0.0677 0.0282,-0.11854 0.0339,-0.0564 0.0564,-0.0734 0.0282,-0.0226 0.0452,-0.0282 -0.0113,-0.006 -0.0621,-0.006 -0.31044,0 -0.49107,0.31044 -0.17497,0.31045 -0.17497,0.75071 v 0.86925 q 0,0.16369 0.0677,0.21449 0.0677,0.0508 0.36124,0.0508 h 0.11854 v 0.17497 q -0.22578,-0.0169 -0.71685,-0.0169 -0.0677,0 -0.17497,0.006 -0.10725,0 -0.24836,0.006 -0.14111,0.006 -0.22013,0.006 z m 2.20697,-1.24177 q 0,-0.53058 0.33866,-0.90876 0.34431,-0.37817 0.83538,-0.37817 0.49671,0 0.75071,0.32173 0.25964,0.32173 0.25964,0.78458 0,0.0847 -0.0226,0.1016 -0.0226,0.0169 -0.11854,0.0169 h -1.5748 q 0,0.57573 0.16934,0.84666 0.23706,0.37818 0.63782,0.37818 0.0564,0 0.11853,-0.0113 0.0677,-0.0113 0.2032,-0.0564 0.13547,-0.0508 0.254,-0.18062 0.11854,-0.12983 0.18627,-0.33303 0.0169,-0.079 0.0734,-0.079 0.0734,0 0.0734,0.0677 0,0.0508 -0.0564,0.16368 -0.0508,0.10725 -0.1524,0.24272 -0.1016,0.12982 -0.29915,0.23142 -0.19756,0.0959 -0.43463,0.0959 -0.49671,0 -0.86924,-0.37253 -0.37253,-0.37818 -0.37253,-0.93133 z m 0.47413,-0.18062 h 1.33773 q 0,-0.11854 -0.0226,-0.24836 -0.0169,-0.13547 -0.079,-0.31609 -0.0564,-0.18627 -0.19755,-0.29915 -0.13547,-0.11854 -0.33867,-0.11854 -0.0903,0 -0.19191,0.0395 -0.096,0.0395 -0.21449,0.13547 -0.11853,0.0903 -0.2032,0.3048 -0.079,0.20884 -0.0903,0.50236 z m 2.06021,1.34902 v -0.74507 q 0,-0.0621 0,-0.0847 0.006,-0.0226 0.0226,-0.0395 0.0169,-0.0169 0.0508,-0.0169 0.0395,0 0.0508,0.0169 0.0169,0.0169 0.0282,0.079 0.0847,0.38946 0.26529,0.59831 0.18627,0.2032 0.51929,0.2032 0.31609,0 0.47413,-0.14112 0.16369,-0.14111 0.16369,-0.37253 0,-0.41204 -0.58702,-0.51929 -0.33867,-0.0677 -0.47978,-0.11289 -0.14111,-0.0452 -0.26529,-0.14675 -0.24271,-0.19756 -0.24271,-0.47978 0,-0.28222 0.21449,-0.48542 0.21449,-0.20884 0.68862,-0.20884 0.31609,0 0.53058,0.15804 0.0621,-0.0508 0.0959,-0.0903 0.0734,-0.0677 0.11289,-0.0677 0.0452,0 0.0508,0.0282 0.0113,0.0282 0.0113,0.10724 v 0.57009 q 0,0.0621 -0.006,0.0847 0,0.0226 -0.0169,0.0395 -0.0169,0.0113 -0.0508,0.0113 -0.0621,0 -0.0677,-0.0508 -0.0452,-0.68298 -0.6604,-0.68298 -0.33302,0 -0.48542,0.12982 -0.14676,0.12418 -0.14676,0.29916 0,0.0959 0.0452,0.16933 0.0452,0.0734 0.1016,0.11853 0.0621,0.0395 0.16933,0.079 0.11289,0.0395 0.18062,0.0564 0.0677,0.0113 0.19756,0.0395 0.45156,0.0847 0.64347,0.27093 0.23706,0.23707 0.23706,0.53623 0,0.33302 -0.22577,0.5588 -0.22578,0.22577 -0.68298,0.22577 -0.36689,0 -0.62089,-0.24271 -0.0339,0.0339 -0.0621,0.0621 -0.0226,0.0282 -0.0339,0.0395 -0.006,0.0113 -0.0113,0.0169 0,0.006 -0.006,0.0113 -0.11289,0.11289 -0.14111,0.11289 -0.0452,0 -0.0564,-0.0282 -0.006,-0.0282 -0.006,-0.10724 z m 2.56822,-0.23143 q -0.37254,-0.36688 -0.37254,-0.90311 0,-0.53622 0.36125,-0.92568 0.36689,-0.39511 0.89182,-0.39511 0.51364,0 0.88053,0.38946 0.36689,0.38947 0.36689,0.93133 0,0.53058 -0.37253,0.90311 -0.36689,0.36689 -0.88054,0.36689 -0.50235,0 -0.87488,-0.36689 z m 0.096,-0.94826 q 0,0.54751 0.14111,0.79586 0.22014,0.37818 0.64347,0.37818 0.20884,0 0.38382,-0.11289 0.17498,-0.11289 0.27093,-0.3048 0.12418,-0.24835 0.12418,-0.75635 0,-0.54187 -0.14675,-0.78458 -0.22014,-0.36689 -0.63783,-0.36689 -0.18062,0 -0.36124,0.096 -0.17498,0.0959 -0.28222,0.28222 -0.13547,0.24836 -0.13547,0.77329 z m 2.3763,-1.00471 v -0.17498 l 0.82973,-0.0621 v 1.87396 q 0,0.13546 0.0113,0.21448 0.0113,0.079 0.0565,0.16934 0.0452,0.0903 0.1524,0.13546 0.10724,0.0395 0.27657,0.0395 0.3048,0 0.49107,-0.24836 0.19191,-0.254 0.19191,-0.62653 v -1.00471 q 0,-0.20885 -0.0734,-0.25965 -0.0734,-0.0564 -0.36689,-0.0564 v -0.17498 l 0.82974,-0.0621 v 2.00378 q 0,0.20884 0.0734,0.26529 0.0734,0.0508 0.36689,0.0508 v 0.17497 l -0.8128,0.0621 v -0.508 q -0.23706,0.508 -0.72813,0.508 -0.24835,0 -0.41769,-0.0621 -0.16933,-0.0621 -0.254,-0.14111 -0.0847,-0.079 -0.12982,-0.23142 -0.0452,-0.1524 -0.0508,-0.24271 -0.006,-0.096 -0.006,-0.27658 v -0.84666 q 0,-0.38383 -0.0565,-0.45156 -0.0564,-0.0677 -0.38382,-0.0677 z m 3.11008,2.25777 v -0.17497 q 0.29915,0 0.36689,-0.0339 0.0734,-0.0395 0.0734,-0.22013 v -1.51271 q 0,-0.20885 -0.0734,-0.25965 -0.0734,-0.0564 -0.36689,-0.0564 v -0.17498 l 0.78457,-0.0621 v 0.62089 q 0.079,-0.24271 0.24836,-0.42898 0.16933,-0.19191 0.44591,-0.19191 0.18062,0 0.29916,0.1016 0.11853,0.1016 0.11853,0.24271 0,0.12418 -0.079,0.18627 -0.0734,0.0621 -0.16369,0.0621 -0.1016,0 -0.17498,-0.0621 -0.0677,-0.0677 -0.0677,-0.18062 0,-0.0677 0.0282,-0.11854 0.0339,-0.0564 0.0564,-0.0734 0.0282,-0.0226 0.0452,-0.0282 -0.0113,-0.006 -0.0621,-0.006 -0.31044,0 -0.49107,0.31044 -0.17497,0.31045 -0.17497,0.75071 v 0.86925 q 0,0.16369 0.0677,0.21449 0.0677,0.0508 0.36124,0.0508 h 0.11854 v 0.17497 q -0.22578,-0.0169 -0.71685,-0.0169 -0.0677,0 -0.17497,0.006 -0.10725,0 -0.24836,0.006 -0.14111,0.006 -0.22013,0.006 z m 2.59643,-0.31044 q -0.3556,-0.37253 -0.3556,-0.90875 0,-0.53623 0.34996,-0.92005 0.3556,-0.38946 0.87489,-0.38946 0.34431,0 0.60395,0.16368 0.25965,0.16369 0.25965,0.44027 0,0.12418 -0.0734,0.19756 -0.0734,0.0677 -0.18627,0.0677 -0.11853,0 -0.19191,-0.0734 -0.0677,-0.0734 -0.0677,-0.18627 0,-0.0508 0.0169,-0.0959 0.0169,-0.0508 0.079,-0.1016 0.0621,-0.0565 0.16934,-0.0621 -0.2032,-0.20884 -0.60396,-0.20884 -0.28786,0 -0.52493,0.27093 -0.23707,0.27093 -0.23707,0.88618 0,0.32173 0.079,0.5588 0.079,0.23706 0.20885,0.36124 0.12982,0.11853 0.254,0.17498 0.12982,0.0564 0.254,0.0564 0.55315,0 0.73942,-0.59266 0.0169,-0.0565 0.0734,-0.0565 0.0734,0 0.0734,0.0565 0,0.0282 -0.0226,0.1016 -0.0226,0.0677 -0.0903,0.18062 -0.0677,0.11289 -0.16934,0.21449 -0.096,0.0959 -0.27093,0.16933 -0.16933,0.0677 -0.38382,0.0677 -0.49671,0 -0.85796,-0.37253 z m 2.11666,-0.93133 q 0,-0.53058 0.33867,-0.90876 0.34431,-0.37817 0.83537,-0.37817 0.49671,0 0.75071,0.32173 0.25965,0.32173 0.25965,0.78458 0,0.0847 -0.0226,0.1016 -0.0226,0.0169 -0.11853,0.0169 h -1.5748 q 0,0.57573 0.16933,0.84666 0.23707,0.37818 0.63782,0.37818 0.0565,0 0.11854,-0.0113 0.0677,-0.0113 0.2032,-0.0564 0.13546,-0.0508 0.254,-0.18062 0.11853,-0.12983 0.18626,-0.33303 0.0169,-0.079 0.0734,-0.079 0.0734,0 0.0734,0.0677 0,0.0508 -0.0564,0.16368 -0.0508,0.10725 -0.1524,0.24272 -0.1016,0.12982 -0.29915,0.23142 -0.19756,0.0959 -0.43462,0.0959 -0.49672,0 -0.86925,-0.37253 -0.37253,-0.37818 -0.37253,-0.93133 z m 0.47413,-0.18062 h 1.33773 q 0,-0.11854 -0.0226,-0.24836 -0.0169,-0.13547 -0.079,-0.31609 -0.0564,-0.18627 -0.19755,-0.29915 -0.13547,-0.11854 -0.33867,-0.11854 -0.0903,0 -0.19191,0.0395 -0.0959,0.0395 -0.21449,0.13547 -0.11853,0.0903 -0.2032,0.3048 -0.079,0.20884 -0.0903,0.50236 z m 2.06021,1.34902 v -0.74507 q 0,-0.0621 0,-0.0847 0.006,-0.0226 0.0226,-0.0395 0.0169,-0.0169 0.0508,-0.0169 0.0395,0 0.0508,0.0169 0.0169,0.0169 0.0282,0.079 0.0847,0.38946 0.26529,0.59831 0.18627,0.2032 0.51929,0.2032 0.31609,0 0.47413,-0.14112 0.16369,-0.14111 0.16369,-0.37253 0,-0.41204 -0.58702,-0.51929 -0.33867,-0.0677 -0.47978,-0.11289 -0.14111,-0.0452 -0.26529,-0.14675 -0.24271,-0.19756 -0.24271,-0.47978 0,-0.28222 0.21449,-0.48542 0.21449,-0.20884 0.68862,-0.20884 0.31609,0 0.53058,0.15804 0.0621,-0.0508 0.096,-0.0903 0.0734,-0.0677 0.11289,-0.0677 0.0452,0 0.0508,0.0282 0.0113,0.0282 0.0113,0.10724 v 0.57009 q 0,0.0621 -0.006,0.0847 0,0.0226 -0.0169,0.0395 -0.0169,0.0113 -0.0508,0.0113 -0.0621,0 -0.0677,-0.0508 -0.0452,-0.68298 -0.6604,-0.68298 -0.33302,0 -0.48542,0.12982 -0.14675,0.12418 -0.14675,0.29916 0,0.0959 0.0452,0.16933 0.0452,0.0734 0.1016,0.11853 0.0621,0.0395 0.16934,0.079 0.11288,0.0395 0.18062,0.0564 0.0677,0.0113 0.19755,0.0395 0.45156,0.0847 0.64347,0.27093 0.23707,0.23707 0.23707,0.53623 0,0.33302 -0.22578,0.5588 -0.22578,0.22577 -0.68298,0.22577 -0.36689,0 -0.62089,-0.24271 -0.0339,0.0339 -0.0621,0.0621 -0.0226,0.0282 -0.0339,0.0395 -0.006,0.0113 -0.0113,0.0169 0,0.006 -0.006,0.0113 -0.11289,0.11289 -0.14111,0.11289 -0.0452,0 -0.0564,-0.0282 -0.006,-0.0282 -0.006,-0.10724 z"
       id="text2"
       style="font-size:5.64444px;font-family:'CMU Serif';-inkscape-font-specification:'CMU Serif';text-align:center;letter-spacing:0px;text-anchor:middle;stroke-linecap:square;stroke-linejoin:bevel;stroke-miterlimit:3.9;paint-order:markers stroke fill"
       aria-label="resources" />
  </g>
</svg>
