<?xml version="1.0" encoding="UTF-8" standalone="no"?>
<!-- Created with Inkscape (http://www.inkscape.org/) -->

<svg
   width="43.87685mm"
   height="26.372181mm"
   viewBox="0 0 43.876851 26.372181"
   version="1.1"
   id="svg1"
   sodipodi:docname="run_input.svg"
   inkscape:version="1.3 (0e150ed, 2023-07-21)"
   xmlns:inkscape="http://www.inkscape.org/namespaces/inkscape"
   xmlns:sodipodi="http://sodipodi.sourceforge.net/DTD/sodipodi-0.dtd"
   xmlns="http://www.w3.org/2000/svg"
   xmlns:svg="http://www.w3.org/2000/svg">
  <sodipodi:namedview
     id="namedview1"
     pagecolor="#ffffff"
     bordercolor="#000000"
     borderopacity="0.25"
     inkscape:showpageshadow="2"
     inkscape:pageopacity="0.0"
     inkscape:pagecheckerboard="0"
     inkscape:deskcolor="#d1d1d1"
     inkscape:document-units="mm"
     inkscape:zoom="1.1137575"
     inkscape:cx="99.662632"
     inkscape:cy="81.705401"
     inkscape:window-width="1312"
     inkscape:window-height="449"
     inkscape:window-x="0"
     inkscape:window-y="25"
     inkscape:window-maximized="0"
     inkscape:current-layer="layer1" />
  <defs
     id="defs1" />
  <g
     inkscape:label="Layer 1"
     inkscape:groupmode="layer"
     id="layer1"
     transform="translate(-37.641027,-128.02665)">
    <g
       id="text1"
       style="font-size:8.46667px;font-family:'CMU Typewriter Text';-inkscape-font-specification:'CMU Typewriter Text';letter-spacing:0px;fill:#4d4d4d;stroke-width:0.600001;stroke-linecap:round;stroke-linejoin:bevel;stroke-miterlimit:3.9"
       aria-label="&lt;input&gt;&#10;  &lt;NX&gt;64&lt;/NX&gt;&#10;  &lt;NT&gt;128&lt;/NT&gt;&#10;  &lt;beta&gt;6.2&lt;/beta&gt;&#10;..."
       transform="matrix(0.55502912,0,0,0.55502912,21.8914,56.968131)">
      <path
         style="stroke-width:0.6"
         d="m 28.376224,130.61745 q 0,-0.0508 0.01693,-0.0847 0.01693,-0.0423 0.04233,-0.0762 0.03387,-0.0339 0.0508,-0.0508 0.0254,-0.0169 0.05927,-0.0423 l 0.04233,-0.0169 2.819401,-1.73567 q 0.118534,-0.0677 0.194734,-0.0677 0.09313,0 0.1778,0.0762 0.08467,0.0677 0.08467,0.1778 0,0.13546 -0.186267,0.26246 l -2.540001,1.56634 q 0.0254,0.008 0.194733,0.11853 l 2.345268,1.43933 q 0.186267,0.127 0.186267,0.26247 0,0.11007 -0.08467,0.18627 -0.08467,0.0677 -0.1778,0.0677 -0.0762,0 -0.194734,-0.0677 l -2.819401,-1.73567 q -0.211666,-0.11853 -0.211666,-0.2794 z m 4.631265,2.3368 q 0,-0.26246 0.347134,-0.26246 h 1.024467 v -2.61621 h -0.956734 q -0.347134,0 -0.347134,-0.26246 0,-0.254 0.347134,-0.254 h 1.202267 q 0.211667,0 0.270933,0.0762 0.06773,0.0677 0.06773,0.27093 v 2.78554 h 0.889 q 0.347134,0 0.347134,0.26246 0,0.254 -0.347134,0.254 h -2.497667 q -0.347134,0 -0.347134,-0.254 z m 1.227667,-4.19947 q -0.118533,-0.127 -0.118533,-0.3048 0,-0.1778 0.118533,-0.29633 0.127,-0.127 0.3048,-0.127 0.1778,0 0.296334,0.127 0.127,0.11853 0.127,0.29633 0,0.1778 -0.127,0.3048 -0.118534,0.11854 -0.296334,0.11854 -0.1778,0 -0.3048,-0.11854 z m 2.658532,4.19947 q 0,-0.26246 0.347133,-0.26246 h 0.372534 v -2.61621 h -0.381001 q -0.338666,0 -0.338666,-0.254 0,-0.26246 0.347133,-0.26246 h 0.618067 q 0.237067,0 0.287867,0.0847 0.0508,0.0762 0.0508,0.31327 0.448733,-0.44873 1.109134,-0.44873 1.100667,0 1.100667,1.2192 v 1.96427 h 0.372533 q 0.347134,0 0.347134,0.26246 0,0.254 -0.338667,0.254 h -1.295401 q -0.347133,0 -0.347133,-0.254 0,-0.26246 0.347133,-0.26246 h 0.3302 v -1.92194 q 0,-0.39793 -0.127,-0.56727 -0.118533,-0.1778 -0.440266,-0.1778 -0.389467,0 -0.728134,0.29634 -0.3302,0.29633 -0.3302,0.87206 v 1.49861 h 0.372533 q 0.347134,0 0.347134,0.26246 0,0.254 -0.338667,0.254 h -1.346201 q -0.338666,0 -0.338666,-0.254 z m 4.444998,1.8796 q 0,-0.26246 0.347134,-0.26246 h 0.372533 v -4.49581 h -0.381 q -0.338667,0 -0.338667,-0.254 0,-0.26246 0.347134,-0.26246 h 0.618067 q 0.220133,0 0.2794,0.0762 0.05927,0.0762 0.05927,0.28786 0.4572,-0.41486 1.075267,-0.41486 0.677333,0 1.159933,0.55033 0.491067,0.54187 0.491067,1.3208 0,0.79587 -0.524933,1.33774 -0.516467,0.54186 -1.219201,0.54186 -0.5588,0 -0.982133,-0.4318 v 1.74414 h 0.372533 q 0.347133,0 0.347133,0.26246 0,0.254 -0.338666,0.254 h -1.346201 q -0.338667,0 -0.338667,-0.254 z m 1.303868,-3.24273 q 0,0.381 0.254,0.77046 0.254,0.38101 0.702733,0.38101 0.465667,0 0.821267,-0.38947 0.364067,-0.38947 0.364067,-0.97367 0,-0.5588 -0.3302,-0.95673 -0.321734,-0.39794 -0.7874,-0.39794 -0.397934,0 -0.711201,0.28787 -0.313266,0.28787 -0.313266,0.6604 z m 3.141131,-1.76954 q 0,-0.26246 0.347134,-0.26246 h 0.618066 q 0.211667,0 0.270934,0.0762 0.06773,0.0677 0.06773,0.27093 v 2.286 q 0,0.13547 0.0085,0.21167 0.01693,0.0677 0.06773,0.16087 0.05927,0.0931 0.2032,0.13546 0.1524,0.0423 0.389467,0.0423 0.127,0 0.262467,-0.0254 0.143933,-0.0339 0.313267,-0.11007 0.169333,-0.0847 0.270933,-0.27094 0.110067,-0.18626 0.110067,-0.4572 v -1.8034 h -0.381 q -0.338667,0 -0.338667,-0.254 0,-0.26246 0.347133,-0.26246 h 0.618067 q 0.211667,0 0.270934,0.0762 0.06773,0.0677 0.06773,0.27093 v 2.78554 h 0.381 q 0.338667,0 0.338667,0.254 0,0.26246 -0.347133,0.26246 H 49.05182 q -0.1016,0 -0.160867,-0.008 -0.0508,-0.008 -0.118533,-0.0677 -0.05927,-0.0677 -0.05927,-0.19473 -0.423334,0.32173 -1.007534,0.32173 -1.202267,0 -1.202267,-1.016 v -2.16747 h -0.381 q -0.338667,0 -0.338667,-0.254 z m 4.555066,0 q 0,-0.26246 0.347134,-0.26246 h 0.7366 v -0.69427 q 0,-0.11007 0.0085,-0.16933 0.0085,-0.0593 0.0762,-0.11854 0.0762,-0.0593 0.211667,-0.0593 0.194733,0 0.237066,0.0931 0.0508,0.0847 0.0508,0.254 v 0.69427 h 1.388534 q 0.1016,0 0.1524,0.008 0.05927,0.008 0.118534,0.0762 0.06773,0.0593 0.06773,0.1778 0,0.254 -0.338667,0.254 h -1.388534 v 2.01507 q 0,0.11853 0.0085,0.2032 0.01693,0.0762 0.06773,0.2032 0.05927,0.11854 0.2032,0.18627 0.143933,0.0593 0.372533,0.0593 0.135467,0 0.270934,-0.0339 0.135466,-0.0423 0.270933,-0.18627 0.143933,-0.1524 0.143933,-0.38947 0,-0.0931 0.0085,-0.1524 0.01693,-0.0593 0.08467,-0.11006 0.06773,-0.0593 0.194733,-0.0593 0.135467,0 0.2032,0.0593 0.0762,0.0593 0.08467,0.11853 0.0085,0.0508 0.0085,0.1524 0,0.52494 -0.397934,0.82127 -0.397933,0.29633 -0.9144,0.29633 -0.516467,0 -0.855134,-0.27093 -0.338667,-0.2794 -0.338667,-0.84667 v -2.06587 h -0.745067 q -0.338667,0 -0.338667,-0.254 z m 4.707465,2.62467 q 0,-0.13547 0.186267,-0.26247 l 2.540001,-1.56633 q -0.0254,-0.0169 -0.194734,-0.11853 l -2.345267,-1.43934 q -0.186267,-0.127 -0.186267,-0.26246 0,-0.0931 0.0762,-0.16934 0.0762,-0.0847 0.186267,-0.0847 0.0762,0 0.194733,0.0677 l 2.819401,1.7272 q 0.211667,0.11853 0.211667,0.2794 0,0.13547 -0.211667,0.2794 l -2.819401,1.73567 q -0.118533,0.0677 -0.194733,0.0677 -0.1016,0 -0.186267,-0.0677 -0.0762,-0.0762 -0.0762,-0.18627 z"
         id="path18" />
      <path
         style="stroke-width:0.6"
         d="m 37.266221,141.20079 q 0,-0.0508 0.01693,-0.0847 0.01693,-0.0423 0.04233,-0.0762 0.03387,-0.0339 0.0508,-0.0508 0.0254,-0.0169 0.05927,-0.0423 l 0.04233,-0.0169 2.819401,-1.73567 q 0.118533,-0.0677 0.194733,-0.0677 0.09313,0 0.1778,0.0762 0.08467,0.0677 0.08467,0.1778 0,0.13547 -0.186267,0.26247 l -2.540001,1.56634 q 0.0254,0.008 0.194734,0.11853 l 2.345267,1.43933 q 0.186267,0.127 0.186267,0.26247 0,0.11007 -0.08467,0.18627 -0.08467,0.0677 -0.1778,0.0677 -0.0762,0 -0.194733,-0.0677 l -2.819401,-1.73567 q -0.211667,-0.11853 -0.211667,-0.2794 z m 4.207932,2.32833 q 0,-0.254 0.338667,-0.254 h 0.211667 v -4.1402 H 41.81282 q -0.1016,0 -0.160867,-0.008 -0.0508,-0.008 -0.118533,-0.0677 -0.05927,-0.0677 -0.05927,-0.18627 0,-0.254 0.338667,-0.254 h 0.575733 q 0.194734,0 0.287867,0.0593 0.1016,0.0508 0.169334,0.24553 l 1.557867,4.23334 h 0.0085 v -4.02167 h -0.211667 q -0.338667,0 -0.338667,-0.254 0,-0.11853 0.05927,-0.1778 0.06773,-0.0677 0.118533,-0.0762 0.05927,-0.008 0.160867,-0.008 h 0.897467 q 0.1016,0 0.1524,0.008 0.05927,0.008 0.118533,0.0762 0.06773,0.0593 0.06773,0.1778 0,0.254 -0.338667,0.254 H 44.88625 v 4.30954 q 0,0.2286 -0.0762,0.28786 -0.06773,0.0593 -0.2794,0.0593 -0.135467,0 -0.2032,-0.008 -0.05927,-0.0169 -0.135467,-0.0847 -0.0762,-0.0677 -0.127,-0.21167 l -1.557867,-4.23334 h -0.0085 v 4.02167 h 0.211667 q 0.1016,0 0.1524,0.008 0.05927,0.008 0.118533,0.0762 0.06773,0.0593 0.06773,0.1778 0,0.254 -0.338667,0.254 H 41.81282 q -0.1016,0 -0.160867,-0.008 -0.0508,-0.008 -0.118533,-0.0677 -0.05927,-0.0677 -0.05927,-0.18627 z m 4.436532,0.008 q 0,-0.11853 0.05927,-0.1778 0.06773,-0.0677 0.118533,-0.0762 0.05927,-0.008 0.160867,-0.008 h 0.186267 l 1.126067,-2.2352 -1.016001,-1.905 h -0.194733 q -0.347134,0 -0.347134,-0.26247 0,-0.254 0.347134,-0.254 h 0.880534 q 0.338666,0 0.338666,0.254 0,0.11854 -0.06773,0.18627 -0.05927,0.0593 -0.118533,0.0677 -0.05927,0.008 -0.1778,0.008 l 0.651933,1.23613 0.601134,-1.23613 q -0.127,0 -0.194734,-0.008 -0.06773,-0.008 -0.135466,-0.0677 -0.05927,-0.0677 -0.05927,-0.18627 0,-0.254 0.338667,-0.254 h 0.880533 q 0.347134,0 0.347134,0.26247 0,0.254 -0.347134,0.254 H 49.10262 l -0.956734,1.89654 1.1938,2.24366 h 0.194734 q 0.347133,0 0.347133,0.26247 0,0.254 -0.347133,0.254 h -0.880534 q -0.338667,0 -0.338667,-0.254 0,-0.11853 0.05927,-0.1778 0.06773,-0.0677 0.127,-0.0762 0.06773,-0.008 0.194734,-0.008 l -0.838201,-1.64253 -0.778933,1.64253 q 0.127,0 0.194733,0.008 0.06773,0.008 0.135467,0.0762 0.06773,0.0593 0.06773,0.1778 0,0.254 -0.347133,0.254 h -0.880534 q -0.338667,0 -0.338667,-0.254 z m 4.690533,-0.508 q 0,-0.13547 0.186267,-0.26247 l 2.540001,-1.56633 q -0.0254,-0.0169 -0.194733,-0.11853 l -2.345268,-1.43934 q -0.186267,-0.127 -0.186267,-0.26247 0,-0.0931 0.0762,-0.16933 0.0762,-0.0847 0.186267,-0.0847 0.0762,0 0.194733,0.0677 l 2.819402,1.7272 q 0.211666,0.11853 0.211666,0.2794 0,0.13547 -0.211666,0.2794 l -2.819402,1.73567 q -0.118533,0.0677 -0.194733,0.0677 -0.1016,0 -0.186267,-0.0677 -0.0762,-0.0762 -0.0762,-0.18627 z m 4.419598,-1.76953 q 0,-1.22767 0.677334,-1.98121 0.6858,-0.75353 1.591734,-0.75353 0.567266,0 0.846667,0.26247 0.2794,0.254 0.2794,0.6096 0,0.18626 -0.110067,0.29633 -0.110067,0.1016 -0.270933,0.1016 -0.160867,0 -0.270934,-0.11007 -0.1016,-0.11006 -0.1016,-0.26246 0,-0.16087 0.08467,-0.24554 -0.135467,-0.13546 -0.465667,-0.13546 -0.592667,0 -1.083734,0.51646 -0.491067,0.51647 -0.575733,1.37161 0.541866,-0.49107 1.261533,-0.49107 0.702734,0 1.185334,0.49953 0.491067,0.49954 0.491067,1.2192 0,0.74507 -0.524933,1.23614 -0.516467,0.49106 -1.227668,0.49106 -0.338666,0 -0.643467,-0.13546 -0.296333,-0.13547 -0.567266,-0.41487 -0.262467,-0.28787 -0.423334,-0.82127 -0.1524,-0.5334 -0.1524,-1.25306 z m 0.668867,0.65193 q 0,0.0847 0.0254,0.26247 l -0.0085,0.0762 0.0085,0.0339 q 0.0085,0.0254 0.01693,0.0762 0.01693,0.0508 0.0254,0.0762 0.3048,0.93134 1.049867,0.93134 0.474134,0 0.821267,-0.33867 0.347134,-0.33867 0.347134,-0.87207 0,-0.49106 -0.321734,-0.8382 -0.313266,-0.3556 -0.8128,-0.3556 -0.4826,0 -0.821267,0.2794 -0.3302,0.27094 -0.3302,0.66887 z m 3.572931,0.11007 q 0,-0.18627 0.0762,-0.29634 l 1.930401,-3.03107 q 0.0762,-0.127 0.135466,-0.1524 0.05927,-0.0254 0.220134,-0.0254 h 0.237066 q 0.211667,0 0.279401,0.0677 0.06773,0.0677 0.06773,0.2794 v 2.98027 h 0.6604 q 0.1016,0 0.1524,0.008 0.05927,0.008 0.118534,0.0762 0.06773,0.0593 0.06773,0.1778 0,0.254 -0.338667,0.254 h -0.6604 v 0.9144 h 0.524933 q 0.1016,0 0.152401,0.008 0.05927,0.008 0.118533,0.0762 0.06773,0.0593 0.06773,0.1778 0,0.254 -0.338667,0.254 h -1.524 q -0.338667,0 -0.338667,-0.254 0,-0.11853 0.05927,-0.1778 0.06773,-0.0677 0.118533,-0.0762 0.05927,-0.008 0.160867,-0.008 h 0.524933 v -0.9144 h -2.1336 q -0.203201,0 -0.270934,-0.0677 -0.06773,-0.0677 -0.06773,-0.27093 z m 0.592667,-0.1778 h 1.8796 v -2.95487 z m 4.080933,-0.64347 q 0,-0.0508 0.01693,-0.0847 0.01693,-0.0423 0.04233,-0.0762 0.03387,-0.0339 0.0508,-0.0508 0.0254,-0.0169 0.05927,-0.0423 l 0.04233,-0.0169 2.819401,-1.73567 q 0.118534,-0.0677 0.194734,-0.0677 0.09313,0 0.1778,0.0762 0.08467,0.0677 0.08467,0.1778 0,0.13547 -0.186267,0.26247 l -2.540001,1.56634 q 0.0254,0.008 0.194733,0.11853 l 2.345268,1.43933 q 0.186267,0.127 0.186267,0.26247 0,0.11007 -0.08467,0.18627 -0.08467,0.0677 -0.1778,0.0677 -0.0762,0 -0.194734,-0.0677 l -2.819401,-1.73567 q -0.211666,-0.11853 -0.211666,-0.2794 z m 4.461933,3.03953 q 0,-0.0762 0.0762,-0.2286 l 2.853267,-5.88433 q 0.118534,-0.21167 0.262467,-0.21167 0.1016,0 0.1778,0.0762 0.0762,0.0677 0.0762,0.1778 0,0.0677 -0.05927,0.2032 l -2.853268,5.90127 q -0.118534,0.22013 -0.270934,0.22013 -0.1016,0 -0.186266,-0.0762 -0.0762,-0.0677 -0.0762,-0.1778 z m 4.190999,-0.7112 q 0,-0.254 0.338667,-0.254 h 0.211667 v -4.1402 h -0.211667 q -0.1016,0 -0.160867,-0.008 -0.0508,-0.008 -0.118533,-0.0677 -0.05927,-0.0677 -0.05927,-0.18627 0,-0.254 0.338667,-0.254 h 0.575734 q 0.194733,0 0.287866,0.0593 0.1016,0.0508 0.169334,0.24553 l 1.557867,4.23334 h 0.0085 v -4.02167 h -0.211667 q -0.338667,0 -0.338667,-0.254 0,-0.11853 0.05927,-0.1778 0.06773,-0.0677 0.118533,-0.0762 0.05927,-0.008 0.160867,-0.008 h 0.897467 q 0.1016,0 0.1524,0.008 0.05927,0.008 0.118533,0.0762 0.06773,0.0593 0.06773,0.1778 0,0.254 -0.338667,0.254 h -0.211667 v 4.30954 q 0,0.2286 -0.0762,0.28786 -0.06773,0.0593 -0.2794,0.0593 -0.135467,0 -0.2032,-0.008 -0.05927,-0.0169 -0.135467,-0.0847 -0.0762,-0.0677 -0.127,-0.21167 l -1.557867,-4.23334 h -0.0085 v 4.02167 h 0.211667 q 0.1016,0 0.1524,0.008 0.05927,0.008 0.118533,0.0762 0.06773,0.0593 0.06773,0.1778 0,0.254 -0.338667,0.254 h -0.897467 q -0.1016,0 -0.160867,-0.008 -0.0508,-0.008 -0.118533,-0.0677 -0.05927,-0.0677 -0.05927,-0.18627 z m 4.436529,0.008 q 0,-0.11853 0.05927,-0.1778 0.06773,-0.0677 0.118533,-0.0762 0.05927,-0.008 0.160867,-0.008 h 0.186267 l 1.126067,-2.2352 -1.016,-1.905 h -0.194734 q -0.347133,0 -0.347133,-0.26247 0,-0.254 0.347133,-0.254 h 0.880534 q 0.338667,0 0.338667,0.254 0,0.11854 -0.06773,0.18627 -0.05927,0.0593 -0.118533,0.0677 -0.05927,0.008 -0.1778,0.008 l 0.651933,1.23613 0.601134,-1.23613 q -0.127,0 -0.194733,-0.008 -0.06773,-0.008 -0.135467,-0.0677 -0.05927,-0.0677 -0.05927,-0.18627 0,-0.254 0.338667,-0.254 h 0.880534 q 0.347133,0 0.347133,0.26247 0,0.254 -0.347133,0.254 H 80.21761 l -0.956734,1.89654 1.193801,2.24366 h 0.194733 q 0.347134,0 0.347134,0.26247 0,0.254 -0.347134,0.254 h -0.880534 q -0.338666,0 -0.338666,-0.254 0,-0.11853 0.05927,-0.1778 0.06773,-0.0677 0.127,-0.0762 0.06773,-0.008 0.194734,-0.008 l -0.838201,-1.64253 -0.778933,1.64253 q 0.127,0 0.194733,0.008 0.06773,0.008 0.135467,0.0762 0.06773,0.0593 0.06773,0.1778 0,0.254 -0.347133,0.254 h -0.880534 q -0.338667,0 -0.338667,-0.254 z m 4.690533,-0.508 q 0,-0.13547 0.186267,-0.26247 l 2.540001,-1.56633 q -0.0254,-0.0169 -0.194733,-0.11853 l -2.345268,-1.43934 q -0.186267,-0.127 -0.186267,-0.26247 0,-0.0931 0.0762,-0.16933 0.0762,-0.0847 0.186266,-0.0847 0.0762,0 0.194734,0.0677 l 2.819401,1.7272 q 0.211667,0.11853 0.211667,0.2794 0,0.13547 -0.211667,0.2794 l -2.819401,1.73567 q -0.118534,0.0677 -0.194734,0.0677 -0.1016,0 -0.186266,-0.0677 -0.0762,-0.0762 -0.0762,-0.18627 z"
         id="path19" />
      <path
         style="stroke-width:0.6"
         d="m 37.266221,151.78413 q 0,-0.0508 0.01693,-0.0847 0.01693,-0.0423 0.04233,-0.0762 0.03387,-0.0339 0.0508,-0.0508 0.0254,-0.0169 0.05927,-0.0423 l 0.04233,-0.0169 2.819401,-1.73566 q 0.118533,-0.0677 0.194733,-0.0677 0.09313,0 0.1778,0.0762 0.08467,0.0677 0.08467,0.1778 0,0.13547 -0.186267,0.26247 l -2.540001,1.56633 q 0.0254,0.008 0.194734,0.11854 l 2.345267,1.43933 q 0.186267,0.127 0.186267,0.26247 0,0.11006 -0.08467,0.18626 -0.08467,0.0677 -0.1778,0.0677 -0.0762,0 -0.194733,-0.0677 l -2.819401,-1.73566 q -0.211667,-0.11854 -0.211667,-0.2794 z m 4.207932,2.32833 q 0,-0.254 0.338667,-0.254 h 0.211667 v -4.1402 H 41.81282 q -0.1016,0 -0.160867,-0.008 -0.0508,-0.008 -0.118533,-0.0677 -0.05927,-0.0677 -0.05927,-0.18627 0,-0.254 0.338667,-0.254 h 0.575733 q 0.194734,0 0.287867,0.0593 0.1016,0.0508 0.169334,0.24553 l 1.557867,4.23334 h 0.0085 v -4.02167 h -0.211667 q -0.338667,0 -0.338667,-0.254 0,-0.11853 0.05927,-0.1778 0.06773,-0.0677 0.118533,-0.0762 0.05927,-0.008 0.160867,-0.008 h 0.897467 q 0.1016,0 0.1524,0.008 0.05927,0.008 0.118533,0.0762 0.06773,0.0593 0.06773,0.1778 0,0.254 -0.338667,0.254 H 44.88625 v 4.30953 q 0,0.2286 -0.0762,0.28787 -0.06773,0.0593 -0.2794,0.0593 -0.135467,0 -0.2032,-0.008 -0.05927,-0.0169 -0.135467,-0.0847 -0.0762,-0.0677 -0.127,-0.21166 l -1.557867,-4.23334 h -0.0085 v 4.02167 h 0.211667 q 0.1016,0 0.1524,0.008 0.05927,0.008 0.118533,0.0762 0.06773,0.0593 0.06773,0.1778 0,0.254 -0.338667,0.254 H 41.81282 q -0.1016,0 -0.160867,-0.008 -0.0508,-0.008 -0.118533,-0.0677 -0.05927,-0.0677 -0.05927,-0.18627 z m 4.428065,-3.94547 v -0.61806 q 0,-0.21167 0.06773,-0.2794 0.06773,-0.0677 0.2794,-0.0677 h 3.310468 q 0.211667,0 0.270933,0.0762 0.06773,0.0677 0.06773,0.27094 v 0.61806 q 0,0.11007 -0.0085,0.16934 -0.0085,0.0593 -0.08467,0.11853 -0.06773,0.0593 -0.2032,0.0593 -0.194733,0 -0.245533,-0.0847 -0.04233,-0.0931 -0.04233,-0.26247 v -0.44873 h -1.1176 v 4.1402 h 0.440267 q 0.1016,0 0.1524,0.008 0.05927,0.008 0.118533,0.0762 0.06773,0.0593 0.06773,0.1778 0,0.254 -0.338667,0.254 h -1.464734 q -0.1016,0 -0.160867,-0.008 -0.0508,-0.008 -0.118533,-0.0677 -0.05927,-0.0677 -0.05927,-0.18627 0,-0.254 0.338667,-0.254 h 0.440267 v -4.1402 h -1.126067 v 0.44873 q 0,0.11007 -0.0085,0.16934 -0.0085,0.0593 -0.08467,0.11853 -0.06773,0.0593 -0.2032,0.0593 -0.194733,0 -0.245533,-0.0847 -0.04233,-0.0931 -0.04233,-0.26247 z m 4.699,3.44594 q 0,-0.13547 0.186267,-0.26247 l 2.540001,-1.56633 q -0.0254,-0.0169 -0.194733,-0.11854 l -2.345268,-1.43933 q -0.186267,-0.127 -0.186267,-0.26247 0,-0.0931 0.0762,-0.16933 0.0762,-0.0847 0.186267,-0.0847 0.0762,0 0.194733,0.0677 l 2.819402,1.7272 q 0.211666,0.11853 0.211666,0.2794 0,0.13546 -0.211666,0.2794 l -2.819402,1.73566 q -0.118533,0.0677 -0.194733,0.0677 -0.1016,0 -0.186267,-0.0677 -0.0762,-0.0762 -0.0762,-0.18626 z m 4.859865,-3.20887 q 0,-0.24553 0.313267,-0.26247 0.575733,-0.0593 0.922867,-0.82973 0.08467,-0.2032 0.254,-0.2032 0.254,0 0.254,0.34713 v 4.40267 h 0.770467 q 0.1016,0 0.1524,0.008 0.05927,0.008 0.118533,0.0762 0.06773,0.0593 0.06773,0.1778 0,0.254 -0.338667,0.254 h -2.12513 q -0.338667,0 -0.338667,-0.254 0,-0.11854 0.05927,-0.1778 0.06773,-0.0677 0.118533,-0.0762 0.05927,-0.008 0.160867,-0.008 h 0.770467 v -3.57293 q -0.431801,0.37253 -0.880534,0.37253 -0.2794,0 -0.2794,-0.254 z m 3.996264,3.7084 q 0,-0.11853 0.127,-0.2286 l 1.871134,-1.5748 q 0.973667,-0.8128 0.973667,-1.5494 0,-0.5334 -0.397933,-0.82973 -0.389467,-0.3048 -0.948267,-0.3048 -0.347134,0 -0.626534,0.1778 -0.270933,0.1778 -0.364067,0.47413 0.118534,0.0931 0.118534,0.27093 0,0.16934 -0.118534,0.2794 -0.110066,0.1016 -0.254,0.1016 -0.135466,0 -0.262466,-0.0931 -0.118534,-0.1016 -0.118534,-0.31327 0,-0.5588 0.465667,-0.98213 0.474134,-0.4318 1.202267,-0.4318 0.795867,0 1.337734,0.4572 0.550334,0.44873 0.550334,1.1938 0,0.87207 -0.922867,1.69333 -0.203201,0.18627 -0.838201,0.7112 -0.635,0.52494 -0.8382,0.69427 h 2.015067 q 0,-0.1524 0.0085,-0.21167 0.0085,-0.0677 0.0762,-0.127 0.06773,-0.0593 0.211667,-0.0593 0.194733,0 0.237067,0.0931 0.0508,0.0847 0.0508,0.254 v 0.22013 q 0,0.2032 -0.06773,0.2794 -0.06773,0.0677 -0.270933,0.0677 h -2.870201 q -0.347134,0 -0.347134,-0.26247 z m 4.377266,-1.21073 q 0,-0.4572 0.338667,-0.8128 0.338667,-0.3556 0.838201,-0.49954 -0.499534,-0.16086 -0.778934,-0.4572 -0.2794,-0.3048 -0.2794,-0.66886 0,-0.5334 0.491067,-0.9398 0.499533,-0.41487 1.236134,-0.41487 0.7366,0 1.227667,0.4064 0.499533,0.4064 0.499533,0.94827 0,0.36406 -0.2794,0.6604 -0.270933,0.29633 -0.778934,0.46566 0.499534,0.14394 0.838201,0.49954 0.338667,0.3556 0.338667,0.8128 0,0.62653 -0.533401,1.10066 -0.524933,0.46567 -1.312333,0.46567 -0.778934,0 -1.312334,-0.46567 -0.533401,-0.47413 -0.533401,-1.10066 z m 0.584201,-0.008 q 0,0.44027 0.364067,0.75353 0.372533,0.3048 0.897467,0.3048 0.524933,0 0.889,-0.3048 0.372533,-0.31326 0.372533,-0.75353 0,-0.41487 -0.3556,-0.72813 -0.347133,-0.32174 -0.905933,-0.32174 -0.550334,0 -0.905934,0.32174 -0.3556,0.32173 -0.3556,0.72813 z m 0.118533,-2.42147 q 0,0.3556 0.338667,0.6096 0.338667,0.24554 0.804334,0.24554 0.465666,0 0.804333,-0.24554 0.338667,-0.254 0.338667,-0.6096 0,-0.33866 -0.3302,-0.59266 -0.3302,-0.254 -0.8128,-0.254 -0.491067,0 -0.821267,0.254 -0.321734,0.254 -0.321734,0.59266 z m 3.843866,1.31234 q 0,-0.0508 0.01693,-0.0847 0.01693,-0.0423 0.04233,-0.0762 0.03387,-0.0339 0.0508,-0.0508 0.0254,-0.0169 0.05927,-0.0423 l 0.04233,-0.0169 2.819401,-1.73566 q 0.118533,-0.0677 0.194734,-0.0677 0.09313,0 0.1778,0.0762 0.08467,0.0677 0.08467,0.1778 0,0.13547 -0.186266,0.26247 l -2.540001,1.56633 q 0.0254,0.008 0.194733,0.11854 l 2.345268,1.43933 q 0.186266,0.127 0.186266,0.26247 0,0.11006 -0.08467,0.18626 -0.08467,0.0677 -0.1778,0.0677 -0.0762,0 -0.194734,-0.0677 l -2.819401,-1.73566 q -0.211667,-0.11854 -0.211667,-0.2794 z m 4.461933,3.03953 q 0,-0.0762 0.0762,-0.2286 l 2.853268,-5.88434 q 0.118533,-0.21166 0.262467,-0.21166 0.1016,0 0.1778,0.0762 0.0762,0.0677 0.0762,0.1778 0,0.0677 -0.05927,0.2032 l -2.853268,5.90127 q -0.118533,0.22013 -0.270933,0.22013 -0.1016,0 -0.186267,-0.0762 -0.0762,-0.0677 -0.0762,-0.1778 z m 4.190996,-0.7112 q 0,-0.254 0.338667,-0.254 h 0.211667 v -4.1402 h -0.211667 q -0.1016,0 -0.160867,-0.008 -0.0508,-0.008 -0.118533,-0.0677 -0.05927,-0.0677 -0.05927,-0.18627 0,-0.254 0.338667,-0.254 h 0.575733 q 0.194734,0 0.287867,0.0593 0.1016,0.0508 0.169334,0.24553 l 1.557867,4.23334 h 0.0085 v -4.02167 H 79.76041 q -0.338667,0 -0.338667,-0.254 0,-0.11853 0.05927,-0.1778 0.06773,-0.0677 0.118533,-0.0762 0.05927,-0.008 0.160867,-0.008 h 0.897467 q 0.1016,0 0.1524,0.008 0.05927,0.008 0.118533,0.0762 0.06773,0.0593 0.06773,0.1778 0,0.254 -0.338667,0.254 H 80.44621 v 4.30953 q 0,0.2286 -0.0762,0.28787 -0.06773,0.0593 -0.2794,0.0593 -0.135467,0 -0.2032,-0.008 -0.05927,-0.0169 -0.135467,-0.0847 -0.0762,-0.0677 -0.127,-0.21166 l -1.557867,-4.23334 h -0.0085 v 4.02167 h 0.211667 q 0.1016,0 0.1524,0.008 0.05927,0.008 0.118533,0.0762 0.06773,0.0593 0.06773,0.1778 0,0.254 -0.338667,0.254 h -0.897467 q -0.1016,0 -0.160867,-0.008 -0.0508,-0.008 -0.118533,-0.0677 -0.05927,-0.0677 -0.05927,-0.18627 z m 4.428066,-3.94547 v -0.61806 q 0,-0.21167 0.06773,-0.2794 0.06773,-0.0677 0.2794,-0.0677 h 3.310468 q 0.211667,0 0.270933,0.0762 0.06773,0.0677 0.06773,0.27094 v 0.61806 q 0,0.11007 -0.0085,0.16934 -0.0085,0.0593 -0.08467,0.11853 -0.06773,0.0593 -0.2032,0.0593 -0.194733,0 -0.245533,-0.0847 -0.04233,-0.0931 -0.04233,-0.26247 v -0.44873 h -1.1176 v 4.1402 h 0.440267 q 0.1016,0 0.1524,0.008 0.05927,0.008 0.118533,0.0762 0.06773,0.0593 0.06773,0.1778 0,0.254 -0.338667,0.254 h -1.464734 q -0.1016,0 -0.160867,-0.008 -0.0508,-0.008 -0.118533,-0.0677 -0.05927,-0.0677 -0.05927,-0.18627 0,-0.254 0.338667,-0.254 h 0.440267 v -4.1402 h -1.126067 v 0.44873 q 0,0.11007 -0.0085,0.16934 -0.0085,0.0593 -0.08467,0.11853 -0.06773,0.0593 -0.2032,0.0593 -0.194733,0 -0.245533,-0.0847 -0.04233,-0.0931 -0.04233,-0.26247 z m 4.699,3.44594 q 0,-0.13547 0.186267,-0.26247 l 2.540001,-1.56633 q -0.0254,-0.0169 -0.194733,-0.11854 l -2.345268,-1.43933 q -0.186267,-0.127 -0.186267,-0.26247 0,-0.0931 0.0762,-0.16933 0.0762,-0.0847 0.186267,-0.0847 0.0762,0 0.194733,0.0677 l 2.819401,1.7272 q 0.211667,0.11853 0.211667,0.2794 0,0.13546 -0.211667,0.2794 l -2.819401,1.73566 q -0.118533,0.0677 -0.194733,0.0677 -0.1016,0 -0.186267,-0.0677 -0.0762,-0.0762 -0.0762,-0.18626 z"
         id="path20" />
      <path
         style="stroke-width:0.6"
         d="m 37.266221,162.36746 q 0,-0.0508 0.01693,-0.0847 0.01693,-0.0423 0.04233,-0.0762 0.03387,-0.0339 0.0508,-0.0508 0.0254,-0.0169 0.05927,-0.0423 l 0.04233,-0.0169 2.819401,-1.73567 q 0.118533,-0.0677 0.194733,-0.0677 0.09313,0 0.1778,0.0762 0.08467,0.0677 0.08467,0.1778 0,0.13547 -0.186267,0.26247 l -2.540001,1.56633 q 0.0254,0.008 0.194734,0.11853 l 2.345267,1.43934 q 0.186267,0.127 0.186267,0.26246 0,0.11007 -0.08467,0.18627 -0.08467,0.0677 -0.1778,0.0677 -0.0762,0 -0.194733,-0.0677 l -2.819401,-1.73567 q -0.211667,-0.11853 -0.211667,-0.2794 z m 4.072465,-2.31986 q 0,-0.26247 0.347134,-0.26247 h 0.618067 q 0.211666,0 0.270933,0.0762 0.06773,0.0677 0.06773,0.27093 v 1.54094 q 0.4572,-0.41487 1.075267,-0.41487 0.677333,0 1.159933,0.55033 0.491067,0.54187 0.491067,1.3208 0,0.79587 -0.524933,1.33774 -0.516467,0.54186 -1.219201,0.54186 -0.5588,0 -0.982133,-0.4318 0,0.13547 -0.0085,0.2032 -0.0085,0.0593 -0.0762,0.11854 -0.06773,0.0593 -0.2032,0.0593 -0.135467,0 -0.211667,-0.0593 -0.06773,-0.0593 -0.0762,-0.11854 -0.0085,-0.0593 -0.0085,-0.16933 v -4.30953 h -0.381 q -0.338667,0 -0.338667,-0.254 z m 1.303868,3.29353 q 0,0.381 0.254,0.77047 0.254,0.381 0.702733,0.381 0.465667,0 0.821267,-0.38947 0.364067,-0.38947 0.364067,-0.97367 0,-0.5588 -0.3302,-0.95673 -0.321734,-0.39793 -0.7874,-0.39793 -0.397934,0 -0.711201,0.28786 -0.313266,0.28787 -0.313266,0.6604 z m 4.072465,1.1176 q -0.567267,-0.5588 -0.567267,-1.33773 0,-0.77894 0.5334,-1.32927 0.5334,-0.5588 1.286934,-0.5588 0.7874,0 1.210734,0.51647 0.4318,0.508 0.4318,1.27846 0,0.11007 -0.0254,0.1778 -0.0254,0.0677 -0.08467,0.1016 -0.0508,0.0254 -0.1016,0.0339 -0.04233,0 -0.127,0 h -2.523068 q 0.101601,0.52493 0.499534,0.8382 0.4064,0.31327 0.905934,0.31327 0.6604,0 0.880533,-0.508 0.04233,-0.11854 0.1016,-0.1524 0.05927,-0.0339 0.1778,-0.0339 0.296334,0 0.296334,0.23707 0,0.0931 -0.08467,0.24553 -0.08467,0.14393 -0.254,0.32173 -0.160867,0.16934 -0.474133,0.28787 -0.313267,0.11853 -0.702734,0.11853 -0.8128,0 -1.380067,-0.55033 z m 0.04233,-1.6256 h 2.252134 q -0.0508,-0.59267 -0.347133,-0.8382 -0.296334,-0.24553 -0.694267,-0.24553 -0.440267,0 -0.778934,0.31326 -0.338666,0.3048 -0.4318,0.77047 z m 3.581399,-1.26153 q 0,-0.26247 0.347134,-0.26247 h 0.7366 v -0.69427 q 0,-0.11006 0.0085,-0.16933 0.0085,-0.0593 0.0762,-0.11853 0.0762,-0.0593 0.211667,-0.0593 0.194733,0 0.237066,0.0931 0.0508,0.0847 0.0508,0.254 v 0.69427 h 1.388534 q 0.1016,0 0.1524,0.008 0.05927,0.008 0.118534,0.0762 0.06773,0.0593 0.06773,0.1778 0,0.254 -0.338667,0.254 h -1.388534 v 2.01506 q 0,0.11854 0.0085,0.2032 0.01693,0.0762 0.06773,0.2032 0.05927,0.11854 0.2032,0.18627 0.143933,0.0593 0.372533,0.0593 0.135467,0 0.270934,-0.0339 0.135466,-0.0423 0.270933,-0.18627 0.143933,-0.1524 0.143933,-0.38946 0,-0.0931 0.0085,-0.1524 0.01693,-0.0593 0.08467,-0.11007 0.06773,-0.0593 0.194733,-0.0593 0.135467,0 0.2032,0.0593 0.0762,0.0593 0.08467,0.11853 0.0085,0.0508 0.0085,0.1524 0,0.52494 -0.397934,0.82127 -0.397933,0.29633 -0.9144,0.29633 -0.516467,0 -0.855134,-0.27093 -0.338667,-0.2794 -0.338667,-0.84667 v -2.06586 h -0.745067 q -0.338667,0 -0.338667,-0.254 z m 4.698998,2.30293 q 0,-0.59267 0.685801,-0.9144 0.694267,-0.3302 1.8542,-0.34713 0,-0.4318 -0.287866,-0.64347 -0.287867,-0.22013 -0.795867,-0.22013 -0.186267,0 -0.304801,0.008 -0.127,0.008 -0.1524,0.0254 -0.0254,0.0169 -0.0254,0.0677 -0.0085,0.21166 -0.127,0.3048 -0.118533,0.0847 -0.245533,0.0847 -0.160867,0 -0.270933,-0.1016 -0.110067,-0.1016 -0.110067,-0.28786 0,-0.61807 1.227667,-0.61807 0.8382,0 1.253067,0.39793 0.423334,0.39794 0.423334,0.9144 v 1.8288 q 0.1778,0.0677 0.508,0.0677 0.338667,0 0.338667,0.254 0,0.127 -0.06773,0.18626 -0.05927,0.0593 -0.135466,0.0677 -0.06773,0.008 -0.220134,0.008 -0.719667,0 -0.9144,-0.27093 -0.491067,0.32173 -1.236134,0.32173 -0.626534,0 -1.016,-0.33866 -0.381001,-0.33867 -0.381001,-0.79587 z m 0.584201,0 q 0,0.254 0.245533,0.44027 0.245533,0.1778 0.626534,0.1778 0.448733,0 0.753533,-0.14394 0.1524,-0.0677 0.2286,-0.16086 0.0762,-0.1016 0.08467,-0.16934 0.01693,-0.0677 0.01693,-0.19473 v -0.7112 q -0.905933,0.0254 -1.430867,0.23707 -0.524933,0.21166 -0.524933,0.52493 z m 3.869264,0.32173 q 0,-0.13546 0.186267,-0.26246 l 2.540001,-1.56634 q -0.0254,-0.0169 -0.194734,-0.11853 l -2.345267,-1.43933 q -0.186267,-0.127 -0.186267,-0.26247 0,-0.0931 0.0762,-0.16933 0.0762,-0.0847 0.186267,-0.0847 0.0762,0 0.194733,0.0677 l 2.819401,1.7272 q 0.211667,0.11854 0.211667,0.2794 0,0.13547 -0.211667,0.2794 l -2.819401,1.73567 q -0.118533,0.0677 -0.194733,0.0677 -0.1016,0 -0.186267,-0.0677 -0.0762,-0.0762 -0.0762,-0.18627 z m 4.4196,-1.76953 q 0,-1.22767 0.677333,-1.9812 0.6858,-0.75353 1.591734,-0.75353 0.567267,0 0.846667,0.26246 0.2794,0.254 0.2794,0.6096 0,0.18627 -0.110067,0.29634 -0.110066,0.1016 -0.270933,0.1016 -0.160867,0 -0.270933,-0.11007 -0.1016,-0.11007 -0.1016,-0.26247 0,-0.16086 0.08467,-0.24553 -0.135466,-0.13547 -0.465667,-0.13547 -0.592666,0 -1.083733,0.51647 -0.491067,0.51647 -0.575734,1.3716 0.541867,-0.49107 1.261534,-0.49107 0.702734,0 1.185334,0.49954 0.491067,0.49953 0.491067,1.2192 0,0.74506 -0.524934,1.23613 -0.516467,0.49107 -1.227667,0.49107 -0.338667,0 -0.643467,-0.13547 -0.296333,-0.13547 -0.567267,-0.41487 -0.262467,-0.28786 -0.423333,-0.82126 -0.1524,-0.5334 -0.1524,-1.25307 z m 0.668866,0.65193 q 0,0.0847 0.0254,0.26247 l -0.0085,0.0762 0.0085,0.0339 q 0.0085,0.0254 0.01693,0.0762 0.01693,0.0508 0.0254,0.0762 0.3048,0.93133 1.049867,0.93133 0.474133,0 0.821267,-0.33867 0.347133,-0.33866 0.347133,-0.87206 0,-0.49107 -0.321733,-0.8382 -0.313267,-0.3556 -0.8128,-0.3556 -0.482601,0 -0.821267,0.2794 -0.330201,0.27093 -0.330201,0.66886 z m 5.012267,1.3462 q 0,-0.2032 0.1524,-0.36406 0.1524,-0.16087 0.381,-0.16087 0.211667,0 0.364067,0.1524 0.160867,0.1524 0.160867,0.37253 0,0.2032 -0.1524,0.37254 -0.143934,0.16086 -0.372534,0.16086 -0.211667,0 -0.372533,-0.1524 -0.160867,-0.16086 -0.160867,-0.381 z m 3.200399,0.27094 q 0,-0.11854 0.127,-0.2286 l 1.871134,-1.5748 q 0.973667,-0.8128 0.973667,-1.5494 0,-0.5334 -0.397933,-0.82974 -0.389467,-0.3048 -0.948267,-0.3048 -0.347134,0 -0.626534,0.1778 -0.270933,0.1778 -0.364067,0.47414 0.118534,0.0931 0.118534,0.27093 0,0.16933 -0.118534,0.2794 -0.110066,0.1016 -0.254,0.1016 -0.135466,0 -0.262466,-0.0931 -0.118534,-0.1016 -0.118534,-0.31327 0,-0.5588 0.465667,-0.98213 0.474134,-0.4318 1.202267,-0.4318 0.795867,0 1.337734,0.4572 0.550334,0.44873 0.550334,1.1938 0,0.87206 -0.922867,1.69333 -0.2032,0.18627 -0.838201,0.7112 -0.635,0.52493 -0.8382,0.69427 h 2.015067 q 0,-0.1524 0.0085,-0.21167 0.0085,-0.0677 0.0762,-0.127 0.06773,-0.0593 0.211667,-0.0593 0.194733,0 0.237067,0.0931 0.0508,0.0847 0.0508,0.254 v 0.22013 q 0,0.2032 -0.06773,0.2794 -0.06773,0.0677 -0.270933,0.0677 H 73.13948 q -0.347134,0 -0.347134,-0.26246 z m 4.478863,-2.32834 q 0,-0.0508 0.01693,-0.0847 0.01693,-0.0423 0.04233,-0.0762 0.03387,-0.0339 0.0508,-0.0508 0.0254,-0.0169 0.05927,-0.0423 l 0.04233,-0.0169 2.819401,-1.73567 q 0.118533,-0.0677 0.194733,-0.0677 0.09313,0 0.1778,0.0762 0.08467,0.0677 0.08467,0.1778 0,0.13547 -0.186267,0.26247 l -2.540001,1.56633 q 0.0254,0.008 0.194734,0.11853 l 2.345267,1.43934 q 0.186267,0.127 0.186267,0.26246 0,0.11007 -0.08467,0.18627 -0.08467,0.0677 -0.1778,0.0677 -0.0762,0 -0.194733,-0.0677 l -2.819401,-1.73567 q -0.211667,-0.11853 -0.211667,-0.2794 z m 4.461933,3.03954 q 0,-0.0762 0.0762,-0.2286 l 2.853268,-5.88434 q 0.118533,-0.21166 0.262466,-0.21166 0.1016,0 0.177801,0.0762 0.0762,0.0677 0.0762,0.1778 0,0.0677 -0.05927,0.2032 l -2.853268,5.90126 q -0.118533,0.22014 -0.270933,0.22014 -0.1016,0 -0.186267,-0.0762 -0.0762,-0.0677 -0.0762,-0.1778 z m 4.055533,-5.3594 q 0,-0.26247 0.347133,-0.26247 h 0.618067 q 0.211667,0 0.270934,0.0762 0.06773,0.0677 0.06773,0.27093 v 1.54094 q 0.4572,-0.41487 1.075267,-0.41487 0.677334,0 1.159934,0.55033 0.491067,0.54187 0.491067,1.3208 0,0.79587 -0.524934,1.33774 -0.516467,0.54186 -1.2192,0.54186 -0.558801,0 -0.982134,-0.4318 0,0.13547 -0.0085,0.2032 -0.0085,0.0593 -0.0762,0.11854 -0.06773,0.0593 -0.2032,0.0593 -0.135467,0 -0.211667,-0.0593 -0.06773,-0.0593 -0.0762,-0.11854 -0.0085,-0.0593 -0.0085,-0.16933 v -4.30953 h -0.381 q -0.338667,0 -0.338667,-0.254 z m 1.303867,3.29353 q 0,0.381 0.254,0.77047 0.254,0.381 0.702734,0.381 0.465666,0 0.821267,-0.38947 0.364066,-0.38947 0.364066,-0.97367 0,-0.5588 -0.3302,-0.95673 -0.321733,-0.39793 -0.7874,-0.39793 -0.397934,0 -0.7112,0.28786 -0.313267,0.28787 -0.313267,0.6604 z m 4.072462,1.1176 q -0.567267,-0.5588 -0.567267,-1.33773 0,-0.77894 0.533401,-1.32927 0.5334,-0.5588 1.286933,-0.5588 0.787401,0 1.210734,0.51647 0.4318,0.508 0.4318,1.27846 0,0.11007 -0.0254,0.1778 -0.0254,0.0677 -0.08467,0.1016 -0.0508,0.0254 -0.1016,0.0339 -0.04233,0 -0.127,0 h -2.523068 q 0.1016,0.52493 0.499533,0.8382 0.406401,0.31327 0.905934,0.31327 0.6604,0 0.880534,-0.508 0.04233,-0.11854 0.1016,-0.1524 0.05927,-0.0339 0.1778,-0.0339 0.296333,0 0.296333,0.23707 0,0.0931 -0.08467,0.24553 -0.08467,0.14393 -0.254,0.32173 -0.160867,0.16934 -0.474134,0.28787 -0.313267,0.11853 -0.702733,0.11853 -0.812801,0 -1.380068,-0.55033 z m 0.04233,-1.6256 h 2.252134 q -0.0508,-0.59267 -0.347134,-0.8382 -0.296333,-0.24553 -0.694267,-0.24553 -0.440266,0 -0.778933,0.31326 -0.338667,0.3048 -0.4318,0.77047 z m 3.581399,-1.26153 q 0,-0.26247 0.347133,-0.26247 h 0.736601 v -0.69427 q 0,-0.11006 0.0085,-0.16933 0.0085,-0.0593 0.0762,-0.11853 0.0762,-0.0593 0.211667,-0.0593 0.194734,0 0.237067,0.0931 0.0508,0.0847 0.0508,0.254 v 0.69427 h 1.388534 q 0.1016,0 0.1524,0.008 0.05927,0.008 0.118533,0.0762 0.06773,0.0593 0.06773,0.1778 0,0.254 -0.338667,0.254 h -1.388534 v 2.01506 q 0,0.11854 0.0085,0.2032 0.01693,0.0762 0.06773,0.2032 0.05927,0.11854 0.2032,0.18627 0.143933,0.0593 0.372534,0.0593 0.135466,0 0.270933,-0.0339 0.135467,-0.0423 0.270933,-0.18627 0.143934,-0.1524 0.143934,-0.38946 0,-0.0931 0.0085,-0.1524 0.01693,-0.0593 0.08467,-0.11007 0.06773,-0.0593 0.194734,-0.0593 0.135466,0 0.2032,0.0593 0.0762,0.0593 0.08467,0.11853 0.0085,0.0508 0.0085,0.1524 0,0.52494 -0.397933,0.82127 -0.397934,0.29633 -0.914401,0.29633 -0.516467,0 -0.855133,-0.27093 -0.338667,-0.2794 -0.338667,-0.84667 v -2.06586 h -0.745067 q -0.338667,0 -0.338667,-0.254 z m 4.699,2.30293 q 0,-0.59267 0.6858,-0.9144 0.69426,-0.3302 1.8542,-0.34713 0,-0.4318 -0.28787,-0.64347 -0.28787,-0.22013 -0.79587,-0.22013 -0.18626,0 -0.3048,0.008 -0.127,0.008 -0.1524,0.0254 -0.0254,0.0169 -0.0254,0.0677 -0.008,0.21166 -0.127,0.3048 -0.11853,0.0847 -0.24553,0.0847 -0.160863,0 -0.27093,-0.1016 -0.110067,-0.1016 -0.110067,-0.28786 0,-0.61807 1.227667,-0.61807 0.8382,0 1.25306,0.39793 0.42334,0.39794 0.42334,0.9144 v 1.8288 q 0.1778,0.0677 0.508,0.0677 0.33867,0 0.33867,0.254 0,0.127 -0.0677,0.18626 -0.0593,0.0593 -0.13547,0.0677 -0.0677,0.008 -0.22013,0.008 -0.71967,0 -0.9144,-0.27093 -0.49107,0.32173 -1.23613,0.32173 -0.62654,0 -1.016,-0.33866 -0.381,-0.33867 -0.381,-0.79587 z m 0.5842,0 q 0,0.254 0.24553,0.44027 0.24553,0.1778 0.62653,0.1778 0.44874,0 0.75354,-0.14394 0.1524,-0.0677 0.2286,-0.16086 0.0762,-0.1016 0.0847,-0.16934 0.0169,-0.0677 0.0169,-0.19473 v -0.7112 q -0.90594,0.0254 -1.43087,0.23707 -0.52493,0.21166 -0.52493,0.52493 z m 3.86926,0.32173 q 0,-0.13546 0.18627,-0.26246 l 2.54,-1.56634 q -0.0254,-0.0169 -0.19473,-0.11853 l -2.34527,-1.43933 q -0.18627,-0.127 -0.18627,-0.26247 0,-0.0931 0.0762,-0.16933 0.0762,-0.0847 0.18627,-0.0847 0.0762,0 0.19473,0.0677 l 2.8194,1.7272 q 0.21167,0.11854 0.21167,0.2794 0,0.13547 -0.21167,0.2794 l -2.8194,1.73567 q -0.11853,0.0677 -0.19473,0.0677 -0.1016,0 -0.18627,-0.0677 -0.0762,-0.0762 -0.0762,-0.18627 z"
         id="path21" />
      <path
         style="stroke-width:0.6"
         d="m 29.586957,175.0082 q 0,-0.2032 0.1524,-0.36406 0.152401,-0.16087 0.381001,-0.16087 0.211666,0 0.364066,0.1524 0.160867,0.1524 0.160867,0.37253 0,0.2032 -0.1524,0.37254 -0.143933,0.16086 -0.372533,0.16086 -0.211667,0 -0.372534,-0.1524 -0.160867,-0.16086 -0.160867,-0.381 z m 4.444999,0 q 0,-0.2032 0.1524,-0.36406 0.1524,-0.16087 0.381,-0.16087 0.211667,0 0.364067,0.1524 0.160867,0.1524 0.160867,0.37253 0,0.2032 -0.1524,0.37254 -0.143934,0.16086 -0.372534,0.16086 -0.211666,0 -0.372533,-0.1524 -0.160867,-0.16086 -0.160867,-0.381 z m 4.444999,0 q 0,-0.2032 0.1524,-0.36406 0.1524,-0.16087 0.381,-0.16087 0.211667,0 0.364067,0.1524 0.160867,0.1524 0.160867,0.37253 0,0.2032 -0.1524,0.37254 -0.143934,0.16086 -0.372534,0.16086 -0.211667,0 -0.372533,-0.1524 -0.160867,-0.16086 -0.160867,-0.381 z"
         id="path22" />
    </g>
  </g>
</svg>
