<?xml version="1.0" encoding="UTF-8" standalone="no"?>
<!-- Created with Inkscape (http://www.inkscape.org/) -->

<svg
   width="162.71036mm"
   height="97.188622mm"
   viewBox="0 0 162.71036 97.188622"
   version="1.1"
   id="svg1"
   inkscape:version="1.3 (0e150ed, 2023-07-21)"
   sodipodi:docname="separate-metadata.svg"
   xmlns:inkscape="http://www.inkscape.org/namespaces/inkscape"
   xmlns:sodipodi="http://sodipodi.sourceforge.net/DTD/sodipodi-0.dtd"
   xmlns="http://www.w3.org/2000/svg"
   xmlns:svg="http://www.w3.org/2000/svg">
  <sodipodi:namedview
     id="namedview1"
     pagecolor="#ffffff"
     bordercolor="#000000"
     borderopacity="0.25"
     inkscape:showpageshadow="2"
     inkscape:pageopacity="0.0"
     inkscape:pagecheckerboard="0"
     inkscape:deskcolor="#d1d1d1"
     inkscape:document-units="mm"
     showguides="true"
     inkscape:zoom="0.62621777"
     inkscape:cx="154.89819"
     inkscape:cy="303.40883"
     inkscape:window-width="1920"
     inkscape:window-height="1027"
     inkscape:window-x="0"
     inkscape:window-y="25"
     inkscape:window-maximized="1"
     inkscape:current-layer="layer1" />
  <defs
     id="defs1" />
  <g
     inkscape:label="Layer 1"
     inkscape:groupmode="layer"
     id="layer1"
     transform="translate(-43.19977,-83.183957)">
    <g
       id="g7">
      <g
         id="g3"
         transform="rotate(0.298081,1374.8881,-13558.916)"
         style="fill:#ffffff;paint-order:fill markers stroke">
        <path
           style="fill:#ffffff;stroke:#1a1a1a;stroke-width:3.09095;stroke-linecap:round;stroke-linejoin:miter;stroke-dasharray:none;paint-order:fill markers stroke"
           d="m 130.58952,91.390899 -14.35003,14.351631 v 79.43629 h 71.95618 V 91.390899 Z"
           id="path1"
           sodipodi:nodetypes="cccccc" />
        <path
           id="path3"
           style="fill:#ffffff;stroke:#1a1a1a;stroke-width:3.09095;stroke-linecap:round;stroke-linejoin:bevel;paint-order:fill markers stroke"
           d="M 130.49161,91.494096 V 105.84515 H 116.14056 Z"
           sodipodi:nodetypes="cccc" />
      </g>
      <g
         id="text22"
         style="font-style:italic;font-weight:500;font-size:12.8206px;font-family:'CMU Serif';-inkscape-font-specification:'CMU Serif Medium Italic';letter-spacing:0px;stroke-width:0.908549;stroke-linecap:round;stroke-linejoin:bevel;stroke-miterlimit:3.9"
         aria-label="β&#10;m&#10;m5&#10;tlen"
         transform="rotate(0.298081,544.12057,15102.309)">
        <path
           style="stroke-width:0.908546"
           d="m 9.4108268,127.96165 q 0,-0.16667 0.7179532,-2.84617 l 0.974366,-3.61541 q 0.576927,-2.1154 0.935904,-3.0513 0.371797,-0.93591 1.012827,-1.6154 0.782057,-0.82052 1.666678,-0.82052 0.679492,0 1.153854,0.42308 0.474362,0.41026 0.474362,1.1154 0,0.67949 -0.461541,1.32052 -0.461542,0.62821 -1.358984,1.01282 0.961545,0.50001 0.961545,1.79489 0,1.29488 -0.948724,2.41027 -0.948725,1.10257 -2.166682,1.10257 -0.717953,0 -1.410266,-0.30769 -0.794877,3.03848 -0.846159,3.12822 -0.1410268,0.23078 -0.4102594,0.23078 -0.2948738,0 -0.2948738,-0.28206 z m 1.7820632,-3.9231 q 0,0.29487 0.371798,0.60257 0.371797,0.30769 0.8718,0.30769 0.525645,0 0.961545,-0.41026 0.435901,-0.41026 0.679492,-1.01283 0.243591,-0.61538 0.371797,-1.20513 0.141027,-0.58975 0.141027,-1.03847 0,-0.69231 -0.269233,-0.96154 -0.256412,-0.26924 -0.602568,-0.26924 -0.166668,0 -0.602568,0.0898 -0.4359,0.0769 -0.576927,0.0769 -0.282053,0 -0.282053,-0.24359 0,-0.15385 0.128206,-0.29487 0.128206,-0.14103 0.320515,-0.14103 0.07692,0 0.525644,0.0897 0.448721,0.0769 0.602569,0.0769 0.615388,0 1.153854,-0.70514 0.551285,-0.70513 0.551285,-1.52565 0,-0.48718 -0.243591,-0.8077 -0.230771,-0.33333 -0.692312,-0.33333 -0.84616,0 -1.551293,1.02565 -0.294874,0.42308 -0.512824,1.03847 -0.21795,0.60256 -0.346156,1.19231 -0.128206,0.57693 -0.410259,1.84617 -0.269233,1.26924 -0.551286,2.38463 -0.03846,0.19231 -0.03846,0.21795 z"
           id="path37" />
        <path
           style="stroke-width:0.908546"
           d="m 10.641604,137.38479 q 0,-0.0256 0.05128,-0.21795 0.05128,-0.20513 0.153847,-0.52564 0.102565,-0.32052 0.20513,-0.55129 0.358976,-0.67949 0.923083,-0.67949 0.42308,0 0.717953,0.28205 0.294874,0.26924 0.358977,0.73078 0.743595,-1.01283 1.833346,-1.01283 0.512824,0 0.897442,0.26923 0.384618,0.25642 0.448721,0.85898 0.769236,-1.12821 1.92309,-1.12821 0.551286,0 0.948724,0.3077 0.397439,0.29487 0.397439,1.02564 0,0.78206 -0.782057,2.859 -0.230771,0.69231 -0.230771,0.96154 0,0.3718 0.282054,0.3718 0.717953,0 1.192315,-1.60258 0.03846,-0.15384 0.0641,-0.17948 0.03846,-0.0385 0.153847,-0.0385 0.192309,0 0.192309,0.12821 0,0.0385 -0.05128,0.23077 -0.05128,0.19231 -0.179488,0.5 -0.128206,0.29488 -0.307695,0.57693 -0.179488,0.26923 -0.474362,0.47436 -0.282053,0.19231 -0.615389,0.19231 -0.448721,0 -0.717953,-0.29487 -0.256412,-0.29488 -0.256412,-0.73078 0,-0.28205 0.205129,-0.82051 0.743595,-2.12822 0.743595,-2.83336 0,-0.84616 -0.589747,-0.84616 -1.000007,0 -1.807705,1.38463 -0.141027,0.24359 -0.320515,0.92308 -0.03846,0.14103 -0.102565,0.42308 -0.0641,0.26923 -0.102565,0.41026 l -0.512824,2.0513 q -0.128206,0.33333 -0.461541,0.33333 -0.179489,0 -0.269233,-0.10256 -0.08974,-0.10257 -0.08974,-0.23077 0,-0.0641 0.03846,-0.17949 l 0.833339,-3.33336 q 0.115385,-0.52564 0.115385,-0.83334 0,-0.84616 -0.589747,-0.84616 -1.000007,0 -1.807705,1.38463 -0.141026,0.24359 -0.320515,0.92308 -0.02564,0.14103 -0.102565,0.42308 -0.07692,0.26923 -0.102564,0.41026 l -0.512824,2.0513 q -0.128206,0.33333 -0.461542,0.33333 -0.179488,0 -0.269233,-0.10256 -0.08974,-0.10257 -0.08974,-0.23077 0,-0.0641 0.03846,-0.17949 l 0.961545,-3.84618 q 0.08974,-0.35898 0.08974,-0.65385 0,-0.51283 -0.333335,-0.51283 -0.282054,0 -0.487183,0.38462 -0.192309,0.38462 -0.384618,1.14104 -0.05128,0.20512 -0.08974,0.25641 -0.02564,0.0385 -0.153848,0.0385 -0.192309,0 -0.192309,-0.12821 z"
           id="path38" />
        <path
           style="stroke-width:0.908546"
           d="m 10.641604,153.41054 q 0,-0.0256 0.05128,-0.21795 0.05128,-0.20513 0.153847,-0.52564 0.102565,-0.32052 0.20513,-0.55129 0.358976,-0.67949 0.923083,-0.67949 0.42308,0 0.717953,0.28205 0.294874,0.26924 0.358977,0.73078 0.743595,-1.01283 1.833346,-1.01283 0.512824,0 0.897442,0.26923 0.384618,0.25641 0.448721,0.85898 0.769236,-1.12821 1.92309,-1.12821 0.551286,0 0.948724,0.30769 0.397439,0.29488 0.397439,1.02565 0,0.78206 -0.782057,2.859 -0.230771,0.69231 -0.230771,0.96154 0,0.3718 0.282054,0.3718 0.717953,0 1.192315,-1.60258 0.03846,-0.15384 0.0641,-0.17948 0.03846,-0.0385 0.153847,-0.0385 0.192309,0 0.192309,0.12821 0,0.0385 -0.05128,0.23077 -0.05128,0.19231 -0.179488,0.5 -0.128206,0.29488 -0.307695,0.57693 -0.179488,0.26923 -0.474362,0.47436 -0.282053,0.19231 -0.615389,0.19231 -0.448721,0 -0.717953,-0.29487 -0.256412,-0.29488 -0.256412,-0.73078 0,-0.28205 0.205129,-0.82051 0.743595,-2.12822 0.743595,-2.83336 0,-0.84616 -0.589747,-0.84616 -1.000007,0 -1.807705,1.38463 -0.141027,0.24359 -0.320515,0.92308 -0.03846,0.14103 -0.102565,0.42308 -0.0641,0.26923 -0.102565,0.41026 l -0.512824,2.0513 q -0.128206,0.33333 -0.461541,0.33333 -0.179489,0 -0.269233,-0.10256 -0.08974,-0.10257 -0.08974,-0.23077 0,-0.0641 0.03846,-0.17949 l 0.833339,-3.33336 q 0.115385,-0.52564 0.115385,-0.83334 0,-0.84616 -0.589747,-0.84616 -1.000007,0 -1.807705,1.38463 -0.141026,0.24359 -0.320515,0.92308 -0.02564,0.14103 -0.102565,0.42308 -0.07692,0.26923 -0.102564,0.41026 l -0.512824,2.0513 q -0.128206,0.33333 -0.461542,0.33333 -0.179488,0 -0.269233,-0.10256 -0.08974,-0.10257 -0.08974,-0.23077 0,-0.0641 0.03846,-0.17949 l 0.961545,-3.84618 q 0.08974,-0.35898 0.08974,-0.65385 0,-0.51283 -0.333335,-0.51283 -0.282054,0 -0.487183,0.38462 -0.192309,0.38462 -0.384618,1.14103 -0.05128,0.20513 -0.08974,0.25642 -0.02564,0.0385 -0.153848,0.0385 -0.192309,0 -0.192309,-0.12821 z"
           id="path39" />
        <path
           style="font-style:normal;font-size:8.3334px;-inkscape-font-specification:'CMU Serif Medium';baseline-shift:sub;stroke-width:0.908546"
           d="m 20.468587,158.32532 q 0,-0.25 0.133334,-0.34167 0.133335,-0.1 0.275003,-0.1 0.191668,0 0.300002,0.125 0.116668,0.11667 0.116668,0.28333 0,0.16667 -0.116668,0.29167 -0.108334,0.11667 -0.300002,0.11667 -0.09167,0 -0.141668,-0.0167 0.108334,0.38334 0.44167,0.65834 0.341669,0.275 0.78334,0.275 0.558337,0 0.891673,-0.54167 0.200002,-0.35 0.200002,-1.14167 0,-0.70001 -0.150001,-1.05001 -0.233335,-0.53334 -0.708339,-0.53334 -0.675006,0 -1.075009,0.58334 -0.05,0.075 -0.108334,0.075 -0.08333,0 -0.100001,-0.0417 -0.01667,-0.05 -0.01667,-0.175 v -2.46668 q 0,-0.20001 0.08333,-0.20001 0.03333,0 0.100001,0.025 0.525004,0.23334 1.108342,0.23334 0.600005,0 1.133343,-0.24167 0.04167,-0.025 0.06667,-0.025 0.08333,0 0.08333,0.0917 0,0.0333 -0.06667,0.13333 -0.06667,0.0917 -0.208335,0.21667 -0.141668,0.125 -0.325003,0.24167 -0.183335,0.11667 -0.450003,0.2 -0.266669,0.075 -0.558338,0.075 -0.350003,0 -0.708339,-0.10833 v 1.62501 q 0.433337,-0.425 1.058342,-0.425 0.666672,0 1.125009,0.54167 0.458337,0.53334 0.458337,1.28334 0,0.78334 -0.541671,1.32501 -0.541671,0.53334 -1.275011,0.53334 -0.666672,0 -1.091675,-0.475 -0.41667,-0.47501 -0.41667,-1.05001 z"
           id="path40" />
        <path
           style="stroke-width:0.908546"
           d="m 10.744169,167.84654 q 0,-0.16667 0.07692,-0.20513 0.08974,-0.0385 0.282053,-0.0385 h 1.089751 l 0.500003,-2.03848 q 0.128206,-0.46154 0.500004,-0.46154 0.346156,0 0.346156,0.33333 0,0.0898 -0.05128,0.26924 l -0.474362,1.89745 h 1.025648 q 0.128206,0 0.179489,0.0128 0.05128,0 0.08974,0.0385 0.05128,0.0256 0.05128,0.10256 0,0.16667 -0.08974,0.20513 -0.07692,0.0385 -0.269233,0.0385 h -1.08975 l -0.948725,3.80772 q -0.08974,0.35898 -0.08974,0.65385 0,0.52565 0.346156,0.52565 0.487183,0 0.85898,-0.48718 0.384618,-0.48719 0.615389,-1.08976 0.07692,-0.17948 0.102565,-0.20513 0.03846,-0.0385 0.153847,-0.0385 0.192309,0 0.192309,0.12821 0,0.0385 -0.07692,0.23077 -0.07692,0.19231 -0.243591,0.5 -0.166668,0.29488 -0.384618,0.57693 -0.21795,0.26923 -0.551286,0.47436 -0.333335,0.19231 -0.692312,0.19231 -0.487183,0 -0.794877,-0.33333 -0.294874,-0.33334 -0.294874,-0.82052 0,-0.17949 0.0641,-0.4359 l 0.923083,-3.67952 h -1.025648 q -0.128206,0 -0.179488,0 -0.05128,-0.0128 -0.102565,-0.0385 -0.03846,-0.0385 -0.03846,-0.11538 z"
           id="path41" />
        <path
           style="font-style:normal;font-size:8.3334px;-inkscape-font-specification:'CMU Serif Medium';baseline-shift:sub;stroke-width:0.908546"
           d="m 14.108921,175.69274 v -0.25833 q 0.44167,0 0.541671,-0.05 0.108334,-0.0583 0.108334,-0.325 v -4.33337 q 0,-0.30834 -0.108334,-0.38334 -0.108334,-0.0833 -0.541671,-0.0833 v -0.25834 l 1.200009,-0.0917 v 5.15004 q 0,0.26666 0.100001,0.325 0.108334,0.05 0.550005,0.05 v 0.25833 q -0.100001,0 -0.31667,-0.008 -0.208335,-0.008 -0.366669,-0.008 -0.150001,-0.008 -0.241669,-0.008 -0.100001,0 -0.925007,0.025 z m 2.266672,-1.83334 q 0,-0.78334 0.500004,-1.34168 0.508337,-0.55834 1.233343,-0.55834 0.733339,0 1.108342,0.47501 0.383337,0.475 0.383337,1.15834 0,0.125 -0.03333,0.15 -0.03333,0.025 -0.175001,0.025 h -2.325019 q 0,0.85001 0.250002,1.25001 0.350003,0.55834 0.941674,0.55834 0.08333,0 0.175002,-0.0167 0.1,-0.0167 0.300002,-0.0833 0.200002,-0.075 0.375003,-0.26667 0.175001,-0.19167 0.275002,-0.49167 0.025,-0.11667 0.108334,-0.11667 0.108335,0 0.108335,0.1 0,0.075 -0.08333,0.24167 -0.075,0.15833 -0.225002,0.35833 -0.150001,0.19167 -0.44167,0.34167 -0.291669,0.14167 -0.641672,0.14167 -0.733339,0 -1.283344,-0.55 -0.550004,-0.55834 -0.550004,-1.37501 z m 0.700005,-0.26667 h 1.975016 q 0,-0.175 -0.03333,-0.36667 -0.025,-0.2 -0.116668,-0.46667 -0.08333,-0.275 -0.291669,-0.44167 -0.200002,-0.175 -0.500004,-0.175 -0.133334,0 -0.283336,0.0583 -0.141667,0.0583 -0.316669,0.2 -0.175001,0.13334 -0.300002,0.45001 -0.116668,0.30833 -0.133335,0.74167 z m 3.033345,2.10001 v -0.25833 q 0.44167,0 0.54167,-0.05 0.108335,-0.0583 0.108335,-0.325 v -2.23336 q 0,-0.30833 -0.108335,-0.38333 -0.108334,-0.0833 -0.54167,-0.0833 v -0.25833 l 1.175009,-0.0917 v 0.87501 q 0.39167,-0.87501 1.233343,-0.87501 0.625005,0 0.875007,0.30834 0.183335,0.20833 0.216668,0.44167 0.04167,0.23333 0.04167,0.83334 v 1.59168 q 0.0083,0.175 0.141668,0.21667 0.133335,0.0333 0.508338,0.0333 v 0.25833 q -0.850007,-0.025 -0.933341,-0.025 -0.06667,0 -0.941674,0.025 v -0.25833 q 0.44167,0 0.541671,-0.05 0.108334,-0.0583 0.108334,-0.325 v -1.94169 q 0,-0.425 -0.133335,-0.675 -0.125001,-0.25 -0.483337,-0.25 -0.433337,0 -0.783339,0.36667 -0.34167,0.35833 -0.34167,0.96667 v 1.53335 q 0,0.26666 0.100001,0.325 0.108334,0.05 0.550004,0.05 v 0.25833 q -0.850006,-0.025 -0.93334,-0.025 -0.06667,0 -0.941674,0.025 z"
           id="path42" />
      </g>
      <g
         id="text3"
         style="font-style:italic;font-weight:500;font-size:12.8206px;font-family:'CMU Serif';-inkscape-font-specification:'CMU Serif Medium Italic';letter-spacing:0px;stroke-width:0.908549;stroke-linecap:round;stroke-linejoin:bevel;stroke-miterlimit:3.9"
         aria-label="Nt&#10;Nx&#10;Ny&#10;Nz"
         transform="rotate(0.298081,544.12057,15102.309)">
        <path
           style="stroke-width:0.908546"
           d="m -15.125588,124.89753 q 0,-0.24359 0.243591,-0.24359 1.025648,-0.0385 1.243598,-0.89744 l 1.692319,-6.79492 q 0.03846,-0.12821 0.03846,-0.16667 0,-0.10256 -0.782056,-0.10256 -0.141027,0 -0.20513,0 -0.05128,-0.0128 -0.102565,-0.0385 -0.03846,-0.0385 -0.03846,-0.11538 0,-0.16667 0.07692,-0.20513 0.07692,-0.0385 0.269233,-0.0385 h 1.602575 q 0.205129,0 0.243591,0.0385 0.05128,0.0256 0.115385,0.17949 l 2.3974525,6.66671 1.4102659,-5.62824 q 0.051282,-0.20513 0.051282,-0.3077 0,-0.52564 -0.769236,-0.55128 -0.2307707,0 -0.2307707,-0.15385 0,-0.24359 0.2307707,-0.24359 0.192309,0 0.6153888,0.0256 0.4230798,0.0128 0.6282094,0.0128 0.2051296,0 0.6153888,-0.0128 0.4230798,-0.0256 0.6153888,-0.0256 0.1666678,0 0.1666678,0.16666 0,0.23078 -0.192309,0.23078 -1.089751,0.0385 -1.2948806,0.8718 l -1.7948839,7.23081 q -0.051282,0.16667 -0.1025648,0.21795 -0.038462,0.0385 -0.1538472,0.0385 -0.128206,0 -0.1666678,-0.0256 -0.038462,-0.0385 -0.089744,-0.19231 l -2.7564287,-7.6539 -1.653857,6.60261 q -0.05128,0.20513 -0.05128,0.32051 0,0.10257 0.01282,0.17949 0.02564,0.0641 0.08974,0.15385 0.0641,0.0897 0.230771,0.15384 0.166668,0.0513 0.42308,0.0641 0.243591,0 0.243591,0.16667 0,0.23077 -0.230771,0.23077 -0.192309,0 -0.628209,-0.0128 -0.42308,-0.0256 -0.62821,-0.0256 -0.205129,0 -0.615388,0.0256 -0.41026,0.0128 -0.602569,0.0128 -0.166667,0 -0.166667,-0.15385 z"
           id="path29" />
        <path
           style="font-size:8.3334px;baseline-shift:sub;stroke-width:0.908546"
           d="m -5.6364446,124.18214 q 0,-0.10834 0.05,-0.13334 0.058334,-0.025 0.1833348,-0.025 h 0.708339 l 0.3250026,-1.32501 q 0.083334,-0.3 0.3250026,-0.3 0.2250018,0 0.2250018,0.21667 0,0.0583 -0.033334,0.175 l -0.3083358,1.23334 h 0.6666719 q 0.083334,0 0.1166676,0.008 0.033334,0 0.058334,0.025 0.033334,0.0167 0.033334,0.0667 0,0.10834 -0.058334,0.13334 -0.05,0.025 -0.1750014,0.025 H -4.2281 l -0.6166716,2.47502 q -0.058334,0.23333 -0.058334,0.425 0,0.34167 0.2250018,0.34167 0.3166692,0 0.5583378,-0.31667 0.250002,-0.31667 0.4000032,-0.70834 0.05,-0.11667 0.066667,-0.13333 0.025,-0.025 0.1000007,-0.025 0.125001,0 0.125001,0.0833 0,0.025 -0.05,0.15 -0.05,0.125 -0.1583345,0.325 -0.1083342,0.19167 -0.250002,0.37501 -0.1416678,0.175 -0.3583362,0.30833 -0.2166684,0.125 -0.4500036,0.125 -0.3166692,0 -0.5166708,-0.21666 -0.1916682,-0.21667 -0.1916682,-0.53334 0,-0.11667 0.041667,-0.28334 l 0.6000048,-2.39168 h -0.666672 q -0.083334,0 -0.1166676,0 -0.033334,-0.008 -0.066667,-0.025 -0.025,-0.025 -0.025,-0.075 z"
           id="path30" />
        <path
           style="stroke-width:0.908546"
           d="m -15.125588,140.92328 q 0,-0.24359 0.243591,-0.24359 1.025648,-0.0385 1.243598,-0.89744 l 1.692319,-6.79492 q 0.03846,-0.12821 0.03846,-0.16667 0,-0.10257 -0.782056,-0.10257 -0.141027,0 -0.20513,0 -0.05128,-0.0128 -0.102565,-0.0385 -0.03846,-0.0385 -0.03846,-0.11538 0,-0.16667 0.07692,-0.20513 0.07692,-0.0385 0.269233,-0.0385 h 1.602575 q 0.205129,0 0.243591,0.0385 0.05128,0.0256 0.115385,0.17949 l 2.3974525,6.66671 1.4102659,-5.62824 q 0.051282,-0.20513 0.051282,-0.3077 0,-0.52564 -0.769236,-0.55129 -0.2307707,0 -0.2307707,-0.15384 0,-0.24359 0.2307707,-0.24359 0.192309,0 0.6153888,0.0256 0.4230798,0.0128 0.6282094,0.0128 0.2051296,0 0.6153888,-0.0128 0.4230798,-0.0256 0.6153888,-0.0256 0.1666678,0 0.1666678,0.16666 0,0.23077 -0.192309,0.23077 -1.089751,0.0385 -1.2948806,0.87181 l -1.7948839,7.23081 q -0.051282,0.16667 -0.1025648,0.21795 -0.038462,0.0385 -0.1538472,0.0385 -0.128206,0 -0.1666678,-0.0257 -0.038462,-0.0385 -0.089744,-0.1923 l -2.7564287,-7.6539 -1.653857,6.60261 q -0.05128,0.20513 -0.05128,0.32051 0,0.10257 0.01282,0.17949 0.02564,0.0641 0.08974,0.15385 0.0641,0.0897 0.230771,0.15384 0.166668,0.0513 0.42308,0.0641 0.243591,0 0.243591,0.16666 0,0.23078 -0.230771,0.23078 -0.192309,0 -0.628209,-0.0128 -0.42308,-0.0257 -0.62821,-0.0257 -0.205129,0 -0.615388,0.0257 -0.41026,0.0128 -0.602569,0.0128 -0.166667,0 -0.166667,-0.15385 z"
           id="path31" />
        <path
           style="font-size:8.3334px;baseline-shift:sub;stroke-width:0.908546"
           d="m -5.9531138,143.21624 q 0,-0.2 0.125001,-0.325 0.125001,-0.125 0.291669,-0.125 0.2833356,0 0.2833356,0.26667 0,0.11667 -0.083334,0.24167 -0.075001,0.11666 -0.2416686,0.15833 0.1416678,0.11667 0.3666696,0.11667 0.1750014,0 0.3083358,-0.1 0.1416678,-0.1 0.2333352,-0.30834 0.1000008,-0.20833 0.1500012,-0.36667 0.05,-0.16667 0.1166676,-0.43333 0.1000008,-0.40834 0.1916682,-0.75834 0.1750014,-0.71668 0.1750014,-0.91668 0,-0.25 -0.1083342,-0.38333 -0.1083342,-0.14167 -0.291669,-0.14167 -0.2750022,0 -0.5583378,0.26667 -0.2750022,0.26667 -0.4333368,0.775 -0.033334,0.1 -0.05,0.125 -0.016667,0.0167 -0.1000008,0.0167 -0.125001,0 -0.125001,-0.0833 0,-0.0833 0.083334,-0.28334 0.091667,-0.2 0.2416686,-0.425 0.1500012,-0.23334 0.4083366,-0.40001 0.2583354,-0.175 0.5500044,-0.175 0.5916714,0 0.8000064,0.56667 0.1000007,-0.19166 0.3083357,-0.375 0.208335,-0.19167 0.5083374,-0.19167 0.250002,0 0.4833372,0.125 0.2416686,0.11667 0.2416686,0.40001 0,0.21667 -0.1333344,0.33333 -0.1333344,0.10834 -0.2750022,0.10834 -0.1500012,0 -0.2250018,-0.0833 -0.066667,-0.0833 -0.066667,-0.18333 0,-0.0417 0.00833,-0.0917 0.00833,-0.0583 0.091667,-0.16667 0.083334,-0.10833 0.2333352,-0.14166 -0.1333344,-0.11667 -0.3666696,-0.11667 -0.4916706,0 -0.7333392,0.89167 -0.1916681,0.80834 -0.2833355,1.14168 -0.1583346,0.675 -0.1583346,0.84167 0,0.29167 0.1166676,0.41667 0.1166676,0.11667 0.2750021,0.11667 0.2833356,0 0.5583378,-0.26667 0.2750022,-0.26667 0.4333368,-0.77501 0.033334,-0.1 0.05,-0.11666 0.025,-0.025 0.1000008,-0.025 0.125001,0 0.125001,0.0833 0,0.075 -0.083334,0.275 -0.083334,0.19167 -0.2333352,0.42501 -0.1500012,0.23333 -0.4083366,0.40833 -0.2583354,0.175 -0.5583377,0.175 -0.2250018,0 -0.458337,-0.125 -0.2250018,-0.125 -0.333336,-0.44167 -0.3250026,0.56667 -0.8166732,0.56667 -0.3000024,0 -0.5166708,-0.14166 -0.2166684,-0.14167 -0.2166684,-0.37501 z"
           id="path32" />
        <path
           style="stroke-width:0.908546"
           d="m -15.125588,156.94903 q 0,-0.24359 0.243591,-0.24359 1.025648,-0.0385 1.243598,-0.89745 l 1.692319,-6.79491 q 0.03846,-0.12821 0.03846,-0.16667 0,-0.10257 -0.782056,-0.10257 -0.141027,0 -0.20513,0 -0.05128,-0.0128 -0.102565,-0.0385 -0.03846,-0.0385 -0.03846,-0.11538 0,-0.16667 0.07692,-0.20513 0.07692,-0.0385 0.269233,-0.0385 h 1.602575 q 0.205129,0 0.243591,0.0385 0.05128,0.0256 0.115385,0.17949 l 2.3974525,6.66671 1.4102659,-5.62825 q 0.051282,-0.20513 0.051282,-0.30769 0,-0.52564 -0.769236,-0.55129 -0.2307707,0 -0.2307707,-0.15384 0,-0.24359 0.2307707,-0.24359 0.192309,0 0.6153888,0.0256 0.4230798,0.0128 0.6282094,0.0128 0.2051296,0 0.6153888,-0.0128 0.4230798,-0.0256 0.6153888,-0.0256 0.1666678,0 0.1666678,0.16666 0,0.23077 -0.192309,0.23077 -1.089751,0.0385 -1.2948806,0.87181 l -1.7948839,7.23081 q -0.051282,0.16667 -0.1025648,0.21795 -0.038462,0.0385 -0.1538472,0.0385 -0.128206,0 -0.1666678,-0.0257 -0.038462,-0.0385 -0.089744,-0.1923 l -2.7564287,-7.6539 -1.653857,6.60261 q -0.05128,0.20513 -0.05128,0.32051 0,0.10257 0.01282,0.17949 0.02564,0.0641 0.08974,0.15385 0.0641,0.0897 0.230771,0.15384 0.166668,0.0513 0.42308,0.0641 0.243591,0 0.243591,0.16666 0,0.23078 -0.230771,0.23078 -0.192309,0 -0.628209,-0.0128 -0.42308,-0.0256 -0.62821,-0.0256 -0.205129,0 -0.615388,0.0256 -0.41026,0.0128 -0.602569,0.0128 -0.166667,0 -0.166667,-0.15385 z"
           id="path33" />
        <path
           style="font-size:8.3334px;baseline-shift:sub;stroke-width:0.908546"
           d="m -5.7031118,157.26698 q 0,-0.025 0.033334,-0.15001 0.033334,-0.125 0.1166676,-0.31666 0.091667,-0.20001 0.2000016,-0.37501 0.1166676,-0.18333 0.3083358,-0.30833 0.1916682,-0.13334 0.4083366,-0.13334 0.2750022,0 0.4500036,0.18334 0.1833348,0.18333 0.1833348,0.49167 0,0.16667 -0.1083342,0.45 -0.4833372,1.31668 -0.4833372,1.82502 0,0.64167 0.4500036,0.64167 0.333336,0 0.5750045,-0.25 0.250002,-0.25834 0.3083358,-0.49167 l 0.6083382,-2.45002 q 0.075001,-0.30834 0.3250026,-0.30834 0.1166676,0 0.1750014,0.0667 0.058334,0.0667 0.058334,0.15 0,0.0167 -0.016667,0.0583 -0.00833,0.0333 -0.00833,0.0583 l -0.8166732,3.28336 q -0.166668,0.65833 -0.6916721,1.16667 -0.5250042,0.51667 -1.1416758,0.51667 -0.3500028,0 -0.5750046,-0.2 -0.2250018,-0.19167 -0.2250018,-0.51667 0,-0.20834 0.091667,-0.34167 0.091667,-0.125 0.1750014,-0.15 0.083334,-0.025 0.1583346,-0.025 0.1166676,0 0.2000016,0.0667 0.083334,0.075 0.083334,0.2 0,0.125 -0.091667,0.25 -0.091667,0.125 -0.2666688,0.15 -0.066667,0.008 -0.066667,0.025 0,0.0333 0.041667,0.10834 0.041667,0.0833 0.166668,0.16666 0.125001,0.0833 0.3083358,0.0833 0.3833364,0 0.7583394,-0.40834 0.375003,-0.4 0.5916713,-1.33334 -0.3083357,0.30833 -0.7500059,0.30833 -0.3916698,0 -0.666672,-0.23333 -0.2666688,-0.23334 -0.2666688,-0.73334 0,-0.46667 0.4333368,-1.63335 0.2000016,-0.55834 0.2000016,-0.75 0,-0.24167 -0.1833348,-0.24167 -0.500004,0 -0.7750062,1.05001 -0.025,0.0917 -0.05,0.11666 -0.025,0.0167 -0.1000008,0.0167 -0.125001,0 -0.125001,-0.0833 z"
           id="path34" />
        <path
           style="stroke-width:0.908546"
           d="m -15.125588,172.97478 q 0,-0.24359 0.243591,-0.24359 1.025648,-0.0385 1.243598,-0.89745 l 1.692319,-6.79491 q 0.03846,-0.12821 0.03846,-0.16667 0,-0.10257 -0.782056,-0.10257 -0.141027,0 -0.20513,0 -0.05128,-0.0128 -0.102565,-0.0385 -0.03846,-0.0385 -0.03846,-0.11538 0,-0.16667 0.07692,-0.20513 0.07692,-0.0385 0.269233,-0.0385 h 1.602575 q 0.205129,0 0.243591,0.0385 0.05128,0.0256 0.115385,0.17949 l 2.3974525,6.66671 1.4102659,-5.62825 q 0.051282,-0.20513 0.051282,-0.30769 0,-0.52565 -0.769236,-0.55129 -0.2307707,0 -0.2307707,-0.15384 0,-0.24359 0.2307707,-0.24359 0.192309,0 0.6153888,0.0256 0.4230798,0.0128 0.6282094,0.0128 0.2051296,0 0.6153888,-0.0128 0.4230798,-0.0256 0.6153888,-0.0256 0.1666678,0 0.1666678,0.16666 0,0.23077 -0.192309,0.23077 -1.089751,0.0385 -1.2948806,0.8718 l -1.7948839,7.23082 q -0.051282,0.16667 -0.1025648,0.21795 -0.038462,0.0385 -0.1538472,0.0385 -0.128206,0 -0.1666678,-0.0256 -0.038462,-0.0385 -0.089744,-0.19231 l -2.7564287,-7.65389 -1.653857,6.60261 q -0.05128,0.20512 -0.05128,0.32051 0,0.10257 0.01282,0.17949 0.02564,0.0641 0.08974,0.15385 0.0641,0.0897 0.230771,0.15384 0.166668,0.0513 0.42308,0.0641 0.243591,0 0.243591,0.16666 0,0.23077 -0.230771,0.23077 -0.192309,0 -0.628209,-0.0128 -0.42308,-0.0256 -0.62821,-0.0256 -0.205129,0 -0.615388,0.0256 -0.41026,0.0128 -0.602569,0.0128 -0.166667,0 -0.166667,-0.15384 z"
           id="path35" />
        <path
           style="font-size:8.3334px;baseline-shift:sub;stroke-width:0.908546"
           d="m -5.8781132,175.70108 q 0,-0.075 0.2750022,-0.45834 0.2750022,-0.39167 0.5916714,-0.7 l 1.3666776,-1.35835 q 0.083334,-0.0833 0.3333359,-0.36667 -0.2166684,0 -0.4916705,-0.125 -0.333336,-0.15 -0.500004,-0.15 -0.2166684,0 -0.3916698,0.125 -0.166668,0.11667 -0.2250018,0.26667 -0.033334,0.075 -0.058334,0.1 -0.016667,0.0167 -0.091667,0.0167 -0.125001,0 -0.125001,-0.0917 0,-0.20834 0.2833356,-0.57501 0.291669,-0.375 0.6916722,-0.375 0.2666688,0 0.5083374,0.325 0.2166683,0.30001 0.3916697,0.30001 0.1166676,0 0.2166684,-0.0917 0.1083342,-0.1 0.3000024,-0.425 0.041667,-0.075 0.058334,-0.0917 0.025,-0.0167 0.1000008,-0.0167 0.1166676,0 0.1166676,0.0833 0,0.0417 -0.1166676,0.23333 -0.1166676,0.18334 -0.333336,0.45834 -0.2166684,0.275 -0.4416702,0.5 l -1.2083429,1.19168 q -0.1750014,0.175 -0.4666704,0.50834 0.041667,-0.008 0.1500012,-0.008 0.1916682,0 0.5166708,0.14167 0.3000024,0.13333 0.4666704,0.13333 0.2750022,0 0.5333375,-0.19166 0.2666688,-0.20001 0.375003,-0.50834 0.025,-0.0833 0.041667,-0.10834 0.025,-0.025 0.1000008,-0.025 0.125001,0 0.125001,0.0833 0,0.13333 -0.1416678,0.425 -0.1333344,0.28334 -0.4416702,0.57501 -0.3083357,0.28333 -0.6750053,0.28333 -0.1166676,0 -0.2250018,-0.0583 -0.1000008,-0.05 -0.1500012,-0.1 -0.05,-0.0583 -0.1416678,-0.16667 -0.125001,-0.175 -0.2000016,-0.23334 -0.075001,-0.0667 -0.2000016,-0.0667 -0.1083342,0 -0.208335,0.05 -0.1000008,0.05 -0.208335,0.175 -0.1000008,0.11667 -0.125001,0.15833 -0.025,0.0333 -0.1166676,0.16667 -0.041667,0.075 -0.1333344,0.075 -0.125001,0 -0.125001,-0.0833 z"
           id="path36" />
      </g>
      <path
         d="m 67.719003,96.259645 q 1.1e-5,-0.251964 0.103077,-0.400859 l 2.611283,-4.100167 q 0.103077,-0.171796 0.183248,-0.206149 0.08017,-0.03438 0.297778,-0.03435 l 0.320686,-3.31e-4 q 0.286322,4.89e-4 0.377949,0.09157 0.09162,0.09158 0.09162,0.377952 l 0,4.031451 0.893336,-3.53e-4 q 0.137436,-5e-6 0.206154,0.01147 0.08017,0.01142 0.160342,0.103065 0.09162,0.08018 0.09162,0.24052 3e-6,0.343595 -0.45812,0.343592 l -0.893336,3.52e-4 5e-6,1.236917 0.710088,-3.06e-4 q 0.137436,-5e-6 0.206154,0.01147 0.08017,0.01152 0.160342,0.103085 0.09162,0.08018 0.09162,0.24051 2e-6,0.343585 -0.45812,0.343592 l -2.06154,-2.6e-5 q -0.458118,-3.83e-4 -0.45812,-0.343588 0,-0.160342 0.08017,-0.240506 0.09162,-0.09162 0.160342,-0.103087 0.08017,-0.01148 0.217607,-0.01147 l 0.710088,-3.06e-4 -5e-6,-1.236927 -2.886156,-1.5e-5 q -0.274869,-4.3e-4 -0.366495,-0.09161 -0.09162,-0.09158 -0.09161,-0.366491 z m 0.801709,-0.240513 2.542566,2.8e-5 -10e-7,-3.99709 z m 5.508889,1.168206 q 0,-0.801711 0.927692,-1.23692 0.939146,-0.446671 2.508208,-0.469578 -2e-6,-0.584098 -0.389403,-0.870428 -0.389402,-0.297769 -1.076582,-0.297775 -0.251964,-3.1e-4 -0.412308,0.01146 -0.171795,0.01151 -0.206154,0.03443 -0.03436,0.02292 -0.03436,0.09162 -0.01145,0.286324 -0.171795,0.412302 -0.160342,0.114537 -0.332137,0.114534 -0.217606,-1.33e-4 -0.366496,-0.137439 -0.148889,-0.137426 -0.148889,-0.3894 0,-0.836071 1.660685,-0.836072 1.133847,-1.01e-4 1.695044,0.538286 0.57265,0.538307 0.57265,1.236936 l 0,2.473854 q 0.240513,0.09155 0.68718,0.09158 0.458118,3.83e-4 0.45812,0.343588 0,0.171802 -0.09162,0.251967 -0.08017,0.08018 -0.183248,0.09165 -0.09162,0.01152 -0.297778,0.01145 -0.973505,-6.4e-5 -1.236924,-0.36649 -0.664274,0.43521 -1.672138,0.435207 -0.84752,-4.09e-4 -1.37436,-0.458126 Q 74.0296,97.805846 74.0296,97.187388 Z m 0.790256,1.11e-4 q 3e-6,0.343585 0.332137,0.595556 0.332137,0.240511 0.847522,0.240513 0.607008,1.58e-4 1.019317,-0.1947 0.206154,-0.09163 0.309231,-0.217614 0.103077,-0.137436 0.11453,-0.229057 0.02291,-0.09158 0.02291,-0.263415 l 5e-6,-0.962053 q -1.225471,0.03442 -1.935557,0.320675 -0.710086,0.28634 -0.710086,0.710095 z m 5.004957,-0.996415 q 10e-7,-1.076575 0.698633,-1.80958 0.698633,-0.732985 1.649232,-0.73299 0.755898,-6.7e-5 1.340001,0.515398 l 4e-6,-1.80958 -0.515387,3.19e-4 q -0.458118,-3.84e-4 -0.45812,-0.343588 -2e-6,-0.355045 0.469573,-0.355042 l 0.836068,3.49e-4 q 0.286322,4.9e-4 0.366496,0.103079 0.09162,0.09158 0.09162,0.366501 l 0,5.829565 0.515387,-3.19e-4 q 0.458118,3.84e-4 0.45812,0.343588 3e-6,0.355045 -0.469573,0.355042 l -0.836068,-3.49e-4 q -0.320685,3.31e-4 -0.389402,-0.114528 -0.06872,-0.114529 -0.06872,-0.458123 -0.618462,0.641371 -1.443078,0.641371 -0.916241,2.33e-4 -1.580514,-0.732993 -0.664274,-0.744446 -0.664274,-1.79812 z m 0.790256,1.11e-4 q -2e-6,0.7559 0.435214,1.294192 0.446667,0.538291 1.065129,0.538288 0.607008,1.58e-4 0.996411,-0.515383 0.400855,-0.526831 0.400855,-1.076579 l 10e-7,-0.813161 q 2e-6,-0.492486 -0.377949,-0.881888 -0.377949,-0.389392 -0.91624,-0.389392 -0.629914,-2.77e-4 -1.122394,0.526828 -0.481026,0.526835 -0.481027,1.317095 z m 5.382905,-1.042219 q -1.5e-5,-1.534711 0.721539,-2.576928 0.721539,-1.04222 1.706497,-1.042216 0.973505,6.5e-5 1.695045,1.042223 0.732991,1.030763 0.732992,2.588374 1.6e-5,1.534701 -0.721539,2.576921 -0.721539,1.042231 -1.706498,1.042226 -0.973504,-6.4e-5 -1.706496,-1.030772 -0.72154,-1.042227 -0.72154,-2.599828 z m 0.790258,-0.114531 q -5.4e-5,1.259837 0.481025,2.153162 0.481026,0.893335 1.156753,0.89333 0.67573,-4.85e-4 1.156753,-0.893324 0.481026,-0.89333 0.481026,-2.153167 -2.4e-5,-1.225476 -0.492478,-2.015725 -0.49248,-0.790263 -1.145301,-0.790259 -0.652819,-3.97e-4 -1.1453,0.801712 -0.492478,0.790255 -0.492478,2.004271 z m 6.047179,2.94342 q -0.767351,-0.755892 -0.76735,-1.809576 -1.8e-5,-1.053675 0.721538,-1.798121 0.72154,-0.755896 1.740856,-0.755903 1.065133,-4.59e-4 1.63778,0.69864 0.584104,0.687188 0.584104,1.729402 -10e-7,0.148892 -0.03436,0.240514 -0.03436,0.09162 -0.11453,0.137436 -0.06872,0.03444 -0.137436,0.04579 -0.05726,-8e-6 -0.171795,-4e-6 l -3.412994,4.4e-5 q 0.137435,0.710085 0.675726,1.133841 0.549745,0.423766 1.225471,0.423761 0.893337,-3.52e-4 1.191113,-0.687172 0.05727,-0.160345 0.137436,-0.206168 0.08017,-0.04578 0.240513,-0.04575 0.400855,8.5e-5 0.400855,0.320689 0,0.125982 -0.11453,0.332129 -0.11453,0.194707 -0.34359,0.435228 -0.217607,0.229061 -0.641368,0.389399 -0.423761,0.160337 -0.9506,0.160337 -1.099489,2.8e-4 -1.866838,-0.744443 z m 0.05727,-2.198971 3.046498,-5.1e-5 q -0.06872,-0.801718 -0.469572,-1.133858 -0.400856,-0.33213 -0.939147,-0.332131 -0.595556,-9.8e-5 -1.053677,0.423764 -0.458119,0.412312 -0.584102,1.042226 z m 5.153846,1.248379 q 4.9e-5,-0.297784 0.160343,-0.423761 0.171794,-0.125998 0.355042,-0.125995 0.194702,1.3e-5 0.343591,0.137439 0.160342,0.137446 0.160341,0.37795 -3.2e-5,0.217612 -0.148888,0.36649 0.366495,0.721546 1.374362,0.72154 0.73299,-1.87e-4 1.24837,-0.458122 0.52684,-0.469565 0.52684,-1.145294 -4e-5,-0.607009 -0.40085,-1.08803 -0.3894,-0.492483 -1.05368,-0.492479 -0.962051,-5e-6 -1.443076,0.57265 -0.137437,0.171788 -0.343591,0.171785 -0.171794,6e-6 -0.263418,-0.08017 -0.08017,-0.09162 -0.09162,-0.160339 -0.01145,-0.08016 -0.01145,-0.229053 l -10e-7,-3.046497 q 3e-5,-0.274874 0.09162,-0.366498 0.09162,-0.103075 0.366497,-0.103075 l 3.080857,2.8e-5 q 0.13743,5e-6 0.20615,0.01147 0.0802,0.01142 0.16035,0.103075 0.0916,0.08018 0.0916,0.24051 1e-5,0.343595 -0.45812,0.343591 l -2.748725,0 -10e-7,2.176066 q 0.618462,-0.332127 1.374356,-0.332135 0.97351,6.5e-5 1.60342,0.687181 0.62992,0.687187 0.62992,1.591959 -5e-5,0.950603 -0.74445,1.626339 -0.74444,0.675726 -1.82102,0.675725 -0.950602,5.5e-5 -1.603423,-0.515388 -0.641368,-0.515384 -0.641368,-1.236924 z m 6.012821,-1.8e-5 q 5e-5,-0.297774 0.16034,-0.423752 0.1718,-0.125998 0.35504,-0.125994 0.1947,1.2e-5 0.34359,0.137439 0.16035,0.137436 0.16035,0.377949 -4e-5,0.217613 -0.14889,0.366491 0.36649,0.721536 1.37436,0.721539 0.73299,-1.86e-4 1.24837,-0.458121 0.52684,-0.469566 0.52684,-1.145295 -4e-5,-0.607008 -0.40085,-1.08803 -0.38941,-0.492482 -1.05368,-0.492478 -0.96205,-5e-6 -1.44308,0.57265 -0.13743,0.171787 -0.34359,0.171785 -0.17179,-4e-6 -0.26342,-0.08017 -0.0802,-0.09162 -0.0916,-0.160339 -0.0115,-0.08016 -0.0114,-0.229062 l 0,-3.046488 q 3e-5,-0.274873 0.0916,-0.366498 0.0916,-0.103075 0.3665,-0.103075 l 3.08086,2.8e-5 q 0.13743,-5e-6 0.20615,0.01147 0.0802,0.01142 0.16034,0.103076 0.0916,0.08018 0.0916,0.24051 2e-5,0.343594 -0.45812,0.343591 l -2.74872,0 0,2.176065 q 0.61846,-0.332127 1.37436,-0.332134 0.97351,6.4e-5 1.60342,0.687181 0.62992,0.687186 0.62992,1.591958 -5e-5,0.950603 -0.74445,1.62633 -0.74444,0.675736 -1.82102,0.675735 -0.9506,5.4e-5 -1.60342,-0.515389 -0.64137,-0.515384 -0.64137,-1.236923 z"
         id="text1"
         style="font-size:11.453px;font-family:'CMU Typewriter Text';-inkscape-font-specification:'CMU Typewriter Text';letter-spacing:0px;stroke-width:4.05815;stroke-linecap:round;stroke-linejoin:bevel;stroke-miterlimit:3.9;paint-order:fill markers stroke"
         aria-label="4ad0e55" />
    </g>
    <g
       id="g8">
      <path
         style="fill:none;stroke:#1a1a1a;stroke-width:3.09095;stroke-linecap:round;stroke-linejoin:miter;stroke-dasharray:none;paint-order:markers stroke fill"
         d="M 146.7585,84.884309 132.40847,99.23594 v 79.43629 h 71.95618 V 84.884309 Z"
         id="path2"
         sodipodi:nodetypes="cccccc" />
      <path
         id="rect2"
         style="fill:none;stroke:#1a1a1a;stroke-width:3.09095;stroke-linecap:round;stroke-linejoin:bevel;paint-order:markers stroke fill"
         d="M 146.66059,84.987506 V 99.33856 h -14.35105 z"
         sodipodi:nodetypes="cccc" />
      <g
         id="g21201"
         transform="matrix(0.56798585,0,0,0.56798585,139.80778,44.735147)">
        <circle
           r="1.5119051"
           cy="115.52773"
           cx="23.805717"
           style="fill:#000000;fill-opacity:0.0784314;stroke:none;stroke-width:0.0330729"
           id="path3568"
           inkscape:tile-x0="241.42856"
           inkscape:tile-y0="446.6479" />
        <circle
           r="1.5119051"
           cy="131.38573"
           cx="23.805717"
           style="fill:#000000;fill-opacity:0.0784314;stroke:none;stroke-width:0.0330729"
           id="path3570"
           inkscape:tile-x0="241.42856"
           inkscape:tile-y0="446.6479" />
        <circle
           r="1.5119051"
           cy="147.24373"
           cx="23.805717"
           style="fill:#000000;fill-opacity:0.0784314;stroke:none;stroke-width:0.0330729"
           id="path3572"
           inkscape:tile-x0="241.42856"
           inkscape:tile-y0="446.6479" />
        <circle
           r="1.5119051"
           cy="163.10172"
           cx="23.805717"
           style="fill:#000000;fill-opacity:0.0805687;stroke:none;stroke-width:0.0330729"
           id="path3574"
           inkscape:tile-x0="241.42856"
           inkscape:tile-y0="446.6479" />
        <circle
           r="1.5119051"
           cy="178.9597"
           cx="23.805717"
           style="fill:#000000;fill-opacity:0.0805687;stroke:none;stroke-width:0.0330729"
           id="path3576"
           inkscape:tile-x0="241.42856"
           inkscape:tile-y0="446.6479" />
        <circle
           r="1.5119051"
           cy="194.8177"
           cx="23.805717"
           style="fill:#000000;fill-opacity:0.0805687;stroke:none;stroke-width:0.0330729"
           id="path3578"
           inkscape:tile-x0="241.42856"
           inkscape:tile-y0="446.6479" />
        <circle
           r="1.5119051"
           cy="115.52773"
           cx="39.663712"
           style="fill:#000000;fill-opacity:0.0784314;stroke:none;stroke-width:0.0330729"
           id="path3582"
           inkscape:tile-x0="241.42856"
           inkscape:tile-y0="446.6479" />
        <circle
           r="1.5119051"
           cy="131.38573"
           cx="39.663712"
           style="fill:#000000;fill-opacity:0.0784314;stroke:none;stroke-width:0.0330729"
           id="path3584"
           inkscape:tile-x0="241.42856"
           inkscape:tile-y0="446.6479" />
        <circle
           r="1.5119051"
           cy="147.24373"
           cx="39.663712"
           style="fill:#000000;fill-opacity:0.0784314;stroke:none;stroke-width:0.0330729"
           id="path3586"
           inkscape:tile-x0="241.42856"
           inkscape:tile-y0="446.6479" />
        <circle
           r="1.5119051"
           cy="163.10172"
           cx="39.663712"
           style="fill:#000000;fill-opacity:0.0805687;stroke:none;stroke-width:0.0330729"
           id="path3588"
           inkscape:tile-x0="241.42856"
           inkscape:tile-y0="446.6479" />
        <circle
           r="1.5119051"
           cy="178.9597"
           cx="39.663712"
           style="fill:#000000;fill-opacity:0.0805687;stroke:none;stroke-width:0.0330729"
           id="path3590"
           inkscape:tile-x0="241.42856"
           inkscape:tile-y0="446.6479" />
        <circle
           r="1.5119051"
           cy="194.8177"
           cx="39.663712"
           style="fill:#000000;fill-opacity:0.0805687;stroke:none;stroke-width:0.0330729"
           id="path3592"
           inkscape:tile-x0="241.42856"
           inkscape:tile-y0="446.6479" />
        <circle
           r="1.5119051"
           cy="115.52773"
           cx="55.521698"
           style="fill:#000000;fill-opacity:0.0784314;stroke:none;stroke-width:0.0330729"
           id="path3596"
           inkscape:tile-x0="241.42856"
           inkscape:tile-y0="446.6479" />
        <circle
           r="1.5119051"
           cy="131.38573"
           cx="55.521698"
           style="fill:#000000;fill-opacity:0.0784314;stroke:none;stroke-width:0.0330729"
           id="path3598"
           inkscape:tile-x0="241.42856"
           inkscape:tile-y0="446.6479" />
        <circle
           r="1.5119051"
           cy="147.24373"
           cx="55.521698"
           style="fill:#000000;fill-opacity:0.0784314;stroke:none;stroke-width:0.0330729"
           id="path3600"
           inkscape:tile-x0="241.42856"
           inkscape:tile-y0="446.6479" />
        <circle
           r="1.5119051"
           cy="163.10172"
           cx="55.521698"
           style="fill:#000000;fill-opacity:0.0805687;stroke:none;stroke-width:0.0330729"
           id="path3602"
           inkscape:tile-x0="241.42856"
           inkscape:tile-y0="446.6479" />
        <circle
           r="1.5119051"
           cy="178.9597"
           cx="55.521698"
           style="fill:#000000;fill-opacity:0.0805687;stroke:none;stroke-width:0.0330729"
           id="path3604"
           inkscape:tile-x0="241.42856"
           inkscape:tile-y0="446.6479" />
        <circle
           r="1.5119051"
           cy="194.8177"
           cx="55.521698"
           style="fill:#000000;fill-opacity:0.0805687;stroke:none;stroke-width:0.0330729"
           id="path3606"
           inkscape:tile-x0="241.42856"
           inkscape:tile-y0="446.6479" />
        <circle
           r="1.5119051"
           cy="115.52773"
           cx="71.379692"
           style="fill:#000000;fill-opacity:0.0784314;stroke:none;stroke-width:0.0330729"
           id="path3610"
           inkscape:tile-x0="241.42856"
           inkscape:tile-y0="446.6479" />
        <circle
           r="1.5119051"
           cy="131.38573"
           cx="71.379692"
           style="fill:#000000;fill-opacity:0.0784314;stroke:none;stroke-width:0.0330729"
           id="path3612"
           inkscape:tile-x0="241.42856"
           inkscape:tile-y0="446.6479" />
        <circle
           r="1.5119051"
           cy="147.24373"
           cx="71.379692"
           style="fill:#000000;fill-opacity:0.0784314;stroke:none;stroke-width:0.0330729"
           id="path3614"
           inkscape:tile-x0="241.42856"
           inkscape:tile-y0="446.6479" />
        <circle
           r="1.5119051"
           cy="163.10172"
           cx="71.379692"
           style="opacity:0.04;fill:#000000;fill-opacity:1;stroke:none;stroke-width:0.0330729"
           id="path3616"
           inkscape:tile-x0="241.42856"
           inkscape:tile-y0="446.6479" />
        <circle
           r="1.5119051"
           cy="178.9597"
           cx="71.379692"
           style="opacity:0.04;fill:#000000;fill-opacity:1;stroke:none;stroke-width:0.0330729"
           id="path3618"
           inkscape:tile-x0="241.42856"
           inkscape:tile-y0="446.6479" />
        <circle
           r="1.5119051"
           cy="194.8177"
           cx="71.379692"
           style="opacity:0.04;fill:#000000;fill-opacity:1;stroke:none;stroke-width:0.0330729"
           id="path3620"
           inkscape:tile-x0="241.42856"
           inkscape:tile-y0="446.6479" />
        <circle
           r="1.5119051"
           cy="115.52773"
           cx="87.237686"
           style="fill:#000000;fill-opacity:0.0784314;stroke:none;stroke-width:0.0330729"
           id="path3624"
           inkscape:tile-x0="241.42856"
           inkscape:tile-y0="446.6479" />
        <circle
           r="1.5119051"
           cy="131.38573"
           cx="87.237686"
           style="fill:#000000;fill-opacity:0.0784314;stroke:none;stroke-width:0.0330729"
           id="path3626"
           inkscape:tile-x0="241.42856"
           inkscape:tile-y0="446.6479" />
        <circle
           r="1.5119051"
           cy="147.24373"
           cx="87.237686"
           style="fill:#000000;fill-opacity:0.0784314;stroke:none;stroke-width:0.0330729"
           id="path3628"
           inkscape:tile-x0="241.42856"
           inkscape:tile-y0="446.6479" />
        <circle
           r="1.5119051"
           cy="163.10172"
           cx="87.237686"
           style="opacity:0.04;fill:#000000;fill-opacity:1;stroke:none;stroke-width:0.0330729"
           id="path3630"
           inkscape:tile-x0="241.42856"
           inkscape:tile-y0="446.6479" />
        <circle
           r="1.5119051"
           cy="178.9597"
           cx="87.237686"
           style="opacity:0.04;fill:#000000;fill-opacity:1;stroke:none;stroke-width:0.0330729"
           id="path3632"
           inkscape:tile-x0="241.42856"
           inkscape:tile-y0="446.6479" />
        <circle
           r="1.5119051"
           cy="194.8177"
           cx="87.237686"
           style="opacity:0.04;fill:#000000;fill-opacity:1;stroke:none;stroke-width:0.0330729"
           id="path3634"
           inkscape:tile-x0="241.42856"
           inkscape:tile-y0="446.6479" />
        <circle
           r="1.5119051"
           cy="115.52773"
           cx="103.09566"
           style="fill:#000000;fill-opacity:0.0784314;stroke:none;stroke-width:0.0330729"
           id="path3638"
           inkscape:tile-x0="241.42856"
           inkscape:tile-y0="446.6479" />
        <circle
           r="1.5119051"
           cy="131.38573"
           cx="103.09566"
           style="fill:#000000;fill-opacity:0.0784314;stroke:none;stroke-width:0.0330729"
           id="path3640"
           inkscape:tile-x0="241.42856"
           inkscape:tile-y0="446.6479" />
        <circle
           r="1.5119051"
           cy="147.24373"
           cx="103.09566"
           style="fill:#000000;fill-opacity:0.0784314;stroke:none;stroke-width:0.0330729"
           id="path3642"
           inkscape:tile-x0="241.42856"
           inkscape:tile-y0="446.6479" />
        <circle
           r="1.5119051"
           cy="163.10172"
           cx="103.09566"
           style="opacity:0.04;fill:#000000;fill-opacity:1;stroke:none;stroke-width:0.0330729"
           id="path3644"
           inkscape:tile-x0="241.42856"
           inkscape:tile-y0="446.6479" />
        <circle
           r="1.5119051"
           cy="178.9597"
           cx="103.09566"
           style="opacity:0.04;fill:#000000;fill-opacity:1;stroke:none;stroke-width:0.0330729"
           id="path3646"
           inkscape:tile-x0="241.42856"
           inkscape:tile-y0="446.6479" />
        <circle
           r="1.5119051"
           cy="194.8177"
           cx="103.09566"
           style="opacity:0.04;fill:#000000;fill-opacity:1;stroke:none;stroke-width:0.0330729"
           id="path3648"
           inkscape:tile-x0="241.42856"
           inkscape:tile-y0="446.6479" />
        <circle
           cy="125.35511"
           cx="15.049275"
           inkscape:tile-y0="446.6479"
           inkscape:tile-x0="241.42856"
           id="path3468"
           style="fill:#000000;fill-opacity:0.227451;stroke:none;stroke-width:0.0330729"
           r="1.5119051" />
        <circle
           r="1.5119051"
           cy="141.21312"
           cx="15.049275"
           inkscape:tile-y0="446.6479"
           inkscape:tile-x0="241.42856"
           id="path3470"
           style="fill:#000000;fill-opacity:0.227451;stroke:none;stroke-width:0.0330729" />
        <circle
           r="1.5119051"
           cy="157.07111"
           cx="15.049275"
           inkscape:tile-y0="446.6479"
           inkscape:tile-x0="241.42856"
           id="path3472"
           style="fill:#000000;fill-opacity:0.227451;stroke:none;stroke-width:0.0330729" />
        <circle
           r="1.5119051"
           cy="172.92909"
           cx="15.049275"
           inkscape:tile-y0="446.6479"
           inkscape:tile-x0="241.42856"
           id="path3474"
           style="fill:#000000;fill-opacity:0.227488;stroke:none;stroke-width:0.0330729" />
        <circle
           r="1.5119051"
           cy="188.78709"
           cx="15.049275"
           inkscape:tile-y0="446.6479"
           inkscape:tile-x0="241.42856"
           id="path3476"
           style="fill:#000000;fill-opacity:0.227488;stroke:none;stroke-width:0.0330729" />
        <circle
           r="1.5119051"
           cy="204.64507"
           cx="15.049275"
           inkscape:tile-y0="446.6479"
           inkscape:tile-x0="241.42856"
           id="path3478"
           style="fill:#000000;fill-opacity:0.227488;stroke:none;stroke-width:0.0330729" />
        <circle
           r="1.5119051"
           cy="125.35511"
           cx="30.907263"
           inkscape:tile-y0="446.6479"
           inkscape:tile-x0="241.42856"
           id="path3482"
           style="fill:#000000;fill-opacity:0.227451;stroke:none;stroke-width:0.0330729" />
        <circle
           r="1.5119051"
           cy="141.21312"
           cx="30.907263"
           inkscape:tile-y0="446.6479"
           inkscape:tile-x0="241.42856"
           id="path3484"
           style="fill:#000000;fill-opacity:0.227451;stroke:none;stroke-width:0.0330729" />
        <circle
           r="1.5119051"
           cy="157.07111"
           cx="30.907263"
           inkscape:tile-y0="446.6479"
           inkscape:tile-x0="241.42856"
           id="path3486"
           style="fill:#000000;fill-opacity:0.227451;stroke:none;stroke-width:0.0330729" />
        <circle
           r="1.5119051"
           cy="172.92909"
           cx="30.907263"
           inkscape:tile-y0="446.6479"
           inkscape:tile-x0="241.42856"
           id="path3488"
           style="fill:#000000;fill-opacity:0.227488;stroke:none;stroke-width:0.0330729" />
        <circle
           r="1.5119051"
           cy="188.78709"
           cx="30.907263"
           inkscape:tile-y0="446.6479"
           inkscape:tile-x0="241.42856"
           id="path3490"
           style="fill:#000000;fill-opacity:0.227488;stroke:none;stroke-width:0.0330729" />
        <circle
           r="1.5119051"
           cy="204.64507"
           cx="30.907263"
           inkscape:tile-y0="446.6479"
           inkscape:tile-x0="241.42856"
           id="path3492"
           style="fill:#000000;fill-opacity:0.227488;stroke:none;stroke-width:0.0330729" />
        <circle
           r="1.5119051"
           cy="125.35511"
           cx="46.765259"
           inkscape:tile-y0="446.6479"
           inkscape:tile-x0="241.42856"
           id="path3496"
           style="fill:#000000;fill-opacity:0.227451;stroke:none;stroke-width:0.0330729" />
        <circle
           r="1.5119051"
           cy="141.21312"
           cx="46.765259"
           inkscape:tile-y0="446.6479"
           inkscape:tile-x0="241.42856"
           id="path3498"
           style="fill:#000000;fill-opacity:0.227451;stroke:none;stroke-width:0.0330729" />
        <circle
           r="1.5119051"
           cy="157.07111"
           cx="46.765259"
           inkscape:tile-y0="446.6479"
           inkscape:tile-x0="241.42856"
           id="path3500"
           style="fill:#000000;fill-opacity:0.227451;stroke:none;stroke-width:0.0330729" />
        <circle
           r="1.5119051"
           cy="172.92909"
           cx="46.765259"
           inkscape:tile-y0="446.6479"
           inkscape:tile-x0="241.42856"
           id="path3502"
           style="fill:#000000;fill-opacity:0.227488;stroke:none;stroke-width:0.0330729" />
        <circle
           r="1.5119051"
           cy="188.78709"
           cx="46.765259"
           inkscape:tile-y0="446.6479"
           inkscape:tile-x0="241.42856"
           id="path3504"
           style="fill:#000000;fill-opacity:0.227488;stroke:none;stroke-width:0.0330729" />
        <circle
           r="1.5119051"
           cy="204.64507"
           cx="46.765259"
           inkscape:tile-y0="446.6479"
           inkscape:tile-x0="241.42856"
           id="path3506"
           style="fill:#000000;fill-opacity:0.227488;stroke:none;stroke-width:0.0330729" />
        <circle
           r="1.5119051"
           cy="125.35511"
           cx="62.623253"
           inkscape:tile-y0="446.6479"
           inkscape:tile-x0="241.42856"
           id="path3510"
           style="fill:#000000;fill-opacity:0.227451;stroke:none;stroke-width:0.0330729" />
        <circle
           r="1.5119051"
           cy="141.21312"
           cx="62.623253"
           inkscape:tile-y0="446.6479"
           inkscape:tile-x0="241.42856"
           id="path3512"
           style="fill:#000000;fill-opacity:0.227451;stroke:none;stroke-width:0.0330729" />
        <circle
           r="1.5119051"
           cy="157.07111"
           cx="62.623253"
           inkscape:tile-y0="446.6479"
           inkscape:tile-x0="241.42856"
           id="path3514"
           style="fill:#000000;fill-opacity:0.227451;stroke:none;stroke-width:0.0330729" />
        <circle
           r="1.5119051"
           cy="172.92909"
           cx="62.623253"
           inkscape:tile-y0="446.6479"
           inkscape:tile-x0="241.42856"
           id="path3516"
           style="opacity:0.12;fill:#000000;fill-opacity:1;stroke:none;stroke-width:0.0330729" />
        <circle
           r="1.5119051"
           cy="188.78709"
           cx="62.623253"
           inkscape:tile-y0="446.6479"
           inkscape:tile-x0="241.42856"
           id="path3518"
           style="opacity:0.12;fill:#000000;fill-opacity:1;stroke:none;stroke-width:0.0330729" />
        <circle
           r="1.5119051"
           cy="204.64507"
           cx="62.623253"
           inkscape:tile-y0="446.6479"
           inkscape:tile-x0="241.42856"
           id="path3520"
           style="opacity:0.12;fill:#000000;fill-opacity:1;stroke:none;stroke-width:0.0330729" />
        <circle
           r="1.5119051"
           cy="125.35511"
           cx="78.481232"
           inkscape:tile-y0="446.6479"
           inkscape:tile-x0="241.42856"
           id="path3524"
           style="fill:#000000;fill-opacity:0.227451;stroke:none;stroke-width:0.0330729" />
        <circle
           r="1.5119051"
           cy="141.21312"
           cx="78.481232"
           inkscape:tile-y0="446.6479"
           inkscape:tile-x0="241.42856"
           id="path3526"
           style="fill:#000000;fill-opacity:0.227451;stroke:none;stroke-width:0.0330729" />
        <circle
           r="1.5119051"
           cy="157.07111"
           cx="78.481232"
           inkscape:tile-y0="446.6479"
           inkscape:tile-x0="241.42856"
           id="path3528"
           style="fill:#000000;fill-opacity:0.227451;stroke:none;stroke-width:0.0330729" />
        <circle
           r="1.5119051"
           cy="172.92909"
           cx="78.481232"
           inkscape:tile-y0="446.6479"
           inkscape:tile-x0="241.42856"
           id="path3530"
           style="opacity:0.12;fill:#000000;fill-opacity:1;stroke:none;stroke-width:0.0330729" />
        <circle
           r="1.5119051"
           cy="188.78709"
           cx="78.481232"
           inkscape:tile-y0="446.6479"
           inkscape:tile-x0="241.42856"
           id="path3532"
           style="opacity:0.12;fill:#000000;fill-opacity:1;stroke:none;stroke-width:0.0330729" />
        <circle
           r="1.5119051"
           cy="204.64507"
           cx="78.481232"
           inkscape:tile-y0="446.6479"
           inkscape:tile-x0="241.42856"
           id="path3534"
           style="opacity:0.12;fill:#000000;fill-opacity:1;stroke:none;stroke-width:0.0330729" />
        <circle
           r="1.5119051"
           cy="125.35511"
           cx="94.339226"
           inkscape:tile-y0="446.6479"
           inkscape:tile-x0="241.42856"
           id="path3538"
           style="fill:#000000;fill-opacity:0.227451;stroke:none;stroke-width:0.0330729" />
        <circle
           r="1.5119051"
           cy="141.21312"
           cx="94.339226"
           inkscape:tile-y0="446.6479"
           inkscape:tile-x0="241.42856"
           id="path3540"
           style="fill:#000000;fill-opacity:0.227451;stroke:none;stroke-width:0.0330729" />
        <circle
           r="1.5119051"
           cy="157.07111"
           cx="94.339226"
           inkscape:tile-y0="446.6479"
           inkscape:tile-x0="241.42856"
           id="path3542"
           style="fill:#000000;fill-opacity:0.227451;stroke:none;stroke-width:0.0330729" />
        <circle
           r="1.5119051"
           cy="172.92909"
           cx="94.339226"
           inkscape:tile-y0="446.6479"
           inkscape:tile-x0="241.42856"
           id="path3544"
           style="opacity:0.12;fill:#000000;fill-opacity:1;stroke:none;stroke-width:0.0330729" />
        <circle
           r="1.5119051"
           cy="188.78709"
           cx="94.339226"
           inkscape:tile-y0="446.6479"
           inkscape:tile-x0="241.42856"
           id="path3546"
           style="opacity:0.12;fill:#000000;fill-opacity:1;stroke:none;stroke-width:0.0330729" />
        <circle
           r="1.5119051"
           cy="204.64507"
           cx="94.339226"
           inkscape:tile-y0="446.6479"
           inkscape:tile-x0="241.42856"
           id="path3548"
           style="opacity:0.12;fill:#000000;fill-opacity:1;stroke:none;stroke-width:0.0330729" />
        <circle
           style="fill:#000000;fill-opacity:0.501961;stroke:none;stroke-width:0.0330729"
           id="path3368"
           inkscape:tile-x0="241.42856"
           inkscape:tile-y0="446.6479"
           cx="6.2928205"
           cy="135.1825"
           r="1.511905" />
        <circle
           style="fill:#000000;fill-opacity:0.501961;stroke:none;stroke-width:0.0330729"
           id="path3370"
           inkscape:tile-x0="241.42856"
           inkscape:tile-y0="446.6479"
           cx="6.2928205"
           cy="151.04048"
           r="1.511905" />
        <circle
           style="fill:#000000;fill-opacity:0.501961;stroke:none;stroke-width:0.0330729"
           id="path3372"
           inkscape:tile-x0="241.42856"
           inkscape:tile-y0="446.6479"
           cx="6.2928205"
           cy="166.89848"
           r="1.511905" />
        <circle
           style="fill:#000000;fill-opacity:0.50237;stroke:none;stroke-width:0.0330729"
           id="path3374"
           inkscape:tile-x0="241.42856"
           inkscape:tile-y0="446.6479"
           cx="6.2928205"
           cy="182.75648"
           r="1.511905" />
        <circle
           style="fill:#000000;fill-opacity:0.50237;stroke:none;stroke-width:0.0330729"
           id="path3376"
           inkscape:tile-x0="241.42856"
           inkscape:tile-y0="446.6479"
           cx="6.2928205"
           cy="198.61447"
           r="1.511905" />
        <circle
           style="fill:#000000;fill-opacity:0.50237;stroke:none;stroke-width:0.0330729"
           id="path3378"
           inkscape:tile-x0="241.42856"
           inkscape:tile-y0="446.6479"
           cx="6.2928205"
           cy="214.47246"
           r="1.511905" />
        <circle
           style="fill:#000000;fill-opacity:0.501961;stroke:none;stroke-width:0.0330729"
           id="path3382"
           inkscape:tile-x0="241.42856"
           inkscape:tile-y0="446.6479"
           cx="22.15081"
           cy="135.1825"
           r="1.511905" />
        <circle
           style="fill:#000000;fill-opacity:0.501961;stroke:none;stroke-width:0.0330729"
           id="path3384"
           inkscape:tile-x0="241.42856"
           inkscape:tile-y0="446.6479"
           cx="22.15081"
           cy="151.04048"
           r="1.511905" />
        <circle
           style="fill:#000000;fill-opacity:0.501961;stroke:none;stroke-width:0.0330729"
           id="path3386"
           inkscape:tile-x0="241.42856"
           inkscape:tile-y0="446.6479"
           cx="22.15081"
           cy="166.89848"
           r="1.511905" />
        <circle
           style="fill:#000000;fill-opacity:0.50237;stroke:none;stroke-width:0.0330729"
           id="path3388"
           inkscape:tile-x0="241.42856"
           inkscape:tile-y0="446.6479"
           cx="22.15081"
           cy="182.75648"
           r="1.511905" />
        <circle
           style="fill:#000000;fill-opacity:0.50237;stroke:none;stroke-width:0.0330729"
           id="path3390"
           inkscape:tile-x0="241.42856"
           inkscape:tile-y0="446.6479"
           cx="22.15081"
           cy="198.61447"
           r="1.511905" />
        <circle
           style="fill:#000000;fill-opacity:0.50237;stroke:none;stroke-width:0.0330729"
           id="path3392"
           inkscape:tile-x0="241.42856"
           inkscape:tile-y0="446.6479"
           cx="22.15081"
           cy="214.47246"
           r="1.511905" />
        <circle
           style="fill:#000000;fill-opacity:0.501961;stroke:none;stroke-width:0.0330729"
           id="path3396"
           inkscape:tile-x0="241.42856"
           inkscape:tile-y0="446.6479"
           cx="38.008804"
           cy="135.1825"
           r="1.511905" />
        <circle
           style="fill:#000000;fill-opacity:0.501961;stroke:none;stroke-width:0.0330729"
           id="path3398"
           inkscape:tile-x0="241.42856"
           inkscape:tile-y0="446.6479"
           cx="38.008804"
           cy="151.04048"
           r="1.511905" />
        <circle
           style="fill:#000000;fill-opacity:0.501961;stroke:none;stroke-width:0.0330729"
           id="path3400"
           inkscape:tile-x0="241.42856"
           inkscape:tile-y0="446.6479"
           cx="38.008804"
           cy="166.89848"
           r="1.511905" />
        <circle
           style="fill:#000000;fill-opacity:0.50237;stroke:none;stroke-width:0.0330729"
           id="path3402"
           inkscape:tile-x0="241.42856"
           inkscape:tile-y0="446.6479"
           cx="38.008804"
           cy="182.75648"
           r="1.511905" />
        <circle
           style="fill:#000000;fill-opacity:0.50237;stroke:none;stroke-width:0.0330729"
           id="path3404"
           inkscape:tile-x0="241.42856"
           inkscape:tile-y0="446.6479"
           cx="38.008804"
           cy="198.61447"
           r="1.511905" />
        <circle
           style="fill:#000000;fill-opacity:0.50237;stroke:none;stroke-width:0.0330729"
           id="path3406"
           inkscape:tile-x0="241.42856"
           inkscape:tile-y0="446.6479"
           cx="38.008804"
           cy="214.47246"
           r="1.511905" />
        <circle
           style="fill:#000000;fill-opacity:0.501961;stroke:none;stroke-width:0.0330729"
           id="path3410"
           inkscape:tile-x0="241.42856"
           inkscape:tile-y0="446.6479"
           cx="53.866798"
           cy="135.1825"
           r="1.511905" />
        <circle
           style="fill:#000000;fill-opacity:0.501961;stroke:none;stroke-width:0.0330729"
           id="path3412"
           inkscape:tile-x0="241.42856"
           inkscape:tile-y0="446.6479"
           cx="53.866798"
           cy="151.04048"
           r="1.511905" />
        <circle
           style="fill:#000000;fill-opacity:0.501961;stroke:none;stroke-width:0.0330729"
           id="path3414"
           inkscape:tile-x0="241.42856"
           inkscape:tile-y0="446.6479"
           cx="53.866798"
           cy="166.89848"
           r="1.511905" />
        <circle
           style="opacity:0.27;fill:#000000;fill-opacity:1;stroke:none;stroke-width:0.0330729"
           id="path3416"
           inkscape:tile-x0="241.42856"
           inkscape:tile-y0="446.6479"
           cx="53.866798"
           cy="182.75648"
           r="1.511905" />
        <circle
           style="opacity:0.27;fill:#000000;fill-opacity:1;stroke:none;stroke-width:0.0330729"
           id="path3418"
           inkscape:tile-x0="241.42856"
           inkscape:tile-y0="446.6479"
           cx="53.866798"
           cy="198.61447"
           r="1.511905" />
        <circle
           style="opacity:0.27;fill:#000000;fill-opacity:1;stroke:none;stroke-width:0.0330729"
           id="path3420"
           inkscape:tile-x0="241.42856"
           inkscape:tile-y0="446.6479"
           cx="53.866798"
           cy="214.47246"
           r="1.511905" />
        <circle
           style="fill:#000000;fill-opacity:0.501961;stroke:none;stroke-width:0.0330729"
           id="path3424"
           inkscape:tile-x0="241.42856"
           inkscape:tile-y0="446.6479"
           cx="69.724785"
           cy="135.1825"
           r="1.511905" />
        <circle
           style="fill:#000000;fill-opacity:0.501961;stroke:none;stroke-width:0.0330729"
           id="path3426"
           inkscape:tile-x0="241.42856"
           inkscape:tile-y0="446.6479"
           cx="69.724785"
           cy="151.04048"
           r="1.511905" />
        <circle
           style="fill:#000000;fill-opacity:0.501961;stroke:none;stroke-width:0.0330729"
           id="path3428"
           inkscape:tile-x0="241.42856"
           inkscape:tile-y0="446.6479"
           cx="69.724785"
           cy="166.89848"
           r="1.511905" />
        <circle
           style="opacity:0.27;fill:#000000;fill-opacity:1;stroke:none;stroke-width:0.0330729"
           id="path3430"
           inkscape:tile-x0="241.42856"
           inkscape:tile-y0="446.6479"
           cx="69.724785"
           cy="182.75648"
           r="1.511905" />
        <circle
           style="opacity:0.27;fill:#000000;fill-opacity:1;stroke:none;stroke-width:0.0330729"
           id="path3432"
           inkscape:tile-x0="241.42856"
           inkscape:tile-y0="446.6479"
           cx="69.724785"
           cy="198.61447"
           r="1.511905" />
        <circle
           style="opacity:0.27;fill:#000000;fill-opacity:1;stroke:none;stroke-width:0.0330729"
           id="path3434"
           inkscape:tile-x0="241.42856"
           inkscape:tile-y0="446.6479"
           cx="69.724785"
           cy="214.47246"
           r="1.511905" />
        <circle
           style="fill:#000000;fill-opacity:0.501961;stroke:none;stroke-width:0.0330729"
           id="path3438"
           inkscape:tile-x0="241.42856"
           inkscape:tile-y0="446.6479"
           cx="85.582771"
           cy="135.1825"
           r="1.511905" />
        <circle
           style="fill:#000000;fill-opacity:0.501961;stroke:none;stroke-width:0.0330729"
           id="path3440"
           inkscape:tile-x0="241.42856"
           inkscape:tile-y0="446.6479"
           cx="85.582771"
           cy="151.04048"
           r="1.511905" />
        <circle
           style="fill:#000000;fill-opacity:0.501961;stroke:none;stroke-width:0.0330729"
           id="path3442"
           inkscape:tile-x0="241.42856"
           inkscape:tile-y0="446.6479"
           cx="85.582771"
           cy="166.89848"
           r="1.511905" />
        <circle
           style="opacity:0.27;fill:#000000;fill-opacity:1;stroke:none;stroke-width:0.0330729"
           id="path3444"
           inkscape:tile-x0="241.42856"
           inkscape:tile-y0="446.6479"
           cx="85.582771"
           cy="182.75648"
           r="1.511905" />
        <circle
           style="opacity:0.27;fill:#000000;fill-opacity:1;stroke:none;stroke-width:0.0330729"
           id="path3446"
           inkscape:tile-x0="241.42856"
           inkscape:tile-y0="446.6479"
           cx="85.582771"
           cy="198.61447"
           r="1.511905" />
        <circle
           style="opacity:0.27;fill:#000000;fill-opacity:1;stroke:none;stroke-width:0.0330729"
           id="path3448"
           inkscape:tile-x0="241.42856"
           inkscape:tile-y0="446.6479"
           cx="85.582771"
           cy="214.47246"
           r="1.511905" />
        <circle
           inkscape:tile-y0="446.6479"
           inkscape:tile-x0="241.42856"
           id="use3091"
           style="fill:#000000;fill-opacity:1;stroke:none;stroke-width:0.0330729"
           cx="-2.4636261"
           cy="145.00987"
           r="1.511905" />
        <circle
           inkscape:tile-y0="446.6479"
           inkscape:tile-x0="241.42856"
           id="use3093"
           style="fill:#000000;fill-opacity:1;stroke:none;stroke-width:0.0330729"
           cx="-2.4636261"
           cy="160.86787"
           r="1.511905" />
        <circle
           inkscape:tile-y0="446.6479"
           inkscape:tile-x0="241.42856"
           id="use3095"
           style="fill:#000000;fill-opacity:1;stroke:none;stroke-width:0.0330729"
           cx="-2.4636261"
           cy="176.72588"
           r="1.511905" />
        <circle
           inkscape:tile-y0="446.6479"
           inkscape:tile-x0="241.42856"
           id="use3097"
           style="fill:#000000;fill-opacity:1;stroke:none;stroke-width:0.0330729"
           cx="-2.4636261"
           cy="192.58386"
           r="1.511905" />
        <circle
           inkscape:tile-y0="446.6479"
           inkscape:tile-x0="241.42856"
           id="use3099"
           style="fill:#000000;fill-opacity:1;stroke:none;stroke-width:0.0330729"
           cx="-2.4636261"
           cy="208.44185"
           r="1.511905" />
        <circle
           inkscape:tile-y0="446.6479"
           inkscape:tile-x0="241.42856"
           id="use3101"
           style="fill:#000000;fill-opacity:1;stroke:none;stroke-width:0.0330729"
           cx="-2.4636261"
           cy="224.29984"
           r="1.511905" />
        <circle
           inkscape:tile-y0="446.6479"
           inkscape:tile-x0="241.42856"
           id="use3105"
           style="fill:#000000;fill-opacity:1;stroke:none;stroke-width:0.0330729"
           cx="13.394364"
           cy="145.00987"
           r="1.511905" />
        <circle
           inkscape:tile-y0="446.6479"
           inkscape:tile-x0="241.42856"
           id="use3107"
           style="fill:#000000;fill-opacity:1;stroke:none;stroke-width:0.0330729"
           cx="13.394364"
           cy="160.86787"
           r="1.511905" />
        <circle
           inkscape:tile-y0="446.6479"
           inkscape:tile-x0="241.42856"
           id="use3109"
           style="fill:#000000;fill-opacity:1;stroke:none;stroke-width:0.0330729"
           cx="13.394364"
           cy="176.72588"
           r="1.511905" />
        <circle
           inkscape:tile-y0="446.6479"
           inkscape:tile-x0="241.42856"
           id="use3111"
           style="fill:#000000;fill-opacity:1;stroke:none;stroke-width:0.0330729"
           cx="13.394364"
           cy="192.58386"
           r="1.511905" />
        <circle
           inkscape:tile-y0="446.6479"
           inkscape:tile-x0="241.42856"
           id="use3113"
           style="fill:#000000;fill-opacity:1;stroke:none;stroke-width:0.0330729"
           cx="13.394364"
           cy="208.44185"
           r="1.511905" />
        <circle
           inkscape:tile-y0="446.6479"
           inkscape:tile-x0="241.42856"
           id="use3115"
           style="fill:#000000;fill-opacity:1;stroke:none;stroke-width:0.0330729"
           cx="13.394364"
           cy="224.29984"
           r="1.511905" />
        <circle
           inkscape:tile-y0="446.6479"
           inkscape:tile-x0="241.42856"
           id="use3119"
           style="fill:#000000;fill-opacity:1;stroke:none;stroke-width:0.0330729"
           cx="29.252357"
           cy="145.00987"
           r="1.511905" />
        <circle
           inkscape:tile-y0="446.6479"
           inkscape:tile-x0="241.42856"
           id="use3121"
           style="fill:#000000;fill-opacity:1;stroke:none;stroke-width:0.0330729"
           cx="29.252357"
           cy="160.86787"
           r="1.511905" />
        <circle
           inkscape:tile-y0="446.6479"
           inkscape:tile-x0="241.42856"
           id="use3123"
           style="fill:#000000;fill-opacity:1;stroke:none;stroke-width:0.0330729"
           cx="29.252357"
           cy="176.72588"
           r="1.511905" />
        <circle
           inkscape:tile-y0="446.6479"
           inkscape:tile-x0="241.42856"
           id="use3125"
           style="fill:#000000;fill-opacity:1;stroke:none;stroke-width:0.0330729"
           cx="29.252357"
           cy="192.58386"
           r="1.511905" />
        <circle
           inkscape:tile-y0="446.6479"
           inkscape:tile-x0="241.42856"
           id="use3127"
           style="fill:#000000;fill-opacity:1;stroke:none;stroke-width:0.0330729"
           cx="29.252357"
           cy="208.44185"
           r="1.511905" />
        <circle
           inkscape:tile-y0="446.6479"
           inkscape:tile-x0="241.42856"
           id="use3129"
           style="fill:#000000;fill-opacity:1;stroke:none;stroke-width:0.0330729"
           cx="29.252357"
           cy="224.29984"
           r="1.511905" />
        <circle
           inkscape:tile-y0="446.6479"
           inkscape:tile-x0="241.42856"
           id="use3133"
           style="fill:#000000;fill-opacity:1;stroke:none;stroke-width:0.0330729"
           cx="45.110355"
           cy="145.00987"
           r="1.511905" />
        <circle
           inkscape:tile-y0="446.6479"
           inkscape:tile-x0="241.42856"
           id="use3135"
           style="fill:#000000;fill-opacity:1;stroke:none;stroke-width:0.0330729"
           cx="45.110355"
           cy="160.86787"
           r="1.511905" />
        <circle
           inkscape:tile-y0="446.6479"
           inkscape:tile-x0="241.42856"
           id="use3137"
           style="fill:#000000;fill-opacity:1;stroke:none;stroke-width:0.0330729"
           cx="45.110355"
           cy="176.72588"
           r="1.511905" />
        <circle
           inkscape:tile-y0="446.6479"
           inkscape:tile-x0="241.42856"
           id="use3139"
           style="fill:#000000;fill-opacity:1;stroke:none;stroke-width:0.0330729"
           cx="45.110355"
           cy="192.58386"
           r="1.511905" />
        <circle
           inkscape:tile-y0="446.6479"
           inkscape:tile-x0="241.42856"
           id="use3141"
           style="fill:#000000;fill-opacity:1;stroke:none;stroke-width:0.0330729"
           cx="45.110355"
           cy="208.44185"
           r="1.511905" />
        <circle
           inkscape:tile-y0="446.6479"
           inkscape:tile-x0="241.42856"
           id="use3143"
           style="fill:#000000;fill-opacity:1;stroke:none;stroke-width:0.0330729"
           cx="45.110355"
           cy="224.29984"
           r="1.511905" />
        <circle
           inkscape:tile-y0="446.6479"
           inkscape:tile-x0="241.42856"
           id="use3147"
           style="fill:#000000;fill-opacity:1;stroke:none;stroke-width:0.0330729"
           cx="60.968334"
           cy="145.00987"
           r="1.511905" />
        <circle
           inkscape:tile-y0="446.6479"
           inkscape:tile-x0="241.42856"
           id="use3149"
           style="fill:#000000;fill-opacity:1;stroke:none;stroke-width:0.0330729"
           cx="60.968334"
           cy="160.86787"
           r="1.511905" />
        <circle
           inkscape:tile-y0="446.6479"
           inkscape:tile-x0="241.42856"
           id="use3151"
           style="fill:#000000;fill-opacity:1;stroke:none;stroke-width:0.0330729"
           cx="60.968334"
           cy="176.72588"
           r="1.511905" />
        <circle
           inkscape:tile-y0="446.6479"
           inkscape:tile-x0="241.42856"
           id="use3153"
           style="fill:#000000;fill-opacity:1;stroke:none;stroke-width:0.0330729"
           cx="60.968334"
           cy="192.58386"
           r="1.511905" />
        <circle
           inkscape:tile-y0="446.6479"
           inkscape:tile-x0="241.42856"
           id="use3155"
           style="fill:#000000;fill-opacity:1;stroke:none;stroke-width:0.0330729"
           cx="60.968334"
           cy="208.44185"
           r="1.511905" />
        <circle
           inkscape:tile-y0="446.6479"
           inkscape:tile-x0="241.42856"
           id="use3157"
           style="fill:#000000;fill-opacity:1;stroke:none;stroke-width:0.0330729"
           cx="60.968334"
           cy="224.29984"
           r="1.511905" />
        <circle
           inkscape:tile-y0="446.6479"
           inkscape:tile-x0="241.42856"
           id="use3161"
           style="fill:#000000;fill-opacity:1;stroke:none;stroke-width:0.0330729"
           cx="76.826324"
           cy="145.00987"
           r="1.511905" />
        <circle
           inkscape:tile-y0="446.6479"
           inkscape:tile-x0="241.42856"
           id="use3163"
           style="fill:#000000;fill-opacity:1;stroke:none;stroke-width:0.0330729"
           cx="76.826324"
           cy="160.86787"
           r="1.511905" />
        <circle
           inkscape:tile-y0="446.6479"
           inkscape:tile-x0="241.42856"
           id="use3165"
           style="fill:#000000;fill-opacity:1;stroke:none;stroke-width:0.0330729"
           cx="76.826324"
           cy="176.72588"
           r="1.511905" />
        <circle
           inkscape:tile-y0="446.6479"
           inkscape:tile-x0="241.42856"
           id="use3167"
           style="fill:#000000;fill-opacity:1;stroke:none;stroke-width:0.0330729"
           cx="76.826324"
           cy="192.58386"
           r="1.511905" />
        <circle
           inkscape:tile-y0="446.6479"
           inkscape:tile-x0="241.42856"
           id="use3169"
           style="fill:#000000;fill-opacity:1;stroke:none;stroke-width:0.0330729"
           cx="76.826324"
           cy="208.44185"
           r="1.511905" />
        <circle
           inkscape:tile-y0="446.6479"
           inkscape:tile-x0="241.42856"
           id="use3171"
           style="fill:#000000;fill-opacity:1;stroke:none;stroke-width:0.0330729"
           cx="76.826324"
           cy="224.29984"
           r="1.511905" />
      </g>
      <path
         d="m 154.88544,96.259646 q 1e-5,-0.251964 0.10308,-0.40086 l 2.61128,-4.100167 q 0.10308,-0.171796 0.18325,-0.206149 0.0802,-0.03438 0.29778,-0.03435 l 0.32068,-3.31e-4 q 0.28632,4.89e-4 0.37795,0.09157 0.0916,0.09158 0.0916,0.377952 l -1e-5,4.031452 0.89334,-3.53e-4 q 0.13743,-5e-6 0.20615,0.01147 0.0802,0.01142 0.16034,0.103065 0.0916,0.08018 0.0916,0.24052 2e-5,0.343595 -0.45812,0.343592 l -0.89333,3.52e-4 -4e-5,1.236917 0.71009,-3.06e-4 q 0.13744,-5e-6 0.20616,0.01147 0.0802,0.01152 0.16034,0.103086 0.0916,0.08018 0.0916,0.24051 1e-5,0.343585 -0.45812,0.343591 l -2.06154,-2.5e-5 q -0.45812,-3.83e-4 -0.45812,-0.343588 0,-0.160342 0.0802,-0.240506 0.0916,-0.09162 0.16034,-0.103087 0.0802,-0.01148 0.21761,-0.01147 l 0.71009,-3.06e-4 3e-5,-1.236927 -2.88615,-1.5e-5 q -0.27487,-4.3e-4 -0.3665,-0.09161 -0.0916,-0.09158 -0.0916,-0.366491 z m 0.80171,-0.240513 2.54257,2.8e-5 0,-3.997091 z m 5.50889,1.168206 q -3e-5,-0.801711 0.92769,-1.236921 0.93915,-0.44667 2.50821,-0.469577 4e-5,-0.584098 -0.3894,-0.870428 -0.38941,-0.29777 -1.07659,-0.297775 -0.25196,-3.1e-4 -0.4123,0.01146 -0.1718,0.01151 -0.20616,0.03443 -0.0344,0.02292 -0.0344,0.09162 -0.0115,0.286324 -0.17179,0.412302 -0.16034,0.114537 -0.33214,0.114533 -0.2176,-1.32e-4 -0.36649,-0.137438 -0.14889,-0.137427 -0.14889,-0.3894 5e-5,-0.836068 1.66068,-0.836069 1.13385,-1.01e-4 1.69505,0.538283 0.57265,0.538307 0.57265,1.236936 l 0,2.473853 q 0.24051,0.09155 0.68718,0.09158 0.45811,3.83e-4 0.45812,0.343588 0,0.171802 -0.0916,0.251967 -0.0802,0.08018 -0.18324,0.09165 -0.0916,0.01152 -0.29778,0.01145 -0.97351,-6.4e-5 -1.23693,-0.36649 -0.66427,0.43521 -1.67213,0.435207 -0.84752,-4.09e-4 -1.37436,-0.458126 -0.51539,-0.458118 -0.51539,-1.076576 z m 0.79025,1.11e-4 q 2e-5,0.343585 0.33214,0.595556 0.33214,0.240511 0.84752,0.240513 0.60701,1.58e-4 1.01932,-0.1947 0.20616,-0.09163 0.30923,-0.217614 0.10308,-0.137436 0.11453,-0.229058 0.0229,-0.09158 0.0229,-0.263414 l 1e-5,-0.962053 q -1.22547,0.03442 -1.93556,0.320675 -0.71009,0.286339 -0.71009,0.710095 z m 5.00496,-0.996415 q 0,-1.076575 0.69863,-1.80958 0.69864,-0.732982 1.64924,-0.732987 0.7559,-6.7e-5 1.34,0.515395 l 10e-6,-1.809581 -0.51538,3.19e-4 q -0.45812,-3.84e-4 -0.45812,-0.343588 4e-5,-0.355045 0.46957,-0.355042 l 0.83607,3.49e-4 q 0.28632,4.9e-4 0.36649,0.103079 0.0916,0.09158 0.0916,0.366501 l 0,5.829566 0.51538,-3.19e-4 q 0.45812,3.84e-4 0.45812,0.343588 6e-5,0.355045 -0.46957,0.355042 l -0.83607,-3.49e-4 q -0.32068,3.31e-4 -0.3894,-0.114528 -0.0687,-0.114529 -0.0687,-0.458124 -0.61846,0.641372 -1.44307,0.641372 -0.91625,2.33e-4 -1.58052,-0.732993 -0.66427,-0.744446 -0.66427,-1.79812 z m 0.79026,1.11e-4 q -4e-5,0.7559 0.43521,1.294192 0.44667,0.538291 1.06513,0.538288 0.60701,1.58e-4 0.99641,-0.515383 0.40086,-0.526831 0.40086,-1.076579 l 3e-5,-0.813161 q -4e-5,-0.492487 -0.37795,-0.881888 -0.37795,-0.389392 -0.91624,-0.389392 -0.62992,-2.77e-4 -1.1224,0.526828 -0.48102,0.526835 -0.48102,1.317095 z m 5.3829,-1.04222 q -1e-5,-1.534707 0.72154,-2.576928 0.72154,-1.04222 1.7065,-1.042216 0.9735,6.5e-5 1.69504,1.042223 0.73299,1.030767 0.733,2.588375 1e-5,1.534701 -0.72154,2.576921 -0.72154,1.042231 -1.7065,1.042226 -0.97351,-6.4e-5 -1.7065,-1.030772 -0.72154,-1.042228 -0.72154,-2.599829 z m 0.79026,-0.11453 q -5e-5,1.259837 0.48103,2.153162 0.48102,0.893334 1.15675,0.89333 0.67573,-4.85e-4 1.15675,-0.893324 0.48103,-0.89333 0.48103,-2.153167 -3e-5,-1.225474 -0.49248,-2.015726 -0.49248,-0.790263 -1.1453,-0.790259 -0.65282,-3.97e-4 -1.1453,0.801712 -0.49248,0.790259 -0.49248,2.004272 z m 6.04718,2.94342 q -0.76735,-0.755892 -0.76735,-1.809576 4.8e-4,-1.053672 0.72154,-1.798121 0.72154,-0.755893 1.74086,-0.7559 1.06512,-4.59e-4 1.63777,0.698637 0.58411,0.687188 0.5841,1.729402 1e-5,0.148892 -0.0343,0.240514 -0.0344,0.09162 -0.11452,0.137436 -0.0687,0.03444 -0.13744,0.04579 -0.0573,-8e-6 -0.1718,-4e-6 l -3.41299,4.4e-5 q 0.13743,0.710085 0.67573,1.133841 0.54974,0.423766 1.22547,0.423761 0.89333,-3.52e-4 1.19111,-0.687172 0.0572,-0.160345 0.13744,-0.206168 0.0801,-0.04578 0.24051,-0.04575 0.40085,8.6e-5 0.40085,0.32069 1e-5,0.125982 -0.11453,0.332129 -0.11452,0.194707 -0.34358,0.435228 -0.21761,0.229061 -0.64137,0.389399 -0.42376,0.160337 -0.95061,0.160337 -1.09948,2.79e-4 -1.86683,-0.744443 z m 0.0572,-2.198972 3.0465,-5e-5 q -0.0687,-0.801719 -0.46957,-1.133859 -0.40086,-0.33213 -0.93915,-0.33213 -0.59556,-9.8e-5 -1.05368,0.423764 -0.45812,0.412312 -0.5841,1.042225 z m 5.15385,1.24838 q -4.5e-4,-0.297786 0.16034,-0.423762 0.17179,-0.125998 0.35504,-0.125994 0.19471,1.3e-5 0.34359,0.137439 0.16034,0.137446 0.16034,0.377949 -1.3e-4,0.217613 -0.14889,0.366491 0.3665,0.721546 1.37437,0.72154 0.73299,-1.87e-4 1.24838,-0.458122 0.52683,-0.469565 0.52683,-1.145295 1.6e-4,-0.607007 -0.40085,-1.08803 -0.38941,-0.492482 -1.05369,-0.492478 -0.96204,-5e-6 -1.44306,0.57265 -0.13745,0.171787 -0.3436,0.171785 -0.17179,6e-6 -0.26342,-0.08017 -0.0801,-0.09162 -0.0916,-0.160338 -0.0115,-0.08016 -0.0114,-0.229053 l -5e-5,-3.046498 q 4.3e-4,-0.274872 0.0916,-0.366499 0.0916,-0.103074 0.3665,-0.103074 l 3.08086,2.8e-5 q 0.13744,5e-6 0.20615,0.01147 0.0801,0.01142 0.16034,0.103075 0.0916,0.08018 0.0916,0.24051 2.2e-4,0.343596 -0.45812,0.343591 l -2.74872,0 -2e-5,2.176067 q 0.61846,-0.332127 1.37436,-0.332135 0.9735,6.5e-5 1.60343,0.687181 0.62991,0.687187 0.6299,1.591959 6e-5,0.950603 -0.74444,1.626339 -0.74444,0.675726 -1.82103,0.675725 -0.95059,5.5e-5 -1.60342,-0.515388 -0.64137,-0.515384 -0.64136,-1.236924 z m 6.01282,-1.9e-5 q 5.5e-4,-0.297771 0.16034,-0.423751 0.17179,-0.125998 0.35505,-0.125995 0.19469,1.3e-5 0.34359,0.13744 0.16033,0.137436 0.16033,0.377949 -1.3e-4,0.217612 -0.14889,0.36649 0.3665,0.721537 1.37437,0.72154 0.73299,-1.86e-4 1.24837,-0.458121 0.52684,-0.469566 0.52684,-1.145295 1.6e-4,-0.607007 -0.40085,-1.08803 -0.3894,-0.492483 -1.05368,-0.492479 -0.96206,-5e-6 -1.44308,0.572651 -0.13744,0.171787 -0.34359,0.171784 -0.17179,-3e-6 -0.26342,-0.08017 -0.0802,-0.09162 -0.0916,-0.160339 -0.0115,-0.08016 -0.0114,-0.229062 l -5e-5,-3.046489 q 4.3e-4,-0.274871 0.0916,-0.366498 0.0916,-0.103075 0.3665,-0.103075 l 3.08086,2.8e-5 q 0.13743,-5e-6 0.20615,0.01147 0.0801,0.01142 0.16035,0.103076 0.0916,0.08018 0.0917,0.24051 2.1e-4,0.343595 -0.45813,0.343591 l -2.74871,0 -3e-5,2.176066 q 0.61846,-0.332127 1.37436,-0.332134 0.9735,6.4e-5 1.60342,0.687181 0.62992,0.687186 0.62991,1.591958 6e-5,0.950604 -0.74444,1.62633 -0.74444,0.675736 -1.82103,0.675735 -0.95059,5.4e-5 -1.60342,-0.515389 -0.64137,-0.515384 -0.64136,-1.236923 z"
         id="path7"
         style="font-size:11.453px;font-family:'CMU Typewriter Text';-inkscape-font-specification:'CMU Typewriter Text';letter-spacing:0px;stroke-width:4.05815;stroke-linecap:round;stroke-linejoin:bevel;stroke-miterlimit:3.9;paint-order:fill markers stroke"
         aria-label="4ad0e55" />
    </g>
  </g>
</svg>
