<?xml version="1.0" encoding="UTF-8" standalone="no"?>
<!-- Created with Inkscape (http://www.inkscape.org/) -->

<svg
   width="282.65771mm"
   height="4.4390998mm"
   viewBox="0 0 282.65771 4.4390998"
   version="1.1"
   id="svg1"
   inkscape:version="1.3 (0e150ed, 2023-07-21)"
   sodipodi:docname="prng.svg"
   xmlns:inkscape="http://www.inkscape.org/namespaces/inkscape"
   xmlns:sodipodi="http://sodipodi.sourceforge.net/DTD/sodipodi-0.dtd"
   xmlns="http://www.w3.org/2000/svg"
   xmlns:svg="http://www.w3.org/2000/svg">
  <sodipodi:namedview
     id="namedview1"
     pagecolor="#ffffff"
     bordercolor="#000000"
     borderopacity="0.25"
     inkscape:showpageshadow="2"
     inkscape:pageopacity="0.0"
     inkscape:pagecheckerboard="0"
     inkscape:deskcolor="#d1d1d1"
     inkscape:document-units="mm"
     inkscape:zoom="0.98187629"
     inkscape:cx="521.95985"
     inkscape:cy="-39.719871"
     inkscape:window-width="1920"
     inkscape:window-height="1027"
     inkscape:window-x="0"
     inkscape:window-y="25"
     inkscape:window-maximized="1"
     inkscape:current-layer="layer1" />
  <defs
     id="defs1">
    <marker
       style="overflow:visible"
       id="ArrowWideRounded"
       refX="0"
       refY="0"
       orient="auto-start-reverse"
       inkscape:stockid="Wide, rounded arrow"
       markerWidth="1"
       markerHeight="1"
       viewBox="0 0 1 1"
       inkscape:isstock="true"
       inkscape:collect="always"
       preserveAspectRatio="xMidYMid">
      <path
         style="fill:none;stroke:context-stroke;stroke-width:1;stroke-linecap:round"
         d="M 3,-3 0,0 3,3"
         transform="rotate(180,0.125,0)"
         sodipodi:nodetypes="ccc"
         id="path2" />
    </marker>
  </defs>
  <g
     inkscape:label="Layer 1"
     inkscape:groupmode="layer"
     id="layer1"
     transform="translate(33.18651,-127.80995)">
    <path
       d="m 200.88562,132.1089 q 0,-0.1143 0.006,-0.14605 0.0127,-0.0381 0.0635,-0.0889 l 1.2192,-1.3589 q 0.66675,-0.7493 0.66675,-1.40335 0,-0.42545 -0.22225,-0.73025 -0.22225,-0.3048 -0.62865,-0.3048 -0.2794,0 -0.51435,0.17145 -0.23495,0.17145 -0.3429,0.47625 0.019,-0.006 0.0825,-0.006 0.15875,0 0.24765,0.1016 0.0889,0.0952 0.0889,0.2286 0,0.17145 -0.1143,0.254 -0.10795,0.0825 -0.2159,0.0825 -0.0445,0 -0.1016,-0.006 -0.0571,-0.0127 -0.14605,-0.1016 -0.0889,-0.0889 -0.0889,-0.24765 0,-0.4445 0.33655,-0.79375 0.33655,-0.3556 0.8509,-0.3556 0.5842,0 0.9652,0.34925 0.381,0.3429 0.381,0.88265 0,0.1905 -0.0572,0.36195 -0.0572,0.17145 -0.13335,0.3048 -0.0762,0.13335 -0.2794,0.34925 -0.2032,0.20955 -0.3683,0.36195 -0.1651,0.1524 -0.5334,0.47625 l -0.6731,0.65405 h 1.143 q 0.5588,0 0.60325,-0.0508 0.0635,-0.0889 0.1397,-0.56515 h 0.15875 l -0.1778,1.1049 z m 3.12418,-0.85725 q 0,-0.1905 0.10795,-0.2794 0.10795,-0.0889 0.24765,-0.0889 0.14605,0 0.24765,0.0952 0.10795,0.0952 0.10795,0.26035 0,0.1778 -0.127,0.2794 -0.12065,0.0952 -0.2921,0.0699 0.1524,0.254 0.4318,0.3683 0.2794,0.1143 0.53975,0.1143 0.27305,0 0.4953,-0.23495 0.22225,-0.23495 0.22225,-0.8128 0,-0.48895 -0.1905,-0.76835 -0.1905,-0.28575 -0.56515,-0.28575 h -0.2794 q -0.0952,0 -0.127,-0.006 -0.0254,-0.0127 -0.0254,-0.0635 0,-0.0635 0.0952,-0.0762 0.0952,0 0.24765,-0.019 0.3683,-0.0127 0.56515,-0.3302 0.1778,-0.29845 0.1778,-0.7239 0,-0.38735 -0.18415,-0.5461 -0.18415,-0.1651 -0.42545,-0.1651 -0.22225,0 -0.4699,0.0953 -0.2413,0.0889 -0.37465,0.29845 0.3937,0 0.3937,0.3175 0,0.1397 -0.0889,0.23495 -0.0889,0.0889 -0.23495,0.0889 -0.1397,0 -0.23495,-0.0889 -0.0889,-0.0889 -0.0889,-0.2413 0,-0.36195 0.32385,-0.6096 0.32385,-0.254 0.8001,-0.254 0.4699,0 0.81915,0.24765 0.34925,0.24765 0.34925,0.62865 0,0.37465 -0.24765,0.6858 -0.24765,0.3048 -0.64135,0.4318 0.4826,0.0952 0.76835,0.42545 0.2921,0.32385 0.2921,0.7239 0,0.4953 -0.3937,0.8636 -0.38735,0.36195 -0.95885,0.36195 -0.52705,0 -0.90805,-0.28575 -0.37465,-0.28575 -0.37465,-0.7112 z m 3.08609,-0.1905 v -0.19685 l 1.94945,-2.97815 q 0.0508,-0.0762 0.127,-0.0762 0.0699,0 0.0825,0.0318 0.0191,0.0254 0.0191,0.13335 v 2.88925 h 0.635 v 0.19685 h -0.635 v 0.55245 q 0,0.18415 0.0762,0.2413 0.0762,0.0572 0.4064,0.0572 h 0.13335 v 0.19685 q -0.26035,-0.019 -0.8636,-0.019 -0.5969,0 -0.85725,0.019 v -0.19685 h 0.13335 q 0.3302,0 0.4064,-0.0572 0.0762,-0.0571 0.0762,-0.2413 v -0.55245 z m 0.1778,-0.19685 h 1.5494 v -2.36855 z m 3.13689,0.22225 q 0,-0.1905 0.1016,-0.26035 0.1016,-0.0762 0.20955,-0.0762 0.14605,0 0.2286,0.0952 0.0889,0.0889 0.0889,0.2159 0,0.127 -0.0889,0.22225 -0.0825,0.0889 -0.2286,0.0889 -0.0699,0 -0.10795,-0.0127 0.0825,0.2921 0.33655,0.50165 0.26035,0.20955 0.5969,0.20955 0.42545,0 0.67945,-0.41275 0.1524,-0.2667 0.1524,-0.86995 0,-0.5334 -0.1143,-0.8001 -0.1778,-0.4064 -0.53975,-0.4064 -0.51435,0 -0.81915,0.4445 -0.0381,0.0571 -0.0825,0.0571 -0.0635,0 -0.0762,-0.0317 -0.0127,-0.0381 -0.0127,-0.13335 v -1.8796 q 0,-0.1524 0.0635,-0.1524 0.0254,0 0.0762,0.019 0.40005,0.1778 0.84455,0.1778 0.4572,0 0.8636,-0.18415 0.0318,-0.019 0.0508,-0.019 0.0635,0 0.0635,0.0699 0,0.0254 -0.0508,0.1016 -0.0508,0.0699 -0.15875,0.1651 -0.10795,0.0952 -0.24765,0.18415 -0.1397,0.0889 -0.3429,0.1524 -0.2032,0.0572 -0.42545,0.0572 -0.2667,0 -0.53975,-0.0825 v 1.23825 q 0.3302,-0.32385 0.80645,-0.32385 0.508,0 0.85725,0.41275 0.34925,0.4064 0.34925,0.9779 0,0.5969 -0.41275,1.00965 -0.41275,0.4064 -0.97155,0.4064 -0.508,0 -0.83185,-0.36195 -0.3175,-0.36195 -0.3175,-0.8001 z m 3.12419,0.0635 q 0,-0.7112 0.9144,-1.1684 -0.3937,-0.2667 -0.46355,-0.3429 -0.2794,-0.31115 -0.2794,-0.6985 0,-0.4445 0.33655,-0.7493 0.33655,-0.31115 0.8128,-0.31115 0.4572,0 0.8001,0.2667 0.3429,0.26035 0.3429,0.67945 0,0.59055 -0.76835,0.98425 0.508,0.3175 0.62865,0.45085 0.31115,0.3429 0.31115,0.78105 0,0.508 -0.3937,0.85725 -0.38735,0.34925 -0.9271,0.34925 -0.52705,0 -0.92075,-0.3048 -0.3937,-0.31115 -0.3937,-0.79375 z m 0.3175,0 q 0,0.3937 0.2921,0.6604 0.29845,0.26035 0.7112,0.26035 0.40005,0 0.6985,-0.2286 0.29845,-0.2286 0.29845,-0.5715 0,-0.13335 -0.0445,-0.24765 -0.0444,-0.1143 -0.13335,-0.2032 -0.0889,-0.0952 -0.14605,-0.13335 -0.0508,-0.0444 -0.1524,-0.1143 l -0.78105,-0.4953 q -0.74295,0.41275 -0.74295,1.07315 z m 0.13335,-2.45745 q 0,0.3048 0.3175,0.51435 l 0.7874,0.508 q 0.62865,-0.3683 0.62865,-0.889 0,-0.33655 -0.26035,-0.5588 -0.254,-0.2286 -0.6096,-0.2286 -0.34925,0 -0.6096,0.18415 -0.254,0.18415 -0.254,0.4699 z"
       id="text1"
       style="font-weight:500;font-size:6.35px;font-family:'CMU Serif';-inkscape-font-specification:'CMU Serif Medium';text-align:center;letter-spacing:0px;text-anchor:middle;fill-opacity:0.9;stroke-linecap:square;stroke-linejoin:bevel;stroke-miterlimit:3.9;paint-order:markers stroke fill"
       aria-label="23458" />
    <path
       d="m 175.74719,132.1089 q 0,-0.1143 0.006,-0.14605 0.0127,-0.0381 0.0635,-0.0889 l 1.2192,-1.3589 q 0.66675,-0.7493 0.66675,-1.40335 0,-0.42545 -0.22225,-0.73025 -0.22225,-0.3048 -0.62865,-0.3048 -0.2794,0 -0.51435,0.17145 -0.23495,0.17145 -0.3429,0.47625 0.019,-0.006 0.0825,-0.006 0.15875,0 0.24765,0.1016 0.0889,0.0952 0.0889,0.2286 0,0.17145 -0.1143,0.254 -0.10795,0.0825 -0.2159,0.0825 -0.0445,0 -0.1016,-0.006 -0.0571,-0.0127 -0.14605,-0.1016 -0.0889,-0.0889 -0.0889,-0.24765 0,-0.4445 0.33655,-0.79375 0.33655,-0.3556 0.8509,-0.3556 0.5842,0 0.9652,0.34925 0.381,0.3429 0.381,0.88265 0,0.1905 -0.0572,0.36195 -0.0572,0.17145 -0.13335,0.3048 -0.0762,0.13335 -0.2794,0.34925 -0.2032,0.20955 -0.3683,0.36195 -0.1651,0.1524 -0.5334,0.47625 l -0.6731,0.65405 h 1.143 q 0.5588,0 0.60325,-0.0508 0.0635,-0.0889 0.1397,-0.56515 h 0.15875 l -0.1778,1.1049 z m 3.12419,-2.80035 q 0,-0.33655 0.0953,-0.56515 0.1016,-0.23495 0.31115,-0.46355 0.381,-0.40005 0.93345,-0.40005 0.23495,0 0.4445,0.1016 0.20955,0.0953 0.4064,0.32385 0.2032,0.22225 0.32385,0.66675 0.12065,0.43815 0.12065,1.04775 0,0.98425 -0.47625,1.60655 -0.47625,0.6223 -1.1176,0.6223 -0.4064,0 -0.6477,-0.18415 -0.23495,-0.18415 -0.23495,-0.50165 0,-0.1651 0.0889,-0.23495 0.0952,-0.0699 0.2032,-0.0699 0.1143,0 0.2032,0.0762 0.0889,0.0762 0.0889,0.2159 0,0.1143 -0.0762,0.2032 -0.0699,0.0889 -0.254,0.0889 0.18415,0.2286 0.6223,0.2286 0.15875,0 0.3175,-0.0699 0.15875,-0.0762 0.3302,-0.254 0.17145,-0.1778 0.27305,-0.55245 0.10795,-0.37465 0.10795,-0.9017 v -0.2032 q -0.254,0.635 -0.79375,0.635 -0.5334,0 -0.9017,-0.4064 -0.3683,-0.41275 -0.3683,-1.00965 z m 0.5715,0.006 q 0,0.62865 0.1143,0.8636 0.19685,0.40005 0.59055,0.40005 0.38735,0 0.57785,-0.3429 0.19685,-0.34925 0.19685,-0.8001 0,-0.6223 -0.1016,-0.89535 -0.1905,-0.50165 -0.6096,-0.50165 -0.4191,0 -0.635,0.40005 -0.13335,0.23495 -0.13335,0.8763 z m 2.69238,-0.1905 0.20955,-1.3081 h 0.15875 q 0.019,0.0762 0.0508,0.1143 0.0317,0.0318 0.20955,0.0635 0.18415,0.0254 0.55245,0.0254 h 1.54305 q 0,0.14605 -0.0572,0.22225 l -0.85725,1.2065 q -0.27305,0.381 -0.3937,1.08585 -0.0699,0.4699 -0.0699,1.0414 v 0.32385 q 0,0.34925 -0.2921,0.34925 -0.2921,0 -0.2921,-0.34925 0,-1.21285 0.78105,-2.3876 0.0825,-0.12065 0.38735,-0.55245 0.31115,-0.4318 0.32385,-0.45085 h -1.31445 q -0.57785,0 -0.6223,0.0381 -0.0635,0.0572 -0.15875,0.57785 z m 3.17499,0 0.20955,-1.3081 h 0.15875 q 0.019,0.0762 0.0508,0.1143 0.0317,0.0318 0.20955,0.0635 0.18415,0.0254 0.55245,0.0254 h 1.54305 q 0,0.14605 -0.0572,0.22225 l -0.85725,1.2065 q -0.27305,0.381 -0.3937,1.08585 -0.0699,0.4699 -0.0699,1.0414 v 0.32385 q 0,0.34925 -0.2921,0.34925 -0.2921,0 -0.2921,-0.34925 0,-1.21285 0.78105,-2.3876 0.0825,-0.12065 0.38735,-0.55245 0.31115,-0.4318 0.32385,-0.45085 h -1.31445 q -0.57785,0 -0.6223,0.0381 -0.0635,0.0572 -0.15875,0.57785 z m 3.06704,0.9525 q 0,-0.93345 0.23495,-1.44145 0.3302,-0.75565 1.1049,-0.75565 0.1651,0 0.33655,0.0444 0.17145,0.0444 0.38735,0.2159 0.22225,0.17145 0.3556,0.45085 0.254,0.53975 0.254,1.4859 0,0.9271 -0.23495,1.4351 -0.3429,0.7366 -1.1049,0.7366 -0.28575,0 -0.57785,-0.14605 -0.28575,-0.14605 -0.4699,-0.4953 -0.28575,-0.52705 -0.28575,-1.53035 z m 0.52705,-0.0762 q 0,0.95885 0.0699,1.33985 0.0762,0.41275 0.28575,0.59055 0.2159,0.1778 0.45085,0.1778 0.254,0 0.46355,-0.1905 0.2159,-0.1905 0.2794,-0.60325 0.0699,-0.4064 0.0699,-1.31445 0,-0.88265 -0.0635,-1.23825 -0.0825,-0.41275 -0.3048,-0.57785 -0.22225,-0.1651 -0.4445,-0.1651 -0.0825,0 -0.17145,0.0254 -0.0889,0.0254 -0.2159,0.0952 -0.127,0.0699 -0.2286,0.24765 -0.0952,0.1778 -0.1397,0.4445 -0.0508,0.3429 -0.0508,1.1684 z"
       id="text2"
       style="font-weight:500;font-size:6.35px;font-family:'CMU Serif';-inkscape-font-specification:'CMU Serif Medium';text-align:center;letter-spacing:0px;text-anchor:middle;fill-opacity:0.9;stroke-linecap:square;stroke-linejoin:bevel;stroke-miterlimit:3.9;paint-order:markers stroke fill"
       aria-label="29770" />
    <path
       d="m 150.85639,128.48305 v -0.19685 q 0.762,0 1.1557,-0.4064 0.10795,0 0.127,0.0254 0.019,0.0254 0.019,0.1397 v 3.56235 q 0,0.1905 0.0889,0.24765 0.0952,0.0572 0.50165,0.0572 h 0.2032 v 0.19685 q -0.22225,-0.019 -1.0287,-0.019 -0.80645,0 -1.0287,0.019 v -0.19685 h 0.2032 q 0.40005,0 0.4953,-0.0572 0.0953,-0.0571 0.0953,-0.24765 v -3.2893 q -0.3302,0.1651 -0.83185,0.1651 z m 2.92734,2.6035 q 0,-0.1905 0.1016,-0.26035 0.1016,-0.0762 0.20955,-0.0762 0.14605,0 0.2286,0.0952 0.0889,0.0889 0.0889,0.2159 0,0.127 -0.0889,0.22225 -0.0825,0.0889 -0.2286,0.0889 -0.0699,0 -0.10795,-0.0127 0.0825,0.2921 0.33655,0.50165 0.26035,0.20955 0.5969,0.20955 0.42545,0 0.67945,-0.41275 0.1524,-0.2667 0.1524,-0.86995 0,-0.5334 -0.1143,-0.8001 -0.1778,-0.4064 -0.53975,-0.4064 -0.51435,0 -0.81915,0.4445 -0.0381,0.0571 -0.0825,0.0571 -0.0635,0 -0.0762,-0.0317 -0.0127,-0.0381 -0.0127,-0.13335 v -1.8796 q 0,-0.1524 0.0635,-0.1524 0.0254,0 0.0762,0.019 0.40005,0.1778 0.84455,0.1778 0.4572,0 0.8636,-0.18415 0.0317,-0.019 0.0508,-0.019 0.0635,0 0.0635,0.0699 0,0.0254 -0.0508,0.1016 -0.0508,0.0699 -0.15875,0.1651 -0.10795,0.0952 -0.24765,0.18415 -0.1397,0.0889 -0.3429,0.1524 -0.2032,0.0572 -0.42545,0.0572 -0.2667,0 -0.53975,-0.0825 v 1.23825 q 0.3302,-0.32385 0.80645,-0.32385 0.508,0 0.85725,0.41275 0.34925,0.4064 0.34925,0.9779 0,0.5969 -0.41275,1.00965 -0.41275,0.4064 -0.97155,0.4064 -0.508,0 -0.83185,-0.36195 -0.3175,-0.36195 -0.3175,-0.8001 z m 3.12419,0.1651 q 0,-0.1905 0.10795,-0.2794 0.10795,-0.0889 0.24765,-0.0889 0.14605,0 0.24765,0.0952 0.10795,0.0952 0.10795,0.26035 0,0.1778 -0.127,0.2794 -0.12065,0.0952 -0.2921,0.0699 0.1524,0.254 0.4318,0.3683 0.2794,0.1143 0.53975,0.1143 0.27305,0 0.4953,-0.23495 0.22225,-0.23495 0.22225,-0.8128 0,-0.48895 -0.1905,-0.76835 -0.1905,-0.28575 -0.56515,-0.28575 h -0.2794 q -0.0953,0 -0.127,-0.006 -0.0254,-0.0127 -0.0254,-0.0635 0,-0.0635 0.0952,-0.0762 0.0952,0 0.24765,-0.019 0.3683,-0.0127 0.56515,-0.3302 0.1778,-0.29845 0.1778,-0.7239 0,-0.38735 -0.18415,-0.5461 -0.18415,-0.1651 -0.42545,-0.1651 -0.22225,0 -0.4699,0.0953 -0.2413,0.0889 -0.37465,0.29845 0.3937,0 0.3937,0.3175 0,0.1397 -0.0889,0.23495 -0.0889,0.0889 -0.23495,0.0889 -0.1397,0 -0.23495,-0.0889 -0.0889,-0.0889 -0.0889,-0.2413 0,-0.36195 0.32385,-0.6096 0.32385,-0.254 0.8001,-0.254 0.4699,0 0.81915,0.24765 0.34925,0.24765 0.34925,0.62865 0,0.37465 -0.24765,0.6858 -0.24765,0.3048 -0.64135,0.4318 0.4826,0.0952 0.76835,0.42545 0.2921,0.32385 0.2921,0.7239 0,0.4953 -0.3937,0.8636 -0.38735,0.36195 -0.95885,0.36195 -0.52705,0 -0.90805,-0.28575 -0.37465,-0.28575 -0.37465,-0.7112 z m 3.26389,-2.12725 0.20955,-1.3081 h 0.15875 q 0.019,0.0762 0.0508,0.1143 0.0317,0.0318 0.20955,0.0635 0.18415,0.0254 0.55245,0.0254 h 1.54305 q 0,0.14605 -0.0572,0.22225 l -0.85725,1.2065 q -0.27305,0.381 -0.3937,1.08585 -0.0699,0.4699 -0.0699,1.0414 v 0.32385 q 0,0.34925 -0.2921,0.34925 -0.2921,0 -0.2921,-0.34925 0,-1.21285 0.78105,-2.3876 0.0826,-0.12065 0.38735,-0.55245 0.31115,-0.4318 0.32385,-0.45085 h -1.31445 q -0.57785,0 -0.6223,0.0381 -0.0635,0.0572 -0.15875,0.57785 z m 3.08609,2.02565 q 0,-0.7112 0.9144,-1.1684 -0.3937,-0.2667 -0.46355,-0.3429 -0.2794,-0.31115 -0.2794,-0.6985 0,-0.4445 0.33655,-0.7493 0.33655,-0.31115 0.8128,-0.31115 0.4572,0 0.8001,0.2667 0.3429,0.26035 0.3429,0.67945 0,0.59055 -0.76835,0.98425 0.508,0.3175 0.62865,0.45085 0.31115,0.3429 0.31115,0.78105 0,0.508 -0.3937,0.85725 -0.38735,0.34925 -0.9271,0.34925 -0.52705,0 -0.92075,-0.3048 -0.3937,-0.31115 -0.3937,-0.79375 z m 0.3175,0 q 0,0.3937 0.2921,0.6604 0.29845,0.26035 0.7112,0.26035 0.40005,0 0.6985,-0.2286 0.29845,-0.2286 0.29845,-0.5715 0,-0.13335 -0.0444,-0.24765 -0.0445,-0.1143 -0.13335,-0.2032 -0.0889,-0.0952 -0.14605,-0.13335 -0.0508,-0.0444 -0.1524,-0.1143 l -0.78105,-0.4953 q -0.74295,0.41275 -0.74295,1.07315 z m 0.13335,-2.45745 q 0,0.3048 0.3175,0.51435 l 0.7874,0.508 q 0.62865,-0.3683 0.62865,-0.889 0,-0.33655 -0.26035,-0.5588 -0.254,-0.2286 -0.6096,-0.2286 -0.34925,0 -0.6096,0.18415 -0.254,0.18415 -0.254,0.4699 z"
       id="text3"
       style="font-weight:500;font-size:6.35px;font-family:'CMU Serif';-inkscape-font-specification:'CMU Serif Medium';text-align:center;letter-spacing:0px;text-anchor:middle;fill-opacity:0.9;stroke-linecap:square;stroke-linejoin:bevel;stroke-miterlimit:3.9;paint-order:markers stroke fill"
       aria-label="15378" />
    <path
       d="m 125.47032,132.1089 q 0,-0.1143 0.006,-0.14605 0.0127,-0.0381 0.0635,-0.0889 l 1.2192,-1.3589 q 0.66675,-0.7493 0.66675,-1.40335 0,-0.42545 -0.22225,-0.73025 -0.22225,-0.3048 -0.62865,-0.3048 -0.2794,0 -0.51435,0.17145 -0.23495,0.17145 -0.3429,0.47625 0.0191,-0.006 0.0826,-0.006 0.15875,0 0.24765,0.1016 0.0889,0.0952 0.0889,0.2286 0,0.17145 -0.1143,0.254 -0.10795,0.0825 -0.2159,0.0825 -0.0444,0 -0.1016,-0.006 -0.0571,-0.0127 -0.14605,-0.1016 -0.0889,-0.0889 -0.0889,-0.24765 0,-0.4445 0.33655,-0.79375 0.33655,-0.3556 0.8509,-0.3556 0.5842,0 0.9652,0.34925 0.381,0.3429 0.381,0.88265 0,0.1905 -0.0572,0.36195 -0.0572,0.17145 -0.13335,0.3048 -0.0762,0.13335 -0.2794,0.34925 -0.2032,0.20955 -0.3683,0.36195 -0.1651,0.1524 -0.5334,0.47625 l -0.6731,0.65405 h 1.143 q 0.5588,0 0.60325,-0.0508 0.0635,-0.0889 0.1397,-0.56515 h 0.15875 l -0.1778,1.1049 z m 3.17498,0 q 0,-0.1143 0.006,-0.14605 0.0127,-0.0381 0.0635,-0.0889 l 1.2192,-1.3589 q 0.66675,-0.7493 0.66675,-1.40335 0,-0.42545 -0.22225,-0.73025 -0.22225,-0.3048 -0.62865,-0.3048 -0.2794,0 -0.51435,0.17145 -0.23495,0.17145 -0.3429,0.47625 0.019,-0.006 0.0825,-0.006 0.15875,0 0.24765,0.1016 0.0889,0.0952 0.0889,0.2286 0,0.17145 -0.1143,0.254 -0.10795,0.0825 -0.2159,0.0825 -0.0445,0 -0.1016,-0.006 -0.0571,-0.0127 -0.14605,-0.1016 -0.0889,-0.0889 -0.0889,-0.24765 0,-0.4445 0.33655,-0.79375 0.33655,-0.3556 0.8509,-0.3556 0.5842,0 0.9652,0.34925 0.381,0.3429 0.381,0.88265 0,0.1905 -0.0571,0.36195 -0.0572,0.17145 -0.13335,0.3048 -0.0762,0.13335 -0.2794,0.34925 -0.2032,0.20955 -0.3683,0.36195 -0.1651,0.1524 -0.5334,0.47625 l -0.6731,0.65405 h 1.143 q 0.5588,0 0.60325,-0.0508 0.0635,-0.0889 0.1397,-0.56515 h 0.15875 l -0.1778,1.1049 z m 3.21309,-2.9845 0.20955,-1.3081 h 0.15875 q 0.0191,0.0762 0.0508,0.1143 0.0317,0.0318 0.20955,0.0635 0.18415,0.0254 0.55245,0.0254 h 1.54305 q 0,0.14605 -0.0572,0.22225 l -0.85725,1.2065 q -0.27305,0.381 -0.3937,1.08585 -0.0699,0.4699 -0.0699,1.0414 v 0.32385 q 0,0.34925 -0.2921,0.34925 -0.2921,0 -0.2921,-0.34925 0,-1.21285 0.78105,-2.3876 0.0825,-0.12065 0.38735,-0.55245 0.31115,-0.4318 0.32385,-0.45085 h -1.31445 q -0.57785,0 -0.6223,0.0381 -0.0635,0.0572 -0.15875,0.57785 z m 3.06704,0.9525 q 0,-0.93345 0.23495,-1.44145 0.3302,-0.75565 1.1049,-0.75565 0.1651,0 0.33655,0.0444 0.17145,0.0444 0.38735,0.2159 0.22225,0.17145 0.3556,0.45085 0.254,0.53975 0.254,1.4859 0,0.9271 -0.23495,1.4351 -0.3429,0.7366 -1.1049,0.7366 -0.28575,0 -0.57785,-0.14605 -0.28575,-0.14605 -0.4699,-0.4953 -0.28575,-0.52705 -0.28575,-1.53035 z m 0.52705,-0.0762 q 0,0.95885 0.0699,1.33985 0.0762,0.41275 0.28575,0.59055 0.2159,0.1778 0.45085,0.1778 0.254,0 0.46355,-0.1905 0.2159,-0.1905 0.2794,-0.60325 0.0699,-0.4064 0.0699,-1.31445 0,-0.88265 -0.0635,-1.23825 -0.0825,-0.41275 -0.3048,-0.57785 -0.22225,-0.1651 -0.4445,-0.1651 -0.0825,0 -0.17145,0.0254 -0.0889,0.0254 -0.2159,0.0952 -0.127,0.0699 -0.2286,0.24765 -0.0952,0.1778 -0.1397,0.4445 -0.0508,0.3429 -0.0508,1.1684 z m 2.66699,0.1016 q 0,-0.99695 0.508,-1.60655 0.508,-0.61595 1.16205,-0.61595 0.381,0 0.59055,0.19685 0.2159,0.1905 0.2159,0.48895 0,0.1651 -0.0952,0.23495 -0.0952,0.0699 -0.19685,0.0699 -0.1143,0 -0.2032,-0.0762 -0.0889,-0.0762 -0.0889,-0.2159 0,-0.28575 0.34925,-0.28575 -0.1651,-0.254 -0.5588,-0.254 -0.12065,0 -0.24765,0.0381 -0.12065,0.0317 -0.28575,0.1524 -0.15875,0.1143 -0.28575,0.3048 -0.12065,0.18415 -0.20955,0.5334 -0.0825,0.34925 -0.0825,0.80645 v 0.1524 q 0.26035,-0.62865 0.79375,-0.62865 0.5334,0 0.9017,0.4064 0.3683,0.4064 0.3683,1.00965 0,0.61595 -0.38735,1.0287 -0.381,0.4064 -0.92075,0.4064 -0.2413,0 -0.46355,-0.1016 -0.2159,-0.1016 -0.4191,-0.3302 -0.2032,-0.2286 -0.32385,-0.66675 -0.12065,-0.4445 -0.12065,-1.04775 z m 0.5842,0.5715 q 0,0.6223 0.1143,0.92075 0.019,0.0508 0.0572,0.12065 0.0444,0.0635 0.1143,0.1524 0.0762,0.0889 0.19685,0.14605 0.12065,0.0571 0.26035,0.0571 0.42545,0 0.62865,-0.41275 0.10795,-0.2286 0.10795,-0.8509 0,-0.635 -0.1143,-0.86995 -0.19685,-0.3937 -0.59055,-0.3937 -0.2667,0 -0.45085,0.18415 -0.18415,0.18415 -0.254,0.4318 -0.0699,0.2413 -0.0699,0.51435 z"
       id="text4"
       style="font-weight:500;font-size:6.35px;font-family:'CMU Serif';-inkscape-font-specification:'CMU Serif Medium';text-align:center;letter-spacing:0px;text-anchor:middle;fill-opacity:0.9;stroke-linecap:square;stroke-linejoin:bevel;stroke-miterlimit:3.9;paint-order:markers stroke fill"
       aria-label="22706" />
    <path
       d="m 100.57952,128.48305 v -0.19685 q 0.762,0 1.1557,-0.4064 0.10795,0 0.127,0.0254 0.0191,0.0254 0.0191,0.1397 v 3.56235 q 0,0.1905 0.0889,0.24765 0.0953,0.0572 0.50165,0.0572 h 0.2032 v 0.19685 q -0.22225,-0.019 -1.0287,-0.019 -0.80645,0 -1.0287,0.019 v -0.19685 h 0.2032 q 0.40005,0 0.4953,-0.0572 0.0953,-0.0571 0.0953,-0.24765 v -3.2893 q -0.3302,0.1651 -0.83185,0.1651 z m 2.85749,1.59385 q 0,-0.93345 0.23495,-1.44145 0.3302,-0.75565 1.1049,-0.75565 0.1651,0 0.33655,0.0444 0.17145,0.0444 0.38735,0.2159 0.22225,0.17145 0.3556,0.45085 0.254,0.53975 0.254,1.4859 0,0.9271 -0.23495,1.4351 -0.3429,0.7366 -1.1049,0.7366 -0.28575,0 -0.57785,-0.14605 -0.28575,-0.14605 -0.4699,-0.4953 -0.28575,-0.52705 -0.28575,-1.53035 z m 0.52705,-0.0762 q 0,0.95885 0.0699,1.33985 0.0762,0.41275 0.28575,0.59055 0.2159,0.1778 0.45085,0.1778 0.254,0 0.46355,-0.1905 0.2159,-0.1905 0.2794,-0.60325 0.0699,-0.4064 0.0699,-1.31445 0,-0.88265 -0.0635,-1.23825 -0.0826,-0.41275 -0.3048,-0.57785 -0.22225,-0.1651 -0.4445,-0.1651 -0.0825,0 -0.17145,0.0254 -0.0889,0.0254 -0.2159,0.0952 -0.127,0.0699 -0.2286,0.24765 -0.0953,0.1778 -0.1397,0.4445 -0.0508,0.3429 -0.0508,1.1684 z m 2.66699,1.25095 q 0,-0.1905 0.10795,-0.2794 0.10795,-0.0889 0.24765,-0.0889 0.14605,0 0.24765,0.0952 0.10795,0.0952 0.10795,0.26035 0,0.1778 -0.127,0.2794 -0.12065,0.0952 -0.2921,0.0699 0.1524,0.254 0.4318,0.3683 0.2794,0.1143 0.53975,0.1143 0.27305,0 0.4953,-0.23495 0.22225,-0.23495 0.22225,-0.8128 0,-0.48895 -0.1905,-0.76835 -0.1905,-0.28575 -0.56515,-0.28575 h -0.2794 q -0.0953,0 -0.127,-0.006 -0.0254,-0.0127 -0.0254,-0.0635 0,-0.0635 0.0952,-0.0762 0.0953,0 0.24765,-0.019 0.3683,-0.0127 0.56515,-0.3302 0.1778,-0.29845 0.1778,-0.7239 0,-0.38735 -0.18415,-0.5461 -0.18415,-0.1651 -0.42545,-0.1651 -0.22225,0 -0.4699,0.0953 -0.2413,0.0889 -0.37465,0.29845 0.3937,0 0.3937,0.3175 0,0.1397 -0.0889,0.23495 -0.0889,0.0889 -0.23495,0.0889 -0.1397,0 -0.23495,-0.0889 -0.0889,-0.0889 -0.0889,-0.2413 0,-0.36195 0.32385,-0.6096 0.32385,-0.254 0.8001,-0.254 0.4699,0 0.81915,0.24765 0.34925,0.24765 0.34925,0.62865 0,0.37465 -0.24765,0.6858 -0.24765,0.3048 -0.64135,0.4318 0.4826,0.0952 0.76835,0.42545 0.2921,0.32385 0.2921,0.7239 0,0.4953 -0.3937,0.8636 -0.38735,0.36195 -0.95885,0.36195 -0.52705,0 -0.90805,-0.28575 -0.37465,-0.28575 -0.37465,-0.7112 z m 3.22579,0.85725 q 0,-0.1143 0.006,-0.14605 0.0127,-0.0381 0.0635,-0.0889 l 1.2192,-1.3589 q 0.66675,-0.7493 0.66675,-1.40335 0,-0.42545 -0.22225,-0.73025 -0.22225,-0.3048 -0.62865,-0.3048 -0.2794,0 -0.51435,0.17145 -0.23495,0.17145 -0.3429,0.47625 0.0191,-0.006 0.0825,-0.006 0.15875,0 0.24765,0.1016 0.0889,0.0952 0.0889,0.2286 0,0.17145 -0.1143,0.254 -0.10795,0.0825 -0.2159,0.0825 -0.0444,0 -0.1016,-0.006 -0.0572,-0.0127 -0.14605,-0.1016 -0.0889,-0.0889 -0.0889,-0.24765 0,-0.4445 0.33655,-0.79375 0.33655,-0.3556 0.8509,-0.3556 0.5842,0 0.9652,0.34925 0.381,0.3429 0.381,0.88265 0,0.1905 -0.0571,0.36195 -0.0572,0.17145 -0.13335,0.3048 -0.0762,0.13335 -0.2794,0.34925 -0.2032,0.20955 -0.3683,0.36195 -0.1651,0.1524 -0.5334,0.47625 l -0.6731,0.65405 h 1.143 q 0.5588,0 0.60325,-0.0508 0.0635,-0.0889 0.1397,-0.56515 h 0.15875 l -0.1778,1.1049 z m 3.10513,-2.032 q 0,-0.93345 0.23495,-1.44145 0.3302,-0.75565 1.1049,-0.75565 0.1651,0 0.33655,0.0444 0.17145,0.0444 0.38735,0.2159 0.22225,0.17145 0.3556,0.45085 0.254,0.53975 0.254,1.4859 0,0.9271 -0.23495,1.4351 -0.3429,0.7366 -1.1049,0.7366 -0.28575,0 -0.57785,-0.14605 -0.28575,-0.14605 -0.4699,-0.4953 -0.28575,-0.52705 -0.28575,-1.53035 z m 0.52705,-0.0762 q 0,0.95885 0.0699,1.33985 0.0762,0.41275 0.28575,0.59055 0.2159,0.1778 0.45085,0.1778 0.254,0 0.46355,-0.1905 0.2159,-0.1905 0.2794,-0.60325 0.0699,-0.4064 0.0699,-1.31445 0,-0.88265 -0.0635,-1.23825 -0.0825,-0.41275 -0.3048,-0.57785 -0.22225,-0.1651 -0.4445,-0.1651 -0.0825,0 -0.17145,0.0254 -0.0889,0.0254 -0.2159,0.0952 -0.127,0.0699 -0.2286,0.24765 -0.0952,0.1778 -0.1397,0.4445 -0.0508,0.3429 -0.0508,1.1684 z"
       id="text5"
       style="font-weight:500;font-size:6.35px;font-family:'CMU Serif';-inkscape-font-specification:'CMU Serif Medium';text-align:center;letter-spacing:0px;text-anchor:middle;fill-opacity:0.9;stroke-linecap:square;stroke-linejoin:bevel;stroke-miterlimit:3.9;paint-order:markers stroke fill"
       aria-label="10320" />
    <path
       d="m 75.441088,128.48305 v -0.19685 q 0.762,0 1.1557,-0.4064 0.10795,0 0.127,0.0254 0.01905,0.0254 0.01905,0.1397 v 3.56235 q 0,0.1905 0.0889,0.24765 0.09525,0.0572 0.50165,0.0572 h 0.2032 v 0.19685 q -0.22225,-0.019 -1.0287,-0.019 -0.80645,0 -1.0287,0.019 v -0.19685 h 0.2032 q 0.40005,0 0.4953,-0.0572 0.09525,-0.0571 0.09525,-0.24765 v -3.2893 q -0.3302,0.1651 -0.83185,0.1651 z m 3.174988,0 v -0.19685 q 0.762,0 1.1557,-0.4064 0.10795,0 0.127,0.0254 0.01905,0.0254 0.01905,0.1397 v 3.56235 q 0,0.1905 0.0889,0.24765 0.09525,0.0572 0.50165,0.0572 h 0.2032 v 0.19685 q -0.22225,-0.019 -1.0287,-0.019 -0.80645,0 -1.0287,0.019 v -0.19685 h 0.2032 q 0.40005,0 0.4953,-0.0572 0.09525,-0.0571 0.09525,-0.24765 v -3.2893 q -0.3302,0.1651 -0.83185,0.1651 z m 3.174988,0 v -0.19685 q 0.762,0 1.1557,-0.4064 0.10795,0 0.127,0.0254 0.01905,0.0254 0.01905,0.1397 v 3.56235 q 0,0.1905 0.0889,0.24765 0.09525,0.0572 0.50165,0.0572 h 0.2032 v 0.19685 q -0.22225,-0.019 -1.0287,-0.019 -0.80645,0 -1.0287,0.019 v -0.19685 h 0.2032 q 0.40005,0 0.4953,-0.0572 0.09525,-0.0571 0.09525,-0.24765 v -3.2893 q -0.3302,0.1651 -0.83185,0.1651 z m 2.787638,2.5781 v -0.19685 l 1.94945,-2.97815 q 0.0508,-0.0762 0.127,-0.0762 0.06985,0 0.08255,0.0318 0.01905,0.0254 0.01905,0.13335 v 2.88925 h 0.635 v 0.19685 h -0.635 v 0.55245 q 0,0.18415 0.0762,0.2413 0.0762,0.0572 0.4064,0.0572 h 0.13335 v 0.19685 q -0.26035,-0.019 -0.8636,-0.019 -0.5969,0 -0.85725,0.019 v -0.19685 h 0.13335 q 0.3302,0 0.4064,-0.0572 0.0762,-0.0571 0.0762,-0.2413 v -0.55245 z m 0.1778,-0.19685 h 1.5494 v -2.36855 z m 3.136887,1.2446 q 0,-0.1143 0.0063,-0.14605 0.0127,-0.0381 0.0635,-0.0889 l 1.2192,-1.3589 q 0.66675,-0.7493 0.66675,-1.40335 0,-0.42545 -0.22225,-0.73025 -0.22225,-0.3048 -0.62865,-0.3048 -0.2794,0 -0.51435,0.17145 -0.23495,0.17145 -0.3429,0.47625 0.01905,-0.006 0.08255,-0.006 0.15875,0 0.24765,0.1016 0.0889,0.0952 0.0889,0.2286 0,0.17145 -0.1143,0.254 -0.10795,0.0825 -0.2159,0.0825 -0.04445,0 -0.1016,-0.006 -0.05715,-0.0127 -0.14605,-0.1016 -0.0889,-0.0889 -0.0889,-0.24765 0,-0.4445 0.33655,-0.79375 0.33655,-0.3556 0.8509,-0.3556 0.5842,0 0.9652,0.34925 0.381,0.3429 0.381,0.88265 0,0.1905 -0.05715,0.36195 -0.05715,0.17145 -0.13335,0.3048 -0.0762,0.13335 -0.2794,0.34925 -0.2032,0.20955 -0.3683,0.36195 -0.1651,0.1524 -0.5334,0.47625 l -0.6731,0.65405 h 1.143 q 0.5588,0 0.60325,-0.0508 0.0635,-0.0889 0.1397,-0.56515 h 0.15875 l -0.1778,1.1049 z"
       id="text6"
       style="font-weight:500;font-size:6.35px;font-family:'CMU Serif';-inkscape-font-specification:'CMU Serif Medium';text-align:center;letter-spacing:0px;text-anchor:middle;fill-opacity:0.9;stroke-linecap:square;stroke-linejoin:bevel;stroke-miterlimit:3.9;paint-order:markers stroke fill"
       aria-label="11142" />
    <path
       d="m 50.055003,132.1089 q 0,-0.1143 0.0063,-0.14605 0.0127,-0.0381 0.0635,-0.0889 l 1.2192,-1.3589 q 0.66675,-0.7493 0.66675,-1.40335 0,-0.42545 -0.22225,-0.73025 -0.22225,-0.3048 -0.62865,-0.3048 -0.2794,0 -0.51435,0.17145 -0.23495,0.17145 -0.3429,0.47625 0.01905,-0.006 0.08255,-0.006 0.15875,0 0.24765,0.1016 0.0889,0.0952 0.0889,0.2286 0,0.17145 -0.1143,0.254 -0.10795,0.0825 -0.2159,0.0825 -0.04445,0 -0.1016,-0.006 -0.05715,-0.0127 -0.14605,-0.1016 -0.0889,-0.0889 -0.0889,-0.24765 0,-0.4445 0.33655,-0.79375 0.33655,-0.3556 0.8509,-0.3556 0.5842,0 0.9652,0.34925 0.381,0.3429 0.381,0.88265 0,0.1905 -0.05715,0.36195 -0.05715,0.17145 -0.13335,0.3048 -0.0762,0.13335 -0.2794,0.34925 -0.2032,0.20955 -0.3683,0.36195 -0.1651,0.1524 -0.5334,0.47625 l -0.6731,0.65405 h 1.143 q 0.5588,0 0.60325,-0.0508 0.0635,-0.0889 0.1397,-0.56515 h 0.15875 l -0.1778,1.1049 z m 3.035288,-1.04775 v -0.19685 l 1.94945,-2.97815 q 0.0508,-0.0762 0.127,-0.0762 0.06985,0 0.08255,0.0318 0.01905,0.0254 0.01905,0.13335 v 2.88925 h 0.635 v 0.19685 h -0.635 v 0.55245 q 0,0.18415 0.0762,0.2413 0.0762,0.0572 0.4064,0.0572 h 0.13335 v 0.19685 q -0.26035,-0.019 -0.8636,-0.019 -0.5969,0 -0.85725,0.019 v -0.19685 h 0.13335 q 0.3302,0 0.4064,-0.0572 0.0762,-0.0571 0.0762,-0.2413 v -0.55245 z m 0.1778,-0.19685 h 1.5494 v -2.36855 z m 2.997188,0.19685 v -0.19685 l 1.949449,-2.97815 q 0.0508,-0.0762 0.127,-0.0762 0.06985,0 0.08255,0.0318 0.01905,0.0254 0.01905,0.13335 v 2.88925 h 0.635 v 0.19685 h -0.635 v 0.55245 q 0,0.18415 0.0762,0.2413 0.0762,0.0572 0.4064,0.0572 h 0.13335 v 0.19685 q -0.26035,-0.019 -0.8636,-0.019 -0.5969,0 -0.85725,0.019 v -0.19685 h 0.13335 q 0.3302,0 0.4064,-0.0572 0.0762,-0.0571 0.0762,-0.2413 v -0.55245 z m 0.1778,-0.19685 h 1.549399 v -2.36855 z m 3.174987,-1.7399 0.20955,-1.3081 h 0.15875 q 0.01905,0.0762 0.0508,0.1143 0.03175,0.0318 0.20955,0.0635 0.18415,0.0254 0.55245,0.0254 h 1.54305 q 0,0.14605 -0.05715,0.22225 l -0.85725,1.2065 q -0.27305,0.381 -0.3937,1.08585 -0.06985,0.4699 -0.06985,1.0414 v 0.32385 q 0,0.34925 -0.2921,0.34925 -0.2921,0 -0.2921,-0.34925 0,-1.21285 0.78105,-2.3876 0.08255,-0.12065 0.38735,-0.55245 0.31115,-0.4318 0.32385,-0.45085 h -1.31445 q -0.57785,0 -0.6223,0.0381 -0.0635,0.0572 -0.15875,0.57785 z m 3.136888,2.9845 q 0,-0.1143 0.0064,-0.14605 0.0127,-0.0381 0.0635,-0.0889 l 1.2192,-1.3589 q 0.66675,-0.7493 0.66675,-1.40335 0,-0.42545 -0.22225,-0.73025 -0.22225,-0.3048 -0.62865,-0.3048 -0.2794,0 -0.51435,0.17145 -0.23495,0.17145 -0.3429,0.47625 0.01905,-0.006 0.08255,-0.006 0.15875,0 0.24765,0.1016 0.0889,0.0952 0.0889,0.2286 0,0.17145 -0.1143,0.254 -0.10795,0.0825 -0.2159,0.0825 -0.04445,0 -0.1016,-0.006 -0.05715,-0.0127 -0.14605,-0.1016 -0.0889,-0.0889 -0.0889,-0.24765 0,-0.4445 0.33655,-0.79375 0.33655,-0.3556 0.8509,-0.3556 0.5842,0 0.9652,0.34925 0.381,0.3429 0.381,0.88265 0,0.1905 -0.05715,0.36195 -0.05715,0.17145 -0.13335,0.3048 -0.0762,0.13335 -0.2794,0.34925 -0.2032,0.20955 -0.3683,0.36195 -0.1651,0.1524 -0.5334,0.47625 l -0.6731,0.65405 h 1.143 q 0.5588,0 0.60325,-0.0508 0.0635,-0.0889 0.1397,-0.56515 h 0.15875 l -0.1778,1.1049 z"
       id="text7"
       style="font-weight:500;font-size:6.35px;font-family:'CMU Serif';-inkscape-font-specification:'CMU Serif Medium';text-align:center;letter-spacing:0px;text-anchor:middle;fill-opacity:0.9;stroke-linecap:square;stroke-linejoin:bevel;stroke-miterlimit:3.9;paint-order:markers stroke fill"
       aria-label="24472" />
    <path
       d="m 25.164214,128.48305 v -0.19685 q 0.762,0 1.1557,-0.4064 0.10795,0 0.127,0.0254 0.01905,0.0254 0.01905,0.1397 v 3.56235 q 0,0.1905 0.0889,0.24765 0.09525,0.0572 0.50165,0.0572 h 0.2032 v 0.19685 q -0.22225,-0.019 -1.0287,-0.019 -0.80645,0 -1.0287,0.019 v -0.19685 h 0.2032 q 0.40005,0 0.4953,-0.0572 0.09525,-0.0571 0.09525,-0.24765 v -3.2893 q -0.3302,0.1651 -0.83185,0.1651 z m 2.927338,2.6035 q 0,-0.1905 0.1016,-0.26035 0.1016,-0.0762 0.20955,-0.0762 0.14605,0 0.2286,0.0952 0.0889,0.0889 0.0889,0.2159 0,0.127 -0.0889,0.22225 -0.08255,0.0889 -0.2286,0.0889 -0.06985,0 -0.10795,-0.0127 0.08255,0.2921 0.33655,0.50165 0.26035,0.20955 0.5969,0.20955 0.42545,0 0.67945,-0.41275 0.1524,-0.2667 0.1524,-0.86995 0,-0.5334 -0.1143,-0.8001 -0.1778,-0.4064 -0.53975,-0.4064 -0.51435,0 -0.81915,0.4445 -0.0381,0.0571 -0.08255,0.0571 -0.0635,0 -0.0762,-0.0317 -0.0127,-0.0381 -0.0127,-0.13335 v -1.8796 q 0,-0.1524 0.0635,-0.1524 0.0254,0 0.0762,0.019 0.40005,0.1778 0.84455,0.1778 0.4572,0 0.8636,-0.18415 0.03175,-0.019 0.0508,-0.019 0.0635,0 0.0635,0.0699 0,0.0254 -0.0508,0.1016 -0.0508,0.0699 -0.15875,0.1651 -0.10795,0.0952 -0.24765,0.18415 -0.1397,0.0889 -0.3429,0.1524 -0.2032,0.0572 -0.42545,0.0572 -0.2667,0 -0.53975,-0.0825 v 1.23825 q 0.3302,-0.32385 0.80645,-0.32385 0.508,0 0.85725,0.41275 0.34925,0.4064 0.34925,0.9779 0,0.5969 -0.41275,1.00965 -0.41275,0.4064 -0.97155,0.4064 -0.508,0 -0.83185,-0.36195 -0.3175,-0.36195 -0.3175,-0.8001 z m 3.124187,0.1651 q 0,-0.1905 0.10795,-0.2794 0.10795,-0.0889 0.24765,-0.0889 0.14605,0 0.24765,0.0952 0.10795,0.0952 0.10795,0.26035 0,0.1778 -0.127,0.2794 -0.12065,0.0952 -0.2921,0.0699 0.1524,0.254 0.4318,0.3683 0.2794,0.1143 0.53975,0.1143 0.27305,0 0.4953,-0.23495 0.22225,-0.23495 0.22225,-0.8128 0,-0.48895 -0.1905,-0.76835 -0.1905,-0.28575 -0.56515,-0.28575 h -0.2794 q -0.09525,0 -0.127,-0.006 -0.0254,-0.0127 -0.0254,-0.0635 0,-0.0635 0.09525,-0.0762 0.09525,0 0.24765,-0.019 0.3683,-0.0127 0.56515,-0.3302 0.1778,-0.29845 0.1778,-0.7239 0,-0.38735 -0.18415,-0.5461 -0.18415,-0.1651 -0.42545,-0.1651 -0.22225,0 -0.4699,0.0953 -0.2413,0.0889 -0.37465,0.29845 0.3937,0 0.3937,0.3175 0,0.1397 -0.0889,0.23495 -0.0889,0.0889 -0.23495,0.0889 -0.1397,0 -0.23495,-0.0889 -0.0889,-0.0889 -0.0889,-0.2413 0,-0.36195 0.32385,-0.6096 0.32385,-0.254 0.8001,-0.254 0.4699,0 0.81915,0.24765 0.34925,0.24765 0.34925,0.62865 0,0.37465 -0.24765,0.6858 -0.24765,0.3048 -0.64135,0.4318 0.4826,0.0952 0.76835,0.42545 0.2921,0.32385 0.2921,0.7239 0,0.4953 -0.3937,0.8636 -0.38735,0.36195 -0.95885,0.36195 -0.52705,0 -0.90805,-0.28575 -0.37465,-0.28575 -0.37465,-0.7112 z m 3.174988,-1.9431 q 0,-0.33655 0.09525,-0.56515 0.1016,-0.23495 0.31115,-0.46355 0.381,-0.40005 0.93345,-0.40005 0.23495,0 0.4445,0.1016 0.20955,0.0953 0.4064,0.32385 0.2032,0.22225 0.32385,0.66675 0.12065,0.43815 0.12065,1.04775 0,0.98425 -0.47625,1.60655 -0.47625,0.6223 -1.1176,0.6223 -0.4064,0 -0.6477,-0.18415 -0.23495,-0.18415 -0.23495,-0.50165 0,-0.1651 0.0889,-0.23495 0.09525,-0.0699 0.2032,-0.0699 0.1143,0 0.2032,0.0762 0.0889,0.0762 0.0889,0.2159 0,0.1143 -0.0762,0.2032 -0.06985,0.0889 -0.254,0.0889 0.18415,0.2286 0.6223,0.2286 0.15875,0 0.3175,-0.0699 0.15875,-0.0762 0.3302,-0.254 0.17145,-0.1778 0.27305,-0.55245 0.10795,-0.37465 0.10795,-0.9017 v -0.2032 q -0.254,0.635 -0.79375,0.635 -0.5334,0 -0.9017,-0.4064 -0.3683,-0.41275 -0.3683,-1.00965 z m 0.5715,0.006 q 0,0.62865 0.1143,0.8636 0.19685,0.40005 0.59055,0.40005 0.38735,0 0.57785,-0.3429 0.19685,-0.34925 0.19685,-0.8001 0,-0.6223 -0.1016,-0.89535 -0.1905,-0.50165 -0.6096,-0.50165 -0.4191,0 -0.635,0.40005 -0.13335,0.23495 -0.13335,0.8763 z m 2.603488,0.7874 q 0,-0.99695 0.508,-1.60655 0.508,-0.61595 1.16205,-0.61595 0.381,0 0.59055,0.19685 0.2159,0.1905 0.2159,0.48895 0,0.1651 -0.09525,0.23495 -0.09525,0.0699 -0.19685,0.0699 -0.1143,0 -0.2032,-0.0762 -0.0889,-0.0762 -0.0889,-0.2159 0,-0.28575 0.34925,-0.28575 -0.1651,-0.254 -0.5588,-0.254 -0.12065,0 -0.24765,0.0381 -0.12065,0.0317 -0.28575,0.1524 -0.15875,0.1143 -0.28575,0.3048 -0.12065,0.18415 -0.20955,0.5334 -0.08255,0.34925 -0.08255,0.80645 v 0.1524 q 0.26035,-0.62865 0.79375,-0.62865 0.5334,0 0.9017,0.4064 0.3683,0.4064 0.3683,1.00965 0,0.61595 -0.38735,1.0287 -0.381,0.4064 -0.92075,0.4064 -0.2413,0 -0.46355,-0.1016 -0.2159,-0.1016 -0.4191,-0.3302 -0.2032,-0.2286 -0.32385,-0.66675 -0.12065,-0.4445 -0.12065,-1.04775 z m 0.5842,0.5715 q 0,0.6223 0.1143,0.92075 0.01905,0.0508 0.05715,0.12065 0.04445,0.0635 0.1143,0.1524 0.0762,0.0889 0.19685,0.14605 0.12065,0.0571 0.26035,0.0571 0.42545,0 0.62865,-0.41275 0.10795,-0.2286 0.10795,-0.8509 0,-0.635 -0.1143,-0.86995 -0.19685,-0.3937 -0.59055,-0.3937 -0.2667,0 -0.45085,0.18415 -0.18415,0.18415 -0.254,0.4318 -0.06985,0.2413 -0.06985,0.51435 z"
       id="text8"
       style="font-weight:500;font-size:6.35px;font-family:'CMU Serif';-inkscape-font-specification:'CMU Serif Medium';text-align:center;letter-spacing:0px;text-anchor:middle;fill-opacity:0.9;stroke-linecap:square;stroke-linejoin:bevel;stroke-miterlimit:3.9;paint-order:markers stroke fill"
       aria-label="15396" />
    <path
       d="m -0.22187209,132.1089 q 0,-0.1143 0.00635,-0.14605 0.0127,-0.0381 0.0635,-0.0889 l 1.21919999,-1.3589 q 0.66675,-0.7493 0.66675,-1.40335 0,-0.42545 -0.22225,-0.73025 -0.22225,-0.3048 -0.62865001,-0.3048 -0.27939999,0 -0.51434999,0.17145 -0.23495,0.17145 -0.3429,0.47625 0.01905,-0.006 0.08255,-0.006 0.15875,0 0.24765,0.1016 0.0889,0.0952 0.0889,0.2286 0,0.17145 -0.1143,0.254 -0.10795,0.0825 -0.2159,0.0825 -0.04445,0 -0.10159999,-0.006 -0.05715,-0.0127 -0.14605,-0.1016 -0.0889,-0.0889 -0.0889,-0.24765 0,-0.4445 0.33654999,-0.79375 0.33655,-0.3556 0.85089999,-0.3556 0.58420001,0 0.96520001,0.34925 0.381,0.3429 0.381,0.88265 0,0.1905 -0.05715,0.36195 -0.05715,0.17145 -0.13335,0.3048 -0.0762,0.13335 -0.2794,0.34925 -0.2032,0.20955 -0.3683,0.36195 -0.1651,0.1524 -0.53340001,0.47625 L 0.2670779,131.6206 h 1.143 q 0.5588,0 0.60325,-0.0508 0.0635,-0.0889 0.1397,-0.56515 h 0.15875 l -0.1778,1.1049 z m 3.10513779,-2.032 q 0,-0.93345 0.23495,-1.44145 0.3302,-0.75565 1.1049,-0.75565 0.1651,0 0.33655,0.0444 0.17145,0.0444 0.38735,0.2159 0.22225,0.17145 0.3556,0.45085 0.254,0.53975 0.254,1.4859 0,0.9271 -0.23495,1.4351 -0.3429,0.7366 -1.1049,0.7366 -0.28575,0 -0.57785,-0.14605 -0.28575,-0.14605 -0.4699,-0.4953 -0.28575,-0.52705 -0.28575,-1.53035 z m 0.52705,-0.0762 q 0,0.95885 0.06985,1.33985 0.0762,0.41275 0.28575,0.59055 0.2159,0.1778 0.45085,0.1778 0.254,0 0.46355,-0.1905 0.2159,-0.1905 0.2794,-0.60325 0.06985,-0.4064 0.06985,-1.31445 0,-0.88265 -0.0635,-1.23825 -0.08255,-0.41275 -0.3048,-0.57785 -0.22225,-0.1651 -0.4445,-0.1651 -0.08255,0 -0.17145,0.0254 -0.0889,0.0254 -0.2159,0.0952 -0.127,0.0699 -0.2286,0.24765 -0.09525,0.1778 -0.1397,0.4445 -0.0508,0.3429 -0.0508,1.1684 z m 2.9654378,-1.51765 v -0.19685 q 0.762,0 1.1557,-0.4064 0.10795,0 0.127,0.0254 0.01905,0.0254 0.01905,0.1397 v 3.56235 q 0,0.1905 0.0889,0.24765 0.09525,0.0572 0.50165,0.0572 h 0.2032 v 0.19685 q -0.22225,-0.019 -1.0287,-0.019 -0.80645,0 -1.0287,0.019 v -0.19685 h 0.2032 q 0.40005,0 0.4953,-0.0572 0.09525,-0.0571 0.09525,-0.24765 v -3.2893 q -0.3302,0.1651 -0.83185,0.1651 z m 2.9654378,0.64135 0.20955,-1.3081 h 0.15875 q 0.01905,0.0762 0.0508,0.1143 0.03175,0.0318 0.20955,0.0635 0.1841497,0.0254 0.5524497,0.0254 h 1.54305 q 0,0.14605 -0.05715,0.22225 l -0.85725,1.2065 q -0.27305,0.381 -0.3937,1.08585 -0.06985,0.4699 -0.06985,1.0414 v 0.32385 q 0,0.34925 -0.2921,0.34925 -0.2921,0 -0.2921,-0.34925 0,-1.21285 0.78105,-2.3876 0.08255,-0.12065 0.38735,-0.55245 0.31115,-0.4318 0.32385,-0.45085 h -1.31445 q -0.5778497,0 -0.6222997,0.0381 -0.0635,0.0572 -0.15875,0.57785 z m 2.9971877,1.93675 v -0.19685 l 1.94945,-2.97815 q 0.0508,-0.0762 0.127,-0.0762 0.06985,0 0.08255,0.0318 0.01905,0.0254 0.01905,0.13335 v 2.88925 h 0.635 v 0.19685 h -0.635 v 0.55245 q 0,0.18415 0.0762,0.2413 0.0762,0.0572 0.4064,0.0572 h 0.13335 v 0.19685 q -0.26035,-0.019 -0.8636,-0.019 -0.5969,0 -0.85725,0.019 v -0.19685 h 0.13335 q 0.3302,0 0.4064,-0.0572 0.0762,-0.0571 0.0762,-0.2413 v -0.55245 z m 0.1778,-0.19685 h 1.5494 v -2.36855 z"
       id="text9"
       style="font-weight:500;font-size:6.35px;font-family:'CMU Serif';-inkscape-font-specification:'CMU Serif Medium';text-align:center;letter-spacing:0px;text-anchor:middle;fill-opacity:0.9;stroke-linecap:square;stroke-linejoin:bevel;stroke-miterlimit:3.9;paint-order:markers stroke fill"
       aria-label="20174" />
    <path
       d="m -25.112659,128.48305 v -0.19685 q 0.762,0 1.1557,-0.4064 0.10795,0 0.127,0.0254 0.01905,0.0254 0.01905,0.1397 v 3.56235 q 0,0.1905 0.0889,0.24765 0.09525,0.0572 0.50165,0.0572 h 0.2032 v 0.19685 q -0.22225,-0.019 -1.0287,-0.019 -0.80645,0 -1.0287,0.019 v -0.19685 h 0.2032 q 0.40005,0 0.4953,-0.0572 0.09525,-0.0571 0.09525,-0.24765 v -3.2893 q -0.3302,0.1651 -0.83185,0.1651 z m 3.174988,0 v -0.19685 q 0.762,0 1.1557,-0.4064 0.10795,0 0.127,0.0254 0.01905,0.0254 0.01905,0.1397 v 3.56235 q 0,0.1905 0.0889,0.24765 0.09525,0.0572 0.50165,0.0572 h 0.2032 v 0.19685 q -0.22225,-0.019 -1.0287,-0.019 -0.80645,0 -1.0287,0.019 v -0.19685 h 0.2032 q 0.40005,0 0.4953,-0.0572 0.09525,-0.0571 0.09525,-0.24765 v -3.2893 q -0.3302,0.1651 -0.83185,0.1651 z m 2.876538,2.667 q 0,-0.7112 0.9144,-1.1684 -0.3937,-0.2667 -0.46355,-0.3429 -0.2794,-0.31115 -0.2794,-0.6985 0,-0.4445 0.33655,-0.7493 0.33655,-0.31115 0.8128,-0.31115 0.4572,0 0.8001,0.2667 0.3429,0.26035 0.3429,0.67945 0,0.59055 -0.76835,0.98425 0.508,0.3175 0.62865,0.45085 0.31115,0.3429 0.31115,0.78105 0,0.508 -0.3937,0.85725 -0.38735,0.34925 -0.9271,0.34925 -0.52705,0 -0.92075,-0.3048 -0.3937,-0.31115 -0.3937,-0.79375 z m 0.3175,0 q 0,0.3937 0.2921,0.6604 0.29845,0.26035 0.7112,0.26035 0.40005,0 0.6985,-0.2286 0.29845,-0.2286 0.29845,-0.5715 0,-0.13335 -0.04445,-0.24765 -0.04445,-0.1143 -0.13335,-0.2032 -0.0889,-0.0952 -0.14605,-0.13335 -0.0508,-0.0444 -0.1524,-0.1143 l -0.78105,-0.4953 q -0.74295,0.41275 -0.74295,1.07315 z m 0.13335,-2.45745 q 0,0.3048 0.3175,0.51435 l 0.7874,0.508 q 0.62865,-0.3683 0.62865,-0.889 0,-0.33655 -0.26035,-0.5588 -0.254,-0.2286 -0.6096,-0.2286 -0.34925,0 -0.6096,0.18415 -0.254,0.18415 -0.254,0.4699 z m 2.813037,0.4318 0.20955,-1.3081 h 0.15875 q 0.01905,0.0762 0.0508,0.1143 0.03175,0.0318 0.20955,0.0635 0.18415,0.0254 0.55245,0.0254 h 1.54305 q 0,0.14605 -0.05715,0.22225 l -0.85725,1.2065 q -0.27305,0.381 -0.3937,1.08585 -0.06985,0.4699 -0.06985,1.0414 v 0.32385 q 0,0.34925 -0.2921,0.34925 -0.2921,0 -0.2921,-0.34925 0,-1.21285 0.78105,-2.3876 0.08255,-0.12065 0.38735,-0.55245 0.31115,-0.4318 0.32385,-0.45085 h -1.31445 q -0.57785,0 -0.6223,0.0381 -0.0635,0.0572 -0.15875,0.57785 z m 2.997188,1.93675 v -0.19685 l 1.94945,-2.97815 q 0.0508,-0.0762 0.127,-0.0762 0.06985,0 0.08255,0.0318 0.01905,0.0254 0.01905,0.13335 v 2.88925 h 0.6350002 v 0.19685 h -0.6350002 v 0.55245 q 0,0.18415 0.0762,0.2413 0.0762,0.0572 0.4064,0.0572 h 0.13335 v 0.19685 q -0.26035,-0.019 -0.8636,-0.019 -0.5969,0 -0.85725,0.019 v -0.19685 h 0.13335 q 0.3302,0 0.4064,-0.0572 0.0762,-0.0571 0.0762,-0.2413 v -0.55245 z m 0.1778,-0.19685 h 1.5494 v -2.36855 z"
       id="text10"
       style="font-weight:500;font-size:6.35px;font-family:'CMU Serif';-inkscape-font-specification:'CMU Serif Medium';text-align:center;letter-spacing:0px;text-anchor:middle;fill-opacity:0.9;stroke-linecap:square;stroke-linejoin:bevel;stroke-miterlimit:3.9;paint-order:markers stroke fill"
       aria-label="11874" />
    <path
       d="m 227.64965,129.1244 0.20955,-1.3081 h 0.15875 q 0.019,0.0762 0.0508,0.1143 0.0318,0.0318 0.20955,0.0635 0.18415,0.0254 0.55245,0.0254 h 1.54305 q 0,0.14605 -0.0571,0.22225 l -0.85725,1.2065 q -0.27305,0.381 -0.3937,1.08585 -0.0699,0.4699 -0.0699,1.0414 v 0.32385 q 0,0.34925 -0.2921,0.34925 -0.2921,0 -0.2921,-0.34925 0,-1.21285 0.78105,-2.3876 0.0825,-0.12065 0.38735,-0.55245 0.31115,-0.4318 0.32385,-0.45085 h -1.31445 q -0.57785,0 -0.6223,0.0381 -0.0635,0.0572 -0.15875,0.57785 z m 3.08609,2.12725 q 0,-0.1905 0.10795,-0.2794 0.10795,-0.0889 0.24765,-0.0889 0.14605,0 0.24765,0.0952 0.10795,0.0952 0.10795,0.26035 0,0.1778 -0.127,0.2794 -0.12065,0.0952 -0.2921,0.0699 0.1524,0.254 0.4318,0.3683 0.2794,0.1143 0.53975,0.1143 0.27305,0 0.4953,-0.23495 0.22225,-0.23495 0.22225,-0.8128 0,-0.48895 -0.1905,-0.76835 -0.1905,-0.28575 -0.56515,-0.28575 h -0.2794 q -0.0953,0 -0.127,-0.006 -0.0254,-0.0127 -0.0254,-0.0635 0,-0.0635 0.0952,-0.0762 0.0952,0 0.24765,-0.019 0.3683,-0.0127 0.56515,-0.3302 0.1778,-0.29845 0.1778,-0.7239 0,-0.38735 -0.18415,-0.5461 -0.18415,-0.1651 -0.42545,-0.1651 -0.22225,0 -0.4699,0.0953 -0.2413,0.0889 -0.37465,0.29845 0.3937,0 0.3937,0.3175 0,0.1397 -0.0889,0.23495 -0.0889,0.0889 -0.23495,0.0889 -0.1397,0 -0.23495,-0.0889 -0.0889,-0.0889 -0.0889,-0.2413 0,-0.36195 0.32385,-0.6096 0.32385,-0.254 0.8001,-0.254 0.4699,0 0.81915,0.24765 0.34925,0.24765 0.34925,0.62865 0,0.37465 -0.24765,0.6858 -0.24765,0.3048 -0.64135,0.4318 0.4826,0.0952 0.76835,0.42545 0.2921,0.32385 0.2921,0.7239 0,0.4953 -0.3937,0.8636 -0.38735,0.36195 -0.95885,0.36195 -0.52705,0 -0.90805,-0.28575 -0.37465,-0.28575 -0.37465,-0.7112 z m 3.17499,-1.14935 q 0,-0.99695 0.508,-1.60655 0.508,-0.61595 1.16205,-0.61595 0.381,0 0.59055,0.19685 0.2159,0.1905 0.2159,0.48895 0,0.1651 -0.0952,0.23495 -0.0952,0.0699 -0.19685,0.0699 -0.1143,0 -0.2032,-0.0762 -0.0889,-0.0762 -0.0889,-0.2159 0,-0.28575 0.34925,-0.28575 -0.1651,-0.254 -0.5588,-0.254 -0.12065,0 -0.24765,0.0381 -0.12065,0.0317 -0.28575,0.1524 -0.15875,0.1143 -0.28575,0.3048 -0.12065,0.18415 -0.20955,0.5334 -0.0826,0.34925 -0.0826,0.80645 v 0.1524 q 0.26035,-0.62865 0.79375,-0.62865 0.5334,0 0.9017,0.4064 0.3683,0.4064 0.3683,1.00965 0,0.61595 -0.38735,1.0287 -0.381,0.4064 -0.92075,0.4064 -0.2413,0 -0.46355,-0.1016 -0.2159,-0.1016 -0.4191,-0.3302 -0.2032,-0.2286 -0.32385,-0.66675 -0.12065,-0.4445 -0.12065,-1.04775 z m 0.5842,0.5715 q 0,0.6223 0.1143,0.92075 0.019,0.0508 0.0572,0.12065 0.0444,0.0635 0.1143,0.1524 0.0762,0.0889 0.19685,0.14605 0.12065,0.0571 0.26035,0.0571 0.42545,0 0.62865,-0.41275 0.10795,-0.2286 0.10795,-0.8509 0,-0.635 -0.1143,-0.86995 -0.19685,-0.3937 -0.59055,-0.3937 -0.2667,0 -0.45085,0.18415 -0.18415,0.18415 -0.254,0.4318 -0.0699,0.2413 -0.0699,0.51435 z m 2.57174,-0.5969 q 0,-0.93345 0.23495,-1.44145 0.3302,-0.75565 1.1049,-0.75565 0.1651,0 0.33655,0.0444 0.17145,0.0444 0.38735,0.2159 0.22225,0.17145 0.3556,0.45085 0.254,0.53975 0.254,1.4859 0,0.9271 -0.23495,1.4351 -0.3429,0.7366 -1.1049,0.7366 -0.28575,0 -0.57785,-0.14605 -0.28575,-0.14605 -0.4699,-0.4953 -0.28575,-0.52705 -0.28575,-1.53035 z m 0.52705,-0.0762 q 0,0.95885 0.0699,1.33985 0.0762,0.41275 0.28575,0.59055 0.2159,0.1778 0.45085,0.1778 0.254,0 0.46355,-0.1905 0.2159,-0.1905 0.2794,-0.60325 0.0699,-0.4064 0.0699,-1.31445 0,-0.88265 -0.0635,-1.23825 -0.0825,-0.41275 -0.3048,-0.57785 -0.22225,-0.1651 -0.4445,-0.1651 -0.0825,0 -0.17145,0.0254 -0.0889,0.0254 -0.2159,0.0952 -0.127,0.0699 -0.2286,0.24765 -0.0952,0.1778 -0.1397,0.4445 -0.0508,0.3429 -0.0508,1.1684 z"
       id="text11"
       style="font-weight:500;font-size:6.35px;font-family:'CMU Serif';-inkscape-font-specification:'CMU Serif Medium';text-align:center;letter-spacing:0px;text-anchor:middle;fill-opacity:0.9;stroke-linecap:square;stroke-linejoin:bevel;stroke-miterlimit:3.9;paint-order:markers stroke fill"
       aria-label="7360" />
    <path
       style="fill:none;fill-opacity:0.9;stroke:#000000;stroke-width:0.4;stroke-linecap:square;stroke-linejoin:bevel;stroke-miterlimit:3.9;stroke-dasharray:none;marker-end:url(#ArrowWideRounded);paint-order:markers stroke fill"
       d="m -7.8480702,130.02928 h 5.5520679"
       id="path11" />
    <path
       style="fill:none;fill-opacity:0.9;stroke:#000000;stroke-width:0.4;stroke-linecap:square;stroke-linejoin:bevel;stroke-miterlimit:3.9;stroke-dasharray:none;marker-end:url(#ArrowWideRounded);paint-order:markers stroke fill"
       d="m 218.39786,130.02928 h 5.55207"
       id="path12" />
    <path
       style="fill:none;fill-opacity:0.9;stroke:#000000;stroke-width:0.4;stroke-linecap:square;stroke-linejoin:bevel;stroke-miterlimit:3.9;stroke-dasharray:none;marker-end:url(#ArrowWideRounded);paint-order:markers stroke fill"
       d="m 17.290365,130.02928 h 5.55207"
       id="path13" />
    <path
       style="fill:none;fill-opacity:0.9;stroke:#000000;stroke-width:0.4;stroke-linecap:square;stroke-linejoin:bevel;stroke-miterlimit:3.9;stroke-dasharray:none;marker-end:url(#ArrowWideRounded);paint-order:markers stroke fill"
       d="m 42.428802,130.02928 h 5.55207"
       id="path14" />
    <path
       style="fill:none;fill-opacity:0.9;stroke:#000000;stroke-width:0.4;stroke-linecap:square;stroke-linejoin:bevel;stroke-miterlimit:3.9;stroke-dasharray:none;marker-end:url(#ArrowWideRounded);paint-order:markers stroke fill"
       d="m 67.567238,130.02928 h 5.55207"
       id="path15" />
    <path
       style="fill:none;fill-opacity:0.9;stroke:#000000;stroke-width:0.4;stroke-linecap:square;stroke-linejoin:bevel;stroke-miterlimit:3.9;stroke-dasharray:none;marker-end:url(#ArrowWideRounded);paint-order:markers stroke fill"
       d="m 92.705675,130.02928 h 5.55207"
       id="path16" />
    <path
       style="fill:none;fill-opacity:0.9;stroke:#000000;stroke-width:0.4;stroke-linecap:square;stroke-linejoin:bevel;stroke-miterlimit:3.9;stroke-dasharray:none;marker-end:url(#ArrowWideRounded);paint-order:markers stroke fill"
       d="m 117.84411,130.02928 h 5.55207"
       id="path17" />
    <path
       style="fill:none;fill-opacity:0.9;stroke:#000000;stroke-width:0.4;stroke-linecap:square;stroke-linejoin:bevel;stroke-miterlimit:3.9;stroke-dasharray:none;marker-end:url(#ArrowWideRounded);paint-order:markers stroke fill"
       d="m 142.98255,130.02928 h 5.55207"
       id="path18" />
    <path
       style="fill:none;fill-opacity:0.9;stroke:#000000;stroke-width:0.4;stroke-linecap:square;stroke-linejoin:bevel;stroke-miterlimit:3.9;stroke-dasharray:none;marker-end:url(#ArrowWideRounded);paint-order:markers stroke fill"
       d="m 168.12099,130.02928 h 5.55207"
       id="path19" />
    <path
       style="fill:none;fill-opacity:0.9;stroke:#000000;stroke-width:0.4;stroke-linecap:square;stroke-linejoin:bevel;stroke-miterlimit:3.9;stroke-dasharray:none;marker-end:url(#ArrowWideRounded);paint-order:markers stroke fill"
       d="m 193.25942,130.02928 h 5.55207"
       id="path20" />
    <path
       style="fill:none;fill-opacity:0.9;stroke:#000000;stroke-width:0.4;stroke-linecap:square;stroke-linejoin:bevel;stroke-miterlimit:3.9;stroke-dasharray:none;marker-end:url(#ArrowWideRounded);paint-order:markers stroke fill"
       d="m 243.5363,130.02928 h 5.55207"
       id="path21" />
    <path
       style="fill:none;fill-opacity:0.9;stroke:#000000;stroke-width:0.4;stroke-linecap:square;stroke-linejoin:bevel;stroke-miterlimit:3.9;stroke-dasharray:none;marker-end:url(#ArrowWideRounded);paint-order:markers stroke fill"
       d="m -32.98651,130.02928 h 5.55207"
       id="path24" />
    <text
       xml:space="preserve"
       style="font-style:normal;font-variant:normal;font-weight:500;font-stretch:normal;font-size:6.35px;font-family:'CMU Serif';-inkscape-font-specification:'CMU Serif Medium';text-align:center;letter-spacing:0px;text-anchor:middle;fill:none;fill-opacity:0.9;stroke:#000000;stroke-width:0.4;stroke-linecap:square;stroke-linejoin:bevel;stroke-miterlimit:3.9;stroke-dasharray:none;paint-order:markers stroke fill"
       x="106.43949"
       y="127.18845"
       id="text24"><tspan
         sodipodi:role="line"
         id="tspan24"
         style="stroke-width:0.4"
         x="106.43949"
         y="127.18845"></tspan></text>
  </g>
</svg>
