<?xml version="1.0" encoding="UTF-8" standalone="no"?>
<svg
   width="389.53635pt"
   height="305.29025pt"
   viewBox="0 0 389.53636 305.29025"
   version="1.1"
   id="svg80"
   sodipodi:docname="rng.svg"
   inkscape:version="1.3 (0e150ed, 2023-07-21)"
   xmlns:inkscape="http://www.inkscape.org/namespaces/inkscape"
   xmlns:sodipodi="http://sodipodi.sourceforge.net/DTD/sodipodi-0.dtd"
   xmlns="http://www.w3.org/2000/svg"
   xmlns:svg="http://www.w3.org/2000/svg"
   xmlns:rdf="http://www.w3.org/1999/02/22-rdf-syntax-ns#"
   xmlns:cc="http://creativecommons.org/ns#"
   xmlns:dc="http://purl.org/dc/elements/1.1/">
  <sodipodi:namedview
     id="namedview80"
     pagecolor="#ffffff"
     bordercolor="#000000"
     borderopacity="0.25"
     inkscape:showpageshadow="2"
     inkscape:pageopacity="0.0"
     inkscape:pagecheckerboard="0"
     inkscape:deskcolor="#d1d1d1"
     inkscape:document-units="pt"
     inkscape:zoom="1.9569789"
     inkscape:cx="235.31168"
     inkscape:cy="194.68784"
     inkscape:window-width="1920"
     inkscape:window-height="1027"
     inkscape:window-x="0"
     inkscape:window-y="25"
     inkscape:window-maximized="1"
     inkscape:current-layer="svg80" />
  <metadata
     id="metadata1">
    <rdf:RDF>
      <cc:Work>
        <dc:type
           rdf:resource="http://purl.org/dc/dcmitype/StillImage" />
        <dc:date>2024-01-05T15:40:11.154948</dc:date>
        <dc:format>image/svg+xml</dc:format>
        <dc:creator>
          <cc:Agent>
            <dc:title>Matplotlib v3.8.1, https://matplotlib.org/</dc:title>
          </cc:Agent>
        </dc:creator>
      </cc:Work>
    </rdf:RDF>
  </metadata>
  <defs
     id="defs1">
    <marker
       style="overflow:visible"
       id="marker82"
       refX="0"
       refY="0"
       orient="auto-start-reverse"
       inkscape:stockid="Stylized triangle arrow"
       markerWidth="3"
       markerHeight="3"
       viewBox="0 0 1 1"
       inkscape:isstock="true"
       inkscape:collect="always"
       preserveAspectRatio="xMidYMid">
      <path
         transform="scale(0.5)"
         style="fill:context-stroke;fill-rule:evenodd;stroke:context-stroke;stroke-width:1pt"
         d="m 6,0 c -3,1 -7,3 -9,5 0,0 0,-4 2,-5 -2,-1 -2,-5 -2,-5 2,2 6,4 9,5 z"
         id="path82" />
    </marker>
    <marker
       style="overflow:visible"
       id="marker81"
       refX="0"
       refY="0"
       orient="auto-start-reverse"
       inkscape:stockid="Stylized triangle arrow"
       markerWidth="1"
       markerHeight="1"
       viewBox="0 0 1 1"
       inkscape:isstock="true"
       inkscape:collect="always"
       preserveAspectRatio="xMidYMid">
      <path
         transform="scale(0.5)"
         style="fill:context-stroke;fill-rule:evenodd;stroke:context-stroke;stroke-width:1pt"
         d="m 6,0 c -3,1 -7,3 -9,5 0,0 0,-4 2,-5 -2,-1 -2,-5 -2,-5 2,2 6,4 9,5 z"
         id="path81" />
    </marker>
    <marker
       style="overflow:visible"
       id="ArrowTriangleStylized"
       refX="0"
       refY="0"
       orient="auto-start-reverse"
       inkscape:stockid="Stylized triangle arrow"
       markerWidth="3"
       markerHeight="3"
       viewBox="0 0 1 1"
       inkscape:isstock="true"
       inkscape:collect="always"
       preserveAspectRatio="xMidYMid">
      <path
         transform="scale(0.5)"
         style="fill:context-stroke;fill-rule:evenodd;stroke:context-stroke;stroke-width:1pt"
         d="m 6,0 c -3,1 -7,3 -9,5 0,0 0,-4 2,-5 -2,-1 -2,-5 -2,-5 2,2 6,4 9,5 z"
         id="path4" />
    </marker>
    <style
       type="text/css"
       id="style1">*{stroke-linejoin: round; stroke-linecap: butt}</style>
  </defs>
  <g
     id="patch_2"
     transform="translate(-37.230468,-24.093268)">
    <path
       d="M 57.6,307.584 H 414.72 V 41.472 H 57.6 Z"
       style="fill:#ffffff"
       id="path2" />
  </g>
  <g
     id="line2d_18"
     transform="translate(-37.230468,-24.093268)">
    <path
       d="m 73.832727,62.706721 h 3.279339 v -7.657229 h 3.279339 v 7.551433 h 3.279339 V 73.61518 h 3.279339 v 24.001322 h 3.279338 v 3.358098 h 3.279339 v 17.82255 h 3.279339 v 1.08026 h 3.279341 v 14.87073 h 3.27934 v 21.87955 h 3.27934 v 11.96169 h 3.27934 v 13.03261 h 3.27933 v 43.11402 h 3.27934 v 1.36907 h 3.27934 v 24.19955 h 3.27934 v 14.08082 h 3.27934 v 4.5701 h 3.27934 v -15.37523 h 3.27934 v 12.26517 h 3.27933 v 15.9736 h 3.27934 v 0.64068 h 3.27934 V 295.488 h 3.27934 v -22.55263 h 3.27934 v -6.74817 h 3.27934 v 26.28557 h 3.27934 v -12.25884 h 3.27934 v -8.2505 h 3.27934 v -14.94744 h 3.27933 v -9.15433 h 3.27934 v 14.7608 h 3.27934 v -35.91159 h 3.27934 v 5.11381 h 3.27934 v -7.68598 h 3.27934 v -9.07997 h 3.27934 v 17.34139 h 3.27934 v -3.37289 h 3.27934 v 3.3261 h 3.27933 v -6.39535 h 3.27934 v -21.93187 h 3.27934 v 12.34978 h 3.27934 v 20.06117 h 3.27934 v -7.05599 h 3.27934 v 13.85674 h 3.27934 v -12.73879 h 3.27934 v 7.84462 h 3.27933 v 8.49167 h 3.27934 v 13.57742 h 3.27934 v -7.41031 h 3.27934 v -3.57683 h 3.27934 v 19.36583 h 3.27934 v -1.09356 h 3.27934 v -14.85193 h 3.27934 v 6.77206 h 3.27934 v -1.09481 h 3.27933 v 1.01573 h 3.27934 v 4.94051 h 3.27934 v 6.07642 h 3.27934 v -16.34863 h 3.27934 V 253.31 h 3.27934 v 3.92468 h 3.27934 v -4.33953 h 3.27934 v 8.55811 h 3.27934 v -36.84235 h 3.27933 v 16.1091 h 3.27934 v 10.16613 h 3.27934 V 237.2323 h 3.27934 v -7.22445 h 3.27934 v 17.34698 h 3.27934 v -2.58994 h 3.27934 v -9.52401 h 3.27934 v -5.24259 h 3.27934 v 13.84793 h 3.27933 v 1.28792 h 3.27934 v -1.49649 l 6.55868,0.0655 v -3.72096 h 3.27934 v 18.44212 h 3.27934 V 247.8017 h 3.27934 v 13.34411 h 3.27934 v 2.67966 h 3.27934 v -7.29037 h 3.27933 v 8.25038 h 3.27934 v -12.54585 h 3.27934 v -15.09051 h 3.27934 v 31.8409 h 3.27934 v -31.81379 h 3.27934 v 17.37679 h 3.27934 v -4.4358 h 3.27933 v -1.80551 h 3.27934 v 2.52407 h 3.27934 v -8.75123 h 3.27934 v -6.01005 h 3.27934 v 4.38877 h 3.27934 v -1.3508 h 3.27934 V 224.9377 h 3.27934 v 9.84792 h 3.27934 v -2.15967 h 3.27933 v -7.26452 h 3.27934 v 25.86655 h 3.27934 v 0"
       clip-path="url(#p069e09fc69)"
       style="fill:none;stroke:#1f77b4;stroke-width:1.5;stroke-linecap:square"
       id="path75" />
  </g>
  <g
     id="line2d_19"
     transform="translate(-37.230468,-24.093268)">
    <path
       d="m 73.832727,63.244167 h 3.279339 V 53.568 h 3.279339 v 31.653782 h 3.279339 v -2.447086 h 3.279339 v 25.543834 h 3.279338 v 7.21936 h 3.279339 v -12.02052 h 3.279339 v 35.94511 h 3.279341 v 13.04444 h 3.27934 v 27.68485 h 3.27934 v 8.23582 h 3.27934 v 19.93104 h 3.27933 v 11.23766 h 3.27934 v 7.39282 h 3.27934 v 17.33188 h 3.27934 v -1.51065 h 3.27934 v 16.61136 h 3.27934 v -5.17535 h 3.27934 v 2.76754 h 3.27933 v 9.377 h 3.27934 v 12.57903 h 3.27934 v 13.84026 h 3.27934 v -20.7514 h 3.27934 v 11.92985 h 3.27934 v 4.36315 h 3.27934 V 272.9172 h 3.27934 v -19.68833 h 3.27934 v -1.55147 h 3.27933 v -6.5357 h 3.27934 v -7.73918 h 3.27934 v 18.49401 h 3.27934 v -20.66176 h 3.27934 v -11.9588 h 3.27934 v 17.59832 h 3.27934 v -31.27043 h 3.27934 v 1.01112 h 3.27934 v 24.92662 h 3.27933 v -6.41084 h 3.27934 v -6.74285 h 3.27934 v -2.55866 h 3.27934 v 0.8774 h 3.27934 v 10.92296 h 3.27934 v 5.10182 h 3.27934 v 7.35485 h 3.27934 v -5.65958 h 3.27933 v 11.39606 h 3.27934 v -4.54851 h 3.27934 v -13.86993 h 3.27934 v 15.44798 h 3.27934 v 6.22576 h 3.27934 v 6.48692 h 3.27934 v 15.31989 h 3.27934 v -8.90876 h 3.27934 v 2.05467 h 3.27933 v -13.33567 h 3.27934 v 3.25958 h 3.27934 v -10.39796 h 3.27934 v -9.70883 h 3.27934 v 15.00405 h 3.27934 v 10.03932 h 3.27934 v -1.305 h 3.27934 v -32.55996 h 3.27934 v -4.82339 h 3.27933 v 12.01834 h 3.27934 v 3.72237 h 3.27934 v -19.31381 h 3.27934 v 6.20245 h 3.27934 v -4.41795 h 3.27934 v -1.84581 h 3.27934 v 14.54258 h 3.27934 v -21.86378 h 3.27934 v 11.565 h 3.27933 v -2.11084 h 3.27934 v 22.35004 h 3.27934 v 3.77613 h 3.27934 v -8.03044 h 3.27934 v 11.715 h 3.27934 v -16.41351 h 3.27934 v 13.35702 h 3.27934 v -11.80999 h 3.27934 v 6.27206 h 3.27933 v 17.39368 h 3.27934 v -4.36622 h 3.27934 v -5.11104 h 3.27934 v 16.57025 h 3.27934 v -23.0112 h 3.27934 v -6.53879 h 3.27934 v 27.92339 h 3.27933 v -15.60546 h 3.27934 v -6.62307 h 3.27934 v -6.63063 h 3.27934 v -9.79612 h 3.27934 v 1.615 h 3.27934 v 10.97622 h 3.27934 v 14.89624 h 3.27934 v -18.54541 h 3.27934 V 240.18 h 3.27933 v 2.86212 h 3.27934 v -13.27746 h 3.27934 v 0"
       clip-path="url(#p069e09fc69)"
       style="fill:none;stroke:#ff7f0e;stroke-width:1.5;stroke-linecap:square"
       id="path76" />
  </g>
  <g
     id="patch_3"
     transform="translate(-37.230468,-24.093268)">
    <path
       d="M 57.6,307.584 V 41.472"
       style="fill:none;stroke:#000000;stroke-width:0.8;stroke-linecap:square;stroke-linejoin:miter;marker-end:url(#marker82)"
       id="path77" />
  </g>
  <g
     id="patch_4"
     transform="translate(-37.230468,-24.093268)" />
  <g
     id="patch_5"
     transform="translate(-37.230468,-24.093268)">
    <path
       d="M 57.6,307.584 H 414.72"
       style="fill:none;stroke:#000000;stroke-width:0.8;stroke-linecap:square;stroke-linejoin:miter;marker-end:url(#ArrowTriangleStylized)"
       id="path79" />
  </g>
  <g
     id="patch_6"
     transform="translate(-37.230468,-24.093268)" />
  <defs
     id="defs80">
    <clipPath
       id="p069e09fc69">
      <rect
         x="57.599998"
         y="41.472"
         width="357.12"
         height="266.112"
         id="rect80" />
    </clipPath>
  </defs>
  <path
     style="font-style:italic;font-size:18px;font-family:'CMU Serif';-inkscape-font-specification:'CMU Serif Italic';text-align:center;letter-spacing:0px;text-anchor:middle;fill-opacity:0.9;stroke-width:2.83465;stroke-miterlimit:3.9;paint-order:markers stroke fill"
     d="m 381.16634,304.17425 q 0,-0.432 0.27,-0.702 0.27,-0.27 0.63,-0.27 0.612,0 0.612,0.576 0,0.252 -0.18,0.522 -0.162,0.252 -0.522,0.342 0.306,0.252 0.792,0.252 0.378,0 0.666,-0.216 0.306,-0.216 0.504,-0.666 0.216,-0.45 0.324,-0.792 0.108,-0.36 0.252,-0.936 0.216,-0.882 0.414,-1.638 0.378,-1.548 0.378,-1.98 0,-0.54 -0.234,-0.828 -0.234,-0.306 -0.63,-0.306 -0.594,0 -1.206,0.576 -0.594,0.576 -0.936,1.674 -0.072,0.216 -0.108,0.27 -0.036,0.036 -0.216,0.036 -0.27,0 -0.27,-0.18 0,-0.18 0.18,-0.612 0.198,-0.432 0.522,-0.918 0.324,-0.504 0.882,-0.864 0.558,-0.378 1.188,-0.378 1.278,0 1.728,1.224 0.216,-0.414 0.666,-0.81 0.45,-0.414 1.098,-0.414 0.54,0 1.044,0.27 0.522,0.252 0.522,0.864 0,0.468 -0.288,0.72 -0.288,0.234 -0.594,0.234 -0.324,0 -0.486,-0.18 -0.144,-0.18 -0.144,-0.396 0,-0.09 0.018,-0.198 0.018,-0.126 0.198,-0.36 0.18,-0.234 0.504,-0.306 -0.288,-0.252 -0.792,-0.252 -1.062,0 -1.584,1.926 -0.414,1.746 -0.612,2.466 -0.342,1.458 -0.342,1.818 0,0.63 0.252,0.9 0.252,0.252 0.594,0.252 0.612,0 1.206,-0.576 0.594,-0.576 0.936,-1.674 0.072,-0.216 0.108,-0.252 0.054,-0.054 0.216,-0.054 0.27,0 0.27,0.18 0,0.162 -0.18,0.594 -0.18,0.414 -0.504,0.918 -0.324,0.504 -0.882,0.882 -0.558,0.378 -1.206,0.378 -0.486,0 -0.99,-0.27 -0.486,-0.27 -0.72,-0.954 -0.702,1.224 -1.764,1.224 -0.648,0 -1.116,-0.306 -0.468,-0.306 -0.468,-0.81 z"
     id="text82"
     aria-label="x" />
  <path
     style="font-style:italic;font-size:18px;font-family:'CMU Serif';-inkscape-font-specification:'CMU Serif Italic';text-align:center;letter-spacing:0px;text-anchor:middle;fill-opacity:0.9;stroke-width:2.83465;stroke-miterlimit:3.9;paint-order:markers stroke fill"
     d="m 1.7547607e-7,12.078 q 0,-0.234 0.10800000452393,-0.288 0.108,-0.054 0.378,-0.054 0.88200002,0 1.11600002,-0.126 0.252,-0.144 0.36,-0.63 l 2.43,-9.7740003 q 0.072,-0.25200003 0.072,-0.34200003 0,-0.198 -0.252,-0.252 -0.252,-0.054 -0.792,-0.054 -0.198,0 -0.288,0 -0.072,-0.018 -0.144,-0.054 -0.054,-0.054 -0.054,-0.162 0,-0.234 0.108,-0.288 0.108,-0.053999998064 0.378,-0.053999998064 h 5.4 q 1.4399998,0 2.3039998,0.75599999806397 0.882,0.75600003 0.882,1.90800003 0,1.548 -1.476,2.754 -1.4759998,1.188 -3.2219998,1.188 h -2.79 L 3.4200002,11.07 q -0.072,0.252 -0.072,0.36 0,0.108 0.036,0.162 0.036,0.054 0.27,0.108 0.252,0.036 0.738,0.036 0.216,0 0.288,0.018 0.09,0 0.144,0.054 0.054,0.054 0.054,0.162 0,0.324 -0.342,0.324 -0.342,0 -1.08,-0.018 -0.72,-0.036 -1.08,-0.036 -0.36,0 -1.08,0.036 Q 0.59400018,12.294 0.25200018,12.294 1.7547607e-7,12.294 1.7547607e-7,12.078 Z M 4.5900002,6.1379997 h 2.268 q 1.674,0 2.61,-1.044 0.45,-0.522 0.7019998,-1.494 0.252,-0.972 0.252,-1.422 0,-0.828 -0.5939998,-1.22400003 -0.576,-0.396 -1.584,-0.396 h -1.548 q -0.486,0 -0.63,0.09 -0.144,0.09 -0.252,0.55800003 z"
     id="text83"
     aria-label="P" />
</svg>
