<?xml version="1.0" encoding="UTF-8" standalone="no"?>
<svg
   height="280.47406"
   viewBox="0 0 57.226363 12.786668"
   width="1255.2571"
   version="1.1"
   id="svg39185"
   sodipodi:docname="50gb.svg"
   inkscape:version="1.2.1 (9c6d41e, 2022-07-14)"
   xmlns:inkscape="http://www.inkscape.org/namespaces/inkscape"
   xmlns:sodipodi="http://sodipodi.sourceforge.net/DTD/sodipodi-0.dtd"
   xmlns="http://www.w3.org/2000/svg"
   xmlns:svg="http://www.w3.org/2000/svg">
  <defs
     id="defs39189" />
  <sodipodi:namedview
     id="namedview39187"
     pagecolor="#ffffff"
     bordercolor="#000000"
     borderopacity="0.25"
     inkscape:showpageshadow="2"
     inkscape:pageopacity="0.0"
     inkscape:pagecheckerboard="0"
     inkscape:deskcolor="#d1d1d1"
     showgrid="false"
     inkscape:zoom="0.28523101"
     inkscape:cx="592.5022"
     inkscape:cy="378.64046"
     inkscape:window-width="1309"
     inkscape:window-height="776"
     inkscape:window-x="0"
     inkscape:window-y="38"
     inkscape:window-maximized="0"
     inkscape:current-layer="svg39185" />
  <g
     aria-label="&lt;50GB"
     id="text40164"
     style="font-size:16.8949px;-inkscape-font-specification:sans-serif;fill:#1e59ae;stroke-width:74.8297;stroke-linecap:round;stroke-linejoin:round;stroke-dashoffset:4.7622;paint-order:markers fill stroke">
    <path
       d="M 9.5198618,11.895725 -1.8002465e-5,7.6637505 V 6.6408171 L 9.5198618,2.4088428 V 3.8937461 L 2.0128509,7.1522838 9.5198618,10.410821 Z"
       id="path40237" />
    <path
       d="m 21.275346,8.6289376 q 0,0.8579441 -0.313479,1.6416434 -0.31348,0.783699 -0.857945,1.319914 -0.593961,0.577462 -1.418907,0.890942 -0.816697,0.30523 -1.897377,0.30523 -1.006434,0 -1.938623,-0.214486 -0.93219,-0.206237 -1.575648,-0.503218 v -1.740636 h 0.115493 q 0.676456,0.428972 1.583897,0.734202 0.907441,0.296981 1.781884,0.296981 0.585711,0 1.130176,-0.16499 0.552714,-0.164989 0.981686,-0.577462 0.362976,-0.354727 0.544465,-0.8496946 0.189737,-0.4949677 0.189737,-1.1466753 0,-0.6352086 -0.222735,-1.0724301 Q 19.163484,7.1110365 18.775759,6.8470537 18.346787,6.5335741 17.728077,6.4098321 17.117617,6.2778407 16.358666,6.2778407 q -0.725952,0 -1.402408,0.098994 -0.668207,0.098994 -1.154925,0.1979871 V 0.2474836 h 7.391518 v 1.4436559 h -5.799372 v 3.2667872 q 0.354727,-0.032998 0.725953,-0.049497 0.371226,-0.016499 0.643458,-0.016499 0.998185,0 1.748886,0.1732387 0.750701,0.1649893 1.37766,0.5939613 0.659957,0.4537205 1.022934,1.1714237 0.362976,0.7177033 0.362976,1.7983829 z"
       id="path40239" />
    <path
       d="m 32.09864,6.3850838 q 0,3.3080345 -1.039433,4.8589332 -1.031182,1.54265 -3.209041,1.54265 -2.210856,0 -3.233789,-1.567398 -1.014684,-1.5673981 -1.014684,-4.8176863 0,-3.2750367 1.031183,-4.8341851 Q 25.664059,-2.8219074e-7 27.850166,-2.8219074e-7 q 2.210856,0 3.22554,1.59214628219074 1.022934,1.5838968 1.022934,4.7929378 z M 29.929031,10.13034 q 0.288731,-0.6682067 0.387725,-1.5673981 0.107243,-0.9074409 0.107243,-2.1778581 0,-1.2539184 -0.107243,-2.1778582 Q 30.217762,3.2832858 29.920782,2.6398277 29.63205,2.0046191 29.128833,1.6828901 28.633865,1.361161 27.850166,1.361161 q -0.775449,0 -1.286916,0.3217291 -0.503217,0.321729 -0.800198,0.9734366 -0.280481,0.6104602 -0.387724,1.5921462 -0.09899,0.9816861 -0.09899,2.1531098 0,1.2869161 0.09074,2.1531097 0.09074,0.8661936 0.387725,1.5508986 0.272232,0.643458 0.7672,0.981686 0.503217,0.338228 1.328163,0.338228 0.77545,0 1.286917,-0.321729 0.511466,-0.321729 0.791948,-0.973436 z"
       id="path40241" />
    <path
       d="m 45.108045,11.623492 q -1.006435,0.46197 -2.202607,0.808448 -1.187922,0.338228 -2.3016,0.338228 -1.435406,0 -2.631578,-0.395974 -1.196173,-0.395975 -2.037618,-1.187923 -0.849694,-0.800198 -1.311664,-1.99637 -0.46197,-1.2044215 -0.46197,-2.8130667 0,-2.9450581 1.715888,-4.6444474 1.724138,-1.70763879 4.726942,-1.70763879 1.047682,0 2.136611,0.25573334 1.097178,0.24748387 2.359346,0.84969465 v 1.9386237 h -0.14849 Q 44.695572,2.8708127 44.208853,2.5490837 43.722135,2.2273546 43.251916,2.0128686 42.682703,1.7571352 41.95675,1.592146 41.239047,1.4189073 40.323356,1.4189073 q -2.062365,0 -3.266787,1.3281635 -1.196172,1.319914 -1.196172,3.5802667 0,2.3840947 1.253918,3.7122585 1.253919,1.319914 3.415278,1.319914 0.791948,0 1.575647,-0.15674 0.791949,-0.15674 1.38591,-0.404224 V 7.7874924 H 40.199614 V 6.3520859 h 4.908431 z"
       id="path40243" />
    <path
       d="m 57.226502,8.7526795 q 0,0.9156904 -0.346477,1.6168945 -0.346478,0.701205 -0.93219,1.154925 -0.692955,0.544464 -1.52615,0.775449 -0.824946,0.230985 -2.103613,0.230985 H 47.962356 V 0.2474836 h 3.638013 q 1.344662,0 2.012868,0.0989936 0.668207,0.0989935 1.278667,0.41247313 0.676456,0.35472692 0.981686,0.91569032 0.30523,0.552714 0.30523,1.3281635 0,0.874443 -0.445471,1.4931527 -0.445471,0.6104603 -1.187922,0.9816861 v 0.065996 q 1.245669,0.2557333 1.963372,1.0971785 0.717703,0.8331957 0.717703,2.1118624 z M 54.479431,3.2172901 q 0,-0.445471 -0.14849,-0.7507011 Q 54.18245,2.1613589 53.852472,1.9716213 53.464747,1.7488858 52.912033,1.699389 52.359319,1.6416428 51.542622,1.6416428 h -1.946873 v 3.5472689 h 2.111863 q 0.7672,0 1.22092,-0.074245 0.45372,-0.082495 0.841445,-0.3299785 0.387725,-0.2474839 0.544465,-0.6352086 0.164989,-0.3959742 0.164989,-0.9321893 z m 1.047682,5.6013851 q 0,-0.7424516 -0.222736,-1.1796731 Q 55.081642,7.2017806 54.49593,6.8965504 54.099956,6.6903139 53.530743,6.6325676 52.969779,6.5665719 52.161332,6.5665719 h -2.565583 v 4.5702021 h 2.161359 q 1.07243,0 1.757136,-0.107243 0.684705,-0.115492 1.121927,-0.412473 0.46197,-0.321729 0.676456,-0.7342021 0.214486,-0.4124731 0.214486,-1.0641807 z"
       id="path40245" />
  </g>
</svg>
