<?xml version="1.0" encoding="UTF-8" standalone="no"?>
<svg
   height="284.60388"
   viewBox="0 0 12.92532 12.974944"
   width="283.51617"
   version="1.1"
   id="svg39185"
   sodipodi:docname="CERN_logo.svg"
   inkscape:version="1.2.1 (9c6d41e, 2022-07-14)"
   xmlns:inkscape="http://www.inkscape.org/namespaces/inkscape"
   xmlns:sodipodi="http://sodipodi.sourceforge.net/DTD/sodipodi-0.dtd"
   xmlns="http://www.w3.org/2000/svg"
   xmlns:svg="http://www.w3.org/2000/svg">
  <defs
     id="defs39189" />
  <sodipodi:namedview
     id="namedview39187"
     pagecolor="#ffffff"
     bordercolor="#000000"
     borderopacity="0.25"
     inkscape:showpageshadow="2"
     inkscape:pageopacity="0.0"
     inkscape:pagecheckerboard="0"
     inkscape:deskcolor="#d1d1d1"
     showgrid="false"
     inkscape:zoom="0.98362811"
     inkscape:cx="137.24699"
     inkscape:cy="162.6631"
     inkscape:window-width="1309"
     inkscape:window-height="776"
     inkscape:window-x="0"
     inkscape:window-y="38"
     inkscape:window-maximized="0"
     inkscape:current-layer="svg39185" />
  <path
     id="rect40034"
     style="fill:#1e59ae;fill-opacity:1;stroke-width:4.30767;stroke-linecap:round;stroke-linejoin:round;stroke-dashoffset:4.7622;paint-order:markers fill stroke"
     d="M 12.92507,0.04694189 C 12.3758,0.04274189 6.6589881,-9.8311124e-4 4.80373,1.6888758e-5 4.4985803,3.1688876e-4 4.2937175,0.02110589 4.2277175,0.02610589 1.8189499,0.18203599 0.00800522,2.2937975 5.3242197e-6,4.5970752 -0.00246468,5.2666545 0.17605882,6.0212943 0.46533852,7.0397633 0.84774822,8.3852519 1.2957439,9.9289964 1.2957439,9.9289964 h 0.2445092 l -0.90279648,-3.0462141 0.00703,-0.00508 C 1.3077059,8.158991 2.8369873,9.1884294 4.5723055,9.1884294 c 0.9362691,0 1.8047787,-0.262147 2.489168,-0.7447461 l 0.00605,0.00508 -4.2562948,4.5260917 0.3136151,8.9e-5 C 3.3181636,12.769624 6.2169269,9.6884714 7.144376,8.7035124 7.8795653,7.9228231 8.261606,7.419684 8.4214158,7.1586343 8.6048555,6.8594746 9.1873505,5.9962691 9.1654505,4.7248504 l 0.0077,-7.124e-4 1.8126275,8.250806 0.252214,-8.9e-5 C 11.087362,12.304575 9.6935335,6.1017286 9.4226035,4.8066799 9.1643735,3.5723112 8.8627925,2.7676013 8.5378825,2.2747718 8.3770228,2.1795419 8.2373399,2.1206918 8.12268,2.0860919 8.6028095,2.7412012 8.9523735,3.668649 8.9523735,4.596808 c 0,2.3995876 -1.9518835,4.3514804 -4.3514811,4.3514804 -2.3995876,0 -4.35192578,-1.9518928 -4.35192578,-4.3514804 0,-2.3995976 1.95940288,-4.35192581 4.35335048,-4.35192581 1.013179,0 1.9829193,0.3514147 2.7279785,0.94019411 0.1583999,0.0247 0.3143643,0.057791 0.4671141,0.098391 C 7.2675403,0.78957809 6.6011521,0.42407239 5.8899529,0.22440259 v -0.00632 l 7.0353841,0.043453 z M 11.569584,1.137706 11.150463,5.4659466 h -0.008 C 11.08318,4.6492674 10.675759,3.6731205 10.17305,3.0564712 h -1.78e-4 C 9.2997425,1.9857922 8.0184724,1.3392079 6.5794938,1.3392079 c -1.3722986,0 -2.5947539,0.6088687 -3.4357731,1.5634878 L 3.3364075,3.0551355 C 4.1308567,2.1566064 5.2692851,1.5808678 6.5794938,1.5808678 c 1.5949084,0 2.8941717,0.8174 3.6208922,1.9286489 0.648719,0.991649 0.863955,2.2623327 0.713315,3.1933118 -0.04798,0.2987997 -0.153863,0.8663933 -0.523923,1.5165627 l 0.07275,0.331236 C 10.937718,7.790038 11.1861,7.0672809 11.38153,5.3259726 11.53782,3.935674 11.805904,1.137706 11.805904,1.137706 Z M 2.0820734,3.52501 c -0.5983094,0 -1.0381402,0.3874032 -1.0381402,0.9691327 l -8.9e-5,2.671e-4 c 0,0.5849094 0.4148222,0.9687765 1.0240715,0.9687765 0.3361997,0 0.5598514,-0.1393567 0.6244513,-0.1880566 L 2.7322578,5.0631208 2.7213947,5.0522577 C 2.5806448,5.1711475 2.4243131,5.3234795 2.0969434,5.3234795 c -0.3640696,0 -0.7715486,-0.2899155 -0.7715486,-0.836015 0,-0.5609194 0.3997505,-0.8421589 0.7472402,-0.8421589 0.2737497,0 0.4586084,0.1104712 0.5736083,0.2378311 l 0.016206,-0.00605 c 0.011,-0.05679 0.036405,-0.1477501 0.067405,-0.2165501 C 2.5813338,3.5970619 2.3149032,3.52501 2.0820734,3.52501 Z m 4.1463279,0.016918 c 0.004,0.1721599 0.00899,0.3590902 0.00899,0.6998698 0,0.4367396 -0.00594,0.9010077 -0.028137,1.1871075 0.03143,-0.006 0.070515,-0.00997 0.1185149,-0.00997 0.04726,0 0.087809,0.00497 0.1153093,0.00997 -0.0119,-0.2218998 -0.032411,-0.6321069 -0.032411,-0.9009266 0,-0.2024898 0.00103,-0.4106438 0.00303,-0.5108337 0.09842,0.1047799 1.2340038,1.2894079 1.3426637,1.4361578 l 0.088508,7.123e-4 -3.562e-4,-8.91e-5 c -0.004,-0.1721598 -0.00899,-0.3655011 -0.00899,-0.7062808 0,-0.4367395 0.00598,-0.9010077 0.028583,-1.1871074 -0.03179,0.006 -0.070871,0.010062 -0.1188711,0.010062 -0.04725,0 -0.087898,-0.00506 -0.1153983,-0.010062 0.0119,0.2215398 0.032411,0.6322059 0.032411,0.9010156 0,0.2024998 -0.00103,0.3792458 -0.00303,0.4790457 C 7.5607867,4.8358291 6.4315589,3.6674373 6.3169091,3.5429074 Z M 4.5350904,3.561517 c 0.0109,0.2324797 0.021459,0.4680985 0.021459,0.7009383 v 0.4653333 c 0,0.2328297 -0.010559,0.4681085 -0.021459,0.7009383 0.04586,-0.008 0.129085,-0.00899 0.146385,-0.00899 0.01694,0 0.1001288,9.933e-4 0.1460288,0.00899 -0.0109,-0.2328298 -0.021548,-0.4681086 -0.021548,-0.7009383 V 4.5125743 h 0.1376589 c 0.2331798,0.2395298 0.5757058,0.7531729 0.6825957,0.9161528 0.05151,-0.008 0.145014,-0.00899 0.1697139,-0.00899 0.02469,0 0.1152689,9.933e-4 0.1692688,0.00899 C 5.8082035,5.2526872 5.333418,4.6741125 5.2007681,4.5090127 5.4064379,4.4822027 5.7655612,4.3523928 5.7655612,3.9922131 c 0,-0.3404396 -0.2804816,-0.4306959 -0.5863413,-0.4306959 -0.1026599,0 -0.2053324,0.013356 -0.3083523,0.013356 -0.1030099,0 -0.2327673,-0.00536 -0.3357772,-0.013356 z m -1.4986653,8.9e-5 c 0.011,0.2300098 0.021904,0.4652592 0.021904,0.698089 v 0.4653333 c 0,0.2328297 -0.011004,0.4681278 -0.021904,0.7037876 0.1650999,-0.0084 0.4183922,-0.013356 0.583492,-0.013356 h 0.024041 c 0.05645,0 0.1284254,9.589e-4 0.2021253,0.00196 0.1280599,0.0023 0.2631748,0.00631 0.3601747,0.011308 l 6.233e-4,8.9e-5 c -0.004,-0.0286 -0.00597,-0.058649 -0.00597,-0.099549 0,-0.04127 0.00297,-0.083501 0.00597,-0.104001 -0.1844998,0.017 -0.6914413,0.032261 -0.8893511,0.035261 -0.00371,-0.04938 -0.00803,-0.634903 -0.00303,-0.7256029 0.07902,0 0.4971334,0.00566 0.6837532,0.024665 -0.005,-0.0271 -0.00801,-0.067274 -0.00801,-0.094474 0,-0.02681 0.00301,-0.075509 0.00801,-0.1023092 -0.1598098,0.013 -0.3644935,0.026802 -0.6837532,0.026802 0,-0.06774 0.00501,-0.5612785 0.00801,-0.6776984 0.3517196,0 0.669981,0.021861 0.8484808,0.035261 -0.003,-0.0184 -0.00703,-0.056494 -0.00703,-0.093494 0,-0.0367 0.00303,-0.066669 0.00703,-0.092069 -0.09384,0.0064 -0.3969037,0.013356 -0.5591835,0.013356 -0.1622798,0 -0.4131093,-0.00536 -0.5753892,-0.013356 z m 2.0487665,0.1137956 c 0.1841498,0 0.4194767,0.085395 0.4194767,0.3545651 -3.455e-4,0.308168 -0.2936213,0.3790409 -0.5167995,0.384038 -0.02787,0.001 -0.1544895,0.00195 -0.1812895,-0.00205 V 4.2631678 c 0,-0.1950898 0.00821,-0.3768499 0.016206,-0.5744097 0.0568,-0.0054 0.1378767,-0.013356 0.2624063,-0.013356 z M 1.9883122,6.1601177 c 0.0194,0.6371094 0.1657774,1.3032029 0.4882171,1.9590122 v -1.781e-4 c 0.1125299,0.0889 0.2419743,0.1725051 0.4141342,0.2356051 C 2.4137039,7.5308177 2.2758462,6.7731046 2.2472463,6.1631452 c -0.08184,0 -0.1767341,-0.00303 -0.2589341,-0.00303 z m 7.8999813,2.7761507 c -0.77823,0.909459 -1.9568427,1.5166486 -3.3058613,1.5159386 -0.2614098,0 -0.5161729,-0.02616 -0.7377127,-0.06536 -0.06315,0.06703 -0.1301444,0.138678 -0.2003444,0.213078 0.3450197,0.07305 0.655086,0.101953 0.9521257,0.101953 1.3871186,0 2.5784747,-0.630037 3.3567037,-1.4707056 z M 3.1054327,9.1511264 C 3.6187222,9.7095654 4.279532,10.124431 4.9551013,10.39148 5.0203713,10.32234 5.0817716,10.257046 5.1381716,10.196746 4.4619023,9.9536864 3.9150671,9.5776224 3.5696975,9.2788124 3.4088376,9.2439124 3.2497125,9.1998264 3.1054327,9.1511264 Z"
     sodipodi:nodetypes="cccccccccscccccccccccccsssscccccccccccsccscccccccsccscccssscccscscscsccccscscsccccsscscscccsccsssccsscsscccsccccsccccscsccscccscsscccccsccccsccccccc" />
</svg>
