<?xml version="1.0" encoding="UTF-8" standalone="no"?>
<!-- Created with Inkscape (http://www.inkscape.org/) -->

<svg
   width="54.224998mm"
   height="191.22141mm"
   viewBox="0 0 54.224998 191.22141"
   version="1.1"
   id="svg23620"
   inkscape:version="1.2.1 (9c6d41e, 2022-07-14)"
   sodipodi:docname="convert-flow.svg"
   xmlns:inkscape="http://www.inkscape.org/namespaces/inkscape"
   xmlns:sodipodi="http://sodipodi.sourceforge.net/DTD/sodipodi-0.dtd"
   xmlns="http://www.w3.org/2000/svg"
   xmlns:svg="http://www.w3.org/2000/svg">
  <sodipodi:namedview
     id="namedview23622"
     pagecolor="#ffffff"
     bordercolor="#000000"
     borderopacity="0.25"
     inkscape:showpageshadow="2"
     inkscape:pageopacity="0.0"
     inkscape:pagecheckerboard="0"
     inkscape:deskcolor="#d1d1d1"
     inkscape:document-units="mm"
     showgrid="false"
     inkscape:zoom="0.69433265"
     inkscape:cx="-46.807535"
     inkscape:cy="427.74886"
     inkscape:window-width="1512"
     inkscape:window-height="850"
     inkscape:window-x="0"
     inkscape:window-y="38"
     inkscape:window-maximized="0"
     inkscape:current-layer="g25286" />
  <defs
     id="defs23617">
    <marker
       style="overflow:visible"
       id="Arrow2"
       refX="0"
       refY="0"
       orient="auto-start-reverse"
       inkscape:stockid="Arrow2"
       markerWidth="7.6999998"
       markerHeight="5.5999999"
       viewBox="0 0 7.7 5.6"
       inkscape:isstock="true"
       inkscape:collect="always"
       preserveAspectRatio="xMidYMid">
      <path
         transform="scale(0.7)"
         d="M -2,-4 9,0 -2,4 c 2,-2.33 2,-5.66 0,-8 z"
         style="fill:context-stroke;fill-rule:evenodd;stroke:none"
         id="arrow2L" />
    </marker>
  </defs>
  <g
     inkscape:label="Layer 1"
     inkscape:groupmode="layer"
     id="layer1"
     transform="translate(-61.31656,-60.091965)">
    <g
       id="g143"
       transform="translate(48.002569,31.993103)">
      <g
         id="g7323"
         transform="translate(0,29.333237)">
        <g
           id="g26081"
           transform="translate(-0.54594577,0.67004643)">
          <path
             style="fill:#ffffff;stroke:#1a1a1a;stroke-width:1;stroke-linecap:round;stroke-linejoin:miter;stroke-dasharray:none;paint-order:markers fill stroke"
             d="M 37.150191,51.980802 32.50758,56.62393 V 82.323653 H 55.787296 V 51.980802 Z"
             id="path25162"
             sodipodi:nodetypes="cccccc" />
          <path
             style="fill:#ffffff;stroke:#1a1a1a;stroke-width:1;stroke-linecap:round;stroke-linejoin:miter;stroke-dasharray:none;paint-order:markers fill stroke"
             d="m 35.033523,54.09747 -4.642611,4.643128 V 84.440321 H 53.670628 V 54.09747 Z"
             id="path25160"
             sodipodi:nodetypes="cccccc" />
          <path
             style="fill:#ffffff;stroke:#1a1a1a;stroke-width:1;stroke-linecap:round;stroke-linejoin:miter;stroke-dasharray:none;paint-order:markers fill stroke"
             d="m 32.916855,56.214138 -4.642611,4.643128 V 86.556989 H 51.55396 V 56.214138 Z"
             id="path25158"
             sodipodi:nodetypes="cccccc" />
          <path
             style="fill:#ffffff;stroke:#1a1a1a;stroke-width:1;stroke-linecap:round;stroke-linejoin:miter;stroke-dasharray:none;paint-order:markers fill stroke"
             d="m 30.800187,58.330806 -4.642611,4.643128 V 88.673657 H 49.437292 V 58.330806 Z"
             id="path2"
             sodipodi:nodetypes="cccccc" />
          <path
             id="rect2"
             style="fill:none;stroke:#1a1a1a;stroke-linecap:round;stroke-linejoin:bevel;paint-order:markers stroke fill"
             d="m 30.76851,58.364191 v 4.642942 h -4.642942 z"
             sodipodi:nodetypes="cccc" />
          <text
             xml:space="preserve"
             style="font-size:9.3076px;font-family:sans-serif;-inkscape-font-specification:sans-serif;text-align:center;text-anchor:middle;fill:#008000;stroke-width:0.824491;stroke-linecap:round;stroke-linejoin:round;stroke-dashoffset:4.7622;paint-order:markers fill stroke"
             x="37.792889"
             y="85.196251"
             id="text7265"><tspan
               sodipodi:role="line"
               id="tspan7263"
               style="text-align:center;text-anchor:middle;fill:#008000;stroke-width:0.824491"
               x="37.792889"
               y="85.196251">log</tspan></text>
          <path
             style="fill:none;stroke:#000000;stroke-width:1;stroke-linecap:round;stroke-linejoin:round;stroke-dashoffset:4.7622;paint-order:markers fill stroke"
             d="M 32.896877,60.645133 H 47.313576"
             id="path25138" />
          <path
             style="fill:none;stroke:#000000;stroke-width:1;stroke-linecap:round;stroke-linejoin:round;stroke-dashoffset:4.7622;paint-order:markers fill stroke"
             d="M 32.896877,62.897279 H 47.313576"
             id="path25140" />
          <path
             style="fill:none;stroke:#000000;stroke-width:1;stroke-linecap:round;stroke-linejoin:round;stroke-dashoffset:4.7622;paint-order:markers fill stroke"
             d="m 28.437036,65.149425 h 18.87654"
             id="path25142"
             sodipodi:nodetypes="cc" />
          <path
             style="fill:none;stroke:#000000;stroke-width:1;stroke-linecap:round;stroke-linejoin:round;stroke-dashoffset:4.7622;paint-order:markers fill stroke"
             d="m 28.437036,67.401571 h 18.87654"
             id="path25144"
             sodipodi:nodetypes="cc" />
          <path
             style="fill:none;stroke:#000000;stroke-width:1;stroke-linecap:round;stroke-linejoin:round;stroke-dashoffset:4.7622;paint-order:markers fill stroke"
             d="m 28.437036,69.653716 h 18.87654"
             id="path25146"
             sodipodi:nodetypes="cc" />
          <path
             style="fill:none;stroke:#000000;stroke-width:1;stroke-linecap:round;stroke-linejoin:round;stroke-dashoffset:4.7622;paint-order:markers fill stroke"
             d="m 28.437036,71.905862 h 18.87654"
             id="path25148"
             sodipodi:nodetypes="cc" />
          <path
             style="fill:none;stroke:#000000;stroke-width:1;stroke-linecap:round;stroke-linejoin:round;stroke-dashoffset:4.7622;paint-order:markers fill stroke"
             d="m 28.437036,74.158008 h 18.87654"
             id="path25150"
             sodipodi:nodetypes="cc" />
          <path
             style="fill:none;stroke:#000000;stroke-width:1;stroke-linecap:round;stroke-linejoin:round;stroke-dashoffset:4.7622;paint-order:markers fill stroke"
             d="m 28.437036,76.410154 h 18.87654"
             id="path25154"
             sodipodi:nodetypes="cc" />
        </g>
        <g
           id="g25286"
           transform="translate(3.240436,-15.189544)">
          <rect
             style="fill:#ffffff;stroke:#000000;stroke-width:1;stroke-linecap:round;stroke-linejoin:round;stroke-dashoffset:4.7622;paint-order:markers fill stroke"
             id="rect25274"
             width="32.409573"
             height="23.94231"
             x="20.981268"
             y="14.455169" />
          <rect
             style="fill:#000000;stroke:#000000;stroke-width:1;stroke-linecap:round;stroke-linejoin:round;stroke-dashoffset:4.7622;paint-order:markers fill stroke"
             id="rect25276"
             width="32.409573"
             height="2.1830292"
             x="20.981268"
             y="14.455169" />
          <g
             aria-label="$ measure"
             id="text25280"
             style="font-size:5.64444px;-inkscape-font-specification:sans-serif;stroke-width:0.55409;stroke-linecap:round;stroke-linejoin:round;stroke-dashoffset:4.7622;paint-order:markers fill stroke">
            <path
               d="m 26.161418,32.287224 v 0.338666 h -1.038577 v 0.694266 h 0.508 q 0.07338,0 0.124178,0.0508 l 0.349955,0.349956 q 0.04516,0.04516 0.04516,0.118533 v 0.361244 q 0,0.07338 -0.04516,0.118533 l -0.338666,0.338667 q -0.0508,0.0508 -0.124178,0.0508 h -0.519289 v 0.677332 h -0.338666 v -0.677332 h -1.00471 v -0.338667 h 1.00471 v -0.711199 h -0.513644 q -0.06773,0 -0.118533,-0.0508 l -0.338667,-0.338667 q -0.0508,-0.0508 -0.0508,-0.118533 v -0.3556 q 0,-0.06773 0.0508,-0.118533 l 0.338667,-0.338666 q 0.0508,-0.0508 0.118533,-0.0508 h 0.513644 v -0.677333 h 0.338666 v 0.677333 z m -1.377243,0.338666 h -0.440266 l -0.242711,0.242711 v 0.214489 l 0.242711,0.237066 h 0.440266 z m 0.338666,1.744132 h 0.451556 l 0.237066,-0.237066 v -0.220133 l -0.248355,-0.254 h -0.440267 z"
               style="font-family:'IBM 3270';-inkscape-font-specification:'IBM 3270, '"
               id="path27697" />
            <path
               d="m 31.15674,33.218556 v 1.828799 H 30.812429 V 33.218556 L 30.581007,32.98149 h -0.2032 l -0.248355,0.242711 v 1.823154 h -0.338667 v -2.404531 h 0.344311 v 0.09596 l 0.0508,-0.0508 q 0.0508,-0.0508 0.118533,-0.0508 h 0.349956 q 0.07338,0 0.124177,0.0508 l 0.2032,0.220133 0.214489,-0.214488 q 0.0508,-0.0508 0.118533,-0.0508 h 0.361244 q 0.06773,0 0.118534,0.0508 l 0.333022,0.333021 q 0.0508,0.0508 0.0508,0.118534 v 1.902176 H 31.839717 V 33.212912 L 31.608295,32.98149 h -0.220133 z"
               style="font-family:'IBM 3270';-inkscape-font-specification:'IBM 3270, '"
               id="path27699" />
            <path
               d="m 33.149224,34.003134 v 0.462844 l 0.242711,0.254 h 1.484487 v 0.316088 h -1.552221 q -0.06773,0 -0.112888,-0.04516 l -0.349956,-0.338667 q -0.04516,-0.04516 -0.04516,-0.118533 v -1.365954 q 0,-0.05645 0.05644,-0.112889 l 0.344311,-0.3556 q 0.06209,-0.06209 0.124178,-0.06209 h 1.021643 q 0.05645,0 0.118534,0.06209 l 0.333022,0.349955 q 0.0508,0.0508 0.0508,0.112889 v 0.841022 z m 0.0056,-0.349956 h 1.382888 V 33.229845 L 34.295045,32.98149 h -0.891821 l -0.248356,0.254 z"
               style="font-family:'IBM 3270';-inkscape-font-specification:'IBM 3270, '"
               id="path27701" />
            <path
               d="M 37.551883,34.708689 V 33.974911 H 36.41735 l -0.242711,0.248356 v 0.237066 l 0.237067,0.254 z m 0.338666,0.0056 h 0.344311 v 0.327378 h -1.896532 q -0.06773,0 -0.118533,-0.0508 l -0.327378,-0.349956 q -0.0508,-0.0508 -0.0508,-0.118533 v -0.366888 q 0,-0.06773 0.0508,-0.118534 l 0.333022,-0.344311 q 0.04516,-0.04516 0.118533,-0.04516 h 1.207911 v -0.440266 l -0.231422,-0.237067 h -1.151466 v -0.333022 h 1.219199 q 0.06773,0 0.118533,0.0508 l 0.333022,0.338666 q 0.0508,0.0508 0.0508,0.112889 z"
               style="font-family:'IBM 3270';-inkscape-font-specification:'IBM 3270, '"
               id="path27703" />
            <path
               d="m 40.571654,33.224201 -0.248356,-0.248355 h -0.869244 l -0.163688,0.169333 1.574798,1.247421 q 0.06209,0.0508 0.06209,0.124178 0,0.07902 -0.0508,0.129822 l -0.355599,0.349955 q -0.0508,0.0508 -0.118534,0.0508 l -1.015999,-0.0056 q -0.07338,0 -0.118533,-0.04516 l -0.349955,-0.338666 q -0.0508,-0.0508 -0.0508,-0.124178 v -0.158044 h 0.338666 v 0.08467 l 0.248355,0.242711 0.880533,0.0056 0.169333,-0.169334 -1.569154,-1.241776 q -0.0508,-0.03951 -0.06209,-0.124178 -0.01129,-0.07338 0.04516,-0.129822 l 0.338666,-0.3556 q 0.0508,-0.0508 0.124178,-0.0508 h 1.010354 q 0.06773,0 0.118534,0.0508 l 0.349955,0.344311 q 0.0508,0.0508 0.0508,0.118533 v 0.180622 h -0.338666 z"
               style="font-family:'IBM 3270';-inkscape-font-specification:'IBM 3270, '"
               id="path27705" />
            <path
               d="m 43.676093,34.8498 -0.135467,0.135466 q -0.0508,0.0508 -0.118533,0.0508 h -1.027288 q -0.06773,0 -0.112889,-0.04516 l -0.333022,-0.327378 q -0.0508,-0.0508 -0.0508,-0.118533 l -0.0056,-1.902176 0.327377,-0.0056 0.01129,1.840088 0.231422,0.231422 h 0.891822 l 0.237066,-0.248356 0.0056,-1.823154 h 0.333022 l -0.0056,1.890888 q 0,0.02822 -0.01693,0.06773 l 0.1016,0.112889 h 0.276578 v 0.333022 h -0.344311 q -0.07902,0 -0.118534,-0.0508 z"
               style="font-family:'IBM 3270';-inkscape-font-specification:'IBM 3270, '"
               id="path27707" />
            <path
               d="m 45.533109,33.557223 v 1.484488 l -0.338666,0.0056 0.0056,-1.890887 q 0,-0.06773 -0.0508,-0.124178 -0.05644,-0.0508 -0.129822,-0.0508 h -0.09595 l -0.0056,-0.338666 0.276578,-0.0056 q 0.08467,0 0.208844,0.112889 0.124178,0.112889 0.129822,0.237066 v 0.1016 l 0.389467,-0.39511 q 0.0508,-0.0508 0.118533,-0.0508 l 0.412044,-0.0056 q 0.07338,0 0.118533,0.0508 l 0.3556,0.344311 q 0.0508,0.0508 0.0508,0.124178 v 0.169333 H 46.63942 v -0.1016 l -0.254,-0.242711 h -0.270933 z"
               style="font-family:'IBM 3270';-inkscape-font-specification:'IBM 3270, '"
               id="path27709" />
            <path
               d="m 48.276303,34.003134 v 0.462844 l 0.242711,0.254 h 1.484487 v 0.316088 H 48.45128 q -0.06773,0 -0.112888,-0.04516 l -0.349956,-0.338667 q -0.04516,-0.04516 -0.04516,-0.118533 v -1.365954 q 0,-0.05645 0.05644,-0.112889 l 0.344311,-0.3556 q 0.06209,-0.06209 0.124178,-0.06209 h 1.021643 q 0.05644,0 0.118534,0.06209 l 0.333022,0.349955 q 0.0508,0.0508 0.0508,0.112889 v 0.841022 z m 0.0056,-0.349956 h 1.382888 V 33.229845 L 49.422124,32.98149 h -0.891821 l -0.248356,0.254 z"
               style="font-family:'IBM 3270';-inkscape-font-specification:'IBM 3270, '"
               id="path27711" />
          </g>
        </g>
        <path
           style="fill:none;stroke:#000000;stroke-width:1;stroke-linecap:round;stroke-linejoin:round;stroke-dashoffset:4.7622;marker-end:url(#Arrow2);paint-order:markers fill stroke"
           d="m 40.42649,29.529412 v 10.99996"
           id="path8313"
           sodipodi:nodetypes="cc" />
        <path
           style="fill:none;stroke:#000000;stroke-width:1;stroke-linecap:round;stroke-linejoin:round;stroke-dashoffset:4.7622;marker-end:url(#Arrow2);paint-order:markers fill stroke"
           d="m 40.42649,95.66518 v 10.99996"
           id="path26083"
           sodipodi:nodetypes="cc" />
        <g
           id="g15487"
           transform="matrix(0.26699481,0,0,0.26699481,-7.6223938,158.98903)">
          <path
             id="path14796"
             style="fill:#0d61a1;fill-opacity:1;stroke:none;stroke-width:1;stroke-linecap:round;stroke-linejoin:round;stroke-dashoffset:4.7622;paint-order:markers fill stroke"
             d="m 208.50572,58.843 h 34.62011 l -1.21285,8.69353 H 208.50572 Z M 78.414949,47.50209 V 78.92033 H 138.4578 V 58.51021 h 15.52773 v 0.17415 c 11.2364,0.55721 20.4622,9.07901 21.90771,20.23597 h 100.48379 c -4.47287,-5.73188 -13.57379,-8.47095 -22.74022,-7.7928 -0.67311,0.0498 -1.31959,0.28443 -1.97938,0.42664 l 1.97938,-13.37521 h 25.81548 V 47.50209 H 196.29406 V 67.5665 H 185.4265 V 67.24042 C 179.56145,55.47705 166.98493,47.6609 152.8347,47.66022 l -0.20103,-0.15813 H 126.42649 V 67.63317 H 90.391479 V 47.50209 Z" />
          <path
             style="fill:#627e3f;fill-opacity:1;stroke:none;stroke-width:1;stroke-linecap:round;stroke-linejoin:round;stroke-dashoffset:4.7622;paint-order:markers fill stroke"
             d="m 239.16844,102.38406 -2.64703,10.02111 c 3.59237,1.83592 11.2497,3.63757 17.64635,3.69325 5.65868,0.0493 12.67495,-1.43229 18.34152,-5.62103 6.67961,-4.93757 11.34918,-13.50218 7.75091,-25.7972 h -15.90757 c 3.23607,2.86023 4.23172,6.31267 4.17097,9.44404 -0.17561,9.05117 -12.2527,16.1557 -29.35515,8.25983 z"
             id="path14806"
             sodipodi:nodetypes="ccssccsc" />
          <path
             style="fill:#627e3f;fill-opacity:1;stroke:none;stroke-width:1;stroke-linecap:round;stroke-linejoin:round;stroke-dashoffset:4.7622;paint-order:markers fill stroke"
             d="m 78.414949,84.68019 v 31.41823 h 11.97653 V 95.96735 h 36.035011 v 20.13107 h 26.20718 l 0.20103,-0.15813 c 14.15026,-6.8e-4 26.72674,-7.81678 32.5918,-19.5802 v -0.32607 h 10.86756 v 20.0644 h 12.21166 V 84.68019 h -32.61248 a 23.252092,23.252092 0 0 1 -21.90771,20.23597 v 0.17415 H 138.4578 V 84.68019 Z"
             id="path14789" />
        </g>
        <path
           style="fill:none;stroke:#000000;stroke-width:1;stroke-linecap:round;stroke-linejoin:round;stroke-dashoffset:4.7622;marker-end:url(#Arrow2);paint-order:markers fill stroke"
           d="m 40.42649,149.0504 v 10.99996"
           id="path27285"
           sodipodi:nodetypes="cc" />
        <g
           id="g27387"
           transform="translate(3.240436,104.33145)">
          <rect
             style="fill:#ffffff;stroke:#000000;stroke-width:1;stroke-linecap:round;stroke-linejoin:round;stroke-dashoffset:4.7622;paint-order:markers fill stroke"
             id="rect27379"
             width="32.409573"
             height="23.94231"
             x="20.981268"
             y="14.455169" />
          <rect
             style="fill:#000000;stroke:#000000;stroke-width:1;stroke-linecap:round;stroke-linejoin:round;stroke-dashoffset:4.7622;paint-order:markers fill stroke"
             id="rect27381"
             width="32.409573"
             height="2.1830292"
             x="20.981268"
             y="14.455169" />
          <g
             aria-label="$ convert"
             id="text27385"
             style="font-size:5.64444px;-inkscape-font-specification:sans-serif;stroke-width:0.55409;stroke-linecap:round;stroke-linejoin:round;stroke-dashoffset:4.7622;paint-order:markers fill stroke">
            <path
               d="m 26.161421,32.287222 v 0.338666 h -1.038578 v 0.694267 h 0.508 q 0.07338,0 0.124178,0.0508 l 0.349955,0.349955 q 0.04516,0.04516 0.04516,0.118534 v 0.361244 q 0,0.07338 -0.04516,0.118534 l -0.338667,0.338666 q -0.0508,0.0508 -0.124177,0.0508 h -0.519289 v 0.677334 h -0.338667 v -0.677334 h -1.004711 v -0.338666 h 1.004711 v -0.7112 h -0.513644 q -0.06773,0 -0.118534,-0.0508 l -0.338666,-0.338667 q -0.0508,-0.0508 -0.0508,-0.118533 v -0.3556 q 0,-0.06773 0.0508,-0.118534 l 0.338666,-0.338666 q 0.0508,-0.0508 0.118534,-0.0508 h 0.513644 v -0.677334 h 0.338667 v 0.677334 z m -1.377245,0.338666 h -0.440267 l -0.242711,0.242711 v 0.214489 l 0.242711,0.237067 h 0.440267 z m 0.338667,1.744134 h 0.451555 l 0.237067,-0.237067 v -0.220133 l -0.248356,-0.254 h -0.440266 z"
               style="font-family:'IBM 3270';-inkscape-font-specification:'IBM 3270, '"
               id="path27680" />
            <path
               d="m 31.851013,32.642822 v 0.333022 H 30.70519 l -0.581377,0.587022 v 0.5588 l 0.598311,0.587022 h 1.128889 v 0.327378 H 30.65439 q -0.07338,0 -0.118533,-0.04516 L 29.84159,34.307933 q -0.0508,-0.0508 -0.0508,-0.118534 v -0.694266 q 0,-0.06773 0.0508,-0.118534 l 0.677334,-0.682977 q 0.0508,-0.0508 0.112889,-0.0508 z"
               style="font-family:'IBM 3270';-inkscape-font-specification:'IBM 3270, '"
               id="path27682" />
            <path
               d="m 33.154875,33.21291 v 1.253067 l 0.242711,0.237067 h 0.9144 l 0.225778,-0.237067 V 33.21291 l -0.220133,-0.248355 h -0.920045 z m -0.282222,-0.186266 0.344311,-0.3556 q 0.03951,-0.03951 0.112889,-0.03951 h 1.061156 q 0.06773,0 0.124177,0.05644 l 0.316089,0.3556 q 0.04516,0.04516 0.04516,0.107245 v 1.382888 q 0,0.06773 -0.0508,0.118534 l -0.327378,0.333022 q -0.03387,0.03951 -0.118533,0.03951 h -1.049867 q -0.06209,0 -0.112889,-0.03951 l -0.349955,-0.327378 q -0.0508,-0.04516 -0.0508,-0.124178 v -1.394177 q 0,-0.05645 0.05644,-0.112889 z"
               style="font-family:'IBM 3270';-inkscape-font-specification:'IBM 3270, '"
               id="path27684" />
            <path
               d="m 36.451227,32.829088 0.135467,-0.135466 q 0.0508,-0.0508 0.118533,-0.0508 h 0.699911 q 0.06773,0 0.112889,0.04515 l 0.333022,0.327378 q 0.0508,0.0508 0.0508,0.118533 v 1.902178 H 37.580116 V 33.201622 L 37.337405,32.970199 H 36.77296 l -0.237066,0.248356 v 1.823155 h -0.338667 v -1.890888 q 0,-0.01129 0.02258,-0.06773 l -0.1016,-0.112889 h -0.276578 v -0.333022 h 0.3556 q 0.06773,0 0.107244,0.0508 z"
               style="font-family:'IBM 3270';-inkscape-font-specification:'IBM 3270, '"
               id="path27686" />
            <path
               d="m 39.205712,33.116955 0.852311,1.433689 0.8636,-1.450622 v -0.4572 h 0.338667 v 0.502355 q 0,0.04516 -0.02258,0.08467 l -1.032933,1.738489 q -0.0508,0.08467 -0.146756,0.08467 -0.09596,0 -0.146756,-0.08467 l -1.021644,-1.721556 q -0.02258,-0.03951 -0.02258,-0.08467 v -0.519288 h 0.338667 z"
               style="font-family:'IBM 3270';-inkscape-font-specification:'IBM 3270, '"
               id="path27688" />
            <path
               d="m 42.225486,34.003133 v 0.462844 l 0.242711,0.254 h 1.484489 v 0.316089 h -1.552222 q -0.06773,0 -0.112889,-0.04516 l -0.349956,-0.338666 q -0.04516,-0.04516 -0.04516,-0.118534 v -1.365955 q 0,-0.05644 0.05644,-0.112889 l 0.344311,-0.3556 q 0.06209,-0.06209 0.124178,-0.06209 h 1.021644 q 0.05644,0 0.118534,0.06209 l 0.333022,0.349956 q 0.0508,0.0508 0.0508,0.112888 v 0.841023 z m 0.0056,-0.349956 h 1.382889 v -0.423333 l -0.242711,-0.248356 h -0.891822 l -0.248356,0.254 z"
               style="font-family:'IBM 3270';-inkscape-font-specification:'IBM 3270, '"
               id="path27690" />
            <path
               d="m 45.533127,33.557222 v 1.484488 l -0.338666,0.0056 0.0056,-1.890889 q 0,-0.06773 -0.0508,-0.124178 -0.05644,-0.0508 -0.129822,-0.0508 h -0.09596 l -0.0056,-0.338666 0.276578,-0.0056 q 0.08467,0 0.208844,0.112889 0.124178,0.112889 0.129822,0.237067 v 0.1016 l 0.389467,-0.395111 q 0.0508,-0.0508 0.118533,-0.0508 l 0.412045,-0.0056 q 0.07338,0 0.118533,0.0508 l 0.3556,0.344311 q 0.0508,0.0508 0.0508,0.124178 v 0.169333 h -0.338667 v -0.1016 l -0.254,-0.242711 h -0.270933 z"
               style="font-family:'IBM 3270';-inkscape-font-specification:'IBM 3270, '"
               id="path27692" />
            <path
               d="m 49.297967,34.629666 0.07338,0.07902 h 0.276577 v 0.338667 h -0.344311 q -0.06773,0 -0.118533,-0.0508 L 49.0101,34.821577 q -0.0508,-0.0508 -0.0508,-0.118533 V 32.981488 H 48.265033 V 32.637177 H 48.9593 v -1.032933 h 0.338667 v 1.032933 h 0.694266 v 0.344311 h -0.694266 z"
               style="font-family:'IBM 3270';-inkscape-font-specification:'IBM 3270, '"
               id="path27694" />
          </g>
        </g>
      </g>
    </g>
  </g>
</svg>
