<?xml version="1.0" encoding="UTF-8" standalone="no"?>
<!-- Created with Inkscape (http://www.inkscape.org/) -->

<svg
   width="1503.8917mm"
   height="474.66251mm"
   viewBox="0 0 1503.8917 474.66251"
   version="1.1"
   id="svg5"
   xml:space="preserve"
   inkscape:version="1.2.1 (9c6d41e, 2022-07-14)"
   sodipodi:docname="fair.svg"
   xmlns:inkscape="http://www.inkscape.org/namespaces/inkscape"
   xmlns:sodipodi="http://sodipodi.sourceforge.net/DTD/sodipodi-0.dtd"
   xmlns="http://www.w3.org/2000/svg"
   xmlns:svg="http://www.w3.org/2000/svg"><sodipodi:namedview
     id="namedview7"
     pagecolor="#ffffff"
     bordercolor="#000000"
     borderopacity="0.25"
     inkscape:showpageshadow="2"
     inkscape:pageopacity="0.0"
     inkscape:pagecheckerboard="0"
     inkscape:deskcolor="#d1d1d1"
     inkscape:document-units="mm"
     showgrid="false"
     inkscape:zoom="0.15357968"
     inkscape:cx="1911.0601"
     inkscape:cy="1240.3985"
     inkscape:window-width="1512"
     inkscape:window-height="853"
     inkscape:window-x="0"
     inkscape:window-y="38"
     inkscape:window-maximized="0"
     inkscape:current-layer="layer1" /><defs
     id="defs2" /><g
     inkscape:label="Layer 1"
     inkscape:groupmode="layer"
     id="layer1"
     transform="translate(634.90771,66.178711)"><path
       id="rect2626"
       style="fill:#000000;stroke:none;stroke-width:0;stroke-linecap:round;stroke-linejoin:round;stroke-dasharray:none;stroke-dashoffset:4.7622;paint-order:markers fill stroke"
       d="m 334.13547,205.1511 -6.44715,14.01619 -10.72906,2.71199 -12.33362,-9.26765 -17.39067,12.95683 5.35162,14.4694 -5.66839,9.50484 -15.27453,2.16732 -3.1352,21.45966 14.01568,6.44716 2.71198,10.72906 -9.26765,12.33361 12.95683,17.39068 14.4694,-5.35162 9.50485,5.66839 2.16782,15.27452 21.45916,3.13521 6.44715,-14.01568 10.72855,-2.71301 12.33412,9.26816 17.39068,-12.95683 -5.35214,-14.46992 5.66891,-9.50433 15.27504,-2.16731 3.1352,-21.45915 -14.0162,-6.44716 -2.71249,-10.72906 9.26817,-12.33413 -12.95683,-17.39067 -14.46992,5.35214 -9.50433,-5.66839 -2.16782,-15.27504 z m 1.81746,36.63239 a 30.591269,30.591269 0 0 1 30.59141,30.59142 30.591269,30.591269 0 0 1 -30.59141,30.5914 30.591269,30.591269 0 0 1 -30.5909,-30.59141 30.591269,30.591269 0 0 1 30.5909,-30.59141 z" /><circle
       style="fill:#ffffff;stroke:#000000;stroke-width:15;stroke-linecap:round;stroke-linejoin:round;stroke-dasharray:none;stroke-dashoffset:4.7622;paint-order:markers fill stroke"
       id="path300"
       cx="-476.9509"
       cy="234.30916"
       r="85.40937" /><rect
       style="fill:#000000;stroke:none;stroke-width:0;stroke-linecap:round;stroke-linejoin:round;stroke-dasharray:none;stroke-dashoffset:4.7622;paint-order:markers fill stroke"
       id="rect1068"
       width="29.936914"
       height="97.0951"
       x="-186.46652"
       y="604.89117"
       transform="rotate(45)" /><path
       id="path2789"
       style="fill:#000000;stroke:none;stroke-width:0;stroke-linecap:round;stroke-linejoin:round;stroke-dasharray:none;stroke-dashoffset:4.7622;paint-order:markers fill stroke"
       d="m 201.90164,235.89014 -3.26003,13.54484 -9.03068,4.27924 -12.54756,-6.05307 -13.14037,14.5205 7.27195,11.8826 -3.35919,9.41197 -13.15286,4.59175 0.97603,19.55983 13.5444,3.26012 4.27923,9.03069 -6.05306,12.54757 14.5205,13.14035 11.8826,-7.27194 9.41196,3.35918 4.5922,13.15276 19.55939,-0.97594 3.26013,-13.54439 9.03003,-4.28005 12.54812,6.05342 13.14036,-14.52048 -7.27251,-11.88297 3.35975,-9.4116 13.1533,-4.59184 -0.97593,-19.55938 -13.54485,-3.26004 -4.2797,-9.03059 6.05344,-12.54811 -14.5205,-13.14037 -11.88297,7.27251 -9.41149,-3.35929 -4.59231,-13.15321 z m 8.01756,32.13531 a 27.624448,27.624448 0 0 1 32.45222,21.75058 27.624448,27.624448 0 0 1 -21.75061,32.45222 27.624448,27.624448 0 0 1 -32.45176,-21.75068 27.624448,27.624448 0 0 1 21.75015,-32.45212 z" /><path
       id="path2791"
       style="fill:#000000;stroke:none;stroke-width:0;stroke-linecap:round;stroke-linejoin:round;stroke-dasharray:none;stroke-dashoffset:4.7622;paint-order:markers fill stroke"
       d="m 178.59301,143.26137 -7.21562,9.45281 -8.5272,0.22797 -7.71108,-9.0528 -15.26731,6.80816 1.58162,11.786 -5.86813,6.19138 -11.85384,-0.94924 -5.98164,15.61025 9.45244,7.21555 0.22796,8.5272 -9.05279,7.7111 6.80816,15.26728 11.786,-1.58161 6.19137,5.86812 -0.94885,11.85392 15.60987,5.98156 7.21556,-9.45244 8.52696,-0.22882 7.7114,9.05326 15.26729,-6.80814 -1.58193,-11.78648 5.86844,-6.1909 11.85422,0.94932 5.98156,-15.60987 -9.45282,-7.21564 -0.22836,-8.52727 9.05327,-7.71139 -6.80815,-15.2673 -11.78649,1.58193 -6.19097,-5.86805 0.94893,-11.85431 z m -4.81884,27.85786 a 23.580241,23.580241 0 0 1 17.84195,28.17322 23.580241,23.580241 0 0 1 -28.17326,17.84193 23.580241,23.580241 0 0 1 -17.84155,-28.17313 23.580241,23.580241 0 0 1 28.17286,-17.84202 z" /><g
       id="g2801"
       transform="matrix(0.38920172,0,0,0.38920172,521.12235,151.16294)"
       style="fill:#000000">
	<g
   id="g2799"
   style="fill:#000000">
		<g
   id="g2797"
   style="fill:#000000">
			<g
   id="g2795"
   style="fill:#000000">
				<path
   d="m 99.777,446.086 c -6.699,12.031 -12.031,30.133 -12.031,41.539 0,2.648 0,6.016 0.656,10.688 L 4.676,354.32 C 1.996,349.648 0,342.945 0,336.906 0,330.859 1.996,323.508 4.676,318.828 L 44.871,248.5 0,223.07 146.016,220.367 217,348.281 171.473,322.164 Z M 164.09,40.227 c 12.715,-22.125 33.496,-34.18 58.926,-34.18 27.48,0 48.918,12.742 64.312,38.828 L 310.105,83.047 231.054,219.711 103.14,145.359 Z m 9.351,521.718 c -38.172,0 -69.645,-31.477 -69.645,-69.648 0,-10.719 4.703,-28.82 11.402,-40.195 l 21.41,-38.172 H 295.366 V 561.946 H 173.441 Z M 300.727,36.18 C 290.691,18.789 277.293,6.703 261.215,0 h 164.746 c 14.738,0 26.113,6.047 32.84,17.445 l 40.852,69.648 44.191,-26.141 -71.016,127.281 -145.305,-2.047 44.871,-25.43 z M 554.59,415.273 c 20.07,0 36.832,-5.359 50.887,-16.055 l -83.07,144.648 c -6.699,11.375 -18.73,18.078 -32.789,18.078 h -78.395 v 51.57 L 336.219,488.28 411.223,363.014 v 52.258 H 554.59 Z m 64.258,-120.562 c 6.043,10.719 9.406,22.094 9.406,34.156 0,24.117 -15.422,49.57 -36.832,61.602 -10.062,5.391 -24.145,8.75 -38.172,8.75 h -44.242 l -79,-136.664 127.918,-73.008 z"
   id="path2793"
   style="fill:#000000" />
			</g>
		</g>
	</g>
</g><circle
       style="fill:#ffffff;stroke:#000000;stroke-width:12;stroke-linecap:round;stroke-linejoin:round;stroke-dasharray:none;stroke-dashoffset:4.7622;paint-order:markers fill stroke"
       id="path2813"
       cx="-165.23514"
       cy="190.34044"
       r="48.143276" /><path
       style="fill:#ffffff;stroke:#000000;stroke-width:12;stroke-linecap:round;stroke-linejoin:round;stroke-dasharray:none;stroke-dashoffset:4.7622;paint-order:markers fill stroke"
       d="m -226.24111,294.71213 c 8.85712,13.37929 20.32703,44.10208 31.97302,66.88606 7.60911,14.8863 24.07489,35.64808 35.28057,35.64808 h 59.535961 c 12.669587,0 50.715809,-22.92803 50.715809,-63.21102 v -53.28836 c 0,-26.48262 -32.708005,-26.61511 -32.708005,-5.14509 0,-38.26445 -33.075535,-29.07757 -33.075535,-11.02515 0,-38.9606 -32.70803,-27.95145 -32.70803,-11.3927 l -0.36751,-63.21102 c -0.14452,-24.85742 -33.35667,-24.01189 -33.44304,0 l -0.3675,102.16666 c -5.14508,-7.71763 -13.48912,-13.19197 -22.78539,-24.25542 -11.47283,-13.65375 -41.81236,-3.0239 -22.05035,26.82796 z"
       id="path2930"
       sodipodi:nodetypes="sssssscccsscss" /><text
       xml:space="preserve"
       style="font-style:normal;font-variant:normal;font-weight:300;font-stretch:normal;font-size:199.517px;font-family:Helvetica;-inkscape-font-specification:'Helvetica Light';text-align:center;text-anchor:middle;fill:#000000;stroke:none;stroke-width:282.78;stroke-linecap:round;stroke-linejoin:round;stroke-dasharray:none;stroke-dashoffset:4.7622;paint-order:markers fill stroke"
       x="-612.40955"
       y="95.646706"
       id="text3712"><tspan
         sodipodi:role="line"
         id="tspan3710"
         style="font-style:normal;font-variant:normal;font-weight:300;font-stretch:normal;font-family:Helvetica;-inkscape-font-specification:'Helvetica Light';text-align:start;text-anchor:start;fill:#000000;stroke:none;stroke-width:282.78"
         x="-612.40955"
         y="95.646706">F</tspan></text><text
       xml:space="preserve"
       style="font-style:normal;font-variant:normal;font-weight:300;font-stretch:normal;font-size:56.9284px;font-family:Helvetica;-inkscape-font-specification:'Helvetica Light';text-align:start;text-anchor:start;fill:#000000;stroke:none;stroke-width:80.6858;stroke-linecap:round;stroke-linejoin:round;stroke-dasharray:none;stroke-dashoffset:4.7622;paint-order:markers fill stroke"
       x="-572.08057"
       y="95.646706"
       id="text3920"><tspan
         sodipodi:role="line"
         id="tspan3918"
         style="font-style:normal;font-variant:normal;font-weight:300;font-stretch:normal;font-family:Helvetica;-inkscape-font-specification:'Helvetica Light';text-align:start;text-anchor:start;fill:#000000;stroke:none;stroke-width:80.6858"
         x="-572.08057"
         y="95.646706">indable</tspan></text><text
       xml:space="preserve"
       style="font-style:normal;font-variant:normal;font-weight:300;font-stretch:normal;font-size:199.517px;font-family:Helvetica;-inkscape-font-specification:'Helvetica Light';text-align:start;text-anchor:start;fill:#000000;stroke:none;stroke-width:282.78;stroke-linecap:round;stroke-linejoin:round;stroke-dasharray:none;stroke-dashoffset:4.7622;paint-order:markers fill stroke"
       x="-341.50168"
       y="95.646706"
       id="text3924"><tspan
         sodipodi:role="line"
         id="tspan3922"
         style="font-style:normal;font-variant:normal;font-weight:300;font-stretch:normal;font-family:Helvetica;-inkscape-font-specification:'Helvetica Light';text-align:start;text-anchor:start;fill:#000000;stroke:none;stroke-width:282.78"
         x="-341.50168"
         y="95.646706">A</tspan></text><text
       xml:space="preserve"
       style="font-style:normal;font-variant:normal;font-weight:300;font-stretch:normal;font-size:56.9284px;font-family:Helvetica;-inkscape-font-specification:'Helvetica Light';text-align:start;text-anchor:start;fill:#000000;stroke:none;stroke-width:80.6858;stroke-linecap:round;stroke-linejoin:round;stroke-dasharray:none;stroke-dashoffset:4.7622;paint-order:markers fill stroke"
       x="-208.92288"
       y="95.646706"
       id="text3928"><tspan
         sodipodi:role="line"
         id="tspan3926"
         style="font-style:normal;font-variant:normal;font-weight:300;font-stretch:normal;font-family:Helvetica;-inkscape-font-specification:'Helvetica Light';text-align:start;text-anchor:start;fill:#000000;stroke:none;stroke-width:80.6858"
         x="-208.92288"
         y="95.646706">ccessible</tspan></text><text
       xml:space="preserve"
       style="font-style:normal;font-variant:normal;font-weight:300;font-stretch:normal;font-size:199.517px;font-family:Helvetica;-inkscape-font-specification:'Helvetica Light';text-align:start;text-anchor:start;fill:#000000;stroke:none;stroke-width:282.78;stroke-linecap:round;stroke-linejoin:round;stroke-dasharray:none;stroke-dashoffset:4.7622;paint-order:markers fill stroke"
       x="70.796295"
       y="95.646706"
       id="text3932"><tspan
         sodipodi:role="line"
         id="tspan3930"
         style="font-style:normal;font-variant:normal;font-weight:300;font-stretch:normal;font-family:Helvetica;-inkscape-font-specification:'Helvetica Light';text-align:start;text-anchor:start;fill:#000000;stroke:none;stroke-width:282.78"
         x="70.796295"
         y="95.646706">I</tspan></text><text
       xml:space="preserve"
       style="font-style:normal;font-variant:normal;font-weight:300;font-stretch:normal;font-size:56.9284px;font-family:Helvetica;-inkscape-font-specification:'Helvetica Light';text-align:start;text-anchor:start;fill:#000000;stroke:none;stroke-width:80.6858;stroke-linecap:round;stroke-linejoin:round;stroke-dasharray:none;stroke-dashoffset:4.7622;paint-order:markers fill stroke"
       x="115.44249"
       y="95.646706"
       id="text3936"><tspan
         sodipodi:role="line"
         id="tspan3934"
         style="font-style:normal;font-variant:normal;font-weight:300;font-stretch:normal;font-family:Helvetica;-inkscape-font-specification:'Helvetica Light';text-align:start;text-anchor:start;fill:#000000;stroke:none;stroke-width:80.6858"
         x="115.44249"
         y="95.646706">nteroperable</tspan></text><text
       xml:space="preserve"
       style="font-style:normal;font-variant:normal;font-weight:300;font-stretch:normal;font-size:199.517px;font-family:Helvetica;-inkscape-font-specification:'Helvetica Light';text-align:start;text-anchor:start;fill:#000000;stroke:none;stroke-width:282.78;stroke-linecap:round;stroke-linejoin:round;stroke-dasharray:none;stroke-dashoffset:4.7622;paint-order:markers fill stroke"
       x="486.33221"
       y="95.646706"
       id="text3940"><tspan
         sodipodi:role="line"
         id="tspan3938"
         style="font-style:normal;font-variant:normal;font-weight:300;font-stretch:normal;font-family:Helvetica;-inkscape-font-specification:'Helvetica Light';text-align:start;text-anchor:start;fill:#000000;stroke:none;stroke-width:282.78"
         x="486.33221"
         y="95.646706">R</tspan></text><text
       xml:space="preserve"
       style="font-style:normal;font-variant:normal;font-weight:300;font-stretch:normal;font-size:56.9284px;font-family:Helvetica;-inkscape-font-specification:'Helvetica Light';text-align:start;text-anchor:start;fill:#000000;stroke:none;stroke-width:80.6858;stroke-linecap:round;stroke-linejoin:round;stroke-dasharray:none;stroke-dashoffset:4.7622;paint-order:markers fill stroke"
       x="618.99493"
       y="95.646706"
       id="text3944"><tspan
         sodipodi:role="line"
         id="tspan3942"
         style="font-style:normal;font-variant:normal;font-weight:300;font-stretch:normal;font-family:Helvetica;-inkscape-font-specification:'Helvetica Light';text-align:start;text-anchor:start;fill:#000000;stroke:none;stroke-width:80.6858"
         x="618.99493"
         y="95.646706">eusable</tspan></text></g></svg>
