<?xml version="1.0" encoding="UTF-8" standalone="no"?>
<!-- Created with Inkscape (http://www.inkscape.org/) -->

<svg
   width="36.706562mm"
   height="14.255912mm"
   viewBox="0 0 36.706562 14.255912"
   version="1.1"
   id="svg1"
   inkscape:version="1.3 (0e150ed, 2023-07-21)"
   sodipodi:docname="sync.svg"
   xmlns:inkscape="http://www.inkscape.org/namespaces/inkscape"
   xmlns:sodipodi="http://sodipodi.sourceforge.net/DTD/sodipodi-0.dtd"
   xmlns="http://www.w3.org/2000/svg"
   xmlns:svg="http://www.w3.org/2000/svg">
  <sodipodi:namedview
     id="namedview1"
     pagecolor="#ffffff"
     bordercolor="#000000"
     borderopacity="0.25"
     inkscape:showpageshadow="2"
     inkscape:pageopacity="0.0"
     inkscape:pagecheckerboard="0"
     inkscape:deskcolor="#d1d1d1"
     inkscape:document-units="mm"
     inkscape:zoom="0.88689487"
     inkscape:cx="20.859293"
     inkscape:cy="36.080939"
     inkscape:window-width="1312"
     inkscape:window-height="673"
     inkscape:window-x="0"
     inkscape:window-y="38"
     inkscape:window-maximized="0"
     inkscape:current-layer="layer1" />
  <defs
     id="defs1" />
  <g
     inkscape:label="Layer 1"
     inkscape:groupmode="layer"
     id="layer1"
     transform="translate(-118.68046,-197.90833)">
    <g
       id="g130"
       transform="matrix(0.50463168,0,0,0.50463168,28.525369,136.26497)">
      <circle
         style="fill:#000000;stroke:none;stroke-width:1;stroke-linecap:round;stroke-linejoin:miter;stroke-dasharray:none;paint-order:markers stroke fill"
         id="circle129"
         cx="185.32533"
         cy="127.64822"
         r="5.4930582" />
      <path
         id="path129"
         style="fill:#000000;stroke:none;stroke-width:1;stroke-linecap:round;stroke-linejoin:miter;stroke-dasharray:none;paint-order:markers stroke fill"
         d="m 185.32512,133.92619 c -3.69525,0 -6.66988,2.97462 -6.66988,6.66988 v 9.80922 h 13.34028 v -9.80922 c 0,-3.69526 -2.97514,-6.66988 -6.6704,-6.66988 z" />
    </g>
    <g
       id="g131"
       transform="matrix(0.50463168,0,0,0.50463168,58.500004,136.26497)">
      <circle
         style="fill:#000000;stroke:none;stroke-width:1;stroke-linecap:round;stroke-linejoin:miter;stroke-dasharray:none;paint-order:markers stroke fill"
         id="circle130"
         cx="185.32533"
         cy="127.64822"
         r="5.4930582" />
      <path
         id="path130"
         style="fill:#000000;stroke:none;stroke-width:1;stroke-linecap:round;stroke-linejoin:miter;stroke-dasharray:none;paint-order:markers stroke fill"
         d="m 185.32512,133.92619 c -3.69525,0 -6.66988,2.97462 -6.66988,6.66988 v 9.80922 h 13.34028 v -9.80922 c 0,-3.69526 -2.97514,-6.66988 -6.6704,-6.66988 z" />
    </g>
    <g
       id="path1">
      <g
         id="g2">
        <g
           id="path2">
          <path
             style="color:#000000;fill:#808080;fill-rule:evenodd;-inkscape-stroke:none"
             d="m 147.05353,206.38233 -1.81074,2.38857 -1.1628,-2.76548 z"
             id="path5" />
          <path
             style="color:#000000;fill:#808080;fill-rule:evenodd;-inkscape-stroke:none"
             d="m 143.76172,205.76367 1.43164,3.4043 2.22851,-2.94141 -0.34375,-0.043 z m 0.63672,0.48242 2.28711,0.29102 -1.39258,1.83789 z"
             id="path6" />
        </g>
      </g>
      <path
         style="color:#000000;fill:#808080;stroke-linecap:round;stroke-linejoin:round;stroke-miterlimit:3.9;stroke-dashoffset:4.7622;-inkscape-stroke:none;paint-order:markers fill stroke"
         d="m 145.22461,206.5 c 0,0 -0.96737,0.40678 -2.21289,0.81445 -1.24552,0.40768 -2.7836,0.80274 -3.76172,0.80274 h -11.95117 a 0.60000002,0.60000002 0 0 0 -0.59961,0.59961 0.60000002,0.60000002 0 0 0 0.59961,0.59961 H 139.25 c 1.27359,0 2.83945,-0.43735 4.13477,-0.86133 1.29532,-0.42398 2.30468,-0.84961 2.30468,-0.84961 a 0.60000002,0.60000002 0 0 0 0.32227,-0.78516 0.60000002,0.60000002 0 0 0 -0.78711,-0.32031 z"
         id="path7" />
    </g>
    <g
       id="path3">
      <g
         id="g8">
        <g
           id="path8">
          <path
             style="color:#000000;fill:#808080;fill-rule:evenodd;-inkscape-stroke:none"
             d="m 127.00857,203.35526 1.81074,-2.38857 1.1628,2.76548 z"
             id="path9" />
          <path
             style="color:#000000;fill:#808080;fill-rule:evenodd;-inkscape-stroke:none"
             d="m 128.86914,200.57031 -2.22851,2.93946 0.34375,0.043 3.3164,0.42188 z m -0.0996,0.79492 0.89258,2.125 -2.28516,-0.29101 z"
             id="path10" />
        </g>
      </g>
      <path
         style="color:#000000;fill:#808080;stroke-linecap:round;stroke-linejoin:round;stroke-miterlimit:3.9;stroke-dashoffset:4.7622;-inkscape-stroke:none;paint-order:markers fill stroke"
         d="m 134.8125,200.42187 c -1.27359,0 -2.83945,0.43736 -4.13477,0.86133 -1.29532,0.42398 -2.30664,0.84766 -2.30664,0.84766 a 0.60000002,0.60000002 0 0 0 -0.32031,0.78516 0.60000002,0.60000002 0 0 0 0.78516,0.32226 c 0,0 0.96932,-0.40677 2.21484,-0.81445 1.24552,-0.40768 2.7836,-0.80274 3.76172,-0.80274 h 11.95117 a 0.60000002,0.60000002 0 0 0 0.59961,-0.59961 0.60000002,0.60000002 0 0 0 -0.59961,-0.59961 z"
         id="path11" />
    </g>
  </g>
</svg>
