<?xml version="1.0" encoding="UTF-8" standalone="no"?>
<!-- Created with Inkscape (http://www.inkscape.org/) -->

<svg
   width="104.77097mm"
   height="64.415337mm"
   viewBox="0 0 104.77097 64.415337"
   version="1.1"
   id="svg1"
   inkscape:version="1.3 (0e150ed, 2023-07-21)"
   sodipodi:docname="parallel_rng_rankseed.svg"
   xmlns:inkscape="http://www.inkscape.org/namespaces/inkscape"
   xmlns:sodipodi="http://sodipodi.sourceforge.net/DTD/sodipodi-0.dtd"
   xmlns="http://www.w3.org/2000/svg"
   xmlns:svg="http://www.w3.org/2000/svg">
  <sodipodi:namedview
     id="namedview1"
     pagecolor="#ffffff"
     bordercolor="#000000"
     borderopacity="0.25"
     inkscape:showpageshadow="2"
     inkscape:pageopacity="0.0"
     inkscape:pagecheckerboard="0"
     inkscape:deskcolor="#d1d1d1"
     inkscape:document-units="mm"
     inkscape:zoom="1.4943625"
     inkscape:cx="186.70169"
     inkscape:cy="123.79861"
     inkscape:window-width="1456"
     inkscape:window-height="1027"
     inkscape:window-x="464"
     inkscape:window-y="25"
     inkscape:window-maximized="0"
     inkscape:current-layer="g34" />
  <defs
     id="defs1">
    <marker
       style="overflow:visible"
       id="ConcaveTriangle"
       refX="0"
       refY="0"
       orient="auto-start-reverse"
       inkscape:stockid="Concave triangle arrow"
       markerWidth="1"
       markerHeight="1"
       viewBox="0 0 1 1"
       inkscape:isstock="true"
       inkscape:collect="always"
       preserveAspectRatio="xMidYMid">
      <path
         transform="scale(0.7)"
         d="M -2,-4 9,0 -2,4 c 2,-2.33 2,-5.66 0,-8 z"
         style="fill:context-stroke;fill-rule:evenodd;stroke:none"
         id="path7" />
    </marker>
  </defs>
  <g
     inkscape:label="Layer 1"
     inkscape:groupmode="layer"
     id="layer1"
     transform="translate(-35.210183,-65.881243)">
    <rect
       style="fill:#ffffff;stroke:#000000;stroke-width:0.799999;stroke-linecap:square;stroke-linejoin:bevel;stroke-miterlimit:3.9;stroke-dasharray:none;paint-order:markers stroke fill"
       id="rect139"
       width="22.352465"
       height="8.3313742"
       x="-72.758713"
       y="66.281242"
       ry="1.2817559"
       transform="scale(-1,1)" />
    <rect
       style="fill:#ffffff;stroke:#000000;stroke-width:0.799999;stroke-linecap:square;stroke-linejoin:bevel;stroke-miterlimit:3.9;stroke-dasharray:none;paint-order:markers stroke fill"
       id="rect1"
       width="22.352465"
       height="8.3313742"
       x="-105.61597"
       y="66.281242"
       ry="1.2817559"
       transform="scale(-1,1)" />
    <rect
       style="fill:#ffffff;stroke:#000000;stroke-width:0.799999;stroke-linecap:square;stroke-linejoin:bevel;stroke-miterlimit:3.9;stroke-dasharray:none;paint-order:markers stroke fill"
       id="rect2"
       width="22.352465"
       height="8.3313742"
       x="-138.47324"
       y="66.281242"
       ry="1.2817559"
       transform="scale(-1,1)" />
    <path
       style="fill:#000000;stroke:#000000;stroke-width:0.4;stroke-linecap:square;stroke-linejoin:bevel;stroke-miterlimit:3.9;stroke-dasharray:none;marker-end:url(#ConcaveTriangle);paint-order:markers stroke fill"
       d="m 61.582482,112.98042 v 7.33785"
       id="path4" />
    <path
       style="fill:#000000;stroke:#000000;stroke-width:0.4;stroke-linecap:square;stroke-linejoin:bevel;stroke-miterlimit:3.9;stroke-dasharray:none;marker-end:url(#ConcaveTriangle);paint-order:markers stroke fill"
       d="m 94.439734,112.98042 v 7.33785"
       id="path6" />
    <path
       style="fill:#000000;stroke:#000000;stroke-width:0.4;stroke-linecap:square;stroke-linejoin:bevel;stroke-miterlimit:3.9;stroke-dasharray:none;marker-end:url(#ConcaveTriangle);paint-order:markers stroke fill"
       d="m 127.297,112.98042 v 7.33785"
       id="path8" />
    <path
       style="fill:#000000;stroke:#000000;stroke-width:0.4;stroke-linecap:square;stroke-linejoin:bevel;stroke-miterlimit:3.9;stroke-dasharray:none;marker-end:url(#ConcaveTriangle);paint-order:markers stroke fill"
       d="m 61.582482,92.088014 v 7.33785"
       id="path19" />
    <path
       style="fill:#000000;stroke:#000000;stroke-width:0.4;stroke-linecap:square;stroke-linejoin:bevel;stroke-miterlimit:3.9;stroke-dasharray:none;marker-end:url(#ConcaveTriangle);paint-order:markers stroke fill"
       d="m 94.439734,92.088014 v 7.33785"
       id="path22" />
    <path
       style="fill:#000000;stroke:#000000;stroke-width:0.4;stroke-linecap:square;stroke-linejoin:bevel;stroke-miterlimit:3.9;stroke-dasharray:none;marker-end:url(#ConcaveTriangle);paint-order:markers stroke fill"
       d="m 127.297,92.088014 v 7.33785"
       id="path23" />
    <path
       style="display:inline;fill:#000000;stroke-width:0.4;stroke-linecap:square;stroke-linejoin:bevel;stroke-miterlimit:3.9;paint-order:markers stroke fill"
       d="m 84.066988,84.808443 c 0,13.006449 17.620072,0 20.485162,0 -2.87247,0 -20.485162,-13.006449 -20.485162,0 z"
       id="path20"
       sodipodi:nodetypes="zcz" />
    <path
       style="display:inline;fill:#000000;stroke-width:0.4;stroke-linecap:square;stroke-linejoin:bevel;stroke-miterlimit:3.9;paint-order:markers stroke fill"
       d="m 117.01949,84.808443 c 0,13.006449 17.62008,0 20.48516,0 -2.87247,0 -20.48516,-13.006449 -20.48516,0 z"
       id="path21"
       sodipodi:nodetypes="zcz" />
    <path
       style="display:inline;fill:#000000;stroke-width:0.4;stroke-linecap:square;stroke-linejoin:bevel;stroke-miterlimit:3.9;paint-order:markers stroke fill"
       d="m 51.339903,84.808443 c 0,13.006449 17.620074,0 20.485158,0 -2.87247,0 -20.485158,-13.006449 -20.485158,0 z"
       id="path1"
       sodipodi:nodetypes="zcz" />
  </g>
  <g
     inkscape:groupmode="layer"
     id="layer3"
     inkscape:label="text"
     style="display:none"
     transform="translate(-35.210183,-65.881243)">
    <text
       xml:space="preserve"
       style="font-weight:500;font-size:6.35px;font-family:'CMU Serif';-inkscape-font-specification:'CMU Serif Medium';text-align:center;letter-spacing:0px;text-anchor:middle;fill:#000000;stroke-width:0.799999;stroke-linecap:square;stroke-linejoin:bevel;stroke-miterlimit:3.9;paint-order:markers stroke fill"
       x="61.620575"
       y="72.580528"
       id="text1"><tspan
         sodipodi:role="line"
         id="tspan1"
         style="stroke-width:0.8"
         x="61.620575"
         y="72.580528">rank 0</tspan></text>
    <text
       xml:space="preserve"
       style="font-weight:500;font-size:6.35px;font-family:'CMU Serif';-inkscape-font-specification:'CMU Serif Medium';text-align:center;letter-spacing:0px;text-anchor:middle;fill:#000000;stroke-width:0.799999;stroke-linecap:square;stroke-linejoin:bevel;stroke-miterlimit:3.9;paint-order:markers stroke fill"
       x="94.477837"
       y="72.580528"
       id="text2"><tspan
         sodipodi:role="line"
         id="tspan2"
         style="stroke-width:0.8"
         x="94.477837"
         y="72.580528">rank 1</tspan></text>
    <text
       xml:space="preserve"
       style="font-weight:500;font-size:6.35px;font-family:'CMU Serif';-inkscape-font-specification:'CMU Serif Medium';text-align:center;letter-spacing:0px;text-anchor:middle;fill:#000000;stroke-width:0.799999;stroke-linecap:square;stroke-linejoin:bevel;stroke-miterlimit:3.9;paint-order:markers stroke fill"
       x="127.33509"
       y="72.580528"
       id="text3"><tspan
         sodipodi:role="line"
         id="tspan3"
         style="stroke-width:0.8"
         x="127.33509"
         y="72.580528">rank 2</tspan></text>
    <text
       xml:space="preserve"
       style="font-style:normal;font-variant:normal;font-weight:normal;font-stretch:normal;font-size:6.35px;font-family:'CMU Typewriter Text';-inkscape-font-specification:'CMU Typewriter Text';text-align:center;letter-spacing:0px;text-anchor:middle;fill:#000000;stroke-width:0.799999;stroke-linecap:square;stroke-linejoin:bevel;stroke-miterlimit:3.9;paint-order:markers stroke fill"
       x="62.030155"
       y="109.17046"
       id="text4"><tspan
         sodipodi:role="line"
         id="tspan4"
         style="font-style:normal;font-variant:normal;font-weight:normal;font-stretch:normal;font-family:'CMU Typewriter Text';-inkscape-font-specification:'CMU Typewriter Text';stroke-width:0.8"
         x="62.030155"
         y="109.17046">random()</tspan></text>
    <text
       xml:space="preserve"
       style="font-style:normal;font-variant:normal;font-weight:normal;font-stretch:normal;font-size:6.35px;font-family:'CMU Typewriter Text';-inkscape-font-specification:'CMU Typewriter Text';text-align:center;letter-spacing:0px;text-anchor:middle;fill:#000000;stroke-width:0.799999;stroke-linecap:square;stroke-linejoin:bevel;stroke-miterlimit:3.9;paint-order:markers stroke fill"
       x="62.030155"
       y="130.15663"
       id="text5"><tspan
         sodipodi:role="line"
         id="tspan5"
         style="font-style:normal;font-variant:normal;font-weight:normal;font-stretch:normal;font-family:'CMU Serif';-inkscape-font-specification:'CMU Serif';stroke-width:0.8"
         x="62.030155"
         y="130.15663">29036</tspan></text>
    <text
       xml:space="preserve"
       style="font-style:normal;font-variant:normal;font-weight:normal;font-stretch:normal;font-size:6.35px;font-family:'CMU Typewriter Text';-inkscape-font-specification:'CMU Typewriter Text';text-align:center;letter-spacing:0px;text-anchor:middle;fill:#000000;stroke-width:0.799999;stroke-linecap:square;stroke-linejoin:bevel;stroke-miterlimit:3.9;paint-order:markers stroke fill"
       x="94.887405"
       y="109.17046"
       id="text6"><tspan
         sodipodi:role="line"
         id="tspan6"
         style="font-style:normal;font-variant:normal;font-weight:normal;font-stretch:normal;font-family:'CMU Typewriter Text';-inkscape-font-specification:'CMU Typewriter Text';stroke-width:0.8"
         x="94.887405"
         y="109.17046">random()</tspan></text>
    <text
       xml:space="preserve"
       style="font-style:normal;font-variant:normal;font-weight:normal;font-stretch:normal;font-size:6.35px;font-family:'CMU Typewriter Text';-inkscape-font-specification:'CMU Typewriter Text';text-align:center;letter-spacing:0px;text-anchor:middle;fill:#000000;stroke-width:0.799999;stroke-linecap:square;stroke-linejoin:bevel;stroke-miterlimit:3.9;paint-order:markers stroke fill"
       x="94.417503"
       y="130.15663"
       id="text7"><tspan
         sodipodi:role="line"
         id="tspan7"
         style="font-style:normal;font-variant:normal;font-weight:normal;font-stretch:normal;font-family:'CMU Serif';-inkscape-font-specification:'CMU Serif';stroke-width:0.8"
         x="94.417503"
         y="130.15663">4752</tspan></text>
    <text
       xml:space="preserve"
       style="font-style:normal;font-variant:normal;font-weight:normal;font-stretch:normal;font-size:6.35px;font-family:'CMU Typewriter Text';-inkscape-font-specification:'CMU Typewriter Text';text-align:center;letter-spacing:0px;text-anchor:middle;fill:#000000;stroke-width:0.799999;stroke-linecap:square;stroke-linejoin:bevel;stroke-miterlimit:3.9;paint-order:markers stroke fill"
       x="127.74467"
       y="109.17046"
       id="text8"><tspan
         sodipodi:role="line"
         id="tspan8"
         style="font-style:normal;font-variant:normal;font-weight:normal;font-stretch:normal;font-family:'CMU Typewriter Text';-inkscape-font-specification:'CMU Typewriter Text';stroke-width:0.8"
         x="127.74467"
         y="109.17046">random()</tspan></text>
    <text
       xml:space="preserve"
       style="font-style:normal;font-variant:normal;font-weight:normal;font-stretch:normal;font-size:6.35px;font-family:'CMU Typewriter Text';-inkscape-font-specification:'CMU Typewriter Text';text-align:center;letter-spacing:0px;text-anchor:middle;fill:#000000;stroke-width:0.799999;stroke-linecap:square;stroke-linejoin:bevel;stroke-miterlimit:3.9;paint-order:markers stroke fill"
       x="127.27477"
       y="130.15663"
       id="text9"><tspan
         sodipodi:role="line"
         id="tspan9"
         style="font-style:normal;font-variant:normal;font-weight:normal;font-stretch:normal;font-family:'CMU Serif';-inkscape-font-specification:'CMU Serif';stroke-width:0.8"
         x="127.27477"
         y="130.15663">25738</tspan></text>
    <path
       d="M 35.210193,87.142612 V 86.02454 q 0,-0.06149 0,-0.08385 0.0056,-0.02236 0.02236,-0.03913 0.01677,-0.01677 0.05031,-0.01677 0.06149,0 0.06708,0.0559 0.01677,0.553445 0.346602,0.860915 0.324241,0.301879 0.883277,0.301879 0.335422,0 0.542265,-0.240385 0.206844,-0.240385 0.206844,-0.559036 0,-0.301879 -0.173302,-0.514313 -0.07267,-0.09504 -0.16771,-0.15653 -0.08945,-0.06149 -0.14535,-0.07826 -0.0559,-0.02236 -0.16212,-0.05031 -0.693205,-0.16771 -0.737928,-0.184481 -0.329831,-0.111808 -0.531084,-0.391326 -0.201253,-0.285108 -0.201253,-0.63171 0,-0.447229 0.31306,-0.76588 0.318651,-0.31865 0.77706,-0.31865 0.229205,0 0.419277,0.07268 0.195663,0.07267 0.273928,0.139759 0.07827,0.06149 0.201253,0.178891 l 0.195662,-0.31865 q 0.04472,-0.07268 0.08386,-0.07268 0.04472,0 0.05031,0.02795 0.01118,0.02236 0.01118,0.106216 v 1.123663 q 0,0.06149 -0.0056,0.08385 0,0.02236 -0.01677,0.03913 -0.01677,0.01118 -0.05031,0.01118 -0.0559,0 -0.06708,-0.06708 -0.15653,-1.168385 -1.09012,-1.168385 -0.318651,0 -0.531085,0.218024 -0.206843,0.212434 -0.206843,0.514313 0,0.245976 0.15094,0.447229 0.15653,0.201253 0.413686,0.262747 l 0.715567,0.173301 q 0.357783,0.08385 0.598168,0.402506 0.240386,0.31306 0.240386,0.726747 0,0.47518 -0.313061,0.821783 -0.307469,0.341012 -0.78824,0.341012 -0.346603,0 -0.61494,-0.117398 -0.268337,-0.111807 -0.413687,-0.273928 -0.111807,0.184482 -0.184482,0.290699 l -0.01677,0.02795 q -0.04472,0.07267 -0.08385,0.07267 -0.04472,0 -0.0559,-0.02795 -0.0056,-0.02795 -0.0056,-0.106217 z m 2.946111,-1.218699 q 0,-0.525493 0.335421,-0.900047 0.341012,-0.374555 0.827374,-0.374555 0.491951,0 0.743518,0.318651 0.257156,0.31865 0.257156,0.77706 0,0.08385 -0.02236,0.100626 -0.02236,0.01677 -0.117398,0.01677 h -1.55971 q 0,0.570216 0.167711,0.838554 0.234795,0.374554 0.63171,0.374554 0.0559,0 0.117398,-0.01118 0.06708,-0.01118 0.201253,-0.0559 0.134168,-0.05031 0.251566,-0.178891 0.117398,-0.128578 0.184482,-0.329831 0.01677,-0.07826 0.07268,-0.07826 0.07267,0 0.07267,0.06708 0,0.05031 -0.0559,0.16212 -0.05031,0.106217 -0.15094,0.240386 -0.100627,0.128578 -0.296289,0.229205 -0.195663,0.09504 -0.430458,0.09504 -0.491952,0 -0.860915,-0.368964 -0.368964,-0.374554 -0.368964,-0.92241 z m 0.46959,-0.178891 h 1.324915 q 0,-0.117398 -0.02236,-0.245976 -0.01677,-0.134169 -0.07827,-0.31306 -0.0559,-0.184482 -0.195663,-0.296289 -0.134168,-0.117398 -0.335421,-0.117398 -0.08945,0 -0.190073,0.03913 -0.09504,0.03913 -0.212433,0.134168 -0.117398,0.08945 -0.201253,0.30188 -0.07827,0.206843 -0.08945,0.497542 z m 2.01252,0.178891 q 0,-0.525493 0.335422,-0.900047 0.341012,-0.374555 0.827373,-0.374555 0.491952,0 0.743518,0.318651 0.257156,0.31865 0.257156,0.77706 0,0.08385 -0.02236,0.100626 -0.02236,0.01677 -0.117398,0.01677 h -1.55971 q 0,0.570216 0.167711,0.838554 0.234795,0.374554 0.63171,0.374554 0.0559,0 0.117398,-0.01118 0.06708,-0.01118 0.201253,-0.0559 0.134169,-0.05031 0.251566,-0.178891 0.117398,-0.128578 0.184482,-0.329831 0.01677,-0.07826 0.07268,-0.07826 0.07267,0 0.07267,0.06708 0,0.05031 -0.0559,0.16212 -0.05031,0.106217 -0.15094,0.240386 -0.100626,0.128578 -0.296289,0.229205 -0.195663,0.09504 -0.430458,0.09504 -0.491951,0 -0.860915,-0.368964 -0.368964,-0.374554 -0.368964,-0.92241 z m 0.46959,-0.178891 h 1.324916 q 0,-0.117398 -0.02236,-0.245976 -0.01677,-0.134169 -0.07827,-0.31306 -0.0559,-0.184482 -0.195662,-0.296289 -0.134169,-0.117398 -0.335422,-0.117398 -0.08945,0 -0.190072,0.03913 -0.09504,0.03913 -0.212434,0.134168 -0.117398,0.08945 -0.201253,0.30188 -0.07827,0.206843 -0.08945,0.497542 z m 2.046063,0.206843 q 0,-0.531084 0.368964,-0.900048 0.374554,-0.368963 0.877687,-0.368963 0.424867,0 0.704385,0.346602 v -1.207518 q 0,-0.206843 -0.07267,-0.257156 -0.07267,-0.0559 -0.363373,-0.0559 v -0.173301 l 0.805012,-0.06149 v 3.393348 q 0,0.206844 0.07267,0.262747 0.07267,0.05031 0.363374,0.05031 v 0.173301 l -0.821783,0.06149 v -0.368964 q -0.290699,0.368964 -0.749108,0.368964 -0.480771,0 -0.832964,-0.368964 -0.352193,-0.368964 -0.352194,-0.894458 z m 0.464,0.0056 q 0,0.519903 0.162121,0.77706 0.223614,0.357783 0.586987,0.357783 0.413687,0 0.659663,-0.391325 0.06149,-0.09504 0.06149,-0.206844 v -1.146024 q 0,-0.111807 -0.06149,-0.206843 -0.229205,-0.335422 -0.603759,-0.335422 -0.391325,0 -0.631711,0.357784 -0.173301,0.268337 -0.173301,0.793831 z"
       id="text142"
       style="font-weight:500;font-size:5.59036px;font-family:'CMU Serif';-inkscape-font-specification:'CMU Serif Medium';text-align:center;letter-spacing:0px;text-anchor:middle;stroke-width:0.352149;stroke-linecap:square;stroke-linejoin:bevel;stroke-miterlimit:3.9;paint-order:markers stroke fill"
       aria-label="Seed" />
    <text
       xml:space="preserve"
       style="font-weight:500;font-size:5.69017px;font-family:'CMU Serif';-inkscape-font-specification:'CMU Serif Medium';text-align:center;letter-spacing:0px;text-anchor:middle;fill:#ffffff;stroke-width:0.716871;stroke-linecap:square;stroke-linejoin:bevel;stroke-miterlimit:3.9;paint-order:markers stroke fill"
       x="58.875904"
       y="86.640678"
       id="text19"><tspan
         sodipodi:role="line"
         id="tspan19"
         style="fill:#ffffff;stroke-width:0.716872"
         x="58.875904"
         y="86.640678">30068</tspan></text>
    <text
       xml:space="preserve"
       style="font-weight:500;font-size:5.69017px;font-family:'CMU Serif';-inkscape-font-specification:'CMU Serif Medium';text-align:center;letter-spacing:0px;text-anchor:middle;fill:#ffffff;stroke-width:0.716871;stroke-linecap:square;stroke-linejoin:bevel;stroke-miterlimit:3.9;paint-order:markers stroke fill"
       x="91.602989"
       y="86.640678"
       id="text20"><tspan
         sodipodi:role="line"
         id="tspan20"
         style="fill:#ffffff;stroke-width:0.716872"
         x="91.602989"
         y="86.640678">6420</tspan></text>
    <text
       xml:space="preserve"
       style="font-weight:500;font-size:5.69017px;font-family:'CMU Serif';-inkscape-font-specification:'CMU Serif Medium';text-align:center;letter-spacing:0px;text-anchor:middle;display:none;fill:#ffffff;stroke-width:0.716871;stroke-linecap:square;stroke-linejoin:bevel;stroke-miterlimit:3.9;paint-order:markers stroke fill"
       x="124.5555"
       y="86.640678"
       id="text21"><tspan
         sodipodi:role="line"
         id="tspan21"
         style="fill:#ffffff;stroke-width:0.716872"
         x="0"
         y="0">8933</tspan></text>
  </g>
  <g
     inkscape:groupmode="layer"
     id="g34"
     inkscape:label="text copy"
     style="display:inline"
     transform="translate(-35.210183,-65.881243)">
    <path
       style="font-weight:500;font-size:6.35px;font-family:'CMU Serif';-inkscape-font-specification:'CMU Serif Medium';text-align:center;letter-spacing:0px;text-anchor:middle;stroke-width:0.8;stroke-linecap:square;stroke-linejoin:bevel;stroke-miterlimit:3.9;paint-order:markers stroke fill"
       d="m 52.889356,72.580528 v -0.19685 q 0.33655,0 0.41275,-0.0381 0.08255,-0.04445 0.08255,-0.24765 v -1.7018 q 0,-0.23495 -0.08255,-0.2921 -0.08255,-0.0635 -0.41275,-0.0635 v -0.19685 l 0.88265,-0.06985 v 0.6985 q 0.0889,-0.27305 0.2794,-0.4826 0.1905,-0.2159 0.50165,-0.2159 0.2032,0 0.33655,0.1143 0.13335,0.1143 0.13335,0.27305 0,0.1397 -0.0889,0.20955 -0.08255,0.06985 -0.18415,0.06985 -0.1143,0 -0.19685,-0.06985 -0.0762,-0.0762 -0.0762,-0.2032 0,-0.0762 0.03175,-0.13335 0.0381,-0.0635 0.0635,-0.08255 0.03175,-0.0254 0.0508,-0.03175 -0.0127,-0.0063 -0.06985,-0.0063 -0.34925,0 -0.55245,0.34925 -0.19685,0.34925 -0.19685,0.84455 v 0.9779 q 0,0.18415 0.0762,0.2413 0.0762,0.05715 0.4064,0.05715 h 0.13335 v 0.19685 q -0.254,-0.01905 -0.80645,-0.01905 -0.0762,0 -0.19685,0.0064 -0.12065,0 -0.2794,0.0063 -0.15875,0.0063 -0.24765,0.0063 z m 2.571743,-0.60325 q 0,-0.53975 0.635,-0.8255 0.381,-0.18415 1.1684,-0.2286 v -0.23495 q 0,-0.3937 -0.20955,-0.60325 -0.2032,-0.20955 -0.46355,-0.20955 -0.46355,0 -0.6858,0.2921 0.1905,0.0063 0.254,0.1016 0.06985,0.09525 0.06985,0.1905 0,0.127 -0.08255,0.20955 -0.0762,0.08255 -0.20955,0.08255 -0.127,0 -0.20955,-0.0762 -0.08255,-0.08255 -0.08255,-0.22225 0,-0.31115 0.2794,-0.51435 0.2794,-0.2032 0.67945,-0.2032 0.5207,0 0.86995,0.34925 0.10795,0.10795 0.15875,0.24765 0.05715,0.1397 0.0635,0.23495 0.0063,0.0889 0.0063,0.2667 v 1.27 q 0,0.0381 0.0127,0.1016 0.0127,0.05715 0.06985,0.1397 0.05715,0.0762 0.1524,0.0762 0.2286,0 0.2286,-0.4064 v -0.3556 h 0.15875 v 0.3556 q 0,0.33655 -0.1778,0.4699 -0.1778,0.13335 -0.3429,0.13335 -0.20955,0 -0.3429,-0.1524 -0.13335,-0.15875 -0.1524,-0.3683 -0.09525,0.2413 -0.3175,0.40005 -0.2159,0.1524 -0.51435,0.1524 -0.2286,0 -0.4445,-0.05715 -0.2159,-0.05715 -0.3937,-0.2159 -0.1778,-0.15875 -0.1778,-0.40005 z m 0.48895,-0.0063 q 0,0.23495 0.1651,0.38735 0.17145,0.1524 0.4064,0.1524 0.2667,0 0.50165,-0.2032 0.2413,-0.20955 0.2413,-0.61595 v -0.635 q -0.70485,0.0254 -1.00965,0.3048 -0.3048,0.2794 -0.3048,0.6096 z m 2.622537,0.6096 v -0.19685 q 0.33655,0 0.41275,-0.0381 0.08255,-0.04445 0.08255,-0.24765 v -1.7018 q 0,-0.23495 -0.08255,-0.2921 -0.08255,-0.0635 -0.41275,-0.0635 v -0.19685 l 0.89535,-0.06985 v 0.66675 q 0.29845,-0.66675 0.9398,-0.66675 0.47625,0 0.66675,0.23495 0.1397,0.15875 0.1651,0.33655 0.03175,0.1778 0.03175,0.635 v 1.21285 q 0.0064,0.13335 0.10795,0.1651 0.1016,0.0254 0.38735,0.0254 v 0.19685 q -0.6477,-0.01905 -0.7112,-0.01905 -0.0508,0 -0.71755,0.01905 v -0.19685 q 0.33655,0 0.41275,-0.0381 0.08255,-0.04445 0.08255,-0.24765 v -1.47955 q 0,-0.32385 -0.1016,-0.51435 -0.09525,-0.1905 -0.3683,-0.1905 -0.3302,0 -0.5969,0.2794 -0.26035,0.27305 -0.26035,0.7366 v 1.1684 q 0,0.2032 0.0762,0.24765 0.08255,0.0381 0.4191,0.0381 v 0.19685 q -0.6477,-0.01905 -0.7112,-0.01905 -0.0508,0 -0.71755,0.01905 z m 3.49884,0 v -0.19685 q 0.33655,0 0.41275,-0.0381 0.08255,-0.04445 0.08255,-0.24765 v -3.302 q 0,-0.23495 -0.08255,-0.2921 -0.08255,-0.0635 -0.41275,-0.0635 v -0.19685 l 0.9144,-0.06985 v 3.048 l 0.89535,-0.7747 q 0.1397,-0.12065 0.1397,-0.24765 0,-0.14605 -0.18415,-0.15875 v -0.19685 q 0.2667,0.01905 0.7112,0.01905 0.26035,0 0.4445,-0.01905 v 0.19685 q -0.40005,0.01905 -0.8001,0.3429 -0.0889,0.06985 -0.3048,0.254 -0.20955,0.18415 -0.20955,0.2032 0,0.0063 0.0063,0.0254 0.0064,0.0127 0.01905,0.0254 0.0127,0.0127 0.0127,0.01905 l 0.80645,1.13665 q 0.1651,0.2286 0.28575,0.28575 0.12065,0.0508 0.3302,0.0508 v 0.19685 q -0.27305,-0.01905 -0.55245,-0.01905 -0.1524,0 -0.6858,0.01905 v -0.19685 q 0.2286,0 0.2286,-0.14605 0,-0.1016 -0.51435,-0.8128 -0.0381,-0.0508 -0.12065,-0.15875 -0.0762,-0.1143 -0.12065,-0.17145 l -0.4064,0.34925 v 0.65405 q 0,0.2032 0.0762,0.24765 0.08255,0.0381 0.4191,0.0381 v 0.19685 q -0.381,-0.01905 -0.6985,-0.01905 -0.0635,0 -0.69215,0.01905 z m 5.530829,-2.032 q 0,-0.93345 0.23495,-1.44145 0.3302,-0.75565 1.1049,-0.75565 0.1651,0 0.33655,0.04445 0.17145,0.04445 0.38735,0.2159 0.22225,0.17145 0.3556,0.45085 0.254,0.53975 0.254,1.4859 0,0.9271 -0.23495,1.4351 -0.3429,0.7366 -1.1049,0.7366 -0.28575,0 -0.57785,-0.14605 -0.28575,-0.14605 -0.4699,-0.4953 -0.28575,-0.52705 -0.28575,-1.53035 z m 0.52705,-0.0762 q 0,0.95885 0.06985,1.33985 0.0762,0.41275 0.28575,0.59055 0.2159,0.1778 0.45085,0.1778 0.254,0 0.46355,-0.1905 0.2159,-0.1905 0.2794,-0.60325 0.06985,-0.4064 0.06985,-1.31445 0,-0.88265 -0.0635,-1.23825 -0.08255,-0.41275 -0.3048,-0.57785 -0.22225,-0.1651 -0.4445,-0.1651 -0.08255,0 -0.17145,0.0254 -0.0889,0.0254 -0.2159,0.09525 -0.127,0.06985 -0.2286,0.24765 -0.09525,0.1778 -0.1397,0.4445 -0.0508,0.3429 -0.0508,1.1684 z"
       id="text23"
       aria-label="rank 0" />
    <path
       style="font-weight:500;font-size:6.35px;font-family:'CMU Serif';-inkscape-font-specification:'CMU Serif Medium';text-align:center;letter-spacing:0px;text-anchor:middle;stroke-width:0.8;stroke-linecap:square;stroke-linejoin:bevel;stroke-miterlimit:3.9;paint-order:markers stroke fill"
       d="m 85.746618,72.580528 v -0.19685 q 0.33655,0 0.41275,-0.0381 0.08255,-0.04445 0.08255,-0.24765 v -1.7018 q 0,-0.23495 -0.08255,-0.2921 -0.08255,-0.0635 -0.41275,-0.0635 v -0.19685 l 0.88265,-0.06985 v 0.6985 q 0.0889,-0.27305 0.2794,-0.4826 0.1905,-0.2159 0.50165,-0.2159 0.2032,0 0.33655,0.1143 0.13335,0.1143 0.13335,0.27305 0,0.1397 -0.0889,0.20955 -0.08255,0.06985 -0.18415,0.06985 -0.1143,0 -0.19685,-0.06985 -0.0762,-0.0762 -0.0762,-0.2032 0,-0.0762 0.03175,-0.13335 0.0381,-0.0635 0.0635,-0.08255 0.03175,-0.0254 0.0508,-0.03175 -0.0127,-0.0063 -0.06985,-0.0063 -0.34925,0 -0.55245,0.34925 -0.19685,0.34925 -0.19685,0.84455 v 0.9779 q 0,0.18415 0.0762,0.2413 0.0762,0.05715 0.4064,0.05715 h 0.13335 v 0.19685 q -0.254,-0.01905 -0.80645,-0.01905 -0.0762,0 -0.19685,0.0064 -0.12065,0 -0.2794,0.0063 -0.15875,0.0063 -0.24765,0.0063 z m 2.571742,-0.60325 q 0,-0.53975 0.635,-0.8255 0.381,-0.18415 1.1684,-0.2286 v -0.23495 q 0,-0.3937 -0.20955,-0.60325 -0.2032,-0.20955 -0.46355,-0.20955 -0.46355,0 -0.6858,0.2921 0.1905,0.0063 0.254,0.1016 0.06985,0.09525 0.06985,0.1905 0,0.127 -0.08255,0.20955 -0.0762,0.08255 -0.20955,0.08255 -0.127,0 -0.20955,-0.0762 -0.08255,-0.08255 -0.08255,-0.22225 0,-0.31115 0.2794,-0.51435 0.2794,-0.2032 0.67945,-0.2032 0.5207,0 0.86995,0.34925 0.10795,0.10795 0.15875,0.24765 0.05715,0.1397 0.0635,0.23495 0.0063,0.0889 0.0063,0.2667 v 1.27 q 0,0.0381 0.0127,0.1016 0.0127,0.05715 0.06985,0.1397 0.05715,0.0762 0.1524,0.0762 0.2286,0 0.2286,-0.4064 v -0.3556 h 0.15875 v 0.3556 q 0,0.33655 -0.1778,0.4699 -0.1778,0.13335 -0.3429,0.13335 -0.20955,0 -0.3429,-0.1524 -0.13335,-0.15875 -0.1524,-0.3683 -0.09525,0.2413 -0.3175,0.40005 -0.2159,0.1524 -0.51435,0.1524 -0.2286,0 -0.4445,-0.05715 -0.2159,-0.05715 -0.3937,-0.2159 -0.1778,-0.15875 -0.1778,-0.40005 z m 0.48895,-0.0063 q 0,0.23495 0.1651,0.38735 0.17145,0.1524 0.4064,0.1524 0.2667,0 0.50165,-0.2032 0.2413,-0.20955 0.2413,-0.61595 v -0.635 q -0.70485,0.0254 -1.00965,0.3048 -0.3048,0.2794 -0.3048,0.6096 z m 2.622538,0.6096 v -0.19685 q 0.33655,0 0.41275,-0.0381 0.08255,-0.04445 0.08255,-0.24765 v -1.7018 q 0,-0.23495 -0.08255,-0.2921 -0.08255,-0.0635 -0.41275,-0.0635 v -0.19685 l 0.89535,-0.06985 v 0.66675 q 0.29845,-0.66675 0.9398,-0.66675 0.47625,0 0.66675,0.23495 0.1397,0.15875 0.1651,0.33655 0.03175,0.1778 0.03175,0.635 v 1.21285 q 0.0063,0.13335 0.10795,0.1651 0.1016,0.0254 0.38735,0.0254 v 0.19685 q -0.6477,-0.01905 -0.7112,-0.01905 -0.0508,0 -0.71755,0.01905 v -0.19685 q 0.33655,0 0.41275,-0.0381 0.08255,-0.04445 0.08255,-0.24765 v -1.47955 q 0,-0.32385 -0.1016,-0.51435 -0.09525,-0.1905 -0.3683,-0.1905 -0.3302,0 -0.5969,0.2794 -0.26035,0.27305 -0.26035,0.7366 v 1.1684 q 0,0.2032 0.0762,0.24765 0.08255,0.0381 0.4191,0.0381 v 0.19685 q -0.6477,-0.01905 -0.7112,-0.01905 -0.0508,0 -0.71755,0.01905 z m 3.49884,0 v -0.19685 q 0.33655,0 0.41275,-0.0381 0.08255,-0.04445 0.08255,-0.24765 v -3.302 q 0,-0.23495 -0.08255,-0.2921 -0.08255,-0.0635 -0.41275,-0.0635 v -0.19685 l 0.9144,-0.06985 v 3.048 l 0.89535,-0.7747 q 0.1397,-0.12065 0.1397,-0.24765 0,-0.14605 -0.18415,-0.15875 v -0.19685 q 0.2667,0.01905 0.7112,0.01905 0.26035,0 0.4445,-0.01905 v 0.19685 q -0.40005,0.01905 -0.8001,0.3429 -0.0889,0.06985 -0.3048,0.254 -0.20955,0.18415 -0.20955,0.2032 0,0.0063 0.0063,0.0254 0.0063,0.0127 0.01905,0.0254 0.0127,0.0127 0.0127,0.01905 l 0.80645,1.13665 q 0.1651,0.2286 0.28575,0.28575 0.12065,0.0508 0.3302,0.0508 v 0.19685 q -0.27305,-0.01905 -0.55245,-0.01905 -0.1524,0 -0.6858,0.01905 v -0.19685 q 0.2286,0 0.2286,-0.14605 0,-0.1016 -0.51435,-0.8128 -0.0381,-0.0508 -0.12065,-0.15875 -0.0762,-0.1143 -0.12065,-0.17145 l -0.4064,0.34925 v 0.65405 q 0,0.2032 0.0762,0.24765 0.08255,0.0381 0.4191,0.0381 v 0.19685 q -0.381,-0.01905 -0.6985,-0.01905 -0.0635,0 -0.69215,0.01905 z m 5.848332,-3.62585 v -0.19685 q 0.762,0 1.1557,-0.4064 0.10795,0 0.127,0.0254 0.0191,0.0254 0.0191,0.1397 v 3.56235 q 0,0.1905 0.0889,0.24765 0.0952,0.05715 0.50165,0.05715 h 0.2032 v 0.19685 q -0.22225,-0.01905 -1.0287,-0.01905 -0.80645,0 -1.0287,0.01905 v -0.19685 h 0.2032 q 0.40005,0 0.4953,-0.05715 0.0952,-0.05715 0.0952,-0.24765 v -3.2893 q -0.3302,0.1651 -0.83185,0.1651 z"
       id="text24"
       aria-label="rank 1" />
    <path
       style="font-weight:500;font-size:6.35px;font-family:'CMU Serif';-inkscape-font-specification:'CMU Serif Medium';text-align:center;letter-spacing:0px;text-anchor:middle;stroke-width:0.8;stroke-linecap:square;stroke-linejoin:bevel;stroke-miterlimit:3.9;paint-order:markers stroke fill"
       d="m 118.60387,72.580528 v -0.19685 q 0.33655,0 0.41275,-0.0381 0.0825,-0.04445 0.0825,-0.24765 v -1.7018 q 0,-0.23495 -0.0825,-0.2921 -0.0825,-0.0635 -0.41275,-0.0635 v -0.19685 l 0.88265,-0.06985 v 0.6985 q 0.0889,-0.27305 0.2794,-0.4826 0.1905,-0.2159 0.50165,-0.2159 0.2032,0 0.33655,0.1143 0.13335,0.1143 0.13335,0.27305 0,0.1397 -0.0889,0.20955 -0.0826,0.06985 -0.18415,0.06985 -0.1143,0 -0.19685,-0.06985 -0.0762,-0.0762 -0.0762,-0.2032 0,-0.0762 0.0317,-0.13335 0.0381,-0.0635 0.0635,-0.08255 0.0318,-0.0254 0.0508,-0.03175 -0.0127,-0.0063 -0.0698,-0.0063 -0.34925,0 -0.55245,0.34925 -0.19685,0.34925 -0.19685,0.84455 v 0.9779 q 0,0.18415 0.0762,0.2413 0.0762,0.05715 0.4064,0.05715 h 0.13335 v 0.19685 q -0.254,-0.01905 -0.80645,-0.01905 -0.0762,0 -0.19685,0.0064 -0.12065,0 -0.2794,0.0063 -0.15875,0.0063 -0.24765,0.0063 z m 2.57174,-0.60325 q 0,-0.53975 0.635,-0.8255 0.381,-0.18415 1.1684,-0.2286 v -0.23495 q 0,-0.3937 -0.20955,-0.60325 -0.2032,-0.20955 -0.46355,-0.20955 -0.46355,0 -0.6858,0.2921 0.1905,0.0063 0.254,0.1016 0.0699,0.09525 0.0699,0.1905 0,0.127 -0.0825,0.20955 -0.0762,0.08255 -0.20955,0.08255 -0.127,0 -0.20955,-0.0762 -0.0826,-0.08255 -0.0826,-0.22225 0,-0.31115 0.2794,-0.51435 0.2794,-0.2032 0.67945,-0.2032 0.5207,0 0.86995,0.34925 0.10795,0.10795 0.15875,0.24765 0.0572,0.1397 0.0635,0.23495 0.006,0.0889 0.006,0.2667 v 1.27 q 0,0.0381 0.0127,0.1016 0.0127,0.05715 0.0698,0.1397 0.0572,0.0762 0.1524,0.0762 0.2286,0 0.2286,-0.4064 v -0.3556 h 0.15875 v 0.3556 q 0,0.33655 -0.1778,0.4699 -0.1778,0.13335 -0.3429,0.13335 -0.20955,0 -0.3429,-0.1524 -0.13335,-0.15875 -0.1524,-0.3683 -0.0952,0.2413 -0.3175,0.40005 -0.2159,0.1524 -0.51435,0.1524 -0.2286,0 -0.4445,-0.05715 -0.2159,-0.05715 -0.3937,-0.2159 -0.1778,-0.15875 -0.1778,-0.40005 z m 0.48895,-0.0063 q 0,0.23495 0.1651,0.38735 0.17145,0.1524 0.4064,0.1524 0.2667,0 0.50165,-0.2032 0.2413,-0.20955 0.2413,-0.61595 v -0.635 q -0.70485,0.0254 -1.00965,0.3048 -0.3048,0.2794 -0.3048,0.6096 z m 2.62254,0.6096 v -0.19685 q 0.33655,0 0.41275,-0.0381 0.0825,-0.04445 0.0825,-0.24765 v -1.7018 q 0,-0.23495 -0.0825,-0.2921 -0.0825,-0.0635 -0.41275,-0.0635 v -0.19685 l 0.89535,-0.06985 v 0.66675 q 0.29845,-0.66675 0.9398,-0.66675 0.47625,0 0.66675,0.23495 0.1397,0.15875 0.1651,0.33655 0.0318,0.1778 0.0318,0.635 v 1.21285 q 0.006,0.13335 0.10795,0.1651 0.1016,0.0254 0.38735,0.0254 v 0.19685 q -0.6477,-0.01905 -0.7112,-0.01905 -0.0508,0 -0.71755,0.01905 v -0.19685 q 0.33655,0 0.41275,-0.0381 0.0826,-0.04445 0.0826,-0.24765 v -1.47955 q 0,-0.32385 -0.1016,-0.51435 -0.0953,-0.1905 -0.3683,-0.1905 -0.3302,0 -0.5969,0.2794 -0.26035,0.27305 -0.26035,0.7366 v 1.1684 q 0,0.2032 0.0762,0.24765 0.0825,0.0381 0.4191,0.0381 v 0.19685 q -0.6477,-0.01905 -0.7112,-0.01905 -0.0508,0 -0.71755,0.01905 z m 3.49884,0 v -0.19685 q 0.33655,0 0.41275,-0.0381 0.0825,-0.04445 0.0825,-0.24765 v -3.302 q 0,-0.23495 -0.0825,-0.2921 -0.0825,-0.0635 -0.41275,-0.0635 v -0.19685 l 0.9144,-0.06985 v 3.048 l 0.89535,-0.7747 q 0.1397,-0.12065 0.1397,-0.24765 0,-0.14605 -0.18415,-0.15875 v -0.19685 q 0.2667,0.01905 0.7112,0.01905 0.26035,0 0.4445,-0.01905 v 0.19685 q -0.40005,0.01905 -0.8001,0.3429 -0.0889,0.06985 -0.3048,0.254 -0.20955,0.18415 -0.20955,0.2032 0,0.0063 0.006,0.0254 0.006,0.0127 0.019,0.0254 0.0127,0.0127 0.0127,0.01905 l 0.80645,1.13665 q 0.1651,0.2286 0.28575,0.28575 0.12065,0.0508 0.3302,0.0508 v 0.19685 q -0.27305,-0.01905 -0.55245,-0.01905 -0.1524,0 -0.6858,0.01905 v -0.19685 q 0.2286,0 0.2286,-0.14605 0,-0.1016 -0.51435,-0.8128 -0.0381,-0.0508 -0.12065,-0.15875 -0.0762,-0.1143 -0.12065,-0.17145 l -0.4064,0.34925 v 0.65405 q 0,0.2032 0.0762,0.24765 0.0825,0.0381 0.4191,0.0381 v 0.19685 q -0.381,-0.01905 -0.6985,-0.01905 -0.0635,0 -0.69215,0.01905 z m 5.60068,0 q 0,-0.1143 0.006,-0.14605 0.0127,-0.0381 0.0635,-0.0889 l 1.2192,-1.3589 q 0.66675,-0.7493 0.66675,-1.40335 0,-0.42545 -0.22225,-0.73025 -0.22225,-0.3048 -0.62865,-0.3048 -0.2794,0 -0.51435,0.17145 -0.23495,0.17145 -0.3429,0.47625 0.0191,-0.0063 0.0826,-0.0063 0.15875,0 0.24765,0.1016 0.0889,0.09525 0.0889,0.2286 0,0.17145 -0.1143,0.254 -0.10795,0.08255 -0.2159,0.08255 -0.0445,0 -0.1016,-0.0064 -0.0571,-0.0127 -0.14605,-0.1016 -0.0889,-0.0889 -0.0889,-0.24765 0,-0.4445 0.33655,-0.79375 0.33655,-0.3556 0.8509,-0.3556 0.5842,0 0.9652,0.34925 0.381,0.3429 0.381,0.88265 0,0.1905 -0.0571,0.36195 -0.0572,0.17145 -0.13335,0.3048 -0.0762,0.13335 -0.2794,0.34925 -0.2032,0.20955 -0.3683,0.36195 -0.1651,0.1524 -0.5334,0.47625 l -0.6731,0.65405 h 1.143 q 0.5588,0 0.60325,-0.0508 0.0635,-0.0889 0.1397,-0.56515 h 0.15875 l -0.1778,1.1049 z"
       id="text25"
       aria-label="rank 2" />
    <path
       style="font-size:6.35px;font-family:'CMU Typewriter Text';-inkscape-font-specification:'CMU Typewriter Text';text-align:center;letter-spacing:0px;text-anchor:middle;stroke-width:0.8;stroke-linecap:square;stroke-linejoin:bevel;stroke-miterlimit:3.9;paint-order:markers stroke fill"
       d="m 48.898365,108.97361 q 0,-0.1905 0.254,-0.1905 h 0.51435 v -1.96215 h -0.51435 q -0.0762,0 -0.12065,-0.006 -0.0381,-0.006 -0.0889,-0.0508 -0.04445,-0.0508 -0.04445,-0.1397 0,-0.1905 0.254,-0.1905 h 0.6985 q 0.15875,0 0.2032,0.0571 0.0508,0.0508 0.0508,0.2032 v 0.2159 q 0.45085,-0.51435 1.0795,-0.51435 0.18415,0 0.31115,0.0444 0.13335,0.0381 0.1905,0.10795 0.05715,0.0635 0.0762,0.127 0.0254,0.0572 0.0254,0.1143 0,0.12065 -0.08255,0.19685 -0.0762,0.0762 -0.18415,0.0762 -0.1143,0 -0.1905,-0.0825 -0.0762,-0.0825 -0.08255,-0.19685 -0.53975,0 -0.84455,0.36195 -0.29845,0.3556 -0.29845,0.84455 v 0.79375 h 0.70485 q 0.26035,0 0.26035,0.19685 0,0.1905 -0.26035,0.1905 h -1.65735 q -0.0762,0 -0.12065,-0.006 -0.0381,-0.006 -0.0889,-0.0508 -0.04445,-0.0508 -0.04445,-0.1397 z m 3.479798,-0.61595 q 0,-0.4445 0.51435,-0.6858 0.5207,-0.24765 1.39065,-0.26035 0,-0.32385 -0.2159,-0.4826 -0.2159,-0.1651 -0.5969,-0.1651 -0.1397,0 -0.2286,0.006 -0.09525,0.006 -0.1143,0.019 -0.01905,0.0127 -0.01905,0.0508 -0.0063,0.15875 -0.09525,0.2286 -0.0889,0.0635 -0.18415,0.0635 -0.12065,0 -0.2032,-0.0762 -0.08255,-0.0762 -0.08255,-0.2159 0,-0.46355 0.92075,-0.46355 0.62865,0 0.9398,0.29845 0.3175,0.29845 0.3175,0.6858 v 1.3716 q 0.13335,0.0508 0.381,0.0508 0.254,0 0.254,0.1905 0,0.0953 -0.0508,0.1397 -0.04445,0.0444 -0.1016,0.0508 -0.0508,0.006 -0.1651,0.006 -0.53975,0 -0.6858,-0.2032 -0.3683,0.2413 -0.9271,0.2413 -0.4699,0 -0.762,-0.254 -0.28575,-0.254 -0.28575,-0.5969 z m 0.43815,0 q 0,0.1905 0.18415,0.3302 0.18415,0.13335 0.4699,0.13335 0.33655,0 0.56515,-0.10795 0.1143,-0.0508 0.17145,-0.12065 0.05715,-0.0762 0.0635,-0.127 0.0127,-0.0508 0.0127,-0.14605 v -0.5334 q -0.67945,0.0191 -1.07315,0.1778 -0.3937,0.15875 -0.3937,0.3937 z m 2.622547,0.6223 q 0,-0.19685 0.26035,-0.19685 h 0.2794 v -1.96215 h -0.28575 q -0.254,0 -0.254,-0.1905 0,-0.19685 0.26035,-0.19685 h 0.46355 q 0.1778,0 0.2159,0.0635 0.0381,0.0571 0.0381,0.23495 0.33655,-0.33655 0.83185,-0.33655 0.8255,0 0.8255,0.9144 v 1.4732 h 0.2794 q 0.26035,0 0.26035,0.19685 0,0.1905 -0.254,0.1905 h -0.97155 q -0.26035,0 -0.26035,-0.1905 0,-0.19685 0.26035,-0.19685 h 0.24765 v -1.44145 q 0,-0.29845 -0.09525,-0.42545 -0.0889,-0.13335 -0.3302,-0.13335 -0.2921,0 -0.5461,0.22225 -0.24765,0.22225 -0.24765,0.65405 v 1.12395 h 0.2794 q 0.26035,0 0.26035,0.19685 0,0.1905 -0.254,0.1905 h -1.00965 q -0.254,0 -0.254,-0.1905 z m 3.486148,-1.17475 q 0,-0.5969 0.38735,-1.0033 0.38735,-0.4064 0.9144,-0.4064 0.4191,0 0.74295,0.28575 v -1.0033 h -0.28575 q -0.254,0 -0.254,-0.1905 0,-0.19685 0.26035,-0.19685 h 0.46355 q 0.15875,0 0.2032,0.0571 0.0508,0.0508 0.0508,0.2032 v 3.23215 h 0.28575 q 0.254,0 0.254,0.1905 0,0.19685 -0.26035,0.19685 h -0.46355 q -0.1778,0 -0.2159,-0.0635 -0.0381,-0.0635 -0.0381,-0.254 -0.3429,0.3556 -0.8001,0.3556 -0.508,0 -0.8763,-0.4064 -0.3683,-0.41275 -0.3683,-0.99695 z m 0.43815,0 q 0,0.4191 0.2413,0.71755 0.24765,0.29845 0.59055,0.29845 0.33655,0 0.55245,-0.28575 0.22225,-0.2921 0.22225,-0.5969 v -0.45085 q 0,-0.27305 -0.20955,-0.48895 -0.20955,-0.2159 -0.508,-0.2159 -0.34925,0 -0.6223,0.2921 -0.2667,0.2921 -0.2667,0.73025 z m 3.028948,-0.006 q 0,-0.59055 0.381,-1.0033 0.38735,-0.4191 0.92075,-0.4191 0.5334,0 0.9144,0.4191 0.38735,0.41275 0.38735,1.0033 0,0.59055 -0.38735,1.0033 -0.381,0.4064 -0.9144,0.4064 -0.5334,0 -0.92075,-0.4064 -0.381,-0.4064 -0.381,-1.0033 z m 0.43815,-0.0445 q 0,0.43815 0.254,0.75565 0.254,0.31115 0.6096,0.31115 0.3556,0 0.6096,-0.31115 0.254,-0.3175 0.254,-0.75565 0,-0.42545 -0.26035,-0.70485 -0.254,-0.28575 -0.60325,-0.28575 -0.34925,0 -0.6096,0.28575 -0.254,0.2794 -0.254,0.70485 z m 2.508246,1.22555 q 0,-0.0953 0.0508,-0.1397 0.0508,-0.0444 0.10795,-0.0508 0.0635,-0.006 0.2032,-0.006 v -1.96215 q -0.1397,0 -0.2032,-0.006 -0.05715,-0.006 -0.10795,-0.0508 -0.0508,-0.0445 -0.0508,-0.1397 0,-0.1905 0.26035,-0.1905 h 0.2032 q 0.0762,0 0.1143,0.006 0.04445,0.006 0.0889,0.0508 0.04445,0.0445 0.0508,0.13335 0.24765,-0.2286 0.5842,-0.2286 0.33655,0 0.4826,0.3302 0.12065,-0.17145 0.3048,-0.24765 0.1905,-0.0825 0.36195,-0.0825 0.19685,0 0.32385,0.10795 0.127,0.1016 0.17145,0.2794 0.04445,0.17145 0.05715,0.2667 0.0127,0.0953 0.0127,0.19685 v 1.5367 q 0.1397,0 0.19685,0.006 0.0635,0.006 0.1143,0.0508 0.0508,0.0444 0.0508,0.1397 0,0.1905 -0.26035,0.1905 h -0.508 q -0.26035,0 -0.26035,-0.1905 0,-0.0889 0.0508,-0.13335 0.05715,-0.0508 0.10795,-0.0571 0.0508,-0.006 0.1524,-0.006 v -1.47955 q 0,-0.2921 -0.05715,-0.4064 -0.05715,-0.1143 -0.1778,-0.1143 -0.2159,0 -0.38735,0.23495 -0.17145,0.2286 -0.17145,0.62865 v 1.13665 q 0.1397,0 0.19685,0.006 0.0635,0.006 0.1143,0.0508 0.0508,0.0444 0.0508,0.1397 0,0.1905 -0.26035,0.1905 h -0.508 q -0.26035,0 -0.26035,-0.1905 0,-0.0889 0.0508,-0.13335 0.05715,-0.0508 0.10795,-0.0571 0.0508,-0.006 0.1524,-0.006 v -1.47955 q 0,-0.2921 -0.05715,-0.4064 -0.05715,-0.1143 -0.1778,-0.1143 -0.2159,0 -0.38735,0.23495 -0.17145,0.2286 -0.17145,0.62865 v 1.13665 q 0.1397,0 0.19685,0.006 0.0635,0.006 0.1143,0.0508 0.0508,0.0444 0.0508,0.1397 0,0.1905 -0.26035,0.1905 h -0.5588 q -0.26035,0 -0.26035,-0.1905 z m 4.457698,-1.7526 q 0,-0.4572 0.13335,-0.8763 0.1397,-0.4191 0.3302,-0.6985 0.19685,-0.2794 0.41275,-0.48895 0.2159,-0.20955 0.37465,-0.3048 0.1651,-0.0953 0.2286,-0.0953 0.10795,0 0.1524,0.0635 0.04445,0.0571 0.04445,0.1143 0,0.0444 -0.01905,0.0825 -0.01905,0.0318 -0.04445,0.0508 -0.01905,0.0127 -0.08255,0.0572 -0.40005,0.27305 -0.6604,0.6604 -0.254,0.38735 -0.3429,0.7366 -0.0889,0.3429 -0.0889,0.6985 0,0.59055 0.26035,1.1557 0.2667,0.5588 0.81915,0.93345 0.06985,0.0508 0.09525,0.0635 0.0254,0.0191 0.04445,0.0508 0.01905,0.0381 0.01905,0.0826 0,0.0571 -0.04445,0.1143 -0.04445,0.0635 -0.1524,0.0635 -0.127,0 -0.4318,-0.24765 -0.29845,-0.2413 -0.5334,-0.5715 -0.51435,-0.7366 -0.51435,-1.64465 z m 2.793998,2.286 q 0,-0.0953 0.14605,-0.1905 0.5842,-0.3937 0.8382,-0.95885 0.254,-0.5715 0.254,-1.13665 0,-0.2032 -0.0381,-0.4191 -0.03175,-0.2159 -0.13335,-0.52705 -0.1016,-0.31115 -0.3556,-0.6223 -0.24765,-0.3175 -0.6096,-0.5588 -0.1016,-0.0635 -0.1016,-0.15875 0,-0.0572 0.04445,-0.1143 0.0508,-0.0635 0.1524,-0.0635 0.127,0 0.42545,0.24765 0.3048,0.2413 0.53975,0.5715 0.51435,0.7366 0.51435,1.64465 0,0.4572 -0.1397,0.8763 -0.13335,0.4191 -0.3302,0.6985 -0.1905,0.2794 -0.4064,0.48895 -0.2159,0.20955 -0.381,0.3048 -0.15875,0.0952 -0.22225,0.0952 -0.1016,0 -0.1524,-0.0635 -0.04445,-0.0572 -0.04445,-0.1143 z"
       id="text26"
       aria-label="random()" />
    <path
       style="font-size:6.35px;font-family:'CMU Serif';-inkscape-font-specification:'CMU Serif';text-align:center;letter-spacing:0px;text-anchor:middle;stroke-width:0.8;stroke-linecap:square;stroke-linejoin:bevel;stroke-miterlimit:3.9;paint-order:markers stroke fill"
       d="m 54.410186,130.15663 q 0,-0.1143 0.0063,-0.14605 0.0127,-0.0381 0.0635,-0.0889 l 1.2192,-1.3589 q 0.66675,-0.7493 0.66675,-1.40335 0,-0.42545 -0.22225,-0.73025 -0.22225,-0.3048 -0.62865,-0.3048 -0.2794,0 -0.51435,0.17145 -0.23495,0.17145 -0.3429,0.47625 0.01905,-0.006 0.08255,-0.006 0.15875,0 0.24765,0.1016 0.0889,0.0953 0.0889,0.2286 0,0.17145 -0.1143,0.254 -0.10795,0.0825 -0.2159,0.0825 -0.04445,0 -0.1016,-0.006 -0.05715,-0.0127 -0.14605,-0.1016 -0.0889,-0.0889 -0.0889,-0.24765 0,-0.4445 0.33655,-0.79375 0.33655,-0.3556 0.8509,-0.3556 0.5842,0 0.9652,0.34925 0.381,0.3429 0.381,0.88265 0,0.1905 -0.05715,0.36195 -0.05715,0.17145 -0.13335,0.3048 -0.0762,0.13335 -0.2794,0.34925 -0.2032,0.20955 -0.3683,0.36195 -0.1651,0.1524 -0.5334,0.47625 l -0.6731,0.65405 h 1.143 q 0.5588,0 0.60325,-0.0508 0.0635,-0.0889 0.1397,-0.56515 h 0.15875 l -0.1778,1.1049 z m 3.124187,-2.80035 q 0,-0.33655 0.09525,-0.56515 0.1016,-0.23495 0.31115,-0.46355 0.381,-0.40005 0.93345,-0.40005 0.23495,0 0.4445,0.1016 0.20955,0.0953 0.4064,0.32385 0.2032,0.22225 0.32385,0.66675 0.12065,0.43815 0.12065,1.04775 0,0.98425 -0.47625,1.60655 -0.47625,0.6223 -1.1176,0.6223 -0.4064,0 -0.6477,-0.18415 -0.23495,-0.18415 -0.23495,-0.50165 0,-0.1651 0.0889,-0.23495 0.09525,-0.0699 0.2032,-0.0699 0.1143,0 0.2032,0.0762 0.0889,0.0762 0.0889,0.2159 0,0.1143 -0.0762,0.2032 -0.06985,0.0889 -0.254,0.0889 0.18415,0.2286 0.6223,0.2286 0.15875,0 0.3175,-0.0699 0.15875,-0.0762 0.3302,-0.254 0.17145,-0.1778 0.27305,-0.55245 0.10795,-0.37465 0.10795,-0.9017 v -0.2032 q -0.254,0.635 -0.79375,0.635 -0.5334,0 -0.9017,-0.4064 -0.3683,-0.41275 -0.3683,-1.00965 z m 0.5715,0.006 q 0,0.62865 0.1143,0.8636 0.19685,0.40005 0.59055,0.40005 0.38735,0 0.57785,-0.3429 0.19685,-0.34925 0.19685,-0.8001 0,-0.6223 -0.1016,-0.89535 -0.1905,-0.50165 -0.6096,-0.50165 -0.4191,0 -0.635,0.40005 -0.13335,0.23495 -0.13335,0.8763 z m 2.584438,0.762 q 0,-0.93345 0.23495,-1.44145 0.3302,-0.75565 1.1049,-0.75565 0.1651,0 0.33655,0.0444 0.17145,0.0444 0.38735,0.2159 0.22225,0.17145 0.3556,0.45085 0.254,0.53975 0.254,1.4859 0,0.9271 -0.23495,1.4351 -0.3429,0.7366 -1.1049,0.7366 -0.28575,0 -0.57785,-0.14605 -0.28575,-0.14605 -0.4699,-0.4953 -0.28575,-0.52705 -0.28575,-1.53035 z m 0.52705,-0.0762 q 0,0.95885 0.06985,1.33985 0.0762,0.41275 0.28575,0.59055 0.2159,0.1778 0.45085,0.1778 0.254,0 0.46355,-0.1905 0.2159,-0.1905 0.2794,-0.60325 0.06985,-0.4064 0.06985,-1.31445 0,-0.88265 -0.0635,-1.23825 -0.08255,-0.41275 -0.3048,-0.57785 -0.22225,-0.1651 -0.4445,-0.1651 -0.08255,0 -0.17145,0.0254 -0.0889,0.0254 -0.2159,0.0953 -0.127,0.0698 -0.2286,0.24765 -0.09525,0.1778 -0.1397,0.4445 -0.0508,0.3429 -0.0508,1.1684 z m 2.666988,1.25095 q 0,-0.1905 0.10795,-0.2794 0.10795,-0.0889 0.24765,-0.0889 0.14605,0 0.24765,0.0952 0.10795,0.0952 0.10795,0.26035 0,0.1778 -0.127,0.2794 -0.12065,0.0952 -0.2921,0.0699 0.1524,0.254 0.4318,0.3683 0.2794,0.1143 0.53975,0.1143 0.27305,0 0.4953,-0.23495 0.22225,-0.23495 0.22225,-0.8128 0,-0.48895 -0.1905,-0.76835 -0.1905,-0.28575 -0.56515,-0.28575 h -0.2794 q -0.09525,0 -0.127,-0.006 -0.0254,-0.0127 -0.0254,-0.0635 0,-0.0635 0.09525,-0.0762 0.09525,0 0.24765,-0.0191 0.3683,-0.0127 0.56515,-0.3302 0.1778,-0.29845 0.1778,-0.7239 0,-0.38735 -0.18415,-0.5461 -0.18415,-0.1651 -0.42545,-0.1651 -0.22225,0 -0.4699,0.0952 -0.2413,0.0889 -0.37465,0.29845 0.3937,0 0.3937,0.3175 0,0.1397 -0.0889,0.23495 -0.0889,0.0889 -0.23495,0.0889 -0.1397,0 -0.23495,-0.0889 -0.0889,-0.0889 -0.0889,-0.2413 0,-0.36195 0.32385,-0.6096 0.32385,-0.254 0.8001,-0.254 0.4699,0 0.81915,0.24765 0.34925,0.24765 0.34925,0.62865 0,0.37465 -0.24765,0.6858 -0.24765,0.3048 -0.64135,0.4318 0.4826,0.0953 0.76835,0.42545 0.2921,0.32385 0.2921,0.7239 0,0.4953 -0.3937,0.8636 -0.38735,0.36195 -0.95885,0.36195 -0.52705,0 -0.90805,-0.28575 -0.37465,-0.28575 -0.37465,-0.7112 z m 3.174988,-1.14935 q 0,-0.99695 0.508,-1.60655 0.508,-0.61595 1.16205,-0.61595 0.381,0 0.59055,0.19685 0.2159,0.1905 0.2159,0.48895 0,0.1651 -0.09525,0.23495 -0.09525,0.0699 -0.19685,0.0699 -0.1143,0 -0.2032,-0.0762 -0.0889,-0.0762 -0.0889,-0.2159 0,-0.28575 0.34925,-0.28575 -0.1651,-0.254 -0.5588,-0.254 -0.12065,0 -0.24765,0.0381 -0.12065,0.0318 -0.28575,0.1524 -0.15875,0.1143 -0.28575,0.3048 -0.12065,0.18415 -0.20955,0.5334 -0.08255,0.34925 -0.08255,0.80645 v 0.1524 q 0.26035,-0.62865 0.79375,-0.62865 0.5334,0 0.9017,0.4064 0.3683,0.4064 0.3683,1.00965 0,0.61595 -0.38735,1.0287 -0.381,0.4064 -0.92075,0.4064 -0.2413,0 -0.46355,-0.1016 -0.2159,-0.1016 -0.4191,-0.3302 -0.2032,-0.2286 -0.32385,-0.66675 -0.12065,-0.4445 -0.12065,-1.04775 z m 0.5842,0.5715 q 0,0.6223 0.1143,0.92075 0.01905,0.0508 0.05715,0.12065 0.04445,0.0635 0.1143,0.1524 0.0762,0.0889 0.19685,0.14605 0.12065,0.0571 0.26035,0.0571 0.42545,0 0.62865,-0.41275 0.10795,-0.2286 0.10795,-0.8509 0,-0.635 -0.1143,-0.86995 -0.19685,-0.3937 -0.59055,-0.3937 -0.2667,0 -0.45085,0.18415 -0.18415,0.18415 -0.254,0.4318 -0.06985,0.2413 -0.06985,0.51435 z"
       id="text27"
       aria-label="29036" />
    <path
       style="font-size:6.35px;font-family:'CMU Typewriter Text';-inkscape-font-specification:'CMU Typewriter Text';text-align:center;letter-spacing:0px;text-anchor:middle;stroke-width:0.8;stroke-linecap:square;stroke-linejoin:bevel;stroke-miterlimit:3.9;paint-order:markers stroke fill"
       d="m 81.755615,108.97361 q 0,-0.1905 0.254,-0.1905 h 0.51435 v -1.96215 h -0.51435 q -0.0762,0 -0.12065,-0.006 -0.0381,-0.006 -0.0889,-0.0508 -0.04445,-0.0508 -0.04445,-0.1397 0,-0.1905 0.254,-0.1905 h 0.6985 q 0.15875,0 0.2032,0.0571 0.0508,0.0508 0.0508,0.2032 v 0.2159 q 0.45085,-0.51435 1.0795,-0.51435 0.18415,0 0.31115,0.0444 0.13335,0.0381 0.1905,0.10795 0.05715,0.0635 0.0762,0.127 0.0254,0.0572 0.0254,0.1143 0,0.12065 -0.08255,0.19685 -0.0762,0.0762 -0.18415,0.0762 -0.1143,0 -0.1905,-0.0825 -0.0762,-0.0825 -0.08255,-0.19685 -0.53975,0 -0.84455,0.36195 -0.29845,0.3556 -0.29845,0.84455 v 0.79375 h 0.70485 q 0.26035,0 0.26035,0.19685 0,0.1905 -0.26035,0.1905 h -1.65735 q -0.0762,0 -0.12065,-0.006 -0.0381,-0.006 -0.0889,-0.0508 -0.04445,-0.0508 -0.04445,-0.1397 z m 3.479798,-0.61595 q 0,-0.4445 0.51435,-0.6858 0.5207,-0.24765 1.39065,-0.26035 0,-0.32385 -0.2159,-0.4826 -0.2159,-0.1651 -0.5969,-0.1651 -0.1397,0 -0.2286,0.006 -0.09525,0.006 -0.1143,0.019 -0.01905,0.0127 -0.01905,0.0508 -0.0064,0.15875 -0.09525,0.2286 -0.0889,0.0635 -0.18415,0.0635 -0.12065,0 -0.2032,-0.0762 -0.08255,-0.0762 -0.08255,-0.2159 0,-0.46355 0.92075,-0.46355 0.62865,0 0.9398,0.29845 0.3175,0.29845 0.3175,0.6858 v 1.3716 q 0.13335,0.0508 0.381,0.0508 0.254,0 0.254,0.1905 0,0.0953 -0.0508,0.1397 -0.04445,0.0444 -0.1016,0.0508 -0.0508,0.006 -0.1651,0.006 -0.53975,0 -0.6858,-0.2032 -0.3683,0.2413 -0.9271,0.2413 -0.4699,0 -0.762,-0.254 -0.28575,-0.254 -0.28575,-0.5969 z m 0.43815,0 q 0,0.1905 0.18415,0.3302 0.18415,0.13335 0.4699,0.13335 0.33655,0 0.56515,-0.10795 0.1143,-0.0508 0.17145,-0.12065 0.05715,-0.0762 0.0635,-0.127 0.0127,-0.0508 0.0127,-0.14605 v -0.5334 q -0.67945,0.0191 -1.07315,0.1778 -0.3937,0.15875 -0.3937,0.3937 z m 2.622548,0.6223 q 0,-0.19685 0.26035,-0.19685 h 0.2794 v -1.96215 h -0.28575 q -0.254,0 -0.254,-0.1905 0,-0.19685 0.26035,-0.19685 h 0.46355 q 0.1778,0 0.2159,0.0635 0.0381,0.0571 0.0381,0.23495 0.33655,-0.33655 0.83185,-0.33655 0.825499,0 0.825499,0.9144 v 1.4732 h 0.2794 q 0.26035,0 0.26035,0.19685 0,0.1905 -0.254,0.1905 h -0.971549 q -0.26035,0 -0.26035,-0.1905 0,-0.19685 0.26035,-0.19685 h 0.24765 v -1.44145 q 0,-0.29845 -0.09525,-0.42545 -0.0889,-0.13335 -0.3302,-0.13335 -0.2921,0 -0.5461,0.22225 -0.24765,0.22225 -0.24765,0.65405 v 1.12395 h 0.2794 q 0.26035,0 0.26035,0.19685 0,0.1905 -0.254,0.1905 h -1.00965 q -0.254,0 -0.254,-0.1905 z m 3.486147,-1.17475 q 0,-0.5969 0.38735,-1.0033 0.38735,-0.4064 0.9144,-0.4064 0.4191,0 0.74295,0.28575 v -1.0033 h -0.28575 q -0.254,0 -0.254,-0.1905 0,-0.19685 0.26035,-0.19685 h 0.46355 q 0.15875,0 0.2032,0.0571 0.0508,0.0508 0.0508,0.2032 v 3.23215 h 0.28575 q 0.254,0 0.254,0.1905 0,0.19685 -0.26035,0.19685 h -0.46355 q -0.1778,0 -0.2159,-0.0635 -0.0381,-0.0635 -0.0381,-0.254 -0.3429,0.3556 -0.8001,0.3556 -0.508,0 -0.8763,-0.4064 -0.3683,-0.41275 -0.3683,-0.99695 z m 0.43815,0 q 0,0.4191 0.2413,0.71755 0.24765,0.29845 0.59055,0.29845 0.33655,0 0.55245,-0.28575 0.22225,-0.2921 0.22225,-0.5969 v -0.45085 q 0,-0.27305 -0.20955,-0.48895 -0.20955,-0.2159 -0.508,-0.2159 -0.34925,0 -0.6223,0.2921 -0.2667,0.2921 -0.2667,0.73025 z m 3.028948,-0.006 q 0,-0.59055 0.381,-1.0033 0.38735,-0.4191 0.92075,-0.4191 0.5334,0 0.9144,0.4191 0.38735,0.41275 0.38735,1.0033 0,0.59055 -0.38735,1.0033 -0.381,0.4064 -0.9144,0.4064 -0.5334,0 -0.92075,-0.4064 -0.381,-0.4064 -0.381,-1.0033 z m 0.43815,-0.0445 q 0,0.43815 0.254,0.75565 0.254,0.31115 0.6096,0.31115 0.3556,0 0.6096,-0.31115 0.254,-0.3175 0.254,-0.75565 0,-0.42545 -0.26035,-0.70485 -0.254,-0.28575 -0.60325,-0.28575 -0.34925,0 -0.6096,0.28575 -0.254,0.2794 -0.254,0.70485 z m 2.508247,1.22555 q 0,-0.0953 0.0508,-0.1397 0.0508,-0.0444 0.10795,-0.0508 0.0635,-0.006 0.2032,-0.006 v -1.96215 q -0.1397,0 -0.2032,-0.006 -0.05715,-0.006 -0.10795,-0.0508 -0.0508,-0.0445 -0.0508,-0.1397 0,-0.1905 0.26035,-0.1905 h 0.2032 q 0.0762,0 0.1143,0.006 0.04445,0.006 0.0889,0.0508 0.04445,0.0445 0.0508,0.13335 0.24765,-0.2286 0.5842,-0.2286 0.33655,0 0.4826,0.3302 0.120647,-0.17145 0.304797,-0.24765 0.1905,-0.0825 0.36195,-0.0825 0.19685,0 0.32385,0.10795 0.127,0.1016 0.17145,0.2794 0.0444,0.17145 0.0571,0.2667 0.0127,0.0953 0.0127,0.19685 v 1.5367 q 0.1397,0 0.19685,0.006 0.0635,0.006 0.1143,0.0508 0.0508,0.0444 0.0508,0.1397 0,0.1905 -0.26035,0.1905 h -0.508 q -0.26035,0 -0.26035,-0.1905 0,-0.0889 0.0508,-0.13335 0.0571,-0.0508 0.10795,-0.0571 0.0508,-0.006 0.1524,-0.006 v -1.47955 q 0,-0.2921 -0.0571,-0.4064 -0.0572,-0.1143 -0.1778,-0.1143 -0.2159,0 -0.38735,0.23495 -0.17145,0.2286 -0.17145,0.62865 v 1.13665 q 0.1397,0 0.19685,0.006 0.0635,0.006 0.1143,0.0508 0.0508,0.0444 0.0508,0.1397 0,0.1905 -0.26035,0.1905 h -0.507997 q -0.26035,0 -0.26035,-0.1905 0,-0.0889 0.0508,-0.13335 0.05715,-0.0508 0.10795,-0.0571 0.0508,-0.006 0.1524,-0.006 v -1.47955 q 0,-0.2921 -0.05715,-0.4064 -0.05715,-0.1143 -0.1778,-0.1143 -0.2159,0 -0.38735,0.23495 -0.17145,0.2286 -0.17145,0.62865 v 1.13665 q 0.1397,0 0.19685,0.006 0.0635,0.006 0.1143,0.0508 0.0508,0.0444 0.0508,0.1397 0,0.1905 -0.26035,0.1905 h -0.5588 q -0.26035,0 -0.26035,-0.1905 z m 4.457697,-1.7526 q 0,-0.4572 0.13335,-0.8763 0.1397,-0.4191 0.3302,-0.6985 0.19685,-0.2794 0.41275,-0.48895 0.2159,-0.20955 0.37465,-0.3048 0.1651,-0.0953 0.2286,-0.0953 0.10795,0 0.1524,0.0635 0.0444,0.0571 0.0444,0.1143 0,0.0444 -0.019,0.0825 -0.0191,0.0318 -0.0444,0.0508 -0.0191,0.0127 -0.0825,0.0572 -0.40005,0.27305 -0.6604,0.6604 -0.254,0.38735 -0.3429,0.7366 -0.0889,0.3429 -0.0889,0.6985 0,0.59055 0.26035,1.1557 0.2667,0.5588 0.81915,0.93345 0.0699,0.0508 0.0953,0.0635 0.0254,0.0191 0.0444,0.0508 0.019,0.0381 0.019,0.0826 0,0.0571 -0.0444,0.1143 -0.0444,0.0635 -0.1524,0.0635 -0.127,0 -0.4318,-0.24765 -0.29845,-0.2413 -0.5334,-0.5715 -0.51435,-0.7366 -0.51435,-1.64465 z m 2.794,2.286 q 0,-0.0953 0.14605,-0.1905 0.5842,-0.3937 0.8382,-0.95885 0.254,-0.5715 0.254,-1.13665 0,-0.2032 -0.0381,-0.4191 -0.0318,-0.2159 -0.13335,-0.52705 -0.1016,-0.31115 -0.3556,-0.6223 -0.24765,-0.3175 -0.6096,-0.5588 -0.1016,-0.0635 -0.1016,-0.15875 0,-0.0572 0.0444,-0.1143 0.0508,-0.0635 0.1524,-0.0635 0.127,0 0.42545,0.24765 0.3048,0.2413 0.53975,0.5715 0.51435,0.7366 0.51435,1.64465 0,0.4572 -0.1397,0.8763 -0.13335,0.4191 -0.3302,0.6985 -0.1905,0.2794 -0.4064,0.48895 -0.2159,0.20955 -0.381,0.3048 -0.15875,0.0952 -0.22225,0.0952 -0.1016,0 -0.1524,-0.0635 -0.0444,-0.0572 -0.0444,-0.1143 z"
       id="text28"
       aria-label="random()" />
    <path
       style="font-size:6.35px;font-family:'CMU Serif';-inkscape-font-specification:'CMU Serif';text-align:center;letter-spacing:0px;text-anchor:middle;stroke-width:0.8;stroke-linecap:square;stroke-linejoin:bevel;stroke-miterlimit:3.9;paint-order:markers stroke fill"
       d="m 88.245328,129.10888 v -0.19685 l 1.94945,-2.97815 q 0.0508,-0.0762 0.127,-0.0762 0.06985,0 0.08255,0.0318 0.01905,0.0254 0.01905,0.13335 v 2.88925 h 0.635 v 0.19685 h -0.635 v 0.55245 q 0,0.18415 0.0762,0.2413 0.0762,0.0572 0.4064,0.0572 h 0.13335 v 0.19685 q -0.26035,-0.019 -0.8636,-0.019 -0.5969,0 -0.85725,0.019 v -0.19685 h 0.13335 q 0.3302,0 0.4064,-0.0572 0.0762,-0.0571 0.0762,-0.2413 v -0.55245 z m 0.1778,-0.19685 h 1.5494 v -2.36855 z m 3.174987,-1.7399 0.20955,-1.3081 h 0.15875 q 0.01905,0.0762 0.0508,0.1143 0.03175,0.0318 0.20955,0.0635 0.18415,0.0254 0.55245,0.0254 h 1.54305 q 0,0.14605 -0.05715,0.22225 l -0.85725,1.2065 q -0.27305,0.381 -0.3937,1.08585 -0.06985,0.4699 -0.06985,1.0414 v 0.32385 q 0,0.34925 -0.2921,0.34925 -0.2921,0 -0.2921,-0.34925 0,-1.21285 0.78105,-2.3876 0.08255,-0.12065 0.38735,-0.55245 0.31115,-0.4318 0.32385,-0.45085 h -1.31445 q -0.57785,0 -0.6223,0.0381 -0.0635,0.0572 -0.15875,0.57785 z m 3.136888,1.96215 q 0,-0.1905 0.1016,-0.26035 0.1016,-0.0762 0.20955,-0.0762 0.14605,0 0.2286,0.0952 0.0889,0.0889 0.0889,0.2159 0,0.127 -0.0889,0.22225 -0.08255,0.0889 -0.2286,0.0889 -0.06985,0 -0.10795,-0.0127 0.08255,0.2921 0.33655,0.50165 0.26035,0.20955 0.5969,0.20955 0.42545,0 0.67945,-0.41275 0.1524,-0.2667 0.1524,-0.86995 0,-0.5334 -0.1143,-0.8001 -0.1778,-0.4064 -0.53975,-0.4064 -0.51435,0 -0.81915,0.4445 -0.0381,0.0572 -0.08255,0.0572 -0.0635,0 -0.0762,-0.0317 -0.0127,-0.0381 -0.0127,-0.13335 v -1.8796 q 0,-0.1524 0.0635,-0.1524 0.0254,0 0.0762,0.019 0.40005,0.1778 0.84455,0.1778 0.4572,0 0.8636,-0.18415 0.03175,-0.019 0.0508,-0.019 0.0635,0 0.0635,0.0699 0,0.0254 -0.0508,0.1016 -0.0508,0.0699 -0.15875,0.1651 -0.10795,0.0952 -0.24765,0.18415 -0.1397,0.0889 -0.3429,0.1524 -0.2032,0.0572 -0.42545,0.0572 -0.2667,0 -0.53975,-0.0825 v 1.23825 q 0.3302,-0.32385 0.80645,-0.32385 0.508,0 0.85725,0.41275 0.34925,0.4064 0.34925,0.9779 0,0.5969 -0.41275,1.00965 -0.41275,0.4064 -0.97155,0.4064 -0.508,0 -0.83185,-0.36195 -0.3175,-0.36195 -0.3175,-0.8001 z m 3.174988,1.02235 q 0,-0.1143 0.0063,-0.14605 0.0127,-0.0381 0.0635,-0.0889 l 1.2192,-1.3589 q 0.66675,-0.7493 0.66675,-1.40335 0,-0.42545 -0.22225,-0.73025 -0.22225,-0.3048 -0.62865,-0.3048 -0.2794,0 -0.51435,0.17145 -0.23495,0.17145 -0.3429,0.47625 0.01905,-0.006 0.08255,-0.006 0.15875,0 0.24765,0.1016 0.0889,0.0953 0.0889,0.2286 0,0.17145 -0.1143,0.254 -0.10795,0.0825 -0.2159,0.0825 -0.04445,0 -0.1016,-0.006 -0.05715,-0.0127 -0.14605,-0.1016 -0.0889,-0.0889 -0.0889,-0.24765 0,-0.4445 0.33655,-0.79375 0.33655,-0.3556 0.8509,-0.3556 0.5842,0 0.965199,0.34925 0.381,0.3429 0.381,0.88265 0,0.1905 -0.0572,0.36195 -0.0571,0.17145 -0.13335,0.3048 -0.0762,0.13335 -0.279399,0.34925 -0.2032,0.20955 -0.3683,0.36195 -0.1651,0.1524 -0.5334,0.47625 l -0.6731,0.65405 h 1.143 q 0.558799,0 0.603249,-0.0508 0.0635,-0.0889 0.1397,-0.56515 h 0.15875 l -0.1778,1.1049 z"
       id="text29"
       aria-label="4752" />
    <path
       style="font-size:6.35px;font-family:'CMU Typewriter Text';-inkscape-font-specification:'CMU Typewriter Text';text-align:center;letter-spacing:0px;text-anchor:middle;stroke-width:0.8;stroke-linecap:square;stroke-linejoin:bevel;stroke-miterlimit:3.9;paint-order:markers stroke fill"
       d="m 114.61288,108.97361 q 0,-0.1905 0.254,-0.1905 h 0.51435 v -1.96215 h -0.51435 q -0.0762,0 -0.12065,-0.006 -0.0381,-0.006 -0.0889,-0.0508 -0.0444,-0.0508 -0.0444,-0.1397 0,-0.1905 0.254,-0.1905 h 0.6985 q 0.15875,0 0.2032,0.0571 0.0508,0.0508 0.0508,0.2032 v 0.2159 q 0.45085,-0.51435 1.0795,-0.51435 0.18415,0 0.31115,0.0444 0.13335,0.0381 0.1905,0.10795 0.0571,0.0635 0.0762,0.127 0.0254,0.0572 0.0254,0.1143 0,0.12065 -0.0825,0.19685 -0.0762,0.0762 -0.18415,0.0762 -0.1143,0 -0.1905,-0.0825 -0.0762,-0.0825 -0.0825,-0.19685 -0.53975,0 -0.84455,0.36195 -0.29845,0.3556 -0.29845,0.84455 v 0.79375 h 0.70485 q 0.26035,0 0.26035,0.19685 0,0.1905 -0.26035,0.1905 h -1.65735 q -0.0762,0 -0.12065,-0.006 -0.0381,-0.006 -0.0889,-0.0508 -0.0444,-0.0508 -0.0444,-0.1397 z m 3.47979,-0.61595 q 0,-0.4445 0.51435,-0.6858 0.5207,-0.24765 1.39065,-0.26035 0,-0.32385 -0.2159,-0.4826 -0.2159,-0.1651 -0.5969,-0.1651 -0.1397,0 -0.2286,0.006 -0.0953,0.006 -0.1143,0.019 -0.0191,0.0127 -0.0191,0.0508 -0.006,0.15875 -0.0952,0.2286 -0.0889,0.0635 -0.18415,0.0635 -0.12065,0 -0.2032,-0.0762 -0.0826,-0.0762 -0.0826,-0.2159 0,-0.46355 0.92075,-0.46355 0.62865,0 0.9398,0.29845 0.3175,0.29845 0.3175,0.6858 v 1.3716 q 0.13335,0.0508 0.381,0.0508 0.254,0 0.254,0.1905 0,0.0953 -0.0508,0.1397 -0.0444,0.0444 -0.1016,0.0508 -0.0508,0.006 -0.1651,0.006 -0.53975,0 -0.6858,-0.2032 -0.3683,0.2413 -0.9271,0.2413 -0.4699,0 -0.762,-0.254 -0.28575,-0.254 -0.28575,-0.5969 z m 0.43815,0 q 0,0.1905 0.18415,0.3302 0.18415,0.13335 0.4699,0.13335 0.33655,0 0.56515,-0.10795 0.1143,-0.0508 0.17145,-0.12065 0.0572,-0.0762 0.0635,-0.127 0.0127,-0.0508 0.0127,-0.14605 v -0.5334 q -0.67945,0.0191 -1.07315,0.1778 -0.3937,0.15875 -0.3937,0.3937 z m 2.62255,0.6223 q 0,-0.19685 0.26035,-0.19685 h 0.2794 v -1.96215 h -0.28575 q -0.254,0 -0.254,-0.1905 0,-0.19685 0.26035,-0.19685 h 0.46355 q 0.1778,0 0.2159,0.0635 0.0381,0.0571 0.0381,0.23495 0.33655,-0.33655 0.83185,-0.33655 0.8255,0 0.8255,0.9144 v 1.4732 h 0.2794 q 0.26035,0 0.26035,0.19685 0,0.1905 -0.254,0.1905 h -0.97155 q -0.26035,0 -0.26035,-0.1905 0,-0.19685 0.26035,-0.19685 h 0.24765 v -1.44145 q 0,-0.29845 -0.0953,-0.42545 -0.0889,-0.13335 -0.3302,-0.13335 -0.2921,0 -0.5461,0.22225 -0.24765,0.22225 -0.24765,0.65405 v 1.12395 h 0.2794 q 0.26035,0 0.26035,0.19685 0,0.1905 -0.254,0.1905 h -1.00965 q -0.254,0 -0.254,-0.1905 z m 3.48615,-1.17475 q 0,-0.5969 0.38735,-1.0033 0.38735,-0.4064 0.9144,-0.4064 0.4191,0 0.74295,0.28575 v -1.0033 h -0.28575 q -0.254,0 -0.254,-0.1905 0,-0.19685 0.26035,-0.19685 h 0.46355 q 0.15875,0 0.2032,0.0571 0.0508,0.0508 0.0508,0.2032 v 3.23215 h 0.28575 q 0.254,0 0.254,0.1905 0,0.19685 -0.26035,0.19685 h -0.46355 q -0.1778,0 -0.2159,-0.0635 -0.0381,-0.0635 -0.0381,-0.254 -0.3429,0.3556 -0.8001,0.3556 -0.508,0 -0.8763,-0.4064 -0.3683,-0.41275 -0.3683,-0.99695 z m 0.43815,0 q 0,0.4191 0.2413,0.71755 0.24765,0.29845 0.59055,0.29845 0.33655,0 0.55245,-0.28575 0.22225,-0.2921 0.22225,-0.5969 v -0.45085 q 0,-0.27305 -0.20955,-0.48895 -0.20955,-0.2159 -0.508,-0.2159 -0.34925,0 -0.6223,0.2921 -0.2667,0.2921 -0.2667,0.73025 z m 3.02895,-0.006 q 0,-0.59055 0.381,-1.0033 0.38735,-0.4191 0.92075,-0.4191 0.5334,0 0.9144,0.4191 0.38735,0.41275 0.38735,1.0033 0,0.59055 -0.38735,1.0033 -0.381,0.4064 -0.9144,0.4064 -0.5334,0 -0.92075,-0.4064 -0.381,-0.4064 -0.381,-1.0033 z m 0.43815,-0.0445 q 0,0.43815 0.254,0.75565 0.254,0.31115 0.6096,0.31115 0.3556,0 0.6096,-0.31115 0.254,-0.3175 0.254,-0.75565 0,-0.42545 -0.26035,-0.70485 -0.254,-0.28575 -0.60325,-0.28575 -0.34925,0 -0.6096,0.28575 -0.254,0.2794 -0.254,0.70485 z m 2.50824,1.22555 q 0,-0.0953 0.0508,-0.1397 0.0508,-0.0444 0.10795,-0.0508 0.0635,-0.006 0.2032,-0.006 v -1.96215 q -0.1397,0 -0.2032,-0.006 -0.0572,-0.006 -0.10795,-0.0508 -0.0508,-0.0445 -0.0508,-0.1397 0,-0.1905 0.26035,-0.1905 h 0.2032 q 0.0762,0 0.1143,0.006 0.0444,0.006 0.0889,0.0508 0.0444,0.0445 0.0508,0.13335 0.24765,-0.2286 0.5842,-0.2286 0.33655,0 0.4826,0.3302 0.12065,-0.17145 0.3048,-0.24765 0.1905,-0.0825 0.36195,-0.0825 0.19685,0 0.32385,0.10795 0.127,0.1016 0.17145,0.2794 0.0444,0.17145 0.0571,0.2667 0.0127,0.0953 0.0127,0.19685 v 1.5367 q 0.1397,0 0.19685,0.006 0.0635,0.006 0.1143,0.0508 0.0508,0.0444 0.0508,0.1397 0,0.1905 -0.26035,0.1905 h -0.508 q -0.26035,0 -0.26035,-0.1905 0,-0.0889 0.0508,-0.13335 0.0572,-0.0508 0.10795,-0.0571 0.0508,-0.006 0.1524,-0.006 v -1.47955 q 0,-0.2921 -0.0572,-0.4064 -0.0572,-0.1143 -0.1778,-0.1143 -0.2159,0 -0.38735,0.23495 -0.17145,0.2286 -0.17145,0.62865 v 1.13665 q 0.1397,0 0.19685,0.006 0.0635,0.006 0.1143,0.0508 0.0508,0.0444 0.0508,0.1397 0,0.1905 -0.26035,0.1905 h -0.508 q -0.26035,0 -0.26035,-0.1905 0,-0.0889 0.0508,-0.13335 0.0572,-0.0508 0.10795,-0.0571 0.0508,-0.006 0.1524,-0.006 v -1.47955 q 0,-0.2921 -0.0572,-0.4064 -0.0572,-0.1143 -0.1778,-0.1143 -0.2159,0 -0.38735,0.23495 -0.17145,0.2286 -0.17145,0.62865 v 1.13665 q 0.1397,0 0.19685,0.006 0.0635,0.006 0.1143,0.0508 0.0508,0.0444 0.0508,0.1397 0,0.1905 -0.26035,0.1905 h -0.5588 q -0.26035,0 -0.26035,-0.1905 z m 4.4577,-1.7526 q 0,-0.4572 0.13335,-0.8763 0.1397,-0.4191 0.3302,-0.6985 0.19685,-0.2794 0.41275,-0.48895 0.2159,-0.20955 0.37465,-0.3048 0.1651,-0.0953 0.2286,-0.0953 0.10795,0 0.1524,0.0635 0.0444,0.0571 0.0444,0.1143 0,0.0444 -0.019,0.0825 -0.019,0.0318 -0.0444,0.0508 -0.0191,0.0127 -0.0826,0.0572 -0.40005,0.27305 -0.6604,0.6604 -0.254,0.38735 -0.3429,0.7366 -0.0889,0.3429 -0.0889,0.6985 0,0.59055 0.26035,1.1557 0.2667,0.5588 0.81915,0.93345 0.0699,0.0508 0.0953,0.0635 0.0254,0.0191 0.0444,0.0508 0.019,0.0381 0.019,0.0826 0,0.0571 -0.0444,0.1143 -0.0445,0.0635 -0.1524,0.0635 -0.127,0 -0.4318,-0.24765 -0.29845,-0.2413 -0.5334,-0.5715 -0.51435,-0.7366 -0.51435,-1.64465 z m 2.794,2.286 q 0,-0.0953 0.14605,-0.1905 0.5842,-0.3937 0.8382,-0.95885 0.254,-0.5715 0.254,-1.13665 0,-0.2032 -0.0381,-0.4191 -0.0318,-0.2159 -0.13335,-0.52705 -0.1016,-0.31115 -0.3556,-0.6223 -0.24765,-0.3175 -0.6096,-0.5588 -0.1016,-0.0635 -0.1016,-0.15875 0,-0.0572 0.0445,-0.1143 0.0508,-0.0635 0.1524,-0.0635 0.127,0 0.42545,0.24765 0.3048,0.2413 0.53975,0.5715 0.51435,0.7366 0.51435,1.64465 0,0.4572 -0.1397,0.8763 -0.13335,0.4191 -0.3302,0.6985 -0.1905,0.2794 -0.4064,0.48895 -0.2159,0.20955 -0.381,0.3048 -0.15875,0.0952 -0.22225,0.0952 -0.1016,0 -0.1524,-0.0635 -0.0445,-0.0572 -0.0445,-0.1143 z"
       id="text30"
       aria-label="random()" />
    <path
       style="font-size:6.35px;font-family:'CMU Serif';-inkscape-font-specification:'CMU Serif';text-align:center;letter-spacing:0px;text-anchor:middle;stroke-width:0.8;stroke-linecap:square;stroke-linejoin:bevel;stroke-miterlimit:3.9;paint-order:markers stroke fill"
       d="m 119.6548,130.15663 q 0,-0.1143 0.006,-0.14605 0.0127,-0.0381 0.0635,-0.0889 l 1.2192,-1.3589 q 0.66675,-0.7493 0.66675,-1.40335 0,-0.42545 -0.22225,-0.73025 -0.22225,-0.3048 -0.62865,-0.3048 -0.2794,0 -0.51435,0.17145 -0.23495,0.17145 -0.3429,0.47625 0.019,-0.006 0.0825,-0.006 0.15875,0 0.24765,0.1016 0.0889,0.0953 0.0889,0.2286 0,0.17145 -0.1143,0.254 -0.10795,0.0825 -0.2159,0.0825 -0.0444,0 -0.1016,-0.006 -0.0572,-0.0127 -0.14605,-0.1016 -0.0889,-0.0889 -0.0889,-0.24765 0,-0.4445 0.33655,-0.79375 0.33655,-0.3556 0.8509,-0.3556 0.5842,0 0.9652,0.34925 0.381,0.3429 0.381,0.88265 0,0.1905 -0.0572,0.36195 -0.0571,0.17145 -0.13335,0.3048 -0.0762,0.13335 -0.2794,0.34925 -0.2032,0.20955 -0.3683,0.36195 -0.1651,0.1524 -0.5334,0.47625 l -0.6731,0.65405 h 1.143 q 0.5588,0 0.60325,-0.0508 0.0635,-0.0889 0.1397,-0.56515 h 0.15875 l -0.1778,1.1049 z m 3.17499,-1.02235 q 0,-0.1905 0.1016,-0.26035 0.1016,-0.0762 0.20955,-0.0762 0.14605,0 0.2286,0.0952 0.0889,0.0889 0.0889,0.2159 0,0.127 -0.0889,0.22225 -0.0825,0.0889 -0.2286,0.0889 -0.0699,0 -0.10795,-0.0127 0.0825,0.2921 0.33655,0.50165 0.26035,0.20955 0.5969,0.20955 0.42545,0 0.67945,-0.41275 0.1524,-0.2667 0.1524,-0.86995 0,-0.5334 -0.1143,-0.8001 -0.1778,-0.4064 -0.53975,-0.4064 -0.51435,0 -0.81915,0.4445 -0.0381,0.0572 -0.0825,0.0572 -0.0635,0 -0.0762,-0.0317 -0.0127,-0.0381 -0.0127,-0.13335 v -1.8796 q 0,-0.1524 0.0635,-0.1524 0.0254,0 0.0762,0.019 0.40005,0.1778 0.84455,0.1778 0.4572,0 0.8636,-0.18415 0.0318,-0.019 0.0508,-0.019 0.0635,0 0.0635,0.0699 0,0.0254 -0.0508,0.1016 -0.0508,0.0699 -0.15875,0.1651 -0.10795,0.0952 -0.24765,0.18415 -0.1397,0.0889 -0.3429,0.1524 -0.2032,0.0572 -0.42545,0.0572 -0.2667,0 -0.53975,-0.0825 v 1.23825 q 0.3302,-0.32385 0.80645,-0.32385 0.508,0 0.85725,0.41275 0.34925,0.4064 0.34925,0.9779 0,0.5969 -0.41275,1.00965 -0.41275,0.4064 -0.97155,0.4064 -0.508,0 -0.83185,-0.36195 -0.3175,-0.36195 -0.3175,-0.8001 z m 3.21309,-1.96215 0.20955,-1.3081 h 0.15875 q 0.019,0.0762 0.0508,0.1143 0.0318,0.0318 0.20955,0.0635 0.18415,0.0254 0.55245,0.0254 h 1.54305 q 0,0.14605 -0.0572,0.22225 l -0.85725,1.2065 q -0.27305,0.381 -0.3937,1.08585 -0.0698,0.4699 -0.0698,1.0414 v 0.32385 q 0,0.34925 -0.2921,0.34925 -0.2921,0 -0.2921,-0.34925 0,-1.21285 0.78105,-2.3876 0.0825,-0.12065 0.38735,-0.55245 0.31115,-0.4318 0.32385,-0.45085 h -1.31445 q -0.57785,0 -0.6223,0.0381 -0.0635,0.0572 -0.15875,0.57785 z m 3.08609,2.12725 q 0,-0.1905 0.10795,-0.2794 0.10795,-0.0889 0.24765,-0.0889 0.14605,0 0.24765,0.0952 0.10795,0.0952 0.10795,0.26035 0,0.1778 -0.127,0.2794 -0.12065,0.0952 -0.2921,0.0699 0.1524,0.254 0.4318,0.3683 0.2794,0.1143 0.53975,0.1143 0.27305,0 0.4953,-0.23495 0.22225,-0.23495 0.22225,-0.8128 0,-0.48895 -0.1905,-0.76835 -0.1905,-0.28575 -0.56515,-0.28575 h -0.2794 q -0.0952,0 -0.127,-0.006 -0.0254,-0.0127 -0.0254,-0.0635 0,-0.0635 0.0952,-0.0762 0.0953,0 0.24765,-0.0191 0.3683,-0.0127 0.56515,-0.3302 0.1778,-0.29845 0.1778,-0.7239 0,-0.38735 -0.18415,-0.5461 -0.18415,-0.1651 -0.42545,-0.1651 -0.22225,0 -0.4699,0.0952 -0.2413,0.0889 -0.37465,0.29845 0.3937,0 0.3937,0.3175 0,0.1397 -0.0889,0.23495 -0.0889,0.0889 -0.23495,0.0889 -0.1397,0 -0.23495,-0.0889 -0.0889,-0.0889 -0.0889,-0.2413 0,-0.36195 0.32385,-0.6096 0.32385,-0.254 0.8001,-0.254 0.4699,0 0.81915,0.24765 0.34925,0.24765 0.34925,0.62865 0,0.37465 -0.24765,0.6858 -0.24765,0.3048 -0.64135,0.4318 0.4826,0.0953 0.76835,0.42545 0.2921,0.32385 0.2921,0.7239 0,0.4953 -0.3937,0.8636 -0.38735,0.36195 -0.95885,0.36195 -0.52705,0 -0.90805,-0.28575 -0.37465,-0.28575 -0.37465,-0.7112 z m 3.17498,-0.1016 q 0,-0.7112 0.9144,-1.1684 -0.3937,-0.2667 -0.46355,-0.3429 -0.2794,-0.31115 -0.2794,-0.6985 0,-0.4445 0.33655,-0.7493 0.33655,-0.31115 0.8128,-0.31115 0.4572,0 0.8001,0.2667 0.3429,0.26035 0.3429,0.67945 0,0.59055 -0.76835,0.98425 0.508,0.3175 0.62865,0.45085 0.31115,0.3429 0.31115,0.78105 0,0.508 -0.3937,0.85725 -0.38735,0.34925 -0.9271,0.34925 -0.52705,0 -0.92075,-0.3048 -0.3937,-0.31115 -0.3937,-0.79375 z m 0.3175,0 q 0,0.3937 0.2921,0.6604 0.29845,0.26035 0.7112,0.26035 0.40005,0 0.6985,-0.2286 0.29845,-0.2286 0.29845,-0.5715 0,-0.13335 -0.0445,-0.24765 -0.0444,-0.1143 -0.13335,-0.2032 -0.0889,-0.0952 -0.14605,-0.13335 -0.0508,-0.0444 -0.1524,-0.1143 l -0.78105,-0.4953 q -0.74295,0.41275 -0.74295,1.07315 z m 0.13335,-2.45745 q 0,0.3048 0.3175,0.51435 l 0.7874,0.508 q 0.62865,-0.3683 0.62865,-0.889 0,-0.33655 -0.26035,-0.5588 -0.254,-0.2286 -0.6096,-0.2286 -0.34925,0 -0.6096,0.18415 -0.254,0.18415 -0.254,0.4699 z"
       id="text31"
       aria-label="25738" />
    <path
       d="M 35.210193,87.142612 V 86.02454 q 0,-0.06149 0,-0.08385 0.0056,-0.02236 0.02236,-0.03913 0.01677,-0.01677 0.05031,-0.01677 0.06149,0 0.06708,0.0559 0.01677,0.553445 0.346602,0.860915 0.324241,0.301879 0.883277,0.301879 0.335422,0 0.542265,-0.240385 0.206844,-0.240385 0.206844,-0.559036 0,-0.301879 -0.173302,-0.514313 -0.07267,-0.09504 -0.16771,-0.15653 -0.08945,-0.06149 -0.14535,-0.07826 -0.0559,-0.02236 -0.16212,-0.05031 -0.693205,-0.16771 -0.737928,-0.184481 -0.329831,-0.111808 -0.531084,-0.391326 -0.201253,-0.285108 -0.201253,-0.63171 0,-0.447229 0.31306,-0.76588 0.318651,-0.31865 0.77706,-0.31865 0.229205,0 0.419277,0.07268 0.195663,0.07267 0.273928,0.139759 0.07827,0.06149 0.201253,0.178891 l 0.195662,-0.31865 q 0.04472,-0.07268 0.08386,-0.07268 0.04472,0 0.05031,0.02795 0.01118,0.02236 0.01118,0.106216 v 1.123663 q 0,0.06149 -0.0056,0.08385 0,0.02236 -0.01677,0.03913 -0.01677,0.01118 -0.05031,0.01118 -0.0559,0 -0.06708,-0.06708 -0.15653,-1.168385 -1.09012,-1.168385 -0.318651,0 -0.531085,0.218024 -0.206843,0.212434 -0.206843,0.514313 0,0.245976 0.15094,0.447229 0.15653,0.201253 0.413686,0.262747 l 0.715567,0.173301 q 0.357783,0.08385 0.598168,0.402506 0.240386,0.31306 0.240386,0.726747 0,0.47518 -0.313061,0.821783 -0.307469,0.341012 -0.78824,0.341012 -0.346603,0 -0.61494,-0.117398 -0.268337,-0.111807 -0.413687,-0.273928 -0.111807,0.184482 -0.184482,0.290699 l -0.01677,0.02795 q -0.04472,0.07267 -0.08385,0.07267 -0.04472,0 -0.0559,-0.02795 -0.0056,-0.02795 -0.0056,-0.106217 z m 2.946111,-1.218699 q 0,-0.525493 0.335421,-0.900047 0.341012,-0.374555 0.827374,-0.374555 0.491951,0 0.743518,0.318651 0.257156,0.31865 0.257156,0.77706 0,0.08385 -0.02236,0.100626 -0.02236,0.01677 -0.117398,0.01677 h -1.55971 q 0,0.570216 0.167711,0.838554 0.234795,0.374554 0.63171,0.374554 0.0559,0 0.117398,-0.01118 0.06708,-0.01118 0.201253,-0.0559 0.134168,-0.05031 0.251566,-0.178891 0.117398,-0.128578 0.184482,-0.329831 0.01677,-0.07826 0.07268,-0.07826 0.07267,0 0.07267,0.06708 0,0.05031 -0.0559,0.16212 -0.05031,0.106217 -0.15094,0.240386 -0.100627,0.128578 -0.296289,0.229205 -0.195663,0.09504 -0.430458,0.09504 -0.491952,0 -0.860915,-0.368964 -0.368964,-0.374554 -0.368964,-0.92241 z m 0.46959,-0.178891 h 1.324915 q 0,-0.117398 -0.02236,-0.245976 -0.01677,-0.134169 -0.07827,-0.31306 -0.0559,-0.184482 -0.195663,-0.296289 -0.134168,-0.117398 -0.335421,-0.117398 -0.08945,0 -0.190073,0.03913 -0.09504,0.03913 -0.212433,0.134168 -0.117398,0.08945 -0.201253,0.30188 -0.07827,0.206843 -0.08945,0.497542 z m 2.01252,0.178891 q 0,-0.525493 0.335422,-0.900047 0.341012,-0.374555 0.827373,-0.374555 0.491952,0 0.743518,0.318651 0.257156,0.31865 0.257156,0.77706 0,0.08385 -0.02236,0.100626 -0.02236,0.01677 -0.117398,0.01677 h -1.55971 q 0,0.570216 0.167711,0.838554 0.234795,0.374554 0.63171,0.374554 0.0559,0 0.117398,-0.01118 0.06708,-0.01118 0.201253,-0.0559 0.134169,-0.05031 0.251566,-0.178891 0.117398,-0.128578 0.184482,-0.329831 0.01677,-0.07826 0.07268,-0.07826 0.07267,0 0.07267,0.06708 0,0.05031 -0.0559,0.16212 -0.05031,0.106217 -0.15094,0.240386 -0.100626,0.128578 -0.296289,0.229205 -0.195663,0.09504 -0.430458,0.09504 -0.491951,0 -0.860915,-0.368964 -0.368964,-0.374554 -0.368964,-0.92241 z m 0.46959,-0.178891 h 1.324916 q 0,-0.117398 -0.02236,-0.245976 -0.01677,-0.134169 -0.07827,-0.31306 -0.0559,-0.184482 -0.195662,-0.296289 -0.134169,-0.117398 -0.335422,-0.117398 -0.08945,0 -0.190072,0.03913 -0.09504,0.03913 -0.212434,0.134168 -0.117398,0.08945 -0.201253,0.30188 -0.07827,0.206843 -0.08945,0.497542 z m 2.046063,0.206843 q 0,-0.531084 0.368964,-0.900048 0.374554,-0.368963 0.877687,-0.368963 0.424867,0 0.704385,0.346602 v -1.207518 q 0,-0.206843 -0.07267,-0.257156 -0.07267,-0.0559 -0.363373,-0.0559 v -0.173301 l 0.805012,-0.06149 v 3.393348 q 0,0.206844 0.07267,0.262747 0.07267,0.05031 0.363374,0.05031 v 0.173301 l -0.821783,0.06149 v -0.368964 q -0.290699,0.368964 -0.749108,0.368964 -0.480771,0 -0.832964,-0.368964 -0.352193,-0.368964 -0.352194,-0.894458 z m 0.464,0.0056 q 0,0.519903 0.162121,0.77706 0.223614,0.357783 0.586987,0.357783 0.413687,0 0.659663,-0.391325 0.06149,-0.09504 0.06149,-0.206844 v -1.146024 q 0,-0.111807 -0.06149,-0.206843 -0.229205,-0.335422 -0.603759,-0.335422 -0.391325,0 -0.631711,0.357784 -0.173301,0.268337 -0.173301,0.793831 z"
       id="path31"
       style="font-weight:500;font-size:5.59036px;font-family:'CMU Serif';-inkscape-font-specification:'CMU Serif Medium';text-align:center;letter-spacing:0px;text-anchor:middle;stroke-width:0.352149;stroke-linecap:square;stroke-linejoin:bevel;stroke-miterlimit:3.9;paint-order:markers stroke fill"
       aria-label="Seed" />
    <path
       style="font-weight:500;font-size:5.69017px;font-family:'CMU Serif';-inkscape-font-specification:'CMU Serif Medium';text-align:center;letter-spacing:0px;text-anchor:middle;fill:#ffffff;stroke-width:0.716872;stroke-linecap:square;stroke-linejoin:bevel;stroke-miterlimit:3.9;paint-order:markers stroke fill"
       d="m 52.002206,85.872505 q 0,-0.170705 0.09673,-0.250367 0.09673,-0.07966 0.221917,-0.07966 0.130873,0 0.221916,0.08535 0.09673,0.08535 0.09673,0.233297 0,0.159325 -0.113803,0.250368 -0.108114,0.08535 -0.261748,0.06259 0.136564,0.227607 0.386931,0.33003 0.250368,0.102423 0.483665,0.102423 0.244677,0 0.443833,-0.210536 0.199156,-0.210536 0.199156,-0.728342 0,-0.438143 -0.170705,-0.68851 -0.170705,-0.256058 -0.506425,-0.256058 h -0.250368 q -0.08535,0 -0.113803,-0.0057 -0.02276,-0.01138 -0.02276,-0.0569 0,-0.0569 0.08535,-0.06828 0.08535,0 0.221916,-0.01707 0.33003,-0.01138 0.506426,-0.295889 0.159324,-0.267438 0.159324,-0.648679 0,-0.347101 -0.165015,-0.489355 -0.165015,-0.147944 -0.381241,-0.147944 -0.199156,0 -0.421073,0.08535 -0.216226,0.07966 -0.33572,0.267438 0.352791,0 0.352791,0.284509 0,0.125183 -0.07966,0.210536 -0.07966,0.07966 -0.210537,0.07966 -0.125183,0 -0.210536,-0.07966 -0.07966,-0.07966 -0.07966,-0.216227 0,-0.324339 0.290198,-0.546256 0.290199,-0.227607 0.716962,-0.227607 0.421072,0 0.734032,0.221917 0.312959,0.221917 0.312959,0.563327 0,0.33572 -0.221917,0.614538 -0.221916,0.273128 -0.574707,0.386932 0.432453,0.08535 0.688511,0.381241 0.261748,0.290199 0.261748,0.648679 0,0.443834 -0.352791,0.773863 -0.3471,0.32434 -0.859216,0.32434 -0.472284,0 -0.813694,-0.256057 -0.33572,-0.256058 -0.33572,-0.6373 z m 2.828004,-1.052681 q 0,-0.836455 0.210536,-1.291668 0.295889,-0.677131 0.990089,-0.677131 0.147945,0 0.301579,0.03983 0.153635,0.03983 0.347101,0.193465 0.199156,0.153635 0.318649,0.404002 0.227607,0.483665 0.227607,1.3315 0,0.830765 -0.210536,1.285978 -0.307269,0.66006 -0.99009,0.66006 -0.256057,0 -0.517805,-0.130874 -0.256058,-0.130874 -0.421073,-0.443833 -0.256057,-0.472284 -0.256057,-1.371331 z m 0.472284,-0.06828 q 0,0.859216 0.06259,1.200626 0.06828,0.369861 0.256058,0.529186 0.193466,0.159324 0.404002,0.159324 0.227607,0 0.415383,-0.170705 0.193465,-0.170705 0.250367,-0.540566 0.06259,-0.364171 0.06259,-1.177865 0,-0.790934 -0.0569,-1.109583 -0.07397,-0.369861 -0.273128,-0.517806 -0.199156,-0.147944 -0.398312,-0.147944 -0.07397,0 -0.153634,0.02276 -0.07966,0.02276 -0.193466,0.08535 -0.113804,0.06259 -0.204846,0.221917 -0.08535,0.159325 -0.125184,0.398312 -0.04552,0.307269 -0.04552,1.046991 z m 2.372789,0.06828 q 0,-0.836455 0.210537,-1.291668 0.295889,-0.677131 0.990089,-0.677131 0.147945,0 0.301579,0.03983 0.153635,0.03983 0.347101,0.193465 0.199156,0.153635 0.318649,0.404002 0.227607,0.483665 0.227607,1.3315 0,0.830765 -0.210536,1.285978 -0.30727,0.66006 -0.99009,0.66006 -0.256058,0 -0.517805,-0.130874 -0.256058,-0.130874 -0.421073,-0.443833 -0.256058,-0.472284 -0.256058,-1.371331 z m 0.472285,-0.06828 q 0,0.859216 0.06259,1.200626 0.06828,0.369861 0.256058,0.529186 0.193466,0.159324 0.404002,0.159324 0.227607,0 0.415383,-0.170705 0.193465,-0.170705 0.250367,-0.540566 0.06259,-0.364171 0.06259,-1.177865 0,-0.790934 -0.0569,-1.109583 -0.07397,-0.369861 -0.273128,-0.517806 -0.199156,-0.147944 -0.398312,-0.147944 -0.07397,0 -0.153634,0.02276 -0.07966,0.02276 -0.193466,0.08535 -0.113804,0.06259 -0.204846,0.221917 -0.08535,0.159325 -0.125184,0.398312 -0.04552,0.307269 -0.04552,1.046991 z m 2.38986,0.09104 q 0,-0.893357 0.455214,-1.439613 0.455213,-0.551947 1.041301,-0.551947 0.34141,0 0.529186,0.176396 0.193465,0.170705 0.193465,0.438143 0,0.147944 -0.08535,0.210536 -0.08535,0.06259 -0.176395,0.06259 -0.102424,0 -0.182086,-0.06828 -0.07966,-0.06828 -0.07966,-0.193466 0,-0.256058 0.312959,-0.256058 -0.147944,-0.227606 -0.500735,-0.227606 -0.108113,0 -0.221916,0.03414 -0.108114,0.02845 -0.256058,0.136564 -0.142254,0.102423 -0.256058,0.273128 -0.108113,0.165015 -0.187775,0.477974 -0.07397,0.312959 -0.07397,0.722652 v 0.136564 q 0.233297,-0.563327 0.711272,-0.563327 0.477974,0 0.808004,0.364171 0.33003,0.364171 0.33003,0.904737 0,0.551946 -0.347101,0.921807 -0.34141,0.364171 -0.825074,0.364171 -0.216227,0 -0.415383,-0.09104 -0.193466,-0.09104 -0.375551,-0.295888 -0.182085,-0.204847 -0.290199,-0.597468 -0.108113,-0.398312 -0.108113,-0.938878 z m 0.523496,0.512115 q 0,0.557637 0.102423,0.825075 0.01707,0.04552 0.05121,0.108113 0.03983,0.0569 0.102423,0.136564 0.06828,0.07966 0.176396,0.130874 0.108113,0.05121 0.233297,0.05121 0.381241,0 0.563326,-0.369861 0.09673,-0.204846 0.09673,-0.762482 0,-0.569017 -0.102423,-0.779554 -0.176395,-0.35279 -0.529186,-0.35279 -0.238987,0 -0.404002,0.165015 -0.165015,0.165015 -0.227606,0.386931 -0.06259,0.216227 -0.06259,0.460904 z m 2.321578,0.426763 q 0,-0.637299 0.819384,-1.046991 -0.35279,-0.238988 -0.415382,-0.30727 -0.250368,-0.278818 -0.250368,-0.625918 0,-0.398312 0.301579,-0.67144 0.301579,-0.278819 0.728342,-0.278819 0.409692,0 0.716962,0.238987 0.307269,0.233297 0.307269,0.608849 0,0.529185 -0.688511,0.881976 0.455214,0.284508 0.563327,0.404002 0.278818,0.307269 0.278818,0.699891 0,0.455213 -0.35279,0.768173 -0.347101,0.312959 -0.830765,0.312959 -0.472284,0 -0.825075,-0.273128 -0.35279,-0.278818 -0.35279,-0.711271 z m 0.284508,0 q 0,0.35279 0.261748,0.591777 0.267438,0.233297 0.637299,0.233297 0.358481,0 0.625919,-0.204846 0.267438,-0.204846 0.267438,-0.512115 0,-0.119494 -0.03983,-0.221917 -0.03983,-0.102423 -0.119494,-0.182085 -0.07966,-0.08535 -0.130874,-0.119494 -0.04552,-0.03983 -0.136564,-0.102423 L 64.33276,84.819824 q -0.66575,0.369861 -0.66575,0.961639 z m 0.119494,-2.202096 q 0,0.273128 0.284508,0.460904 l 0.705581,0.455213 q 0.563327,-0.330029 0.563327,-0.796623 0,-0.301579 -0.233297,-0.500735 -0.227607,-0.204846 -0.546256,-0.204846 -0.312959,0 -0.546256,0.165014 -0.227607,0.165015 -0.227607,0.421073 z"
       id="text32"
       aria-label="30068" />
    <path
       style="font-weight:500;font-size:5.69017px;font-family:'CMU Serif';-inkscape-font-specification:'CMU Serif Medium';text-align:center;letter-spacing:0px;text-anchor:middle;fill:#ffffff;stroke-width:0.716872;stroke-linecap:square;stroke-linejoin:bevel;stroke-miterlimit:3.9;paint-order:markers stroke fill"
       d="m 86.151828,84.842585 q 0,-0.893357 0.455214,-1.439613 0.455213,-0.551947 1.041301,-0.551947 0.34141,0 0.529186,0.176396 0.193465,0.170705 0.193465,0.438143 0,0.147944 -0.08535,0.210536 -0.08535,0.06259 -0.176395,0.06259 -0.102423,0 -0.182086,-0.06828 -0.07966,-0.06828 -0.07966,-0.193466 0,-0.256058 0.312959,-0.256058 -0.147944,-0.227606 -0.500735,-0.227606 -0.108113,0 -0.221916,0.03414 -0.108114,0.02845 -0.256058,0.136564 -0.142254,0.102423 -0.256058,0.273128 -0.108113,0.165015 -0.187775,0.477974 -0.07397,0.312959 -0.07397,0.722652 v 0.136564 q 0.233296,-0.563327 0.711271,-0.563327 0.477974,0 0.808004,0.364171 0.33003,0.364171 0.33003,0.904737 0,0.551946 -0.347101,0.921807 -0.34141,0.364171 -0.825074,0.364171 -0.216227,0 -0.415383,-0.09104 -0.193465,-0.09104 -0.375551,-0.295888 -0.182085,-0.204847 -0.290199,-0.597468 -0.108113,-0.398312 -0.108113,-0.938878 z m 0.523496,0.512115 q 0,0.557637 0.102423,0.825075 0.01707,0.04552 0.05121,0.108113 0.03983,0.0569 0.102423,0.136564 0.06828,0.07966 0.176396,0.130874 0.108113,0.05121 0.233297,0.05121 0.381241,0 0.563327,-0.369861 0.09673,-0.204846 0.09673,-0.762482 0,-0.569017 -0.102423,-0.779554 -0.176395,-0.35279 -0.529185,-0.35279 -0.238988,0 -0.404002,0.165015 -0.165015,0.165015 -0.227607,0.386931 -0.06259,0.216227 -0.06259,0.460904 z m 2.241916,0.3471 v -0.176395 l 1.746882,-2.66869 q 0.04552,-0.06828 0.113803,-0.06828 0.06259,0 0.07397,0.02845 0.01707,0.02276 0.01707,0.119494 v 2.589027 h 0.569017 V 85.7018 h -0.569017 v 0.495045 q 0,0.165015 0.06828,0.216227 0.06828,0.05121 0.364171,0.05121 h 0.119494 v 0.176395 q -0.233297,-0.01707 -0.773864,-0.01707 -0.534876,0 -0.768173,0.01707 v -0.176395 h 0.119494 q 0.295889,0 0.364171,-0.05121 0.06828,-0.05121 0.06828,-0.216227 V 85.7018 Z m 0.159325,-0.176395 h 1.388401 v -2.122433 z m 2.810932,1.115273 q 0,-0.102423 0.0057,-0.130873 0.01138,-0.03414 0.0569,-0.07966 l 1.092513,-1.217696 q 0.597468,-0.67144 0.597468,-1.257528 0,-0.381241 -0.199156,-0.654369 -0.199156,-0.273128 -0.563327,-0.273128 -0.250367,0 -0.460904,0.153634 -0.210536,0.153635 -0.307269,0.426763 0.01707,-0.0057 0.07397,-0.0057 0.142255,0 0.221917,0.09104 0.07966,0.08535 0.07966,0.204847 0,0.153634 -0.102423,0.227606 -0.09673,0.07397 -0.193466,0.07397 -0.03983,0 -0.09104,-0.0057 -0.05121,-0.01138 -0.130874,-0.09104 -0.07966,-0.07966 -0.07966,-0.221917 0,-0.398312 0.301579,-0.711271 0.301579,-0.31865 0.762483,-0.31865 0.523496,0 0.864906,0.31296 0.34141,0.307269 0.34141,0.790933 0,0.170705 -0.05121,0.32434 -0.05121,0.153635 -0.119494,0.273128 -0.06828,0.119494 -0.250367,0.312959 -0.182086,0.187776 -0.33003,0.32434 -0.147945,0.136564 -0.477974,0.426763 l -0.603158,0.586087 h 1.02423 q 0.500735,0 0.540566,-0.04552 0.0569,-0.07966 0.125184,-0.506425 h 0.142254 L 93.99856,86.64066 Z m 2.782483,-1.820854 q 0,-0.836455 0.210536,-1.291668 0.295889,-0.677131 0.99009,-0.677131 0.147944,0 0.301579,0.03983 0.153634,0.03983 0.3471,0.193465 0.199156,0.153635 0.318649,0.404002 0.227607,0.483665 0.227607,1.3315 0,0.830765 -0.210536,1.285978 -0.307269,0.66006 -0.99009,0.66006 -0.256057,0 -0.517805,-0.130874 -0.256058,-0.130874 -0.421073,-0.443833 -0.256057,-0.472284 -0.256057,-1.371331 z m 0.472284,-0.06828 q 0,0.859216 0.06259,1.200626 0.06828,0.369861 0.256057,0.529186 0.193466,0.159324 0.404002,0.159324 0.227607,0 0.415383,-0.170705 0.193466,-0.170705 0.250367,-0.540566 0.06259,-0.364171 0.06259,-1.177865 0,-0.790934 -0.0569,-1.109583 -0.07397,-0.369861 -0.273128,-0.517806 -0.199156,-0.147944 -0.398312,-0.147944 -0.07397,0 -0.153634,0.02276 -0.07966,0.02276 -0.193466,0.08535 -0.113803,0.06259 -0.204846,0.221917 -0.08535,0.159325 -0.125184,0.398312 -0.04552,0.307269 -0.04552,1.046991 z"
       id="text33"
       aria-label="6420" />
    <path
       style="font-weight:500;font-size:5.69017px;font-family:'CMU Serif';-inkscape-font-specification:'CMU Serif Medium';text-align:center;letter-spacing:0px;text-anchor:middle;fill:#ffffff;stroke-width:0.716872;stroke-linecap:square;stroke-linejoin:bevel;stroke-miterlimit:3.9;paint-order:markers stroke fill"
       d="m 119.10434,85.781463 q 0,-0.637299 0.81938,-1.046991 -0.35279,-0.238988 -0.41538,-0.30727 -0.25037,-0.278818 -0.25037,-0.625918 0,-0.398312 0.30158,-0.67144 0.30158,-0.278819 0.72834,-0.278819 0.40969,0 0.71696,0.238987 0.30727,0.233297 0.30727,0.608849 0,0.529185 -0.68851,0.881976 0.45521,0.284508 0.56333,0.404002 0.27882,0.307269 0.27882,0.699891 0,0.455213 -0.35279,0.768173 -0.34711,0.312959 -0.83077,0.312959 -0.47228,0 -0.82507,-0.273128 -0.35279,-0.278818 -0.35279,-0.711271 z m 0.2845,0 q 0,0.35279 0.26175,0.591777 0.26744,0.233297 0.6373,0.233297 0.35848,0 0.62592,-0.204846 0.26744,-0.204846 0.26744,-0.512115 0,-0.119494 -0.0398,-0.221917 -0.0398,-0.102423 -0.1195,-0.182085 -0.0797,-0.08535 -0.13087,-0.119494 -0.0455,-0.03983 -0.13657,-0.102423 l -0.69989,-0.443833 q -0.66575,0.369861 -0.66575,0.961639 z m 0.1195,-2.202096 q 0,0.273128 0.28451,0.460904 l 0.70558,0.455213 q 0.56332,-0.330029 0.56332,-0.796623 0,-0.301579 -0.23329,-0.500735 -0.22761,-0.204846 -0.54626,-0.204846 -0.31296,0 -0.54626,0.165014 -0.2276,0.165015 -0.2276,0.421073 z m 2.44107,0.551947 q 0,-0.301579 0.0854,-0.506426 0.091,-0.210536 0.27882,-0.415382 0.34141,-0.358481 0.83646,-0.358481 0.21053,0 0.39831,0.09104 0.18777,0.08535 0.36417,0.290199 0.18208,0.199156 0.2902,0.597468 0.10811,0.392621 0.10811,0.938878 0,0.881976 -0.42676,1.439613 -0.42677,0.557636 -1.00147,0.557636 -0.36417,0 -0.5804,-0.165015 -0.21054,-0.165015 -0.21054,-0.449523 0,-0.147945 0.0797,-0.210536 0.0854,-0.06259 0.18208,-0.06259 0.10242,0 0.18209,0.06828 0.0797,0.06828 0.0797,0.193465 0,0.102424 -0.0683,0.182086 -0.0626,0.07966 -0.22761,0.07966 0.16502,0.204846 0.55764,0.204846 0.14225,0 0.28451,-0.06259 0.14225,-0.06828 0.29588,-0.227607 0.15364,-0.159325 0.24468,-0.495045 0.0967,-0.33572 0.0967,-0.808004 V 84.8312 q -0.2276,0.569017 -0.71127,0.569017 -0.47797,0 -0.808,-0.36417 -0.33003,-0.369862 -0.33003,-0.904737 z m 0.51211,0.0057 q 0,0.563327 0.10243,0.773863 0.17639,0.35848 0.52918,0.35848 0.3471,0 0.51781,-0.307269 0.17639,-0.312959 0.17639,-0.716961 0,-0.557637 -0.091,-0.802314 -0.1707,-0.449523 -0.54625,-0.449523 -0.37556,0 -0.56902,0.35848 -0.1195,0.210537 -0.1195,0.785244 z m 2.33296,1.735501 q 0,-0.170705 0.0967,-0.250367 0.0967,-0.07966 0.22191,-0.07966 0.13088,0 0.22192,0.08535 0.0967,0.08535 0.0967,0.233297 0,0.159325 -0.1138,0.250368 -0.10811,0.08535 -0.26175,0.06259 0.13657,0.227607 0.38693,0.33003 0.25037,0.102423 0.48367,0.102423 0.24467,0 0.44383,-0.210536 0.19916,-0.210536 0.19916,-0.728342 0,-0.438143 -0.17071,-0.68851 -0.1707,-0.256058 -0.50642,-0.256058 h -0.25037 q -0.0853,0 -0.1138,-0.0057 -0.0228,-0.01138 -0.0228,-0.0569 0,-0.0569 0.0854,-0.06828 0.0854,0 0.22191,-0.01707 0.33003,-0.01138 0.50643,-0.295889 0.15932,-0.267438 0.15932,-0.648679 0,-0.347101 -0.16501,-0.489355 -0.16502,-0.147944 -0.38124,-0.147944 -0.19916,0 -0.42108,0.08535 -0.21622,0.07966 -0.33572,0.267438 0.3528,0 0.3528,0.284509 0,0.125183 -0.0797,0.210536 -0.0797,0.07966 -0.21053,0.07966 -0.12519,0 -0.21054,-0.07966 -0.0797,-0.07966 -0.0797,-0.216227 0,-0.324339 0.2902,-0.546256 0.2902,-0.227607 0.71696,-0.227607 0.42107,0 0.73403,0.221917 0.31296,0.221917 0.31296,0.563327 0,0.33572 -0.22192,0.614538 -0.22191,0.273128 -0.5747,0.386932 0.43245,0.08535 0.68851,0.381241 0.26174,0.290199 0.26174,0.648679 0,0.443834 -0.35279,0.773863 -0.3471,0.32434 -0.85921,0.32434 -0.47229,0 -0.8137,-0.256057 -0.33572,-0.256058 -0.33572,-0.6373 z m 2.84508,0 q 0,-0.170705 0.0967,-0.250367 0.0967,-0.07966 0.22192,-0.07966 0.13087,0 0.22191,0.08535 0.0967,0.08535 0.0967,0.233297 0,0.159325 -0.11381,0.250368 -0.10811,0.08535 -0.26174,0.06259 0.13656,0.227607 0.38693,0.33003 0.25036,0.102423 0.48366,0.102423 0.24468,0 0.44383,-0.210536 0.19916,-0.210536 0.19916,-0.728342 0,-0.438143 -0.1707,-0.68851 -0.17071,-0.256058 -0.50643,-0.256058 h -0.25037 q -0.0854,0 -0.1138,-0.0057 -0.0228,-0.01138 -0.0228,-0.0569 0,-0.0569 0.0854,-0.06828 0.0854,0 0.22192,-0.01707 0.33003,-0.01138 0.50642,-0.295889 0.15933,-0.267438 0.15933,-0.648679 0,-0.347101 -0.16502,-0.489355 -0.16501,-0.147944 -0.38124,-0.147944 -0.19915,0 -0.42107,0.08535 -0.21623,0.07966 -0.33572,0.267438 0.35279,0 0.35279,0.284509 0,0.125183 -0.0797,0.210536 -0.0797,0.07966 -0.21054,0.07966 -0.12518,0 -0.21054,-0.07966 -0.0797,-0.07966 -0.0797,-0.216227 0,-0.324339 0.2902,-0.546256 0.2902,-0.227607 0.71696,-0.227607 0.42107,0 0.73403,0.221917 0.31296,0.221917 0.31296,0.563327 0,0.33572 -0.22191,0.614538 -0.22192,0.273128 -0.57471,0.386932 0.43245,0.08535 0.68851,0.381241 0.26175,0.290199 0.26175,0.648679 0,0.443834 -0.35279,0.773863 -0.3471,0.32434 -0.85922,0.32434 -0.47228,0 -0.81369,-0.256057 -0.33572,-0.256058 -0.33572,-0.6373 z"
       id="text34"
       aria-label="8933" />
  </g>
</svg>
