<?xml version="1.0" encoding="UTF-8" standalone="no"?>
<svg
   width="44.420795"
   height="35.309757"
   version="1.1"
   id="svg1"
   sodipodi:docname="octicon.svg"
   inkscape:version="1.3 (0e150ed, 2023-07-21)"
   xmlns:inkscape="http://www.inkscape.org/namespaces/inkscape"
   xmlns:sodipodi="http://sodipodi.sourceforge.net/DTD/sodipodi-0.dtd"
   xmlns="http://www.w3.org/2000/svg"
   xmlns:svg="http://www.w3.org/2000/svg">
  <defs
     id="defs1" />
  <sodipodi:namedview
     id="namedview1"
     pagecolor="#ffffff"
     bordercolor="#000000"
     borderopacity="0.25"
     inkscape:showpageshadow="2"
     inkscape:pageopacity="0.0"
     inkscape:pagecheckerboard="0"
     inkscape:deskcolor="#d1d1d1"
     inkscape:zoom="4.3559503"
     inkscape:cx="18.250897"
     inkscape:cy="11.937694"
     inkscape:window-width="1312"
     inkscape:window-height="449"
     inkscape:window-x="0"
     inkscape:window-y="38"
     inkscape:window-maximized="0"
     inkscape:current-layer="svg1" />
  <style
     id="style1">&#10;    path { fill: #000; }&#10;    @media (prefers-color-scheme: dark) {&#10;      path { fill: #fff; }&#10;    }&#10;  </style>
  <path
     fill-rule="evenodd"
     d="m 22.210381,0 c -4.42,0 -8,3.58 -8,8 0,3.54 2.29,6.53 5.47,7.59 0.4,0.07 0.55,-0.17 0.55,-0.38 0,-0.19 -0.01,-0.82 -0.01,-1.49 -2.01,0.37 -2.53,-0.49 -2.69,-0.94 -0.09,-0.23 -0.48,-0.94 -0.82,-1.13 -0.28,-0.15 -0.68,-0.52 -0.01,-0.53 0.63,-0.01 1.08,0.58 1.23,0.82 0.72,1.21 1.87,0.87 2.33,0.66 0.07,-0.52 0.28,-0.87 0.51,-1.07 -1.78,-0.2 -3.64,-0.89 -3.64,-3.95 0,-0.87 0.31,-1.59 0.82,-2.15 -0.08,-0.2 -0.36,-1.02 0.08,-2.12 0,0 0.67,-0.21 2.2,0.82 0.64,-0.18 1.32,-0.27 2,-0.27 0.68,0 1.36,0.09 2,0.27 1.53,-1.04 2.2,-0.82 2.2,-0.82 0.44,1.1 0.16,1.92 0.08,2.12 0.51,0.56 0.82,1.27 0.82,2.15 0,3.07 -1.87,3.75 -3.65,3.95 0.29,0.25 0.54,0.73 0.54,1.48 0,1.07 -0.01,1.93 -0.01,2.2 0,0.21 0.15,0.46 0.55,0.38 a 8.013,8.013 0 0 0 5.45,-7.59 c 0,-4.42 -3.58,-8 -8,-8 z"
     id="path1" />
  <path
     d="m 8.7628092,28.585965 v 5.709252 c 0,0.03978 -0.00994,0.109408 -0.059682,0.129307 0,0 -1.2433047,0.885232 -3.2922691,0.885232 C 2.9341967,35.309756 0,34.533935 0,29.42147 c 0,-5.112466 2.5661793,-6.166786 5.0726791,-6.156841 2.1683223,0 3.0436081,0.487375 3.1828578,0.576893 0.039784,0.04973 0.059682,0.08952 0.059682,0.13925 l -0.4177504,1.770465 c 0,0.08952 -0.089524,0.198928 -0.1989293,0.169089 C 7.3404684,25.810918 6.80336,25.592094 5.5401649,25.592094 c -1.4621258,0 -3.0336628,0.41775 -3.0336628,3.710018 0,3.292269 1.4919657,3.680179 2.5661794,3.680179 0.9150723,0 1.2433046,-0.109408 1.2433046,-0.109408 v -2.28768 H 4.8538604 c -0.1094085,0 -0.1889826,-0.07957 -0.1889826,-0.169088 V 28.58597 c 0,-0.08952 0.079567,-0.169088 0.1889826,-0.169088 h 3.7199647 c 0.1094084,0 0.1889827,0.07957 0.1889827,0.169088 z m 35.6579538,2.31752 c 0,3.411624 -1.104054,4.386374 -3.033662,4.386374 -1.631213,0 -2.506499,-0.825554 -2.506499,-0.825554 0,0 -0.03978,0.457537 -0.08952,0.517215 -0.02984,0.05968 -0.07957,0.07957 -0.13925,0.07957 H 37.17976 c -0.09947,0 -0.188981,-0.07957 -0.188981,-0.169089 l 0.01988,-11.050487 c 0,-0.08952 0.07957,-0.16909 0.169089,-0.16909 h 2.11859 c 0.08952,0 0.16909,0.07957 0.16909,0.16909 v 3.749804 c 0,0 0.815606,-0.52716 2.009177,-0.52716 l -0.0099,-0.0199 c 1.193572,0 2.95409,0.447589 2.95409,3.859216 z M 27.531724,23.692322 c 0.08952,0 0.169089,0.07957 0.169089,0.169089 v 11.050484 c 0,0.08952 -0.07957,0.16909 -0.169089,0.16909 h -2.118589 c -0.08952,0 -0.16909,-0.07957 -0.16909,-0.16909 l 0.0199,-4.724553 h -3.292269 v 4.724553 c 0,0.08952 -0.07957,0.16909 -0.169089,0.16909 h -2.11859 c -0.07957,0 -0.169089,-0.07957 -0.169089,-0.16909 V 23.861411 c 0,-0.08952 0.07957,-0.169089 0.169089,-0.169089 h 2.11859 c 0.08952,0 0.169089,0.07957 0.169089,0.169089 v 4.06809 h 3.29227 v -4.06809 c 0,-0.08952 0.07957,-0.169089 0.16909,-0.169089 z m 8.215752,3.620501 c 0.109408,0 0.188982,0.07957 0.188982,0.169088 l -0.01988,7.429984 c 0,0.08952 -0.05968,0.16909 -0.169089,0.16909 h -1.332821 c -0.06962,0 -0.13925,-0.03978 -0.159143,-0.08952 -0.02984,-0.05968 -0.07957,-0.447589 -0.07957,-0.447589 0,0 -1.123947,0.765875 -2.5065,0.765875 -1.680947,0 -2.904359,-0.547054 -2.904359,-2.735268 v -5.082627 c 0,-0.08952 0.07957,-0.169089 0.16909,-0.169089 h 2.128536 c 0.08952,0 0.169089,0.07957 0.169089,0.169089 v 4.724555 c 0,0.745983 0.218821,1.08416 0.964804,1.08416 0.745982,0 1.293036,-0.38791 1.293036,-0.38791 v -5.410858 c 0,-0.109409 0.05968,-0.188982 0.169088,-0.188982 z m -17.312758,5.939013 h 0.005 a 0.17605182,0.17605182 0 0 1 0.140244,0.178041 v 1.491965 c 0,0.06962 -0.02984,0.139249 -0.08952,0.159143 -0.09947,0.04973 -0.736036,0.218821 -1.263197,0.218821 -1.153785,0 -2.844679,-0.248661 -2.844679,-2.67559 v -3.262429 h -1.104015 c -0.08952,0 -0.169089,-0.07957 -0.169089,-0.188982 V 27.82009 c 0,-0.07957 0.04973,-0.149196 0.129307,-0.169089 0.06963,-0.0099 1.153785,-0.2785 1.153785,-0.2785 v -2.158375 c 0,-0.07957 0.04974,-0.129308 0.13925,-0.129308 h 2.148428 c 0.08951,0 0.13925,0.04973 0.13925,0.129308 v 2.098697 h 1.581482 c 0.07957,0 0.159143,0.07957 0.159143,0.169088 v 1.690894 c 0,0.109408 -0.06963,0.188982 -0.159143,0.188982 h -1.581482 v 3.114227 c 0,0.467482 0.268553,0.825555 1.044375,0.825555 0.245677,0 0.478423,-0.04875 0.570925,-0.04973 z m -6.260283,-5.94896 c 0.08952,0 0.169089,0.07957 0.169089,0.169088 v 7.33052 c 0,0.179036 -0.04973,0.268554 -0.248661,0.268554 h -1.909715 c -0.169089,0 -0.298392,-0.06963 -0.298392,-0.268554 v -7.30068 c 0,-0.109408 0.079567,-0.198928 0.169089,-0.198928 z m 29.829346,3.75975 c 0,-1.800303 -0.726089,-2.039018 -1.491965,-1.959446 -0.596786,0.03978 -1.074214,0.338179 -1.074214,0.338179 v 3.501143 c 0,0 0.487375,0.338179 1.213465,0.358071 1.024482,0.02984 1.352714,-0.338178 1.352714,-2.237947 z M 11.130059,23.940983 c 0.745983,0 1.352715,0.606731 1.352715,1.372607 0,0.765875 -0.606732,1.372607 -1.352715,1.372607 -0.765874,0 -1.3726075,-0.606732 -1.3726075,-1.372607 0,-0.765876 0.6067335,-1.372607 1.3726075,-1.372607 z m 7.300681,9.299912 v 10e-4 l 0.0099,0.0099 h -9.97e-4 l -0.005,-0.001 v 0.001 c -0.009,-0.001 -0.01491,-0.01092 -0.02388,-0.01092 z"
     id="path1-7"
     style="stroke-width:0.994645" />
</svg>
