<?xml version="1.0" encoding="UTF-8" standalone="no"?>
<svg
   viewBox="148.83 115 56.39629 37.59742"
   version="1.1"
   id="svg10"
   sodipodi:docname="gitlab.svg"
   width="56.39629"
   height="37.59742"
   inkscape:version="1.3 (0e150ed, 2023-07-21)"
   xmlns:inkscape="http://www.inkscape.org/namespaces/inkscape"
   xmlns:sodipodi="http://sodipodi.sourceforge.net/DTD/sodipodi-0.dtd"
   xmlns="http://www.w3.org/2000/svg"
   xmlns:svg="http://www.w3.org/2000/svg">
  <sodipodi:namedview
     id="namedview10"
     pagecolor="#ffffff"
     bordercolor="#000000"
     borderopacity="0.25"
     inkscape:showpageshadow="2"
     inkscape:pageopacity="0.0"
     inkscape:pagecheckerboard="0"
     inkscape:deskcolor="#d1d1d1"
     inkscape:zoom="2.0476516"
     inkscape:cx="24.418216"
     inkscape:cy="16.604387"
     inkscape:window-width="1312"
     inkscape:window-height="449"
     inkscape:window-x="0"
     inkscape:window-y="38"
     inkscape:window-maximized="0"
     inkscape:current-layer="svg10" />
  <defs
     id="defs1">
    <style
       id="style1">.cls-1{fill:#171321;}.cls-2{fill:#e24329;}.cls-3{fill:#fc6d26;}.cls-4{fill:#fca326;}</style>
  </defs>
  <g
     id="g10"
     transform="matrix(0.11291453,0,0,0.11291453,110.08677,123.53661)">
    <path
       class="cls-1"
       d="m 428.92,171.51 h 22.78 c -3.8,-24.22 -24.77,-41.09 -52.06,-41.09 -32.29,0 -56.52,23.74 -56.52,63.5 0,39.05 23.14,63.27 57.18,63.27 30.55,0 52.42,-19.65 52.42,-51.46 v -14.82 h -50.07 v 17.47 h 28.44 c -0.36,17.6 -12.11,28.74 -30.67,28.74 -20.66,0 -34.82,-15.48 -34.82,-43.44 0,-27.78 14.4,-43.2 34.34,-43.2 14.88,0 25.06,7.95 28.98,21.03 z"
       id="path1" />
    <path
       class="cls-1"
       d="m 467.78,255.5 h 21.81 V 163 h -21.81 z m 11,-107.2 c 6.93,0 12.59,-5.31 12.59,-11.81 0,-6.5 -5.66,-11.87 -12.59,-11.87 -6.93,0 -12.65,5.3 -12.65,11.87 0,6.57 5.62,11.81 12.61,11.81 z"
       id="path2" />
    <path
       class="cls-1"
       d="M 554.9,163 H 536.64 V 140.78 H 514.83 V 163 H 501.7 v 16.87 h 13.13 v 51.46 c -0.12,17.41 12.54,26 28.92,25.49 a 44.29,44.29 0 0 0 12.84,-2.17 l -3.68,-17.06 a 26.57,26.57 0 0 1 -6.38,0.85 c -5.49,0 -9.89,-1.93 -9.89,-10.73 v -47.89 h 18.26 z"
       id="path3" />
    <path
       class="cls-1"
       d="m 571.78,255.5 h 76.7 V 236.76 H 594.14 V 132.1 h -22.36 z"
       id="path4" />
    <path
       class="cls-1"
       d="m 690.26,257.37 c 14.52,0 23.19,-6.81 27.17,-14.58 h 0.72 v 12.71 h 21 v -61.94 c 0,-24.46 -19.94,-31.81 -37.6,-31.81 -19.46,0 -34.4,8.67 -39.22,25.54 l 20.37,2.9 c 2.16,-6.33 8.31,-11.75 19,-11.75 10.13,0 15.67,5.18 15.67,14.28 v 0.36 c 0,6.26 -6.57,6.57 -22.9,8.31 -17.95,1.93 -35.12,7.29 -35.12,28.14 -0.06,18.2 13.25,27.84 30.91,27.84 z m 7.17,-16 c -9.1,0 -15.61,-4.16 -15.61,-12.17 0,-8.38 7.29,-11.87 17,-13.26 5.73,-0.78 17.18,-2.23 20,-4.51 v 10.9 c 0.06,10.27 -8.26,19.01 -21.39,19.01 z"
       id="path5" />
    <path
       class="cls-1"
       d="m 755.21,255.5 h 21.45 v -14.58 h 1.26 c 3.44,6.75 10.61,16.21 26.52,16.21 21.81,0 38.14,-17.3 38.14,-47.78 0,-30.85 -16.81,-47.6 -38.2,-47.6 -16.33,0 -23.14,9.82 -26.46,16.51 H 777 V 132.1 h -21.79 z m 21.39,-46.27 c 0,-18 7.71,-29.59 21.75,-29.59 14.52,0 22,12.35 22,29.59 0,17.24 -7.59,30 -22,30 -13.92,0 -21.75,-12.05 -21.75,-30 z"
       id="path6" />
  </g>
  <path
     class="cls-2"
     d="m 185.52921,121.70412 -0.0237,-0.0632 -2.39379,-6.24418 a 0.62102993,0.62102993 0 0 0 -0.24615,-0.29696 0.63232139,0.63232139 0 0 0 -0.94962,0.36133 l -1.6158,4.94678 h -6.5434 l -1.61581,-4.94678 a 0.63345054,0.63345054 0 0 0 -0.94961,-0.36133 0.62102993,0.62102993 0 0 0 -0.24616,0.29696 l -2.39265,6.24531 -0.0249,0.0621 a 4.444316,4.444316 0 0 0 1.47467,5.13648 l 0.009,0.007 0.0203,0.0158 3.6415,2.72915 1.80663,1.36513 1.09753,0.82992 a 0.74184851,0.74184851 0 0 0 0.89428,0 l 1.09753,-0.82992 1.80663,-1.36513 3.66747,-2.74496 0.0102,-0.008 a 4.444316,4.444316 0 0 0 1.47579,-5.13536 z"
     id="path7"
     style="stroke-width:0.112914" />
  <path
     class="cls-3"
     d="m 185.52921,121.70412 -0.0237,-0.0632 a 8.0733889,8.0733889 0 0 0 -3.21807,1.44756 l -5.25617,3.9746 3.34679,2.52928 3.66746,-2.74496 0.0102,-0.008 a 4.444316,4.444316 0 0 0 1.47354,-5.13535 z"
     id="path8"
     style="stroke-width:0.112914" />
  <path
     class="cls-4"
     d="m 173.67319,129.59233 1.80663,1.36513 1.09753,0.82993 a 0.74184851,0.74184851 0 0 0 0.89428,0 l 1.09753,-0.82993 1.80663,-1.36513 -3.34678,-2.52928 z"
     id="path9"
     style="stroke-width:0.112914" />
  <path
     class="cls-3"
     d="m 171.76944,123.08845 a 8.066614,8.066614 0 0 0 -3.21693,-1.44643 l -0.0248,0.0621 a 4.444316,4.444316 0 0 0 1.47466,5.13648 l 0.009,0.007 0.0203,0.0158 3.64149,2.72914 3.34904,-2.52929 z"
     id="path10"
     style="stroke-width:0.112914" />
</svg>
