<?xml version="1.0" encoding="UTF-8" standalone="no"?>
<!-- Created with Inkscape (http://www.inkscape.org/) -->

<svg
   width="284.40424mm"
   height="211.58516mm"
   viewBox="0 0 284.40424 211.58516"
   version="1.1"
   id="svg4542"
   inkscape:version="1.2.1 (9c6d41e, 2022-07-14)"
   sodipodi:docname="interoperable.svg"
   xmlns:inkscape="http://www.inkscape.org/namespaces/inkscape"
   xmlns:sodipodi="http://sodipodi.sourceforge.net/DTD/sodipodi-0.dtd"
   xmlns="http://www.w3.org/2000/svg"
   xmlns:svg="http://www.w3.org/2000/svg">
  <sodipodi:namedview
     id="namedview4544"
     pagecolor="#ffffff"
     bordercolor="#000000"
     borderopacity="0.25"
     inkscape:showpageshadow="2"
     inkscape:pageopacity="0.0"
     inkscape:pagecheckerboard="0"
     inkscape:deskcolor="#d1d1d1"
     inkscape:document-units="mm"
     showgrid="false"
     inkscape:zoom="0.2102413"
     inkscape:cx="-1055.9295"
     inkscape:cy="-66.590151"
     inkscape:window-width="1309"
     inkscape:window-height="456"
     inkscape:window-x="0"
     inkscape:window-y="38"
     inkscape:window-maximized="0"
     inkscape:current-layer="layer1" />
  <defs
     id="defs4539" />
  <g
     inkscape:label="Layer 1"
     inkscape:groupmode="layer"
     id="layer1"
     transform="translate(-234.08178,-166.03793)">
    <path
       id="rect2626"
       style="fill:#000000;stroke:none;stroke-width:0;stroke-linecap:round;stroke-linejoin:round;stroke-dasharray:none;stroke-dashoffset:4.7622;paint-order:markers fill stroke"
       d="m 450.46744,227.92766 -6.44715,14.01619 -10.72906,2.71199 -12.33362,-9.26765 -17.39067,12.95683 5.35162,14.4694 -5.66839,9.50484 -15.27453,2.16732 -3.1352,21.45966 14.01568,6.44716 2.71198,10.72906 -9.26765,12.33361 12.95683,17.39068 14.4694,-5.35162 9.50485,5.66839 2.16782,15.27452 21.45916,3.13521 6.44715,-14.01568 10.72855,-2.71301 12.33412,9.26816 17.39068,-12.95683 -5.35214,-14.46992 5.66891,-9.50433 15.27504,-2.16731 3.1352,-21.45915 -14.0162,-6.44716 -2.71249,-10.72906 9.26817,-12.33413 -12.95683,-17.39067 -14.46992,5.35214 -9.50433,-5.66839 -2.16782,-15.27504 z m 1.81746,36.63239 a 30.591269,30.591269 0 0 1 30.59141,30.59142 30.591269,30.591269 0 0 1 -30.59141,30.5914 30.591269,30.591269 0 0 1 -30.5909,-30.59141 30.591269,30.591269 0 0 1 30.5909,-30.59141 z" />
    <path
       id="path2789"
       style="fill:#000000;stroke:none;stroke-width:0;stroke-linecap:round;stroke-linejoin:round;stroke-dasharray:none;stroke-dashoffset:4.7622;paint-order:markers fill stroke"
       d="m 318.23361,258.6667 -3.26003,13.54484 -9.03068,4.27924 -12.54756,-6.05307 -13.14037,14.5205 7.27195,11.8826 -3.35919,9.41197 -13.15286,4.59175 0.97603,19.55983 13.5444,3.26012 4.27923,9.03069 -6.05306,12.54757 14.5205,13.14035 11.8826,-7.27194 9.41196,3.35918 4.5922,13.15276 19.55939,-0.97594 3.26013,-13.54439 9.03003,-4.28005 12.54812,6.05342 13.14036,-14.52048 -7.27251,-11.88297 3.35975,-9.4116 13.1533,-4.59184 -0.97593,-19.55938 -13.54485,-3.26004 -4.2797,-9.03059 6.05344,-12.54811 -14.5205,-13.14037 -11.88297,7.27251 -9.41149,-3.35929 -4.59231,-13.15321 z m 8.01756,32.13531 a 27.624448,27.624448 0 0 1 32.45222,21.75058 27.624448,27.624448 0 0 1 -21.75061,32.45222 27.624448,27.624448 0 0 1 -32.45176,-21.75068 27.624448,27.624448 0 0 1 21.75015,-32.45212 z" />
    <path
       id="path2791"
       style="fill:#000000;stroke:none;stroke-width:0;stroke-linecap:round;stroke-linejoin:round;stroke-dasharray:none;stroke-dashoffset:4.7622;paint-order:markers fill stroke"
       d="m 294.92498,166.03793 -7.21562,9.45281 -8.5272,0.22797 -7.71108,-9.0528 -15.26731,6.80816 1.58162,11.786 -5.86813,6.19138 -11.85384,-0.94924 -5.98164,15.61025 9.45244,7.21555 0.22796,8.5272 -9.05279,7.7111 6.80816,15.26728 11.786,-1.58161 6.19137,5.86812 -0.94885,11.85392 15.60987,5.98156 7.21556,-9.45244 8.52696,-0.22882 7.7114,9.05326 15.26729,-6.80814 -1.58193,-11.78648 5.86844,-6.1909 11.85422,0.94932 5.98156,-15.60987 -9.45282,-7.21564 -0.22836,-8.52727 9.05327,-7.71139 -6.80815,-15.2673 -11.78649,1.58193 -6.19097,-5.86805 0.94893,-11.85431 z m -4.81884,27.85786 a 23.580241,23.580241 0 0 1 17.84195,28.17322 23.580241,23.580241 0 0 1 -28.17326,17.84193 23.580241,23.580241 0 0 1 -17.84155,-28.17313 23.580241,23.580241 0 0 1 28.17286,-17.84202 z" />
  </g>
</svg>
