<?xml version="1.0" encoding="UTF-8" standalone="no"?>
<!-- Created with Inkscape (http://www.inkscape.org/) -->

<svg
   width="31.368231mm"
   height="40.493469mm"
   viewBox="0 0 31.368231 40.493469"
   version="1.1"
   id="svg1"
   inkscape:version="1.3 (0e150ed, 2023-07-21)"
   sodipodi:docname="datafile.svg"
   xmlns:inkscape="http://www.inkscape.org/namespaces/inkscape"
   xmlns:sodipodi="http://sodipodi.sourceforge.net/DTD/sodipodi-0.dtd"
   xmlns:xlink="http://www.w3.org/1999/xlink"
   xmlns="http://www.w3.org/2000/svg"
   xmlns:svg="http://www.w3.org/2000/svg">
  <sodipodi:namedview
     id="namedview1"
     pagecolor="#ffffff"
     bordercolor="#000000"
     borderopacity="0.25"
     inkscape:showpageshadow="2"
     inkscape:pageopacity="0.0"
     inkscape:pagecheckerboard="0"
     inkscape:deskcolor="#d1d1d1"
     inkscape:document-units="mm"
     inkscape:zoom="0.2102413"
     inkscape:cx="214.03977"
     inkscape:cy="57.077272"
     inkscape:window-width="1312"
     inkscape:window-height="449"
     inkscape:window-x="0"
     inkscape:window-y="25"
     inkscape:window-maximized="0"
     inkscape:current-layer="layer1" />
  <defs
     id="defs1">
    <linearGradient
       id="linearGradient3005"
       x1="-666.12"
       x2="-553.27002"
       y1="413.04001"
       y2="525.90997"
       gradientTransform="matrix(0.99884,0,0,0.9987,689.01,-388.84)"
       gradientUnits="userSpaceOnUse"
       xlink:href="#linearGradient8385" />
    <linearGradient
       id="linearGradient8385">
      <stop
         offset="0"
         id="stop1" />
      <stop
         stop-color="#fff"
         offset="1"
         id="stop2" />
    </linearGradient>
    <linearGradient
       id="linearGradient3002"
       x1="-553.27002"
       x2="-666.12"
       y1="525.90997"
       y2="413.04999"
       gradientTransform="matrix(0.99884,0,0,0.9987,689.01,-388.84)"
       gradientUnits="userSpaceOnUse"
       xlink:href="#linearGradient8385" />
  </defs>
  <g
     inkscape:label="Layer 1"
     inkscape:groupmode="layer"
     id="layer1"
     transform="translate(-47.36042,-133.35)">
    <path
       style="fill:none;stroke:#1a1a1a;stroke-width:1.29196;stroke-linecap:round;stroke-linejoin:miter;stroke-dasharray:none;paint-order:markers stroke fill"
       d="m 54.00443,133.99598 -5.99803,5.9987 v 33.20281 h 30.07627 v -39.20151 z"
       id="path10"
       sodipodi:nodetypes="cccccc" />
    <path
       id="path11"
       style="fill:none;stroke:#1a1a1a;stroke-width:1.29196;stroke-linecap:round;stroke-linejoin:bevel;paint-order:markers stroke fill"
       d="m 53.9635,134.03911 v 5.99846 h -5.99845 z"
       sodipodi:nodetypes="cccc" />
    <g
       id="g15487"
       transform="matrix(0.10204451,0,0,0.10204451,44.68041,158.24199)">
      <path
         id="path14796"
         style="fill:#0d61a1;fill-opacity:1;stroke:none;stroke-width:1;stroke-linecap:round;stroke-linejoin:round;stroke-dashoffset:4.7622;paint-order:markers fill stroke"
         d="m 208.50572,58.843 h 34.62011 l -1.21285,8.69353 H 208.50572 Z M 78.414949,47.50209 V 78.92033 H 138.4578 V 58.51021 h 15.52773 v 0.17415 c 11.2364,0.55721 20.4622,9.07901 21.90771,20.23597 h 100.48379 c -4.47287,-5.73188 -13.57379,-8.47095 -22.74022,-7.7928 -0.67311,0.0498 -1.31959,0.28443 -1.97938,0.42664 l 1.97938,-13.37521 h 25.81548 V 47.50209 H 196.29406 V 67.5665 H 185.4265 V 67.24042 C 179.56145,55.47705 166.98493,47.6609 152.8347,47.66022 l -0.20103,-0.15813 H 126.42649 V 67.63317 H 90.391479 V 47.50209 Z" />
      <path
         style="fill:#627e3f;fill-opacity:1;stroke:none;stroke-width:1;stroke-linecap:round;stroke-linejoin:round;stroke-dashoffset:4.7622;paint-order:markers fill stroke"
         d="m 239.16844,102.38406 -2.64703,10.02111 c 3.59237,1.83592 11.2497,3.63757 17.64635,3.69325 5.65868,0.0493 12.67495,-1.43229 18.34152,-5.62103 6.67961,-4.93757 11.34918,-13.50218 7.75091,-25.7972 h -15.90757 c 3.23607,2.86023 4.23172,6.31267 4.17097,9.44404 -0.17561,9.05117 -12.2527,16.1557 -29.35515,8.25983 z"
         id="path14806"
         sodipodi:nodetypes="ccssccsc" />
      <path
         style="fill:#627e3f;fill-opacity:1;stroke:none;stroke-width:1;stroke-linecap:round;stroke-linejoin:round;stroke-dashoffset:4.7622;paint-order:markers fill stroke"
         d="m 78.414949,84.68019 v 31.41823 h 11.97653 V 95.96735 h 36.035011 v 20.13107 h 26.20718 l 0.20103,-0.15813 c 14.15026,-6.8e-4 26.72674,-7.81678 32.5918,-19.5802 v -0.32607 h 10.86756 v 20.0644 h 12.21166 V 84.68019 h -32.61248 a 23.252092,23.252092 0 0 1 -21.90771,20.23597 v 0.17415 H 138.4578 V 84.68019 Z"
         id="path14789" />
    </g>
    <g
       clip-rule="evenodd"
       fill-rule="evenodd"
       id="g5"
       transform="matrix(0.15715805,0,0,0.15715805,53.38959,138.75965)">&#10;<path
   d="m 114,11.3 c 0.252,-2.18 0.422,-4.9 1.28,-6.77 0.645,1.94 0.862,4.45 2.19,5.91 1.72,-0.405 3.63,-0.307 5.4,0.074 -1.06,1.4 -3.37,2.35 -4.75,3.25 1.66,1.4 2.47,3.03 3.38,4.97 -2.41,-0.046 -4.61,-2.14 -6.47,-3.27 -1.6,1.81 -2.73,3.57 -5.08,4.22 0.847,-1.81 2.83,-3.37 3.08,-5.25 -1.88,-0.701 -4.21,-2.2 -5.43,-3.72 1.94,0.116 4.46,0.364 6.4,0.591"
   fill="#af0084"
   id="path1-3" />
&#10;<path
   d="m 116,25.1 c 0.184,-1.58 0.308,-3.56 0.928,-4.92 0.469,1.41 0.627,3.23 1.59,4.29 1.24,-0.294 2.64,-0.224 3.92,0.053 -0.771,1.01 -2.44,1.71 -3.44,2.36 1.21,1.01 1.8,2.2 2.45,3.61 -1.75,-0.034 -3.35,-1.56 -4.7,-2.37 -1.16,1.31 -1.98,2.59 -3.69,3.06 0.615,-1.31 2.06,-2.45 2.23,-3.81 -1.36,-0.508 -3.05,-1.6 -3.94,-2.7 1.4,0.087 3.24,0.267 4.64,0.43"
   fill="#98c000"
   id="path2-3" />
&#10;<path
   d="m 110,36 c 0.126,-1.1 0.212,-2.46 0.641,-3.4 0.323,0.974 0.433,2.23 1.1,2.96 0.86,-0.203 1.82,-0.154 2.71,0.038 -0.534,0.699 -1.69,1.18 -2.38,1.63 0.834,0.701 1.24,1.52 1.69,2.49 -1.21,-0.021 -2.31,-1.07 -3.25,-1.64 -0.805,0.907 -1.37,1.79 -2.55,2.12 0.425,-0.906 1.42,-1.69 1.54,-2.63 -0.94,-0.352 -2.11,-1.1 -2.72,-1.87 0.971,0.06 2.24,0.184 3.21,0.298"
   fill="#f08400"
   id="path3-9" />
&#10;<path
   d="m 20.3,35.3 c -0.999,0 -12.3,11 -13.4,12.3 -0.918,1.02 -1.42,2.9 -3,3.11 -1.68,0.226 -2.06,-0.427 -2.87,-1.69 -0.765,-1.2 -1.69,-3.33 -0.353,-4.2 1.29,-0.829 17.3,-15.5 17.8,-16.1 0.622,-0.631 -0.062,-2.2 -0.359,-4.57 -0.382,-3.04 -0.576,-5.83 -0.342,-8.84 0.239,-3.09 0.979,-6.9 1.78,-9.9 0.493,-1.83 0.208,-5.45 2.76,-5.56 0.521,0.123 4.45,2.84 3.39,6.42 -1.53,5.13 -3,10.9 -2.55,16.4 0.087,1.06 0.514,1.98 1.19,1.49 7.25,-5.18 18.6,-10.8 21.5,-11.8 1.4,-0.446 2.83,-0.794 4.28,-0.976 1.04,0.123 1.83,1.1 2.65,1.79 4.11,3.52 -3.87,16 -4.55,19.8 0.639,0 1.33,-0.968 2.55,-2.07 1.3,-1.18 3.32,-3.04 4.81,-4.48 2.28,-1.71 4.27,-3.28 7.16,-3.65 6.95,-0.882 4.87,9.12 3.3,12.7 0.897,0 3.09,-2.52 4.84,-4.18 0.883,-0.837 1.86,-1.72 2.75,-2.54 1.06,-0.974 1.55,-1.48 2.35,-1.09 0.536,0.154 2.86,1.56 2.99,3.71 0.109,1.74 -0.605,3.45 -0.955,5.12 -0.291,1.4 -0.219,5.95 1.67,5.96 0.745,-0.538 1.72,-0.769 2.61,-0.917 1.43,-0.242 1.36,0.222 2.54,0.662 1.85,0.687 0.181,3.31 -0.792,4.28 -1.31,1.3 -3.18,2.16 -5.05,2.13 -2.06,-0.035 -3.68,-1.3 -4.61,-3.08 -0.507,-0.977 -1.16,-4.58 -1.41,-5.65 -0.252,-1.05 -0.033,-2.31 -1.15,-1.24 -3.15,3.03 -6.4,5.85 -9.6,8.84 -3.53,3.29 -6.9,-1.23 -6.26,-4.92 0.631,-3.61 3.75,-8.02 4.31,-11.6 -1.49,0 -4,2.6 -4.95,3.67 -1.54,1.74 -3.25,3.67 -4.99,5.5 -1.75,1.84 -3.25,3.53 -5.01,5.36 -1.27,1.32 -2.72,3.2 -4.86,3.32 -1.05,-0.166 -2.73,-1.92 -3.02,-4.15 -0.236,-1.86 0.235,-3.91 0.948,-5.62 2.06,-4.95 7.71,-15.4 9.03,-20.6 -2.71,0.261 -14.2,5.57 -21.8,11.9 -2.2,1.81 -0.169,5.13 0.751,7.34 0.985,2.36 3.89,6.63 4.76,7.36 2.28,1.89 0.459,3.56 -1.8,3.44 -0.959,-0.679 -2.12,-1.41 -3.02,-2.31 -0.978,-0.976 -1.82,-2.09 -2.59,-3.23 -1.56,-2.31 -3.05,-4.98 -3.45,-7.78"
   fill="#005fad"
   id="path4" />
&#10;<path
   d="m 102,5.68 c -0.646,-2.39 -3.64,1.26 -5.14,3.19 -4.15,5.34 -7.93,16.2 -8.54,18.2 -1.86,6.14 -2.58,13.7 1.44,19.1 2.34,3.15 6.46,3.39 10.5,2.23 2.08,-0.599 4.17,-2.09 4.88,-3.72 0.588,-1.35 0.893,-3.87 -2.08,-1.95 -1.15,0.744 -3.26,1.56 -7.04,1.5 -1.27,-0.021 -3.35,-1.84 -3.91,-3.72 -0.984,-3.06 -0.565,-7.15 -0.565,-7.15 0.86,-5.28 3.31,-11 5.46,-15.8 0.835,-1.85 3.38,-6.47 4.33,-7.94 0,0.001 1.22,-1.92 0.674,-3.96 z"
   fill="#005fad"
   id="path5" />
&#10;</g>
    <g
       fill-rule="evenodd"
       id="g3"
       transform="matrix(0.06249995,0,0,0.06249995,58.04454,149.91271)">
      <path
         d="m 79.865,119.1 c 35.398,48.255 70.04,-13.469 69.989,-50.587 C 149.7938,24.627 105.313,0.099 79.836,0.099 38.944,0.099 0,33.895 0,80.135 0,131.531 44.64,160 79.836,160 71.8715,158.8532 45.33,153.166 44.973,92.033 44.73313,50.686 58.461,34.167 79.778,41.434 c 0.47743,0.17707 23.514,9.2645 23.514,38.951 0,29.56 -23.427,38.715 -23.427,38.715 z"
         color="#000000"
         fill="url(#linearGradient3005)"
         id="path2-0"
         style="fill:url(#linearGradient3005)" />
      <path
         d="M 79.823,41.401 C 56.433,33.3391 27.78,52.617 27.78,91.23 27.78,154.278 74.501,160 80.164,160 121.056,160 160,126.204 160,79.964 160,28.568 115.36,0.099 80.164,0.099 c 9.7481,-1.35 52.541,10.55 52.541,69.037 0,38.141 -31.953,58.905 -52.735,50.033 -0.47743,-0.17707 -23.514,-9.2645 -23.514,-38.951 0,-29.56 23.367,-38.818 23.367,-38.818 z"
         color="#000000"
         fill="url(#linearGradient3002)"
         id="path3-4"
         style="fill:url(#linearGradient3002)" />
    </g>
  </g>
</svg>
