<?xml version="1.0" encoding="UTF-8" standalone="no"?>
<!-- Created with Inkscape (http://www.inkscape.org/) -->

<svg
   width="44.676193mm"
   height="59.66312mm"
   viewBox="0 0 44.676193 59.66312"
   version="1.1"
   id="svg60857"
   inkscape:version="1.3 (0e150ed, 2023-07-21)"
   sodipodi:docname="no-standards-compact.svg"
   xmlns:inkscape="http://www.inkscape.org/namespaces/inkscape"
   xmlns:sodipodi="http://sodipodi.sourceforge.net/DTD/sodipodi-0.dtd"
   xmlns:xlink="http://www.w3.org/1999/xlink"
   xmlns="http://www.w3.org/2000/svg"
   xmlns:svg="http://www.w3.org/2000/svg">
  <sodipodi:namedview
     id="namedview60859"
     pagecolor="#ffffff"
     bordercolor="#000000"
     borderopacity="0.25"
     inkscape:showpageshadow="2"
     inkscape:pageopacity="0.0"
     inkscape:pagecheckerboard="0"
     inkscape:deskcolor="#d1d1d1"
     inkscape:document-units="mm"
     showgrid="false"
     inkscape:zoom="0.90946148"
     inkscape:cx="22.540812"
     inkscape:cy="65.973108"
     inkscape:window-width="1920"
     inkscape:window-height="1027"
     inkscape:window-x="0"
     inkscape:window-y="25"
     inkscape:window-maximized="1"
     inkscape:current-layer="layer1" />
  <defs
     id="defs60854">
    <radialGradient
       cx="63.333199"
       cy="107.454"
       r="4"
       fx="63.333199"
       fy="107.454"
       gradientUnits="userSpaceOnUse"
       xlink:href="#linearGradient431"
       id="radialGradient5703"
       gradientTransform="matrix(2.58134,0,0,2.35812,-99.8469,-146.69)" />
    <linearGradient
       id="linearGradient431">
      <stop
         offset="0"
         stop-color="#FFFFFF"
         stop-opacity="1"
         id="stop16867" />
      <stop
         offset="1"
         stop-color="#0D0D88"
         stop-opacity="1"
         id="stop16869" />
    </linearGradient>
  </defs>
  <g
     inkscape:label="Layer 1"
     inkscape:groupmode="layer"
     id="layer1"
     transform="translate(-82.142212,-47.886368)">
    <g
       id="text1"
       style="font-weight:500;font-size:7.75236px;line-height:1;font-family:'CMU Serif';-inkscape-font-specification:'CMU Serif Medium';text-align:center;letter-spacing:0px;text-anchor:middle;stroke-width:0.488337;stroke-linecap:square;stroke-linejoin:bevel;stroke-miterlimit:3.9;paint-order:markers stroke fill"
       aria-label="Metadata&#10;Standard">
      <path
         d="m 88.40584,57.206524 v -0.240323 q 0.279085,0 0.45739,-0.05427 0.178304,-0.05427 0.240323,-0.155047 0.06977,-0.108533 0.08528,-0.178304 0.0155,-0.06977 0.0155,-0.186057 v -3.87618 q 0,-0.224818 -0.10078,-0.294589 -0.09303,-0.06977 -0.511656,-0.06977 H 88.40584 v -0.240323 h 1.310149 q 0.139543,0 0.178304,0.02326 0.03876,0.02326 0.09303,0.147295 l 1.682262,4.341322 1.697767,-4.364579 q 0.03876,-0.108533 0.06977,-0.124038 0.03876,-0.02326 0.186057,-0.02326 h 1.310148 v 0.240323 h -0.186056 q -0.418628,0 -0.519408,0.06977 -0.09303,0.06977 -0.09303,0.294589 v 4.085494 q 0,0.224818 0.09303,0.29459 0.10078,0.06977 0.519408,0.06977 h 0.186056 v 0.240323 q -0.286837,-0.02326 -1.108587,-0.02326 -0.829503,0 -1.11634,0.02326 v -0.240323 h 0.186057 q 0.418627,0 0.511655,-0.06977 0.100781,-0.06977 0.100781,-0.29459 v -4.449855 h -0.0078 l -1.907081,4.907244 q -0.05427,0.147295 -0.139542,0.147295 -0.09303,0 -0.155047,-0.170552 l -1.868319,-4.821968 h -0.0078 v 4.178522 q 0,0.116286 0.01551,0.186057 0.01551,0.06977 0.07752,0.178304 0.06977,0.100781 0.248075,0.155047 0.178305,0.05427 0.45739,0.05427 v 0.240323 q -0.813998,-0.02326 -0.907027,-0.02326 -0.09303,0 -0.907026,0.02326 z m 7.031379,-1.705519 q 0,-0.728722 0.465141,-1.24813 0.472894,-0.519408 1.147349,-0.519408 0.682208,0 1.031064,0.441884 0.356609,0.441885 0.356609,1.077578 0,0.116286 -0.03101,0.139543 -0.03101,0.02326 -0.162799,0.02326 h -2.162908 q 0,0.79074 0.23257,1.162854 0.325599,0.519408 0.876017,0.519408 0.07752,0 0.1628,-0.0155 0.09303,-0.01551 0.279084,-0.07752 0.186057,-0.06977 0.348857,-0.248076 0.162799,-0.178304 0.255828,-0.457389 0.02326,-0.108533 0.10078,-0.108533 0.100781,0 0.100781,0.09303 0,0.06977 -0.07752,0.224819 -0.06977,0.147294 -0.209313,0.333351 -0.139543,0.178304 -0.410875,0.317847 -0.271333,0.13179 -0.596932,0.13179 -0.682208,0 -1.193864,-0.511656 -0.511655,-0.519408 -0.511655,-1.279139 z m 0.651198,-0.248076 h 1.837309 q 0,-0.162799 -0.03101,-0.341104 -0.02326,-0.186056 -0.108533,-0.434132 -0.07752,-0.255828 -0.271333,-0.410875 -0.186057,-0.162799 -0.465142,-0.162799 -0.124037,0 -0.26358,0.05427 -0.13179,0.05427 -0.294589,0.186057 -0.1628,0.124038 -0.279085,0.418627 -0.108533,0.286837 -0.124038,0.68996 z m 2.721065,-1.147349 v -0.170552 q 0.356609,-0.01551 0.589179,-0.26358 0.240324,-0.255828 0.317847,-0.565922 0.08528,-0.310095 0.09303,-0.666703 h 0.193812 v 1.426434 h 1.10858 v 0.240323 h -1.10858 v 2.155156 q 0,0.837255 0.5194,0.837255 0.22482,0 0.37212,-0.224819 0.14729,-0.23257 0.14729,-0.643445 v -0.42638 h 0.19381 v 0.441884 q 0,0.418628 -0.19381,0.736474 -0.19381,0.310095 -0.57367,0.310095 -0.13955,0 -0.27909,-0.03876 -0.13954,-0.03101 -0.317844,-0.124038 -0.178304,-0.09303 -0.294589,-0.317846 -0.108533,-0.232571 -0.108533,-0.565923 V 54.10558 Z m 3.186208,2.36447 q 0,-0.658951 0.77524,-1.007807 0.46514,-0.224819 1.42643,-0.279085 v -0.286837 q 0,-0.480647 -0.25583,-0.736475 -0.24807,-0.255827 -0.56592,-0.255827 -0.56592,0 -0.83725,0.356608 0.23257,0.0078 0.31009,0.124038 0.0853,0.116285 0.0853,0.232571 0,0.155047 -0.10078,0.255828 -0.093,0.10078 -0.25583,0.10078 -0.15505,0 -0.25583,-0.09303 -0.10078,-0.100781 -0.10078,-0.271333 0,-0.379865 0.3411,-0.627941 0.34111,-0.248075 0.82951,-0.248075 0.63569,0 1.06207,0.426379 0.13179,0.131791 0.19381,0.302343 0.0698,0.170551 0.0775,0.286837 0.008,0.108533 0.008,0.325599 v 1.550472 q 0,0.04651 0.0155,0.124038 0.0155,0.06977 0.0853,0.170552 0.0698,0.09303 0.18605,0.09303 0.27909,0 0.27909,-0.496151 v -0.434132 h 0.19381 v 0.434132 q 0,0.410875 -0.21707,0.573674 -0.21707,0.1628 -0.41863,0.1628 -0.25583,0 -0.41863,-0.186057 -0.16279,-0.193809 -0.18605,-0.449636 -0.11629,0.294589 -0.38762,0.488398 -0.26358,0.186057 -0.62794,0.186057 -0.27909,0 -0.54267,-0.06977 -0.26358,-0.06977 -0.48064,-0.263581 -0.21707,-0.193809 -0.21707,-0.488398 z m 0.59693,-0.0078 q 0,0.286838 0.20156,0.472894 0.20932,0.186057 0.49616,0.186057 0.32559,0 0.61243,-0.248076 0.29459,-0.255827 0.29459,-0.751978 v -0.775236 q -0.86051,0.03101 -1.23262,0.372113 -0.37212,0.341104 -0.37212,0.744226 z m 3.21722,-0.92253 q 0,-0.736475 0.51165,-1.24813 0.51941,-0.511656 1.21712,-0.511656 0.58918,0 0.9768,0.480646 v -1.67451 q 0,-0.286837 -0.10078,-0.356608 -0.10078,-0.07752 -0.5039,-0.07752 v -0.240323 l 1.11634,-0.08528 v 4.705683 q 0,0.286837 0.10078,0.364361 0.10078,0.06977 0.5039,0.06977 v 0.240323 l -1.1396,0.08528 V 56.7801 q -0.40312,0.511656 -1.03881,0.511656 -0.66671,0 -1.1551,-0.511656 -0.4884,-0.511656 -0.4884,-1.240377 z m 0.64344,0.0078 q 0,0.720969 0.22482,1.077578 0.3101,0.496151 0.814,0.496151 0.57367,0 0.91478,-0.542665 0.0853,-0.13179 0.0853,-0.286838 v -1.589233 q 0,-0.155048 -0.0853,-0.286838 -0.31785,-0.465141 -0.83726,-0.465141 -0.54266,0 -0.87601,0.496151 -0.24033,0.372113 -0.24033,1.100835 z m 3.72112,0.922531 q 0,-0.658951 0.77524,-1.007807 0.46514,-0.224819 1.42643,-0.279085 v -0.286837 q 0,-0.480647 -0.25582,-0.736475 -0.24808,-0.255827 -0.56593,-0.255827 -0.56592,0 -0.83725,0.356608 0.23257,0.0078 0.31009,0.124038 0.0853,0.116285 0.0853,0.232571 0,0.155047 -0.10078,0.255828 -0.093,0.10078 -0.25583,0.10078 -0.15505,0 -0.25583,-0.09303 -0.10078,-0.100781 -0.10078,-0.271333 0,-0.379865 0.34111,-0.627941 0.3411,-0.248075 0.8295,-0.248075 0.63569,0 1.06207,0.426379 0.13179,0.131791 0.19381,0.302343 0.0698,0.170551 0.0775,0.286837 0.008,0.108533 0.008,0.325599 v 1.550472 q 0,0.04651 0.0155,0.124038 0.0155,0.06977 0.0853,0.170552 0.0698,0.09303 0.18605,0.09303 0.27909,0 0.27909,-0.496151 v -0.434132 h 0.19381 v 0.434132 q 0,0.410875 -0.21707,0.573674 -0.21706,0.1628 -0.41863,0.1628 -0.25582,0 -0.41862,-0.186057 -0.1628,-0.193809 -0.18606,-0.449636 -0.11629,0.294589 -0.38762,0.488398 -0.26358,0.186057 -0.62794,0.186057 -0.27908,0 -0.54266,-0.06977 -0.26358,-0.06977 -0.48065,-0.263581 -0.21707,-0.193809 -0.21707,-0.488398 z m 0.59694,-0.0078 q 0,0.286838 0.20156,0.472894 0.20931,0.186057 0.49615,0.186057 0.3256,0 0.61243,-0.248076 0.29459,-0.255827 0.29459,-0.751978 v -0.775236 q -0.86051,0.03101 -1.23262,0.372113 -0.37211,0.341104 -0.37211,0.744226 z m 3.10092,-2.356717 v -0.170552 q 0.35661,-0.01551 0.58918,-0.26358 0.24033,-0.255828 0.31785,-0.565922 0.0853,-0.310095 0.093,-0.666703 h 0.19381 v 1.426434 h 1.10859 v 0.240323 h -1.10859 v 2.155156 q 0,0.837255 0.51941,0.837255 0.22481,0 0.37211,-0.224819 0.14729,-0.23257 0.14729,-0.643445 v -0.42638 h 0.19381 v 0.441884 q 0,0.418628 -0.19381,0.736474 -0.1938,0.310095 -0.57367,0.310095 -0.13954,0 -0.27909,-0.03876 -0.13954,-0.03101 -0.31784,-0.124038 -0.17831,-0.09303 -0.29459,-0.317846 -0.10853,-0.232571 -0.10853,-0.565923 V 54.10558 Z m 3.18621,2.36447 q 0,-0.658951 0.77524,-1.007807 0.46514,-0.224819 1.42643,-0.279085 v -0.286837 q 0,-0.480647 -0.25582,-0.736475 -0.24808,-0.255827 -0.56593,-0.255827 -0.56592,0 -0.83725,0.356608 0.23257,0.0078 0.31009,0.124038 0.0853,0.116285 0.0853,0.232571 0,0.155047 -0.10078,0.255828 -0.093,0.10078 -0.25583,0.10078 -0.15505,0 -0.25583,-0.09303 -0.10078,-0.100781 -0.10078,-0.271333 0,-0.379865 0.34111,-0.627941 0.3411,-0.248075 0.8295,-0.248075 0.63569,0 1.06207,0.426379 0.13179,0.131791 0.19381,0.302343 0.0698,0.170551 0.0775,0.286837 0.008,0.108533 0.008,0.325599 v 1.550472 q 0,0.04651 0.0155,0.124038 0.0155,0.06977 0.0853,0.170552 0.0698,0.09303 0.18605,0.09303 0.27909,0 0.27909,-0.496151 v -0.434132 h 0.19381 v 0.434132 q 0,0.410875 -0.21707,0.573674 -0.21707,0.1628 -0.41863,0.1628 -0.25582,0 -0.41862,-0.186057 -0.1628,-0.193809 -0.18606,-0.449636 -0.11629,0.294589 -0.38762,0.488398 -0.26358,0.186057 -0.62794,0.186057 -0.27908,0 -0.54266,-0.06977 -0.26359,-0.06977 -0.48065,-0.263581 -0.21707,-0.193809 -0.21707,-0.488398 z m 0.59693,-0.0078 q 0,0.286838 0.20157,0.472894 0.20931,0.186057 0.49615,0.186057 0.3256,0 0.61243,-0.248076 0.29459,-0.255827 0.29459,-0.751978 v -0.775236 q -0.86051,0.03101 -1.23262,0.372113 -0.37212,0.341104 -0.37212,0.744226 z"
         id="path3" />
      <path
         d="m 89.29736,64.943379 v -1.550472 q 0,-0.08528 0,-0.116285 0.0078,-0.03101 0.03101,-0.05427 0.02326,-0.02326 0.06977,-0.02326 0.08528,0 0.09303,0.07752 0.02326,0.767483 0.480646,1.193863 0.449637,0.418628 1.224873,0.418628 0.465141,0 0.751979,-0.333352 0.286837,-0.333351 0.286837,-0.775236 0,-0.418627 -0.240323,-0.713217 -0.100781,-0.13179 -0.232571,-0.217066 -0.124038,-0.08528 -0.201561,-0.108533 -0.07752,-0.03101 -0.224819,-0.06977 -0.961292,-0.232571 -1.023311,-0.255828 -0.45739,-0.155047 -0.736475,-0.542665 -0.279084,-0.395371 -0.279084,-0.876017 0,-0.620189 0.434132,-1.062073 0.441884,-0.441885 1.077578,-0.441885 0.317846,0 0.581427,0.100781 0.271332,0.10078 0.379865,0.193809 0.108533,0.08528 0.279085,0.248075 l 0.271333,-0.441884 q 0.06202,-0.100781 0.116285,-0.100781 0.06202,0 0.06977,0.03876 0.0155,0.03101 0.0155,0.147295 v 1.558224 q 0,0.08528 -0.0078,0.116285 0,0.03101 -0.02326,0.05427 -0.02326,0.01551 -0.06977,0.01551 -0.07752,0 -0.09303,-0.09303 -0.217066,-1.620243 -1.51171,-1.620243 -0.441884,0 -0.736474,0.302342 -0.286837,0.29459 -0.286837,0.713217 0,0.341104 0.209313,0.620189 0.217066,0.279085 0.573675,0.364361 l 0.992302,0.240323 q 0.496151,0.116286 0.829502,0.55817 0.333352,0.434132 0.333352,1.007807 0,0.65895 -0.434132,1.139597 -0.42638,0.472894 -1.093083,0.472894 -0.480646,0 -0.85276,-0.1628 -0.372113,-0.155047 -0.573674,-0.379866 -0.155047,0.255828 -0.255828,0.403123 l -0.02326,0.03876 q -0.06202,0.100781 -0.116286,0.100781 -0.06202,0 -0.07752,-0.03876 -0.0078,-0.03876 -0.0078,-0.147295 z m 4.01571,-3.085439 v -0.170552 q 0.356608,-0.0155 0.589179,-0.26358 0.240323,-0.255828 0.317847,-0.565923 0.08528,-0.310094 0.09303,-0.666703 h 0.193809 v 1.426435 h 1.108588 v 0.240323 h -1.108588 v 2.155156 q 0,0.837255 0.519408,0.837255 0.224819,0 0.372113,-0.224819 0.147295,-0.232571 0.147295,-0.643446 v -0.426379 h 0.193809 v 0.441884 q 0,0.418628 -0.193809,0.736474 -0.193809,0.310095 -0.573674,0.310095 -0.139543,0 -0.279085,-0.03876 -0.139543,-0.03101 -0.317847,-0.124038 -0.178304,-0.09303 -0.29459,-0.317847 -0.108533,-0.23257 -0.108533,-0.565922 V 61.85794 Z m 3.186208,2.36447 q 0,-0.658951 0.775236,-1.007807 0.465142,-0.224819 1.426435,-0.279085 v -0.286837 q 0,-0.480647 -0.255828,-0.736475 -0.248076,-0.255828 -0.565922,-0.255828 -0.565923,0 -0.837255,0.356609 0.23257,0.0078 0.310094,0.124038 0.08528,0.116285 0.08528,0.232571 0,0.155047 -0.100781,0.255827 -0.09303,0.100781 -0.255828,0.100781 -0.155047,0 -0.255827,-0.09303 -0.100781,-0.100781 -0.100781,-0.271333 0,-0.379865 0.341104,-0.627941 0.341104,-0.248075 0.829502,-0.248075 0.635694,0 1.062074,0.426379 0.13179,0.13179 0.193809,0.302342 0.06977,0.170552 0.07752,0.286838 0.0078,0.108533 0.0078,0.325599 v 1.550472 q 0,0.04651 0.0155,0.124038 0.0155,0.06977 0.08528,0.170551 0.06977,0.09303 0.186057,0.09303 0.279085,0 0.279085,-0.496151 v -0.434132 h 0.193809 v 0.434132 q 0,0.410875 -0.217066,0.573674 -0.217066,0.1628 -0.418628,0.1628 -0.255828,0 -0.418627,-0.186057 -0.1628,-0.193809 -0.186057,-0.449637 -0.116285,0.29459 -0.387618,0.488399 -0.26358,0.186057 -0.627941,0.186057 -0.279085,0 -0.542665,-0.06977 -0.26358,-0.06977 -0.480646,-0.26358 Q 96.499326,64.517 96.499326,64.222411 Z m 0.596932,-0.0078 q 0,0.286838 0.201562,0.472894 0.209313,0.186057 0.496151,0.186057 0.325599,0 0.612436,-0.248076 0.29459,-0.255828 0.29459,-0.751979 V 63.09827 q -0.860512,0.03101 -1.232626,0.372114 -0.372113,0.341104 -0.372113,0.744226 z m 3.20171,0.744227 v -0.240323 q 0.41087,0 0.5039,-0.04651 0.10078,-0.05427 0.10078,-0.302342 V 62.29203 q 0,-0.286837 -0.10078,-0.356609 -0.10078,-0.07752 -0.5039,-0.07752 v -0.240323 l 1.09308,-0.08528 v 0.813997 q 0.36436,-0.813997 1.14735,-0.813997 0.58143,0 0.814,0.286837 0.17055,0.193809 0.20156,0.410875 0.0388,0.217066 0.0388,0.775236 v 1.480701 q 0.008,0.162799 0.13179,0.201561 0.12404,0.03101 0.4729,0.03101 v 0.240323 q -0.79074,-0.02326 -0.86827,-0.02326 -0.062,0 -0.87601,0.02326 v -0.240323 q 0.41087,0 0.5039,-0.04651 0.10078,-0.05427 0.10078,-0.302342 v -1.806299 q 0,-0.395371 -0.12404,-0.627942 -0.11628,-0.23257 -0.44963,-0.23257 -0.40313,0 -0.72873,0.341103 -0.31784,0.333352 -0.31784,0.899274 v 1.426434 q 0,0.248076 0.093,0.302342 0.10078,0.04651 0.51165,0.04651 v 0.240323 q -0.79074,-0.02326 -0.86826,-0.02326 -0.062,0 -0.87602,0.02326 z m 4.31805,-1.666758 q 0,-0.736474 0.51166,-1.24813 0.51941,-0.511655 1.21712,-0.511655 0.58918,0 0.9768,0.480646 v -1.67451 q 0,-0.286837 -0.10079,-0.356608 -0.10078,-0.07752 -0.5039,-0.07752 v -0.240323 l 1.11634,-0.08528 v 4.705682 q 0,0.286838 0.10078,0.364361 0.10078,0.06977 0.50391,0.06977 v 0.240323 l -1.1396,0.08528 v -0.511656 q -0.40312,0.511656 -1.03882,0.511656 -0.6667,0 -1.1551,-0.511656 -0.4884,-0.511656 -0.4884,-1.240378 z m 0.64345,0.0078 q 0,0.720969 0.22482,1.077578 0.31009,0.496151 0.81399,0.496151 0.57368,0 0.91478,-0.542665 0.0853,-0.131791 0.0853,-0.286838 v -1.589233 q 0,-0.155048 -0.0853,-0.286838 -0.31784,-0.465141 -0.83725,-0.465141 -0.54267,0 -0.87602,0.496151 -0.24032,0.372113 -0.24032,1.100835 z m 3.72112,0.922531 q 0,-0.658951 0.77523,-1.007807 0.46515,-0.224819 1.42644,-0.279085 v -0.286837 q 0,-0.480647 -0.25583,-0.736475 -0.24807,-0.255828 -0.56592,-0.255828 -0.56592,0 -0.83726,0.356609 0.23257,0.0078 0.3101,0.124038 0.0853,0.116285 0.0853,0.232571 0,0.155047 -0.10078,0.255827 -0.093,0.100781 -0.25582,0.100781 -0.15505,0 -0.25583,-0.09303 -0.10078,-0.100781 -0.10078,-0.271333 0,-0.379865 0.3411,-0.627941 0.3411,-0.248075 0.8295,-0.248075 0.6357,0 1.06208,0.426379 0.13179,0.13179 0.19381,0.302342 0.0698,0.170552 0.0775,0.286838 0.008,0.108533 0.008,0.325599 v 1.550472 q 0,0.04651 0.0155,0.124038 0.0155,0.06977 0.0853,0.170551 0.0698,0.09303 0.18606,0.09303 0.27908,0 0.27908,-0.496151 v -0.434132 h 0.19381 v 0.434132 q 0,0.410875 -0.21706,0.573674 -0.21707,0.1628 -0.41863,0.1628 -0.25583,0 -0.41863,-0.186057 -0.1628,-0.193809 -0.18605,-0.449637 -0.11629,0.29459 -0.38762,0.488399 -0.26358,0.186057 -0.62794,0.186057 -0.27909,0 -0.54267,-0.06977 -0.26358,-0.06977 -0.48065,-0.26358 -0.21706,-0.193809 -0.21706,-0.488398 z m 0.59693,-0.0078 q 0,0.286838 0.20156,0.472894 0.20932,0.186057 0.49615,0.186057 0.3256,0 0.61244,-0.248076 0.29459,-0.255828 0.29459,-0.751979 V 63.09827 q -0.86051,0.03101 -1.23263,0.372114 -0.37211,0.341104 -0.37211,0.744226 z m 3.1707,0.744227 v -0.240323 q 0.41088,0 0.5039,-0.04651 0.10078,-0.05427 0.10078,-0.302342 V 62.29203 q 0,-0.286837 -0.10078,-0.356609 -0.10078,-0.07752 -0.5039,-0.07752 v -0.240323 l 1.07758,-0.08528 V 62.3851 q 0.10853,-0.333351 0.3411,-0.589179 0.23257,-0.26358 0.61244,-0.26358 0.24807,0 0.41087,0.139542 0.1628,0.139543 0.1628,0.333352 0,0.170552 -0.10853,0.255828 -0.10078,0.08528 -0.22482,0.08528 -0.13954,0 -0.24032,-0.08528 -0.093,-0.09303 -0.093,-0.248076 0,-0.09303 0.0388,-0.1628 0.0465,-0.07752 0.0775,-0.10078 0.0388,-0.03101 0.062,-0.03876 -0.0155,-0.0078 -0.0853,-0.0078 -0.42638,0 -0.67446,0.426379 -0.24032,0.42638 -0.24032,1.031064 v 1.19391 q 0,0.224818 0.093,0.294589 0.093,0.06977 0.49615,0.06977 h 0.1628 v 0.240323 q -0.3101,-0.02326 -0.98455,-0.02326 -0.093,0 -0.24032,0.0078 -0.1473,0 -0.34111,0.0078 -0.19381,0.0078 -0.30234,0.0078 z m 3.07768,-1.666758 q 0,-0.736474 0.51165,-1.24813 0.51941,-0.511655 1.21713,-0.511655 0.58917,0 0.97679,0.480646 v -1.67451 q 0,-0.286837 -0.10078,-0.356608 -0.10078,-0.07752 -0.5039,-0.07752 v -0.240323 l 1.11634,-0.08528 v 4.705682 q 0,0.286838 0.10078,0.364361 0.10078,0.06977 0.5039,0.06977 v 0.240323 l -1.13959,0.08528 v -0.511656 q -0.40313,0.511656 -1.03882,0.511656 -0.6667,0 -1.1551,-0.511656 -0.4884,-0.511656 -0.4884,-1.240378 z m 0.64344,0.0078 q 0,0.720969 0.22482,1.077578 0.3101,0.496151 0.814,0.496151 0.57368,0 0.91478,-0.542665 0.0853,-0.131791 0.0853,-0.286838 v -1.589233 q 0,-0.155048 -0.0853,-0.286838 -0.31785,-0.465141 -0.83726,-0.465141 -0.54266,0 -0.87601,0.496151 -0.24033,0.372113 -0.24033,1.100835 z"
         id="path4" />
    </g>
    <rect
       style="fill:none;stroke:#000000;stroke-width:1;stroke-linecap:round;stroke-miterlimit:3.9;stroke-dasharray:none;stroke-dashoffset:4.7622;paint-order:markers fill stroke"
       id="rect62575"
       width="43.676193"
       height="58.66312"
       x="82.642212"
       y="48.386368" />
    <text
       xml:space="preserve"
       style="font-style:normal;font-variant:normal;font-weight:normal;font-stretch:normal;font-size:3.52778px;font-family:Futura;-inkscape-font-specification:Futura;text-align:end;text-anchor:end;fill:#4d4d4d;stroke:none;stroke-width:1.5;stroke-linecap:round;stroke-miterlimit:3.9;stroke-dashoffset:4.7622;paint-order:markers fill stroke"
       x="88.509048"
       y="70.863258"
       id="text62579"><tspan
         sodipodi:role="line"
         id="tspan62577"
         style="font-style:normal;font-variant:normal;font-weight:normal;font-stretch:normal;font-size:3.52778px;font-family:Futura;-inkscape-font-specification:Futura;fill:#4d4d4d;stroke:none;stroke-width:1.5"
         x="88.509048"
         y="70.863258">1.</tspan></text>
    <text
       xml:space="preserve"
       style="font-style:normal;font-variant:normal;font-weight:normal;font-stretch:normal;font-size:3.52778px;font-family:Futura;-inkscape-font-specification:Futura;text-align:end;text-anchor:end;fill:#4d4d4d;stroke:none;stroke-width:1.5;stroke-linecap:round;stroke-miterlimit:3.9;stroke-dashoffset:4.7622;paint-order:markers fill stroke"
       x="88.509048"
       y="84.453285"
       id="text62685"><tspan
         sodipodi:role="line"
         id="tspan62683"
         style="font-style:normal;font-variant:normal;font-weight:normal;font-stretch:normal;font-size:3.52778px;font-family:Futura;-inkscape-font-specification:Futura;fill:#4d4d4d;stroke:none;stroke-width:1.5"
         x="88.509048"
         y="84.453285">2.</tspan></text>
    <text
       xml:space="preserve"
       style="font-style:normal;font-variant:normal;font-weight:normal;font-stretch:normal;font-size:3.52778px;font-family:Futura;-inkscape-font-specification:Futura;text-align:end;text-anchor:end;fill:#4d4d4d;stroke:none;stroke-width:1.5;stroke-linecap:round;stroke-miterlimit:3.9;stroke-dashoffset:4.7622;paint-order:markers fill stroke"
       x="88.509048"
       y="98.18795"
       id="text62689"><tspan
         sodipodi:role="line"
         id="tspan62687"
         style="font-style:normal;font-variant:normal;font-weight:normal;font-stretch:normal;font-size:3.52778px;font-family:Futura;-inkscape-font-specification:Futura;fill:#4d4d4d;stroke:none;stroke-width:1.5"
         x="88.509048"
         y="98.18795">3.</tspan></text>
    <path
       style="fill:#4d4d4d;stroke:#4d4d4d;stroke-width:0.3;stroke-linecap:round;stroke-miterlimit:3.9;stroke-dasharray:none;stroke-dashoffset:4.7622;stroke-opacity:1;paint-order:markers fill stroke"
       d="M 90.738578,70.604521 H 122.01589"
       id="path62754" />
    <path
       style="fill:#4d4d4d;stroke:#4d4d4d;stroke-width:0.3;stroke-linecap:round;stroke-miterlimit:3.9;stroke-dasharray:none;stroke-dashoffset:4.7622;stroke-opacity:1;paint-order:markers fill stroke"
       d="M 90.738578,73.986391 H 122.01589"
       id="path63886" />
    <path
       style="fill:#4d4d4d;stroke:#4d4d4d;stroke-width:0.3;stroke-linecap:round;stroke-miterlimit:3.9;stroke-dasharray:none;stroke-dashoffset:4.7622;stroke-opacity:1;paint-order:markers fill stroke"
       d="M 90.738578,77.368261 H 122.01589"
       id="path63888" />
    <path
       style="fill:#4d4d4d;stroke:#4d4d4d;stroke-width:0.3;stroke-linecap:round;stroke-miterlimit:3.9;stroke-dasharray:none;stroke-dashoffset:4.7622;stroke-opacity:1;paint-order:markers fill stroke"
       d="M 90.738578,80.750131 H 122.01589"
       id="path63890" />
    <path
       style="fill:#4d4d4d;stroke:#4d4d4d;stroke-width:0.3;stroke-linecap:round;stroke-miterlimit:3.9;stroke-dasharray:none;stroke-dashoffset:4.7622;stroke-opacity:1;paint-order:markers fill stroke"
       d="M 90.738578,84.132001 H 122.01589"
       id="path63892" />
    <path
       style="fill:#4d4d4d;stroke:#4d4d4d;stroke-width:0.3;stroke-linecap:round;stroke-miterlimit:3.9;stroke-dasharray:none;stroke-dashoffset:4.7622;stroke-opacity:1;paint-order:markers fill stroke"
       d="M 90.738578,87.513871 H 122.01589"
       id="path63894" />
    <path
       style="fill:#4d4d4d;stroke:#4d4d4d;stroke-width:0.3;stroke-linecap:round;stroke-miterlimit:3.9;stroke-dasharray:none;stroke-dashoffset:4.7622;stroke-opacity:1;paint-order:markers fill stroke"
       d="M 90.738578,90.89574 H 122.01589"
       id="path63896" />
    <path
       style="fill:#4d4d4d;stroke:#4d4d4d;stroke-width:0.3;stroke-linecap:round;stroke-miterlimit:3.9;stroke-dasharray:none;stroke-dashoffset:4.7622;stroke-opacity:1;paint-order:markers fill stroke"
       d="M 90.738578,94.27761 H 110.40481"
       id="path63898"
       sodipodi:nodetypes="cc" />
    <path
       style="fill:#4d4d4d;stroke:#4d4d4d;stroke-width:0.3;stroke-linecap:round;stroke-miterlimit:3.9;stroke-dasharray:none;stroke-dashoffset:4.7622;stroke-opacity:1;paint-order:markers fill stroke"
       d="M 90.738578,97.65948 H 110.40481"
       id="path63900"
       sodipodi:nodetypes="cc" />
    <path
       style="fill:#4d4d4d;stroke:#4d4d4d;stroke-width:0.3;stroke-linecap:round;stroke-miterlimit:3.9;stroke-dasharray:none;stroke-dashoffset:4.7622;stroke-opacity:1;paint-order:markers fill stroke"
       d="M 90.738578,101.04135 H 110.40481"
       id="path63902"
       sodipodi:nodetypes="cc" />
    <path
       style="fill:#4d4d4d;stroke:#4d4d4d;stroke-width:0.3;stroke-linecap:round;stroke-miterlimit:3.9;stroke-dasharray:none;stroke-dashoffset:4.7622;stroke-opacity:1;paint-order:markers fill stroke"
       d="M 90.738578,104.42322 H 110.40481"
       id="path63904"
       sodipodi:nodetypes="cc" />
    <path
       sodipodi:type="star"
       style="fill:#800000;stroke:none;stroke-width:0.3;stroke-linecap:round;stroke-miterlimit:3.9;stroke-dasharray:none;stroke-dashoffset:4.7622;stroke-opacity:1;paint-order:markers fill stroke"
       id="path63958"
       inkscape:flatsided="false"
       sodipodi:sides="16"
       sodipodi:cx="123.51528"
       sodipodi:cy="104.1496"
       sodipodi:r1="19.603275"
       sodipodi:r2="16.649822"
       sodipodi:arg1="0.6314535"
       sodipodi:arg2="0.82039114"
       inkscape:rounded="0"
       inkscape:randomized="0"
       d="m 139.33846,115.72178 -4.46908,0.60571 -1.16386,4.56868 -4.3607,-1.15064 -2.82362,3.77551 -3.58843,-2.73181 -4.05352,2.40756 -2.26985,-3.8971 -4.6663,0.67309 -0.60571,-4.46908 -4.56868,-1.16387 1.15064,-4.36069 -3.77551,-2.82363 2.73181,-3.58842 -2.40756,-4.053522 3.89709,-2.269848 -0.67308,-4.666301 4.46908,-0.605712 1.16387,-4.568678 4.36069,1.150639 2.82363,-3.775516 3.58842,2.731816 4.05352,-2.407566 2.26985,3.897098 4.6663,-0.673085 0.60571,4.469083 4.56868,1.163866 -1.15064,4.36069 3.77552,2.823626 -2.73182,3.58843 2.40757,4.05352 -3.8971,2.26984 z"
       inkscape:transform-center-x="1.4177505e-06"
       transform="matrix(0.31801742,0,0,0.31801742,79.055738,66.186004)" />
    <path
       sodipodi:type="star"
       style="fill:none;stroke:#ffd800;stroke-width:0.793096;stroke-linecap:round;stroke-miterlimit:3.9;stroke-dasharray:none;stroke-dashoffset:4.7622;stroke-opacity:1;paint-order:markers fill stroke"
       id="path63960"
       inkscape:flatsided="false"
       sodipodi:sides="16"
       sodipodi:cx="123.51528"
       sodipodi:cy="104.1496"
       sodipodi:r1="19.603275"
       sodipodi:r2="16.649822"
       sodipodi:arg1="0.6314535"
       sodipodi:arg2="0.82039114"
       inkscape:rounded="0"
       inkscape:randomized="0"
       d="m 139.33846,115.72178 -4.46908,0.60571 -1.16386,4.56868 -4.3607,-1.15064 -2.82362,3.77551 -3.58843,-2.73181 -4.05352,2.40756 -2.26985,-3.8971 -4.6663,0.67309 -0.60571,-4.46908 -4.56868,-1.16387 1.15064,-4.36069 -3.77551,-2.82363 2.73181,-3.58842 -2.40756,-4.053522 3.89709,-2.269848 -0.67308,-4.666301 4.46908,-0.605712 1.16387,-4.568678 4.36069,1.150639 2.82363,-3.775516 3.58842,2.731816 4.05352,-2.407566 2.26985,3.897098 4.6663,-0.673085 0.60571,4.469083 4.56868,1.163866 -1.15064,4.36069 3.77552,2.823626 -2.73182,3.58843 2.40757,4.05352 -3.8971,2.26984 z"
       inkscape:transform-center-x="1.4277882e-06"
       transform="matrix(0.25217615,0,0,0.25217615,87.188141,73.043345)" />
    <path
       d="m 91.642437,63.887759 q 0,-3.286991 3.10094,-5.581683 3.16295,-2.294692 9.240783,-2.294692 0.80625,0 1.48845,0.06202 0.68221,0 2.10864,0.186056 1.48845,0.124038 2.60478,0.434131 1.17836,0.248075 2.54277,0.868262 1.42643,0.558168 2.35671,1.364411 0.93028,0.806243 1.55047,2.170655 0.6822,1.302392 0.6822,2.914879 0,1.798542 -0.93028,3.286991 -0.86826,1.42643 -1.55046,1.922579 -0.68221,0.49615 -1.73653,1.116337 -8.12445,4.713421 -8.12445,11.535476 v 1.67451 q 0,1.24037 -0.24807,1.55046 -0.18606,0.3101 -1.24038,0.3101 -0.74422,0 -1.05431,-0.12404 -0.24808,-0.18606 -0.3101,-0.43413 -0.062,-0.31009 -0.062,-1.11634 v -2.35671 q 0,-7.008111 5.58169,-12.837868 0.9923,-0.992299 1.36441,-1.984599 0.37211,-0.992299 0.37211,-2.976897 0,-1.42643 -0.12404,-2.108636 -0.12403,-0.744224 -0.62018,-1.612486 -0.49615,-0.868262 -1.73653,-1.240374 -1.24037,-0.372112 -3.28699,-0.372112 -4.403333,0 -7.008113,1.922579 l 0.12404,0.06202 q 0.062,0 0.18605,0.06202 0.18606,0.06202 0.37212,0.186056 0.18605,0.06202 0.37211,0.186056 0.18605,0.124037 0.37211,0.310093 0.24807,0.186056 0.43413,0.434131 0.18606,0.186056 0.31009,0.49615 0.18606,0.248075 0.3101,0.558168 0.18605,0.310094 0.24807,0.682206 0.062,0.372112 0.062,0.806243 0,1.798542 -1.17835,2.85286 -1.11634,1.054318 -2.72883,1.054318 -1.42643,0 -2.6668,-0.93028 -1.17836,-0.9923 -1.17836,-3.038917 z m 8.372533,34.110282 q -1.364413,-1.42643 -1.364413,-3.41103 0,-1.98459 1.364413,-3.41102 1.42643,-1.42643 3.47304,-1.42643 1.9846,0 3.41103,1.42643 1.42643,1.42643 1.42643,3.41102 0,1.9846 -1.42643,3.41103 -1.42643,1.42643 -3.41103,1.42643 -2.04661,0 -3.47304,-1.42643 z"
       id="text3"
       style="font-weight:bold;font-size:62.0187px;line-height:1;font-family:'CMU Serif';-inkscape-font-specification:'CMU Serif Bold';text-align:center;letter-spacing:0px;text-anchor:middle;fill:#ff0000;stroke:#800000;stroke-width:3.90669;stroke-linecap:square;stroke-linejoin:bevel;stroke-miterlimit:3.9;paint-order:markers stroke fill"
       aria-label="?" />
  </g>
</svg>
